<svg width="227" height="67" viewBox="0 0 227 67" fill="none" xmlns="http://www.w3.org/2000/svg">
<g clip-path="url(#clip0_12294_6458)">
<path d="M93.3697 0C92.9079 0 92.4331 0.182775 92.0168 0.594018C91.0802 1.54053 66.4224 25.1968 43.3321 47.4105C36.1514 54.3233 29.1137 61.0925 22.9932 67H46.3436C49.4722 67 52.3926 65.4529 54.1618 62.868L95.0543 2.96356C95.9324 1.49484 94.7161 0 93.3697 0Z" fill="Black"/>
<path d="M13.8674 53.5058C13.4446 53.4731 13.0348 53.4535 12.6055 53.434C12.0657 53.4078 11.5518 53.3883 11.064 53.3426C10.8038 53.3165 10.5372 53.3034 10.251 53.2969C12.3909 54.2499 14.7585 54.7787 17.2496 54.7787C19.5001 54.7787 21.653 54.3478 23.6238 53.558C19.9944 53.6298 16.5601 53.7016 13.8674 53.5123V53.5058Z" fill="Black"/>
<path d="M15.4929 49.7458C15.7921 49.6479 16.0913 49.5304 16.41 49.4129C16.9043 49.2301 17.4181 49.0473 17.945 48.8972C18.6084 48.7144 19.3434 48.4859 20.1239 48.2575C23.3501 47.2718 27.7079 45.9532 32.391 45.7769C32.6512 45.307 32.8854 44.8239 33.1 44.3278C27.9486 44.3735 23.194 45.8292 19.7077 46.8866C18.9337 47.1216 18.2052 47.3436 17.5612 47.5198C16.9694 47.683 16.4295 47.8854 15.9026 48.0812C15.8376 48.1008 15.7726 48.1204 15.7075 48.1465C16.475 47.7483 17.0864 47.3632 17.5287 47.0825L18.1661 46.6908C18.7645 46.3187 19.389 45.9271 20.0394 45.6007C20.28 45.4767 20.5402 45.3461 20.8069 45.209C23.8379 43.662 28.7877 41.1423 34.1602 40.9726C34.2578 40.4961 34.3358 40.0065 34.3944 39.5234C28.612 39.6214 23.3631 42.2977 20.1565 43.9296C19.8898 44.0667 19.6426 44.1972 19.3955 44.3147C18.693 44.6738 18.0426 45.0785 17.4116 45.4701L16.7742 45.8618C14.8424 47.0694 9.41136 50.4703 2.73145 46.8279C3.27781 47.6765 3.89571 48.4794 4.57867 49.2236C6.97875 50.033 9.18371 50.0656 11.096 49.7392C9.52844 50.1505 7.62918 50.4181 5.51528 50.1635C6.12018 50.7314 6.75761 51.2471 7.43405 51.7106C10.4976 51.6518 12.9887 50.6923 14.5628 50.0852C14.9205 49.9481 15.2262 49.8241 15.4799 49.7458H15.4929Z" fill="Black"/>
<path d="M13.2042 52.514C13.5945 52.4749 13.9912 52.4227 14.427 52.3508C14.8888 52.2856 15.3701 52.2138 15.845 52.1681C17.1653 52.0506 18.6743 51.8352 20.2744 51.6132C22.7265 51.2673 25.4778 50.8821 28.3852 50.6928C28.9446 50.2163 29.4715 49.7071 29.9658 49.1719C26.3819 49.309 23.0192 49.7855 20.0597 50.1967C18.4727 50.4187 16.9832 50.6341 15.7214 50.7385C15.1945 50.7842 14.6937 50.8625 14.2059 50.9343C13.8026 50.9931 13.4254 51.0453 13.0546 51.0845C12.5083 51.1367 11.8643 51.2607 11.1098 51.4043C10.1407 51.5936 9.02845 51.8025 7.78613 51.9396C8.44307 52.377 9.12602 52.7621 9.84149 53.1015C10.3944 53.0101 10.9082 52.9122 11.3895 52.8143C12.0985 52.6772 12.7099 52.5597 13.1912 52.5075L13.2042 52.514Z" fill="Black"/>
<path d="M22.6416 20.993C21.3407 20.5622 19.9683 20.288 18.5569 20.1836C17.5942 20.2554 16.6511 20.275 15.708 20.2032C14.3811 20.3141 13.0998 20.5883 11.877 20.993C13.4965 21.463 15.1811 21.698 16.9438 21.698C18.817 21.698 20.7228 21.4304 22.6481 20.993H22.6416Z" fill="Black"/>
<path d="M23.311 24.0069C23.7989 23.8372 24.2737 23.6414 24.755 23.439C25.0217 23.328 25.2884 23.2236 25.555 23.1126C25.8347 23.0017 26.1209 22.8842 26.4071 22.7732C25.8933 22.4403 25.3534 22.1465 24.8005 21.8789C24.6119 21.9507 24.4298 22.029 24.2477 22.1074L24.1956 22.127C23.7273 22.3163 23.285 22.5056 22.8362 22.6622C18.7125 24.131 13.8603 25.1819 8.59832 22.4664C8.13002 22.7406 7.67471 23.0343 7.23242 23.3607C9.84065 24.8621 12.5399 25.5931 15.4213 25.5931C18.4849 25.5931 21.2492 24.7511 23.3176 24.02L23.311 24.0069Z" fill="Black"/>
<path d="M14.0691 30.5432C17.4578 30.5432 20.4758 29.3747 22.4531 28.487C22.8759 28.2977 23.2922 28.0823 23.6954 27.8668C23.9946 27.7037 24.3394 27.5274 24.6711 27.3707C25.302 27.0705 25.9654 26.7441 26.6939 26.3916C27.546 25.9738 28.4371 25.5299 29.3672 25.0991C29.0029 24.7336 28.6127 24.3876 28.2159 24.0547C27.4679 24.4137 26.746 24.7727 26.0435 25.1122C25.354 25.4516 24.6906 25.778 24.0662 26.0717C23.715 26.2349 23.3767 26.4112 23.032 26.594C22.6417 26.8028 22.2645 26.9987 21.8742 27.1684C17.5424 29.1006 11.747 30.726 5.36633 26.0195C5.14518 25.8563 4.92403 25.7062 4.70289 25.5561C4.37117 25.9085 4.05246 26.2741 3.75977 26.6527C4.01343 26.8159 4.2671 26.9921 4.52077 27.1814C7.54527 29.4139 10.7584 30.5367 14.0756 30.5367L14.0691 30.5432Z" fill="Black"/>
<path d="M12.898 35.5434C16.8981 35.5434 20.0657 33.794 21.5877 32.9585C21.9715 32.7496 22.3422 32.5146 22.7065 32.2796C23.0512 32.0642 23.4089 31.8357 23.7732 31.6334C24.1244 31.4441 24.4887 31.2352 24.8724 31.0198C26.7261 29.9753 29.0026 28.6959 31.5133 27.6907C31.2336 27.2794 30.9344 26.8812 30.6222 26.4961C28.1766 27.5079 25.9846 28.7481 24.1699 29.7599C23.7927 29.9753 23.4285 30.1777 23.0772 30.3735C22.687 30.5889 22.3097 30.8305 21.926 31.072C21.5877 31.2874 21.2365 31.5093 20.8918 31.6986C18.3746 33.0825 11.6947 36.7576 4.05866 30.7652C3.3692 30.2234 2.67975 29.7599 1.97728 29.3487C1.75614 29.773 1.548 30.2103 1.35938 30.6477C1.97728 31.0067 2.58218 31.418 3.18058 31.8945C6.25711 34.3097 9.52227 35.5369 12.885 35.5369L12.898 35.5434Z" fill="Black"/>
<path d="M11.7017 40.5764C12.2936 40.5764 12.8985 40.5373 13.4969 40.4524C16.5994 40.0151 18.9865 38.6051 20.7361 37.417C21.0614 37.1951 21.3736 36.9601 21.6858 36.7316C22.076 36.4444 22.4793 36.1441 22.8891 35.883L23.3314 35.5958C25.803 34.0096 29.2763 31.7902 33.1659 30.7196C32.9772 30.2692 32.7756 29.8254 32.5414 29.3945C28.5673 30.5434 25.0745 32.7759 22.5639 34.3882L22.1216 34.6754C21.6728 34.9626 21.25 35.276 20.8337 35.5828C20.541 35.7982 20.2353 36.0266 19.9296 36.229C17.7116 37.7369 10.9667 42.3193 2.79079 35.4979C1.99726 34.8321 1.19073 34.2838 0.371187 33.8268C0.260614 34.3295 0.182562 34.8321 0.124023 35.3478C0.715915 35.7068 1.2948 36.118 1.87368 36.6011C5.02826 39.2317 8.33895 40.5699 11.7017 40.5699V40.5764Z" fill="Black"/>
<path d="M19.8709 40.8818L20.1116 40.6729C20.7165 40.1572 21.3409 39.622 21.9848 39.152C24.528 37.2981 28.977 34.0473 34.0113 33.3032C33.9007 32.8267 33.7641 32.3632 33.608 31.9062C28.3395 32.7483 23.78 36.0774 21.1458 37.9966C20.4563 38.4992 19.8059 39.054 19.1815 39.5893L18.9408 39.7982C11.4869 46.1692 4.80049 42.1939 1.48329 39.2564C0.995471 38.8191 0.49464 38.4404 -0.0126953 38.101C0.0133219 38.7538 0.0718606 39.3935 0.169425 40.0267C0.293007 40.1181 0.416588 40.2225 0.533666 40.3335C9.07381 47.8925 16.3066 43.9237 19.8579 40.8883L19.8709 40.8818Z" fill="Black"/>
<path d="M13.9714 46.5678C17.9651 45.4516 21.1522 43.0951 22.401 41.8679C22.9929 41.2934 23.9555 40.4057 24.7425 39.7986C27.2922 37.8207 30.3558 36.0387 34.486 36.3063C34.4535 35.8167 34.4014 35.3337 34.3299 34.8637C29.8224 34.6483 26.4662 36.6392 23.8645 38.6563C23.0384 39.296 22.0238 40.2294 21.4058 40.83C20.3391 41.8744 17.3277 44.1265 13.6072 45.1644C8.83304 46.496 4.5402 45.4712 0.852264 42.1094C0.754699 42.018 0.657135 41.9332 0.55957 41.8483C0.793725 42.7426 1.09943 43.6042 1.46367 44.4333C5.1516 47.0835 9.43794 47.8211 13.9779 46.5547L13.9714 46.5678Z" fill="Black"/>
<path d="M112.102 5.25477C112.96 4.81742 113.917 4.60201 114.97 4.60201C116.213 4.60201 117.331 4.90228 118.333 5.4963C119.335 6.09032 120.128 6.94544 120.707 8.04209C121.286 9.13874 121.572 10.3986 121.572 11.8151C121.572 13.2316 121.279 14.498 120.707 15.6142C120.128 16.7369 119.335 17.5986 118.32 18.2187C117.305 18.8389 116.193 19.1522 114.97 19.1522C113.877 19.1522 112.921 18.9368 112.076 18.5125C111.237 18.0882 110.567 17.5398 110.072 16.874V18.9237H107.165V0H110.072V6.93891C110.573 6.25351 111.243 5.69213 112.108 5.2613L112.102 5.25477ZM118.014 9.2954C117.617 8.59041 117.091 8.04862 116.434 7.68307C115.777 7.31752 115.081 7.13474 114.333 7.13474C113.585 7.13474 112.908 7.32405 112.258 7.70265C111.607 8.08125 111.074 8.62305 110.677 9.34109C110.281 10.0591 110.079 10.9012 110.079 11.8738C110.079 12.8465 110.281 13.6951 110.677 14.4196C111.074 15.1442 111.601 15.6925 112.258 16.0711C112.915 16.4432 113.604 16.639 114.333 16.639C115.061 16.639 115.777 16.4497 116.434 16.0646C117.091 15.6795 117.617 15.1181 118.014 14.387C118.411 13.6494 118.613 12.8008 118.613 11.8281C118.613 10.8555 118.411 10.0134 118.014 9.30193V9.2954Z" fill="Black"/>
<path d="M137.228 12.9688H126.496C126.58 14.0915 126.997 14.9989 127.745 15.6777C128.493 16.3631 129.41 16.6961 130.496 16.6961C132.063 16.6961 133.169 16.0368 133.813 14.7247H136.948C136.525 16.0237 135.751 17.0812 134.639 17.9102C133.52 18.7392 132.141 19.1505 130.496 19.1505C129.149 19.1505 127.946 18.8502 126.892 18.2431C125.826 17.636 125 16.7874 124.395 15.6843C123.79 14.5876 123.491 13.3082 123.491 11.859C123.491 10.4099 123.783 9.13048 124.369 8.03383C124.954 6.93718 125.78 6.08206 126.84 5.48804C127.901 4.89402 129.123 4.59375 130.496 4.59375C131.868 4.59375 133 4.88097 134.041 5.46193C135.081 6.04289 135.888 6.85885 136.46 7.90328C137.039 8.94771 137.332 10.1553 137.332 11.5196C137.332 12.0614 137.293 12.5379 137.228 12.9622V12.9688ZM134.294 10.6123C134.281 9.54172 133.898 8.68007 133.15 8.0273C132.402 7.38107 131.478 7.05468 130.372 7.05468C129.371 7.05468 128.512 7.37454 127.797 8.01425C127.081 8.65396 126.658 9.51561 126.522 10.6123H134.294Z" fill="Black"/>
<path d="M140.096 8.04946C140.681 6.95281 141.494 6.09768 142.528 5.50367C143.569 4.90965 144.753 4.60938 146.099 4.60938C147.797 4.60938 149.202 5.01409 150.321 5.82352C151.433 6.63295 152.187 7.78835 152.578 9.28971H149.443C149.189 8.59125 148.779 8.04293 148.22 7.65127C147.654 7.25961 146.951 7.06378 146.099 7.06378C144.909 7.06378 143.959 7.48155 143.257 8.33015C142.554 9.17222 142.197 10.3603 142.197 11.8747C142.197 13.3891 142.548 14.5771 143.257 15.4323C143.966 16.2874 144.909 16.7117 146.099 16.7117C147.784 16.7117 148.896 15.9675 149.443 14.4857H152.578C152.168 15.9153 151.407 17.0576 150.282 17.8997C149.163 18.7418 147.764 19.1661 146.099 19.1661C144.753 19.1661 143.569 18.8658 142.528 18.2587C141.488 17.6517 140.681 16.8031 140.096 15.6999C139.504 14.6032 139.218 13.3238 139.218 11.8747C139.218 10.4255 139.504 9.14611 140.089 8.04946H140.096Z" fill="Black"/>
<path d="M161.04 11.8999L167.518 18.9368H163.589L158.386 12.8726V18.9368H155.479V0H158.386V10.9991L163.485 4.837H167.511L161.033 11.8999H161.04Z" fill="Black"/>
<path d="M179.668 5.30002C180.54 5.76349 181.229 6.44237 181.717 7.34971C182.205 8.25053 182.459 9.34718 182.459 10.6266V18.9429H179.577V11.064C179.577 9.80412 179.259 8.83149 178.634 8.15914C178.01 7.48679 177.145 7.14735 176.065 7.14735C174.985 7.14735 174.114 7.48679 173.476 8.15914C172.839 8.83149 172.52 9.80412 172.52 11.064V18.9429H169.613V4.83656H172.52V6.44889C172.995 5.86793 173.606 5.41752 174.341 5.09114C175.083 4.77128 175.863 4.60156 176.702 4.60156C177.808 4.60156 178.797 4.83656 179.675 5.2935L179.668 5.30002Z" fill="Black"/>
<path d="M109.662 41.0986C108.596 40.4915 107.75 39.6429 107.139 38.5397C106.527 37.4431 106.222 36.1637 106.222 34.7145C106.222 33.2654 106.534 32.0121 107.165 30.9024C107.796 29.7927 108.654 28.9441 109.741 28.3435C110.833 27.7495 112.043 27.4492 113.389 27.4492C114.736 27.4492 115.946 27.7495 117.038 28.3435C118.131 28.9375 118.983 29.7927 119.614 30.9024C120.245 32.0121 120.557 33.285 120.557 34.7145C120.557 36.1441 120.238 37.417 119.588 38.5267C118.944 39.6364 118.066 40.4915 116.947 41.0986C115.829 41.7057 114.606 42.0059 113.266 42.0059C111.945 42.0059 110.742 41.7122 109.669 41.1051L109.662 41.0986ZM115.36 38.9379C116.017 38.5789 116.544 38.0436 116.954 37.3256C117.364 36.6075 117.565 35.7394 117.565 34.721C117.565 33.7027 117.37 32.8345 116.973 32.123C116.583 31.4115 116.063 30.8828 115.419 30.5238C114.775 30.1647 114.072 29.982 113.324 29.982C112.576 29.982 111.88 30.1582 111.249 30.5238C110.612 30.8893 110.105 31.418 109.727 32.123C109.35 32.828 109.168 33.6962 109.168 34.721C109.168 36.242 109.558 37.4104 110.332 38.2395C111.106 39.0685 112.076 39.4797 113.253 39.4797C114.014 39.4797 114.716 39.2969 115.367 38.9379H115.36Z" fill="Black"/>
<path d="M128.356 28.1072C129.201 27.6633 130.164 27.4414 131.237 27.4414C132.46 27.4414 133.579 27.7417 134.587 28.3488C135.602 28.9558 136.395 29.8044 136.974 30.8945C137.553 31.9912 137.839 33.238 137.839 34.661C137.839 36.084 137.553 37.3439 136.974 38.4601C136.395 39.5829 135.602 40.4445 134.587 41.0647C133.572 41.6848 132.46 41.9981 131.237 41.9981C130.171 41.9981 129.214 41.7827 128.382 41.3453C127.549 40.908 126.866 40.3727 126.34 39.72V48.4736H123.432V27.6699H126.34V29.7457C126.827 29.0994 127.504 28.5511 128.356 28.1072ZM134.288 32.1413C133.891 31.4363 133.364 30.8945 132.707 30.529C132.05 30.1634 131.354 29.9807 130.606 29.9807C129.858 29.9807 129.182 30.17 128.531 30.5486C127.875 30.9207 127.348 31.469 126.951 32.187C126.554 32.9051 126.353 33.7471 126.353 34.7198C126.353 35.6924 126.554 36.541 126.951 37.2655C127.348 37.9901 127.875 38.5384 128.531 38.917C129.188 39.2891 129.878 39.485 130.606 39.485C131.335 39.485 132.057 39.2957 132.707 38.9105C133.358 38.5254 133.891 37.964 134.288 37.2329C134.685 36.4953 134.886 35.6467 134.886 34.6741C134.886 33.7014 134.685 32.8528 134.288 32.1479V32.1413Z" fill="Black"/>
<path d="M153.489 35.8125H142.756C142.841 36.9353 143.257 37.8426 144.005 38.5215C144.753 39.2069 145.67 39.5398 146.757 39.5398C148.324 39.5398 149.43 38.8805 150.074 37.5684H153.209C152.786 38.8674 152.012 39.9249 150.9 40.7539C149.781 41.583 148.402 41.9942 146.757 41.9942C145.41 41.9942 144.207 41.6939 143.153 41.0869C142.087 40.4798 141.26 39.6312 140.656 38.528C140.051 37.4314 139.751 36.1519 139.751 34.7028C139.751 33.2537 140.044 31.9742 140.63 30.8776C141.215 29.7809 142.041 28.9258 143.101 28.3318C144.168 27.7378 145.384 27.4375 146.757 27.4375C148.129 27.4375 149.261 27.7247 150.301 28.3057C151.342 28.8866 152.149 29.7026 152.728 30.747C153.306 31.7915 153.593 32.9991 153.593 34.3634C153.593 34.8986 153.56 35.3817 153.489 35.806V35.8125ZM150.562 33.456C150.549 32.3855 150.165 31.5238 149.417 30.8711C148.669 30.2248 147.745 29.8984 146.64 29.8984C145.638 29.8984 144.779 30.2183 144.07 30.858C143.355 31.4977 142.926 32.3594 142.795 33.456H150.568H150.562Z" fill="Black"/>
<path d="M166.51 28.1333C167.388 28.5968 168.071 29.2757 168.559 30.183C169.047 31.0838 169.3 32.1805 169.3 33.4599V41.7762H166.419V33.8973C166.419 32.6374 166.1 31.6648 165.476 30.9925C164.845 30.3201 163.986 29.9807 162.9 29.9807C161.814 29.9807 160.949 30.3201 160.311 30.9925C159.674 31.6648 159.355 32.6374 159.355 33.8973V41.7762H156.448V27.6764H159.355V29.2887C159.83 28.7078 160.441 28.2574 161.176 27.931C161.911 27.6111 162.698 27.4414 163.531 27.4414C164.65 27.4414 165.638 27.6764 166.51 28.1333Z" fill="Black"/>
<path d="M107.074 55.8815C107.659 54.7848 108.472 53.9297 109.506 53.3357C110.547 52.7417 111.731 52.4414 113.077 52.4414C114.775 52.4414 116.18 52.8461 117.299 53.6556C118.411 54.465 119.165 55.6204 119.556 57.1217H116.421C116.167 56.4233 115.757 55.875 115.198 55.4833C114.632 55.0916 113.929 54.8958 113.077 54.8958C111.887 54.8958 110.937 55.3136 110.235 56.1622C109.533 57.0043 109.175 58.1923 109.175 59.7067C109.175 61.2211 109.526 62.4092 110.235 63.2643C110.944 64.1194 111.887 64.5437 113.077 64.5437C114.762 64.5437 115.874 63.7996 116.421 62.3178H119.556C119.146 63.7473 118.385 64.8897 117.26 65.7317C116.141 66.5738 114.742 66.9981 113.077 66.9981C111.737 66.9981 110.547 66.6978 109.506 66.0908C108.466 65.4837 107.659 64.6351 107.074 63.5319C106.488 62.4353 106.196 61.1558 106.196 59.7067C106.196 58.2576 106.488 56.9847 107.067 55.8815H107.074Z" fill="Black"/>
<path d="M124.967 66.0908C123.9 65.4837 123.055 64.6351 122.443 63.5319C121.832 62.4353 121.526 61.1558 121.526 59.7067C121.526 58.2576 121.845 57.0042 122.469 55.8945C123.1 54.7848 123.959 53.9362 125.045 53.3357C126.138 52.7417 127.348 52.4414 128.694 52.4414C130.04 52.4414 131.25 52.7417 132.343 53.3357C133.436 53.9297 134.288 54.7848 134.919 55.8945C135.55 57.0042 135.862 58.2771 135.862 59.7067C135.862 61.1363 135.543 62.4092 134.893 63.5189C134.249 64.6286 133.371 65.4837 132.252 66.0908C131.14 66.6978 129.91 66.9981 128.571 66.9981C127.244 66.9981 126.047 66.6978 124.974 66.0973L124.967 66.0908ZM130.665 63.9301C131.322 63.5711 131.849 63.0358 132.258 62.3178C132.668 61.5997 132.87 60.7316 132.87 59.7132C132.87 58.6949 132.675 57.8267 132.284 57.1152C131.894 56.4037 131.374 55.875 130.73 55.5159C130.086 55.1569 129.384 54.9741 128.636 54.9741C127.888 54.9741 127.192 55.1504 126.561 55.5159C125.923 55.8815 125.422 56.4102 125.045 57.1152C124.668 57.8202 124.479 58.6884 124.479 59.7132C124.479 61.2342 124.87 62.4026 125.644 63.2316C126.418 64.0607 127.393 64.4719 128.564 64.4719C129.319 64.4719 130.021 64.2891 130.678 63.9301H130.665Z" fill="Black"/>
<path d="M141.637 47.8359V66.7662H138.73V47.8359H141.637Z" fill="Black"/>
<path d="M148.363 47.8359V66.7662H145.456V47.8359H148.363Z" fill="Black"/>
<path d="M164.962 60.8047H154.23C154.321 61.9274 154.731 62.8348 155.479 63.5137C156.227 64.1991 157.144 64.532 158.23 64.532C159.798 64.532 160.903 63.8727 161.547 62.5606H164.682C164.26 63.8596 163.492 64.9171 162.373 65.7461C161.255 66.5751 159.876 66.9864 158.23 66.9864C156.884 66.9864 155.681 66.6861 154.627 66.079C153.56 65.472 152.734 64.6234 152.129 63.5202C151.524 62.4235 151.225 61.1441 151.225 59.695C151.225 58.2458 151.518 56.9664 152.103 55.8698C152.695 54.7731 153.515 53.918 154.581 53.324C155.648 52.73 156.864 52.4297 158.237 52.4297C159.609 52.4297 160.741 52.7169 161.782 53.2979C162.822 53.8788 163.629 54.6948 164.208 55.7392C164.787 56.7836 165.073 57.9913 165.073 59.3555C165.073 59.8973 165.034 60.3739 164.969 60.7982L164.962 60.8047ZM162.035 58.4482C162.022 57.3777 161.638 56.516 160.89 55.8632C160.142 55.217 159.219 54.8906 158.113 54.8906C157.111 54.8906 156.253 55.2105 155.537 55.8502C154.822 56.4899 154.399 57.3516 154.263 58.4482H162.042H162.035Z" fill="Black"/>
<path d="M167.837 55.8815C168.422 54.7848 169.235 53.9297 170.27 53.3357C171.31 52.7417 172.494 52.4414 173.841 52.4414C175.538 52.4414 176.943 52.8461 178.062 53.6556C179.174 54.465 179.929 55.6204 180.319 57.1217H177.184C176.93 56.4233 176.52 55.875 175.961 55.4833C175.402 55.0916 174.693 54.8958 173.841 54.8958C172.65 54.8958 171.701 55.3136 170.998 56.1622C170.289 57.0043 169.938 58.1923 169.938 59.7067C169.938 61.2211 170.289 62.4092 170.998 63.2643C171.701 64.1194 172.65 64.5437 173.841 64.5437C175.525 64.5437 176.637 63.7996 177.184 62.3178H180.319C179.909 63.7473 179.148 64.8897 178.023 65.7317C176.904 66.5738 175.506 66.9981 173.841 66.9981C172.494 66.9981 171.31 66.6978 170.27 66.0908C169.229 65.4837 168.422 64.6351 167.837 63.5319C167.252 62.4353 166.959 61.1558 166.959 59.7067C166.959 58.2576 167.245 56.9847 167.831 55.8815H167.837Z" fill="Black"/>
<path d="M186.615 55.0559V62.8565C186.615 63.3852 186.738 63.7638 186.985 63.9988C187.233 64.2273 187.649 64.3448 188.247 64.3448H190.036V66.7731H187.74C186.433 66.7731 185.431 66.4663 184.735 65.8527C184.039 65.2326 183.694 64.2404 183.694 62.8565V55.0559H182.036V52.6733H183.694V49.168H186.628V52.6733H190.042V55.0559H186.615Z" fill="Black"/>
<path d="M192.859 50.2715C192.501 49.9125 192.319 49.4686 192.319 48.9398C192.319 48.4111 192.494 47.9672 192.859 47.6082C193.216 47.2492 193.659 47.0664 194.186 47.0664C194.712 47.0664 195.129 47.2427 195.486 47.6082C195.844 47.9672 196.026 48.4111 196.026 48.9398C196.026 49.4686 195.844 49.9125 195.486 50.2715C195.129 50.6305 194.693 50.8133 194.186 50.8133C193.678 50.8133 193.216 50.6305 192.859 50.2715ZM195.61 52.6802V66.78H192.703V52.6802H195.61Z" fill="Black"/>
<path d="M204.866 64.1606L208.846 52.6719H211.929L206.57 66.7716H203.103L197.77 52.6719H200.879L204.859 64.1606H204.866Z" fill="Black"/>
<path d="M226.896 60.8047H216.164C216.248 61.9274 216.665 62.8348 217.413 63.5137C218.161 64.1991 219.078 64.532 220.164 64.532C221.731 64.532 222.837 63.8727 223.481 62.5606H226.616C226.193 63.8596 225.426 64.9171 224.307 65.7461C223.195 66.5751 221.809 66.9864 220.164 66.9864C218.817 66.9864 217.614 66.6861 216.56 66.079C215.494 65.472 214.661 64.6234 214.063 63.5202C213.458 62.4235 213.159 61.1441 213.159 59.695C213.159 58.2458 213.451 56.9664 214.037 55.8698C214.622 54.7731 215.448 53.918 216.508 53.324C217.575 52.73 218.791 52.4297 220.164 52.4297C221.536 52.4297 222.668 52.7169 223.709 53.2979C224.749 53.8788 225.549 54.6948 226.128 55.7392C226.707 56.7836 226.993 57.9913 226.993 59.3555C226.993 59.8973 226.961 60.3739 226.889 60.7982L226.896 60.8047ZM223.962 58.4482C223.949 57.3777 223.566 56.516 222.818 55.8632C222.07 55.217 221.146 54.8906 220.04 54.8906C219.039 54.8906 218.18 55.2105 217.465 55.8502C216.749 56.4899 216.326 57.3516 216.19 58.4482H223.962Z" fill="Black"/>
</g>
<defs>
<clipPath id="clip0_12294_6458">
<rect width="227" height="67" fill="Black"/>
</clipPath>
</defs>
</svg>
