<svg width="134" height="40" viewBox="0 0 134 40" fill="none" xmlns="http://www.w3.org/2000/svg">
<g clip-path="url(#clip0_13031_7731)">
<path d="M55.0223 0C54.7501 0 54.4703 0.109119 54.225 0.354638C53.673 0.919719 39.1423 15.0429 25.5352 28.3048C21.3037 32.4318 17.1564 36.4731 13.5496 40H27.3099C29.1536 40 30.8746 39.0764 31.9171 37.5331L56.015 1.76929C56.5324 0.89244 55.8157 0 55.0223 0Z" fill="black"/>
<path d="M8.1719 31.9447C7.92276 31.9252 7.68128 31.9135 7.4283 31.9018C7.11017 31.8862 6.80736 31.8745 6.51989 31.8472C6.36657 31.8316 6.20942 31.8238 6.04077 31.8199C7.30182 32.3889 8.69702 32.7046 10.165 32.7046C11.4912 32.7046 12.76 32.4474 13.9214 31.9758C11.7826 32.0187 9.75875 32.0616 8.1719 31.9486V31.9447Z" fill="black"/>
<path d="M9.13014 29.6999C9.30646 29.6415 9.48277 29.5713 9.67059 29.5012C9.96189 29.3921 10.2647 29.2829 10.5752 29.1933C10.9661 29.0842 11.3993 28.9478 11.8592 28.8114C13.7604 28.2229 16.3285 27.4357 19.0882 27.3305C19.2415 27.0499 19.3795 26.7615 19.506 26.4653C16.4703 26.4926 13.6684 27.3617 11.6139 27.993C11.1578 28.1333 10.7285 28.2658 10.349 28.371C10.0002 28.4684 9.68209 28.5893 9.37162 28.7062C9.33329 28.7179 9.29496 28.7295 9.25663 28.7451C9.70892 28.5074 10.0692 28.2775 10.3299 28.1099L10.7055 27.8761C11.0581 27.6539 11.4261 27.4201 11.8094 27.2253C11.9512 27.1512 12.1045 27.0733 12.2617 26.9914C14.0478 26.0678 16.9647 24.5635 20.1308 24.4622C20.1882 24.1777 20.2342 23.8854 20.2687 23.597C16.8612 23.6555 13.768 25.2533 11.8784 26.2276C11.7212 26.3094 11.5756 26.3874 11.4299 26.4575C11.016 26.6719 10.6327 26.9135 10.2609 27.1473L9.88524 27.3811C8.74685 28.1021 5.54632 30.1325 1.60986 27.9579C1.93183 28.4645 2.29596 28.9439 2.69843 29.3882C4.11279 29.8714 5.41216 29.8909 6.53906 29.696C5.61531 29.9416 4.49609 30.1013 3.25037 29.9493C3.60684 30.2884 3.98247 30.5963 4.3811 30.873C6.18642 30.8379 7.65445 30.265 8.58203 29.9026C8.79284 29.8207 8.97299 29.7467 9.12248 29.6999H9.13014Z" fill="black"/>
<path d="M7.78099 31.3523C8.01097 31.3289 8.24478 31.2977 8.50159 31.2549C8.77373 31.2159 9.05737 31.173 9.33718 31.1457C10.1153 31.0756 11.0045 30.947 11.9474 30.8145C13.3925 30.6079 15.0138 30.378 16.7271 30.265C17.0568 29.9805 17.3672 29.6765 17.6585 29.357C15.5466 29.4388 13.5649 29.7233 11.8209 29.9688C10.8857 30.1013 10.0079 30.2299 9.26435 30.2923C8.95388 30.3196 8.65874 30.3663 8.37127 30.4092C8.13363 30.4443 7.91132 30.4754 7.69284 30.4988C7.37087 30.53 6.9914 30.604 6.54678 30.6898C5.97567 30.8028 5.32023 30.9275 4.58813 31.0093C4.97526 31.2704 5.37773 31.5004 5.79935 31.703C6.12515 31.6485 6.42796 31.59 6.7116 31.5316C7.12939 31.4497 7.48969 31.3796 7.77333 31.3484L7.78099 31.3523Z" fill="black"/>
<path d="M13.3426 12.5331C12.576 12.2759 11.7672 12.1123 10.9355 12.0499C10.3682 12.0928 9.81242 12.1045 9.25664 12.0616C8.47471 12.1278 7.71962 12.2915 6.99902 12.5331C7.95343 12.8137 8.94617 12.954 9.9849 12.954C11.0888 12.954 12.2119 12.7942 13.3464 12.5331H13.3426Z" fill="black"/>
<path d="M13.7373 14.3336C14.0248 14.2323 14.3046 14.1154 14.5882 13.9946C14.7454 13.9283 14.9025 13.8659 15.0597 13.7997C15.2245 13.7334 15.3931 13.6633 15.5618 13.597C15.259 13.3983 14.9408 13.2229 14.615 13.0631C14.5039 13.106 14.3966 13.1528 14.2892 13.1995L14.2586 13.2112C13.9826 13.3242 13.722 13.4373 13.4575 13.5308C11.0274 14.4076 8.168 15.0351 5.06713 13.4139C4.79116 13.5776 4.52285 13.7529 4.26221 13.9478C5.79923 14.8441 7.38991 15.2806 9.08791 15.2806C10.8932 15.2806 12.5222 14.7779 13.7411 14.3414L13.7373 14.3336Z" fill="black"/>
<path d="M8.29083 18.2346C10.2878 18.2346 12.0663 17.537 13.2315 17.007C13.4807 16.894 13.726 16.7654 13.9636 16.6368C14.1399 16.5394 14.3431 16.4341 14.5386 16.3406C14.9104 16.1613 15.3013 15.9665 15.7306 15.756C16.2327 15.5066 16.7578 15.2416 17.306 14.9844C17.0913 14.7662 16.8613 14.5596 16.6275 14.3609C16.1867 14.5752 15.7613 14.7896 15.3473 14.9922C14.941 15.1949 14.5501 15.3897 14.1821 15.5651C13.9751 15.6625 13.7758 15.7677 13.5727 15.8768C13.3427 16.0016 13.1204 16.1185 12.8904 16.2198C10.3376 17.3733 6.92246 18.3437 3.16232 15.5339C3.032 15.4365 2.90168 15.3468 2.77136 15.2572C2.57587 15.4677 2.38806 15.6859 2.21558 15.9119C2.36506 16.0094 2.51455 16.1146 2.66403 16.2276C4.44636 17.5604 6.33985 18.2307 8.29466 18.2307L8.29083 18.2346Z" fill="black"/>
<path d="M7.60071 21.2198C9.95798 21.2198 11.8246 20.1754 12.7215 19.6765C12.9477 19.5518 13.1662 19.4115 13.3808 19.2712C13.584 19.1426 13.7948 19.0062 14.0094 18.8854C14.2164 18.7724 14.4311 18.6477 14.6572 18.5191C15.7496 17.8956 17.0911 17.1317 18.5707 16.5316C18.4058 16.286 18.2295 16.0483 18.0455 15.8184C16.6043 16.4224 15.3126 17.1629 14.2432 17.7669C14.0209 17.8956 13.8063 18.0164 13.5993 18.1333C13.3693 18.2619 13.147 18.4061 12.9209 18.5503C12.7215 18.6789 12.5146 18.8114 12.3114 18.9244C10.8281 19.7506 6.89161 21.9447 2.39171 18.3671C1.98541 18.0436 1.57912 17.7669 1.16516 17.5214C1.03484 17.7747 0.912181 18.0358 0.801025 18.297C1.16516 18.5113 1.52162 18.7568 1.87426 19.0413C3.68725 20.4832 5.6114 21.2159 7.59304 21.2159L7.60071 21.2198Z" fill="black"/>
<path d="M6.89543 24.2245C7.24423 24.2245 7.6007 24.2011 7.95333 24.1504C9.78166 23.8893 11.1884 23.0475 12.2194 22.3383C12.4111 22.2058 12.5951 22.0655 12.779 21.9291C13.009 21.7576 13.2467 21.5783 13.4881 21.4224L13.7488 21.251C15.2053 20.304 17.2521 18.9789 19.5442 18.3398C19.4331 18.0709 19.3142 17.8059 19.1763 17.5487C16.8343 18.2346 14.776 19.5674 13.2965 20.53L13.0358 20.7015C12.7714 20.8729 12.5222 21.06 12.2769 21.2432C12.1044 21.3718 11.9243 21.5082 11.7441 21.629C10.4371 22.5292 6.46231 25.265 1.64427 21.1925C1.17665 20.795 0.70136 20.4676 0.218407 20.1948C0.153246 20.4949 0.107251 20.795 0.0727539 21.1029C0.421554 21.3172 0.762688 21.5627 1.10382 21.8511C2.96281 23.4217 4.91379 24.2206 6.89543 24.2206V24.2245Z" fill="black"/>
<path d="M11.7096 24.4076L11.8514 24.2829C12.2078 23.9751 12.5758 23.6555 12.9553 23.3749C14.454 22.2681 17.0757 20.3274 20.0424 19.8831C19.9773 19.5986 19.8968 19.3219 19.8048 19.0491C16.7001 19.5518 14.0132 21.5394 12.4608 22.6851C12.0545 22.9852 11.6712 23.3164 11.3033 23.636L11.1614 23.7607C6.76887 27.5643 2.82858 25.191 0.873769 23.4373C0.586297 23.1761 0.291159 22.9501 -0.0078125 22.7475C0.00751936 23.1372 0.042016 23.5191 0.0995105 23.8971C0.172337 23.9517 0.245163 24.014 0.314157 24.0803C5.34684 28.5931 9.6091 26.2237 11.7019 24.4115L11.7096 24.4076Z" fill="black"/>
<path d="M8.23317 27.802C10.5866 27.1356 12.4648 25.7288 13.2007 24.9961C13.5495 24.6532 14.1168 24.1232 14.5806 23.7607C16.0831 22.5799 17.8884 21.516 20.3223 21.6758C20.3032 21.3835 20.2725 21.0951 20.2304 20.8145C17.5741 20.6859 15.5963 21.8745 14.0631 23.0787C13.5763 23.4606 12.9784 24.0179 12.6142 24.3765C11.9856 25 10.211 26.3445 8.01852 26.9642C5.20512 27.7592 2.67537 27.1473 0.502073 25.1403C0.444579 25.0857 0.387084 25.0351 0.32959 24.9844C0.467577 25.5183 0.647726 26.0327 0.862372 26.5277C3.03566 28.1099 5.56159 28.5503 8.237 27.7942L8.23317 27.802Z" fill="black"/>
<path d="M66.0611 3.13718C66.567 2.87607 67.1305 2.74747 67.7514 2.74747C68.4835 2.74747 69.1428 2.92673 69.7331 3.28137C70.3233 3.63601 70.791 4.14653 71.1321 4.80125C71.4732 5.45596 71.6419 6.20811 71.6419 7.05378C71.6419 7.89945 71.4694 8.65549 71.1321 9.3219C70.791 9.99221 70.3233 10.5066 69.7254 10.8769C69.1275 11.2471 68.472 11.4341 67.7514 11.4341C67.1075 11.4341 66.544 11.3055 66.0457 11.0522C65.5513 10.7989 65.1565 10.4716 64.8652 10.074V11.2977H63.1519V0H64.8652V4.14263C65.1603 3.73344 65.5551 3.39829 66.0649 3.14108L66.0611 3.13718ZM69.5452 5.54949C69.3114 5.1286 69.001 4.80514 68.6138 4.58691C68.2267 4.36867 67.8166 4.25955 67.3758 4.25955C66.935 4.25955 66.5364 4.37256 66.1531 4.5986C65.7698 4.82463 65.4555 5.14809 65.2217 5.57677C64.9878 6.00546 64.869 6.50818 64.869 7.08885C64.869 7.66952 64.9878 8.17615 65.2217 8.60873C65.4555 9.04131 65.7659 9.36867 66.1531 9.5947C66.5402 9.81684 66.9465 9.93375 67.3758 9.93375C67.8051 9.93375 68.2267 9.82073 68.6138 9.5908C69.001 9.36087 69.3114 9.02572 69.5452 8.58924C69.7791 8.14887 69.8979 7.64224 69.8979 7.06157C69.8979 6.4809 69.7791 5.97818 69.5452 5.55339V5.54949Z" fill="black"/>
<path d="M80.8679 7.74356H74.5435C74.5934 8.41387 74.8387 8.95556 75.2795 9.36087C75.7203 9.77006 76.2607 9.96882 76.9008 9.96882C77.8246 9.96882 78.4762 9.57521 78.8556 8.79189H80.7031C80.454 9.56741 79.9978 10.1987 79.3424 10.6937C78.6831 11.1886 77.8706 11.4341 76.9008 11.4341C76.1074 11.4341 75.3983 11.2549 74.7773 10.8924C74.1487 10.53 73.662 10.0234 73.3055 9.36476C72.949 8.71005 72.7727 7.94621 72.7727 7.08105C72.7727 6.21589 72.9452 5.45206 73.2902 4.79734C73.6351 4.14263 74.1219 3.6321 74.7467 3.27747C75.3715 2.92283 76.0921 2.74356 76.9008 2.74356C77.7096 2.74356 78.3765 2.91503 78.9898 3.26188C79.6031 3.60872 80.0783 4.09586 80.4156 4.7194C80.7568 5.34294 80.9293 6.0639 80.9293 6.8784C80.9293 7.20186 80.9063 7.48635 80.8679 7.73966V7.74356ZM79.1393 6.3367C79.1316 5.69758 78.9055 5.18316 78.4647 4.79344C78.0239 4.40763 77.4796 4.21277 76.828 4.21277C76.2377 4.21277 75.7318 4.40373 75.3101 4.78565C74.8885 5.16757 74.6394 5.68199 74.5589 6.3367H79.1393Z" fill="black"/>
<path d="M82.5582 4.80515C82.9032 4.15044 83.3823 3.63992 83.9918 3.28528C84.605 2.93064 85.3026 2.75137 86.096 2.75137C87.0965 2.75137 87.9244 2.99299 88.5836 3.47624C89.2391 3.95948 89.6837 4.64927 89.9137 5.54561H88.0662C87.9167 5.12861 87.6752 4.80126 87.3456 4.56743C87.0121 4.3336 86.5982 4.21669 86.096 4.21669C85.3946 4.21669 84.835 4.4661 84.421 4.97273C84.0071 5.47546 83.7963 6.18473 83.7963 7.08886C83.7963 7.993 84.0033 8.70227 84.421 9.21279C84.8388 9.72331 85.3946 9.97663 86.096 9.97663C87.0888 9.97663 87.7442 9.53236 88.0662 8.64771H89.9137C89.6722 9.50118 89.2238 10.1832 88.5606 10.6859C87.9014 11.1886 87.0773 11.4419 86.096 11.4419C85.3026 11.4419 84.605 11.2627 83.9918 10.9002C83.3785 10.5378 82.9032 10.0312 82.5582 9.37257C82.2094 8.71786 82.0408 7.95402 82.0408 7.08886C82.0408 6.2237 82.2094 5.45987 82.5544 4.80515H82.5582Z" fill="black"/>
<path d="M94.9005 7.10444L98.7181 11.3055H96.403L93.3366 7.68511V11.3055H91.6233V0H93.3366V6.56664L96.3417 2.88776H98.7143L94.8966 7.10444H94.9005Z" fill="black"/>
<path d="M105.878 3.16446C106.392 3.44115 106.798 3.84645 107.085 4.38815C107.373 4.92596 107.522 5.58067 107.522 6.34451V11.3094H105.824V6.60561C105.824 5.85347 105.636 5.2728 105.268 4.8714C104.901 4.46999 104.391 4.26734 103.754 4.26734C103.118 4.26734 102.605 4.46999 102.229 4.8714C101.853 5.2728 101.665 5.85347 101.665 6.60561V11.3094H99.9521V2.88776H101.665V3.85035C101.945 3.50351 102.306 3.23461 102.739 3.03975C103.176 2.84879 103.636 2.74747 104.13 2.74747C104.782 2.74747 105.364 2.88776 105.882 3.16056L105.878 3.16446Z" fill="black"/>
<path d="M64.6238 24.5363C63.9952 24.1738 63.4969 23.6672 63.1366 23.0086C62.7763 22.3539 62.5962 21.59 62.5962 20.7249C62.5962 19.8597 62.7802 19.1115 63.152 18.449C63.5238 17.7865 64.0297 17.2798 64.6698 16.9213C65.3138 16.5667 66.0267 16.3874 66.8201 16.3874C67.6135 16.3874 68.3265 16.5667 68.9704 16.9213C69.6144 17.2759 70.1165 17.7865 70.4883 18.449C70.8601 19.1115 71.044 19.8714 71.044 20.7249C71.044 21.5784 70.8562 22.3383 70.4729 23.0008C70.0935 23.6633 69.576 24.1738 68.9168 24.5363C68.2575 24.8987 67.5369 25.078 66.7473 25.078C65.9692 25.078 65.2601 24.9026 64.6277 24.5402L64.6238 24.5363ZM67.9815 23.2463C68.3686 23.032 68.6791 22.7124 68.9206 22.2837C69.1621 21.855 69.2809 21.3367 69.2809 20.7288C69.2809 20.1208 69.1659 19.6025 68.9321 19.1777C68.7021 18.7529 68.3955 18.4373 68.016 18.2229C67.6365 18.0086 67.2226 17.8995 66.7818 17.8995C66.341 17.8995 65.9309 18.0047 65.5591 18.2229C65.1834 18.4412 64.8845 18.7568 64.6622 19.1777C64.4398 19.5986 64.3325 20.1169 64.3325 20.7288C64.3325 21.6368 64.5625 22.3344 65.0186 22.8293C65.4748 23.3243 66.0459 23.5698 66.7396 23.5698C67.1881 23.5698 67.602 23.4607 67.9853 23.2463H67.9815Z" fill="black"/>
<path d="M75.6398 16.781C76.1381 16.516 76.7054 16.3835 77.3378 16.3835C78.0584 16.3835 78.7177 16.5628 79.3118 16.9252C79.9098 17.2876 80.3774 17.7942 80.7185 18.4451C81.0596 19.0998 81.2283 19.8441 81.2283 20.6937C81.2283 21.5433 81.0596 22.2954 80.7185 22.9618C80.3774 23.6321 79.9098 24.1465 79.3118 24.5168C78.7139 24.887 78.0584 25.0741 77.3378 25.0741C76.7092 25.0741 76.1458 24.9454 75.6552 24.6843C75.1645 24.4232 74.7621 24.1037 74.4516 23.714V28.94H72.7383V16.5199H74.4516V17.7592C74.7391 17.3734 75.1377 17.046 75.6398 16.781ZM79.1355 19.1894C78.9017 18.7685 78.5912 18.4451 78.2041 18.2268C77.817 18.0086 77.4068 17.8995 76.966 17.8995C76.5253 17.8995 76.1266 18.0125 75.7433 18.2385C75.3562 18.4606 75.0457 18.788 74.8119 19.2167C74.5781 19.6454 74.4593 20.1481 74.4593 20.7288C74.4593 21.3094 74.5781 21.8161 74.8119 22.2486C75.0457 22.6812 75.3562 23.0086 75.7433 23.2346C76.1305 23.4567 76.5367 23.5737 76.966 23.5737C77.3953 23.5737 77.8208 23.4606 78.2041 23.2307C78.5874 23.0008 78.9017 22.6656 79.1355 22.2292C79.3693 21.7888 79.4881 21.2822 79.4881 20.7015C79.4881 20.1208 79.3693 19.6142 79.1355 19.1933V19.1894Z" fill="black"/>
<path d="M90.4502 21.3796H84.1258C84.1756 22.0499 84.4209 22.5916 84.8617 22.9969C85.3025 23.4061 85.843 23.6048 86.4831 23.6048C87.4068 23.6048 88.0584 23.2112 88.4379 22.4279H90.2854C90.0362 23.2034 89.5801 23.8348 88.9247 24.3297C88.2654 24.8246 87.4528 25.0701 86.4831 25.0701C85.6897 25.0701 84.9806 24.8909 84.3596 24.5284C83.731 24.166 83.2442 23.6594 82.8878 23.0008C82.5313 22.3461 82.355 21.5822 82.355 20.7171C82.355 19.8519 82.5275 19.0881 82.8724 18.4334C83.2174 17.7786 83.7042 17.2681 84.329 16.9135C84.9576 16.5588 85.6743 16.3796 86.4831 16.3796C87.2918 16.3796 87.9588 16.5511 88.5721 16.8979C89.1853 17.2447 89.6606 17.7319 90.0017 18.3554C90.3429 18.979 90.5115 19.6999 90.5115 20.5144C90.5115 20.834 90.4924 21.1224 90.4502 21.3757V21.3796ZM88.7254 19.9727C88.7177 19.3336 88.4916 18.8192 88.0508 18.4295C87.61 18.0436 87.0657 17.8488 86.4141 17.8488C85.8238 17.8488 85.3179 18.0397 84.9001 18.4217C84.4784 18.8036 84.2255 19.318 84.1488 19.9727H88.7292H88.7254Z" fill="black"/>
<path d="M98.1239 16.7966C98.6414 17.0733 99.0438 17.4786 99.3313 18.0203C99.6188 18.5581 99.7683 19.2128 99.7683 19.9766V24.9416H98.0703V20.2377C98.0703 19.4856 97.8825 18.9049 97.5145 18.5035C97.1427 18.1021 96.6367 17.8995 95.9966 17.8995C95.3565 17.8995 94.8467 18.1021 94.4711 18.5035C94.0955 18.9049 93.9077 19.4856 93.9077 20.2377V24.9416H92.1943V16.5238H93.9077V17.4864C94.1875 17.1395 94.5478 16.8706 94.9809 16.6758C95.414 16.4848 95.8778 16.3835 96.3684 16.3835C97.0277 16.3835 97.6103 16.5238 98.1239 16.7966Z" fill="black"/>
<path d="M63.0983 33.3632C63.4432 32.7085 63.9223 32.198 64.5318 31.8434C65.1451 31.4887 65.8427 31.3094 66.6361 31.3094C67.6365 31.3094 68.4644 31.5511 69.1237 32.0343C69.7791 32.5176 70.2237 33.2073 70.4537 34.1037H68.6062C68.4567 33.6867 68.2153 33.3593 67.8856 33.1255C67.5522 32.8917 67.1382 32.7748 66.6361 32.7748C65.9347 32.7748 65.375 33.0242 64.9611 33.5308C64.5471 34.0335 64.3363 34.7428 64.3363 35.6469C64.3363 36.5511 64.5433 37.2603 64.9611 37.7709C65.3789 38.2814 65.9347 38.5347 66.6361 38.5347C67.6288 38.5347 68.2843 38.0904 68.6062 37.2058H70.4537C70.2122 38.0593 69.7638 38.7412 69.1007 39.244C68.4414 39.7467 67.6173 40 66.6361 40C65.8465 40 65.1451 39.8208 64.5318 39.4583C63.9185 39.0959 63.4432 38.5893 63.0983 37.9307C62.7533 37.2759 62.5808 36.5121 62.5808 35.6469C62.5808 34.7818 62.7533 34.0218 63.0944 33.3632H63.0983Z" fill="black"/>
<path d="M73.6429 39.4583C73.0143 39.0959 72.516 38.5893 72.1557 37.9307C71.7954 37.2759 71.6152 36.5121 71.6152 35.6469C71.6152 34.7818 71.803 34.0335 72.171 33.371C72.5428 32.7085 73.0488 32.2019 73.6889 31.8434C74.3328 31.4887 75.0457 31.3094 75.8392 31.3094C76.6326 31.3094 77.3455 31.4887 77.9895 31.8434C78.6334 32.198 79.1355 32.7085 79.5073 33.371C79.8791 34.0335 80.0631 34.7935 80.0631 35.6469C80.0631 36.5004 79.8753 37.2603 79.492 37.9229C79.1125 38.5854 78.5951 39.0959 77.9358 39.4583C77.2804 39.8208 76.5559 40 75.7663 40C74.9844 40 74.2791 39.8208 73.6467 39.4622L73.6429 39.4583ZM77.0006 38.1684C77.3877 37.954 77.6981 37.6345 77.9396 37.2058C78.1811 36.7771 78.2999 36.2588 78.2999 35.6508C78.2999 35.0429 78.1849 34.5246 77.955 34.0998C77.725 33.675 77.4183 33.3593 77.0389 33.145C76.6594 32.9307 76.2455 32.8215 75.8047 32.8215C75.3639 32.8215 74.9537 32.9268 74.582 33.145C74.2063 33.3632 73.9112 33.6789 73.6889 34.0998C73.4666 34.5207 73.3554 35.039 73.3554 35.6508C73.3554 36.5589 73.5854 37.2564 74.0415 37.7514C74.4976 38.2463 75.0726 38.4918 75.7625 38.4918C76.2071 38.4918 76.6211 38.3827 77.0082 38.1684H77.0006Z" fill="black"/>
<path d="M83.4668 28.5581V39.8597H81.7534V28.5581H83.4668Z" fill="black"/>
<path d="M87.4299 28.5581V39.8597H85.7166V28.5581H87.4299Z" fill="black"/>
<path d="M97.2117 36.3016H90.8873C90.9409 36.9719 91.1824 37.5136 91.6232 37.9189C92.064 38.3281 92.6045 38.5269 93.2446 38.5269C94.1683 38.5269 94.8199 38.1333 95.1994 37.35H97.0469C96.7977 38.1255 96.3454 38.7568 95.6862 39.2518C95.0269 39.7467 94.2143 39.9922 93.2446 39.9922C92.4511 39.9922 91.742 39.8129 91.1211 39.4505C90.4925 39.0881 90.0057 38.5814 89.6492 37.9228C89.2928 37.2681 89.1165 36.5043 89.1165 35.6391C89.1165 34.774 89.2889 34.0101 89.6339 33.3554C89.9827 32.7007 90.4657 32.1902 91.0943 31.8355C91.7229 31.4809 92.4396 31.3016 93.2484 31.3016C94.0571 31.3016 94.7241 31.4731 95.3374 31.82C95.9506 32.1668 96.4259 32.6539 96.7671 33.2775C97.1082 33.901 97.2768 34.622 97.2768 35.4365C97.2768 35.7599 97.2538 36.0444 97.2155 36.2977L97.2117 36.3016ZM95.4868 34.8948C95.4792 34.2557 95.253 33.7412 94.8122 33.3515C94.3715 32.9657 93.8272 32.7708 93.1756 32.7708C92.5853 32.7708 92.0793 32.9618 91.6577 33.3437C91.2361 33.7256 90.9869 34.2401 90.9064 34.8948H95.4907H95.4868Z" fill="black"/>
<path d="M98.9059 33.3632C99.2508 32.7085 99.73 32.198 100.339 31.8434C100.953 31.4887 101.65 31.3094 102.444 31.3094C103.444 31.3094 104.272 31.5511 104.931 32.0343C105.587 32.5176 106.031 33.2073 106.261 34.1037H104.414C104.264 33.6867 104.023 33.3593 103.693 33.1255C103.364 32.8917 102.946 32.7748 102.444 32.7748C101.742 32.7748 101.183 33.0242 100.769 33.5308C100.351 34.0335 100.144 34.7428 100.144 35.6469C100.144 36.5511 100.351 37.2603 100.769 37.7709C101.183 38.2814 101.742 38.5347 102.444 38.5347C103.436 38.5347 104.092 38.0904 104.414 37.2058H106.261C106.02 38.0593 105.571 38.7412 104.908 39.244C104.249 39.7467 103.425 40 102.444 40C101.65 40 100.953 39.8208 100.339 39.4583C99.7261 39.0959 99.2508 38.5893 98.9059 37.9307C98.5609 37.2759 98.3884 36.5121 98.3884 35.6469C98.3884 34.7818 98.5571 34.0218 98.902 33.3632H98.9059Z" fill="black"/>
<path d="M109.972 32.8683V37.5253C109.972 37.841 110.044 38.067 110.19 38.2073C110.336 38.3437 110.581 38.4139 110.934 38.4139H111.988V39.8636H110.635C109.864 39.8636 109.274 39.6804 108.864 39.3141C108.454 38.9439 108.251 38.3515 108.251 37.5253V32.8683H107.273V31.4458H108.251V29.3531H109.979V31.4458H111.992V32.8683H109.972Z" fill="black"/>
<path d="M113.651 30.0117C113.44 29.7973 113.333 29.5323 113.333 29.2167C113.333 28.901 113.437 28.636 113.651 28.4217C113.862 28.2073 114.123 28.0982 114.433 28.0982C114.744 28.0982 114.989 28.2034 115.2 28.4217C115.41 28.636 115.518 28.901 115.518 29.2167C115.518 29.5323 115.41 29.7973 115.2 30.0117C114.989 30.226 114.732 30.3351 114.433 30.3351C114.134 30.3351 113.862 30.226 113.651 30.0117ZM115.272 31.4497V39.8675H113.559V31.4497H115.272Z" fill="black"/>
<path d="M120.727 38.3048L123.073 31.4458H124.89L121.731 39.8636H119.688L116.545 31.4458H118.377L120.723 38.3048H120.727Z" fill="black"/>
<path d="M133.709 36.3016H127.385C127.435 36.9719 127.68 37.5136 128.121 37.9189C128.561 38.3281 129.102 38.5269 129.742 38.5269C130.666 38.5269 131.317 38.1333 131.697 37.35H133.544C133.295 38.1255 132.843 38.7568 132.184 39.2518C131.528 39.7467 130.712 39.9922 129.742 39.9922C128.949 39.9922 128.239 39.8129 127.619 39.4505C126.99 39.0881 126.499 38.5814 126.147 37.9228C125.79 37.2681 125.614 36.5043 125.614 35.6391C125.614 34.774 125.786 34.0101 126.131 33.3554C126.476 32.7007 126.963 32.1902 127.588 31.8355C128.216 31.4809 128.933 31.3016 129.742 31.3016C130.551 31.3016 131.218 31.4731 131.831 31.82C132.444 32.1668 132.916 32.6539 133.257 33.2775C133.598 33.901 133.767 34.622 133.767 35.4365C133.767 35.7599 133.747 36.0444 133.705 36.2977L133.709 36.3016ZM131.98 34.8948C131.973 34.2557 131.747 33.7412 131.306 33.3515C130.865 32.9657 130.321 32.7708 129.669 32.7708C129.079 32.7708 128.573 32.9618 128.151 33.3437C127.73 33.7256 127.481 34.2401 127.4 34.8948H131.98Z" fill="black"/>
</g>
<defs>
<clipPath id="clip0_13031_7731">
<rect width="133.77" height="40" fill="white"/>
</clipPath>
</defs>
</svg>
