<svg width="20" height="30" viewBox="0 0 20 30" fill="none" xmlns="http://www.w3.org/2000/svg">
<path d="M8.96741 29.7438C8.87429 29.7438 8.78117 29.7103 8.69652 29.6434C8.52719 29.5096 8.35787 29.3673 8.18855 29.2252C7.99384 29.0579 7.79913 28.8905 7.58748 28.7316C7.41818 28.6061 7.19806 28.5226 7.00335 28.5226C6.47 28.5142 5.95358 28.5142 5.5049 28.5142H4.44668C4.10804 28.5142 3.76094 28.5142 3.42232 28.5142C1.87307 28.5059 0.704793 27.5522 0.44235 26.0967C0.400025 25.871 0.400024 25.6199 0.400024 25.3774V25.3524C0.400024 18.5602 0.400024 11.7597 0.400024 4.9676V3.66271C0.400024 1.91448 1.1958 0.91073 2.91437 0.509225C2.93976 0.500861 2.9567 0.492495 2.98208 0.484131H14.9612C15.0458 0.509225 15.139 0.53432 15.2236 0.559414C15.4183 0.6096 15.6216 0.668153 15.7907 0.7518C16.8659 1.26205 17.4417 2.11525 17.501 3.27793C17.5179 3.66271 17.5179 4.05585 17.5094 4.43225V4.45736C17.5094 4.59955 17.5094 4.75012 17.5094 4.89232C17.5094 8.73171 17.5094 12.5711 17.5094 16.4105V20.8269L17.7381 20.8688C17.7803 20.8772 17.8225 20.8855 17.8565 20.8855C18.7877 21.0111 19.3803 21.6636 19.3803 22.5835C19.3888 23.6543 19.3888 24.7416 19.3803 25.7872V25.8039C19.3803 26.2557 19.3803 26.7074 19.3803 27.1592V27.6862C19.3803 28.1796 19.3803 28.6647 19.3803 29.1583C19.3803 29.5598 19.2365 29.7605 18.957 29.7605H18.9485C18.6693 29.7522 18.5253 29.5513 18.5253 29.1666V22.7677C18.5253 22.7425 18.5253 22.7258 18.5253 22.7006C18.5253 22.6254 18.5253 22.5418 18.5169 22.4497C18.4659 22.0399 18.1189 21.7304 17.7041 21.7304C17.2723 21.7304 16.9167 22.0651 16.8913 22.4916C16.883 22.7342 16.883 22.9767 16.883 23.2109V23.2193C16.883 23.3616 16.883 23.512 16.883 23.6543C16.883 23.8131 16.8322 24.1897 16.4595 24.198H16.4512C16.1888 24.198 16.028 23.9973 16.0194 23.6543C16.0194 23.3783 16.0194 23.0938 16.0194 22.8177C16.0194 22.5585 16.0194 22.2993 16.0194 22.0315C16.0194 21.471 15.7063 21.1197 15.2067 21.1197C14.7157 21.1197 14.3855 21.4796 14.3855 22.0232C14.3855 22.2908 14.3855 22.5585 14.3855 22.8346V22.8679C14.3855 23.1357 14.3855 23.4033 14.3855 23.6793C14.3855 24.0057 14.2162 24.198 13.9622 24.198C13.6913 24.198 13.5389 24.014 13.5389 23.6877C13.5389 23.328 13.5389 22.9684 13.5389 22.6087C13.5389 22.2322 13.5389 21.814 13.5389 21.3958C13.5389 20.8605 13.2003 20.4924 12.7178 20.4924C12.2267 20.5008 11.905 20.8521 11.8881 21.4041C11.8881 21.446 11.8881 21.4879 11.8881 21.5296C11.8881 21.5296 11.8881 23.0519 11.8881 23.5456V23.5875C11.8881 23.6543 11.8881 23.7212 11.8796 23.7881C11.8627 24.014 11.6934 24.173 11.4733 24.1813H11.4564C11.2447 24.1813 11.0585 24.014 11.0331 23.7965C11.0246 23.7379 11.0246 23.671 11.0246 23.6041C11.0246 23.5789 11.0246 23.5539 11.0246 23.5289V21.262C11.0246 19.8651 11.0246 18.4682 11.0246 17.0713C11.0246 16.5276 10.6944 16.1512 10.2288 16.1512C10.1526 16.1512 10.068 16.1595 9.9833 16.1846C9.64468 16.2766 9.43303 16.5192 9.39917 16.8622C9.3907 16.9709 9.3907 17.0713 9.3907 17.1633V17.2302C9.3907 19.037 9.3907 24.7 9.3907 24.7V24.7752C9.3907 24.8337 9.3907 24.8923 9.3907 24.9508C9.38223 25.2519 9.21291 25.4359 8.96741 25.4359C8.89969 25.4359 8.82349 25.4193 8.74731 25.394C7.99384 25.1348 7.23192 24.8587 6.49541 24.5995L6.26682 24.5158C6.15676 24.4741 6.0467 24.4572 5.94511 24.4572C5.72502 24.4572 5.53875 24.5493 5.42872 24.725C5.31019 24.9006 5.24246 25.1515 5.25093 25.394C5.2594 25.5783 5.41178 25.737 5.56416 25.871C6.4192 26.5987 7.28271 27.3348 8.12084 28.0541L8.99281 28.7901L9.05208 28.8403C9.11979 28.8989 9.18752 28.9491 9.24679 29.0076C9.41609 29.1833 9.43303 29.4092 9.28911 29.5848C9.20446 29.6853 9.08593 29.7438 8.96741 29.7438ZM3.80327 1.3206C3.65935 1.3206 3.50697 1.3206 3.36305 1.32896C2.12704 1.35407 1.26353 2.22398 1.26353 3.44523C1.26353 10.3628 1.26353 17.5899 1.26353 25.5364C1.26353 26.7743 2.13551 27.6443 3.37999 27.6526C3.65935 27.6526 3.93873 27.6526 4.21809 27.6526C4.47207 27.6526 4.73451 27.6526 4.98848 27.6526H5.52184C5.5811 27.6526 5.6319 27.6443 5.69961 27.6443C5.73349 27.6443 5.76734 27.6359 5.81814 27.6359L6.28376 27.594L5.92819 27.293C5.82661 27.2092 5.58955 27.0085 5.58955 27.0085C5.37792 26.8245 5.14934 26.6405 4.92922 26.448C4.31968 25.921 4.1673 25.1098 4.54827 24.4322C4.8361 23.9219 5.36098 23.6208 5.94511 23.6208C6.13137 23.6208 6.32608 23.6543 6.51232 23.7129C6.82556 23.8131 7.15574 23.9302 7.44357 24.0307C7.63828 24.0976 7.83299 24.1644 8.03616 24.2315C8.09543 24.2482 8.15469 24.2649 8.20549 24.2732C8.23089 24.2815 8.24781 24.2815 8.26475 24.2815L8.50178 24.3318V17.3891C8.50178 17.3891 6.68165 17.3891 6.43614 17.3891C6.05517 17.3891 5.67422 17.3891 5.30172 17.3891C4.9631 17.3891 4.81071 17.2637 4.76837 16.9542C4.71757 16.5527 4.66678 16.1344 4.61598 15.7413V15.7246C4.58213 15.4736 4.55674 15.2311 4.52286 14.9801C4.45515 14.428 4.38742 13.8844 4.31968 13.3406L4.21809 12.5125L4.08265 12.4874C3.50697 12.3703 3.53238 12.0859 3.54082 11.9939C3.54929 11.9019 3.5747 11.6092 4.13344 11.6092C4.22656 11.6092 4.31968 11.6092 4.40436 11.6092H4.43821C4.55674 11.6092 4.67525 11.6092 4.7853 11.6092C4.97154 11.6092 5.12393 11.6092 5.2594 11.6175C5.26786 11.6175 5.28478 11.6175 5.29325 11.6175C5.52184 11.6175 5.69114 11.5339 5.83507 11.3415C6.32608 10.6723 6.8425 10.0031 7.35892 9.33395C7.45204 9.21684 7.57901 9.14994 7.70601 9.14994C7.79913 9.14994 7.88378 9.1834 7.95998 9.24195C8.14622 9.38415 8.1801 9.62671 8.03616 9.83584C7.95151 9.96132 7.85839 10.0784 7.76527 10.1955C7.72295 10.2457 7.6806 10.3043 7.63828 10.3628L6.70703 11.6008H11.1939L10.9569 11.2913C10.8468 11.1491 10.7452 11.0069 10.6352 10.8731L10.6098 10.8396C10.3473 10.4966 10.1018 10.1788 9.86479 9.85257C9.7632 9.71038 9.7378 9.54307 9.80553 9.40088C9.86479 9.26704 9.99177 9.1834 10.1442 9.16667C10.1611 9.16667 10.1865 9.16667 10.2034 9.16667C10.3473 9.16667 10.4659 9.24195 10.5844 9.3925C10.7622 9.62671 10.9315 9.85257 11.1093 10.0868L11.1347 10.1202C11.4479 10.5301 11.7611 10.9483 12.0743 11.3582C12.2183 11.5506 12.3791 11.6342 12.5992 11.6342H12.6246C12.8278 11.6259 13.0479 11.6259 13.268 11.6259C13.4797 11.6259 13.6998 11.6259 13.9368 11.6342C14.1823 11.6426 14.3601 11.7932 14.377 12.0274C14.394 12.2532 14.2501 12.4289 13.9961 12.4707C13.9707 12.4791 13.9453 12.4791 13.9114 12.4874L13.7337 12.4791L13.7082 12.6129C13.6998 12.6464 13.6913 12.6882 13.6913 12.7217C13.6744 12.7969 13.6659 12.8722 13.649 12.9475L13.5728 13.5497C13.4374 14.6288 13.3019 15.7413 13.1664 16.8538C13.1157 17.2804 12.9887 17.3891 12.5569 17.3975C12.5061 17.3975 12.4469 17.3975 12.3961 17.3975H11.9135V19.6309L12.0405 19.6811C12.049 19.6811 12.049 19.6894 12.0574 19.6894C12.0743 19.6978 12.1082 19.7145 12.159 19.7145H12.1759H12.1929C12.3791 19.6727 12.5484 19.656 12.7093 19.656C13.2511 19.656 13.6998 19.8734 14.0723 20.3251C14.1315 20.3921 14.2247 20.4339 14.3517 20.4339C14.4278 20.4339 14.504 20.4171 14.5633 20.4004C14.7834 20.3168 15.012 20.2666 15.2236 20.2666C15.4183 20.2666 15.6045 20.3 15.7907 20.3753C15.9179 20.4255 16.0363 20.4924 16.1718 20.5677C16.2396 20.6096 16.3072 20.6429 16.3751 20.6765L16.6629 20.8269V3.54561V3.48705C16.6629 3.42012 16.6629 3.34486 16.6543 3.26957C16.5782 2.4331 16.1549 1.84758 15.4014 1.52135C15.0205 1.36242 14.648 1.33733 14.3263 1.33733C14.2077 1.33733 14.0808 1.33733 13.9622 1.34569C13.8437 1.34569 13.7167 1.35407 13.5982 1.35407C13.5051 1.35407 13.4289 1.35407 13.3527 1.34569L13.1495 1.33733V1.53808C13.1495 1.62172 13.1495 1.69701 13.1495 1.76394C13.1495 1.90613 13.1495 2.03159 13.1495 2.15707C13.1157 3.09392 12.4045 3.81328 11.5071 3.82164C10.7029 3.82999 9.86479 3.82999 9.0182 3.82999C8.17163 3.82999 7.29118 3.82999 6.41073 3.82164C5.60649 3.81328 4.92075 3.21102 4.81071 2.42473C4.7853 2.24071 4.77684 2.04832 4.76837 1.84758C4.76837 1.7472 4.75992 1.63845 4.75145 1.53808L4.74298 1.35407H4.55674C4.42127 1.35407 4.2943 1.35407 4.1673 1.35407C4.04032 1.3206 3.9218 1.3206 3.80327 1.3206ZM10.2119 15.3063C10.8892 15.3063 11.3971 15.6242 11.7273 16.2515C11.7781 16.3436 11.8543 16.3937 11.9135 16.4356C11.9389 16.4523 11.9558 16.4607 11.9643 16.4774L12.1675 16.653L12.2691 16.4105C12.2775 16.3937 12.286 16.377 12.2945 16.3603C12.3283 16.2934 12.3622 16.2265 12.3707 16.1428C12.4638 15.4653 12.5569 14.7626 12.65 13.9931C12.6839 13.7003 12.7178 13.3992 12.7516 13.1064L12.8278 12.4624H5.06469L5.57263 16.5276H6.80017C7.24886 16.5276 7.78219 16.5276 8.31554 16.5192C8.49334 16.5192 8.62878 16.3436 8.67958 16.2515C9.02667 15.6326 9.54309 15.3063 10.2119 15.3063ZM9.3145 2.94335C9.96638 2.94335 10.5082 2.9517 11.0077 2.96008C11.0415 2.96008 11.0754 2.96008 11.1008 2.96008C11.5833 2.96008 11.8796 2.86806 12.0659 2.67567C12.3114 2.41637 12.2945 2.02323 12.2606 1.56317C12.2606 1.52135 12.2437 1.49626 12.2352 1.47953C12.2352 1.47117 12.2267 1.47117 12.2267 1.4628L12.1759 1.33733H5.64034C5.64034 1.33733 5.64034 1.77229 5.64034 1.83084C5.64034 2.21563 5.67422 2.51674 5.8774 2.70914C6.07211 2.90153 6.37688 2.94335 6.75785 2.94335C7.18959 2.94335 7.61289 2.94335 8.03616 2.93499H8.07851C8.49334 2.94335 8.90814 2.94335 9.3145 2.94335Z" fill="white"/>
</svg>
