<svg width="32" height="32" viewBox="0 0 32 32" fill="none" xmlns="http://www.w3.org/2000/svg">
<g clip-path="url(#clip0_4867_4597)">
<path d="M29.3334 14.6667V28C29.3334 28.7364 28.7365 29.3333 28.0001 29.3333H26.6667C25.9303 29.3333 25.3334 28.7364 25.3334 28V26.6667H6.66675V28C6.66675 28.7364 6.06979 29.3333 5.33341 29.3333H4.00008C3.26371 29.3333 2.66675 28.7364 2.66675 28V14.6667L5.92969 8.14076C6.38141 7.23733 7.30477 6.66667 8.31484 6.66667H12.0001V4H20.0001V6.66667H23.6853C24.6954 6.66667 25.6187 7.23733 26.0705 8.14076L29.3334 14.6667ZM26.6667 17.3333H5.33341V24H26.6667V17.3333ZM5.64817 14.6667H26.3519L23.6853 9.33333H8.31484L5.64817 14.6667ZM8.66675 22.6667C7.56217 22.6667 6.66675 21.7712 6.66675 20.6667C6.66675 19.5621 7.56217 18.6667 8.66675 18.6667C9.77132 18.6667 10.6667 19.5621 10.6667 20.6667C10.6667 21.7712 9.77132 22.6667 8.66675 22.6667ZM23.3334 22.6667C22.2289 22.6667 21.3334 21.7712 21.3334 20.6667C21.3334 19.5621 22.2289 18.6667 23.3334 18.6667C24.4379 18.6667 25.3334 19.5621 25.3334 20.6667C25.3334 21.7712 24.4379 22.6667 23.3334 22.6667Z" fill="white"/>
</g>
<defs>
<clipPath id="clip0_4867_4597">
<rect width="32" height="32" fill="white"/>
</clipPath>
</defs>
</svg>
