<svg width="32" height="32" viewBox="0 0 32 32" fill="none" xmlns="http://www.w3.org/2000/svg">
<g clip-path="url(#clip0_4867_4589)">
<path d="M5.33976 21.3333V5.33329H2.6731V2.66663H6.6731C7.40948 2.66663 8.00643 3.26359 8.00643 3.99996V20H24.591L27.2577 9.33329H10.6731V6.66663H28.9654C29.7018 6.66663 30.2987 7.26359 30.2987 7.99996C30.2987 8.10897 30.2854 8.21759 30.2589 8.32335L26.9255 21.6566C26.7773 22.2502 26.2439 22.6666 25.6321 22.6666H6.6731C5.93672 22.6666 5.33976 22.0697 5.33976 21.3333ZM8.00643 30.6666C6.53367 30.6666 5.33976 29.4728 5.33976 28C5.33976 26.5272 6.53367 25.3333 8.00643 25.3333C9.47919 25.3333 10.6731 26.5272 10.6731 28C10.6731 29.4728 9.47919 30.6666 8.00643 30.6666ZM24.0065 30.6666C22.5337 30.6666 21.3398 29.4728 21.3398 28C21.3398 26.5272 22.5337 25.3333 24.0065 25.3333C25.4793 25.3333 26.6731 26.5272 26.6731 28C26.6731 29.4728 25.4793 30.6666 24.0065 30.6666Z" fill="white"/>
</g>
<defs>
<clipPath id="clip0_4867_4589">
<rect width="32" height="32" fill="white"/>
</clipPath>
</defs>
</svg>
