<svg width="92" height="84" viewBox="0 0 92 84" fill="none" xmlns="http://www.w3.org/2000/svg">
<path d="M34.8221 22.7623H32.5588C32.2351 22.7733 31.9126 22.719 31.6103 22.6028C31.3081 22.4865 31.0323 22.3106 30.7995 22.0855C30.5667 21.8604 30.3815 21.5908 30.255 21.2927C30.1286 20.9946 30.0634 20.6741 30.0634 20.3502C30.0634 20.0264 30.1286 19.7059 30.255 19.4077C30.3815 19.1096 30.5667 18.84 30.7995 18.6149C31.0323 18.3899 31.3081 18.214 31.6103 18.0977C31.9126 17.9814 32.2351 17.9272 32.5588 17.9382H34.8221C35.169 17.9526 35.5153 17.8985 35.8413 17.7791C36.1673 17.6597 36.4666 17.4772 36.722 17.2421C36.9775 17.0071 37.1842 16.724 37.3303 16.409C37.4763 16.094 37.5589 15.7534 37.5734 15.4065C37.5878 15.0596 37.5338 14.7133 37.4143 14.3873C37.2949 14.0613 37.1125 13.762 36.8774 13.5066C36.6423 13.2511 36.3592 13.0444 36.0442 12.8983C35.7293 12.7523 35.3886 12.6697 35.0417 12.6552C34.4364 12.6077 33.8713 12.3337 33.459 11.8879C33.0467 11.4421 32.8176 10.8573 32.8174 10.2501V10.2251C32.8122 9.53209 32.6227 8.85294 32.2684 8.25732C31.9141 7.6617 31.4078 7.17104 30.8013 6.83568C30.1948 6.50033 29.5101 6.33234 28.8172 6.34895C28.1244 6.36556 27.4485 6.56618 26.8588 6.93022C26.3652 7.23596 25.7783 7.35444 25.2048 7.26413C24.6313 7.17382 24.1092 6.8807 23.7335 6.43808C23.0815 5.6638 22.1902 5.12878 21.2003 4.91751C20.2104 4.70623 19.1783 4.83075 18.267 5.2714C17.3557 5.71205 16.6172 6.44372 16.1681 7.35084C15.719 8.25797 15.5849 9.28886 15.7869 10.2807C15.8527 10.605 15.851 10.9393 15.7821 11.263C15.7132 11.5866 15.5784 11.8926 15.3863 12.162C15.1941 12.4314 14.9486 12.6583 14.665 12.8288C14.3814 12.9993 14.0657 13.1096 13.7377 13.1529C13.1343 13.2356 12.5849 13.5444 12.2005 14.0168C11.8161 14.4891 11.6255 15.0899 11.6671 15.6975C11.7088 16.305 11.9797 16.8741 12.425 17.2896C12.8703 17.705 13.4568 17.9359 14.0658 17.9354H22.0041C22.3277 17.9244 22.6503 17.9786 22.9525 18.0949C23.2547 18.2112 23.5305 18.3871 23.7633 18.6121C23.9962 18.8372 24.1813 19.1068 24.3078 19.405C24.4343 19.7031 24.4994 20.0236 24.4994 20.3474C24.4994 20.6713 24.4343 20.9918 24.3078 21.2899C24.1813 21.588 23.9962 21.8577 23.7633 22.0827C23.5305 22.3078 23.2547 22.4837 22.9525 22.6C22.6503 22.7162 22.3277 22.7705 22.0041 22.7595H14.0602C12.4295 22.759 10.8468 22.2072 9.56923 21.1937C8.29168 20.1802 7.39434 18.7645 7.02297 17.1766C6.6516 15.5887 6.82801 13.9218 7.52356 12.4468C8.21911 10.9719 9.39292 9.77536 10.8543 9.05173C10.9192 7.31976 11.4614 5.63941 12.4212 4.19624C13.381 2.75306 14.7209 1.60321 16.2931 0.873665C17.8652 0.144117 19.6084 -0.136745 21.3302 0.0620937C23.0519 0.260932 24.6852 0.931733 26.0497 2.00043C27.2092 1.60105 28.4396 1.44963 29.6613 1.55596C30.8831 1.66229 32.0689 2.02401 33.1419 2.61768C34.215 3.21136 35.1514 4.02377 35.8906 5.00231C36.6298 5.98085 37.1553 7.10372 37.433 8.29821C39.0781 8.90542 40.4567 10.0728 41.3268 11.5953C42.1969 13.1178 42.5028 14.8982 42.1909 16.6238C41.8789 18.3494 40.9691 19.91 39.621 21.0316C38.273 22.1531 36.5729 22.7639 34.8193 22.7567L34.8221 22.7623Z" fill="black"/>
<path d="M84.7359 83.0681H62.3725C62.0488 83.079 61.7263 83.0248 61.424 82.9085C61.1218 82.7923 60.846 82.6163 60.6132 82.3913C60.3804 82.1662 60.1952 81.8966 60.0687 81.5985C59.9423 81.3003 59.8771 80.9798 59.8771 80.656C59.8771 80.3322 59.9423 80.0116 60.0687 79.7135C60.1952 79.4154 60.3804 79.1458 60.6132 78.9207C60.846 78.6956 61.1218 78.5197 61.424 78.4035C61.7263 78.2872 62.0488 78.2329 62.3725 78.2439H84.7359C85.0821 78.247 85.4237 78.164 85.7299 78.0024C86.0361 77.8408 86.2975 77.6058 86.4904 77.3183C86.6834 77.0308 86.8019 76.6999 86.8354 76.3553C86.8689 76.0107 86.8162 75.6631 86.6822 75.3439L60.0647 12.2408L60.0424 12.188C59.9454 11.9447 59.7776 11.736 59.5608 11.589C59.3439 11.442 59.088 11.3635 58.826 11.3635C58.564 11.3635 58.308 11.442 58.0912 11.589C57.8743 11.736 57.7066 11.9447 57.6095 12.188L47.1021 38.8445C46.8595 39.4292 46.3973 39.8955 45.8147 40.1434C45.2322 40.3912 44.5757 40.4008 43.9862 40.1701C43.3966 39.9393 42.921 39.4867 42.6614 38.9093C42.4019 38.3319 42.379 37.6757 42.5977 37.0817L53.1023 10.4252C53.5562 9.28112 54.3425 8.29936 55.3599 7.60664C56.3772 6.91393 57.5788 6.54207 58.8096 6.53908C60.0404 6.53609 61.2438 6.9021 62.2645 7.58985C63.2852 8.27761 64.0763 9.25553 64.5357 10.3974L91.131 73.4754C91.573 74.5282 91.7474 75.674 91.6389 76.8107C91.5303 77.9473 91.1421 79.0394 90.5089 79.9896C89.8756 80.9397 89.0171 81.7183 88.0098 82.256C87.0024 82.7936 85.8777 83.0736 84.7359 83.0708V83.0681Z" fill="black"/>
<path d="M6.93431 80.6482C6.16694 80.6502 5.41177 80.4562 4.74043 80.0845C4.0691 79.7127 3.50386 79.1757 3.09833 78.5242C2.6928 77.8728 2.46043 77.1285 2.42326 76.362C2.38608 75.5956 2.54534 74.8323 2.88593 74.1446L24.1205 31.4781C24.4176 30.8264 24.8959 30.2739 25.4983 29.8864C26.1008 29.499 26.8019 29.293 27.5182 29.293C28.2345 29.293 28.9357 29.499 29.5381 29.8864C30.1405 30.2739 30.6188 30.8264 30.916 31.4781L52.1505 74.1446C52.4911 74.8323 52.6503 75.5956 52.6132 76.362C52.576 77.1285 52.3436 77.8728 51.9381 78.5242C51.5326 79.1757 50.9673 79.7127 50.296 80.0845C49.6247 80.4562 48.8695 80.6502 48.1021 80.6482H6.93431Z" fill="black"/>
<path d="M48.1023 83.0597H6.93444C5.75598 83.063 4.59623 82.765 3.56527 82.1942C2.53431 81.6233 1.66635 80.7984 1.04377 79.7979C0.421193 78.7973 0.0646506 77.6542 0.0079966 76.4771C-0.0486574 75.3 0.196454 74.1279 0.720061 73.0722L21.9351 30.4418C22.4294 29.3776 23.2176 28.4768 24.2068 27.8455C25.1959 27.2143 26.3449 26.8789 27.5183 26.8789C28.6918 26.8789 29.8408 27.2143 30.8299 27.8455C31.8191 28.4768 32.6073 29.3776 33.1016 30.4418L54.3194 73.0722C54.8423 74.1282 55.0868 75.3003 55.0296 76.4774C54.9725 77.6544 54.6156 78.7973 53.9929 79.7977C53.3701 80.7981 52.5021 81.6229 51.4712 82.1938C50.4403 82.7646 49.2807 83.0627 48.1023 83.0597ZM27.5267 31.7042C27.2741 31.699 27.0257 31.7693 26.8132 31.906C26.6008 32.0427 26.4339 32.2396 26.3339 32.4716L26.2949 32.5494L5.05483 75.2159C4.89657 75.5352 4.82252 75.8896 4.83971 76.2455C4.85691 76.6014 4.96478 76.9471 5.15308 77.2496C5.34139 77.5521 5.60388 77.8015 5.91565 77.974C6.22741 78.1466 6.57811 78.2366 6.93444 78.2355H48.1023C48.4586 78.2366 48.8093 78.1466 49.121 77.974C49.4328 77.8015 49.6953 77.5521 49.8836 77.2496C50.0719 76.9471 50.1798 76.6014 50.197 76.2455C50.2142 75.8896 50.1401 75.5352 49.9819 75.2159L28.7473 32.5494L28.7112 32.4716C28.6112 32.2396 28.4443 32.0427 28.2318 31.906C28.0193 31.7693 27.7709 31.699 27.5183 31.7042H27.5267Z" fill="black"/>
<path d="M70.2013 31.3708L62.2908 11.2985C62.0165 10.6002 61.5382 10.0007 60.9183 9.5782C60.2983 9.15568 59.5655 8.92969 58.8152 8.92969C58.065 8.92969 57.3322 9.15568 56.7122 9.5782C56.0923 10.0007 55.614 10.6002 55.3396 11.2985L49.9399 24.9951L53.321 36.1171L59.1294 29.3049L66.1474 39.3341L70.2013 31.3708Z" fill="black"/>
<path d="M66.1648 41.739C65.7753 41.7393 65.3915 41.6458 65.0459 41.4662C64.7003 41.2866 64.4031 41.0263 64.1795 40.7074L58.9578 33.253L55.1874 37.6739C54.9063 38.0075 54.5403 38.259 54.128 38.4017C53.7158 38.5445 53.2726 38.5733 52.8454 38.485C52.4182 38.3967 52.0227 38.1946 51.7008 37.9001C51.3789 37.6056 51.1426 37.2297 51.0167 36.812L47.6356 25.7039C47.4778 25.1845 47.5003 24.6269 47.6996 24.1219L53.1021 10.4252C53.5568 9.27876 54.3455 8.29535 55.3658 7.60244C56.3861 6.90953 57.591 6.53906 58.8243 6.53906C60.0577 6.53906 61.2626 6.90953 62.2829 7.60244C63.3031 8.29535 64.0918 9.27876 64.5465 10.4252L72.457 30.4947C72.5816 30.8113 72.6376 31.1507 72.6213 31.4905C72.605 31.8304 72.5168 32.1629 72.3625 32.4661L68.3197 40.4183C68.1298 40.7909 67.8466 41.1079 67.4977 41.3384C67.1488 41.5689 66.746 41.705 66.3288 41.7334H66.1592L66.1648 41.739ZM59.1468 26.8857H59.2636C59.6329 26.9031 59.9934 27.0049 60.3172 27.1833C60.6411 27.3616 60.9199 27.6117 61.1321 27.9144L65.8339 34.6432L67.555 31.2538L60.0477 12.1908C59.9507 11.9475 59.7829 11.7388 59.5661 11.5918C59.3492 11.4448 59.0932 11.3663 58.8313 11.3663C58.5693 11.3663 58.3133 11.4448 58.0965 11.5918C57.8796 11.7388 57.7118 11.9475 57.6148 12.1908L52.5154 25.1061L54.3644 31.1815L57.3006 27.7365C57.528 27.4697 57.8106 27.2554 58.1289 27.1086C58.4472 26.9617 58.7935 26.8856 59.1441 26.8857H59.1468Z" fill="black"/>
</svg>
