<svg width="40" height="40" viewBox="0 0 40 40" fill="none" xmlns="http://www.w3.org/2000/svg">
<path d="M34.8333 19.3333C34.6667 19.1666 34.6667 19 34.5 18.8333L29.5 13.8333C28.8333 13.1666 27.8333 13.1666 27.1667 13.8333C26.5 14.5 26.5 15.5 27.1667 16.1666L29.3333 18.3333H21.6667C20.6667 18.3333 20 19 20 20C20 21 20.6667 21.6666 21.6667 21.6666H29.3333L27.1667 23.8333C26.5 24.5 26.5 25.5 27.1667 26.1666C27.5 26.5 28 26.6666 28.3333 26.6666C28.6667 26.6666 29.1667 26.5 29.5 26.1666L34.5 21.1666C34.6667 21 34.8333 20.8333 34.8333 20.6666C35 20.1666 35 19.8333 34.8333 19.3333Z" fill="#696868"/>
<path d="M25.8333 30.1667C24 31.1667 22 31.6667 20 31.6667C13.5 31.6667 8.33333 26.5 8.33333 20C8.33333 13.5 13.5 8.33333 20 8.33333C22 8.33333 24 8.83333 25.8333 9.83333C26.6667 10.3333 27.6667 10 28.1667 9.16667C28.6667 8.33333 28.3333 7.33333 27.5 6.83333C25.1667 5.66667 22.6667 5 20 5C11.6667 5 5 11.6667 5 20C5 28.3333 11.6667 35 20 35C22.6667 35 25.1667 34.3333 27.5 33C28.3333 32.5 28.5 31.5 28.1667 30.6667C27.6667 30 26.6667 29.6667 25.8333 30.1667Z" fill="#696868"/>
</svg>
