<svg width="654" height="90" viewBox="0 -5 654 58" fill="none" xmlns="http://www.w3.org/2000/svg">
<path d="M17.125 3.37C21.935 3.37 26.1383 4.32333 29.735 6.23C33.3317 8.13666 36.105 10.8233 38.055 14.29C40.0483 17.7133 41.045 21.6783 41.045 26.185C41.045 30.6483 40.0483 34.6133 38.055 38.08C36.105 41.5467 33.31 44.2333 29.67 46.14C26.0733 48.0467 21.8917 49 17.125 49H0.0300002V3.37H17.125ZM16.41 39.38C20.6133 39.38 23.885 38.2317 26.225 35.935C28.565 33.6383 29.735 30.3883 29.735 26.185C29.735 21.9817 28.565 18.71 26.225 16.37C23.885 14.03 20.6133 12.86 16.41 12.86H11.145V39.38H16.41ZM63.7666 49.52C60.2132 49.52 57.0066 48.7617 54.1466 47.245C51.3299 45.7283 49.0982 43.5617 47.4516 40.745C45.8482 37.9283 45.0466 34.635 45.0466 30.865C45.0466 27.1383 45.8699 23.8667 47.5166 21.05C49.1632 18.19 51.4166 16.0017 54.2766 14.485C57.1366 12.9683 60.3432 12.21 63.8966 12.21C67.4499 12.21 70.6566 12.9683 73.5166 14.485C76.3766 16.0017 78.6299 18.19 80.2766 21.05C81.9232 23.8667 82.7466 27.1383 82.7466 30.865C82.7466 34.5917 81.9016 37.885 80.2116 40.745C78.5649 43.5617 76.2899 45.7283 73.3866 47.245C70.5266 48.7617 67.3199 49.52 63.7666 49.52ZM63.7666 39.9C65.8899 39.9 67.6882 39.12 69.1616 37.56C70.6782 36 71.4366 33.7683 71.4366 30.865C71.4366 27.9617 70.6999 25.73 69.2266 24.17C67.7966 22.61 66.0199 21.83 63.8966 21.83C61.7299 21.83 59.9316 22.61 58.5016 24.17C57.0716 25.6867 56.3566 27.9183 56.3566 30.865C56.3566 33.7683 57.0499 36 58.4366 37.56C59.8666 39.12 61.6432 39.9 63.7666 39.9ZM86.4333 30.865C86.4333 27.095 87.1916 23.8017 88.7083 20.985C90.2683 18.1683 92.4133 16.0017 95.1433 14.485C97.9166 12.9683 101.08 12.21 104.633 12.21C109.183 12.21 112.975 13.4017 116.008 15.785C119.085 18.1683 121.1 21.5267 122.053 25.86H110.223C109.227 23.0867 107.298 21.7 104.438 21.7C102.402 21.7 100.777 22.5017 99.5633 24.105C98.3499 25.665 97.7433 27.9183 97.7433 30.865C97.7433 33.8117 98.3499 36.0867 99.5633 37.69C100.777 39.25 102.402 40.03 104.438 40.03C107.298 40.03 109.227 38.6433 110.223 35.87H122.053C121.1 40.1167 119.085 43.4533 116.008 45.88C112.932 48.3067 109.14 49.52 104.633 49.52C101.08 49.52 97.9166 48.7617 95.1433 47.245C92.4133 45.7283 90.2683 43.5617 88.7083 40.745C87.1916 37.9283 86.4333 34.635 86.4333 30.865ZM148.214 39.575V49H142.559C138.529 49 135.387 48.025 133.134 46.075C130.88 44.0817 129.754 40.8533 129.754 36.39V21.96H125.334V12.73H129.754V3.89H140.869V12.73H148.149V21.96H140.869V36.52C140.869 37.6033 141.129 38.3833 141.649 38.86C142.169 39.3367 143.035 39.575 144.249 39.575H148.214ZM170.915 49.52C167.362 49.52 164.155 48.7617 161.295 47.245C158.478 45.7283 156.247 43.5617 154.6 40.745C152.997 37.9283 152.195 34.635 152.195 30.865C152.195 27.1383 153.018 23.8667 154.665 21.05C156.312 18.19 158.565 16.0017 161.425 14.485C164.285 12.9683 167.492 12.21 171.045 12.21C174.598 12.21 177.805 12.9683 180.665 14.485C183.525 16.0017 185.778 18.19 187.425 21.05C189.072 23.8667 189.895 27.1383 189.895 30.865C189.895 34.5917 189.05 37.885 187.36 40.745C185.713 43.5617 183.438 45.7283 180.535 47.245C177.675 48.7617 174.468 49.52 170.915 49.52ZM170.915 39.9C173.038 39.9 174.837 39.12 176.31 37.56C177.827 36 178.585 33.7683 178.585 30.865C178.585 27.9617 177.848 25.73 176.375 24.17C174.945 22.61 173.168 21.83 171.045 21.83C168.878 21.83 167.08 22.61 165.65 24.17C164.22 25.6867 163.505 27.9183 163.505 30.865C163.505 33.7683 164.198 36 165.585 37.56C167.015 39.12 168.792 39.9 170.915 39.9ZM206.907 18.775C208.207 16.7817 209.832 15.2217 211.782 14.095C213.732 12.925 215.898 12.34 218.282 12.34V24.105H215.227C212.453 24.105 210.373 24.7117 208.987 25.925C207.6 27.095 206.907 29.175 206.907 32.165V49H195.792V12.73H206.907V18.775ZM238.349 49.52C235.186 49.52 232.369 48.9783 229.899 47.895C227.429 46.8117 225.479 45.3383 224.049 43.475C222.619 41.5683 221.818 39.445 221.644 37.105H232.629C232.759 38.3617 233.344 39.38 234.384 40.16C235.424 40.94 236.703 41.33 238.219 41.33C239.606 41.33 240.668 41.07 241.404 40.55C242.184 39.9867 242.574 39.2717 242.574 38.405C242.574 37.365 242.033 36.6067 240.949 36.13C239.866 35.61 238.111 35.0467 235.684 34.44C233.084 33.8333 230.918 33.205 229.184 32.555C227.451 31.8617 225.956 30.8 224.699 29.37C223.443 27.8967 222.814 25.925 222.814 23.455C222.814 21.375 223.378 19.49 224.504 17.8C225.674 16.0667 227.364 14.7017 229.574 13.705C231.828 12.7083 234.493 12.21 237.569 12.21C242.119 12.21 245.694 13.3367 248.294 15.59C250.938 17.8433 252.454 20.8333 252.844 24.56H242.574C242.401 23.3033 241.838 22.3067 240.884 21.57C239.974 20.8333 238.761 20.465 237.244 20.465C235.944 20.465 234.948 20.725 234.254 21.245C233.561 21.7217 233.214 22.3933 233.214 23.26C233.214 24.3 233.756 25.08 234.839 25.6C235.966 26.12 237.699 26.64 240.039 27.16C242.726 27.8533 244.914 28.5467 246.604 29.24C248.294 29.89 249.768 30.9733 251.024 32.49C252.324 33.9633 252.996 35.9567 253.039 38.47C253.039 40.5933 252.433 42.5 251.219 44.19C250.049 45.8367 248.338 47.1367 246.084 48.09C243.874 49.0433 241.296 49.52 238.349 49.52ZM271.8 38.73L264.585 57.385H257.5L261.27 38.73H271.8ZM343.951 3.37V49H332.836V21.635L322.631 49H313.661L303.391 21.57V49H292.276V3.37H305.406L318.211 34.96L330.886 3.37H343.951ZM386.134 30.28C386.134 31.32 386.069 32.4033 385.939 33.53H360.784C360.957 35.7833 361.672 37.5167 362.929 38.73C364.229 39.9 365.811 40.485 367.674 40.485C370.447 40.485 372.376 39.315 373.459 36.975H385.289C384.682 39.3583 383.577 41.5033 381.974 43.41C380.414 45.3167 378.442 46.8117 376.059 47.895C373.676 48.9783 371.011 49.52 368.064 49.52C364.511 49.52 361.347 48.7617 358.574 47.245C355.801 45.7283 353.634 43.5617 352.074 40.745C350.514 37.9283 349.734 34.635 349.734 30.865C349.734 27.095 350.492 23.8017 352.009 20.985C353.569 18.1683 355.736 16.0017 358.509 14.485C361.282 12.9683 364.467 12.21 368.064 12.21C371.574 12.21 374.694 12.9467 377.424 14.42C380.154 15.8933 382.277 17.995 383.794 20.725C385.354 23.455 386.134 26.64 386.134 30.28ZM374.759 27.355C374.759 25.4483 374.109 23.9317 372.809 22.805C371.509 21.6783 369.884 21.115 367.934 21.115C366.071 21.115 364.489 21.6567 363.189 22.74C361.932 23.8233 361.152 25.3617 360.849 27.355H374.759ZM389.788 30.8C389.788 27.0733 390.481 23.8017 391.868 20.985C393.298 18.1683 395.226 16.0017 397.653 14.485C400.079 12.9683 402.788 12.21 405.778 12.21C408.161 12.21 410.328 12.7083 412.278 13.705C414.271 14.7017 415.831 16.045 416.958 17.735V0.899999H428.073V49H416.958V43.8C415.918 45.5333 414.423 46.92 412.473 47.96C410.566 49 408.334 49.52 405.778 49.52C402.788 49.52 400.079 48.7617 397.653 47.245C395.226 45.685 393.298 43.4967 391.868 40.68C390.481 37.82 389.788 34.5267 389.788 30.8ZM416.958 30.865C416.958 28.0917 416.178 25.9033 414.618 24.3C413.101 22.6967 411.238 21.895 409.028 21.895C406.818 21.895 404.933 22.6967 403.373 24.3C401.856 25.86 401.098 28.0267 401.098 30.8C401.098 33.5733 401.856 35.7833 403.373 37.43C404.933 39.0333 406.818 39.835 409.028 39.835C411.238 39.835 413.101 39.0333 414.618 37.43C416.178 35.8267 416.958 33.6383 416.958 30.865ZM450.869 49.52C447.706 49.52 444.889 48.9783 442.419 47.895C439.949 46.8117 437.999 45.3383 436.569 43.475C435.139 41.5683 434.337 39.445 434.164 37.105H445.149C445.279 38.3617 445.864 39.38 446.904 40.16C447.944 40.94 449.222 41.33 450.739 41.33C452.126 41.33 453.187 41.07 453.924 40.55C454.704 39.9867 455.094 39.2717 455.094 38.405C455.094 37.365 454.552 36.6067 453.469 36.13C452.386 35.61 450.631 35.0467 448.204 34.44C445.604 33.8333 443.437 33.205 441.704 32.555C439.971 31.8617 438.476 30.8 437.219 29.37C435.962 27.8967 435.334 25.925 435.334 23.455C435.334 21.375 435.897 19.49 437.024 17.8C438.194 16.0667 439.884 14.7017 442.094 13.705C444.347 12.7083 447.012 12.21 450.089 12.21C454.639 12.21 458.214 13.3367 460.814 15.59C463.457 17.8433 464.974 20.8333 465.364 24.56H455.094C454.921 23.3033 454.357 22.3067 453.404 21.57C452.494 20.8333 451.281 20.465 449.764 20.465C448.464 20.465 447.467 20.725 446.774 21.245C446.081 21.7217 445.734 22.3933 445.734 23.26C445.734 24.3 446.276 25.08 447.359 25.6C448.486 26.12 450.219 26.64 452.559 27.16C455.246 27.8533 457.434 28.5467 459.124 29.24C460.814 29.89 462.287 30.9733 463.544 32.49C464.844 33.9633 465.516 35.9567 465.559 38.47C465.559 40.5933 464.952 42.5 463.739 44.19C462.569 45.8367 460.857 47.1367 458.604 48.09C456.394 49.0433 453.816 49.52 450.869 49.52ZM484.319 38.73L477.104 57.385H470.019L473.789 38.73H484.319ZM515.911 40.42H530.471V49H504.796V3.37H515.911V40.42ZM533.562 30.8C533.562 27.0733 534.256 23.8017 535.642 20.985C537.072 18.1683 539.001 16.0017 541.427 14.485C543.854 12.9683 546.562 12.21 549.552 12.21C552.109 12.21 554.341 12.73 556.247 13.77C558.197 14.81 559.692 16.175 560.732 17.865V12.73H571.847V49H560.732V43.865C559.649 45.555 558.132 46.92 556.182 47.96C554.276 49 552.044 49.52 549.487 49.52C546.541 49.52 543.854 48.7617 541.427 47.245C539.001 45.685 537.072 43.4967 535.642 40.68C534.256 37.82 533.562 34.5267 533.562 30.8ZM560.732 30.865C560.732 28.0917 559.952 25.9033 558.392 24.3C556.876 22.6967 555.012 21.895 552.802 21.895C550.592 21.895 548.707 22.6967 547.147 24.3C545.631 25.86 544.872 28.0267 544.872 30.8C544.872 33.5733 545.631 35.7833 547.147 37.43C548.707 39.0333 550.592 39.835 552.802 39.835C555.012 39.835 556.876 39.0333 558.392 37.43C559.952 35.8267 560.732 33.6383 560.732 30.865ZM591.003 17.865C592.043 16.175 593.538 14.81 595.488 13.77C597.438 12.73 599.67 12.21 602.183 12.21C605.173 12.21 607.882 12.9683 610.308 14.485C612.735 16.0017 614.642 18.1683 616.028 20.985C617.458 23.8017 618.173 27.0733 618.173 30.8C618.173 34.5267 617.458 37.82 616.028 40.68C614.642 43.4967 612.735 45.685 610.308 47.245C607.882 48.7617 605.173 49.52 602.183 49.52C599.627 49.52 597.395 49.0217 595.488 48.025C593.582 46.985 592.087 45.62 591.003 43.93V49H579.888V0.899999H591.003V17.865ZM606.863 30.8C606.863 28.0267 606.083 25.86 604.523 24.3C603.007 22.6967 601.122 21.895 598.868 21.895C596.658 21.895 594.773 22.6967 593.213 24.3C591.697 25.9033 590.938 28.0917 590.938 30.865C590.938 33.6383 591.697 35.8267 593.213 37.43C594.773 39.0333 596.658 39.835 598.868 39.835C601.078 39.835 602.963 39.0333 604.523 37.43C606.083 35.7833 606.863 33.5733 606.863 30.8ZM638.76 49.52C635.596 49.52 632.78 48.9783 630.31 47.895C627.84 46.8117 625.89 45.3383 624.46 43.475C623.03 41.5683 622.228 39.445 622.055 37.105H633.04C633.17 38.3617 633.755 39.38 634.795 40.16C635.835 40.94 637.113 41.33 638.63 41.33C640.016 41.33 641.078 41.07 641.815 40.55C642.595 39.9867 642.985 39.2717 642.985 38.405C642.985 37.365 642.443 36.6067 641.36 36.13C640.276 35.61 638.521 35.0467 636.095 34.44C633.495 33.8333 631.328 33.205 629.595 32.555C627.861 31.8617 626.366 30.8 625.11 29.37C623.853 27.8967 623.225 25.925 623.225 23.455C623.225 21.375 623.788 19.49 624.915 17.8C626.085 16.0667 627.775 14.7017 629.985 13.705C632.238 12.7083 634.903 12.21 637.98 12.21C642.53 12.21 646.105 13.3367 648.705 15.59C651.348 17.8433 652.865 20.8333 653.255 24.56H642.985C642.811 23.3033 642.248 22.3067 641.295 21.57C640.385 20.8333 639.171 20.465 637.655 20.465C636.355 20.465 635.358 20.725 634.665 21.245C633.971 21.7217 633.625 22.3933 633.625 23.26C633.625 24.3 634.166 25.08 635.25 25.6C636.376 26.12 638.11 26.64 640.45 27.16C643.136 27.8533 645.325 28.5467 647.015 29.24C648.705 29.89 650.178 30.9733 651.435 32.49C652.735 33.9633 653.406 35.9567 653.45 38.47C653.45 40.5933 652.843 42.5 651.63 44.19C650.46 45.8367 648.748 47.1367 646.495 48.09C644.285 49.0433 641.706 49.52 638.76 49.52Z" fill="#6DA9B0"/>
</svg>
