<svg width="534" height="113" viewBox="0 0 534 113" fill="none" xmlns="http://www.w3.org/2000/svg">
<mask id="mask0_3678_4780" style="mask-type:alpha" maskUnits="userSpaceOnUse" x="4" y="27" width="528" height="57">
<path d="M36.525 56C39.575 56.65 42.025 58.175 43.875 60.575C45.725 62.925 46.65 65.625 46.65 68.675C46.65 73.075 45.1 76.575 42 79.175C38.95 81.725 34.675 83 29.175 83H4.65V30.35H28.35C33.7 30.35 37.875 31.575 40.875 34.025C43.925 36.475 45.45 39.8 45.45 44C45.45 47.1 44.625 49.675 42.975 51.725C41.375 53.775 39.225 55.2 36.525 56ZM17.475 51.65H25.875C27.975 51.65 29.575 51.2 30.675 50.3C31.825 49.35 32.4 47.975 32.4 46.175C32.4 44.375 31.825 43 30.675 42.05C29.575 41.1 27.975 40.625 25.875 40.625H17.475V51.65ZM26.925 72.65C29.075 72.65 30.725 72.175 31.875 71.225C33.075 70.225 33.675 68.8 33.675 66.95C33.675 65.1 33.05 63.65 31.8 62.6C30.6 61.55 28.925 61.025 26.775 61.025H17.475V72.65H26.925ZM93.5385 61.4C93.5385 62.6 93.4635 63.85 93.3135 65.15H64.2885C64.4885 67.75 65.3135 69.75 66.7635 71.15C68.2635 72.5 70.0885 73.175 72.2385 73.175C75.4385 73.175 77.6635 71.825 78.9135 69.125H92.5635C91.8635 71.875 90.5885 74.35 88.7385 76.55C86.9385 78.75 84.6635 80.475 81.9135 81.725C79.1635 82.975 76.0885 83.6 72.6885 83.6C68.5885 83.6 64.9385 82.725 61.7385 80.975C58.5385 79.225 56.0385 76.725 54.2385 73.475C52.4385 70.225 51.5385 66.425 51.5385 62.075C51.5385 57.725 52.4135 53.925 54.1635 50.675C55.9635 47.425 58.4635 44.925 61.6635 43.175C64.8635 41.425 68.5385 40.55 72.6885 40.55C76.7385 40.55 80.3385 41.4 83.4885 43.1C86.6385 44.8 89.0885 47.225 90.8385 50.375C92.6385 53.525 93.5385 57.2 93.5385 61.4ZM80.4135 58.025C80.4135 55.825 79.6635 54.075 78.1635 52.775C76.6635 51.475 74.7885 50.825 72.5385 50.825C70.3885 50.825 68.5635 51.45 67.0635 52.7C65.6135 53.95 64.7135 55.725 64.3635 58.025H80.4135ZM97.7543 62.075C97.7543 57.725 98.6293 53.925 100.379 50.675C102.179 47.425 104.654 44.925 107.804 43.175C111.004 41.425 114.654 40.55 118.754 40.55C124.004 40.55 128.379 41.925 131.879 44.675C135.429 47.425 137.754 51.3 138.854 56.3H125.204C124.054 53.1 121.829 51.5 118.529 51.5C116.179 51.5 114.304 52.425 112.904 54.275C111.504 56.075 110.804 58.675 110.804 62.075C110.804 65.475 111.504 68.1 112.904 69.95C114.304 71.75 116.179 72.65 118.529 72.65C121.829 72.65 124.054 71.05 125.204 67.85H138.854C137.754 72.75 135.429 76.6 131.879 79.4C128.329 82.2 123.954 83.6 118.754 83.6C114.654 83.6 111.004 82.725 107.804 80.975C104.654 79.225 102.179 76.725 100.379 73.475C98.6293 70.225 97.7543 66.425 97.7543 62.075ZM171.289 83L158.539 65.45V83H145.714V27.5H158.539V58.175L171.214 41.15H187.039L169.639 62.15L187.189 83H171.289ZM217.577 40.7C222.477 40.7 226.377 42.3 229.277 45.5C232.227 48.65 233.702 53 233.702 58.55V83H220.952V60.275C220.952 57.475 220.227 55.3 218.777 53.75C217.327 52.2 215.377 51.425 212.927 51.425C210.477 51.425 208.527 52.2 207.077 53.75C205.627 55.3 204.902 57.475 204.902 60.275V83H192.077V41.15H204.902V46.7C206.202 44.85 207.952 43.4 210.152 42.35C212.352 41.25 214.827 40.7 217.577 40.7ZM298.782 83L293.907 78.275C289.057 81.975 283.257 83.825 276.507 83.825C272.457 83.825 268.932 83.175 265.932 81.875C262.932 80.525 260.607 78.65 258.957 76.25C257.357 73.8 256.557 70.95 256.557 67.7C256.557 64.4 257.432 61.425 259.182 58.775C260.982 56.075 263.657 53.875 267.207 52.175C265.907 50.575 264.982 49.05 264.432 47.6C263.882 46.1 263.607 44.475 263.607 42.725C263.607 40.225 264.257 37.95 265.557 35.9C266.857 33.85 268.732 32.25 271.182 31.1C273.682 29.9 276.632 29.3 280.032 29.3C283.482 29.3 286.407 29.925 288.807 31.175C291.207 32.425 293.007 34.1 294.207 36.2C295.407 38.3 295.957 40.6 295.857 43.1H283.782C283.832 41.75 283.482 40.725 282.732 40.025C282.032 39.275 281.082 38.9 279.882 38.9C278.682 38.9 277.682 39.25 276.882 39.95C276.082 40.65 275.682 41.55 275.682 42.65C275.682 43.7 276.007 44.8 276.657 45.95C277.357 47.1 278.432 48.425 279.882 49.925L292.707 62.45C292.807 62.2 292.932 61.9 293.082 61.55C293.282 61.2 293.482 60.8 293.682 60.35L296.457 55.625H309.282L305.682 62.15C304.332 65.1 302.782 67.9 301.032 70.55L313.707 83H298.782ZM277.107 73.475C280.457 73.475 283.432 72.525 286.032 70.625L274.332 59.3C270.732 61.15 268.932 63.65 268.932 66.8C268.932 68.7 269.657 70.3 271.107 71.6C272.607 72.85 274.607 73.475 277.107 73.475ZM353.965 30.35C359.515 30.35 364.365 31.45 368.515 33.65C372.665 35.85 375.865 38.95 378.115 42.95C380.415 46.9 381.565 51.475 381.565 56.675C381.565 61.825 380.415 66.4 378.115 70.4C375.865 74.4 372.64 77.5 368.44 79.7C364.29 81.9 359.465 83 353.965 83H334.24V30.35H353.965ZM353.14 71.9C357.99 71.9 361.765 70.575 364.465 67.925C367.165 65.275 368.515 61.525 368.515 56.675C368.515 51.825 367.165 48.05 364.465 45.35C361.765 42.65 357.99 41.3 353.14 41.3H347.065V71.9H353.14ZM407.782 83.525C403.932 83.525 400.482 82.9 397.432 81.65C394.382 80.4 391.932 78.55 390.082 76.1C388.282 73.65 387.332 70.7 387.232 67.25H400.882C401.082 69.2 401.757 70.7 402.907 71.75C404.057 72.75 405.557 73.25 407.407 73.25C409.307 73.25 410.807 72.825 411.907 71.975C413.007 71.075 413.557 69.85 413.557 68.3C413.557 67 413.107 65.925 412.207 65.075C411.357 64.225 410.282 63.525 408.982 62.975C407.732 62.425 405.932 61.8 403.582 61.1C400.182 60.05 397.407 59 395.257 57.95C393.107 56.9 391.257 55.35 389.707 53.3C388.157 51.25 387.382 48.575 387.382 45.275C387.382 40.375 389.157 36.55 392.707 33.8C396.257 31 400.882 29.6 406.582 29.6C412.382 29.6 417.057 31 420.607 33.8C424.157 36.55 426.057 40.4 426.307 45.35H412.432C412.332 43.65 411.707 42.325 410.557 41.375C409.407 40.375 407.932 39.875 406.132 39.875C404.582 39.875 403.332 40.3 402.382 41.15C401.432 41.95 400.957 43.125 400.957 44.675C400.957 46.375 401.757 47.7 403.357 48.65C404.957 49.6 407.457 50.625 410.857 51.725C414.257 52.875 417.007 53.975 419.107 55.025C421.257 56.075 423.107 57.6 424.657 59.6C426.207 61.6 426.982 64.175 426.982 67.325C426.982 70.325 426.207 73.05 424.657 75.5C423.157 77.95 420.957 79.9 418.057 81.35C415.157 82.8 411.732 83.525 407.782 83.525ZM481.975 83H469.15L447.7 50.525V83H434.875V30.35H447.7L469.15 62.975V30.35H481.975V83ZM531.396 47.3C531.396 50.35 530.696 53.15 529.296 55.7C527.896 58.2 525.746 60.225 522.846 61.775C519.946 63.325 516.346 64.1 512.046 64.1H504.096V83H491.271V30.35H512.046C516.246 30.35 519.796 31.075 522.696 32.525C525.596 33.975 527.771 35.975 529.221 38.525C530.671 41.075 531.396 44 531.396 47.3ZM511.071 53.9C513.521 53.9 515.346 53.325 516.546 52.175C517.746 51.025 518.346 49.4 518.346 47.3C518.346 45.2 517.746 43.575 516.546 42.425C515.346 41.275 513.521 40.7 511.071 40.7H504.096V53.9H511.071Z" fill="black"/>
</mask>
<g mask="url(#mask0_3678_4780)">
<g filter="url(#filter0_d_3678_4780)">
<g clip-path="url(#clip0_3678_4780)">
<g filter="url(#filter1_d_3678_4780)">
<rect x="-2196" y="-623" width="3565.11" height="783.375" rx="15" fill="url(#paint0_linear_3678_4780)"/>
<rect x="-2196" y="-623" width="3565.11" height="783.375" rx="15" fill="black" fill-opacity="0.2"/>
</g>
</g>
</g>
</g>
<defs>
<filter id="filter0_d_3678_4780" x="-77" y="-108" width="1053" height="276" filterUnits="userSpaceOnUse" color-interpolation-filters="sRGB">
<feFlood flood-opacity="0" result="BackgroundImageFix"/>
<feColorMatrix in="SourceAlpha" type="matrix" values="0 0 0 0 0 0 0 0 0 0 0 0 0 0 0 0 0 0 127 0" result="hardAlpha"/>
<feOffset dy="4"/>
<feGaussianBlur stdDeviation="2"/>
<feComposite in2="hardAlpha" operator="out"/>
<feColorMatrix type="matrix" values="0 0 0 0 0 0 0 0 0 0 0 0 0 0 0 0 0 0 0.5 0"/>
<feBlend mode="normal" in2="BackgroundImageFix" result="effect1_dropShadow_3678_4780"/>
<feBlend mode="normal" in="SourceGraphic" in2="effect1_dropShadow_3678_4780" result="shape"/>
</filter>
<filter id="filter1_d_3678_4780" x="-2200" y="-623" width="3573.11" height="791.375" filterUnits="userSpaceOnUse" color-interpolation-filters="sRGB">
<feFlood flood-opacity="0" result="BackgroundImageFix"/>
<feColorMatrix in="SourceAlpha" type="matrix" values="0 0 0 0 0 0 0 0 0 0 0 0 0 0 0 0 0 0 127 0" result="hardAlpha"/>
<feOffset dy="4"/>
<feGaussianBlur stdDeviation="2"/>
<feComposite in2="hardAlpha" operator="out"/>
<feColorMatrix type="matrix" values="0 0 0 0 0 0 0 0 0 0 0 0 0 0 0 0 0 0 0.5 0"/>
<feBlend mode="normal" in2="BackgroundImageFix" result="effect1_dropShadow_3678_4780"/>
<feBlend mode="normal" in="SourceGraphic" in2="effect1_dropShadow_3678_4780" result="shape"/>
</filter>
<linearGradient id="paint0_linear_3678_4780" x1="-2202.7" y1="-214.346" x2="1381.51" y2="-152.823" gradientUnits="userSpaceOnUse">
<stop stop-color="#F37A20"/>
<stop offset="1" stop-color="#F37A20"/>
</linearGradient>
<clipPath id="clip0_3678_4780">
<rect x="-73" y="-108" width="1045" height="268" rx="15" fill="white"/>
</clipPath>
</defs>
</svg>
