<svg width="552" height="221" viewBox="0 0 552 221" fill="none" xmlns="http://www.w3.org/2000/svg">
<mask id="mask0_3575_219" style="mask-type:alpha" maskUnits="userSpaceOnUse" x="4" y="27" width="528" height="57">
<path d="M36.525 56C39.575 56.65 42.025 58.175 43.875 60.575C45.725 62.925 46.65 65.625 46.65 68.675C46.65 73.075 45.1 76.575 42 79.175C38.95 81.725 34.675 83 29.175 83H4.65V30.35H28.35C33.7 30.35 37.875 31.575 40.875 34.025C43.925 36.475 45.45 39.8 45.45 44C45.45 47.1 44.625 49.675 42.975 51.725C41.375 53.775 39.225 55.2 36.525 56ZM17.475 51.65H25.875C27.975 51.65 29.575 51.2 30.675 50.3C31.825 49.35 32.4 47.975 32.4 46.175C32.4 44.375 31.825 43 30.675 42.05C29.575 41.1 27.975 40.625 25.875 40.625H17.475V51.65ZM26.925 72.65C29.075 72.65 30.725 72.175 31.875 71.225C33.075 70.225 33.675 68.8 33.675 66.95C33.675 65.1 33.05 63.65 31.8 62.6C30.6 61.55 28.925 61.025 26.775 61.025H17.475V72.65H26.925ZM93.5385 61.4C93.5385 62.6 93.4635 63.85 93.3135 65.15H64.2885C64.4885 67.75 65.3135 69.75 66.7635 71.15C68.2635 72.5 70.0885 73.175 72.2385 73.175C75.4385 73.175 77.6635 71.825 78.9135 69.125H92.5635C91.8635 71.875 90.5885 74.35 88.7385 76.55C86.9385 78.75 84.6635 80.475 81.9135 81.725C79.1635 82.975 76.0885 83.6 72.6885 83.6C68.5885 83.6 64.9385 82.725 61.7385 80.975C58.5385 79.225 56.0385 76.725 54.2385 73.475C52.4385 70.225 51.5385 66.425 51.5385 62.075C51.5385 57.725 52.4135 53.925 54.1635 50.675C55.9635 47.425 58.4635 44.925 61.6635 43.175C64.8635 41.425 68.5385 40.55 72.6885 40.55C76.7385 40.55 80.3385 41.4 83.4885 43.1C86.6385 44.8 89.0885 47.225 90.8385 50.375C92.6385 53.525 93.5385 57.2 93.5385 61.4ZM80.4135 58.025C80.4135 55.825 79.6635 54.075 78.1635 52.775C76.6635 51.475 74.7885 50.825 72.5385 50.825C70.3885 50.825 68.5635 51.45 67.0635 52.7C65.6135 53.95 64.7135 55.725 64.3635 58.025H80.4135ZM97.7543 62.075C97.7543 57.725 98.6293 53.925 100.379 50.675C102.179 47.425 104.654 44.925 107.804 43.175C111.004 41.425 114.654 40.55 118.754 40.55C124.004 40.55 128.379 41.925 131.879 44.675C135.429 47.425 137.754 51.3 138.854 56.3H125.204C124.054 53.1 121.829 51.5 118.529 51.5C116.179 51.5 114.304 52.425 112.904 54.275C111.504 56.075 110.804 58.675 110.804 62.075C110.804 65.475 111.504 68.1 112.904 69.95C114.304 71.75 116.179 72.65 118.529 72.65C121.829 72.65 124.054 71.05 125.204 67.85H138.854C137.754 72.75 135.429 76.6 131.879 79.4C128.329 82.2 123.954 83.6 118.754 83.6C114.654 83.6 111.004 82.725 107.804 80.975C104.654 79.225 102.179 76.725 100.379 73.475C98.6293 70.225 97.7543 66.425 97.7543 62.075ZM171.289 83L158.539 65.45V83H145.714V27.5H158.539V58.175L171.214 41.15H187.039L169.639 62.15L187.189 83H171.289ZM217.577 40.7C222.477 40.7 226.377 42.3 229.277 45.5C232.227 48.65 233.702 53 233.702 58.55V83H220.952V60.275C220.952 57.475 220.227 55.3 218.777 53.75C217.327 52.2 215.377 51.425 212.927 51.425C210.477 51.425 208.527 52.2 207.077 53.75C205.627 55.3 204.902 57.475 204.902 60.275V83H192.077V41.15H204.902V46.7C206.202 44.85 207.952 43.4 210.152 42.35C212.352 41.25 214.827 40.7 217.577 40.7ZM298.782 83L293.907 78.275C289.057 81.975 283.257 83.825 276.507 83.825C272.457 83.825 268.932 83.175 265.932 81.875C262.932 80.525 260.607 78.65 258.957 76.25C257.357 73.8 256.557 70.95 256.557 67.7C256.557 64.4 257.432 61.425 259.182 58.775C260.982 56.075 263.657 53.875 267.207 52.175C265.907 50.575 264.982 49.05 264.432 47.6C263.882 46.1 263.607 44.475 263.607 42.725C263.607 40.225 264.257 37.95 265.557 35.9C266.857 33.85 268.732 32.25 271.182 31.1C273.682 29.9 276.632 29.3 280.032 29.3C283.482 29.3 286.407 29.925 288.807 31.175C291.207 32.425 293.007 34.1 294.207 36.2C295.407 38.3 295.957 40.6 295.857 43.1H283.782C283.832 41.75 283.482 40.725 282.732 40.025C282.032 39.275 281.082 38.9 279.882 38.9C278.682 38.9 277.682 39.25 276.882 39.95C276.082 40.65 275.682 41.55 275.682 42.65C275.682 43.7 276.007 44.8 276.657 45.95C277.357 47.1 278.432 48.425 279.882 49.925L292.707 62.45C292.807 62.2 292.932 61.9 293.082 61.55C293.282 61.2 293.482 60.8 293.682 60.35L296.457 55.625H309.282L305.682 62.15C304.332 65.1 302.782 67.9 301.032 70.55L313.707 83H298.782ZM277.107 73.475C280.457 73.475 283.432 72.525 286.032 70.625L274.332 59.3C270.732 61.15 268.932 63.65 268.932 66.8C268.932 68.7 269.657 70.3 271.107 71.6C272.607 72.85 274.607 73.475 277.107 73.475ZM353.965 30.35C359.515 30.35 364.365 31.45 368.515 33.65C372.665 35.85 375.865 38.95 378.115 42.95C380.415 46.9 381.565 51.475 381.565 56.675C381.565 61.825 380.415 66.4 378.115 70.4C375.865 74.4 372.64 77.5 368.44 79.7C364.29 81.9 359.465 83 353.965 83H334.24V30.35H353.965ZM353.14 71.9C357.99 71.9 361.765 70.575 364.465 67.925C367.165 65.275 368.515 61.525 368.515 56.675C368.515 51.825 367.165 48.05 364.465 45.35C361.765 42.65 357.99 41.3 353.14 41.3H347.065V71.9H353.14ZM407.782 83.525C403.932 83.525 400.482 82.9 397.432 81.65C394.382 80.4 391.932 78.55 390.082 76.1C388.282 73.65 387.332 70.7 387.232 67.25H400.882C401.082 69.2 401.757 70.7 402.907 71.75C404.057 72.75 405.557 73.25 407.407 73.25C409.307 73.25 410.807 72.825 411.907 71.975C413.007 71.075 413.557 69.85 413.557 68.3C413.557 67 413.107 65.925 412.207 65.075C411.357 64.225 410.282 63.525 408.982 62.975C407.732 62.425 405.932 61.8 403.582 61.1C400.182 60.05 397.407 59 395.257 57.95C393.107 56.9 391.257 55.35 389.707 53.3C388.157 51.25 387.382 48.575 387.382 45.275C387.382 40.375 389.157 36.55 392.707 33.8C396.257 31 400.882 29.6 406.582 29.6C412.382 29.6 417.057 31 420.607 33.8C424.157 36.55 426.057 40.4 426.307 45.35H412.432C412.332 43.65 411.707 42.325 410.557 41.375C409.407 40.375 407.932 39.875 406.132 39.875C404.582 39.875 403.332 40.3 402.382 41.15C401.432 41.95 400.957 43.125 400.957 44.675C400.957 46.375 401.757 47.7 403.357 48.65C404.957 49.6 407.457 50.625 410.857 51.725C414.257 52.875 417.007 53.975 419.107 55.025C421.257 56.075 423.107 57.6 424.657 59.6C426.207 61.6 426.982 64.175 426.982 67.325C426.982 70.325 426.207 73.05 424.657 75.5C423.157 77.95 420.957 79.9 418.057 81.35C415.157 82.8 411.732 83.525 407.782 83.525ZM481.975 83H469.15L447.7 50.525V83H434.875V30.35H447.7L469.15 62.975V30.35H481.975V83ZM531.396 47.3C531.396 50.35 530.696 53.15 529.296 55.7C527.896 58.2 525.746 60.225 522.846 61.775C519.946 63.325 516.346 64.1 512.046 64.1H504.096V83H491.271V30.35H512.046C516.246 30.35 519.796 31.075 522.696 32.525C525.596 33.975 527.771 35.975 529.221 38.525C530.671 41.075 531.396 44 531.396 47.3ZM511.071 53.9C513.521 53.9 515.346 53.325 516.546 52.175C517.746 51.025 518.346 49.4 518.346 47.3C518.346 45.2 517.746 43.575 516.546 42.425C515.346 41.275 513.521 40.7 511.071 40.7H504.096V53.9H511.071Z" fill="black"/>
</mask>
<g mask="url(#mask0_3575_219)">
<g filter="url(#filter0_d_3575_219)">
<g clip-path="url(#clip0_3575_219)">
<g filter="url(#filter1_d_3575_219)">
<rect x="-2196" y="-623" width="3565.11" height="783.375" rx="15" fill="url(#paint0_linear_3575_219)"/>
<rect x="-2196" y="-623" width="3565.11" height="783.375" rx="15" fill="black" fill-opacity="0.2"/>
</g>
</g>
</g>
</g>
<path d="M4.576 128.8C5.008 127.888 5.672 127.144 6.568 126.568C7.48 125.992 8.552 125.704 9.784 125.704C10.984 125.704 12.056 125.984 13 126.544C13.944 127.088 14.68 127.872 15.208 128.896C15.752 129.904 16.024 131.08 16.024 132.424C16.024 133.768 15.752 134.952 15.208 135.976C14.68 137 13.936 137.792 12.976 138.352C12.032 138.912 10.968 139.192 9.784 139.192C8.536 139.192 7.456 138.912 6.544 138.352C5.648 137.776 4.992 137.032 4.576 136.12V139H2.92V121.24H4.576V128.8ZM14.32 132.424C14.32 131.336 14.104 130.4 13.672 129.616C13.256 128.816 12.68 128.208 11.944 127.792C11.208 127.376 10.376 127.168 9.448 127.168C8.552 127.168 7.728 127.384 6.976 127.816C6.24 128.248 5.656 128.864 5.224 129.664C4.792 130.464 4.576 131.392 4.576 132.448C4.576 133.504 4.792 134.432 5.224 135.232C5.656 136.032 6.24 136.648 6.976 137.08C7.728 137.512 8.552 137.728 9.448 137.728C10.376 137.728 11.208 137.52 11.944 137.104C12.68 136.672 13.256 136.056 13.672 135.256C14.104 134.44 14.32 133.496 14.32 132.424ZM30.4673 125.896V139H28.7873V136.696C28.4033 137.512 27.8113 138.136 27.0113 138.568C26.2113 139 25.3153 139.216 24.3233 139.216C22.7553 139.216 21.4753 138.736 20.4833 137.776C19.4913 136.8 18.9953 135.392 18.9953 133.552V125.896H20.6513V133.36C20.6513 134.784 21.0033 135.872 21.7073 136.624C22.4273 137.376 23.4033 137.752 24.6353 137.752C25.8993 137.752 26.9073 137.352 27.6593 136.552C28.4113 135.752 28.7873 134.576 28.7873 133.024V125.896H30.4673ZM35.1428 123.424C34.8068 123.424 34.5188 123.304 34.2788 123.064C34.0388 122.824 33.9188 122.528 33.9188 122.176C33.9188 121.824 34.0388 121.536 34.2788 121.312C34.5188 121.072 34.8068 120.952 35.1428 120.952C35.4788 120.952 35.7668 121.072 36.0068 121.312C36.2468 121.536 36.3668 121.824 36.3668 122.176C36.3668 122.528 36.2468 122.824 36.0068 123.064C35.7668 123.304 35.4788 123.424 35.1428 123.424ZM35.9828 125.896V139H34.3028V125.896H35.9828ZM41.4672 121.24V139H39.7872V121.24H41.4672ZM44.5036 132.424C44.5036 131.08 44.7756 129.904 45.3196 128.896C45.8636 127.872 46.6076 127.088 47.5516 126.544C48.5116 125.984 49.5916 125.704 50.7916 125.704C51.9436 125.704 52.9836 125.984 53.9116 126.544C54.8396 127.104 55.5196 127.832 55.9516 128.728V121.24H57.6316V139H55.9516V136.072C55.5516 136.984 54.8956 137.736 53.9836 138.328C53.0716 138.904 51.9996 139.192 50.7676 139.192C49.5676 139.192 48.4876 138.912 47.5276 138.352C46.5836 137.792 45.8396 137 45.2956 135.976C44.7676 134.952 44.5036 133.768 44.5036 132.424ZM55.9516 132.448C55.9516 131.392 55.7356 130.464 55.3036 129.664C54.8716 128.864 54.2796 128.248 53.5276 127.816C52.7916 127.384 51.9756 127.168 51.0796 127.168C50.1516 127.168 49.3196 127.376 48.5836 127.792C47.8476 128.208 47.2636 128.816 46.8316 129.616C46.4156 130.4 46.2076 131.336 46.2076 132.424C46.2076 133.496 46.4156 134.44 46.8316 135.256C47.2636 136.056 47.8476 136.672 48.5836 137.104C49.3196 137.52 50.1516 137.728 51.0796 137.728C51.9756 137.728 52.7916 137.512 53.5276 137.08C54.2796 136.648 54.8716 136.032 55.3036 135.232C55.7356 134.432 55.9516 133.504 55.9516 132.448ZM62.3069 123.424C61.9709 123.424 61.6829 123.304 61.4429 123.064C61.2029 122.824 61.0829 122.528 61.0829 122.176C61.0829 121.824 61.2029 121.536 61.4429 121.312C61.6829 121.072 61.9709 120.952 62.3069 120.952C62.6429 120.952 62.9309 121.072 63.1709 121.312C63.4109 121.536 63.5309 121.824 63.5309 122.176C63.5309 122.528 63.4109 122.824 63.1709 123.064C62.9309 123.304 62.6429 123.424 62.3069 123.424ZM63.1469 125.896V139H61.4669V125.896H63.1469ZM73.0953 125.656C74.6633 125.656 75.9433 126.144 76.9353 127.12C77.9273 128.08 78.4233 129.48 78.4233 131.32V139H76.7673V131.512C76.7673 130.088 76.4073 129 75.6873 128.248C74.9833 127.496 74.0153 127.12 72.7833 127.12C71.5193 127.12 70.5113 127.52 69.7593 128.32C69.0073 129.12 68.6313 130.296 68.6313 131.848V139H66.9513V125.896H68.6313V128.128C69.0473 127.328 69.6473 126.72 70.4313 126.304C71.2153 125.872 72.1033 125.656 73.0953 125.656ZM87.6348 125.704C88.8668 125.704 89.9388 125.992 90.8508 126.568C91.7628 127.144 92.4188 127.872 92.8188 128.752V125.896H94.4988V139.336C94.4988 140.536 94.2348 141.6 93.7068 142.528C93.1948 143.456 92.4748 144.168 91.5468 144.664C90.6188 145.176 89.5628 145.432 88.3788 145.432C86.6988 145.432 85.2988 145.032 84.1788 144.232C83.0748 143.432 82.3868 142.344 82.1148 140.968H83.7708C84.0588 141.88 84.6028 142.608 85.4028 143.152C86.2188 143.696 87.2108 143.968 88.3788 143.968C89.2268 143.968 89.9868 143.784 90.6588 143.416C91.3308 143.064 91.8588 142.536 92.2428 141.832C92.6268 141.128 92.8188 140.296 92.8188 139.336V136.096C92.4028 136.992 91.7388 137.736 90.8268 138.328C89.9308 138.904 88.8668 139.192 87.6348 139.192C86.4348 139.192 85.3548 138.912 84.3948 138.352C83.4508 137.792 82.7068 137 82.1628 135.976C81.6348 134.952 81.3708 133.768 81.3708 132.424C81.3708 131.08 81.6348 129.904 82.1628 128.896C82.7068 127.872 83.4508 127.088 84.3948 126.544C85.3548 125.984 86.4348 125.704 87.6348 125.704ZM92.8188 132.448C92.8188 131.392 92.6028 130.464 92.1708 129.664C91.7388 128.864 91.1468 128.248 90.3948 127.816C89.6588 127.384 88.8428 127.168 87.9468 127.168C87.0188 127.168 86.1868 127.376 85.4508 127.792C84.7148 128.208 84.1308 128.816 83.6988 129.616C83.2828 130.4 83.0748 131.336 83.0748 132.424C83.0748 133.496 83.2828 134.44 83.6988 135.256C84.1308 136.056 84.7148 136.672 85.4508 137.104C86.1868 137.52 87.0188 137.728 87.9468 137.728C88.8428 137.728 89.6588 137.512 90.3948 137.08C91.1468 136.648 91.7388 136.032 92.1708 135.232C92.6028 134.432 92.8188 133.504 92.8188 132.448ZM104.152 132.424C104.152 131.08 104.416 129.904 104.944 128.896C105.488 127.872 106.232 127.088 107.176 126.544C108.136 125.984 109.216 125.704 110.416 125.704C111.664 125.704 112.736 125.992 113.632 126.568C114.544 127.144 115.2 127.88 115.6 128.776V125.896H117.28V139H115.6V136.096C115.184 136.992 114.52 137.736 113.608 138.328C112.712 138.904 111.64 139.192 110.392 139.192C109.208 139.192 108.136 138.912 107.176 138.352C106.232 137.792 105.488 137 104.944 135.976C104.416 134.952 104.152 133.768 104.152 132.424ZM115.6 132.448C115.6 131.392 115.384 130.464 114.952 129.664C114.52 128.864 113.928 128.248 113.176 127.816C112.44 127.384 111.624 127.168 110.728 127.168C109.8 127.168 108.968 127.376 108.232 127.792C107.496 128.208 106.912 128.816 106.48 129.616C106.064 130.4 105.856 131.336 105.856 132.424C105.856 133.496 106.064 134.44 106.48 135.256C106.912 136.056 107.496 136.672 108.232 137.104C108.968 137.52 109.8 137.728 110.728 137.728C111.624 137.728 112.44 137.512 113.176 137.08C113.928 136.648 114.52 136.032 114.952 135.232C115.384 134.432 115.6 133.504 115.6 132.448ZM126.933 132.424C126.933 131.08 127.205 129.904 127.749 128.896C128.293 127.872 129.037 127.088 129.981 126.544C130.941 125.984 132.021 125.704 133.221 125.704C134.373 125.704 135.413 125.984 136.341 126.544C137.269 127.104 137.949 127.832 138.381 128.728V121.24H140.061V139H138.381V136.072C137.981 136.984 137.325 137.736 136.413 138.328C135.501 138.904 134.429 139.192 133.197 139.192C131.997 139.192 130.917 138.912 129.957 138.352C129.013 137.792 128.269 137 127.725 135.976C127.197 134.952 126.933 133.768 126.933 132.424ZM138.381 132.448C138.381 131.392 138.165 130.464 137.733 129.664C137.301 128.864 136.709 128.248 135.957 127.816C135.221 127.384 134.405 127.168 133.509 127.168C132.581 127.168 131.749 127.376 131.013 127.792C130.277 128.208 129.693 128.816 129.261 129.616C128.845 130.4 128.637 131.336 128.637 132.424C128.637 133.496 128.845 134.44 129.261 135.256C129.693 136.056 130.277 136.672 131.013 137.104C131.749 137.52 132.581 137.728 133.509 137.728C134.405 137.728 135.221 137.512 135.957 137.08C136.709 136.648 137.301 136.032 137.733 135.232C138.165 134.432 138.381 133.504 138.381 132.448ZM155.753 131.776C155.753 132.352 155.737 132.792 155.705 133.096H144.833C144.881 134.088 145.121 134.936 145.553 135.64C145.985 136.344 146.553 136.88 147.257 137.248C147.961 137.6 148.729 137.776 149.561 137.776C150.649 137.776 151.561 137.512 152.297 136.984C153.049 136.456 153.545 135.744 153.785 134.848H155.561C155.241 136.128 154.553 137.176 153.497 137.992C152.457 138.792 151.145 139.192 149.561 139.192C148.329 139.192 147.225 138.92 146.249 138.376C145.273 137.816 144.505 137.032 143.945 136.024C143.401 135 143.129 133.808 143.129 132.448C143.129 131.088 143.401 129.896 143.945 128.872C144.489 127.848 145.249 127.064 146.225 126.52C147.201 125.976 148.313 125.704 149.561 125.704C150.809 125.704 151.897 125.976 152.825 126.52C153.769 127.064 154.489 127.8 154.985 128.728C155.497 129.64 155.753 130.656 155.753 131.776ZM154.049 131.728C154.065 130.752 153.865 129.92 153.449 129.232C153.049 128.544 152.497 128.024 151.793 127.672C151.089 127.32 150.321 127.144 149.489 127.144C148.241 127.144 147.177 127.544 146.297 128.344C145.417 129.144 144.929 130.272 144.833 131.728H154.049ZM158.058 132.448C158.058 131.088 158.33 129.904 158.874 128.896C159.418 127.872 160.17 127.088 161.13 126.544C162.09 125.984 163.186 125.704 164.418 125.704C166.034 125.704 167.362 126.104 168.402 126.904C169.458 127.704 170.138 128.792 170.442 130.168H168.642C168.418 129.224 167.93 128.488 167.178 127.96C166.442 127.416 165.522 127.144 164.418 127.144C163.538 127.144 162.746 127.344 162.042 127.744C161.338 128.144 160.778 128.744 160.362 129.544C159.962 130.328 159.762 131.296 159.762 132.448C159.762 133.6 159.962 134.576 160.362 135.376C160.778 136.176 161.338 136.776 162.042 137.176C162.746 137.576 163.538 137.776 164.418 137.776C165.522 137.776 166.442 137.512 167.178 136.984C167.93 136.44 168.418 135.688 168.642 134.728H170.442C170.138 136.072 169.458 137.152 168.402 137.968C167.346 138.784 166.018 139.192 164.418 139.192C163.186 139.192 162.09 138.92 161.13 138.376C160.17 137.816 159.418 137.032 158.874 136.024C158.33 135 158.058 133.808 158.058 132.448ZM185.401 131.776C185.401 132.352 185.385 132.792 185.353 133.096H174.481C174.529 134.088 174.769 134.936 175.201 135.64C175.633 136.344 176.201 136.88 176.905 137.248C177.609 137.6 178.377 137.776 179.209 137.776C180.297 137.776 181.209 137.512 181.945 136.984C182.697 136.456 183.193 135.744 183.433 134.848H185.209C184.889 136.128 184.201 137.176 183.145 137.992C182.105 138.792 180.793 139.192 179.209 139.192C177.977 139.192 176.873 138.92 175.897 138.376C174.921 137.816 174.153 137.032 173.593 136.024C173.049 135 172.777 133.808 172.777 132.448C172.777 131.088 173.049 129.896 173.593 128.872C174.137 127.848 174.897 127.064 175.873 126.52C176.849 125.976 177.961 125.704 179.209 125.704C180.457 125.704 181.545 125.976 182.473 126.52C183.417 127.064 184.137 127.8 184.633 128.728C185.145 129.64 185.401 130.656 185.401 131.776ZM183.697 131.728C183.713 130.752 183.513 129.92 183.097 129.232C182.697 128.544 182.145 128.024 181.441 127.672C180.737 127.32 179.969 127.144 179.137 127.144C177.889 127.144 176.825 127.544 175.945 128.344C175.065 129.144 174.577 130.272 174.481 131.728H183.697ZM194.619 125.656C196.187 125.656 197.467 126.144 198.459 127.12C199.451 128.08 199.947 129.48 199.947 131.32V139H198.291V131.512C198.291 130.088 197.931 129 197.211 128.248C196.507 127.496 195.539 127.12 194.307 127.12C193.043 127.12 192.035 127.52 191.283 128.32C190.531 129.12 190.155 130.296 190.155 131.848V139H188.475V125.896H190.155V128.128C190.571 127.328 191.171 126.72 191.955 126.304C192.739 125.872 193.627 125.656 194.619 125.656ZM205.846 127.312V135.448C205.846 136.248 205.998 136.8 206.302 137.104C206.606 137.408 207.142 137.56 207.91 137.56H209.446V139H207.646C206.462 139 205.582 138.728 205.006 138.184C204.43 137.624 204.142 136.712 204.142 135.448V127.312H202.318V125.896H204.142V122.608H205.846V125.896H209.446V127.312H205.846ZM213.897 128.224C214.265 127.408 214.825 126.776 215.577 126.328C216.345 125.88 217.281 125.656 218.385 125.656V127.408H217.929C216.713 127.408 215.737 127.736 215.001 128.392C214.265 129.048 213.897 130.144 213.897 131.68V139H212.217V125.896H213.897V128.224ZM220.144 132.424C220.144 131.08 220.408 129.904 220.936 128.896C221.48 127.872 222.224 127.088 223.168 126.544C224.128 125.984 225.208 125.704 226.408 125.704C227.656 125.704 228.728 125.992 229.624 126.568C230.536 127.144 231.192 127.88 231.592 128.776V125.896H233.272V139H231.592V136.096C231.176 136.992 230.512 137.736 229.6 138.328C228.704 138.904 227.632 139.192 226.384 139.192C225.2 139.192 224.128 138.912 223.168 138.352C222.224 137.792 221.48 137 220.936 135.976C220.408 134.952 220.144 133.768 220.144 132.424ZM231.592 132.448C231.592 131.392 231.376 130.464 230.944 129.664C230.512 128.864 229.92 128.248 229.168 127.816C228.432 127.384 227.616 127.168 226.72 127.168C225.792 127.168 224.96 127.376 224.224 127.792C223.488 128.208 222.904 128.816 222.472 129.616C222.056 130.4 221.848 131.336 221.848 132.424C221.848 133.496 222.056 134.44 222.472 135.256C222.904 136.056 223.488 136.672 224.224 137.104C224.96 137.52 225.792 137.728 226.72 137.728C227.616 137.728 228.432 137.512 229.168 137.08C229.92 136.648 230.512 136.032 230.944 135.232C231.376 134.432 231.592 133.504 231.592 132.448ZM238.788 121.24V139H237.108V121.24H238.788ZM243.432 123.424C243.096 123.424 242.808 123.304 242.568 123.064C242.328 122.824 242.208 122.528 242.208 122.176C242.208 121.824 242.328 121.536 242.568 121.312C242.808 121.072 243.096 120.952 243.432 120.952C243.768 120.952 244.056 121.072 244.296 121.312C244.536 121.536 244.656 121.824 244.656 122.176C244.656 122.528 244.536 122.824 244.296 123.064C244.056 123.304 243.768 123.424 243.432 123.424ZM244.272 125.896V139H242.592V125.896H244.272ZM248.964 137.608H255.828V139H247.044V137.608L253.788 127.288H247.164V125.896H255.708V127.288L248.964 137.608ZM270.526 131.776C270.526 132.352 270.51 132.792 270.478 133.096H259.606C259.654 134.088 259.894 134.936 260.326 135.64C260.758 136.344 261.326 136.88 262.03 137.248C262.734 137.6 263.502 137.776 264.334 137.776C265.422 137.776 266.334 137.512 267.07 136.984C267.822 136.456 268.318 135.744 268.558 134.848H270.334C270.014 136.128 269.326 137.176 268.27 137.992C267.23 138.792 265.918 139.192 264.334 139.192C263.102 139.192 261.998 138.92 261.022 138.376C260.046 137.816 259.278 137.032 258.718 136.024C258.174 135 257.902 133.808 257.902 132.448C257.902 131.088 258.174 129.896 258.718 128.872C259.262 127.848 260.022 127.064 260.998 126.52C261.974 125.976 263.086 125.704 264.334 125.704C265.582 125.704 266.67 125.976 267.598 126.52C268.542 127.064 269.262 127.8 269.758 128.728C270.27 129.64 270.526 130.656 270.526 131.776ZM268.822 131.728C268.838 130.752 268.638 129.92 268.222 129.232C267.822 128.544 267.27 128.024 266.566 127.672C265.862 127.32 265.094 127.144 264.262 127.144C263.014 127.144 261.95 127.544 261.07 128.344C260.19 129.144 259.702 130.272 259.606 131.728H268.822ZM272.832 132.424C272.832 131.08 273.104 129.904 273.648 128.896C274.192 127.872 274.936 127.088 275.88 126.544C276.84 125.984 277.92 125.704 279.12 125.704C280.272 125.704 281.312 125.984 282.24 126.544C283.168 127.104 283.848 127.832 284.28 128.728V121.24H285.96V139H284.28V136.072C283.88 136.984 283.224 137.736 282.312 138.328C281.4 138.904 280.328 139.192 279.096 139.192C277.896 139.192 276.816 138.912 275.856 138.352C274.912 137.792 274.168 137 273.624 135.976C273.096 134.952 272.832 133.768 272.832 132.424ZM284.28 132.448C284.28 131.392 284.064 130.464 283.632 129.664C283.2 128.864 282.608 128.248 281.856 127.816C281.12 127.384 280.304 127.168 279.408 127.168C278.48 127.168 277.648 127.376 276.912 127.792C276.176 128.208 275.592 128.816 275.16 129.616C274.744 130.4 274.536 131.336 274.536 132.424C274.536 133.496 274.744 134.44 275.16 135.256C275.592 136.056 276.176 136.672 276.912 137.104C277.648 137.52 278.48 137.728 279.408 137.728C280.304 137.728 281.12 137.512 281.856 137.08C282.608 136.648 283.2 136.032 283.632 135.232C284.064 134.432 284.28 133.504 284.28 132.448ZM300.893 139.192C299.389 139.192 298.157 138.848 297.197 138.16C296.253 137.456 295.725 136.504 295.613 135.304H297.341C297.421 136.04 297.765 136.64 298.373 137.104C298.997 137.552 299.829 137.776 300.869 137.776C301.781 137.776 302.493 137.56 303.005 137.128C303.533 136.696 303.797 136.16 303.797 135.52C303.797 135.072 303.653 134.704 303.365 134.416C303.077 134.128 302.709 133.904 302.261 133.744C301.829 133.568 301.237 133.384 300.485 133.192C299.509 132.936 298.717 132.68 298.109 132.424C297.501 132.168 296.981 131.792 296.549 131.296C296.133 130.784 295.925 130.104 295.925 129.256C295.925 128.616 296.117 128.024 296.501 127.48C296.885 126.936 297.429 126.504 298.133 126.184C298.837 125.864 299.637 125.704 300.533 125.704C301.941 125.704 303.077 126.064 303.941 126.784C304.805 127.488 305.269 128.464 305.333 129.712H303.653C303.605 128.944 303.301 128.328 302.741 127.864C302.197 127.384 301.445 127.144 300.485 127.144C299.637 127.144 298.949 127.344 298.421 127.744C297.893 128.144 297.629 128.64 297.629 129.232C297.629 129.744 297.781 130.168 298.085 130.504C298.405 130.824 298.797 131.08 299.261 131.272C299.725 131.448 300.349 131.648 301.133 131.872C302.077 132.128 302.829 132.376 303.389 132.616C303.949 132.856 304.429 133.208 304.829 133.672C305.229 134.136 305.437 134.752 305.453 135.52C305.453 136.224 305.261 136.856 304.877 137.416C304.493 137.96 303.957 138.392 303.269 138.712C302.581 139.032 301.789 139.192 300.893 139.192ZM314.351 139.192C313.119 139.192 312.007 138.92 311.015 138.376C310.039 137.816 309.263 137.032 308.687 136.024C308.127 135 307.847 133.808 307.847 132.448C307.847 131.088 308.135 129.904 308.711 128.896C309.287 127.872 310.071 127.088 311.063 126.544C312.055 125.984 313.167 125.704 314.399 125.704C315.631 125.704 316.743 125.984 317.735 126.544C318.743 127.088 319.527 127.872 320.087 128.896C320.663 129.904 320.951 131.088 320.951 132.448C320.951 133.792 320.663 134.976 320.087 136C319.511 137.024 318.719 137.816 317.711 138.376C316.703 138.92 315.583 139.192 314.351 139.192ZM314.351 137.728C315.215 137.728 316.015 137.536 316.751 137.152C317.487 136.752 318.079 136.16 318.527 135.376C318.991 134.576 319.223 133.6 319.223 132.448C319.223 131.296 318.999 130.328 318.551 129.544C318.103 128.744 317.511 128.152 316.775 127.768C316.039 127.368 315.239 127.168 314.375 127.168C313.511 127.168 312.711 127.368 311.975 127.768C311.239 128.152 310.647 128.744 310.199 129.544C309.767 130.328 309.551 131.296 309.551 132.448C309.551 133.6 309.767 134.576 310.199 135.376C310.647 136.16 311.231 136.752 311.951 137.152C312.687 137.536 313.487 137.728 314.351 137.728ZM323.246 132.448C323.246 131.088 323.518 129.904 324.062 128.896C324.606 127.872 325.358 127.088 326.318 126.544C327.278 125.984 328.374 125.704 329.606 125.704C331.222 125.704 332.55 126.104 333.59 126.904C334.646 127.704 335.326 128.792 335.63 130.168H333.83C333.606 129.224 333.118 128.488 332.366 127.96C331.63 127.416 330.71 127.144 329.606 127.144C328.726 127.144 327.934 127.344 327.23 127.744C326.526 128.144 325.966 128.744 325.55 129.544C325.15 130.328 324.95 131.296 324.95 132.448C324.95 133.6 325.15 134.576 325.55 135.376C325.966 136.176 326.526 136.776 327.23 137.176C327.934 137.576 328.726 137.776 329.606 137.776C330.71 137.776 331.63 137.512 332.366 136.984C333.118 136.44 333.606 135.688 333.83 134.728H335.63C335.326 136.072 334.646 137.152 333.59 137.968C332.534 138.784 331.206 139.192 329.606 139.192C328.374 139.192 327.278 138.92 326.318 138.376C325.358 137.816 324.606 137.032 324.062 136.024C323.518 135 323.246 133.808 323.246 132.448ZM339.573 123.424C339.237 123.424 338.949 123.304 338.709 123.064C338.469 122.824 338.349 122.528 338.349 122.176C338.349 121.824 338.469 121.536 338.709 121.312C338.949 121.072 339.237 120.952 339.573 120.952C339.909 120.952 340.197 121.072 340.437 121.312C340.677 121.536 340.797 121.824 340.797 122.176C340.797 122.528 340.677 122.824 340.437 123.064C340.197 123.304 339.909 123.424 339.573 123.424ZM340.413 125.896V139H338.733V125.896H340.413ZM343.449 132.424C343.449 131.08 343.713 129.904 344.241 128.896C344.785 127.872 345.529 127.088 346.473 126.544C347.433 125.984 348.513 125.704 349.713 125.704C350.961 125.704 352.033 125.992 352.929 126.568C353.841 127.144 354.497 127.88 354.897 128.776V125.896H356.577V139H354.897V136.096C354.481 136.992 353.817 137.736 352.905 138.328C352.009 138.904 350.937 139.192 349.689 139.192C348.505 139.192 347.433 138.912 346.473 138.352C345.529 137.792 344.785 137 344.241 135.976C343.713 134.952 343.449 133.768 343.449 132.424ZM354.897 132.448C354.897 131.392 354.681 130.464 354.249 129.664C353.817 128.864 353.225 128.248 352.473 127.816C351.737 127.384 350.921 127.168 350.025 127.168C349.097 127.168 348.265 127.376 347.529 127.792C346.793 128.208 346.209 128.816 345.777 129.616C345.361 130.4 345.153 131.336 345.153 132.424C345.153 133.496 345.361 134.44 345.777 135.256C346.209 136.056 346.793 136.672 347.529 137.104C348.265 137.52 349.097 137.728 350.025 137.728C350.921 137.728 351.737 137.512 352.473 137.08C353.225 136.648 353.817 136.032 354.249 135.232C354.681 134.432 354.897 133.504 354.897 132.448ZM362.092 121.24V139H360.412V121.24H362.092ZM378.627 125.656C380.195 125.656 381.475 126.144 382.467 127.12C383.459 128.08 383.955 129.48 383.955 131.32V139H382.299V131.512C382.299 130.088 381.939 129 381.219 128.248C380.515 127.496 379.547 127.12 378.315 127.12C377.051 127.12 376.043 127.52 375.291 128.32C374.539 129.12 374.163 130.296 374.163 131.848V139H372.483V125.896H374.163V128.128C374.579 127.328 375.179 126.72 375.963 126.304C376.747 125.872 377.635 125.656 378.627 125.656ZM399.526 131.776C399.526 132.352 399.51 132.792 399.478 133.096H388.606C388.654 134.088 388.894 134.936 389.326 135.64C389.758 136.344 390.326 136.88 391.03 137.248C391.734 137.6 392.502 137.776 393.334 137.776C394.422 137.776 395.334 137.512 396.07 136.984C396.822 136.456 397.318 135.744 397.558 134.848H399.334C399.014 136.128 398.326 137.176 397.27 137.992C396.23 138.792 394.918 139.192 393.334 139.192C392.102 139.192 390.998 138.92 390.022 138.376C389.046 137.816 388.278 137.032 387.718 136.024C387.174 135 386.902 133.808 386.902 132.448C386.902 131.088 387.174 129.896 387.718 128.872C388.262 127.848 389.022 127.064 389.998 126.52C390.974 125.976 392.086 125.704 393.334 125.704C394.582 125.704 395.67 125.976 396.598 126.52C397.542 127.064 398.262 127.8 398.758 128.728C399.27 129.64 399.526 130.656 399.526 131.776ZM397.822 131.728C397.838 130.752 397.638 129.92 397.222 129.232C396.822 128.544 396.27 128.024 395.566 127.672C394.862 127.32 394.094 127.144 393.262 127.144C392.014 127.144 390.95 127.544 390.07 128.344C389.19 129.144 388.702 130.272 388.606 131.728H397.822ZM404.784 127.312V135.448C404.784 136.248 404.936 136.8 405.24 137.104C405.544 137.408 406.08 137.56 406.848 137.56H408.384V139H406.584C405.4 139 404.52 138.728 403.944 138.184C403.368 137.624 403.08 136.712 403.08 135.448V127.312H401.256V125.896H403.08V122.608H404.784V125.896H408.384V127.312H404.784ZM428.434 125.896L424.33 139H422.65L419.026 128.008L415.402 139H413.698L409.594 125.896H411.298L414.562 137.296L418.234 125.896H419.914L423.538 137.32L426.778 125.896H428.434ZM436.461 139.192C435.229 139.192 434.117 138.92 433.125 138.376C432.149 137.816 431.373 137.032 430.797 136.024C430.237 135 429.957 133.808 429.957 132.448C429.957 131.088 430.245 129.904 430.821 128.896C431.397 127.872 432.181 127.088 433.173 126.544C434.165 125.984 435.277 125.704 436.509 125.704C437.741 125.704 438.853 125.984 439.845 126.544C440.853 127.088 441.637 127.872 442.197 128.896C442.773 129.904 443.061 131.088 443.061 132.448C443.061 133.792 442.773 134.976 442.197 136C441.621 137.024 440.829 137.816 439.821 138.376C438.813 138.92 437.693 139.192 436.461 139.192ZM436.461 137.728C437.325 137.728 438.125 137.536 438.861 137.152C439.597 136.752 440.189 136.16 440.637 135.376C441.101 134.576 441.333 133.6 441.333 132.448C441.333 131.296 441.109 130.328 440.661 129.544C440.213 128.744 439.621 128.152 438.885 127.768C438.149 127.368 437.349 127.168 436.485 127.168C435.621 127.168 434.821 127.368 434.085 127.768C433.349 128.152 432.757 128.744 432.309 129.544C431.877 130.328 431.661 131.296 431.661 132.448C431.661 133.6 431.877 134.576 432.309 135.376C432.757 136.16 433.341 136.752 434.061 137.152C434.797 137.536 435.597 137.728 436.461 137.728ZM447.803 128.224C448.171 127.408 448.731 126.776 449.483 126.328C450.251 125.88 451.187 125.656 452.291 125.656V127.408H451.835C450.619 127.408 449.643 127.736 448.907 128.392C448.171 129.048 447.803 130.144 447.803 131.68V139H446.123V125.896H447.803V128.224ZM461.898 139L456.498 133.12V139H454.818V121.24H456.498V131.752L461.778 125.896H464.13L457.914 132.424L464.178 139H461.898ZM467.19 123.424C466.854 123.424 466.566 123.304 466.326 123.064C466.086 122.824 465.966 122.528 465.966 122.176C465.966 121.824 466.086 121.536 466.326 121.312C466.566 121.072 466.854 120.952 467.19 120.952C467.526 120.952 467.814 121.072 468.054 121.312C468.294 121.536 468.414 121.824 468.414 122.176C468.414 122.528 468.294 122.824 468.054 123.064C467.814 123.304 467.526 123.424 467.19 123.424ZM468.03 125.896V139H466.35V125.896H468.03ZM477.978 125.656C479.546 125.656 480.826 126.144 481.818 127.12C482.81 128.08 483.306 129.48 483.306 131.32V139H481.65V131.512C481.65 130.088 481.29 129 480.57 128.248C479.866 127.496 478.898 127.12 477.666 127.12C476.402 127.12 475.394 127.52 474.642 128.32C473.89 129.12 473.514 130.296 473.514 131.848V139H471.834V125.896H473.514V128.128C473.93 127.328 474.53 126.72 475.314 126.304C476.098 125.872 476.986 125.656 477.978 125.656ZM492.518 125.704C493.75 125.704 494.822 125.992 495.734 126.568C496.646 127.144 497.302 127.872 497.702 128.752V125.896H499.382V139.336C499.382 140.536 499.118 141.6 498.59 142.528C498.078 143.456 497.358 144.168 496.43 144.664C495.502 145.176 494.446 145.432 493.262 145.432C491.582 145.432 490.182 145.032 489.062 144.232C487.958 143.432 487.27 142.344 486.998 140.968H488.654C488.942 141.88 489.486 142.608 490.286 143.152C491.102 143.696 492.094 143.968 493.262 143.968C494.11 143.968 494.87 143.784 495.542 143.416C496.214 143.064 496.742 142.536 497.126 141.832C497.51 141.128 497.702 140.296 497.702 139.336V136.096C497.286 136.992 496.622 137.736 495.71 138.328C494.814 138.904 493.75 139.192 492.518 139.192C491.318 139.192 490.238 138.912 489.278 138.352C488.334 137.792 487.59 137 487.046 135.976C486.518 134.952 486.254 133.768 486.254 132.424C486.254 131.08 486.518 129.904 487.046 128.896C487.59 127.872 488.334 127.088 489.278 126.544C490.238 125.984 491.318 125.704 492.518 125.704ZM497.702 132.448C497.702 131.392 497.486 130.464 497.054 129.664C496.622 128.864 496.03 128.248 495.278 127.816C494.542 127.384 493.726 127.168 492.83 127.168C491.902 127.168 491.07 127.376 490.334 127.792C489.598 128.208 489.014 128.816 488.582 129.616C488.166 130.4 487.958 131.336 487.958 132.424C487.958 133.496 488.166 134.44 488.582 135.256C489.014 136.056 489.598 136.672 490.334 137.104C491.07 137.52 491.902 137.728 492.83 137.728C493.726 137.728 494.542 137.512 495.278 137.08C496.03 136.648 496.622 136.032 497.054 135.232C497.486 134.432 497.702 133.504 497.702 132.448ZM4.576 164.776C4.992 163.896 5.648 163.168 6.544 162.592C7.456 162 8.536 161.704 9.784 161.704C10.968 161.704 12.032 161.984 12.976 162.544C13.936 163.088 14.68 163.872 15.208 164.896C15.752 165.904 16.024 167.08 16.024 168.424C16.024 169.768 15.752 170.952 15.208 171.976C14.68 173 13.936 173.792 12.976 174.352C12.032 174.912 10.968 175.192 9.784 175.192C8.552 175.192 7.48 174.904 6.568 174.328C5.656 173.736 4.992 173 4.576 172.12V181.192H2.92V161.896H4.576V164.776ZM14.32 168.424C14.32 167.336 14.104 166.4 13.672 165.616C13.256 164.816 12.68 164.208 11.944 163.792C11.208 163.376 10.376 163.168 9.448 163.168C8.552 163.168 7.728 163.384 6.976 163.816C6.24 164.248 5.656 164.864 5.224 165.664C4.792 166.464 4.576 167.392 4.576 168.448C4.576 169.504 4.792 170.432 5.224 171.232C5.656 172.032 6.24 172.648 6.976 173.08C7.728 173.512 8.552 173.728 9.448 173.728C10.376 173.728 11.208 173.52 11.944 173.104C12.68 172.672 13.256 172.056 13.672 171.256C14.104 170.44 14.32 169.496 14.32 168.424ZM20.7953 164.224C21.1633 163.408 21.7233 162.776 22.4753 162.328C23.2433 161.88 24.1793 161.656 25.2833 161.656V163.408H24.8273C23.6113 163.408 22.6353 163.736 21.8993 164.392C21.1633 165.048 20.7953 166.144 20.7953 167.68V175H19.1153V161.896H20.7953V164.224ZM33.5466 175.192C32.3146 175.192 31.2026 174.92 30.2106 174.376C29.2346 173.816 28.4586 173.032 27.8826 172.024C27.3226 171 27.0426 169.808 27.0426 168.448C27.0426 167.088 27.3306 165.904 27.9066 164.896C28.4826 163.872 29.2666 163.088 30.2586 162.544C31.2506 161.984 32.3626 161.704 33.5946 161.704C34.8266 161.704 35.9386 161.984 36.9306 162.544C37.9386 163.088 38.7226 163.872 39.2826 164.896C39.8586 165.904 40.1466 167.088 40.1466 168.448C40.1466 169.792 39.8586 170.976 39.2826 172C38.7066 173.024 37.9146 173.816 36.9066 174.376C35.8986 174.92 34.7786 175.192 33.5466 175.192ZM33.5466 173.728C34.4106 173.728 35.2106 173.536 35.9466 173.152C36.6826 172.752 37.2746 172.16 37.7226 171.376C38.1866 170.576 38.4186 169.6 38.4186 168.448C38.4186 167.296 38.1946 166.328 37.7466 165.544C37.2986 164.744 36.7066 164.152 35.9706 163.768C35.2346 163.368 34.4346 163.168 33.5706 163.168C32.7066 163.168 31.9066 163.368 31.1706 163.768C30.4346 164.152 29.8426 164.744 29.3946 165.544C28.9626 166.328 28.7466 167.296 28.7466 168.448C28.7466 169.6 28.9626 170.576 29.3946 171.376C29.8426 172.16 30.4266 172.752 31.1466 173.152C31.8826 173.536 32.6826 173.728 33.5466 173.728ZM45.3931 163.312V171.448C45.3931 172.248 45.5451 172.8 45.8491 173.104C46.1531 173.408 46.6891 173.56 47.4571 173.56H48.9931V175H47.1931C46.0091 175 45.1291 174.728 44.5531 174.184C43.9771 173.624 43.6891 172.712 43.6891 171.448V163.312H41.8651V161.896H43.6891V158.608H45.3931V161.896H48.9931V163.312H45.3931ZM57.4998 175.192C56.2678 175.192 55.1558 174.92 54.1638 174.376C53.1878 173.816 52.4118 173.032 51.8358 172.024C51.2758 171 50.9958 169.808 50.9958 168.448C50.9958 167.088 51.2838 165.904 51.8598 164.896C52.4358 163.872 53.2198 163.088 54.2118 162.544C55.2038 161.984 56.3158 161.704 57.5478 161.704C58.7798 161.704 59.8918 161.984 60.8838 162.544C61.8918 163.088 62.6758 163.872 63.2358 164.896C63.8118 165.904 64.0998 167.088 64.0998 168.448C64.0998 169.792 63.8118 170.976 63.2358 172C62.6598 173.024 61.8678 173.816 60.8598 174.376C59.8518 174.92 58.7318 175.192 57.4998 175.192ZM57.4998 173.728C58.3638 173.728 59.1638 173.536 59.8998 173.152C60.6358 172.752 61.2278 172.16 61.6758 171.376C62.1398 170.576 62.3718 169.6 62.3718 168.448C62.3718 167.296 62.1478 166.328 61.6998 165.544C61.2518 164.744 60.6598 164.152 59.9238 163.768C59.1878 163.368 58.3878 163.168 57.5238 163.168C56.6598 163.168 55.8598 163.368 55.1238 163.768C54.3878 164.152 53.7958 164.744 53.3478 165.544C52.9158 166.328 52.6998 167.296 52.6998 168.448C52.6998 169.6 52.9158 170.576 53.3478 171.376C53.7958 172.16 54.3798 172.752 55.0998 173.152C55.8358 173.536 56.6358 173.728 57.4998 173.728ZM66.3942 168.448C66.3942 167.088 66.6662 165.904 67.2102 164.896C67.7542 163.872 68.5062 163.088 69.4662 162.544C70.4262 161.984 71.5222 161.704 72.7542 161.704C74.3702 161.704 75.6982 162.104 76.7382 162.904C77.7942 163.704 78.4742 164.792 78.7782 166.168H76.9782C76.7542 165.224 76.2662 164.488 75.5142 163.96C74.7782 163.416 73.8582 163.144 72.7542 163.144C71.8742 163.144 71.0822 163.344 70.3782 163.744C69.6742 164.144 69.1142 164.744 68.6982 165.544C68.2982 166.328 68.0982 167.296 68.0982 168.448C68.0982 169.6 68.2982 170.576 68.6982 171.376C69.1142 172.176 69.6742 172.776 70.3782 173.176C71.0822 173.576 71.8742 173.776 72.7542 173.776C73.8582 173.776 74.7782 173.512 75.5142 172.984C76.2662 172.44 76.7542 171.688 76.9782 170.728H78.7782C78.4742 172.072 77.7942 173.152 76.7382 173.968C75.6822 174.784 74.3542 175.192 72.7542 175.192C71.5222 175.192 70.4262 174.92 69.4662 174.376C68.5062 173.816 67.7542 173.032 67.2102 172.024C66.6662 171 66.3942 169.808 66.3942 168.448ZM87.6169 175.192C86.3849 175.192 85.2729 174.92 84.2809 174.376C83.3049 173.816 82.5289 173.032 81.9529 172.024C81.3929 171 81.1129 169.808 81.1129 168.448C81.1129 167.088 81.4009 165.904 81.9769 164.896C82.5529 163.872 83.3369 163.088 84.3289 162.544C85.3209 161.984 86.4329 161.704 87.6649 161.704C88.8969 161.704 90.0089 161.984 91.0009 162.544C92.0089 163.088 92.7929 163.872 93.3529 164.896C93.9289 165.904 94.2169 167.088 94.2169 168.448C94.2169 169.792 93.9289 170.976 93.3529 172C92.7769 173.024 91.9849 173.816 90.9769 174.376C89.9689 174.92 88.8489 175.192 87.6169 175.192ZM87.6169 173.728C88.4809 173.728 89.2809 173.536 90.0169 173.152C90.7529 172.752 91.3449 172.16 91.7929 171.376C92.2569 170.576 92.4889 169.6 92.4889 168.448C92.4889 167.296 92.2649 166.328 91.8169 165.544C91.3689 164.744 90.7769 164.152 90.0409 163.768C89.3049 163.368 88.5049 163.168 87.6409 163.168C86.7769 163.168 85.9769 163.368 85.2409 163.768C84.5049 164.152 83.9129 164.744 83.4649 165.544C83.0329 166.328 82.8169 167.296 82.8169 168.448C82.8169 169.6 83.0329 170.576 83.4649 171.376C83.9129 172.16 84.4969 172.752 85.2169 173.152C85.9529 173.536 86.7529 173.728 87.6169 173.728ZM98.9594 157.24V175H97.2794V157.24H98.9594ZM114.51 163.312H111.462V175H109.782V163.312H107.958V161.896H109.782V160.984C109.782 159.56 110.142 158.512 110.862 157.84C111.598 157.168 112.782 156.832 114.414 156.832V158.272C113.326 158.272 112.558 158.48 112.11 158.896C111.678 159.312 111.462 160.008 111.462 160.984V161.896H114.51V163.312ZM122.89 175.192C121.658 175.192 120.546 174.92 119.554 174.376C118.578 173.816 117.802 173.032 117.226 172.024C116.666 171 116.386 169.808 116.386 168.448C116.386 167.088 116.674 165.904 117.25 164.896C117.826 163.872 118.61 163.088 119.602 162.544C120.594 161.984 121.706 161.704 122.938 161.704C124.17 161.704 125.282 161.984 126.274 162.544C127.282 163.088 128.066 163.872 128.626 164.896C129.202 165.904 129.49 167.088 129.49 168.448C129.49 169.792 129.202 170.976 128.626 172C128.05 173.024 127.258 173.816 126.25 174.376C125.242 174.92 124.122 175.192 122.89 175.192ZM122.89 173.728C123.754 173.728 124.554 173.536 125.29 173.152C126.026 172.752 126.618 172.16 127.066 171.376C127.53 170.576 127.762 169.6 127.762 168.448C127.762 167.296 127.538 166.328 127.09 165.544C126.642 164.744 126.05 164.152 125.314 163.768C124.578 163.368 123.778 163.168 122.914 163.168C122.05 163.168 121.25 163.368 120.514 163.768C119.778 164.152 119.186 164.744 118.738 165.544C118.306 166.328 118.09 167.296 118.09 168.448C118.09 169.6 118.306 170.576 118.738 171.376C119.186 172.16 119.77 172.752 120.49 173.152C121.226 173.536 122.026 173.728 122.89 173.728ZM134.233 164.224C134.601 163.408 135.161 162.776 135.913 162.328C136.681 161.88 137.617 161.656 138.721 161.656V163.408H138.265C137.049 163.408 136.073 163.736 135.337 164.392C134.601 165.048 134.233 166.144 134.233 167.68V175H132.553V161.896H134.233V164.224ZM150.018 163.312V171.448C150.018 172.248 150.17 172.8 150.474 173.104C150.778 173.408 151.314 173.56 152.082 173.56H153.618V175H151.818C150.634 175 149.754 174.728 149.178 174.184C148.602 173.624 148.314 172.712 148.314 171.448V163.312H146.49V161.896H148.314V158.608H150.018V161.896H153.618V163.312H150.018ZM162.629 161.656C163.621 161.656 164.509 161.864 165.293 162.28C166.093 162.696 166.717 163.336 167.165 164.2C167.629 165.048 167.861 166.088 167.861 167.32V175H166.205V167.512C166.205 166.088 165.845 165 165.125 164.248C164.421 163.496 163.453 163.12 162.221 163.12C160.957 163.12 159.949 163.52 159.197 164.32C158.445 165.12 158.069 166.296 158.069 167.848V175H156.389V157.24H158.069V164.128C158.485 163.344 159.093 162.736 159.893 162.304C160.709 161.872 161.621 161.656 162.629 161.656ZM183.432 167.776C183.432 168.352 183.416 168.792 183.384 169.096H172.512C172.56 170.088 172.8 170.936 173.232 171.64C173.664 172.344 174.232 172.88 174.936 173.248C175.64 173.6 176.408 173.776 177.24 173.776C178.328 173.776 179.24 173.512 179.976 172.984C180.728 172.456 181.224 171.744 181.464 170.848H183.24C182.92 172.128 182.232 173.176 181.176 173.992C180.136 174.792 178.824 175.192 177.24 175.192C176.008 175.192 174.904 174.92 173.928 174.376C172.952 173.816 172.184 173.032 171.624 172.024C171.08 171 170.808 169.808 170.808 168.448C170.808 167.088 171.08 165.896 171.624 164.872C172.168 163.848 172.928 163.064 173.904 162.52C174.88 161.976 175.992 161.704 177.24 161.704C178.488 161.704 179.576 161.976 180.504 162.52C181.448 163.064 182.168 163.8 182.664 164.728C183.176 165.64 183.432 166.656 183.432 167.776ZM181.728 167.728C181.744 166.752 181.544 165.92 181.128 165.232C180.728 164.544 180.176 164.024 179.472 163.672C178.768 163.32 178 163.144 177.168 163.144C175.92 163.144 174.856 163.544 173.976 164.344C173.096 165.144 172.608 166.272 172.512 167.728H181.728ZM194.748 164.8C195.18 163.888 195.844 163.144 196.74 162.568C197.652 161.992 198.724 161.704 199.956 161.704C201.156 161.704 202.228 161.984 203.172 162.544C204.116 163.088 204.852 163.872 205.38 164.896C205.924 165.904 206.196 167.08 206.196 168.424C206.196 169.768 205.924 170.952 205.38 171.976C204.852 173 204.108 173.792 203.148 174.352C202.204 174.912 201.14 175.192 199.956 175.192C198.708 175.192 197.628 174.912 196.716 174.352C195.82 173.776 195.164 173.032 194.748 172.12V175H193.092V157.24H194.748V164.8ZM204.492 168.424C204.492 167.336 204.276 166.4 203.844 165.616C203.428 164.816 202.852 164.208 202.116 163.792C201.38 163.376 200.548 163.168 199.62 163.168C198.724 163.168 197.9 163.384 197.148 163.816C196.412 164.248 195.828 164.864 195.396 165.664C194.964 166.464 194.748 167.392 194.748 168.448C194.748 169.504 194.964 170.432 195.396 171.232C195.828 172.032 196.412 172.648 197.148 173.08C197.9 173.512 198.724 173.728 199.62 173.728C200.548 173.728 201.38 173.52 202.116 173.104C202.852 172.672 203.428 172.056 203.844 171.256C204.276 170.44 204.492 169.496 204.492 168.424ZM220.639 161.896V175H218.959V172.696C218.575 173.512 217.983 174.136 217.183 174.568C216.383 175 215.487 175.216 214.495 175.216C212.927 175.216 211.647 174.736 210.655 173.776C209.663 172.8 209.167 171.392 209.167 169.552V161.896H210.823V169.36C210.823 170.784 211.175 171.872 211.879 172.624C212.599 173.376 213.575 173.752 214.807 173.752C216.071 173.752 217.079 173.352 217.831 172.552C218.583 171.752 218.959 170.576 218.959 169.024V161.896H220.639ZM235.275 161.896L227.499 181.168H225.747L228.291 174.928L222.915 161.896H224.763L229.227 173.08L233.547 161.896H235.275ZM249.409 167.776C249.409 168.352 249.393 168.792 249.361 169.096H238.489C238.537 170.088 238.777 170.936 239.209 171.64C239.641 172.344 240.209 172.88 240.913 173.248C241.617 173.6 242.385 173.776 243.217 173.776C244.305 173.776 245.217 173.512 245.953 172.984C246.705 172.456 247.201 171.744 247.441 170.848H249.217C248.897 172.128 248.209 173.176 247.153 173.992C246.113 174.792 244.801 175.192 243.217 175.192C241.985 175.192 240.881 174.92 239.905 174.376C238.929 173.816 238.161 173.032 237.601 172.024C237.057 171 236.785 169.808 236.785 168.448C236.785 167.088 237.057 165.896 237.601 164.872C238.145 163.848 238.905 163.064 239.881 162.52C240.857 161.976 241.969 161.704 243.217 161.704C244.465 161.704 245.553 161.976 246.481 162.52C247.425 163.064 248.145 163.8 248.641 164.728C249.153 165.64 249.409 166.656 249.409 167.776ZM247.705 167.728C247.721 166.752 247.521 165.92 247.105 165.232C246.705 164.544 246.153 164.024 245.449 163.672C244.745 163.32 243.977 163.144 243.145 163.144C241.897 163.144 240.833 163.544 239.953 164.344C239.073 165.144 238.585 166.272 238.489 167.728H247.705ZM254.163 164.224C254.531 163.408 255.091 162.776 255.843 162.328C256.611 161.88 257.547 161.656 258.651 161.656V163.408H258.195C256.979 163.408 256.003 163.736 255.267 164.392C254.531 165.048 254.163 166.144 254.163 167.68V175H252.483V161.896H254.163V164.224ZM261.898 155.92L261.61 160.552H260.434L260.146 155.92H261.898ZM269.229 175.192C267.725 175.192 266.493 174.848 265.533 174.16C264.589 173.456 264.061 172.504 263.949 171.304H265.677C265.757 172.04 266.101 172.64 266.709 173.104C267.333 173.552 268.165 173.776 269.205 173.776C270.117 173.776 270.829 173.56 271.341 173.128C271.869 172.696 272.133 172.16 272.133 171.52C272.133 171.072 271.989 170.704 271.701 170.416C271.413 170.128 271.045 169.904 270.597 169.744C270.165 169.568 269.573 169.384 268.821 169.192C267.845 168.936 267.053 168.68 266.445 168.424C265.837 168.168 265.317 167.792 264.885 167.296C264.469 166.784 264.261 166.104 264.261 165.256C264.261 164.616 264.453 164.024 264.837 163.48C265.221 162.936 265.765 162.504 266.469 162.184C267.173 161.864 267.973 161.704 268.869 161.704C270.277 161.704 271.413 162.064 272.277 162.784C273.141 163.488 273.605 164.464 273.669 165.712H271.989C271.941 164.944 271.637 164.328 271.077 163.864C270.533 163.384 269.781 163.144 268.821 163.144C267.973 163.144 267.285 163.344 266.757 163.744C266.229 164.144 265.965 164.64 265.965 165.232C265.965 165.744 266.117 166.168 266.421 166.504C266.741 166.824 267.133 167.08 267.597 167.272C268.061 167.448 268.685 167.648 269.469 167.872C270.413 168.128 271.165 168.376 271.725 168.616C272.285 168.856 272.765 169.208 273.165 169.672C273.565 170.136 273.773 170.752 273.789 171.52C273.789 172.224 273.597 172.856 273.213 173.416C272.829 173.96 272.293 174.392 271.605 174.712C270.917 175.032 270.125 175.192 269.229 175.192ZM300.817 161.896L296.713 175H295.033L291.409 164.008L287.785 175H286.081L281.977 161.896H283.681L286.945 173.296L290.617 161.896H292.297L295.921 173.32L299.161 161.896H300.817ZM309.348 161.656C310.34 161.656 311.228 161.864 312.012 162.28C312.812 162.696 313.436 163.336 313.884 164.2C314.348 165.048 314.58 166.088 314.58 167.32V175H312.924V167.512C312.924 166.088 312.564 165 311.844 164.248C311.14 163.496 310.172 163.12 308.94 163.12C307.676 163.12 306.668 163.52 305.916 164.32C305.164 165.12 304.788 166.296 304.788 167.848V175H303.108V157.24H304.788V164.128C305.204 163.344 305.812 162.736 306.612 162.304C307.428 161.872 308.34 161.656 309.348 161.656ZM324.031 175.192C322.799 175.192 321.687 174.92 320.695 174.376C319.719 173.816 318.943 173.032 318.367 172.024C317.807 171 317.527 169.808 317.527 168.448C317.527 167.088 317.815 165.904 318.391 164.896C318.967 163.872 319.751 163.088 320.743 162.544C321.735 161.984 322.847 161.704 324.079 161.704C325.311 161.704 326.423 161.984 327.415 162.544C328.423 163.088 329.207 163.872 329.767 164.896C330.343 165.904 330.631 167.088 330.631 168.448C330.631 169.792 330.343 170.976 329.767 172C329.191 173.024 328.399 173.816 327.391 174.376C326.383 174.92 325.263 175.192 324.031 175.192ZM324.031 173.728C324.895 173.728 325.695 173.536 326.431 173.152C327.167 172.752 327.759 172.16 328.207 171.376C328.671 170.576 328.903 169.6 328.903 168.448C328.903 167.296 328.679 166.328 328.231 165.544C327.783 164.744 327.191 164.152 326.455 163.768C325.719 163.368 324.919 163.168 324.055 163.168C323.191 163.168 322.391 163.368 321.655 163.768C320.919 164.152 320.327 164.744 319.879 165.544C319.447 166.328 319.231 167.296 319.231 168.448C319.231 169.6 319.447 170.576 319.879 171.376C320.327 172.16 320.911 172.752 321.631 173.152C322.367 173.536 323.167 173.728 324.031 173.728ZM339.511 168.448C339.511 167.088 339.783 165.904 340.327 164.896C340.871 163.872 341.623 163.088 342.583 162.544C343.543 161.984 344.639 161.704 345.871 161.704C347.487 161.704 348.815 162.104 349.855 162.904C350.911 163.704 351.591 164.792 351.895 166.168H350.095C349.871 165.224 349.383 164.488 348.631 163.96C347.895 163.416 346.975 163.144 345.871 163.144C344.991 163.144 344.199 163.344 343.495 163.744C342.791 164.144 342.231 164.744 341.815 165.544C341.415 166.328 341.215 167.296 341.215 168.448C341.215 169.6 341.415 170.576 341.815 171.376C342.231 172.176 342.791 172.776 343.495 173.176C344.199 173.576 344.991 173.776 345.871 173.776C346.975 173.776 347.895 173.512 348.631 172.984C349.383 172.44 349.871 171.688 350.095 170.728H351.895C351.591 172.072 350.911 173.152 349.855 173.968C348.799 174.784 347.471 175.192 345.871 175.192C344.639 175.192 343.543 174.92 342.583 174.376C341.623 173.816 340.871 173.032 340.327 172.024C339.783 171 339.511 169.808 339.511 168.448ZM354.23 168.424C354.23 167.08 354.494 165.904 355.022 164.896C355.566 163.872 356.31 163.088 357.254 162.544C358.214 161.984 359.294 161.704 360.494 161.704C361.742 161.704 362.814 161.992 363.71 162.568C364.622 163.144 365.278 163.88 365.678 164.776V161.896H367.358V175H365.678V172.096C365.262 172.992 364.598 173.736 363.686 174.328C362.79 174.904 361.718 175.192 360.47 175.192C359.286 175.192 358.214 174.912 357.254 174.352C356.31 173.792 355.566 173 355.022 171.976C354.494 170.952 354.23 169.768 354.23 168.424ZM365.678 168.448C365.678 167.392 365.462 166.464 365.03 165.664C364.598 164.864 364.006 164.248 363.254 163.816C362.518 163.384 361.702 163.168 360.806 163.168C359.878 163.168 359.046 163.376 358.31 163.792C357.574 164.208 356.99 164.816 356.558 165.616C356.142 166.4 355.934 167.336 355.934 168.424C355.934 169.496 356.142 170.44 356.558 171.256C356.99 172.056 357.574 172.672 358.31 173.104C359.046 173.52 359.878 173.728 360.806 173.728C361.702 173.728 362.518 173.512 363.254 173.08C364.006 172.648 364.598 172.032 365.03 171.232C365.462 170.432 365.678 169.504 365.678 168.448ZM377.337 161.656C378.905 161.656 380.185 162.144 381.177 163.12C382.169 164.08 382.665 165.48 382.665 167.32V175H381.009V167.512C381.009 166.088 380.649 165 379.929 164.248C379.225 163.496 378.257 163.12 377.025 163.12C375.761 163.12 374.753 163.52 374.001 164.32C373.249 165.12 372.873 166.296 372.873 167.848V175H371.193V161.896H372.873V164.128C373.289 163.328 373.889 162.72 374.673 162.304C375.457 161.872 376.345 161.656 377.337 161.656ZM394.623 164.776C395.039 163.896 395.695 163.168 396.591 162.592C397.503 162 398.583 161.704 399.831 161.704C401.015 161.704 402.079 161.984 403.023 162.544C403.983 163.088 404.727 163.872 405.255 164.896C405.799 165.904 406.071 167.08 406.071 168.424C406.071 169.768 405.799 170.952 405.255 171.976C404.727 173 403.983 173.792 403.023 174.352C402.079 174.912 401.015 175.192 399.831 175.192C398.599 175.192 397.527 174.904 396.615 174.328C395.703 173.736 395.039 173 394.623 172.12V181.192H392.967V161.896H394.623V164.776ZM404.367 168.424C404.367 167.336 404.151 166.4 403.719 165.616C403.303 164.816 402.727 164.208 401.991 163.792C401.255 163.376 400.423 163.168 399.495 163.168C398.599 163.168 397.775 163.384 397.023 163.816C396.287 164.248 395.703 164.864 395.271 165.664C394.839 166.464 394.623 167.392 394.623 168.448C394.623 169.504 394.839 170.432 395.271 171.232C395.703 172.032 396.287 172.648 397.023 173.08C397.775 173.512 398.599 173.728 399.495 173.728C400.423 173.728 401.255 173.52 401.991 173.104C402.727 172.672 403.303 172.056 403.719 171.256C404.151 170.44 404.367 169.496 404.367 168.424ZM420.514 161.896V175H418.834V172.696C418.45 173.512 417.858 174.136 417.058 174.568C416.258 175 415.362 175.216 414.37 175.216C412.802 175.216 411.522 174.736 410.53 173.776C409.538 172.8 409.042 171.392 409.042 169.552V161.896H410.698V169.36C410.698 170.784 411.05 171.872 411.754 172.624C412.474 173.376 413.45 173.752 414.682 173.752C415.946 173.752 416.954 173.352 417.706 172.552C418.458 171.752 418.834 170.576 418.834 169.024V161.896H420.514ZM426.03 164.224C426.398 163.408 426.958 162.776 427.71 162.328C428.478 161.88 429.414 161.656 430.518 161.656V163.408H430.062C428.846 163.408 427.87 163.736 427.134 164.392C426.398 165.048 426.03 166.144 426.03 167.68V175H424.35V161.896H426.03V164.224ZM432.277 168.448C432.277 167.088 432.549 165.904 433.093 164.896C433.637 163.872 434.389 163.088 435.349 162.544C436.309 161.984 437.405 161.704 438.637 161.704C440.253 161.704 441.581 162.104 442.621 162.904C443.677 163.704 444.357 164.792 444.661 166.168H442.861C442.637 165.224 442.149 164.488 441.397 163.96C440.661 163.416 439.741 163.144 438.637 163.144C437.757 163.144 436.965 163.344 436.261 163.744C435.557 164.144 434.997 164.744 434.581 165.544C434.181 166.328 433.981 167.296 433.981 168.448C433.981 169.6 434.181 170.576 434.581 171.376C434.997 172.176 435.557 172.776 436.261 173.176C436.965 173.576 437.757 173.776 438.637 173.776C439.741 173.776 440.661 173.512 441.397 172.984C442.149 172.44 442.637 171.688 442.861 170.728H444.661C444.357 172.072 443.677 173.152 442.621 173.968C441.565 174.784 440.237 175.192 438.637 175.192C437.405 175.192 436.309 174.92 435.349 174.376C434.389 173.816 433.637 173.032 433.093 172.024C432.549 171 432.277 169.808 432.277 168.448ZM454.004 161.656C454.996 161.656 455.884 161.864 456.668 162.28C457.468 162.696 458.092 163.336 458.54 164.2C459.004 165.048 459.236 166.088 459.236 167.32V175H457.58V167.512C457.58 166.088 457.22 165 456.5 164.248C455.796 163.496 454.828 163.12 453.596 163.12C452.332 163.12 451.324 163.52 450.572 164.32C449.82 165.12 449.444 166.296 449.444 167.848V175H447.764V157.24H449.444V164.128C449.86 163.344 450.468 162.736 451.268 162.304C452.084 161.872 452.996 161.656 454.004 161.656ZM462.183 168.424C462.183 167.08 462.447 165.904 462.975 164.896C463.519 163.872 464.263 163.088 465.207 162.544C466.167 161.984 467.247 161.704 468.447 161.704C469.695 161.704 470.767 161.992 471.663 162.568C472.575 163.144 473.231 163.88 473.631 164.776V161.896H475.311V175H473.631V172.096C473.215 172.992 472.551 173.736 471.639 174.328C470.743 174.904 469.671 175.192 468.423 175.192C467.239 175.192 466.167 174.912 465.207 174.352C464.263 173.792 463.519 173 462.975 171.976C462.447 170.952 462.183 169.768 462.183 168.424ZM473.631 168.448C473.631 167.392 473.415 166.464 472.983 165.664C472.551 164.864 471.959 164.248 471.207 163.816C470.471 163.384 469.655 163.168 468.759 163.168C467.831 163.168 466.999 163.376 466.263 163.792C465.527 164.208 464.943 164.816 464.511 165.616C464.095 166.4 463.887 167.336 463.887 168.424C463.887 169.496 464.095 170.44 464.511 171.256C464.943 172.056 465.527 172.672 466.263 173.104C466.999 173.52 467.831 173.728 468.759 173.728C469.655 173.728 470.471 173.512 471.207 173.08C471.959 172.648 472.551 172.032 472.983 171.232C473.415 170.432 473.631 169.504 473.631 168.448ZM483.659 175.192C482.155 175.192 480.923 174.848 479.963 174.16C479.019 173.456 478.491 172.504 478.379 171.304H480.107C480.187 172.04 480.531 172.64 481.139 173.104C481.763 173.552 482.595 173.776 483.635 173.776C484.547 173.776 485.259 173.56 485.771 173.128C486.299 172.696 486.563 172.16 486.563 171.52C486.563 171.072 486.419 170.704 486.131 170.416C485.843 170.128 485.475 169.904 485.027 169.744C484.595 169.568 484.003 169.384 483.251 169.192C482.275 168.936 481.483 168.68 480.875 168.424C480.267 168.168 479.747 167.792 479.315 167.296C478.899 166.784 478.691 166.104 478.691 165.256C478.691 164.616 478.883 164.024 479.267 163.48C479.651 162.936 480.195 162.504 480.899 162.184C481.603 161.864 482.403 161.704 483.299 161.704C484.707 161.704 485.843 162.064 486.707 162.784C487.571 163.488 488.035 164.464 488.099 165.712H486.419C486.371 164.944 486.067 164.328 485.507 163.864C484.963 163.384 484.211 163.144 483.251 163.144C482.403 163.144 481.715 163.344 481.187 163.744C480.659 164.144 480.395 164.64 480.395 165.232C480.395 165.744 480.547 166.168 480.851 166.504C481.171 166.824 481.563 167.08 482.027 167.272C482.491 167.448 483.115 167.648 483.899 167.872C484.843 168.128 485.595 168.376 486.155 168.616C486.715 168.856 487.195 169.208 487.595 169.672C487.995 170.136 488.203 170.752 488.219 171.52C488.219 172.224 488.027 172.856 487.643 173.416C487.259 173.96 486.723 174.392 486.035 174.712C485.347 175.032 484.555 175.192 483.659 175.192ZM503.237 167.776C503.237 168.352 503.221 168.792 503.189 169.096H492.317C492.365 170.088 492.605 170.936 493.037 171.64C493.469 172.344 494.037 172.88 494.741 173.248C495.445 173.6 496.213 173.776 497.045 173.776C498.133 173.776 499.045 173.512 499.781 172.984C500.533 172.456 501.029 171.744 501.269 170.848H503.045C502.725 172.128 502.037 173.176 500.981 173.992C499.941 174.792 498.629 175.192 497.045 175.192C495.813 175.192 494.709 174.92 493.733 174.376C492.757 173.816 491.989 173.032 491.429 172.024C490.885 171 490.613 169.808 490.613 168.448C490.613 167.088 490.885 165.896 491.429 164.872C491.973 163.848 492.733 163.064 493.709 162.52C494.685 161.976 495.797 161.704 497.045 161.704C498.293 161.704 499.381 161.976 500.309 162.52C501.253 163.064 501.973 163.8 502.469 164.728C502.981 165.64 503.237 166.656 503.237 167.776ZM501.533 167.728C501.549 166.752 501.349 165.92 500.933 165.232C500.533 164.544 499.981 164.024 499.277 163.672C498.573 163.32 497.805 163.144 496.973 163.144C495.725 163.144 494.661 163.544 493.781 164.344C492.901 165.144 492.413 166.272 492.317 167.728H501.533ZM5.104 199.312V207.448C5.104 208.248 5.256 208.8 5.56 209.104C5.864 209.408 6.4 209.56 7.168 209.56H8.704V211H6.904C5.72 211 4.84 210.728 4.264 210.184C3.688 209.624 3.4 208.712 3.4 207.448V199.312H1.576V197.896H3.4V194.608H5.104V197.896H8.704V199.312H5.104ZM13.1547 200.224C13.5227 199.408 14.0827 198.776 14.8347 198.328C15.6027 197.88 16.5387 197.656 17.6427 197.656V199.408H17.1867C15.9707 199.408 14.9947 199.736 14.2587 200.392C13.5227 201.048 13.1547 202.144 13.1547 203.68V211H11.4747V197.896H13.1547V200.224ZM31.522 197.896V211H29.842V208.696C29.458 209.512 28.866 210.136 28.066 210.568C27.266 211 26.37 211.216 25.378 211.216C23.81 211.216 22.53 210.736 21.538 209.776C20.546 208.8 20.05 207.392 20.05 205.552V197.896H21.706V205.36C21.706 206.784 22.058 207.872 22.762 208.624C23.482 209.376 24.458 209.752 25.69 209.752C26.954 209.752 27.962 209.352 28.714 208.552C29.466 207.752 29.842 206.576 29.842 205.024V197.896H31.522ZM39.8695 211.192C38.3655 211.192 37.1335 210.848 36.1735 210.16C35.2295 209.456 34.7015 208.504 34.5895 207.304H36.3175C36.3975 208.04 36.7415 208.64 37.3495 209.104C37.9735 209.552 38.8055 209.776 39.8455 209.776C40.7575 209.776 41.4695 209.56 41.9815 209.128C42.5095 208.696 42.7735 208.16 42.7735 207.52C42.7735 207.072 42.6295 206.704 42.3415 206.416C42.0535 206.128 41.6855 205.904 41.2375 205.744C40.8055 205.568 40.2135 205.384 39.4615 205.192C38.4855 204.936 37.6935 204.68 37.0855 204.424C36.4775 204.168 35.9575 203.792 35.5255 203.296C35.1095 202.784 34.9015 202.104 34.9015 201.256C34.9015 200.616 35.0935 200.024 35.4775 199.48C35.8615 198.936 36.4055 198.504 37.1095 198.184C37.8135 197.864 38.6135 197.704 39.5095 197.704C40.9175 197.704 42.0535 198.064 42.9175 198.784C43.7815 199.488 44.2455 200.464 44.3095 201.712H42.6295C42.5815 200.944 42.2775 200.328 41.7175 199.864C41.1735 199.384 40.4215 199.144 39.4615 199.144C38.6135 199.144 37.9255 199.344 37.3975 199.744C36.8695 200.144 36.6055 200.64 36.6055 201.232C36.6055 201.744 36.7575 202.168 37.0615 202.504C37.3815 202.824 37.7735 203.08 38.2375 203.272C38.7015 203.448 39.3255 203.648 40.1095 203.872C41.0535 204.128 41.8055 204.376 42.3655 204.616C42.9255 204.856 43.4055 205.208 43.8055 205.672C44.2055 206.136 44.4135 206.752 44.4295 207.52C44.4295 208.224 44.2375 208.856 43.8535 209.416C43.4695 209.96 42.9335 210.392 42.2455 210.712C41.5575 211.032 40.7655 211.192 39.8695 211.192ZM49.7759 199.312V207.448C49.7759 208.248 49.9279 208.8 50.2319 209.104C50.5359 209.408 51.0719 209.56 51.8399 209.56H53.3759V211H51.5759C50.3919 211 49.5119 210.728 48.9359 210.184C48.3599 209.624 48.0719 208.712 48.0719 207.448V199.312H46.2479V197.896H48.0719V194.608H49.7759V197.896H53.3759V199.312H49.7759ZM68.0026 203.776C68.0026 204.352 67.9866 204.792 67.9546 205.096H57.0826C57.1306 206.088 57.3706 206.936 57.8026 207.64C58.2346 208.344 58.8026 208.88 59.5066 209.248C60.2106 209.6 60.9786 209.776 61.8106 209.776C62.8986 209.776 63.8106 209.512 64.5466 208.984C65.2986 208.456 65.7946 207.744 66.0346 206.848H67.8106C67.4906 208.128 66.8026 209.176 65.7466 209.992C64.7066 210.792 63.3946 211.192 61.8106 211.192C60.5786 211.192 59.4746 210.92 58.4986 210.376C57.5226 209.816 56.7546 209.032 56.1946 208.024C55.6506 207 55.3786 205.808 55.3786 204.448C55.3786 203.088 55.6506 201.896 56.1946 200.872C56.7386 199.848 57.4986 199.064 58.4746 198.52C59.4506 197.976 60.5626 197.704 61.8106 197.704C63.0586 197.704 64.1466 197.976 65.0746 198.52C66.0186 199.064 66.7386 199.8 67.2346 200.728C67.7466 201.64 68.0026 202.656 68.0026 203.776ZM66.2986 203.728C66.3146 202.752 66.1146 201.92 65.6986 201.232C65.2986 200.544 64.7466 200.024 64.0426 199.672C63.3386 199.32 62.5706 199.144 61.7386 199.144C60.4906 199.144 59.4266 199.544 58.5466 200.344C57.6666 201.144 57.1786 202.272 57.0826 203.728H66.2986ZM70.3083 204.424C70.3083 203.08 70.5803 201.904 71.1243 200.896C71.6683 199.872 72.4123 199.088 73.3563 198.544C74.3163 197.984 75.3963 197.704 76.5963 197.704C77.7483 197.704 78.7883 197.984 79.7163 198.544C80.6443 199.104 81.3243 199.832 81.7563 200.728V193.24H83.4363V211H81.7563V208.072C81.3563 208.984 80.7003 209.736 79.7883 210.328C78.8763 210.904 77.8043 211.192 76.5723 211.192C75.3723 211.192 74.2923 210.912 73.3323 210.352C72.3883 209.792 71.6443 209 71.1003 207.976C70.5723 206.952 70.3083 205.768 70.3083 204.424ZM81.7563 204.448C81.7563 203.392 81.5403 202.464 81.1083 201.664C80.6763 200.864 80.0843 200.248 79.3323 199.816C78.5963 199.384 77.7803 199.168 76.8843 199.168C75.9563 199.168 75.1243 199.376 74.3883 199.792C73.6523 200.208 73.0683 200.816 72.6363 201.616C72.2203 202.4 72.0123 203.336 72.0123 204.424C72.0123 205.496 72.2203 206.44 72.6363 207.256C73.0683 208.056 73.6523 208.672 74.3883 209.104C75.1243 209.52 75.9563 209.728 76.8843 209.728C77.7803 209.728 78.5963 209.512 79.3323 209.08C80.0843 208.648 80.6763 208.032 81.1083 207.232C81.5403 206.432 81.7563 205.504 81.7563 204.448ZM95.5135 200.776C95.9295 199.896 96.5855 199.168 97.4815 198.592C98.3935 198 99.4735 197.704 100.722 197.704C101.906 197.704 102.97 197.984 103.914 198.544C104.874 199.088 105.618 199.872 106.146 200.896C106.69 201.904 106.962 203.08 106.962 204.424C106.962 205.768 106.69 206.952 106.146 207.976C105.618 209 104.874 209.792 103.914 210.352C102.97 210.912 101.906 211.192 100.722 211.192C99.4895 211.192 98.4175 210.904 97.5055 210.328C96.5935 209.736 95.9295 209 95.5135 208.12V217.192H93.8575V197.896H95.5135V200.776ZM105.258 204.424C105.258 203.336 105.042 202.4 104.609 201.616C104.194 200.816 103.618 200.208 102.882 199.792C102.146 199.376 101.314 199.168 100.386 199.168C99.4895 199.168 98.6655 199.384 97.9135 199.816C97.1775 200.248 96.5935 200.864 96.1615 201.664C95.7295 202.464 95.5135 203.392 95.5135 204.448C95.5135 205.504 95.7295 206.432 96.1615 207.232C96.5935 208.032 97.1775 208.648 97.9135 209.08C98.6655 209.512 99.4895 209.728 100.386 209.728C101.314 209.728 102.146 209.52 102.882 209.104C103.618 208.672 104.194 208.056 104.609 207.256C105.042 206.44 105.258 205.496 105.258 204.424ZM111.733 200.224C112.101 199.408 112.661 198.776 113.413 198.328C114.181 197.88 115.117 197.656 116.221 197.656V199.408H115.765C114.549 199.408 113.573 199.736 112.837 200.392C112.101 201.048 111.733 202.144 111.733 203.68V211H110.053V197.896H111.733V200.224ZM124.484 211.192C123.252 211.192 122.14 210.92 121.148 210.376C120.172 209.816 119.396 209.032 118.82 208.024C118.26 207 117.98 205.808 117.98 204.448C117.98 203.088 118.268 201.904 118.844 200.896C119.42 199.872 120.204 199.088 121.196 198.544C122.188 197.984 123.3 197.704 124.532 197.704C125.764 197.704 126.876 197.984 127.868 198.544C128.876 199.088 129.66 199.872 130.22 200.896C130.796 201.904 131.084 203.088 131.084 204.448C131.084 205.792 130.796 206.976 130.22 208C129.644 209.024 128.852 209.816 127.844 210.376C126.836 210.92 125.716 211.192 124.484 211.192ZM124.484 209.728C125.348 209.728 126.148 209.536 126.884 209.152C127.62 208.752 128.212 208.16 128.66 207.376C129.124 206.576 129.356 205.6 129.356 204.448C129.356 203.296 129.132 202.328 128.684 201.544C128.236 200.744 127.644 200.152 126.908 199.768C126.172 199.368 125.372 199.168 124.508 199.168C123.644 199.168 122.844 199.368 122.108 199.768C121.372 200.152 120.78 200.744 120.332 201.544C119.9 202.328 119.684 203.296 119.684 204.448C119.684 205.6 119.9 206.576 120.332 207.376C120.78 208.16 121.364 208.752 122.084 209.152C122.82 209.536 123.62 209.728 124.484 209.728ZM133.379 204.424C133.379 203.08 133.651 201.904 134.195 200.896C134.739 199.872 135.483 199.088 136.427 198.544C137.387 197.984 138.467 197.704 139.667 197.704C140.819 197.704 141.859 197.984 142.787 198.544C143.715 199.104 144.395 199.832 144.827 200.728V193.24H146.507V211H144.827V208.072C144.427 208.984 143.771 209.736 142.859 210.328C141.947 210.904 140.875 211.192 139.643 211.192C138.443 211.192 137.363 210.912 136.403 210.352C135.459 209.792 134.715 209 134.171 207.976C133.643 206.952 133.379 205.768 133.379 204.424ZM144.827 204.448C144.827 203.392 144.611 202.464 144.179 201.664C143.747 200.864 143.155 200.248 142.403 199.816C141.667 199.384 140.851 199.168 139.955 199.168C139.027 199.168 138.195 199.376 137.459 199.792C136.723 200.208 136.139 200.816 135.707 201.616C135.291 202.4 135.083 203.336 135.083 204.424C135.083 205.496 135.291 206.44 135.707 207.256C136.139 208.056 136.723 208.672 137.459 209.104C138.195 209.52 139.027 209.728 139.955 209.728C140.851 209.728 141.667 209.512 142.403 209.08C143.155 208.648 143.747 208.032 144.179 207.232C144.611 206.432 144.827 205.504 144.827 204.448ZM161.694 197.896V211H160.014V208.696C159.63 209.512 159.038 210.136 158.238 210.568C157.438 211 156.542 211.216 155.55 211.216C153.982 211.216 152.702 210.736 151.71 209.776C150.718 208.8 150.222 207.392 150.222 205.552V197.896H151.878V205.36C151.878 206.784 152.23 207.872 152.934 208.624C153.654 209.376 154.63 209.752 155.862 209.752C157.126 209.752 158.134 209.352 158.886 208.552C159.638 207.752 160.014 206.576 160.014 205.024V197.896H161.694ZM164.761 204.448C164.761 203.088 165.033 201.904 165.577 200.896C166.121 199.872 166.873 199.088 167.833 198.544C168.793 197.984 169.889 197.704 171.121 197.704C172.737 197.704 174.065 198.104 175.105 198.904C176.161 199.704 176.841 200.792 177.145 202.168H175.345C175.121 201.224 174.633 200.488 173.881 199.96C173.145 199.416 172.225 199.144 171.121 199.144C170.241 199.144 169.449 199.344 168.745 199.744C168.041 200.144 167.481 200.744 167.065 201.544C166.665 202.328 166.465 203.296 166.465 204.448C166.465 205.6 166.665 206.576 167.065 207.376C167.481 208.176 168.041 208.776 168.745 209.176C169.449 209.576 170.241 209.776 171.121 209.776C172.225 209.776 173.145 209.512 173.881 208.984C174.633 208.44 175.121 207.688 175.345 206.728H177.145C176.841 208.072 176.161 209.152 175.105 209.968C174.049 210.784 172.721 211.192 171.121 211.192C169.889 211.192 168.793 210.92 167.833 210.376C166.873 209.816 166.121 209.032 165.577 208.024C165.033 207 164.761 205.808 164.761 204.448ZM182.432 199.312V207.448C182.432 208.248 182.584 208.8 182.888 209.104C183.192 209.408 183.728 209.56 184.496 209.56H186.032V211H184.232C183.048 211 182.168 210.728 181.592 210.184C181.016 209.624 180.728 208.712 180.728 207.448V199.312H178.904V197.896H180.728V194.608H182.432V197.896H186.032V199.312H182.432ZM193.315 211.192C191.811 211.192 190.579 210.848 189.619 210.16C188.675 209.456 188.147 208.504 188.035 207.304H189.763C189.843 208.04 190.187 208.64 190.795 209.104C191.419 209.552 192.251 209.776 193.291 209.776C194.203 209.776 194.915 209.56 195.427 209.128C195.955 208.696 196.219 208.16 196.219 207.52C196.219 207.072 196.075 206.704 195.787 206.416C195.499 206.128 195.131 205.904 194.683 205.744C194.251 205.568 193.659 205.384 192.907 205.192C191.931 204.936 191.139 204.68 190.531 204.424C189.923 204.168 189.403 203.792 188.971 203.296C188.555 202.784 188.347 202.104 188.347 201.256C188.347 200.616 188.539 200.024 188.923 199.48C189.307 198.936 189.851 198.504 190.555 198.184C191.259 197.864 192.059 197.704 192.955 197.704C194.363 197.704 195.499 198.064 196.363 198.784C197.227 199.488 197.691 200.464 197.755 201.712H196.075C196.027 200.944 195.723 200.328 195.163 199.864C194.619 199.384 193.867 199.144 192.907 199.144C192.059 199.144 191.371 199.344 190.843 199.744C190.315 200.144 190.051 200.64 190.051 201.232C190.051 201.744 190.203 202.168 190.507 202.504C190.827 202.824 191.219 203.08 191.683 203.272C192.147 203.448 192.771 203.648 193.555 203.872C194.499 204.128 195.251 204.376 195.811 204.616C196.371 204.856 196.851 205.208 197.251 205.672C197.651 206.136 197.859 206.752 197.875 207.52C197.875 208.224 197.683 208.856 197.299 209.416C196.915 209.96 196.379 210.392 195.691 210.712C195.003 211.032 194.211 211.192 193.315 211.192ZM209.279 200.8C209.711 199.888 210.375 199.144 211.271 198.568C212.183 197.992 213.255 197.704 214.487 197.704C215.687 197.704 216.759 197.984 217.703 198.544C218.647 199.088 219.383 199.872 219.911 200.896C220.455 201.904 220.727 203.08 220.727 204.424C220.727 205.768 220.455 206.952 219.911 207.976C219.383 209 218.639 209.792 217.679 210.352C216.735 210.912 215.671 211.192 214.487 211.192C213.239 211.192 212.159 210.912 211.247 210.352C210.351 209.776 209.695 209.032 209.279 208.12V211H207.623V193.24H209.279V200.8ZM219.023 204.424C219.023 203.336 218.807 202.4 218.375 201.616C217.959 200.816 217.383 200.208 216.647 199.792C215.911 199.376 215.079 199.168 214.151 199.168C213.255 199.168 212.431 199.384 211.679 199.816C210.943 200.248 210.359 200.864 209.927 201.664C209.495 202.464 209.279 203.392 209.279 204.448C209.279 205.504 209.495 206.432 209.927 207.232C210.359 208.032 210.943 208.648 211.679 209.08C212.431 209.512 213.255 209.728 214.151 209.728C215.079 209.728 215.911 209.52 216.647 209.104C217.383 208.672 217.959 208.056 218.375 207.256C218.807 206.44 219.023 205.496 219.023 204.424ZM223.05 204.424C223.05 203.08 223.314 201.904 223.842 200.896C224.386 199.872 225.13 199.088 226.074 198.544C227.034 197.984 228.114 197.704 229.314 197.704C230.562 197.704 231.634 197.992 232.53 198.568C233.442 199.144 234.098 199.88 234.498 200.776V197.896H236.178V211H234.498V208.096C234.082 208.992 233.418 209.736 232.506 210.328C231.61 210.904 230.538 211.192 229.29 211.192C228.106 211.192 227.034 210.912 226.074 210.352C225.13 209.792 224.386 209 223.842 207.976C223.314 206.952 223.05 205.768 223.05 204.424ZM234.498 204.448C234.498 203.392 234.282 202.464 233.85 201.664C233.418 200.864 232.826 200.248 232.074 199.816C231.338 199.384 230.522 199.168 229.626 199.168C228.698 199.168 227.866 199.376 227.13 199.792C226.394 200.208 225.81 200.816 225.378 201.616C224.962 202.4 224.754 203.336 224.754 204.424C224.754 205.496 224.962 206.44 225.378 207.256C225.81 208.056 226.394 208.672 227.13 209.104C227.866 209.52 228.698 209.728 229.626 209.728C230.522 209.728 231.338 209.512 232.074 209.08C232.826 208.648 233.418 208.032 233.85 207.232C234.282 206.432 234.498 205.504 234.498 204.448ZM244.526 211.192C243.022 211.192 241.79 210.848 240.83 210.16C239.886 209.456 239.358 208.504 239.246 207.304H240.974C241.054 208.04 241.398 208.64 242.006 209.104C242.63 209.552 243.462 209.776 244.502 209.776C245.414 209.776 246.126 209.56 246.638 209.128C247.166 208.696 247.43 208.16 247.43 207.52C247.43 207.072 247.286 206.704 246.998 206.416C246.71 206.128 246.342 205.904 245.894 205.744C245.462 205.568 244.87 205.384 244.118 205.192C243.142 204.936 242.35 204.68 241.742 204.424C241.134 204.168 240.614 203.792 240.182 203.296C239.766 202.784 239.558 202.104 239.558 201.256C239.558 200.616 239.75 200.024 240.134 199.48C240.518 198.936 241.062 198.504 241.766 198.184C242.47 197.864 243.27 197.704 244.166 197.704C245.574 197.704 246.71 198.064 247.574 198.784C248.438 199.488 248.902 200.464 248.966 201.712H247.286C247.238 200.944 246.934 200.328 246.374 199.864C245.83 199.384 245.078 199.144 244.118 199.144C243.27 199.144 242.582 199.344 242.054 199.744C241.526 200.144 241.262 200.64 241.262 201.232C241.262 201.744 241.414 202.168 241.718 202.504C242.038 202.824 242.43 203.08 242.894 203.272C243.358 203.448 243.982 203.648 244.766 203.872C245.71 204.128 246.462 204.376 247.022 204.616C247.582 204.856 248.062 205.208 248.462 205.672C248.862 206.136 249.07 206.752 249.086 207.52C249.086 208.224 248.894 208.856 248.51 209.416C248.126 209.96 247.59 210.392 246.902 210.712C246.214 211.032 245.422 211.192 244.526 211.192ZM264.104 203.776C264.104 204.352 264.088 204.792 264.056 205.096H253.184C253.232 206.088 253.472 206.936 253.904 207.64C254.336 208.344 254.904 208.88 255.608 209.248C256.312 209.6 257.08 209.776 257.912 209.776C259 209.776 259.912 209.512 260.648 208.984C261.4 208.456 261.896 207.744 262.136 206.848H263.912C263.592 208.128 262.904 209.176 261.848 209.992C260.808 210.792 259.496 211.192 257.912 211.192C256.68 211.192 255.576 210.92 254.6 210.376C253.624 209.816 252.856 209.032 252.296 208.024C251.752 207 251.48 205.808 251.48 204.448C251.48 203.088 251.752 201.896 252.296 200.872C252.84 199.848 253.6 199.064 254.576 198.52C255.552 197.976 256.664 197.704 257.912 197.704C259.16 197.704 260.248 197.976 261.176 198.52C262.12 199.064 262.84 199.8 263.336 200.728C263.848 201.64 264.104 202.656 264.104 203.776ZM262.4 203.728C262.416 202.752 262.216 201.92 261.8 201.232C261.4 200.544 260.848 200.024 260.144 199.672C259.44 199.32 258.672 199.144 257.84 199.144C256.592 199.144 255.528 199.544 254.648 200.344C253.768 201.144 253.28 202.272 253.184 203.728H262.4ZM266.41 204.424C266.41 203.08 266.682 201.904 267.226 200.896C267.77 199.872 268.514 199.088 269.458 198.544C270.418 197.984 271.498 197.704 272.698 197.704C273.85 197.704 274.89 197.984 275.818 198.544C276.746 199.104 277.426 199.832 277.858 200.728V193.24H279.538V211H277.858V208.072C277.458 208.984 276.802 209.736 275.89 210.328C274.978 210.904 273.906 211.192 272.674 211.192C271.474 211.192 270.394 210.912 269.434 210.352C268.49 209.792 267.746 209 267.202 207.976C266.674 206.952 266.41 205.768 266.41 204.424ZM277.858 204.448C277.858 203.392 277.642 202.464 277.21 201.664C276.778 200.864 276.186 200.248 275.434 199.816C274.698 199.384 273.882 199.168 272.986 199.168C272.058 199.168 271.226 199.376 270.49 199.792C269.754 200.208 269.17 200.816 268.738 201.616C268.322 202.4 268.114 203.336 268.114 204.424C268.114 205.496 268.322 206.44 268.738 207.256C269.17 208.056 269.754 208.672 270.49 209.104C271.226 209.52 272.058 209.728 272.986 209.728C273.882 209.728 274.698 209.512 275.434 209.08C276.186 208.648 276.778 208.032 277.21 207.232C277.642 206.432 277.858 205.504 277.858 204.448ZM295.695 211.192C294.463 211.192 293.351 210.92 292.359 210.376C291.383 209.816 290.607 209.032 290.031 208.024C289.471 207 289.191 205.808 289.191 204.448C289.191 203.088 289.479 201.904 290.055 200.896C290.631 199.872 291.415 199.088 292.407 198.544C293.399 197.984 294.511 197.704 295.743 197.704C296.975 197.704 298.087 197.984 299.079 198.544C300.087 199.088 300.871 199.872 301.431 200.896C302.007 201.904 302.295 203.088 302.295 204.448C302.295 205.792 302.007 206.976 301.431 208C300.855 209.024 300.063 209.816 299.055 210.376C298.047 210.92 296.927 211.192 295.695 211.192ZM295.695 209.728C296.559 209.728 297.359 209.536 298.095 209.152C298.831 208.752 299.423 208.16 299.871 207.376C300.335 206.576 300.567 205.6 300.567 204.448C300.567 203.296 300.343 202.328 299.895 201.544C299.447 200.744 298.855 200.152 298.119 199.768C297.383 199.368 296.583 199.168 295.719 199.168C294.855 199.168 294.055 199.368 293.319 199.768C292.583 200.152 291.991 200.744 291.543 201.544C291.111 202.328 290.895 203.296 290.895 204.448C290.895 205.6 291.111 206.576 291.543 207.376C291.991 208.16 292.575 208.752 293.295 209.152C294.031 209.536 294.831 209.728 295.695 209.728ZM311.502 197.656C313.07 197.656 314.35 198.144 315.342 199.12C316.334 200.08 316.83 201.48 316.83 203.32V211H315.174V203.512C315.174 202.088 314.814 201 314.094 200.248C313.39 199.496 312.422 199.12 311.19 199.12C309.926 199.12 308.918 199.52 308.166 200.32C307.414 201.12 307.038 202.296 307.038 203.848V211H305.358V197.896H307.038V200.128C307.454 199.328 308.054 198.72 308.838 198.304C309.622 197.872 310.51 197.656 311.502 197.656ZM331.643 211.192C330.139 211.192 328.907 210.848 327.947 210.16C327.003 209.456 326.475 208.504 326.363 207.304H328.091C328.171 208.04 328.515 208.64 329.123 209.104C329.747 209.552 330.579 209.776 331.619 209.776C332.531 209.776 333.243 209.56 333.755 209.128C334.283 208.696 334.547 208.16 334.547 207.52C334.547 207.072 334.403 206.704 334.115 206.416C333.827 206.128 333.459 205.904 333.011 205.744C332.579 205.568 331.987 205.384 331.235 205.192C330.259 204.936 329.467 204.68 328.859 204.424C328.251 204.168 327.731 203.792 327.299 203.296C326.883 202.784 326.675 202.104 326.675 201.256C326.675 200.616 326.867 200.024 327.251 199.48C327.635 198.936 328.179 198.504 328.883 198.184C329.587 197.864 330.387 197.704 331.283 197.704C332.691 197.704 333.827 198.064 334.691 198.784C335.555 199.488 336.019 200.464 336.083 201.712H334.403C334.355 200.944 334.051 200.328 333.491 199.864C332.947 199.384 332.195 199.144 331.235 199.144C330.387 199.144 329.699 199.344 329.171 199.744C328.643 200.144 328.379 200.64 328.379 201.232C328.379 201.744 328.531 202.168 328.835 202.504C329.155 202.824 329.547 203.08 330.011 203.272C330.475 203.448 331.099 203.648 331.883 203.872C332.827 204.128 333.579 204.376 334.139 204.616C334.699 204.856 335.179 205.208 335.579 205.672C335.979 206.136 336.187 206.752 336.203 207.52C336.203 208.224 336.011 208.856 335.627 209.416C335.243 209.96 334.707 210.392 334.019 210.712C333.331 211.032 332.539 211.192 331.643 211.192ZM345.101 211.192C343.869 211.192 342.757 210.92 341.765 210.376C340.789 209.816 340.013 209.032 339.437 208.024C338.877 207 338.597 205.808 338.597 204.448C338.597 203.088 338.885 201.904 339.461 200.896C340.037 199.872 340.821 199.088 341.813 198.544C342.805 197.984 343.917 197.704 345.149 197.704C346.381 197.704 347.493 197.984 348.485 198.544C349.493 199.088 350.277 199.872 350.837 200.896C351.413 201.904 351.701 203.088 351.701 204.448C351.701 205.792 351.413 206.976 350.837 208C350.261 209.024 349.469 209.816 348.461 210.376C347.453 210.92 346.333 211.192 345.101 211.192ZM345.101 209.728C345.965 209.728 346.765 209.536 347.501 209.152C348.237 208.752 348.829 208.16 349.277 207.376C349.741 206.576 349.973 205.6 349.973 204.448C349.973 203.296 349.749 202.328 349.301 201.544C348.853 200.744 348.261 200.152 347.525 199.768C346.789 199.368 345.989 199.168 345.125 199.168C344.261 199.168 343.461 199.368 342.725 199.768C341.989 200.152 341.397 200.744 340.949 201.544C340.517 202.328 340.301 203.296 340.301 204.448C340.301 205.6 340.517 206.576 340.949 207.376C341.397 208.16 341.981 208.752 342.701 209.152C343.437 209.536 344.237 209.728 345.101 209.728ZM353.996 204.448C353.996 203.088 354.268 201.904 354.812 200.896C355.356 199.872 356.108 199.088 357.068 198.544C358.028 197.984 359.124 197.704 360.356 197.704C361.972 197.704 363.3 198.104 364.34 198.904C365.396 199.704 366.076 200.792 366.38 202.168H364.58C364.356 201.224 363.868 200.488 363.116 199.96C362.38 199.416 361.46 199.144 360.356 199.144C359.476 199.144 358.684 199.344 357.98 199.744C357.276 200.144 356.716 200.744 356.3 201.544C355.9 202.328 355.7 203.296 355.7 204.448C355.7 205.6 355.9 206.576 356.3 207.376C356.716 208.176 357.276 208.776 357.98 209.176C358.684 209.576 359.476 209.776 360.356 209.776C361.46 209.776 362.38 209.512 363.116 208.984C363.868 208.44 364.356 207.688 364.58 206.728H366.38C366.076 208.072 365.396 209.152 364.34 209.968C363.284 210.784 361.956 211.192 360.356 211.192C359.124 211.192 358.028 210.92 357.068 210.376C356.108 209.816 355.356 209.032 354.812 208.024C354.268 207 353.996 205.808 353.996 204.448ZM370.323 195.424C369.987 195.424 369.699 195.304 369.459 195.064C369.219 194.824 369.099 194.528 369.099 194.176C369.099 193.824 369.219 193.536 369.459 193.312C369.699 193.072 369.987 192.952 370.323 192.952C370.659 192.952 370.947 193.072 371.187 193.312C371.427 193.536 371.547 193.824 371.547 194.176C371.547 194.528 371.427 194.824 371.187 195.064C370.947 195.304 370.659 195.424 370.323 195.424ZM371.163 197.896V211H369.483V197.896H371.163ZM374.199 204.424C374.199 203.08 374.463 201.904 374.991 200.896C375.535 199.872 376.279 199.088 377.223 198.544C378.183 197.984 379.263 197.704 380.463 197.704C381.711 197.704 382.783 197.992 383.679 198.568C384.591 199.144 385.247 199.88 385.647 200.776V197.896H387.327V211H385.647V208.096C385.231 208.992 384.567 209.736 383.655 210.328C382.759 210.904 381.687 211.192 380.439 211.192C379.255 211.192 378.183 210.912 377.223 210.352C376.279 209.792 375.535 209 374.991 207.976C374.463 206.952 374.199 205.768 374.199 204.424ZM385.647 204.448C385.647 203.392 385.431 202.464 384.999 201.664C384.567 200.864 383.975 200.248 383.223 199.816C382.487 199.384 381.671 199.168 380.775 199.168C379.847 199.168 379.015 199.376 378.279 199.792C377.543 200.208 376.959 200.816 376.527 201.616C376.111 202.4 375.903 203.336 375.903 204.424C375.903 205.496 376.111 206.44 376.527 207.256C376.959 208.056 377.543 208.672 378.279 209.104C379.015 209.52 379.847 209.728 380.775 209.728C381.671 209.728 382.487 209.512 383.223 209.08C383.975 208.648 384.567 208.032 384.999 207.232C385.431 206.432 385.647 205.504 385.647 204.448ZM392.842 193.24V211H391.162V193.24H392.842ZM404.889 200.776C405.305 199.896 405.961 199.168 406.857 198.592C407.769 198 408.849 197.704 410.097 197.704C411.281 197.704 412.345 197.984 413.289 198.544C414.249 199.088 414.993 199.872 415.521 200.896C416.065 201.904 416.337 203.08 416.337 204.424C416.337 205.768 416.065 206.952 415.521 207.976C414.993 209 414.249 209.792 413.289 210.352C412.345 210.912 411.281 211.192 410.097 211.192C408.865 211.192 407.793 210.904 406.881 210.328C405.969 209.736 405.305 209 404.889 208.12V217.192H403.233V197.896H404.889V200.776ZM414.633 204.424C414.633 203.336 414.417 202.4 413.984 201.616C413.569 200.816 412.993 200.208 412.257 199.792C411.521 199.376 410.689 199.168 409.761 199.168C408.865 199.168 408.041 199.384 407.289 199.816C406.553 200.248 405.969 200.864 405.537 201.664C405.105 202.464 404.889 203.392 404.889 204.448C404.889 205.504 405.105 206.432 405.537 207.232C405.969 208.032 406.553 208.648 407.289 209.08C408.041 209.512 408.865 209.728 409.761 209.728C410.689 209.728 411.521 209.52 412.257 209.104C412.993 208.672 413.569 208.056 413.984 207.256C414.417 206.44 414.633 205.496 414.633 204.424ZM421.108 200.224C421.476 199.408 422.036 198.776 422.788 198.328C423.556 197.88 424.492 197.656 425.596 197.656V199.408H425.14C423.924 199.408 422.948 199.736 422.212 200.392C421.476 201.048 421.108 202.144 421.108 203.68V211H419.428V197.896H421.108V200.224ZM433.859 211.192C432.627 211.192 431.515 210.92 430.523 210.376C429.547 209.816 428.771 209.032 428.195 208.024C427.635 207 427.355 205.808 427.355 204.448C427.355 203.088 427.643 201.904 428.219 200.896C428.795 199.872 429.579 199.088 430.571 198.544C431.563 197.984 432.675 197.704 433.907 197.704C435.139 197.704 436.251 197.984 437.243 198.544C438.251 199.088 439.035 199.872 439.595 200.896C440.171 201.904 440.459 203.088 440.459 204.448C440.459 205.792 440.171 206.976 439.595 208C439.019 209.024 438.227 209.816 437.219 210.376C436.211 210.92 435.091 211.192 433.859 211.192ZM433.859 209.728C434.723 209.728 435.523 209.536 436.259 209.152C436.995 208.752 437.587 208.16 438.035 207.376C438.499 206.576 438.731 205.6 438.731 204.448C438.731 203.296 438.507 202.328 438.059 201.544C437.611 200.744 437.019 200.152 436.283 199.768C435.547 199.368 434.747 199.168 433.883 199.168C433.019 199.168 432.219 199.368 431.483 199.768C430.747 200.152 430.155 200.744 429.707 201.544C429.275 202.328 429.059 203.296 429.059 204.448C429.059 205.6 429.275 206.576 429.707 207.376C430.155 208.16 430.739 208.752 431.459 209.152C432.195 209.536 432.995 209.728 433.859 209.728ZM449.258 211.192C448.026 211.192 446.914 210.92 445.922 210.376C444.946 209.816 444.17 209.032 443.594 208.024C443.034 207 442.754 205.808 442.754 204.448C442.754 203.088 443.042 201.904 443.618 200.896C444.194 199.872 444.978 199.088 445.97 198.544C446.962 197.984 448.074 197.704 449.306 197.704C450.538 197.704 451.65 197.984 452.642 198.544C453.65 199.088 454.434 199.872 454.994 200.896C455.57 201.904 455.858 203.088 455.858 204.448C455.858 205.792 455.57 206.976 454.994 208C454.418 209.024 453.626 209.816 452.618 210.376C451.61 210.92 450.49 211.192 449.258 211.192ZM449.258 209.728C450.122 209.728 450.922 209.536 451.658 209.152C452.394 208.752 452.986 208.16 453.434 207.376C453.898 206.576 454.13 205.6 454.13 204.448C454.13 203.296 453.906 202.328 453.458 201.544C453.01 200.744 452.418 200.152 451.682 199.768C450.946 199.368 450.146 199.168 449.282 199.168C448.418 199.168 447.618 199.368 446.882 199.768C446.146 200.152 445.554 200.744 445.106 201.544C444.674 202.328 444.458 203.296 444.458 204.448C444.458 205.6 444.674 206.576 445.106 207.376C445.554 208.16 446.138 208.752 446.858 209.152C447.594 209.536 448.394 209.728 449.258 209.728ZM464.08 199.312H461.032V211H459.352V199.312H457.528V197.896H459.352V196.984C459.352 195.56 459.712 194.512 460.432 193.84C461.168 193.168 462.352 192.832 463.984 192.832V194.272C462.896 194.272 462.128 194.48 461.68 194.896C461.248 195.312 461.032 196.008 461.032 196.984V197.896H464.08V199.312Z" fill="#4E4646"/>
<defs>
<filter id="filter0_d_3575_219" x="-77" y="-108" width="1053" height="276" filterUnits="userSpaceOnUse" color-interpolation-filters="sRGB">
<feFlood flood-opacity="0" result="BackgroundImageFix"/>
<feColorMatrix in="SourceAlpha" type="matrix" values="0 0 0 0 0 0 0 0 0 0 0 0 0 0 0 0 0 0 127 0" result="hardAlpha"/>
<feOffset dy="4"/>
<feGaussianBlur stdDeviation="2"/>
<feComposite in2="hardAlpha" operator="out"/>
<feColorMatrix type="matrix" values="0 0 0 0 0 0 0 0 0 0 0 0 0 0 0 0 0 0 0.5 0"/>
<feBlend mode="normal" in2="BackgroundImageFix" result="effect1_dropShadow_3575_219"/>
<feBlend mode="normal" in="SourceGraphic" in2="effect1_dropShadow_3575_219" result="shape"/>
</filter>
<filter id="filter1_d_3575_219" x="-2200" y="-623" width="3573.11" height="791.375" filterUnits="userSpaceOnUse" color-interpolation-filters="sRGB">
<feFlood flood-opacity="0" result="BackgroundImageFix"/>
<feColorMatrix in="SourceAlpha" type="matrix" values="0 0 0 0 0 0 0 0 0 0 0 0 0 0 0 0 0 0 127 0" result="hardAlpha"/>
<feOffset dy="4"/>
<feGaussianBlur stdDeviation="2"/>
<feComposite in2="hardAlpha" operator="out"/>
<feColorMatrix type="matrix" values="0 0 0 0 0 0 0 0 0 0 0 0 0 0 0 0 0 0 0.5 0"/>
<feBlend mode="normal" in2="BackgroundImageFix" result="effect1_dropShadow_3575_219"/>
<feBlend mode="normal" in="SourceGraphic" in2="effect1_dropShadow_3575_219" result="shape"/>
</filter>
<linearGradient id="paint0_linear_3575_219" x1="-2202.7" y1="-214.346" x2="1381.51" y2="-152.823" gradientUnits="userSpaceOnUse">
<stop stop-color="#F37A20"/>
<stop offset="1" stop-color="#F37A20"/>
</linearGradient>
<clipPath id="clip0_3575_219">
<rect x="-73" y="-108" width="1045" height="268" rx="15" fill="white"/>
</clipPath>
</defs>
</svg>
