<svg width="78" height="75" viewBox="0 0 78 75" fill="none" xmlns="http://www.w3.org/2000/svg">
<path d="M0 37.5C0 16.7893 16.7893 0 37.5 0H40.1163C60.827 0 77.6163 16.7893 77.6163 37.5C77.6163 58.2107 60.827 75 40.1163 75H37.5C16.7893 75 0 58.2107 0 37.5Z" fill="white"/>
<path d="M53.8333 36.334C53.6667 36.1673 53.6667 36.0007 53.5 35.834L48.5 30.834C47.8333 30.1673 46.8333 30.1673 46.1667 30.834C45.5 31.5007 45.5 32.5007 46.1667 33.1673L48.3333 35.334H40.6667C39.6667 35.334 39 36.0007 39 37.0007C39 38.0007 39.6667 38.6673 40.6667 38.6673H48.3333L46.1667 40.834C45.5 41.5007 45.5 42.5007 46.1667 43.1673C46.5 43.5007 47 43.6673 47.3333 43.6673C47.6667 43.6673 48.1667 43.5007 48.5 43.1673L53.5 38.1673C53.6667 38.0007 53.8333 37.834 53.8333 37.6673C54 37.1673 54 36.834 53.8333 36.334Z" fill="#696868"/>
<path d="M44.8333 47.1667C43 48.1667 41 48.6667 39 48.6667C32.5 48.6667 27.3333 43.5 27.3333 37C27.3333 30.5 32.5 25.3333 39 25.3333C41 25.3333 43 25.8333 44.8333 26.8333C45.6667 27.3333 46.6667 27 47.1667 26.1667C47.6667 25.3333 47.3333 24.3333 46.5 23.8333C44.1667 22.6667 41.6667 22 39 22C30.6667 22 24 28.6667 24 37C24 45.3333 30.6667 52 39 52C41.6667 52 44.1667 51.3333 46.5 50C47.3333 49.5 47.5 48.5 47.1667 47.6667C46.6667 47 45.6667 46.6667 44.8333 47.1667Z" fill="#696868"/>
</svg>
