<svg width="32" height="33" viewBox="0 0 32 33" fill="none" xmlns="http://www.w3.org/2000/svg">
<path d="M11.0123 16.056C11.0123 15.1431 11.0123 14.2682 11.0123 13.3934C11.0123 12.8955 11.1626 12.7502 11.6731 12.7502C12.5576 12.7502 13.4386 12.7502 14.3371 12.7295C13.0086 12.0656 12.0192 11.0835 11.4528 9.72458C10.8864 8.36909 10.855 6.98939 11.3689 5.60969C12.2429 3.25487 14.5259 1.77489 17.0571 1.89938C19.5148 2.0204 21.6439 3.74589 22.2802 6.12146C22.934 8.56273 21.8572 11.3982 19.1233 12.726C19.2526 12.7364 19.333 12.7468 19.4134 12.7468C20.228 12.7468 21.0426 12.7468 21.8607 12.7468C22.3047 12.7468 22.4655 12.9093 22.4655 13.3554C22.4655 14.8388 22.4655 16.3257 22.4655 17.8091C22.4655 17.9163 22.4655 18.0201 22.4655 18.1895C22.5809 18.0858 22.6578 18.0201 22.7312 17.9509C24.2835 16.4156 25.8323 14.8734 27.3915 13.3415C28.4299 12.3249 30.1045 12.7433 30.4821 14.1092C30.6709 14.7904 30.4786 15.3851 29.9891 15.8969C27.8355 18.148 25.6854 20.3991 23.5353 22.6467C23.0284 23.1758 22.518 23.6979 22.025 24.2373C21.8222 24.4586 21.602 24.552 21.2978 24.552C19.1407 24.5416 16.9836 24.5485 14.8265 24.5416C14.6308 24.5416 14.4944 24.597 14.3581 24.7353C13.8022 25.2989 13.2358 25.8487 12.589 26.485C12.7988 26.6544 13.0086 26.8031 13.1904 26.9794C13.4771 27.2561 13.4771 27.4947 13.2009 27.7713C12.1276 28.8363 11.0543 29.9014 9.97397 30.9629C9.68729 31.2465 9.45305 31.2223 9.13141 30.9041C6.75756 28.5666 4.3872 26.2222 2.02035 23.8812C1.74765 23.6115 1.46796 23.3417 1.19876 23.0686C0.912083 22.7781 0.912083 22.5499 1.20576 22.256C2.26507 21.2048 3.32789 20.1536 4.3907 19.1058C4.69486 18.805 4.92211 18.8085 5.23326 19.1162C5.40107 19.2822 5.5514 19.4655 5.72271 19.6556C5.84508 19.5415 5.92549 19.4724 6.0024 19.3998C7.03724 18.3797 8.07209 17.3596 9.09994 16.3326C9.29572 16.1355 9.50549 16.0421 9.78518 16.056C10.1802 16.0663 10.5753 16.056 11.0123 16.056ZM12.0052 25.745C12.617 25.1364 13.2393 24.5313 13.8441 23.9088C14.0539 23.6945 14.2742 23.6011 14.5783 23.6011C16.7354 23.6115 18.8925 23.608 21.0531 23.6011C21.1859 23.6011 21.3538 23.5492 21.4412 23.4593C24.0842 20.7068 26.7203 17.9474 29.3563 15.188C29.7339 14.7938 29.7269 14.2648 29.3633 13.9259C29.0032 13.587 28.4788 13.6147 28.0872 14.002C26.1959 15.8727 24.3115 17.7503 22.4131 19.6141C22.2872 19.7352 22.0705 19.8251 21.8957 19.8285C19.4309 19.8424 16.9627 19.8389 14.4979 19.8389C14.1029 19.8389 13.8756 19.6591 13.8861 19.3548C13.8931 19.0609 14.1098 18.8949 14.4909 18.8949C15.5258 18.8949 16.5606 18.8949 17.592 18.8949C18.2213 18.8949 18.6583 18.5042 18.6548 17.9474C18.6513 17.3976 18.2108 17.0104 17.5815 17.0069C15.0643 17.0069 12.5506 17.0034 10.0334 17.0138C9.88656 17.0138 9.70826 17.0933 9.60338 17.1971C8.61049 18.1618 7.62809 19.137 6.64568 20.1121C6.58275 20.1743 6.53031 20.24 6.48836 20.285C8.32031 22.1004 10.1453 23.9054 12.0052 25.745ZM16.7389 2.83646C14.0924 2.84684 11.9563 4.96652 11.9667 7.57031C11.9772 10.181 14.1168 12.2765 16.7704 12.2765C19.3959 12.273 21.5251 10.1326 21.5146 7.51499C21.5006 4.94232 19.34 2.82955 16.7389 2.83646ZM9.55443 29.9567C10.4355 29.0922 11.313 28.2277 12.1485 27.4082C9.69428 24.9808 7.22603 22.5361 4.80673 20.1432C3.96068 20.98 3.08316 21.8445 2.21962 22.702C4.64941 25.1053 7.10717 27.5362 9.55443 29.9567ZM11.9772 14.6175C15.1692 14.6175 18.3331 14.6175 21.4971 14.6175C21.4971 14.3063 21.4971 14.0158 21.4971 13.7115C18.3191 13.7115 15.1552 13.7115 11.9772 13.7115C11.9772 14.0158 11.9772 14.3063 11.9772 14.6175ZM21.5006 15.603C18.3087 15.603 15.1447 15.603 11.9807 15.603C11.9807 15.7586 11.9807 15.89 11.9807 16.056C12.0996 16.056 12.208 16.056 12.3129 16.056C14.0609 16.056 15.809 16.0594 17.557 16.0525C18.029 16.0525 18.459 16.1528 18.8436 16.4363C18.896 16.4744 18.9659 16.5228 19.0254 16.5228C19.8469 16.5297 20.6685 16.5262 21.5006 16.5262C21.5006 16.2012 21.5006 15.9107 21.5006 15.603ZM21.5076 17.4875C20.8398 17.4875 20.2 17.4875 19.6407 17.4875C19.5742 17.9716 19.5078 18.4246 19.4484 18.8638C20.1057 18.8638 20.8049 18.8638 21.5076 18.8638C21.5076 18.397 21.5076 17.9578 21.5076 17.4875Z" fill="white"/>
<path d="M16.2425 5.1879C16.3124 4.43408 16.4103 4.25427 16.7424 4.25427C17.0676 4.25427 17.162 4.42371 17.2459 5.19482C17.5256 5.19482 17.8122 5.19136 18.0954 5.19482C18.4415 5.19828 18.6548 5.38846 18.6513 5.67546C18.6443 5.9521 18.438 6.13536 18.1059 6.13536C17.5291 6.13882 16.9522 6.13536 16.3753 6.13882C16.0048 6.13882 15.7845 6.32209 15.7915 6.61947C15.7985 6.90647 16.0083 7.07937 16.3649 7.08283C16.6341 7.08628 16.9033 7.08283 17.169 7.08283C17.9626 7.08974 18.5849 7.63263 18.6478 8.37608C18.7107 9.12298 18.1968 9.76269 17.4172 9.90446C17.3612 9.91484 17.3018 9.91829 17.2354 9.92867C17.1829 10.3056 17.3508 10.8139 16.725 10.8519C16.3963 10.8727 16.2949 10.6514 16.2495 9.91484C15.9698 9.91484 15.6866 9.91829 15.4034 9.91484C15.0503 9.91138 14.8371 9.73503 14.8336 9.44802C14.8301 9.16102 15.0433 8.97429 15.3929 8.97429C15.9698 8.97083 16.5467 8.97429 17.1235 8.97083C17.4766 8.96737 17.6899 8.79102 17.6934 8.50402C17.6969 8.21701 17.4836 8.03375 17.134 8.02683C16.8648 8.02337 16.5991 8.02683 16.3299 8.02683C15.5188 8.01991 14.8895 7.47011 14.8371 6.71975C14.7811 5.95555 15.309 5.32968 16.1131 5.20173C16.1481 5.19828 16.1866 5.19482 16.2425 5.1879Z" fill="white"/>
</svg>
