<svg width="53" height="53" viewBox="0 0 53 53" fill="none" xmlns="http://www.w3.org/2000/svg">
<circle cx="26.5" cy="26.5" r="26.5" fill="black"/>
<mask id="path-2-inside-1_12297_6580" fill="white">
<path d="M26.5 14.1333L27.0749 13.4627C26.7441 13.1791 26.2559 13.1791 25.9251 13.4627L26.5 14.1333ZM14.1333 24.7333L13.5585 24.0627L13.25 24.3271V24.7333H14.1333ZM22.9667 38.8667V39.75C23.4545 39.75 23.85 39.3544 23.85 38.8667H22.9667ZM30.0333 38.8667H29.15C29.15 39.3544 29.5455 39.75 30.0333 39.75V38.8667ZM38.8667 24.7333H39.75V24.3271L39.4415 24.0627L38.8667 24.7333ZM15.9 39.75H22.9667V37.9833H15.9V39.75ZM39.4415 24.0627L27.0749 13.4627L25.9251 14.804L38.2918 25.404L39.4415 24.0627ZM25.9251 13.4627L13.5585 24.0627L14.7082 25.404L27.0749 14.804L25.9251 13.4627ZM23.85 38.8667V33.5667H22.0833V38.8667H23.85ZM29.15 33.5667V38.8667H30.9167V33.5667H29.15ZM30.0333 39.75H37.1V37.9833H30.0333V39.75ZM39.75 37.1V24.7333H37.9833V37.1H39.75ZM13.25 24.7333V37.1H15.0167V24.7333H13.25ZM26.5 30.9167C27.9636 30.9167 29.15 32.1032 29.15 33.5667H30.9167C30.9167 31.1274 28.9393 29.15 26.5 29.15V30.9167ZM26.5 29.15C24.0607 29.15 22.0833 31.1274 22.0833 33.5667H23.85C23.85 32.1032 25.0364 30.9167 26.5 30.9167V29.15ZM37.1 39.75C38.5635 39.75 39.75 38.5635 39.75 37.1H37.9833C37.9833 37.5878 37.5878 37.9833 37.1 37.9833V39.75ZM15.9 37.9833C15.4122 37.9833 15.0167 37.5878 15.0167 37.1H13.25C13.25 38.5635 14.4364 39.75 15.9 39.75V37.9833Z"/>
</mask>
<path d="M26.5 14.1333L27.0749 13.4627C26.7441 13.1791 26.2559 13.1791 25.9251 13.4627L26.5 14.1333ZM14.1333 24.7333L13.5585 24.0627L13.25 24.3271V24.7333H14.1333ZM22.9667 38.8667V39.75C23.4545 39.75 23.85 39.3544 23.85 38.8667H22.9667ZM30.0333 38.8667H29.15C29.15 39.3544 29.5455 39.75 30.0333 39.75V38.8667ZM38.8667 24.7333H39.75V24.3271L39.4415 24.0627L38.8667 24.7333ZM15.9 39.75H22.9667V37.9833H15.9V39.75ZM39.4415 24.0627L27.0749 13.4627L25.9251 14.804L38.2918 25.404L39.4415 24.0627ZM25.9251 13.4627L13.5585 24.0627L14.7082 25.404L27.0749 14.804L25.9251 13.4627ZM23.85 38.8667V33.5667H22.0833V38.8667H23.85ZM29.15 33.5667V38.8667H30.9167V33.5667H29.15ZM30.0333 39.75H37.1V37.9833H30.0333V39.75ZM39.75 37.1V24.7333H37.9833V37.1H39.75ZM13.25 24.7333V37.1H15.0167V24.7333H13.25ZM26.5 30.9167C27.9636 30.9167 29.15 32.1032 29.15 33.5667H30.9167C30.9167 31.1274 28.9393 29.15 26.5 29.15V30.9167ZM26.5 29.15C24.0607 29.15 22.0833 31.1274 22.0833 33.5667H23.85C23.85 32.1032 25.0364 30.9167 26.5 30.9167V29.15ZM37.1 39.75C38.5635 39.75 39.75 38.5635 39.75 37.1H37.9833C37.9833 37.5878 37.5878 37.9833 37.1 37.9833V39.75ZM15.9 37.9833C15.4122 37.9833 15.0167 37.5878 15.0167 37.1H13.25C13.25 38.5635 14.4364 39.75 15.9 39.75V37.9833Z" fill="#ABD4FA"/>
<path d="M26.5 14.1333L22.7037 17.3873L26.5 21.8162L30.2963 17.3873L26.5 14.1333ZM27.0749 13.4627L30.8711 16.7166L34.1252 12.9203L30.3288 9.66633L27.0749 13.4627ZM25.9251 13.4627L22.6712 9.66633L18.8748 12.9203L22.1289 16.7166L25.9251 13.4627ZM14.1333 24.7333V29.7333H25.0044L17.9296 21.4794L14.1333 24.7333ZM13.5585 24.0627L17.3548 20.8087L14.1008 17.0124L10.3045 20.2664L13.5585 24.0627ZM13.25 24.3271L9.99605 20.5308L8.25 22.0274V24.3271H13.25ZM13.25 24.7333H8.25V29.7333H13.25V24.7333ZM22.9667 38.8667V33.8667H17.9667V38.8667H22.9667ZM22.9667 39.75H17.9667V44.75H22.9667V39.75ZM23.85 38.8667H28.85V33.8667H23.85V38.8667ZM30.0333 38.8667H35.0333V33.8667H30.0333V38.8667ZM29.15 38.8667V33.8667H24.15V38.8667H29.15ZM30.0333 39.75V44.75H35.0333V39.75H30.0333ZM38.8667 24.7333L35.0704 21.4794L27.9955 29.7333H38.8667V24.7333ZM39.75 24.7333V29.7333H44.75V24.7333H39.75ZM39.75 24.3271H44.75V22.0274L43.004 20.5308L39.75 24.3271ZM39.4415 24.0627L42.6955 20.2664L38.8993 17.0124L35.6453 20.8087L39.4415 24.0627ZM15.9 39.75H10.9V44.75H15.9V39.75ZM22.9667 39.75V44.75H27.9667V39.75H22.9667ZM22.9667 37.9833H27.9667V32.9833H22.9667V37.9833ZM15.9 37.9833V32.9833H10.9V37.9833H15.9ZM39.4415 24.0627L43.2378 27.3166L46.4918 23.5203L42.6955 20.2664L39.4415 24.0627ZM27.0749 13.4627L30.3288 9.66637L26.5326 6.41244L23.2786 10.2087L27.0749 13.4627ZM25.9251 14.804L22.1289 11.55L18.8749 15.3463L22.6712 18.6003L25.9251 14.804ZM38.2918 25.404L35.0378 29.2003L38.8341 32.4542L42.0881 28.658L38.2918 25.404ZM25.9251 13.4627L29.7214 10.2087L26.4674 6.41244L22.6712 9.66637L25.9251 13.4627ZM13.5585 24.0627L10.3045 20.2664L6.50823 23.5203L9.76218 27.3166L13.5585 24.0627ZM14.7082 25.404L10.9119 28.658L14.1659 32.4543L17.9622 29.2003L14.7082 25.404ZM27.0749 14.804L30.3288 18.6003L34.1251 15.3463L30.8711 11.55L27.0749 14.804ZM23.85 38.8667V43.8667H28.85V38.8667H23.85ZM23.85 33.5667H28.85V28.5667H23.85V33.5667ZM22.0833 33.5667V28.5667H17.0833V33.5667H22.0833ZM22.0833 38.8667H17.0833V43.8667H22.0833V38.8667ZM29.15 33.5667V28.5667H24.15V33.5667H29.15ZM29.15 38.8667H24.15V43.8667H29.15V38.8667ZM30.9167 38.8667V43.8667H35.9167V38.8667H30.9167ZM30.9167 33.5667H35.9167V28.5667H30.9167V33.5667ZM30.0333 39.75H25.0333V44.75H30.0333V39.75ZM37.1 39.75V44.75H42.1V39.75H37.1ZM37.1 37.9833H42.1V32.9833H37.1V37.9833ZM30.0333 37.9833V32.9833H25.0333V37.9833H30.0333ZM39.75 37.1V42.1H44.75V37.1H39.75ZM39.75 24.7333H44.75V19.7333H39.75V24.7333ZM37.9833 24.7333V19.7333H32.9833V24.7333H37.9833ZM37.9833 37.1H32.9833V42.1H37.9833V37.1ZM13.25 24.7333V19.7333H8.25V24.7333H13.25ZM13.25 37.1H8.25V42.1H13.25V37.1ZM15.0167 37.1V42.1H20.0167V37.1H15.0167ZM15.0167 24.7333H20.0167V19.7333H15.0167V24.7333ZM26.5 30.9167H21.5V35.9167H26.5V30.9167ZM29.15 33.5667H24.15V38.5667H29.15V33.5667ZM30.9167 33.5667V38.5667H35.9167V33.5667H30.9167ZM26.5 29.15V24.15H21.5V29.15H26.5ZM26.5 29.15H31.5V24.15H26.5V29.15ZM22.0833 33.5667H17.0833V38.5667H22.0833V33.5667ZM23.85 33.5667V38.5667H28.85V33.5667H23.85ZM26.5 30.9167V35.9167H31.5V30.9167H26.5ZM37.1 39.75H32.1V44.75H37.1V39.75ZM39.75 37.1H44.75V32.1H39.75V37.1ZM37.9833 37.1V32.1H32.9833V37.1H37.9833ZM37.1 37.9833V32.9833H32.1V37.9833H37.1ZM15.9 37.9833H20.9V32.9833H15.9V37.9833ZM15.0167 37.1H20.0167V32.1H15.0167V37.1ZM13.25 37.1V32.1H8.25V37.1H13.25ZM15.9 39.75V44.75H20.9V39.75H15.9ZM30.2963 17.3873L30.8711 16.7166L23.2786 10.2087L22.7037 10.8794L30.2963 17.3873ZM30.3288 9.66633C28.1255 7.77789 24.8745 7.77789 22.6712 9.66633L29.179 17.259C27.6374 18.5803 25.3626 18.5803 23.821 17.259L30.3288 9.66633ZM22.1289 16.7166L22.7037 17.3873L30.2963 10.8794L29.7214 10.2087L22.1289 16.7166ZM17.9296 21.4794L17.3548 20.8087L9.76218 27.3166L10.337 27.9873L17.9296 21.4794ZM10.3045 20.2664L9.99605 20.5308L16.504 28.1233L16.8124 27.8589L10.3045 20.2664ZM8.25 24.3271V24.7333H18.25V24.3271H8.25ZM13.25 29.7333H14.1333V19.7333H13.25V29.7333ZM17.9667 38.8667V39.75H27.9667V38.8667H17.9667ZM22.9667 44.75C26.2162 44.75 28.85 42.1156 28.85 38.8667H18.85C18.85 36.5933 20.6928 34.75 22.9667 34.75V44.75ZM23.85 33.8667H22.9667V43.8667H23.85V33.8667ZM30.0333 33.8667H29.15V43.8667H30.0333V33.8667ZM24.15 38.8667C24.15 42.1156 26.7838 44.75 30.0333 44.75V34.75C32.3072 34.75 34.15 36.5933 34.15 38.8667H24.15ZM35.0333 39.75V38.8667H25.0333V39.75H35.0333ZM38.8667 29.7333H39.75V19.7333H38.8667V29.7333ZM44.75 24.7333V24.3271H34.75V24.7333H44.75ZM43.004 20.5308L42.6955 20.2664L36.1875 27.8589L36.496 28.1233L43.004 20.5308ZM35.6453 20.8087L35.0704 21.4794L42.6629 27.9873L43.2378 27.3166L35.6453 20.8087ZM15.9 44.75H22.9667V34.75H15.9V44.75ZM27.9667 39.75V37.9833H17.9667V39.75H27.9667ZM22.9667 32.9833H15.9V42.9833H22.9667V32.9833ZM10.9 37.9833V39.75H20.9V37.9833H10.9ZM42.6955 20.2664L30.3288 9.66637L23.8209 17.2589L36.1876 27.8589L42.6955 20.2664ZM23.2786 10.2087L22.1289 11.55L29.7214 18.058L30.8711 16.7166L23.2786 10.2087ZM22.6712 18.6003L35.0378 29.2003L41.5457 21.6077L29.1791 11.0077L22.6712 18.6003ZM42.0881 28.658L43.2378 27.3166L35.6453 20.8087L34.4955 22.15L42.0881 28.658ZM22.6712 9.66637L10.3045 20.2664L16.8124 27.8589L29.1791 17.2589L22.6712 9.66637ZM9.76218 27.3166L10.9119 28.658L18.5045 22.1501L17.3548 20.8087L9.76218 27.3166ZM17.9622 29.2003L30.3288 18.6003L23.8209 11.0077L11.4542 21.6077L17.9622 29.2003ZM30.8711 11.55L29.7214 10.2087L22.1289 16.7166L23.2786 18.058L30.8711 11.55ZM28.85 38.8667V33.5667H18.85V38.8667H28.85ZM23.85 28.5667H22.0833V38.5667H23.85V28.5667ZM17.0833 33.5667V38.8667H27.0833V33.5667H17.0833ZM22.0833 43.8667H23.85V33.8667H22.0833V43.8667ZM24.15 33.5667V38.8667H34.15V33.5667H24.15ZM29.15 43.8667H30.9167V33.8667H29.15V43.8667ZM35.9167 38.8667V33.5667H25.9167V38.8667H35.9167ZM30.9167 28.5667H29.15V38.5667H30.9167V28.5667ZM30.0333 44.75H37.1V34.75H30.0333V44.75ZM42.1 39.75V37.9833H32.1V39.75H42.1ZM37.1 32.9833H30.0333V42.9833H37.1V32.9833ZM25.0333 37.9833V39.75H35.0333V37.9833H25.0333ZM44.75 37.1V24.7333H34.75V37.1H44.75ZM39.75 19.7333H37.9833V29.7333H39.75V19.7333ZM32.9833 24.7333V37.1H42.9833V24.7333H32.9833ZM37.9833 42.1H39.75V32.1H37.9833V42.1ZM8.25 24.7333V37.1H18.25V24.7333H8.25ZM13.25 42.1H15.0167V32.1H13.25V42.1ZM20.0167 37.1V24.7333H10.0167V37.1H20.0167ZM15.0167 19.7333H13.25V29.7333H15.0167V19.7333ZM26.5 35.9167C25.2021 35.9167 24.15 34.8645 24.15 33.5667H34.15C34.15 29.3418 30.725 25.9167 26.5 25.9167V35.9167ZM29.15 38.5667H30.9167V28.5667H29.15V38.5667ZM35.9167 33.5667C35.9167 28.366 31.7007 24.15 26.5 24.15V34.15C26.1778 34.15 25.9167 33.8888 25.9167 33.5667H35.9167ZM21.5 29.15V30.9167H31.5V29.15H21.5ZM26.5 24.15C21.2993 24.15 17.0833 28.366 17.0833 33.5667H27.0833C27.0833 33.8888 26.8222 34.15 26.5 34.15V24.15ZM22.0833 38.5667H23.85V28.5667H22.0833V38.5667ZM28.85 33.5667C28.85 34.8645 27.7979 35.9167 26.5 35.9167V25.9167C22.275 25.9167 18.85 29.3418 18.85 33.5667H28.85ZM31.5 30.9167V29.15H21.5V30.9167H31.5ZM37.1 44.75C41.3249 44.75 44.75 41.3249 44.75 37.1H34.75C34.75 35.8021 35.8021 34.75 37.1 34.75V44.75ZM39.75 32.1H37.9833V42.1H39.75V32.1ZM32.9833 37.1C32.9833 34.8264 34.8264 32.9833 37.1 32.9833V42.9833C40.3492 42.9833 42.9833 40.3492 42.9833 37.1H32.9833ZM32.1 37.9833V39.75H42.1V37.9833H32.1ZM15.9 32.9833C18.1738 32.9833 20.0167 34.8266 20.0167 37.1H10.0167C10.0167 40.3489 12.6505 42.9833 15.9 42.9833V32.9833ZM15.0167 32.1H13.25V42.1H15.0167V32.1ZM8.25 37.1C8.25 41.3249 11.675 44.75 15.9 44.75V34.75C17.1979 34.75 18.25 35.8021 18.25 37.1H8.25ZM20.9 39.75V37.9833H10.9V39.75H20.9Z" fill="#ABD4FA" mask="url(#path-2-inside-1_12297_6580)"/>
</svg>
