<svg width="78" height="75" viewBox="0 0 78 75" fill="none" xmlns="http://www.w3.org/2000/svg">
<path d="M0 37.5C0 16.7893 16.7893 0 37.5 0H40.1163C60.827 0 77.6163 16.7893 77.6163 37.5C77.6163 58.2107 60.827 75 40.1163 75H37.5C16.7893 75 0 58.2107 0 37.5Z" fill="white"/>
<path d="M48.7522 22H28.2673C25.8789 22 24 23.9363 24 26.4025V47.5553C24 50.0215 25.8789 52 28.2673 52H48.7522C51.1405 52 53.0411 50.0215 53.0411 47.5553V26.4025C53.0411 23.9363 51.1405 22 48.7522 22ZM50.5753 47.5553C50.5753 48.5708 49.7356 49.3973 48.7522 49.3973H28.2673C27.2838 49.3973 26.4658 48.5708 26.4658 47.5553V26.4025C26.4658 25.387 27.2838 24.6027 28.2673 24.6027H48.7522C49.7356 24.6027 50.5753 25.387 50.5753 26.4025V47.5553Z" fill="#696868"/>
<path d="M45.7647 32.6855H36.252C35.5484 32.6855 34.978 33.1918 34.978 33.9184C34.978 34.645 35.5483 35.1513 36.252 35.1513H45.7647C46.4683 35.1513 47.0387 34.645 47.0387 33.9184C47.0387 33.1918 46.4683 32.6855 45.7647 32.6855Z" fill="#696868"/>
<path d="M31.5196 35.2379C32.2232 35.2379 32.7936 34.6489 32.7936 33.9224C32.7936 33.1959 32.2232 32.6069 31.5196 32.6069C30.816 32.6069 30.2456 33.1959 30.2456 33.9224C30.2456 34.6489 30.816 35.2379 31.5196 35.2379Z" fill="#696868"/>
<path d="M45.7647 37.7539H36.252C35.5484 37.7539 34.978 38.3288 34.978 39.0553C34.978 39.7817 35.5483 40.3566 36.252 40.3566H45.7647C46.4683 40.3566 47.0387 39.7817 47.0387 39.0553C47.0387 38.3288 46.4683 37.7539 45.7647 37.7539Z" fill="#696868"/>
<path d="M31.5196 40.4132C32.2232 40.4132 32.7936 39.8242 32.7936 39.0977C32.7936 38.3712 32.2232 37.7822 31.5196 37.7822C30.816 37.7822 30.2456 38.3712 30.2456 39.0977C30.2456 39.8242 30.816 40.4132 31.5196 40.4132Z" fill="#696868"/>
<path d="M45.7647 42.9595H36.252C35.5484 42.9595 34.978 43.5344 34.978 44.2608C34.978 44.9873 35.5483 45.5622 36.252 45.5622H45.7647C46.4683 45.5622 47.0387 44.9873 47.0387 44.2608C47.0387 43.5344 46.4683 42.9595 45.7647 42.9595Z" fill="#696868"/>
<path d="M31.5196 45.587C32.2232 45.587 32.7936 44.9981 32.7936 44.2715C32.7936 43.545 32.2232 42.9561 31.5196 42.9561C30.816 42.9561 30.2456 43.545 30.2456 44.2715C30.2456 44.9981 30.816 45.587 31.5196 45.587Z" fill="#696868"/>
<path d="M45.7649 27.48H30.959C30.2555 27.48 29.6851 28.0548 29.6851 28.7814C29.6851 29.5079 30.2553 30.0827 30.959 30.0827H45.7651C46.4686 30.0827 47.039 29.5079 47.039 28.7814C47.0389 28.0548 46.4685 27.48 45.7649 27.48Z" fill="#696868"/>
</svg>
