<svg width="30" height="30" viewBox="0 0 30 30" fill="none" xmlns="http://www.w3.org/2000/svg">
<path d="M19.638 0.104126H20.7457C20.7859 0.124778 20.8281 0.140915 20.8716 0.152263C24.7171 0.722561 26.8156 4.89471 25.0474 8.46397C25.0112 8.52172 24.9923 8.58917 24.9929 8.65791C24.9935 8.72668 25.0137 8.79375 25.0509 8.85077C25.8609 10.2744 26.3605 11.8631 26.5148 13.5063C26.5674 14.0809 26.5734 14.6599 26.601 15.2406C26.6676 15.2578 26.7391 15.2765 26.8106 15.2945C28.011 15.5963 28.8006 16.3584 29.1909 17.5638C29.2487 17.7422 29.2847 17.9282 29.3307 18.1107V18.911C29.1909 19.6419 28.8733 20.324 28.4077 20.8935C28.0411 21.3583 27.7079 21.8512 27.359 22.3311C26.9562 22.885 26.5524 23.4384 26.1291 24.0193C25.551 23.2257 24.9908 22.4563 24.4481 21.7112C23.879 22.3279 23.3344 22.9328 22.7706 23.5184C22.6407 23.6534 22.5936 23.7648 22.6529 23.9385C22.9371 24.7719 22.9504 25.6362 22.923 26.505C22.9041 27.103 22.5403 27.4757 21.9574 27.4846C21.6435 27.4892 21.3293 27.4957 21.0161 27.4814C20.8454 27.4736 20.7596 27.5359 20.6738 27.689C20.3979 28.1986 19.9952 28.6233 19.5074 28.9189C19.0195 29.2145 18.464 29.3704 17.8983 29.3708C17.3325 29.371 16.7769 29.2156 16.2887 28.9206C15.8005 28.6254 15.3974 28.2013 15.1209 27.692C15.0256 27.5212 14.9259 27.4816 14.7534 27.4822C13.1842 27.4879 11.6151 27.4875 10.0459 27.4812C9.97538 27.4728 9.90406 27.4875 9.84215 27.5235C9.78023 27.5593 9.73087 27.6145 9.70111 27.681C8.43717 29.9384 5.4019 29.9355 4.13403 27.6753C4.10685 27.6122 4.06092 27.5593 4.00286 27.5246C3.94482 27.4898 3.8776 27.4751 3.81086 27.4822C3.17407 27.49 2.53702 27.4923 1.90027 27.4825C1.36016 27.4738 0.984032 27.0767 0.973915 26.5202C0.968201 26.206 0.966827 25.8912 0.974915 25.5771C0.985268 25.1751 1.22146 24.7972 1.58494 24.7167C1.86384 24.655 1.89312 24.5175 1.89255 24.2708C1.88574 21.3081 1.88446 18.3453 1.88871 15.3826C1.88902 14.6128 2.2239 14.272 2.97263 14.2704C3.21922 14.2699 3.46583 14.2703 3.72127 14.2703C3.73094 14.1827 3.73954 14.1278 3.74271 14.0727C3.83964 12.1822 4.38421 10.3451 5.32873 8.72222C5.43765 8.53476 5.42534 8.42244 5.30184 8.25332C4.70883 7.44122 4.48711 6.52513 4.71266 5.53147C4.99385 4.29265 5.73762 3.44739 6.91974 3.08512C8.11186 2.71977 9.18369 3.01028 10.0825 3.90507C10.2217 4.0437 10.3181 4.05252 10.4857 3.97516C11.9616 3.28681 13.5648 2.93787 15.1844 2.95255C15.2601 2.96013 15.3363 2.94408 15.4031 2.9065C15.4699 2.86893 15.5243 2.81155 15.5592 2.74177C16.2086 1.6893 17.0935 0.917784 18.2309 0.488248C18.6846 0.316912 19.1681 0.229657 19.638 0.104126ZM10.756 4.88064C11.2902 6.25987 11.01 7.45221 10.1555 8.56419C9.42206 9.51865 8.73362 10.51 8.02485 11.4846C7.96618 11.5653 7.90419 11.6434 7.82955 11.7413L6.05023 9.29659C5.19815 10.8119 4.71897 12.5196 4.65468 14.2703H5.02729C8.18343 14.2703 11.3396 14.2704 14.4957 14.2705C15.2843 14.2706 15.6037 14.5994 15.6043 15.4104C15.6048 15.9602 15.6044 16.51 15.6044 17.0921C15.7342 17.0921 15.833 17.0921 15.9318 17.0921C17.2145 17.0921 18.4973 17.0924 19.78 17.0928C20.6041 17.0942 21.0959 17.4918 21.2929 18.3087C21.522 19.2591 21.7509 20.2096 21.9794 21.1603C22.0967 21.6446 22.2182 22.1279 22.3588 22.6964C22.7803 22.1902 23.1625 21.7531 23.52 21.2953C23.8391 20.8866 23.8269 20.8767 23.5356 20.4484C22.2052 18.4922 23.165 15.8621 25.4182 15.3071C25.6061 15.2608 25.6691 15.185 25.6723 14.9867C25.7032 13.6796 25.4997 12.378 25.0722 11.1473C24.8792 10.6017 24.6391 10.0737 24.4012 9.49014C22.9674 11.3726 21.5838 13.1893 20.1961 15.0113C20.1679 14.9887 20.1412 14.9641 20.1163 14.9376C18.6574 13.0208 17.1787 11.1195 15.7479 9.18053C14.8458 7.95811 14.5576 6.53958 14.7518 5.02155C14.7996 4.64768 14.8966 4.28052 14.9756 3.88725C13.5169 3.90763 12.0789 4.24616 10.756 4.88064ZM11.0342 15.2205V18.7877C10.9374 18.7449 10.8706 18.7193 10.8073 18.6868C10.2299 18.3902 9.64528 18.1072 9.07985 17.7881C8.83975 17.6525 8.65458 17.6601 8.41907 17.7891C7.78684 18.1352 7.14098 18.4549 6.4594 18.8064V15.225H2.82054V24.6464C3.14336 24.6464 3.44786 24.6338 3.75083 24.6508C3.95027 24.662 4.0572 24.5946 4.16108 24.4108C4.44015 23.912 4.84137 23.4976 5.32454 23.2091C5.80772 22.9208 6.35585 22.7686 6.914 22.7678C7.47214 22.7669 8.02071 22.9175 8.50466 23.2045C8.98864 23.4913 9.39103 23.9046 9.67149 24.4026C9.77174 24.5792 9.87158 24.6533 10.0769 24.6519C11.5163 24.6413 12.9559 24.6464 14.3954 24.6464H14.6801V15.2205H11.0342ZM20.1708 13.4945C20.2256 13.4337 20.2585 13.402 20.286 13.3658C21.46 11.8237 22.6437 10.2893 23.8036 8.73599C24.677 7.56611 24.9364 6.22643 24.6539 4.79448C24.2725 2.86301 22.8085 1.45562 20.8811 1.10359C19.1462 0.786701 17.2956 1.65782 16.3157 3.25268C15.3277 4.86058 15.3461 7.03638 16.4435 8.55388C17.6456 10.2164 18.911 11.8303 20.1708 13.4945ZM21.8621 24.6445C21.8464 24.5428 21.8411 24.4771 21.8258 24.4139C21.6385 23.6389 21.4409 22.8661 21.267 22.0879C21.2206 21.8807 21.1462 21.8137 20.9393 21.8169C20.0904 21.8291 19.2412 21.827 18.3922 21.8198C17.8337 21.8152 17.4552 21.429 17.4362 20.8533C17.4262 20.5491 17.4252 20.2435 17.4367 19.9392C17.4576 19.3882 17.8169 19.0159 18.3491 18.9852C18.5147 18.9756 18.6812 18.9825 18.8473 18.9825C19.3895 18.9823 19.9316 18.9824 20.4896 18.9824C20.4736 18.8754 20.4676 18.8003 20.4509 18.728C20.3028 18.088 20.2508 18.0464 19.6109 18.0464C18.3834 18.0464 17.1559 18.0464 15.9285 18.0464C15.83 18.0464 15.7315 18.0464 15.6239 18.0464V23.69C15.6603 23.6812 15.6826 23.6829 15.6934 23.6723C17.2416 22.1495 19.755 22.6166 20.723 24.5192C20.7399 24.5502 20.7632 24.5769 20.7911 24.5975C20.8191 24.6182 20.851 24.6323 20.8847 24.639C21.2048 24.6504 21.5254 24.6445 21.8621 24.6445ZM7.8511 10.2007C7.86936 10.1523 7.89125 10.1054 7.91655 10.0604C8.51202 9.23782 9.1242 8.42756 9.70096 7.59127C9.94106 7.23843 10.0827 6.82432 10.1104 6.39412C10.1382 5.9639 10.0509 5.53408 9.85821 5.15151C9.66552 4.76896 9.37476 4.44834 9.01765 4.22461C8.66053 4.00087 8.25074 3.88264 7.83298 3.88275C7.41522 3.88287 7.00551 4.00136 6.6485 4.22531C6.29151 4.44924 6.00092 4.77003 5.80843 5.15271C5.61595 5.53538 5.52895 5.96525 5.55692 6.39545C5.58488 6.82565 5.72675 7.23967 5.96703 7.59236C6.56 8.45146 7.18756 9.28509 7.8511 10.2007ZM26.1318 22.4504C26.791 21.537 27.4332 20.6773 28.0417 19.793C28.4119 19.255 28.5044 18.6295 28.3507 17.9908C28.109 16.9864 27.4738 16.3808 26.4923 16.1871C25.6187 16.0147 24.6896 16.4576 24.2023 17.2461C23.9564 17.6415 23.8311 18.104 23.8429 18.5737C23.8547 19.0434 24.0031 19.4986 24.2686 19.8803C24.5622 20.3071 24.8744 20.7207 25.1785 21.1397C25.4871 21.5646 25.7963 21.9891 26.1318 22.4504ZM17.8993 28.423C18.3502 28.4209 18.7904 28.2811 19.1644 28.0213C19.5384 27.7612 19.8294 27.3928 20.0007 26.9624C20.172 26.5318 20.216 26.0586 20.1271 25.6023C20.0381 25.1463 19.8203 24.7275 19.501 24.3988C19.1817 24.0703 18.7753 23.8465 18.333 23.7561C17.8907 23.6656 17.4323 23.7123 17.0158 23.8903C16.5992 24.0684 16.243 24.3697 15.9921 24.7565C15.7413 25.1431 15.6071 25.5979 15.6063 26.0633C15.6078 26.6899 15.85 27.2902 16.2799 27.7326C16.7098 28.1752 17.2922 28.4235 17.8993 28.423ZM6.91773 28.423C7.36874 28.4224 7.80946 28.2836 8.18421 28.0247C8.55898 27.7657 8.85102 27.398 9.02347 26.9678C9.19592 26.5377 9.24105 26.0645 9.15319 25.608C9.0653 25.1513 8.84835 24.7319 8.5297 24.4026C8.21105 24.073 7.805 23.8484 7.36277 23.757C6.92054 23.6654 6.46196 23.7111 6.04491 23.8884C5.62787 24.0657 5.27103 24.3663 5.01943 24.7527C4.76786 25.1391 4.63278 25.5937 4.63129 26.0593C4.63169 26.6853 4.87256 27.2858 5.30117 27.7288C5.72975 28.1718 6.31108 28.4216 6.91773 28.423ZM7.39563 17.2677C7.78947 17.0643 8.14706 16.8915 8.49258 16.6961C8.56791 16.6454 8.6558 16.6182 8.74571 16.6176C8.83563 16.6171 8.92381 16.6432 8.99974 16.693C9.35126 16.8938 9.71696 17.0683 10.0973 17.2642V15.2233H7.39563V17.2677ZM10.1142 26.5193H14.7124C14.7124 26.2363 14.7128 25.9723 14.7118 25.708C14.7087 25.676 14.7033 25.6442 14.6957 25.6131H10.1142V26.5193ZM18.3795 19.9496V20.8533H20.9637C20.8845 20.5343 20.8103 20.2362 20.739 19.9496H18.3795ZM3.72304 26.5227V25.6211H1.91061V26.5227H3.72304ZM21.0964 25.6129V26.5196H21.9935V25.6129H21.0964Z" fill="white"/>
<path d="M11.9608 12.4005H12.854V13.3H11.9608V12.4005Z" fill="white"/>
<path d="M14.6779 13.3036H13.7924V12.4031H14.6779V13.3036Z" fill="white"/>
<path d="M15.6206 12.3982H16.5122V13.2988H15.6206V12.3982Z" fill="white"/>
<path d="M20.1769 9.54052C19.4541 9.53846 18.7481 9.31532 18.148 8.89932C17.548 8.48333 17.0809 7.8931 16.8057 7.20324C16.5306 6.5134 16.4597 5.75483 16.602 5.0234C16.7443 4.29197 17.0935 3.62051 17.6054 3.09379C18.1174 2.56709 18.769 2.20879 19.4782 2.06416C20.1873 1.91952 20.9221 1.99505 21.5895 2.28121C22.2571 2.56736 22.8276 3.05127 23.2287 3.67184C23.63 4.29241 23.844 5.0218 23.8438 5.76782C23.8448 6.26455 23.7506 6.7566 23.5665 7.21558C23.3826 7.67456 23.1123 8.09141 22.7715 8.4421C22.4306 8.79281 22.0259 9.07042 21.5805 9.25894C21.1353 9.44745 20.6583 9.54315 20.1769 9.54052ZM20.1939 2.94235C19.6516 2.93919 19.1205 3.10208 18.6678 3.41045C18.2151 3.71882 17.8612 4.15881 17.6509 4.67477C17.4405 5.19073 17.3831 5.7595 17.486 6.30913C17.5888 6.85874 17.8473 7.36455 18.2286 7.76258C18.61 8.16058 19.0972 8.43294 19.6286 8.54517C20.1599 8.65742 20.7117 8.60451 21.2139 8.39313C21.7161 8.18176 22.1464 7.82141 22.4501 7.35769C22.7539 6.89395 22.9176 6.34764 22.9205 5.78786C22.9229 5.0379 22.6374 4.31751 22.1264 3.78426C21.6154 3.25101 20.9207 2.94831 20.1939 2.94235Z" fill="white"/>
<path d="M7.8459 4.83103C8.11603 4.83484 8.37902 4.92115 8.60165 5.07912C8.82427 5.23706 8.99656 5.45954 9.09676 5.71847C9.19697 5.97739 9.22059 6.26115 9.16466 6.53393C9.10872 6.80671 8.97573 7.05627 8.78248 7.25111C8.58922 7.44592 8.34438 7.57729 8.07882 7.6286C7.81329 7.67991 7.53898 7.64888 7.29052 7.53941C7.04205 7.42993 6.83059 7.24694 6.68284 7.01353C6.53506 6.78012 6.45762 6.50675 6.46027 6.22794C6.46237 6.04231 6.49987 5.85893 6.57063 5.68825C6.6414 5.51759 6.74407 5.36297 6.87273 5.23327C7.0014 5.10354 7.15357 5.00125 7.32055 4.93225C7.48754 4.86323 7.66605 4.82884 7.8459 4.83103ZM8.28571 6.23773C8.28529 6.17572 8.27301 6.11441 8.24962 6.05728C8.22622 6.00018 8.19212 5.94838 8.14931 5.90488C8.10649 5.86137 8.05579 5.82701 8.00008 5.80376C7.94438 5.78052 7.88478 5.76881 7.82471 5.76936C7.70617 5.77357 7.5939 5.82524 7.51169 5.91347C7.42946 6.00169 7.38378 6.1195 7.38435 6.2419C7.3849 6.3643 7.43163 6.48167 7.51464 6.56909C7.59762 6.65652 7.71038 6.70714 7.82893 6.71019C7.88901 6.71026 7.94852 6.69808 8.00403 6.67435C8.05955 6.6506 8.10998 6.6158 8.15242 6.57189C8.19486 6.52799 8.22849 6.47588 8.25136 6.41852C8.27423 6.36119 8.2859 6.29974 8.28571 6.23773Z" fill="white"/>
<path d="M27.5009 18.5094C27.5013 18.7894 27.4214 19.0633 27.2711 19.2964C27.1206 19.5294 26.9068 19.7113 26.6565 19.819C26.4059 19.9266 26.1303 19.9552 25.864 19.9012C25.5979 19.8472 25.3532 19.7129 25.1609 19.5154C24.9685 19.3179 24.8374 19.066 24.7837 18.7915C24.7301 18.517 24.7566 18.2323 24.8598 17.9734C24.9628 17.7144 25.1382 17.4928 25.3633 17.3366C25.5884 17.1804 25.8533 17.0965 26.1246 17.0957C26.4879 17.0978 26.8358 17.2472 27.0933 17.5117C27.3508 17.7762 27.4971 18.1345 27.5009 18.5094ZM26.5778 18.5016C26.5774 18.4396 26.5648 18.3784 26.5406 18.3217C26.5167 18.2649 26.4816 18.2138 26.4376 18.1715C26.3937 18.1292 26.342 18.0966 26.2854 18.0756C26.2289 18.0546 26.169 18.0458 26.1091 18.0495C25.9905 18.054 25.8785 18.1065 25.7974 18.1957C25.7162 18.2848 25.6725 18.4035 25.6756 18.5258C25.6786 18.6481 25.7284 18.7642 25.814 18.8488C25.8995 18.9334 26.0141 18.9798 26.1326 18.9778C26.1927 18.9785 26.2522 18.9666 26.3075 18.9427C26.363 18.9188 26.413 18.8834 26.4549 18.8388C26.4965 18.7943 26.5289 18.7414 26.5501 18.6834C26.5713 18.6254 26.5808 18.5635 26.5778 18.5016Z" fill="white"/>
<path d="M8.28663 26.0649C8.28596 26.3437 8.20528 26.6159 8.05482 26.8473C7.90435 27.0787 7.69085 27.2592 7.44121 27.3653C7.19157 27.4717 6.91702 27.4994 6.65219 27.4447C6.38735 27.3902 6.14412 27.2558 5.95319 27.0587C5.76226 26.8617 5.63217 26.6107 5.57936 26.3374C5.52656 26.0638 5.55338 25.7806 5.65647 25.5229C5.75953 25.2654 5.93425 25.0449 6.15854 24.8897C6.38283 24.7346 6.64666 24.6514 6.91671 24.6508C7.28009 24.6508 7.62854 24.7998 7.88546 25.0649C8.14237 25.3302 8.28667 25.6899 8.28663 26.0649ZM7.37354 26.0676C7.37327 26.0053 7.3611 25.9438 7.33768 25.8865C7.31427 25.8293 7.28009 25.7775 7.23712 25.7339C7.19416 25.6903 7.14327 25.656 7.08735 25.6328C7.03146 25.6097 6.97168 25.5981 6.91145 25.5989C6.85123 25.5998 6.79176 25.613 6.73648 25.6377C6.68119 25.6623 6.63121 25.6981 6.58938 25.7427C6.54755 25.7876 6.51473 25.8402 6.49281 25.8981C6.47086 25.956 6.46027 26.0179 6.46161 26.0801C6.4666 26.2026 6.51761 26.3182 6.60386 26.4024C6.69011 26.4866 6.80475 26.5328 6.92348 26.5311C7.0422 26.5296 7.15563 26.4801 7.23966 26.3936C7.3237 26.307 7.37174 26.19 7.37354 26.0676Z" fill="white"/>
<path d="M19.2614 26.0567C19.262 26.3352 19.1827 26.6077 19.0335 26.8398C18.8842 27.0718 18.6717 27.2531 18.4228 27.3607C18.1738 27.4681 17.8996 27.4971 17.6347 27.4439C17.3698 27.3908 17.1261 27.2577 16.9343 27.0617C16.7426 26.8656 16.6114 26.6155 16.5574 26.3426C16.5033 26.0697 16.5288 25.7865 16.6306 25.5286C16.7323 25.2706 16.9059 25.0496 17.1293 24.8933C17.3527 24.7371 17.616 24.6526 17.8858 24.6505C18.0657 24.6495 18.2439 24.6851 18.4104 24.7552C18.5769 24.8253 18.7284 24.9287 18.8561 25.0592C18.9839 25.1898 19.0855 25.3452 19.155 25.5164C19.2245 25.6876 19.2607 25.8712 19.2614 26.0567ZM17.907 26.5311C18.0273 26.5292 18.1419 26.4778 18.2255 26.3887C18.3092 26.2994 18.3552 26.1796 18.3533 26.0556C18.3493 25.9312 18.2979 25.8133 18.2101 25.7278C18.1224 25.6423 18.0055 25.596 17.8849 25.5989C17.7643 25.6021 17.6497 25.6541 17.566 25.7438C17.4824 25.8335 17.4364 25.9535 17.4381 26.0781C17.4423 26.2024 17.494 26.3197 17.5818 26.4045C17.6697 26.4896 17.7866 26.5351 17.907 26.5311Z" fill="white"/>
<path d="M17.9069 26.531C17.7866 26.535 17.6696 26.4896 17.5818 26.4047C17.4939 26.3196 17.4422 26.2024 17.438 26.0781C17.4363 25.9535 17.4823 25.8335 17.5659 25.7438C17.6496 25.6541 17.7642 25.602 17.8848 25.5989C18.0054 25.5959 18.1223 25.6423 18.21 25.7278C18.2978 25.8132 18.3492 25.9312 18.3532 26.0556C18.3551 26.1796 18.3091 26.2994 18.2254 26.3887C18.1417 26.4778 18.0272 26.5292 17.9069 26.531Z" fill="white"/>
</svg>
