<svg width="501" height="317" viewBox="0 0 501 317" fill="none" xmlns="http://www.w3.org/2000/svg">
<g clip-path="url(#clip0_13031_7937)">
<path d="M231.084 172.15C231.084 172.15 212.099 169.497 216.536 146.611C216.536 146.611 237.751 151.368 231.084 172.15Z" fill="#DFD1D5"/>
<path opacity="0.1" d="M231.084 172.15C231.084 172.15 212.099 169.497 216.536 146.611C216.536 146.611 237.751 151.368 231.084 172.15Z" fill="black"/>
<path d="M230.122 167.37C229.748 166.211 229.312 165.075 228.831 163.962C228.816 163.817 228.793 163.673 228.785 163.528C228.755 163.215 228.732 162.895 228.709 162.582C228.656 161.896 228.61 161.218 228.572 160.532C228.488 159.167 228.404 157.795 228.381 156.43C228.381 156.354 228.266 156.361 228.266 156.43C228.251 157.802 228.236 159.167 228.289 160.539C228.312 161.225 228.358 161.904 228.404 162.59C228.411 162.743 228.426 162.895 228.434 163.047C227.373 160.768 226.09 158.588 224.631 156.552C223.982 155.645 223.295 154.768 222.554 153.922C221.798 153.06 220.996 152.237 220.232 151.376C220.187 151.322 220.103 151.406 220.156 151.459C221.553 152.916 222.707 154.639 223.814 156.316C224.394 157.185 224.936 158.084 225.456 158.992C225.395 158.969 225.334 158.946 225.28 158.923C225.059 158.832 224.83 158.74 224.6 158.649C224.081 158.45 223.57 158.252 223.05 158.062C222.035 157.688 221.011 157.314 219.996 156.926C219.934 156.903 219.896 157.01 219.95 157.032C220.958 157.436 221.958 157.856 222.959 158.29C223.447 158.504 223.936 158.71 224.432 158.923C224.677 159.03 224.929 159.129 225.173 159.228C225.341 159.297 225.502 159.38 225.677 159.403C226.059 160.089 226.441 160.776 226.792 161.485C227.67 163.253 228.449 165.083 229.114 166.943C229.16 167.073 229.205 167.202 229.251 167.34C228.785 167.027 228.182 166.814 227.693 166.592C227.037 166.288 226.38 165.998 225.731 165.701C224.402 165.091 223.073 164.473 221.798 163.749C221.729 163.711 221.676 163.817 221.744 163.848C223.05 164.557 224.326 165.319 225.631 166.028C226.288 166.379 226.945 166.73 227.609 167.05C228.159 167.317 228.778 167.683 229.396 167.767C229.992 169.52 230.488 171.289 230.641 173.141C230.855 175.726 230.832 178.341 230.893 180.933C230.893 180.978 230.962 180.971 230.962 180.933C231.153 178.577 231.26 176.206 231.267 173.843C231.275 171.601 230.832 169.512 230.145 167.378L230.122 167.37Z" fill="#263238"/>
<path d="M227.197 153.914C227.052 155.248 226.914 156.613 227.006 157.947C227.006 157.985 227.059 157.985 227.067 157.947C227.143 156.605 227.159 155.271 227.311 153.945C227.319 153.869 227.205 153.846 227.197 153.914Z" fill="#263238"/>
<path d="M221.767 155.058C220.927 154.7 220.087 154.364 219.324 153.861C219.262 153.823 219.201 153.922 219.27 153.96C220.034 154.44 220.859 154.905 221.737 155.134C221.783 155.149 221.813 155.073 221.767 155.05V155.058Z" fill="#263238"/>
<path d="M231.687 208.477C231.672 206.38 231.634 204.292 231.611 202.195C231.573 195.242 231.512 188.282 231.389 181.329C231.29 175.81 231.16 170.29 231 164.763C231 164.732 230.977 164.709 230.954 164.694C230.954 163.185 230.939 161.675 230.931 160.173C230.931 160.135 230.885 160.12 230.84 160.12C230.794 160.12 230.748 160.143 230.748 160.181C230.74 161.69 230.725 163.2 230.717 164.709C230.694 164.725 230.672 164.748 230.672 164.778C230.389 174.605 230.145 184.44 230.084 194.266C230.068 196.264 230.076 198.261 230.061 200.259C229.992 206.67 229.961 213.074 229.984 219.486C229.984 220.507 229.969 221.529 229.961 222.55C229.938 228.413 230.022 234.275 230.022 240.138C230.022 240.451 230.374 240.611 230.748 240.626C231.176 240.641 231.626 240.474 231.626 240.115C231.626 233.65 231.672 227.185 231.672 220.713C231.695 216.634 231.71 212.563 231.672 208.485L231.687 208.477Z" fill="#263238"/>
<path d="M223.76 202.111C223.76 202.111 214.627 195.357 205.959 199.923C197.292 204.49 195.933 222.085 195.933 222.085C195.933 222.085 208.663 223.9 216.674 216.284C224.394 208.942 223.76 202.111 223.76 202.111Z" fill="#DFD1D5"/>
<path d="M226.25 202.53C224.6 201.837 222.76 201.669 220.958 201.844C220.591 201.761 220.209 201.76 219.835 201.738C219.408 201.707 218.98 201.677 218.545 201.639C217.659 201.57 216.765 201.517 215.879 201.448C214.077 201.311 212.267 201.204 210.473 201.021C210.412 201.021 210.396 201.128 210.457 201.135C212.237 201.364 214.008 201.616 215.795 201.799C216.712 201.89 217.628 201.989 218.552 202.05C218.766 202.065 218.995 202.088 219.224 202.119C218.949 202.18 218.682 202.241 218.415 202.317C216.979 202.721 215.605 203.3 214.276 203.994C213.558 204.124 212.84 204.322 212.138 204.49C211.007 204.757 209.885 205.046 208.762 205.344C206.547 205.923 204.348 206.579 202.149 207.219C202.08 207.242 202.111 207.349 202.179 207.333C204.379 206.792 206.586 206.304 208.793 205.778C209.862 205.527 210.939 205.275 212.008 205.008C212.283 204.94 212.565 204.879 212.848 204.818C210.389 206.327 208.174 208.271 206.357 210.451C204.539 212.632 203.096 215.018 201.843 217.557C201.813 217.625 201.904 217.686 201.943 217.618C203.416 215.033 205.272 212.601 207.403 210.467C207.365 210.589 207.319 210.711 207.281 210.833C207.113 211.366 206.945 211.908 206.777 212.441C206.441 213.516 206.097 214.584 205.776 215.666C205.753 215.742 205.86 215.765 205.891 215.697C206.273 214.66 206.639 213.608 207.006 212.563C207.189 212.052 207.365 211.534 207.548 211.023C207.64 210.756 207.731 210.49 207.823 210.223C207.853 210.139 207.884 210.063 207.914 209.979C208.938 208.988 210.022 208.058 211.152 207.227C212.649 206.121 214.283 205.191 216.002 204.452C215.971 204.612 215.941 204.764 215.91 204.917C215.818 205.336 215.727 205.748 215.643 206.167C215.467 207.028 215.299 207.898 215.131 208.759C214.787 210.52 214.574 212.312 214.245 214.073C214.23 214.149 214.344 214.172 214.36 214.103C214.772 212.327 215.299 210.581 215.696 208.805C215.895 207.913 216.093 207.028 216.277 206.136C216.361 205.717 216.445 205.306 216.529 204.886C216.574 204.657 216.628 204.421 216.658 204.185C216.826 204.116 216.987 204.04 217.155 203.979C219.553 203.095 222.203 202.447 224.753 202.942C227.197 203.407 229.289 205.046 230.252 207.341C230.336 207.539 230.649 207.417 230.603 207.211C230.106 205.023 228.274 203.392 226.265 202.553L226.25 202.53Z" fill="#263238"/>
<path d="M212.267 210.04C212.008 211.191 211.756 212.35 211.496 213.509C211.252 214.614 210.954 215.75 210.855 216.878C210.855 216.924 210.916 216.924 210.931 216.886C211.305 215.803 211.488 214.614 211.71 213.493C211.931 212.35 212.16 211.214 212.382 210.07C212.397 209.994 212.283 209.971 212.267 210.04Z" fill="#263238"/>
<path d="M203.432 212.975C202.271 213.562 201.141 214.233 199.927 214.713C199.85 214.744 199.896 214.858 199.972 214.82C201.141 214.24 202.355 213.722 203.455 213.021C203.485 213.005 203.455 212.96 203.424 212.975H203.432Z" fill="#263238"/>
<path d="M225.815 189.708C225.815 189.708 214.65 190.417 209.457 183.067C204.264 175.718 205.433 165.228 205.433 165.228C205.433 165.228 217.155 166.654 221.813 171.929C226.471 177.205 225.815 189.708 225.815 189.708Z" fill="#DFD1D5"/>
<path d="M231.053 200.701C230.664 199.504 230.19 198.33 229.74 197.156C229.305 196.028 228.846 194.922 228.35 193.817C227.35 191.568 226.242 189.38 225.005 187.253C224.219 185.896 223.371 184.584 222.508 183.288C222.493 183.09 222.447 182.892 222.424 182.694C222.371 182.351 222.325 182 222.271 181.657C222.164 180.948 222.035 180.247 221.92 179.545C221.66 178.005 221.347 176.481 221.103 174.941C221.095 174.872 220.973 174.872 220.988 174.941C221.21 176.458 221.363 177.99 221.576 179.515C221.683 180.262 221.783 181.009 221.889 181.756C221.928 182.023 221.973 182.297 222.019 182.564C220.316 180.087 218.476 177.693 216.498 175.413C216.231 175.108 215.956 174.803 215.681 174.506C215.65 174.422 215.612 174.338 215.574 174.254C215.49 174.041 215.414 173.827 215.33 173.614C215.169 173.172 215.009 172.73 214.848 172.287C214.535 171.418 214.253 170.534 214.016 169.634C214.001 169.566 213.886 169.596 213.902 169.665C214.131 170.58 214.367 171.495 214.635 172.394C214.764 172.829 214.91 173.263 215.062 173.69C215.085 173.759 215.116 173.835 215.139 173.904C213.711 172.348 212.221 170.854 210.717 169.375C210.664 169.322 210.587 169.406 210.641 169.459C213.558 172.44 216.139 175.733 218.552 179.134C218.277 179.05 218.002 178.981 217.727 178.928C216.865 178.76 216.002 178.638 215.131 178.531C213.314 178.303 211.496 178.074 209.686 177.784C209.61 177.769 209.587 177.883 209.656 177.899C211.389 178.242 213.1 178.63 214.818 179.019C215.627 179.202 216.445 179.362 217.254 179.522C217.934 179.66 218.568 179.865 219.217 180.079C219.4 180.338 219.583 180.59 219.759 180.849C220.576 182.038 221.363 183.25 222.134 184.478C221.752 184.402 221.378 184.333 220.996 184.257C220.133 184.089 219.27 183.936 218.399 183.792C216.697 183.51 214.994 183.22 213.314 182.831C213.237 182.816 213.214 182.923 213.283 182.945C214.994 183.342 216.681 183.814 218.377 184.264C219.194 184.478 220.018 184.684 220.843 184.859C221.256 184.95 221.668 185.042 222.088 185.126C222.264 185.164 222.432 185.21 222.592 185.21C224.219 187.847 225.754 190.554 227.166 193.306C227.793 194.518 228.388 195.746 228.969 196.973C229.564 198.238 230.076 199.527 230.626 200.815C230.733 201.074 231.145 200.968 231.053 200.686V200.701Z" fill="#263238"/>
<path d="M219.629 175.093C219.415 174.033 219.194 172.974 218.957 171.914C218.942 171.838 218.835 171.876 218.842 171.944C219.056 172.989 219.255 174.033 219.446 175.085C219.637 176.122 219.782 177.189 220.08 178.211C220.08 178.226 220.118 178.226 220.11 178.211C220.057 177.167 219.828 176.122 219.621 175.101L219.629 175.093Z" fill="#263238"/>
<path d="M213.115 174.78C212.596 174.521 212.053 174.315 211.511 174.11C211.229 174.003 210.946 173.888 210.664 173.782C210.519 173.728 210.373 173.667 210.236 173.606C210.083 173.545 209.9 173.5 209.762 173.401C209.678 173.34 209.625 173.484 209.709 173.5C209.877 173.53 210.037 173.629 210.183 173.698C210.32 173.759 210.465 173.82 210.603 173.888C210.877 174.01 211.145 174.132 211.42 174.254C211.954 174.491 212.504 174.727 213.069 174.902C213.138 174.925 213.176 174.819 213.115 174.788V174.78Z" fill="#263238"/>
<path d="M237.239 180.94C237.239 180.94 243.997 168.346 254.269 166.394C264.548 164.443 270.833 175.001 270.833 175.001C270.833 175.001 263.333 184.561 253.902 186.223C244.471 187.893 237.231 180.94 237.231 180.94H237.239Z" fill="#DFD1D5"/>
<path d="M261.157 172.043C258.492 171.677 255.765 171.723 253.1 172.142C253.253 172.059 253.406 171.975 253.559 171.898C254.322 171.51 255.078 171.121 255.842 170.724C257.423 169.909 259.011 169.032 260.668 168.369C260.745 168.338 260.699 168.232 260.622 168.262C259.019 169.009 257.346 169.634 255.735 170.374C254.925 170.747 254.139 171.129 253.352 171.548C252.848 171.815 252.283 172.066 251.787 172.394C249.526 172.859 247.327 173.576 245.258 174.559C245.685 174.094 246.113 173.629 246.54 173.164C247.495 172.12 248.442 171.022 249.496 170.061C249.549 170.008 249.465 169.932 249.412 169.985C248.335 170.961 247.197 171.86 246.159 172.874C245.655 173.37 245.166 173.873 244.7 174.399C244.463 174.658 244.227 174.933 244.005 175.207C239.538 177.632 235.735 181.291 233.23 185.72C231.802 188.236 230.809 190.958 230.229 193.786C230.213 193.855 230.32 193.9 230.336 193.824C231.748 189.067 234.414 184.6 237.888 181.062C241.661 177.22 246.434 174.452 251.657 173.111C254.757 172.318 257.965 172.036 261.157 172.249C261.287 172.257 261.302 172.066 261.172 172.051L261.157 172.043Z" fill="#263238"/>
<path opacity="0.1" d="M270.84 175.001C270.84 175.001 263.341 184.561 253.91 186.223C246.716 187.497 240.798 183.753 238.392 181.908L237.873 181.055C237.873 181.055 242.737 176.961 251.94 174.597C261.142 172.234 270.833 174.994 270.833 174.994L270.84 175.001Z" fill="black"/>
<path d="M255.185 167.553C254.406 168.026 253.627 168.498 252.902 169.055C252.184 169.604 251.52 170.198 250.916 170.869C250.863 170.93 250.947 171.007 251.008 170.953C251.688 170.359 252.375 169.771 253.085 169.207C253.78 168.658 254.49 168.11 255.246 167.652C255.307 167.614 255.246 167.515 255.185 167.553Z" fill="#263238"/>
<path d="M260.829 169.68C260.447 169.84 260.057 169.977 259.675 170.13C259.294 170.29 258.912 170.442 258.53 170.603C258.446 170.633 258.484 170.77 258.568 170.732C258.95 170.58 259.332 170.42 259.714 170.267C260.095 170.115 260.47 169.939 260.851 169.779C260.92 169.749 260.89 169.642 260.821 169.665L260.829 169.68Z" fill="#263238"/>
<path d="M235.887 196.797C235.887 196.797 237.69 209.293 247.106 213.661C256.521 218.029 267.992 213.661 267.992 213.661C267.992 213.661 263.478 186.627 235.887 196.797Z" fill="#DFD1D5"/>
<path d="M261.508 205.534C260.638 205.435 259.775 205.29 258.919 205.13C258.499 205.054 258.079 204.978 257.652 204.894C257.438 204.848 257.216 204.802 256.987 204.764C256.735 204.528 256.483 204.291 256.224 204.063C254.444 202.492 252.512 201.105 250.466 199.9C249.351 199.245 248.198 198.65 247.014 198.132C247.075 198.132 247.128 198.132 247.19 198.139C248.22 198.185 249.251 198.223 250.29 198.276C252.36 198.376 254.421 198.421 256.483 198.551C256.56 198.551 256.552 198.437 256.483 198.437C254.414 198.299 252.352 198.071 250.282 197.888C249.282 197.804 248.274 197.712 247.274 197.621C246.754 197.575 246.243 197.529 245.723 197.484C245.593 197.476 245.456 197.453 245.326 197.438C244.792 197.24 244.249 197.049 243.7 196.881C241.126 196.081 238.362 195.768 235.727 196.439C233.36 197.041 231 198.597 230.381 201.082C230.358 201.166 230.496 201.227 230.534 201.143C231.42 199.062 233.734 198.01 235.826 197.583C237.231 197.293 238.667 197.308 240.087 197.499C240.149 198.139 240.385 198.795 240.561 199.389C240.821 200.266 241.08 201.151 241.348 202.027C241.882 203.781 242.47 205.519 242.989 207.28C243.012 207.349 243.119 207.318 243.104 207.249C242.669 205.496 242.294 203.727 241.874 201.966C241.668 201.105 241.447 200.243 241.233 199.382C241.096 198.833 240.981 198.177 240.759 197.606C241.584 197.75 242.409 197.949 243.203 198.177C244.647 198.604 246.075 199.13 247.472 199.74C247.61 200.632 247.808 201.516 248.014 202.393C248.274 203.499 248.556 204.589 248.908 205.664C248.931 205.732 249.03 205.702 249.015 205.633C248.999 205.565 248.984 205.496 248.976 205.427C248.763 204.406 248.541 203.384 248.327 202.363C248.152 201.539 247.991 200.716 247.816 199.893C248.984 200.419 250.137 200.99 251.245 201.631C251.267 201.882 251.329 202.149 251.367 202.378C251.435 202.805 251.512 203.232 251.588 203.659C251.764 204.619 251.955 205.58 252.192 206.533C252.634 208.37 253.138 210.2 253.81 211.969C253.795 211.991 253.795 212.014 253.81 212.045C253.826 212.068 253.849 212.083 253.864 212.106C253.902 212.151 253.971 212.098 253.956 212.045C253.52 210.192 253.024 208.355 252.612 206.495C252.405 205.565 252.207 204.642 252.016 203.704C251.924 203.239 251.84 202.774 251.749 202.309C251.726 202.18 251.703 202.035 251.68 201.89C252.948 202.637 254.177 203.453 255.345 204.33C257.354 205.839 259.278 207.57 260.958 209.445C261.027 209.521 261.157 209.415 261.096 209.331C260.378 208.385 259.668 207.471 258.851 206.601C258.377 206.098 257.888 205.603 257.384 205.13C257.438 205.138 257.491 205.145 257.537 205.161C257.98 205.237 258.423 205.298 258.866 205.359C259.736 205.473 260.607 205.557 261.485 205.656C261.562 205.664 261.585 205.549 261.516 205.542L261.508 205.534Z" fill="#263238"/>
<path d="M254.895 209.773C254.88 209.666 254.864 209.559 254.841 209.453C254.811 209.315 254.75 209.186 254.727 209.041C254.536 208.202 254.368 207.364 254.215 206.518C254.208 206.457 254.108 206.479 254.116 206.533C254.154 207.646 254.429 208.759 254.834 209.796C254.849 209.826 254.903 209.826 254.903 209.788C254.903 209.788 254.903 209.788 254.903 209.781L254.895 209.773Z" fill="#263238"/>
<path d="M247.014 209.575C247.014 209.575 246.983 209.521 246.96 209.521C246.693 208.416 246.441 207.311 246.212 206.19C246.09 205.603 245.968 205.016 245.853 204.429C245.792 204.116 245.731 203.796 245.677 203.476C245.632 203.201 245.601 202.912 245.471 202.66C245.448 202.614 245.372 202.63 245.364 202.675C245.288 203.201 245.502 203.834 245.601 204.353C245.716 204.962 245.838 205.572 245.968 206.175C246.243 207.41 246.548 208.637 246.899 209.849C246.922 209.918 247.029 209.903 247.022 209.826C247.022 209.735 247.006 209.643 247.006 209.552L247.014 209.575Z" fill="#263238"/>
<path d="M260.653 201.936C258.935 201.7 257.216 201.456 255.491 201.242C255.422 201.234 255.391 201.341 255.46 201.356C257.178 201.608 258.896 201.821 260.622 202.05C260.699 202.058 260.722 201.951 260.653 201.936Z" fill="#263238"/>
<path d="M231.069 167.492C231.069 167.492 225.311 142.265 252.459 132.057C252.459 132.057 259.981 165.258 231.069 167.492Z" fill="#DFD1D5"/>
<path d="M236.926 153.182C237.025 153.121 237.125 153.053 237.216 153.007C237.728 152.725 238.239 152.435 238.751 152.153L241.897 150.392C243.967 149.233 246.014 148.029 248.098 146.901C248.167 146.862 248.098 146.763 248.037 146.801C245.945 147.937 243.822 148.997 241.714 150.11L238.598 151.749C238.178 151.97 237.751 152.199 237.331 152.42C238.239 150.705 239.202 149.028 240.271 147.404C241.691 145.246 243.241 143.188 244.86 141.168C244.937 141.076 244.815 140.954 244.723 141.038C242.325 143.325 240.256 145.94 238.446 148.723C238.446 148.631 238.446 148.547 238.453 148.463C238.484 147.838 238.499 147.206 238.507 146.58C238.522 145.353 238.469 144.118 238.507 142.883C238.507 142.807 238.392 142.814 238.392 142.883C238.339 144.095 238.194 145.3 238.125 146.512C238.087 147.114 238.064 147.724 238.049 148.326C238.041 148.654 238.01 149.028 238.018 149.386C237.461 150.27 236.918 151.177 236.414 152.092C235.513 153.716 234.704 155.424 233.986 157.17C233.955 156.545 233.917 155.912 233.887 155.287C233.803 153.907 233.635 152.527 233.581 151.147C233.581 151.071 233.467 151.078 233.467 151.147C233.497 152.527 233.428 153.907 233.467 155.294C233.489 155.988 233.512 156.674 233.558 157.368C233.573 157.619 233.589 157.879 233.604 158.138C232.741 160.402 232.046 162.727 231.557 165.068C231.03 167.591 230.817 170.122 230.549 172.684C230.549 172.699 230.58 172.699 230.58 172.684C230.817 170.404 231.397 168.094 232.023 165.891C232.359 164.702 232.711 163.513 233.092 162.339C234.223 161.805 235.307 161.142 236.391 160.539C237.522 159.914 238.667 159.297 239.797 158.679C242.058 157.436 244.326 156.179 246.663 155.081C246.731 155.05 246.663 154.951 246.602 154.982C244.234 156.049 241.852 157.071 239.522 158.237C238.362 158.816 237.224 159.434 236.101 160.074C235.162 160.608 234.192 161.134 233.291 161.744C233.558 160.959 233.825 160.181 234.131 159.403C234.956 157.284 235.887 155.203 236.918 153.175L236.926 153.182Z" fill="#263238"/>
<path d="M234.635 147.419C234.635 147.343 234.513 147.35 234.52 147.419C234.62 148.86 234.666 150.293 234.818 151.734C234.826 151.818 234.948 151.81 234.948 151.734C234.895 150.293 234.742 148.86 234.635 147.419Z" fill="#263238"/>
<path d="M247.655 152.237C245.952 152.923 244.242 153.571 242.554 154.273C242.508 154.296 242.531 154.372 242.577 154.349C244.295 153.709 245.983 153.007 247.694 152.344C247.762 152.313 247.732 152.207 247.663 152.23L247.655 152.237Z" fill="#263238"/>
<path d="M250.237 140.596C248.572 141.366 246.96 142.212 245.41 143.18C245.334 143.226 245.41 143.348 245.487 143.302C247.06 142.38 248.663 141.503 250.298 140.695C250.366 140.664 250.298 140.565 250.237 140.596Z" fill="#263238"/>
<path d="M249.824 222.039H210.671V263.238H249.824V222.039Z" fill="#455A64"/>
<path d="M209.976 236.616H207.976V307.188H209.976V236.616Z" fill="#263238"/>
<path d="M252.306 236.616H250.305V307.188H252.306V236.616Z" fill="#263238"/>
<path d="M232.206 236.616H230.206V307.188H232.206V236.616Z" fill="#263238"/>
<path d="M251.306 260.6H208.976V266.302H251.306V260.6Z" fill="#263238"/>
<path d="M7.28534 307.188L68.9968 307.005L130.716 306.937L254.139 306.807L377.569 306.937L439.281 307.005L501 307.188L439.281 307.371L377.569 307.44L254.139 307.569L130.716 307.44L68.9968 307.371L7.28534 307.188Z" fill="#263238"/>
<path d="M488.827 15.7657H372.728V307.005H488.827V15.7657Z" fill="white"/>
<path d="M499.893 3.77368V307.005H488.827V15.5446H372.728V307.005H361.67V3.77368H499.893Z" fill="#37474F"/>
<path d="M397.768 317L489.797 307.005V15.5447L397.402 2.52344L397.768 317Z" fill="#455A64"/>
<path d="M392.507 2.08887L397.768 2.82836V317L392.507 315.994V2.08887Z" fill="#37474F"/>
<path d="M440.747 273.705L412.782 275.756V22.5889L440.747 25.9129V273.705Z" fill="#DBDBDB"/>
<path d="M478.281 270.663L450.316 273.042V27.0488L478.281 30.3803V270.663Z" fill="#DBDBDB"/>
<path d="M440.755 25.9205V29.9915L412.782 51.3225V37.9964L430.361 24.6854L440.755 25.9205Z" fill="#EBEBEB"/>
<path d="M412.782 197.75L440.755 171.373V184.241L412.782 211.077V197.75Z" fill="#EBEBEB"/>
<path d="M478.281 138.644V150.895L450.316 175.451V162.75L478.281 138.644Z" fill="#EBEBEB"/>
<path d="M478.281 243.424V255.675L461.977 272.081L450.316 273.034V271.456L478.281 243.424Z" fill="#EBEBEB"/>
<path d="M412.782 86.1856L440.755 63.6577V70.092L412.782 92.8563V86.1856Z" fill="#EBEBEB"/>
<path d="M478.281 36.0828V42.2123L450.316 62.6971V56.3389L478.281 36.0828Z" fill="#EBEBEB"/>
<path d="M412.782 269.634L440.755 240.778V247.213L413.309 275.718L412.782 275.756V269.634Z" fill="#EBEBEB"/>
<path d="M478.281 204.726V210.848L450.316 237.645V231.302L478.281 204.726Z" fill="#EBEBEB"/>
<path d="M412.782 76.0004L440.755 53.8231V55.8282L412.782 78.074V76.0004Z" fill="#EBEBEB"/>
<path d="M476.105 30.1211L450.316 48.6009V46.6264L473.745 29.8391L476.105 30.1211Z" fill="#EBEBEB"/>
<path d="M422.267 275.093L440.755 255.85V257.855L424.336 274.933L422.267 275.093Z" fill="#EBEBEB"/>
<path d="M478.281 219.074V220.987L450.316 248.166V246.191L478.281 219.074Z" fill="#EBEBEB"/>
<path d="M412.782 122.596L440.755 98.818V100.831L412.782 124.677V122.596Z" fill="#EBEBEB"/>
<path d="M478.281 69.5583V71.4795L450.316 93.0545V91.0724L478.281 69.5583Z" fill="#EBEBEB"/>
<path d="M412.782 181.1L440.755 155.294V157.299L412.782 183.174V181.1Z" fill="#EBEBEB"/>
<path d="M478.281 123.336V125.242L450.316 148.845V146.862L478.281 123.336Z" fill="#EBEBEB"/>
<path d="M411.804 198.459L403.45 200.045L403.48 165.807L411.843 164.709L411.804 198.459Z" fill="#C7C7C7"/>
<path d="M420.212 170.145L407.642 172.043V168.155L420.212 166.318V170.145Z" fill="#C7C7C7"/>
<path d="M417.96 176.381V166.646L420.212 166.318V176.023L417.96 176.381Z" fill="#C7C7C7"/>
<path d="M101.368 224.418C97.9854 226.415 94.5718 228.352 91.1506 230.273C87.7294 232.202 84.2776 234.07 80.8488 235.968C77.3894 237.821 73.9453 239.696 70.4706 241.526L65.2548 244.255C63.5061 245.147 61.7649 246.054 60.0009 246.923C61.6885 245.917 63.3915 244.949 65.0945 243.965L70.2186 241.068C73.6398 239.147 77.0916 237.272 80.5204 235.373C83.9798 233.521 87.4239 231.645 90.8986 229.816C94.3732 227.986 97.8479 226.172 101.368 224.418Z" fill="#DBDBDB"/>
<path d="M62.9257 224.418C66.1941 225.973 69.4321 227.597 72.6547 229.229C75.885 230.86 79.0847 232.545 82.2998 234.199C85.4919 235.899 88.6992 237.577 91.8761 239.307L96.6337 241.907C98.2068 242.799 99.7952 243.668 101.361 244.575C99.7265 243.805 98.1075 242.997 96.4809 242.204L91.6317 239.772C88.4014 238.141 85.2017 236.456 81.9867 234.802C78.7945 233.094 75.5872 231.424 72.4103 229.694C69.2335 227.963 66.0567 226.225 62.918 224.426L62.9257 224.418Z" fill="#DBDBDB"/>
<path d="M140.407 224.418C137.024 226.415 133.61 228.352 130.189 230.273C126.768 232.202 123.316 234.07 119.887 235.968C116.428 237.821 112.984 239.696 109.509 241.526L104.293 244.255C102.544 245.147 100.803 246.054 99.0392 246.923C100.727 245.917 102.43 244.949 104.133 243.965L109.257 241.068C112.678 239.147 116.13 237.272 119.559 235.373C123.018 233.521 126.462 231.645 129.937 229.816C133.412 227.986 136.886 226.172 140.407 224.418Z" fill="#DBDBDB"/>
<path d="M101.972 224.418C105.24 225.973 108.478 227.597 111.701 229.229C114.931 230.86 118.131 232.545 121.346 234.199C124.538 235.899 127.745 237.577 130.922 239.307L135.68 241.907C137.253 242.799 138.841 243.668 140.407 244.575C138.772 243.805 137.153 242.997 135.527 242.204L130.678 239.772C127.447 238.141 124.248 236.456 121.033 234.802C117.841 233.094 114.633 231.424 111.456 229.694C108.279 227.963 105.103 226.225 101.964 224.426L101.972 224.418Z" fill="#DBDBDB"/>
<path d="M133.274 219.028L135.344 231.409L149.357 306.96H151.61L141.422 231.409L139.918 219.028H133.274Z" fill="#DBDBDB"/>
<path d="M139.918 219.028H133.274L135.344 231.409H141.422L139.918 219.028Z" fill="#C7C7C7"/>
<path d="M89.2643 306.96H91.5248L105.538 231.409L107.607 219.028H100.964L99.4592 231.409L89.2643 306.96Z" fill="#DBDBDB"/>
<path d="M100.964 219.028L99.4592 231.409H105.538L107.607 219.028H100.964Z" fill="#C7C7C7"/>
<path d="M47.2324 306.96H49.4929L63.5061 231.409L65.5756 219.028H58.9317L57.4273 231.409L47.2324 306.96Z" fill="#DBDBDB"/>
<path d="M57.4273 231.409H63.5061L65.5756 219.028H58.9317L57.4273 231.409Z" fill="#C7C7C7"/>
<path d="M50.814 224.845H153.504V214.042H115.061L102.14 131.021H54.7315L50.814 224.845Z" fill="#DBDBDB"/>
<path d="M50.814 224.845H56.4116L60.0619 131.021H54.7315L50.814 224.845Z" fill="#C7C7C7"/>
<path d="M38.9238 259.845H20.5807V263.062H38.9238V259.845Z" fill="#455A64"/>
<path d="M48.8744 306.96H46.8889L30.7374 231.661L29.8134 227.368L26.9115 213.852L25.8347 208.812L21.7644 189.898L20.3516 183.273H27.4079L28.5533 189.898L29.3094 194.244L29.8134 197.141L32.7077 213.852L33.647 219.234L48.8744 306.96Z" fill="#455A64"/>
<path d="M27.4079 183.273L28.5533 189.898H21.7644L20.3516 183.273H27.4079Z" fill="#263238"/>
<path d="M33.647 219.234L30.7374 231.661L29.8134 227.368L26.9115 213.852L25.8347 208.812L29.3094 194.244L29.8134 197.141L32.7077 213.852L33.647 219.234Z" fill="#263238"/>
<path d="M39.2751 183.273L37.8547 189.898L32.7076 213.852L29.8134 227.368L12.7303 306.96H10.76L26.9114 213.852L29.8134 197.141L31.0658 189.898L32.2189 183.273H39.2751Z" fill="#455A64"/>
<path d="M39.2751 183.273L37.8547 189.898H31.0657L32.2189 183.273H39.2751Z" fill="#263238"/>
<path d="M218.774 259.845H200.431V263.062H218.774V259.845Z" fill="#455A64"/>
<path d="M228.724 306.96H226.739L210.587 231.661L209.663 227.368L206.761 213.852L205.685 208.812L201.614 189.898L200.201 183.273H207.258L208.403 189.898L209.159 194.244L209.663 197.141L212.558 213.852L213.497 219.234L228.724 306.96Z" fill="#455A64"/>
<path d="M207.258 183.273L208.403 189.898H201.614L200.201 183.273H207.258Z" fill="#263238"/>
<path d="M213.497 219.234L210.587 231.661L209.663 227.368L206.761 213.852L205.685 208.812L209.159 194.244L209.663 197.141L212.558 213.852L213.497 219.234Z" fill="#263238"/>
<path d="M219.125 183.273L217.705 189.898L212.557 213.852L209.663 227.368L192.58 306.96H190.61L206.761 213.852L209.663 197.141L210.916 189.898L212.069 183.273H219.125Z" fill="#455A64"/>
<path d="M219.125 183.273L217.705 189.898H210.916L212.069 183.273H219.125Z" fill="#263238"/>
<path d="M232.871 178.432H6.60565V183.273H232.871V178.432Z" fill="#455A64"/>
<path d="M239.477 169.185H0V178.432H239.477V169.185Z" fill="#37474F"/>
<path d="M160.323 166.547H101.43V169.185H160.323V166.547Z" fill="#455A64"/>
<path d="M160.315 166.547H130.678V169.185H160.315V166.547Z" fill="#37474F"/>
<path d="M133.87 169.185H191.259L198.766 130.273H141.369L133.87 169.185Z" fill="#455A64"/>
<path d="M162.82 149.729C162.652 151.658 164.08 153.213 166.005 153.213C167.929 153.213 169.632 151.65 169.8 149.729C169.968 147.8 168.54 146.245 166.616 146.245C164.691 146.245 162.988 147.808 162.82 149.729Z" fill="white"/>
<path d="M24.1012 168.948H56.9997L56.9997 137.394H24.1012L24.1012 168.948Z" fill="#EBEBEB"/>
<path d="M11.6001 168.948H24.1012L24.1012 137.394H11.6001L11.6001 168.948Z" fill="#C7C7C7"/>
<path d="M56.9997 153.175H24.1088L49.7984 153.983L56.9997 153.175Z" fill="#C7C7C7"/>
<path d="M24.1088 165.136H56.9997L31.3102 165.952L24.1088 165.136Z" fill="#C7C7C7"/>
<path d="M56.9997 144.354H36.1671L54.6858 145.018L56.9997 144.354Z" fill="#C7C7C7"/>
<path d="M24.1088 160.494H44.9415L26.4227 161.157L24.1088 160.494Z" fill="#C7C7C7"/>
<path d="M49.1111 140.84H25.6132L29.5232 141.236L49.1111 140.84Z" fill="#C7C7C7"/>
<path d="M53.8076 156.552H30.3021L34.2197 156.956L53.8076 156.552Z" fill="#C7C7C7"/>
<path d="M39.3515 147.358H24.1088L21.3826 148.418L39.3515 147.358Z" fill="#EBEBEB"/>
<path d="M61.1998 147.358H45.9572L43.2309 148.418L61.1998 147.358Z" fill="#DBDBDB"/>
<path d="M41.6425 161.538H56.8851L59.6114 162.598L41.6425 161.538Z" fill="#DBDBDB"/>
<path d="M24.1088 157.94H11.8673L9.14105 158.999L24.1088 157.94Z" fill="#C7C7C7"/>
<path d="M19.8323 153.175H10.34L11.6077 152.306L19.8323 153.175Z" fill="#C7C7C7"/>
<path d="M49.1111 62.9944C63.8769 62.9944 75.8469 51.0447 75.8469 36.3039C75.8469 21.5632 63.8769 9.61346 49.1111 9.61346C34.3453 9.61346 22.3753 21.5632 22.3753 36.3039C22.3753 51.0447 34.3453 62.9944 49.1111 62.9944Z" fill="#DFD1D5"/>
<path opacity="0.1" d="M53.3819 62.1853C67.3717 60.5026 77.3463 47.8168 75.6608 33.8507C73.9752 19.8847 61.2679 9.92698 47.2781 11.6096C33.2883 13.2923 23.3138 25.9781 24.9993 39.9442C26.6848 53.9103 39.3921 63.8679 53.3819 62.1853Z" fill="black"/>
<path d="M59.2334 59.0472C71.4843 54.1382 77.4294 40.244 72.512 28.0138C67.5945 15.7836 53.6768 9.8486 41.4258 14.7577C29.1749 19.6668 23.2298 33.5609 28.1472 45.7911C33.0646 58.0214 46.9824 63.9563 59.2334 59.0472Z" fill="white"/>
<path opacity="0.5" d="M73.6933 31.8365C62.8112 38.4233 44.9186 49.2184 34.9222 55.142C32.1196 52.7787 29.8668 49.7826 28.3929 46.3748L61.4595 15.781C67.6146 19.0211 72.1813 24.8608 73.6933 31.8365Z" fill="#EBEBEB"/>
<path opacity="0.5" d="M74.2202 37.7296C74.1286 40.4588 73.5788 43.0661 72.6395 45.4828L42.8261 59.5561C41.5203 59.1216 40.2602 58.5803 39.0613 57.9399C48.0648 52.7482 64.5217 43.2948 74.2126 37.7296H74.2202Z" fill="#EBEBEB"/>
<path d="M50.562 14.767H50.1038V18.3807H50.562V14.767Z" fill="#C7C7C7"/>
<path d="M39.4538 17.6119L39.0504 17.8444L40.8603 20.9739L41.2637 20.7414L39.4538 17.6119Z" fill="#C7C7C7"/>
<path d="M31.2521 25.6371L31.023 26.0333L34.1578 27.8401L34.3869 27.4439L31.2521 25.6371Z" fill="#C7C7C7"/>
<path d="M31.7912 36.6699H28.1714V37.1273H31.7912V36.6699Z" fill="#C7C7C7"/>
<path d="M34.1542 45.9564L31.0194 47.7632L31.2485 48.1594L34.3833 46.3526L34.1542 45.9564Z" fill="#C7C7C7"/>
<path d="M40.8615 52.8218L39.0533 55.9522L39.4568 56.1845L41.2651 53.0541L40.8615 52.8218Z" fill="#C7C7C7"/>
<path d="M50.562 55.4088H50.1038V59.0224H50.562V55.4088Z" fill="#C7C7C7"/>
<path d="M59.8079 52.8137L59.4045 53.0463L61.2144 56.1758L61.6178 55.9432L59.8079 52.8137Z" fill="#C7C7C7"/>
<path d="M66.5128 45.9585L66.2837 46.3546L69.4185 48.1614L69.6476 47.7653L66.5128 45.9585Z" fill="#C7C7C7"/>
<path d="M72.502 36.6699H68.8822V37.1273H72.502V36.6699Z" fill="#C7C7C7"/>
<path d="M69.4197 25.6359L66.2849 27.4427L66.5139 27.8388L69.6488 26.032L69.4197 25.6359Z" fill="#C7C7C7"/>
<path d="M61.218 17.6228L59.4098 20.7532L59.8133 20.9855L61.6216 17.8551L61.218 17.6228Z" fill="#C7C7C7"/>
<path d="M64.5523 21.9409L48.3398 37.0129L49.9587 38.591L64.9876 22.3678L64.5523 21.9409Z" fill="#455A64"/>
<path d="M45.7433 21.2472L49.554 38.4691L51.7304 37.8287L46.3314 21.0718L45.7433 21.2472Z" fill="#263238"/>
<path d="M49.7907 36.3497C49.4853 36.6546 49.4853 37.1425 49.7907 37.4399C50.0962 37.7448 50.585 37.7448 50.8828 37.4399C51.1882 37.1349 51.1882 36.647 50.8828 36.3497C50.5773 36.0447 50.0886 36.0447 49.7907 36.3497Z" fill="#DFD1D5"/>
<path d="M54.6934 154.768L44.6742 154.982L39.5882 155.066C37.8852 155.104 36.1823 155.096 34.4793 155.111H34.1433V154.768L34.1051 146.237V145.856H34.4869L44.5978 145.902C47.9656 145.902 51.3409 145.986 54.7087 146.024H54.9225V146.23C54.9072 147.678 54.8538 149.119 54.8232 150.537L54.7163 154.761L54.6934 154.768ZM54.6934 154.768L54.5865 150.461C54.5483 149.043 54.5025 147.64 54.4872 146.237L54.6934 146.443C51.3257 146.481 47.9503 146.565 44.5825 146.565L34.4717 146.611L34.8535 146.23L34.8153 154.761L34.4717 154.418C36.1364 154.433 37.8012 154.418 39.4736 154.463L44.4985 154.547L54.701 154.761L54.6934 154.768Z" fill="#EBEBEB"/>
<path d="M189.388 212.746L179.369 212.96L174.283 213.044C172.58 213.082 170.877 213.074 169.174 213.089H168.838V212.746L168.8 204.215V203.834H169.182L179.292 203.88C182.66 203.88 186.036 203.964 189.403 204.002H189.617V204.208C189.602 205.656 189.548 207.097 189.518 208.515L189.411 212.739L189.388 212.746ZM189.388 212.746L189.281 208.439C189.243 207.021 189.197 205.618 189.182 204.215L189.388 204.421C186.02 204.459 182.645 204.543 179.277 204.543L169.166 204.589L169.548 204.208L169.51 212.739L169.166 212.396C170.831 212.411 172.496 212.396 174.168 212.441L179.193 212.525L189.396 212.739L189.388 212.746Z" fill="#EBEBEB"/>
<path d="M43.4141 165.525L33.3949 165.739L28.3089 165.823C26.6059 165.861 24.903 165.853 23.2 165.868H22.864V165.525L22.8258 156.994V156.613H23.2076L33.3185 156.659C36.6863 156.659 40.0616 156.743 43.4294 156.781H43.6432V156.987C43.6279 158.435 43.5745 159.876 43.5439 161.294L43.437 165.518L43.4141 165.525ZM43.4141 165.525L43.3072 161.218C43.269 159.8 43.2232 158.397 43.2079 156.994L43.4141 157.2C40.0464 157.238 36.671 157.322 33.3032 157.322L23.1924 157.368L23.5742 156.987L23.536 165.518L23.1924 165.175C24.8571 165.19 26.5219 165.175 28.1943 165.22L33.2192 165.304L43.4218 165.518L43.4141 165.525Z" fill="#EBEBEB"/>
<path d="M65.9727 156.994H45.7509V165.525H65.9727V156.994Z" fill="#EBEBEB"/>
<path d="M238.522 127.247L228.503 127.46L223.417 127.544C221.714 127.582 220.011 127.575 218.308 127.582H217.972V127.239L217.934 118.708V118.327H218.315L228.426 118.373C231.794 118.373 235.169 118.457 238.537 118.495H238.751V118.701C238.736 120.149 238.682 121.59 238.652 123.008L238.545 127.231L238.522 127.247ZM238.522 127.247L238.415 122.939C238.377 121.521 238.331 120.119 238.316 118.716L238.522 118.922C235.154 118.96 231.779 119.044 228.411 119.044L218.3 119.089L218.682 118.708L218.644 127.239L218.3 126.896C219.965 126.911 221.63 126.896 223.302 126.942L228.327 127.026L238.53 127.239L238.522 127.247Z" fill="#EBEBEB"/>
<path d="M227.243 129.473H207.021V138.004H227.243V129.473Z" fill="#EBEBEB"/>
<path d="M249.801 138.004L239.782 138.217L234.696 138.301C232.993 138.339 231.29 138.332 229.587 138.339H229.251V137.996L229.213 129.465V129.084H229.595L239.706 129.13C243.073 129.13 246.449 129.214 249.817 129.252H250.03V129.458C250.015 130.906 249.962 132.347 249.931 133.765L249.824 137.989L249.801 138.004ZM249.801 138.004L249.694 133.696C249.656 132.278 249.61 130.876 249.595 129.473L249.801 129.679C246.434 129.717 243.058 129.801 239.69 129.801L229.58 129.846L229.961 129.465L229.923 137.996L229.58 137.653C231.244 137.668 232.909 137.653 234.581 137.691L239.606 137.775L249.809 137.989L249.801 138.004Z" fill="#EBEBEB"/>
<path d="M481.443 129.526L471.423 129.74L466.337 129.824C464.634 129.862 462.931 129.854 461.228 129.869H460.892V129.526L460.854 120.995V120.614H461.236L471.347 120.66C474.715 120.66 478.09 120.744 481.458 120.782H481.672V120.988C481.656 122.436 481.603 123.877 481.572 125.295L481.465 129.519L481.443 129.526ZM481.443 129.526L481.336 125.219C481.297 123.801 481.252 122.398 481.236 120.995L481.443 121.201C478.075 121.239 474.699 121.323 471.332 121.323L461.221 121.369L461.603 120.988L461.564 129.519L461.221 129.176C462.886 129.191 464.55 129.176 466.223 129.221L471.248 129.305L481.45 129.519L481.443 129.526Z" fill="#EBEBEB"/>
<path d="M481.443 8.91207L471.423 9.12554L466.337 9.2094C464.634 9.24752 462.931 9.23989 461.228 9.25514H460.892V8.91207L460.854 0.381184V0H461.236L471.347 0.045742C474.715 0.045742 478.09 0.129602 481.458 0.167721H481.672V0.37356C481.656 1.82206 481.603 3.26293 481.572 4.68094L481.465 8.90445L481.443 8.91207ZM481.443 8.91207L481.336 4.6047C481.297 3.1867 481.252 1.78394 481.236 0.381184L481.443 0.587023C478.075 0.625141 474.699 0.709002 471.332 0.709002L461.221 0.754744L461.603 0.37356L461.564 8.90445L461.221 8.56139C462.886 8.57663 464.55 8.56139 466.223 8.60713L471.248 8.69099L481.45 8.90445L481.443 8.91207Z" fill="#EBEBEB"/>
<path d="M492.73 11.1382H472.508V19.6691H492.73V11.1382Z" fill="#EBEBEB"/>
<path d="M35.7775 8.91989L25.7583 9.13335L20.6723 9.21721C18.9693 9.25533 17.2664 9.24771 15.5634 9.26295H15.2274V8.91989L15.1892 0.388996V0.0078125H15.571L25.6819 0.0535545C29.0497 0.0535545 32.425 0.137415 35.7928 0.175533H36.0066V0.381373C35.9913 1.82987 35.9379 3.27075 35.9073 4.68875L35.8004 8.91226L35.7775 8.91989ZM35.7775 8.91989L35.6706 4.61251C35.6324 3.19451 35.5866 1.79175 35.5713 0.388996L35.7775 0.594835C32.4098 0.632954 29.0344 0.716814 25.6666 0.716814L15.5558 0.762556L15.9376 0.381373L15.8994 8.91226L15.5558 8.5692C17.2205 8.58445 18.8853 8.5692 20.5577 8.60732L25.5826 8.69118L35.7852 8.90464L35.7775 8.91989Z" fill="#EBEBEB"/>
<path d="M26.835 264.702L37.0376 264.488L42.0624 264.404C43.7349 264.366 45.392 264.374 47.0644 264.366L46.7208 264.709L46.6826 256.178L47.0644 256.559L36.9535 256.514C33.5858 256.514 30.2104 256.43 26.8427 256.392L27.0489 256.186C27.0336 257.581 26.9801 258.984 26.9496 260.409L26.8427 264.717L26.835 264.702ZM26.835 264.702L26.7281 260.478C26.6899 259.052 26.6441 257.619 26.6288 256.171V255.965H26.835C30.2028 255.927 33.5782 255.843 36.9459 255.843L47.0568 255.797H47.4386V256.178L47.4004 264.709V265.052H47.0568C45.3538 265.037 43.6432 265.052 41.9479 265.007L36.8619 264.923L26.8427 264.709L26.835 264.702Z" fill="#EBEBEB"/>
<path d="M15.5558 275.451H35.7775V266.92H15.5558V275.451Z" fill="#EBEBEB"/>
<path d="M472.508 264.709L482.71 264.496L487.735 264.412C489.408 264.374 491.065 264.381 492.737 264.366L492.394 264.709L492.355 256.178L492.737 256.56L482.626 256.514C479.259 256.514 475.883 256.43 472.515 256.392L472.722 256.186C472.706 257.581 472.653 258.984 472.622 260.409L472.515 264.717L472.508 264.709ZM472.508 264.709L472.401 260.486C472.363 259.06 472.317 257.627 472.302 256.178V255.973H472.508C475.876 255.934 479.251 255.851 482.619 255.851L492.73 255.805H493.111V256.186L493.073 264.717V265.06H492.73C491.027 265.045 489.316 265.06 487.621 265.014L482.535 264.93L472.515 264.717L472.508 264.709Z" fill="#EBEBEB"/>
<path d="M311.276 216.817L321.295 216.604L326.381 216.52C328.084 216.482 329.787 216.489 331.49 216.474H331.826V216.817L331.864 225.348V225.729H331.482L321.372 225.684C318.004 225.684 314.628 225.6 311.261 225.562H311.047V225.356C311.062 223.907 311.116 222.466 311.146 221.048L311.253 216.825L311.276 216.817ZM311.276 216.817L311.383 221.125C311.421 222.543 311.467 223.945 311.482 225.348L311.276 225.142C314.644 225.104 318.019 225.02 321.387 225.02L331.498 224.975L331.116 225.356L331.154 216.825L331.498 217.168C329.833 217.153 328.168 217.168 326.496 217.122L321.471 217.038L311.268 216.825L311.276 216.817Z" fill="#EBEBEB"/>
<path d="M322.555 214.591H342.777V206.06H322.555V214.591Z" fill="#EBEBEB"/>
<path d="M295.105 7.91339H95.2367V106.289H295.105V7.91339Z" fill="white"/>
<path d="M295.105 67.8354V107.921H212.46V40.3292H226.608V59.7162H230.261V48.7457H248.251V66.1201H250.638V25.3487H266.279V36.5326H274.304V50.4611H276.721V41.7015H290.945V67.8354H295.105Z" fill="#EBEBEB"/>
<path d="M216.59 42.7688H214.195V46.4739H216.59V42.7688Z" fill="white"/>
<path d="M220.743 42.7688H218.348V46.4739H220.743V42.7688Z" fill="white"/>
<path d="M224.895 42.7688H222.501V46.4739H224.895V42.7688Z" fill="white"/>
<path d="M216.59 48.3417H214.195V52.0468H216.59V48.3417Z" fill="white"/>
<path d="M220.743 48.3417H218.348V52.0468H220.743V48.3417Z" fill="white"/>
<path d="M224.895 48.3417H222.501V52.0468H224.895V48.3417Z" fill="white"/>
<path d="M216.59 53.9222H214.195V57.6273H216.59V53.9222Z" fill="white"/>
<path d="M220.743 53.9222H218.348V57.6273H220.743V53.9222Z" fill="white"/>
<path d="M224.895 53.9222H222.501V57.6273H224.895V53.9222Z" fill="white"/>
<path d="M216.59 59.4951H214.195V63.2002H216.59V59.4951Z" fill="white"/>
<path d="M220.743 59.4951H218.348V63.2002H220.743V59.4951Z" fill="white"/>
<path d="M224.895 59.4951H222.501V63.2002H224.895V59.4951Z" fill="white"/>
<path d="M246.083 51.1167H232.299V53.4343H246.083V51.1167Z" fill="white"/>
<path d="M246.083 55.6146H232.299V57.9322H246.083V55.6146Z" fill="white"/>
<path d="M246.083 60.1127H232.299V62.4303H246.083V60.1127Z" fill="white"/>
<path d="M246.083 64.6106H232.299V66.9282H246.083V64.6106Z" fill="white"/>
<path d="M246.083 69.101H232.299V71.4185H246.083V69.101Z" fill="white"/>
<path d="M246.083 73.5989H232.299V75.9165H246.083V73.5989Z" fill="white"/>
<path d="M246.083 78.0969H232.299V80.4145H246.083V78.0969Z" fill="white"/>
<path d="M246.083 82.5948H232.299V84.9124H246.083V82.5948Z" fill="white"/>
<path d="M285.14 43.798H280.881V46.0393H285.14V43.798Z" fill="white"/>
<path d="M285.14 48.1435H280.881V50.3849H285.14V48.1435Z" fill="white"/>
<path d="M285.14 52.4813H280.881V54.7227H285.14V52.4813Z" fill="white"/>
<path d="M285.14 56.8268H280.881V59.0682H285.14V56.8268Z" fill="white"/>
<path d="M285.14 61.1723H280.881V63.4137H285.14V61.1723Z" fill="white"/>
<path d="M285.14 65.5102H280.881V67.7516H285.14V65.5102Z" fill="white"/>
<path d="M285.14 69.8557H280.881V72.0971H285.14V69.8557Z" fill="white"/>
<path d="M285.14 74.1935H280.881V76.4349H285.14V74.1935Z" fill="white"/>
<path d="M290.937 43.798H286.679V46.0393H290.937V43.798Z" fill="white"/>
<path d="M290.937 48.1435H286.679V50.3849H290.937V48.1435Z" fill="white"/>
<path d="M290.937 52.4813H286.679V54.7227H290.937V52.4813Z" fill="white"/>
<path d="M290.937 56.8268H286.679V59.0682H290.937V56.8268Z" fill="white"/>
<path d="M290.937 61.1723H286.679V63.4137H290.937V61.1723Z" fill="white"/>
<path d="M290.937 65.5102H286.679V67.7516H290.937V65.5102Z" fill="white"/>
<path d="M290.937 69.8557H286.679V72.0971H290.937V69.8557Z" fill="white"/>
<path d="M290.937 74.1935H286.679V76.4349H290.937V74.1935Z" fill="white"/>
<path d="M257.443 27.6891H253.01V31.2189H257.443V27.6891Z" fill="white"/>
<path d="M264.051 27.6891H259.618V31.2189H264.051V27.6891Z" fill="white"/>
<path d="M257.443 32.8732H253.01V36.403H257.443V32.8732Z" fill="white"/>
<path d="M264.051 32.8732H259.618V36.403H264.051V32.8732Z" fill="white"/>
<path d="M257.443 38.0574H253.01V41.5871H257.443V38.0574Z" fill="white"/>
<path d="M264.051 38.0574H259.618V41.5871H264.051V38.0574Z" fill="white"/>
<path d="M257.443 43.2415H253.01V46.7712H257.443V43.2415Z" fill="white"/>
<path d="M264.051 43.2415H259.618V46.7712H264.051V43.2415Z" fill="white"/>
<path d="M257.443 48.4255H253.01V51.9553H257.443V48.4255Z" fill="white"/>
<path d="M264.051 48.4255H259.618V51.9553H264.051V48.4255Z" fill="white"/>
<path d="M257.443 53.6096H253.01V57.1394H257.443V53.6096Z" fill="white"/>
<path d="M264.051 53.6096H259.618V57.1394H264.051V53.6096Z" fill="white"/>
<path d="M257.443 58.7938H253.01V62.3235H257.443V58.7938Z" fill="white"/>
<path d="M264.051 58.7937H259.618V62.3235H264.051V58.7937Z" fill="white"/>
<path d="M257.443 63.9855H253.01V67.5152H257.443V63.9855Z" fill="white"/>
<path d="M264.051 63.9855H259.618V67.5152H264.051V63.9855Z" fill="white"/>
<path d="M272.25 38.0574H267.817V41.5871H272.25V38.0574Z" fill="white"/>
<path d="M272.25 43.2415H267.817V46.7712H272.25V43.2415Z" fill="white"/>
<path d="M272.25 48.4256H267.817V51.9554H272.25V48.4256Z" fill="white"/>
<path d="M272.25 53.6096H267.817V57.1394H272.25V53.6096Z" fill="white"/>
<path d="M272.25 58.7938H267.817V62.3236H272.25V58.7938Z" fill="white"/>
<path d="M272.25 63.9855H267.817V67.5152H272.25V63.9855Z" fill="white"/>
<path d="M257.443 69.101H253.01V72.6307H257.443V69.101Z" fill="white"/>
<path d="M264.051 69.101H259.618V72.6307H264.051V69.101Z" fill="white"/>
<path d="M272.25 69.101H267.817V72.6307H272.25V69.101Z" fill="white"/>
<path d="M257.443 74.2241H253.01V77.7538H257.443V74.2241Z" fill="white"/>
<path d="M264.051 74.2241H259.618V77.7539H264.051V74.2241Z" fill="white"/>
<path d="M272.25 74.2241H267.817V77.7539H272.25V74.2241Z" fill="white"/>
<path d="M257.443 79.3472H253.01V82.8769H257.443V79.3472Z" fill="white"/>
<path d="M264.051 79.3472H259.618V82.8769H264.051V79.3472Z" fill="white"/>
<path d="M272.25 79.3472H267.817V82.8769H272.25V79.3472Z" fill="white"/>
<path d="M257.443 84.4703H253.01V88.0001H257.443V84.4703Z" fill="white"/>
<path d="M264.051 84.4703H259.618V88.0001H264.051V84.4703Z" fill="white"/>
<path d="M272.25 84.4703H267.817V88.0001H272.25V84.4703Z" fill="white"/>
<path d="M257.443 89.5934H253.01V93.1231H257.443V89.5934Z" fill="white"/>
<path d="M264.051 89.5934H259.618V93.1231H264.051V89.5934Z" fill="white"/>
<path d="M272.25 89.5934H267.817V93.1231H272.25V89.5934Z" fill="white"/>
<path d="M212.46 107.921H94.2971V40.3292H108.453V59.7162H112.09V48.7457H130.088V66.1201H132.475V25.3411H148.116V36.5326H156.133V50.4611H158.566V41.7015H172.782V67.8354H176.942V46.5959H189.946V30.4565H198.782L209.012 30.5099V62.0262H212.46V107.921Z" fill="#EBEBEB"/>
<path d="M98.427 42.7688H96.0324V46.4739H98.427V42.7688Z" fill="white"/>
<path d="M102.58 42.7688H100.185V46.4739H102.58V42.7688Z" fill="white"/>
<path d="M106.725 42.7688H104.33V46.4739H106.725V42.7688Z" fill="white"/>
<path d="M98.427 48.3417H96.0324V52.0468H98.427V48.3417Z" fill="white"/>
<path d="M102.58 48.3417H100.185V52.0468H102.58V48.3417Z" fill="white"/>
<path d="M106.725 48.3417H104.33V52.0468H106.725V48.3417Z" fill="white"/>
<path d="M98.427 53.9222H96.0324V57.6273H98.427V53.9222Z" fill="white"/>
<path d="M102.58 53.9222H100.185V57.6273H102.58V53.9222Z" fill="white"/>
<path d="M106.725 53.9222H104.33V57.6273H106.725V53.9222Z" fill="white"/>
<path d="M98.427 59.4951H96.0324V63.2002H98.427V59.4951Z" fill="white"/>
<path d="M102.58 59.4951H100.185V63.2002H102.58V59.4951Z" fill="white"/>
<path d="M106.725 59.4951H104.33V63.2002H106.725V59.4951Z" fill="white"/>
<path d="M181.33 49.2413H178.935V52.3289H181.33V49.2413Z" fill="white"/>
<path d="M185.483 49.2413H183.088V52.3289H185.483V49.2413Z" fill="white"/>
<path d="M189.635 49.2413H187.241V52.3289H189.635V49.2413Z" fill="white"/>
<path d="M181.33 53.8917H178.935V56.9793H181.33V53.8917Z" fill="white"/>
<path d="M185.483 53.8917H183.088V56.9793H185.483V53.8917Z" fill="white"/>
<path d="M189.635 53.8917H187.241V56.9793H189.635V53.8917Z" fill="white"/>
<path d="M181.33 58.5421H178.935V61.6297H181.33V58.5421Z" fill="white"/>
<path d="M185.483 58.5421H183.088V61.6297H185.483V58.5421Z" fill="white"/>
<path d="M189.635 58.5421H187.241V61.6297H189.635V58.5421Z" fill="white"/>
<path d="M181.33 63.1926H178.935V66.2878H181.33V63.1926Z" fill="white"/>
<path d="M185.483 63.1926H183.088V66.2878H185.483V63.1926Z" fill="white"/>
<path d="M189.635 63.1926H187.241V66.2878H189.635V63.1926Z" fill="white"/>
<path d="M181.33 67.9574H178.935V71.045H181.33V67.9574Z" fill="white"/>
<path d="M185.483 67.9574H183.088V71.045H185.483V67.9574Z" fill="white"/>
<path d="M189.635 67.9574H187.241V71.045H189.635V67.9574Z" fill="white"/>
<path d="M181.33 72.7222H178.935V75.8174H181.33V72.7222Z" fill="white"/>
<path d="M185.483 72.7222H183.088V75.8174H185.483V72.7222Z" fill="white"/>
<path d="M189.635 72.7222H187.241V75.8174H189.635V72.7222Z" fill="white"/>
<path d="M181.33 77.4946H178.935V80.5822H181.33V77.4946Z" fill="white"/>
<path d="M185.483 77.4946H183.088V80.5822H185.483V77.4946Z" fill="white"/>
<path d="M189.635 77.4946H187.241V80.5822H189.635V77.4946Z" fill="white"/>
<path d="M181.33 82.2594H178.935V85.347H181.33V82.2594Z" fill="white"/>
<path d="M185.483 82.2594H183.088V85.347H185.483V82.2594Z" fill="white"/>
<path d="M189.635 82.2594H187.241V85.347H189.635V82.2594Z" fill="white"/>
<path d="M127.92 51.1167H114.136V53.4343H127.92V51.1167Z" fill="white"/>
<path d="M127.92 55.6146H114.136V57.9322H127.92V55.6146Z" fill="white"/>
<path d="M127.92 60.1127H114.136V62.4303H127.92V60.1127Z" fill="white"/>
<path d="M127.92 64.6106H114.136V66.9282H127.92V64.6106Z" fill="white"/>
<path d="M127.92 69.101H114.136V71.4185H127.92V69.101Z" fill="white"/>
<path d="M127.92 73.5989H114.136V75.9165H127.92V73.5989Z" fill="white"/>
<path d="M127.92 78.0969H114.136V80.4145H127.92V78.0969Z" fill="white"/>
<path d="M127.92 82.5948H114.136V84.9124H127.92V82.5948Z" fill="white"/>
<path d="M166.977 43.798H162.718V46.0393H166.977V43.798Z" fill="white"/>
<path d="M166.977 48.1435H162.718V50.3849H166.977V48.1435Z" fill="white"/>
<path d="M166.977 52.4813H162.718V54.7227H166.977V52.4813Z" fill="white"/>
<path d="M166.977 56.8268H162.718V59.0682H166.977V56.8268Z" fill="white"/>
<path d="M166.977 61.1723H162.718V63.4137H166.977V61.1723Z" fill="white"/>
<path d="M166.977 65.5102H162.718V67.7516H166.977V65.5102Z" fill="white"/>
<path d="M166.977 69.8557H162.718V72.0971H166.977V69.8557Z" fill="white"/>
<path d="M166.977 74.1935H162.718V76.4349H166.977V74.1935Z" fill="white"/>
<path d="M172.774 43.798H168.516V46.0393H172.774V43.798Z" fill="white"/>
<path d="M172.774 48.1435H168.516V50.3849H172.774V48.1435Z" fill="white"/>
<path d="M172.774 52.4813H168.516V54.7227H172.774V52.4813Z" fill="white"/>
<path d="M172.774 56.8268H168.516V59.0682H172.774V56.8268Z" fill="white"/>
<path d="M172.774 61.1723H168.516V63.4137H172.774V61.1723Z" fill="white"/>
<path d="M172.774 65.5102H168.516V67.7516H172.774V65.5102Z" fill="white"/>
<path d="M172.774 69.8557H168.516V72.0971H172.774V69.8557Z" fill="white"/>
<path d="M172.774 74.1935H168.516V76.4349H172.774V74.1935Z" fill="white"/>
<path d="M139.28 27.6891H134.847V31.2189H139.28V27.6891Z" fill="white"/>
<path d="M145.888 27.6891H141.455V31.2189H145.888V27.6891Z" fill="white"/>
<path d="M139.28 32.8732H134.847V36.403H139.28V32.8732Z" fill="white"/>
<path d="M145.888 32.8732H141.455V36.403H145.888V32.8732Z" fill="white"/>
<path d="M139.28 38.0574H134.847V41.5871H139.28V38.0574Z" fill="white"/>
<path d="M145.888 38.0574H141.455V41.5871H145.888V38.0574Z" fill="white"/>
<path d="M139.28 43.2415H134.847V46.7712H139.28V43.2415Z" fill="white"/>
<path d="M145.888 43.2415H141.455V46.7712H145.888V43.2415Z" fill="white"/>
<path d="M139.28 48.4255H134.847V51.9553H139.28V48.4255Z" fill="white"/>
<path d="M145.888 48.4255H141.455V51.9553H145.888V48.4255Z" fill="white"/>
<path d="M139.28 53.6096H134.847V57.1394H139.28V53.6096Z" fill="white"/>
<path d="M145.888 53.6096H141.455V57.1394H145.888V53.6096Z" fill="white"/>
<path d="M139.28 58.7938H134.847V62.3235H139.28V58.7938Z" fill="white"/>
<path d="M145.888 58.7937H141.455V62.3235H145.888V58.7937Z" fill="white"/>
<path d="M139.28 63.9855H134.847V67.5152H139.28V63.9855Z" fill="white"/>
<path d="M145.888 63.9855H141.455V67.5152H145.888V63.9855Z" fill="white"/>
<path d="M154.087 38.0574H149.654V41.5871H154.087V38.0574Z" fill="white"/>
<path d="M154.087 43.2415H149.654V46.7712H154.087V43.2415Z" fill="white"/>
<path d="M154.087 48.4256H149.654V51.9554H154.087V48.4256Z" fill="white"/>
<path d="M154.087 53.6096H149.654V57.1394H154.087V53.6096Z" fill="white"/>
<path d="M154.087 58.7938H149.654V62.3236H154.087V58.7938Z" fill="white"/>
<path d="M154.087 63.9855H149.654V67.5152H154.087V63.9855Z" fill="white"/>
<path d="M139.28 69.101H134.847V72.6307H139.28V69.101Z" fill="white"/>
<path d="M145.888 69.101H141.455V72.6307H145.888V69.101Z" fill="white"/>
<path d="M154.087 69.101H149.654V72.6307H154.087V69.101Z" fill="white"/>
<path d="M139.28 74.2241H134.847V77.7538H139.28V74.2241Z" fill="white"/>
<path d="M145.888 74.2241H141.455V77.7539H145.888V74.2241Z" fill="white"/>
<path d="M154.087 74.2241H149.654V77.7539H154.087V74.2241Z" fill="white"/>
<path d="M139.28 79.3472H134.847V82.8769H139.28V79.3472Z" fill="white"/>
<path d="M145.888 79.3472H141.455V82.8769H145.888V79.3472Z" fill="white"/>
<path d="M154.087 79.3472H149.654V82.8769H154.087V79.3472Z" fill="white"/>
<path d="M139.28 84.4703H134.847V88.0001H139.28V84.4703Z" fill="white"/>
<path d="M145.888 84.4703H141.455V88.0001H145.888V84.4703Z" fill="white"/>
<path d="M154.087 84.4703H149.654V88.0001H154.087V84.4703Z" fill="white"/>
<path d="M139.28 89.5934H134.847V93.1231H139.28V89.5934Z" fill="white"/>
<path d="M145.888 89.5934H141.455V93.1231H145.888V89.5934Z" fill="white"/>
<path d="M154.087 89.5934H149.654V93.1231H154.087V89.5934Z" fill="white"/>
<path d="M194.144 32.7284H191.75V35.816H194.144V32.7284Z" fill="white"/>
<path d="M198.297 32.7284H195.902V35.816H198.297V32.7284Z" fill="white"/>
<path d="M194.144 37.3788H191.75V40.4741H194.144V37.3788Z" fill="white"/>
<path d="M198.297 37.3788H195.902V40.4741H198.297V37.3788Z" fill="white"/>
<path d="M194.144 42.0293H191.75V45.1245H194.144V42.0293Z" fill="white"/>
<path d="M198.297 42.0293H195.902V45.1245H198.297V42.0293Z" fill="white"/>
<path d="M194.144 46.6797H191.75V49.7673H194.144V46.6797Z" fill="white"/>
<path d="M198.297 46.6797H195.902V49.7673H198.297V46.6797Z" fill="white"/>
<path d="M194.144 51.4445H191.75V54.5321H194.144V51.4445Z" fill="white"/>
<path d="M198.297 51.4445H195.902V54.5321H198.297V51.4445Z" fill="white"/>
<path d="M194.144 56.2169H191.75V59.3045H194.144V56.2169Z" fill="white"/>
<path d="M198.297 56.2169H195.902V59.3045H198.297V56.2169Z" fill="white"/>
<path d="M194.144 60.9817H191.75V64.0693H194.144V60.9817Z" fill="white"/>
<path d="M198.297 60.9817H195.902V64.0693H198.297V60.9817Z" fill="white"/>
<path d="M194.144 65.7466H191.75V68.8342H194.144V65.7466Z" fill="white"/>
<path d="M198.297 65.7466H195.902V68.8342H198.297V65.7466Z" fill="white"/>
<path d="M194.144 70.5647H191.75V73.6523H194.144V70.5647Z" fill="white"/>
<path d="M198.297 70.5647H195.902V73.6523H198.297V70.5647Z" fill="white"/>
<path d="M194.144 75.3828H191.75V78.4704H194.144V75.3828Z" fill="white"/>
<path d="M198.297 75.3828H195.902V78.4704H198.297V75.3828Z" fill="white"/>
<path d="M194.144 80.201H191.75V83.2886H194.144V80.201Z" fill="white"/>
<path d="M198.297 80.201H195.902V83.2886H198.297V80.201Z" fill="white"/>
<path d="M194.144 85.0192H191.75V88.1144H194.144V85.0192Z" fill="white"/>
<path d="M198.297 85.0192H195.902V88.1144H198.297V85.0192Z" fill="white"/>
<path d="M203.018 32.7284H200.623V35.816H203.018V32.7284Z" fill="white"/>
<path d="M207.171 32.7284H204.776V35.816H207.171V32.7284Z" fill="white"/>
<path d="M203.018 37.3788H200.623V40.4741H203.018V37.3788Z" fill="white"/>
<path d="M207.171 37.3788H204.776V40.4741H207.171V37.3788Z" fill="white"/>
<path d="M203.018 42.0293H200.623V45.1245H203.018V42.0293Z" fill="white"/>
<path d="M207.171 42.0293H204.776V45.1245H207.171V42.0293Z" fill="white"/>
<path d="M203.018 46.6797H200.623V49.7673H203.018V46.6797Z" fill="white"/>
<path d="M207.171 46.6797H204.776V49.7673H207.171V46.6797Z" fill="white"/>
<path d="M203.018 51.4445H200.623V54.5321H203.018V51.4445Z" fill="white"/>
<path d="M207.171 51.4445H204.776V54.5321H207.171V51.4445Z" fill="white"/>
<path d="M203.018 56.2169H200.623V59.3045H203.018V56.2169Z" fill="white"/>
<path d="M207.171 56.2169H204.776V59.3045H207.171V56.2169Z" fill="white"/>
<path d="M203.018 60.9817H200.623V64.0693H203.018V60.9817Z" fill="white"/>
<path d="M207.171 60.9817H204.776V64.0693H207.171V60.9817Z" fill="white"/>
<path d="M203.018 65.7466H200.623V68.8342H203.018V65.7466Z" fill="white"/>
<path d="M207.171 65.7466H204.776V68.8342H207.171V65.7466Z" fill="white"/>
<path d="M203.018 70.5647H200.623V73.6523H203.018V70.5647Z" fill="white"/>
<path d="M207.171 70.5647H204.776V73.6523H207.171V70.5647Z" fill="white"/>
<path d="M203.018 75.3828H200.623V78.4704H203.018V75.3828Z" fill="white"/>
<path d="M207.171 75.3828H204.776V78.4704H207.171V75.3828Z" fill="white"/>
<path d="M203.018 80.201H200.623V83.2886H203.018V80.201Z" fill="white"/>
<path d="M207.171 80.201H204.776V83.2886H207.171V80.201Z" fill="white"/>
<path d="M203.018 85.0192H200.623V88.1144H203.018V85.0192Z" fill="white"/>
<path d="M207.171 85.0192H204.776V88.1144H207.171V85.0192Z" fill="white"/>
<path d="M92.3419 4.63519V109.552H298V4.63519H92.3419ZM295.105 106.282H95.2367V7.91337H295.105V106.289V106.282Z" fill="#DBDBDB"/>
<path d="M196.622 7.91339H193.72V106.289H196.622V7.91339Z" fill="#DBDBDB"/>
<path d="M309.825 259.815C309.825 259.815 307.572 291.057 307.565 291.08C307.534 297.201 307.618 302.561 307.916 305.336C307.916 305.351 307.916 305.366 307.916 305.382C308.03 306.426 308.175 307.097 308.359 307.272C308.374 307.287 308.382 307.303 308.397 307.31C310.214 308.553 359.188 310.23 360.914 309.712C362.647 309.201 361.303 304.238 359.455 302.66C357.592 301.082 339.134 292.071 339.134 292.071L341.089 260.844L309.817 259.815H309.825Z" fill="#AD6359"/>
<path d="M307.572 284.516C307.572 284.516 307.572 291.064 307.572 291.087C307.542 297.209 307.626 302.568 307.923 305.343C307.923 305.359 307.923 305.374 307.923 305.389C308.099 306.426 308.252 307.104 308.366 307.28C308.382 307.295 308.389 307.31 308.405 307.318C310.222 308.561 359.196 310.238 360.922 309.719C362.655 309.209 361.311 304.246 359.463 302.667C357.6 301.089 339.142 292.078 339.142 292.078L339.234 285.415L307.565 284.523L307.572 284.516Z" fill="white"/>
<path d="M360.922 309.712C359.188 310.23 310.222 308.553 308.405 307.31C307.702 306.845 307.534 299.709 307.572 291.079C307.572 290.988 307.572 290.896 307.572 290.813L339.173 291.537L339.142 292.071C339.142 292.071 357.6 301.082 359.455 302.66C361.303 304.238 362.647 309.201 360.914 309.712H360.922Z" fill="#A6A6A6"/>
<path d="M360.433 307.798C352.185 307.31 318.874 306.136 310.688 306.281C310.619 306.281 310.619 306.327 310.688 306.334C318.851 306.99 352.17 307.897 360.433 307.935C360.608 307.935 360.608 307.813 360.433 307.798Z" fill="#263238"/>
<path d="M341.799 292.261C338.569 291.544 334.583 291.91 332.025 294.129C331.925 294.213 332.048 294.358 332.154 294.327C335.392 293.428 338.409 292.886 341.777 292.665C342.013 292.65 342.036 292.307 341.807 292.253L341.799 292.261Z" fill="#263238"/>
<path d="M344.098 293.748C340.868 293.031 336.882 293.397 334.323 295.615C334.224 295.699 334.346 295.844 334.453 295.814C337.691 294.914 340.707 294.373 344.075 294.152C344.312 294.136 344.335 293.793 344.106 293.74L344.098 293.748Z" fill="#263238"/>
<path d="M346.389 295.242C343.159 294.525 339.172 294.891 336.614 297.11C336.515 297.194 336.637 297.338 336.744 297.308C339.982 296.408 342.998 295.867 346.366 295.646C346.603 295.631 346.626 295.288 346.397 295.234L346.389 295.242Z" fill="#263238"/>
<path d="M305.686 292.429L339.967 291.743C339.967 291.743 344.144 230.166 343.365 209.636C342.517 187.337 332.926 120.98 332.926 120.98H303.975C303.975 120.98 311.375 187.588 311.536 209.903C311.681 230.586 305.694 292.429 305.694 292.429H305.686Z" fill="#37474F"/>
<path d="M327.236 120.988L309.848 181.055C307.786 152.634 303.975 120.988 303.975 120.988H327.236Z" fill="#263238"/>
<path d="M309.466 124.258L311.306 144.065L313.009 163.886C314.102 177.106 315.132 190.325 315.919 203.567C316.11 206.876 316.232 210.2 316.179 213.531C316.11 216.855 315.972 220.172 315.804 223.48C315.461 230.105 315.033 236.723 314.521 243.332C314.017 249.942 313.483 256.552 312.918 263.162L311.07 282.968L312.551 263.131C313.048 256.521 313.513 249.904 313.949 243.294C314.369 236.677 314.819 230.067 315.125 223.442C315.285 220.134 315.4 216.825 315.461 213.516C315.499 210.215 315.369 206.914 315.163 203.605C314.438 190.371 313.391 177.151 312.429 163.924L309.466 124.251V124.258Z" fill="#263238"/>
<path d="M338.531 286.04C333.178 285.995 334.713 285.934 329.367 285.949C326.748 285.949 309.535 286.017 307.099 286.444C307.045 286.452 307.045 286.543 307.099 286.551C309.55 286.925 326.755 286.566 329.375 286.513C334.728 286.399 333.185 286.376 338.539 286.193C338.638 286.193 338.638 286.04 338.539 286.04H338.531Z" fill="#263238"/>
<path d="M254.101 243.058C254.101 243.058 237.567 269.886 237.552 269.909C234.864 275.405 232.611 280.277 231.68 282.907C231.68 282.922 231.664 282.93 231.664 282.953C231.313 283.944 231.153 284.607 231.244 284.851C231.244 284.874 231.244 284.889 231.26 284.904C232.359 286.81 275.758 309.521 277.537 309.803C279.324 310.093 280.264 305.046 279.286 302.82C278.293 300.594 265.578 284.478 265.578 284.478L281.837 257.528L254.101 243.066V243.058Z" fill="#AD6359"/>
<path d="M231.252 284.851C231.252 284.851 231.252 284.882 231.26 284.897C232.359 286.803 275.758 309.514 277.545 309.796C279.324 310.085 280.271 305.031 279.294 302.812C278.293 300.579 265.586 284.47 265.586 284.47L268.488 279.659C261.394 275.886 248.503 269.253 240.492 265.151C238.751 267.972 237.56 269.909 237.56 269.916C234.872 275.413 232.611 280.284 231.687 282.907C231.68 282.922 231.672 282.938 231.672 282.953C231.313 283.944 231.16 284.607 231.252 284.851Z" fill="white"/>
<path d="M277.545 309.796C275.758 309.514 232.367 286.81 231.267 284.897C230.84 284.18 233.78 277.67 237.567 269.916C237.606 269.832 237.651 269.756 237.69 269.672L265.853 284.012L265.594 284.485C265.594 284.485 278.309 300.594 279.301 302.828C280.279 305.046 279.332 310.101 277.553 309.811L277.545 309.796Z" fill="#A6A6A6"/>
<path d="M277.935 307.859C270.71 303.849 241.21 288.373 233.764 284.958C233.703 284.927 233.68 284.973 233.741 285.004C240.813 289.128 270.443 304.375 277.873 307.981C278.026 308.058 278.087 307.943 277.935 307.859Z" fill="#263238"/>
<path d="M267.892 285.789C265.296 283.746 261.546 282.343 258.27 283.243C258.14 283.281 258.194 283.456 258.301 283.479C261.607 284.073 264.563 284.882 267.686 286.147C267.908 286.239 268.076 285.934 267.885 285.789H267.892Z" fill="#263238"/>
<path d="M269.313 288.129C266.716 286.086 262.967 284.683 259.691 285.583C259.561 285.621 259.614 285.796 259.721 285.819C263.028 286.414 265.983 287.222 269.107 288.488C269.328 288.579 269.496 288.274 269.305 288.129H269.313Z" fill="#263238"/>
<path d="M270.733 290.462C268.137 288.419 264.387 287.016 261.111 287.916C260.981 287.954 261.035 288.129 261.142 288.152C264.448 288.747 267.404 289.555 270.527 290.82C270.748 290.912 270.916 290.607 270.726 290.462H270.733Z" fill="#263238"/>
<path d="M329.963 120.957C329.963 120.957 329.963 120.957 329.963 120.988C329.833 121.582 327.809 130.96 325.717 139.01C324.189 144.896 322.624 150.064 321.723 150.598C320.7 151.2 315.728 153.396 314.063 154.09C314.063 154.09 302.883 209.811 296.98 227.086C291.535 243.028 268.992 285.644 268.992 285.644L236.292 269.154C236.292 269.154 261.829 225.905 264.517 218.144C268.679 206.114 284.273 147.373 284.273 147.373C284.273 147.373 284.151 128.985 290.359 120.957H329.97H329.963Z" fill="#37474F"/>
<path d="M268.503 279.286C263.83 276.678 265.212 277.365 260.508 274.811C258.209 273.56 243.081 265.365 240.729 264.572C240.675 264.557 240.637 264.633 240.675 264.671C242.646 266.173 257.911 274.109 260.233 275.314C264.983 277.776 263.646 277.022 268.419 279.431C268.511 279.476 268.58 279.339 268.496 279.293L268.503 279.286Z" fill="#263238"/>
<path d="M292.65 142.258C293.544 142.029 294.506 141.953 295.415 141.808C296.155 141.694 296.889 141.564 297.614 141.404C298.989 141.099 300.379 140.642 301.501 139.773C302.769 138.789 303.41 137.295 304.021 135.862C304.388 135.008 304.762 134.161 305.136 133.323C305.319 132.911 305.503 132.507 305.694 132.095C305.915 131.623 306.221 131.127 306.381 130.624C306.404 130.555 306.518 130.594 306.495 130.655C306.35 130.99 306.289 131.364 306.182 131.714C306.06 132.126 305.938 132.538 305.816 132.949C305.587 133.681 305.365 134.413 305.128 135.137C304.693 136.441 304.311 137.806 303.571 138.98C302.219 141.122 299.806 141.991 297.393 142.296C296.698 142.38 296.003 142.433 295.308 142.471C294.445 142.517 293.528 142.601 292.673 142.494C292.543 142.479 292.505 142.288 292.65 142.25V142.258Z" fill="#263238"/>
<path d="M324.35 149.287C320.799 150.507 317.378 152.237 314.102 154.052C313.972 154.12 314.056 154.318 314.201 154.265C317.653 152.786 321.173 151.368 324.541 149.699C324.808 149.569 324.625 149.195 324.357 149.287H324.35Z" fill="#263238"/>
<path d="M325.396 125.676C325.388 125.554 325.175 125.532 325.175 125.661C325.205 129.755 324.938 133.353 324.594 137.173C324.434 138.949 323.006 148.761 319.921 148.044C319.401 147.922 319.142 147.419 319.058 146.641C318.958 145.704 319.31 144.56 319.47 143.63C319.814 141.579 320.089 139.513 320.264 137.44C320.593 133.567 320.608 129.694 320.142 125.836C320.127 125.707 319.944 125.722 319.944 125.844C319.944 131.204 319.806 136.555 319.004 141.869C318.615 144.423 317.332 148.265 320.005 148.654C322.731 149.051 324.487 142.616 324.823 140.855C325.747 135.945 325.786 130.639 325.396 125.669V125.676Z" fill="#263238"/>
<path d="M320.005 148.311C319.73 148.967 319.501 149.653 319.31 150.347C319.165 150.88 318.958 151.46 319.02 152.016C319.035 152.123 319.172 152.138 319.233 152.062C319.592 151.604 319.745 150.979 319.951 150.438C320.188 149.813 320.432 149.188 320.654 148.547C320.799 148.128 320.18 147.907 320.005 148.311Z" fill="#263238"/>
<path d="M245.112 263.741C249.763 254.997 254.566 246.329 259.378 237.668C261.753 233.399 264.227 229.175 266.495 224.853C268.732 220.576 270.252 216.085 271.673 211.488C274.552 202.142 277.278 192.757 279.851 183.327C282.425 173.896 284.83 164.42 287.106 154.913C287.671 152.535 288.297 150.156 288.756 147.754C289.229 145.262 289.092 142.929 288.748 140.428C288.435 138.141 288.343 135.892 288.695 133.605C289.038 131.341 289.611 129.122 290.291 126.942C290.649 125.791 291.039 124.655 291.436 123.519C291.482 123.389 291.68 123.45 291.635 123.58C290.222 128.184 288.786 132.843 289.084 137.714C289.229 140.062 289.848 142.365 289.809 144.72C289.771 147.068 289.153 149.371 288.626 151.643C286.404 161.21 284.006 170.732 281.463 180.224C278.92 189.708 276.224 199.153 273.368 208.553C271.978 213.12 270.68 217.763 268.717 222.131C266.747 226.499 264.25 230.631 261.898 234.802C257.041 243.424 252.138 252.031 247.136 260.57C246.502 261.652 245.861 262.727 245.219 263.81C245.181 263.878 245.074 263.81 245.112 263.741Z" fill="#263238"/>
<path d="M320.417 78.7373C335.721 76.4426 355.018 70.519 357.34 66.6919C359.898 62.4684 364.625 49.4319 366.764 35.8541C367.153 33.3993 347.542 32.7665 347.092 34.459C345.396 40.7714 340.608 56.5448 339.89 57.0251C338.951 57.6655 326.137 64.7174 317.095 69.7261C306.182 75.7641 312.108 79.9876 320.417 78.7373Z" fill="#AD6359"/>
<path d="M366.519 37.5695C366.924 36.4183 370.696 27.1708 370.49 21.819C370.376 18.983 369.192 11.2297 367.458 11.0772C365.878 10.94 365.679 13.1509 365.679 13.1509C365.679 13.1509 365.099 9.69733 362.892 9.53723C360.685 9.37713 360.547 13.1127 360.547 13.1127C360.547 13.1127 359.692 9.61347 357.485 9.60584C355.278 9.60584 355.767 13.3872 355.767 13.3872C355.767 13.3872 355.133 10.1471 353.315 10.9095C351.124 11.8243 352.964 17.6641 352.529 20.7745C352.43 21.4835 349.512 34.9469 349.512 34.9469L366.534 37.5619L366.519 37.5695Z" fill="#AD6359"/>
<path d="M355.652 13.4634C356.996 17.7555 356.836 19.8673 355.698 24.1518C355.675 24.2357 355.797 24.289 355.828 24.2052C357.332 20.1189 357.905 17.4963 355.858 13.3948C355.759 13.1966 355.591 13.2652 355.652 13.471V13.4634Z" fill="#263238"/>
<path d="M360.425 13.1737C361.433 17.7555 361.28 20.0503 360.417 24.6168C360.402 24.6855 360.517 24.7083 360.532 24.6473C361.762 20.2332 362.273 17.6107 360.669 13.1585C360.593 12.9603 360.387 12.9603 360.433 13.1737H360.425Z" fill="#263238"/>
<path d="M365.626 13.3719C366.275 17.8775 366.221 20.4009 364.809 24.7312C364.778 24.8303 364.923 24.8913 364.961 24.7922C366.832 20.5153 366.924 17.3743 365.763 13.3719C365.687 13.0975 365.58 13.0898 365.626 13.3719Z" fill="#263238"/>
<path d="M346.404 37.7448C346.404 37.7448 344.762 31.1961 344.778 28.6574C344.793 26.1187 348.344 16.6959 350.429 17.3439C353.117 18.1825 352.147 24.0298 351.292 26.8277C351.292 26.8277 357.516 28.7641 357.722 33.1096C357.928 37.4551 346.397 37.7448 346.397 37.7448H346.404Z" fill="#AD6359"/>
<path d="M351.093 17.8165C352.995 20.3476 351.635 23.9536 351.017 26.7286C350.971 26.9421 351.124 27.0488 351.292 27.0564C353.85 28.0399 357.164 30.1745 357.852 32.9724C357.875 33.0563 357.989 33.0334 357.981 32.9495C357.653 29.8467 354.568 27.4834 351.697 26.5838C352.384 23.7478 353.583 20.0731 351.116 17.786C351.101 17.7708 351.078 17.786 351.093 17.8089V17.8165Z" fill="#263238"/>
<path d="M344.953 39.7117L366.076 44.873C366.076 44.873 359.73 66.5471 356.485 68.9028C353.239 71.2585 330.169 79.2862 316.881 79.3701C313.002 79.3929 305.006 76.4121 316.438 69.4288C327.87 62.4455 338.959 56.3847 339.394 55.8968C339.829 55.4089 344.953 39.7041 344.953 39.7041V39.7117Z" fill="#74C4E8"/>
<path d="M344.35 44.7967C345.832 45.3609 347.412 45.7192 348.94 46.1308C350.536 46.5654 352.139 46.939 353.743 47.3278C355.347 47.7166 361.807 49.0583 363.419 49.3938C363.495 49.409 363.518 49.3023 363.442 49.2794C361.853 48.8449 355.538 47.1219 353.965 46.7484C352.391 46.3748 350.818 45.986 349.23 45.6582C347.626 45.3227 346 44.9034 344.365 44.7281C344.327 44.7281 344.304 44.7738 344.342 44.7891L344.35 44.7967Z" fill="#263238"/>
<path opacity="0.1" d="M328.092 78.0588C324.052 78.8516 320.165 79.3624 316.889 79.3777C313.261 79.4005 306.037 76.7932 314.46 70.7401L328.092 78.0588Z" fill="black"/>
<path d="M290.344 120.957L332.918 120.988C332.972 120.919 332.804 119.524 332.238 117.229C329.627 106.541 321.288 76.3816 317.401 70.7401C315.232 67.5915 307.007 66.8749 303.609 70.0692C296.881 76.3816 291.49 104.513 289.947 116.032C289.535 119.089 290.344 120.957 290.344 120.957Z" fill="#EBEBEB"/>
<path d="M304.548 69.3526C304.602 70.0997 307.931 87.5503 308.038 90.4016C308.145 93.2604 304.777 146.413 304.777 146.413L282.31 144.636C282.31 144.636 287.74 118.266 287.923 117.87C288.106 117.473 296.194 80.7729 298.996 75.6193C301.799 70.4657 304.54 69.345 304.54 69.345L304.548 69.3526Z" fill="#74C4E8"/>
<path d="M315.782 68.8723C315.782 68.8723 321.708 92.4676 322.891 96.2794C324.075 100.091 330.497 145.917 330.497 145.917L338.378 143.104C338.378 143.104 328.428 96.3709 319.905 73.8887C318.783 70.9231 315.782 68.8723 315.782 68.8723Z" fill="#74C4E8"/>
<path d="M316.935 69.4212C317.523 69.4136 319.821 71.7693 320.073 72.425C320.325 73.073 326.343 105.931 325.717 109.659C325.098 113.387 313.384 145.239 313.384 145.239L309.138 143.356C309.138 143.356 321.326 111.092 321.723 109.911C322.112 108.729 317.301 71.7693 317.156 70.8469C317.011 69.9244 316.942 69.4288 316.942 69.4288L316.935 69.4212Z" fill="#74C4E8"/>
<path opacity="0.2" d="M316.935 69.4212C317.523 69.4136 319.821 71.7693 320.073 72.425C320.325 73.073 326.343 105.931 325.717 109.659C325.098 113.387 313.384 145.239 313.384 145.239L309.138 143.356C309.138 143.356 321.326 111.092 321.723 109.911C322.112 108.729 317.301 71.7693 317.156 70.8469C317.011 69.9244 316.942 69.4288 316.942 69.4288L316.935 69.4212Z" fill="black"/>
<path d="M304.838 69.4517C304.357 69.1087 301.127 69.7567 300.554 70.1531C299.981 70.5495 285.266 95.357 283.67 98.78C282.066 102.203 268.419 134.329 268.419 134.329L272.994 135.175C272.994 135.175 286.48 102.439 286.823 101.242C287.167 100.046 303.212 71.1747 303.861 70.4962C304.51 69.8177 304.838 69.4517 304.838 69.4517Z" fill="#74C4E8"/>
<path opacity="0.2" d="M304.838 69.4517C304.357 69.1087 301.127 69.7567 300.554 70.1531C299.981 70.5495 285.266 95.357 283.67 98.78C282.066 102.203 268.419 134.329 268.419 134.329L272.994 135.175C272.994 135.175 286.48 102.439 286.823 101.242C287.167 100.046 303.212 71.1747 303.861 70.4962C304.51 69.8177 304.838 69.4517 304.838 69.4517Z" fill="black"/>
<path d="M267.538 135.063L262.255 163.573L307.581 171.943L312.863 143.433L267.538 135.063Z" fill="#74C4E8"/>
<path opacity="0.1" d="M267.538 135.063L262.255 163.573L307.581 171.943L312.863 143.433L267.538 135.063Z" fill="black"/>
<path opacity="0.1" d="M267.544 135.066L265.056 148.493L310.382 156.863L312.87 143.436L267.544 135.066Z" fill="black"/>
<path d="M314.71 139.444L267.244 130.678L264.779 143.985L312.244 152.75L314.71 139.444Z" fill="#74C4E8"/>
<path opacity="0.1" d="M314.71 139.444L267.244 130.678L264.779 143.985L312.244 152.75L314.71 139.444Z" fill="black"/>
<path d="M298.485 131.447L297.591 136.281L295.407 135.877L295.911 133.125L287.564 131.585L287.06 134.337L284.869 133.933L285.762 129.099L298.485 131.447Z" fill="#263238"/>
<path d="M274.979 142.577L271.885 142.006L270.707 148.363L273.801 148.934L274.979 142.577Z" fill="#263238"/>
<path d="M306.314 148.377L303.221 147.806L302.043 154.163L305.137 154.734L306.314 148.377Z" fill="#263238"/>
<path d="M296.033 76.6256C291.864 80.8644 275.804 100.335 275.124 105.123C274.086 112.396 285.441 135.656 288.45 140.703C289.764 142.906 306.648 132.164 305.419 129.717C304.586 128.07 292.948 110.383 292.719 108.348C292.49 106.312 299.218 88.9683 303.586 80.1325C307.74 71.7236 304.876 67.6373 296.033 76.618V76.6256Z" fill="#AD6359"/>
<path d="M320.425 150.156C319.287 152.016 317.087 151.467 317.087 151.467C317.087 151.467 317.156 153.205 316.034 154.448C314.751 155.874 311.948 154.486 311.948 154.486C311.948 154.486 311.65 156.262 310.329 157.452C308.962 158.687 305.938 157.688 305.938 157.688C305.938 157.688 304.747 159.19 302.868 159.403C299.653 159.769 296.568 155.912 294.59 153.48C292.604 151.048 289.26 142.288 288.458 140.687L303.991 127.841C303.991 127.841 315.995 136.227 317.92 139.414C319.539 142.105 321.708 148.052 320.432 150.141L320.425 150.156Z" fill="#AD6359"/>
<path d="M317.248 151.162C316.209 147.892 314.262 145.101 312.475 142.212C312.437 142.151 312.337 142.212 312.376 142.273C314.185 145.132 315.407 148.303 317.103 151.231C317.148 151.315 317.278 151.254 317.248 151.162Z" fill="#263238"/>
<path d="M312.108 154.273C311.849 153.541 311.352 152.893 310.917 152.26C310.444 151.574 309.962 150.903 309.474 150.24C308.489 148.906 307.465 147.594 306.411 146.306C306.366 146.253 306.266 146.306 306.312 146.367C307.297 147.701 308.252 149.043 309.184 150.423C309.649 151.109 310.1 151.803 310.558 152.496C310.978 153.144 311.368 153.861 311.925 154.395C312.009 154.471 312.154 154.387 312.116 154.273H312.108Z" fill="#263238"/>
<path d="M305.9 157.642C305.701 156.994 305.136 156.415 304.731 155.889C304.266 155.287 303.807 154.692 303.357 154.082C302.448 152.878 301.532 151.665 300.669 150.43C300.623 150.369 300.524 150.43 300.569 150.491C301.448 151.757 302.303 153.03 303.189 154.288C303.624 154.906 304.067 155.515 304.51 156.133C304.884 156.651 305.296 157.345 305.846 157.696C305.877 157.719 305.915 157.681 305.907 157.65L305.9 157.642Z" fill="#263238"/>
<path d="M305.419 127.178L286.831 141.091C286.831 141.091 273.803 117.397 274.521 105.413C274.819 100.472 289.794 82.5187 296.499 75.6955C303.135 68.9485 309.794 67.5153 303.907 80.6814C298.019 93.8475 293.223 105.756 293.674 106.632C294.124 107.509 305.419 127.178 305.419 127.178Z" fill="#74C4E8"/>
<path d="M301.883 124.495C300.493 125.242 299.195 126.202 297.889 127.087C296.53 128.002 295.193 128.962 293.857 129.923C292.52 130.876 287.305 134.87 285.999 135.862C285.938 135.907 285.999 135.991 286.067 135.953C287.434 135.038 292.841 131.409 294.147 130.464C295.453 129.519 296.766 128.589 298.049 127.613C299.348 126.622 300.722 125.676 301.913 124.556C301.936 124.533 301.913 124.479 301.883 124.495Z" fill="#263238"/>
<path d="M288.045 140.184L286.869 141.145L286.823 141.183L286.778 141.129C286.129 140.321 285.609 139.445 285.143 138.537C284.685 137.623 284.273 136.685 284.044 135.671C284.662 136.502 285.166 137.379 285.647 138.278C286.121 139.178 286.556 140.093 286.885 141.068L286.793 141.046L288.045 140.184Z" fill="#263238"/>
<path d="M304.258 128.055L305.411 127.171V127.193C303.311 123.946 301.28 120.652 299.271 117.344C298.263 115.689 297.293 114.02 296.331 112.343C295.377 110.65 294.391 109.003 293.567 107.212C293.521 107.082 293.467 106.991 293.429 106.838C293.376 106.709 293.376 106.495 293.399 106.373C293.437 106.106 293.498 105.87 293.559 105.626C293.689 105.153 293.842 104.688 293.994 104.223C294.307 103.301 294.643 102.394 294.987 101.486C295.682 99.6796 296.385 97.8804 297.141 96.0965C298.63 92.5286 300.165 88.9759 301.791 85.4691L297.545 96.2642C296.858 98.071 296.14 99.8625 295.476 101.677C295.14 102.584 294.811 103.491 294.514 104.399C294.361 104.856 294.216 105.313 294.101 105.771C294.04 106 293.987 106.228 293.964 106.442C293.956 106.556 293.948 106.594 293.987 106.693C294.002 106.777 294.063 106.899 294.101 106.998C294.88 108.721 295.858 110.414 296.797 112.091L299.676 117.123L305.449 127.186V127.201V127.209L304.273 128.063L304.258 128.055Z" fill="#263238"/>
<path d="M300.172 89.2961C300.47 88.9302 300.776 88.5871 301.051 88.2136C301.341 87.8552 301.585 87.4664 301.845 87.07C301.73 87.5274 301.486 87.9467 301.203 88.3279C300.905 88.6939 300.585 89.0445 300.18 89.2961H300.172Z" fill="#263238"/>
<path d="M314.735 76.1758C312.04 76.6713 307.091 72.0209 305.449 68.636C305.335 68.3996 305.801 66.0363 306.228 63.1393C306.48 61.3782 306.717 59.4113 306.809 57.6045L318.042 60.9208C318.042 60.9208 316.736 64.664 316.599 67.8202C316.591 68.087 316.599 68.331 316.637 68.5673C316.637 68.6055 316.645 68.6436 316.645 68.6893C316.805 70.1149 317.324 75.6955 314.72 76.1834L314.735 76.1758Z" fill="#AD6359"/>
<path d="M318.042 60.9208C318.042 60.9208 317.034 63.8178 316.698 66.6614C311.444 69.8634 305.778 65.9982 305.778 65.9982C305.915 65.1672 306.068 64.1913 306.228 63.1393C306.48 61.3858 306.725 59.4113 306.809 57.6045L318.05 60.9208H318.042Z" fill="#263238"/>
<path d="M319.676 44.629C321.135 48.6772 319.531 60.6616 316.736 63.4518C312.673 67.4924 305.747 68.2014 302.227 63.2613C298.821 58.4736 301.18 42.8984 304.334 40.3369C308.977 36.5631 317.523 38.652 319.676 44.6366V44.629Z" fill="#AD6359"/>
<path d="M308.359 52.6415C308.359 52.6415 308.42 52.6872 308.412 52.7177C308.282 53.5182 308.267 54.4635 308.97 54.8295C308.993 54.8371 308.985 54.8828 308.954 54.8752C308.076 54.6389 308.107 53.381 308.359 52.6415Z" fill="#263238"/>
<path d="M309.191 51.8867C310.505 51.9553 310.276 54.5703 309.054 54.5093C307.855 54.4483 308.091 51.8334 309.191 51.8867Z" fill="#263238"/>
<path d="M303.846 52.1688C303.846 52.1688 303.777 52.1993 303.777 52.2374C303.731 53.0532 303.54 53.9756 302.784 54.1815C302.761 54.1815 302.761 54.2272 302.784 54.2272C303.693 54.1815 303.93 52.9541 303.846 52.1764V52.1688Z" fill="#263238"/>
<path d="M303.196 51.254C301.898 51.0405 301.562 53.6478 302.769 53.846C303.952 54.0443 304.288 51.437 303.196 51.254Z" fill="#263238"/>
<path d="M310.329 50.7813C309.978 50.6593 309.68 50.4916 309.344 50.3315C308.97 50.1561 308.649 50.057 308.428 49.6835C308.305 49.4852 308.397 49.1574 308.573 49.0202C309 48.7076 309.512 48.8067 309.97 49.005C310.466 49.2108 310.803 49.5005 311.055 49.9808C311.299 50.4458 310.78 50.9414 310.321 50.7813H310.329Z" fill="#263238"/>
<path d="M302.303 49.8512C302.669 49.8207 303.005 49.7369 303.372 49.6759C303.777 49.5996 304.113 49.5844 304.426 49.2871C304.594 49.127 304.594 48.7839 304.456 48.6085C304.128 48.1969 303.609 48.1587 303.112 48.2274C302.578 48.3036 302.181 48.4942 301.807 48.8906C301.448 49.2718 301.822 49.8893 302.311 49.8512H302.303Z" fill="#263238"/>
<path d="M308.657 60.0821C308.443 60.2575 308.229 60.5014 307.931 60.4938C307.649 60.4938 307.328 60.3337 307.076 60.2118C307.053 60.1965 307.022 60.227 307.038 60.2499C307.221 60.5777 307.649 60.814 308.03 60.7835C308.405 60.753 308.611 60.4481 308.733 60.1203C308.748 60.0745 308.687 60.0517 308.657 60.0745V60.0821Z" fill="#263238"/>
<path d="M308.023 57.574C307.503 58.2373 306.801 58.5651 306.068 58.6413C305.739 58.6794 305.396 58.6566 305.067 58.5956C304.999 58.5956 304.938 58.5727 304.876 58.5575C304.815 58.5422 304.762 58.5346 304.701 58.5117C304.609 58.4888 304.563 58.405 304.556 58.3135C304.556 58.3135 304.556 58.2525 304.571 58.222L304.579 58.1458C304.617 57.5206 304.762 56.5753 304.762 56.5753C304.525 56.6668 303.311 57.0861 303.357 56.7659C303.762 54.0824 304.204 51.0939 305.174 48.5018C305.205 48.418 305.335 48.4485 305.319 48.5323C305.037 51.132 304.296 53.6554 303.968 56.2627C304.35 56.156 304.983 55.9502 305.312 55.9807C305.396 56.0112 304.999 57.8027 305.006 58.0848C305.006 58.0848 305.006 58.1 305.006 58.1153C306.045 58.344 306.862 58.0924 307.946 57.4825C308.007 57.4444 308.069 57.5054 308.015 57.5588L308.023 57.574Z" fill="#263238"/>
<path d="M305.434 58.5117C305.434 58.5117 305.961 59.2588 306.702 59.5409C306.976 59.6476 307.267 59.6934 307.58 59.6171C308.221 59.4647 308.252 58.8776 308.145 58.3745C308.061 57.9628 307.878 57.6045 307.878 57.6045C307.878 57.6045 306.931 58.4583 305.434 58.5193V58.5117Z" fill="#263238"/>
<path d="M306.702 59.5333C306.977 59.64 307.267 59.6858 307.58 59.6095C308.221 59.4571 308.252 58.87 308.145 58.3669C307.458 58.4202 306.77 58.87 306.702 59.5333Z" fill="#FF98B9"/>
<path d="M320.478 54.9286C317.339 55.2336 315.598 51.5361 316.255 48.5018C316.255 48.5018 307.923 49.836 307.343 43.1424C307.343 43.1424 305.419 46.2224 301.631 46.4282L301.127 48.7915C300.264 48.5705 299.286 46.1614 301.333 44.1945C301.333 44.1945 301.387 40.8477 303.8 38.7817C306.213 36.708 308.695 37.9659 308.695 37.9659C308.695 37.9659 310.612 36.2811 313.704 36.5937C316.797 36.9062 318.141 39.6736 318.141 39.6736C318.141 39.6736 322.303 40.3521 323.09 43.272C323.876 46.1919 322.41 48.1969 322.41 48.1969C322.41 48.1969 323.479 49.3252 323.021 51.841C322.723 53.4649 321.44 54.8371 320.493 54.9286H320.478Z" fill="#263238"/>
<path d="M307.511 42.5477C307.473 43.0966 307.465 43.6455 307.534 44.1868C307.58 44.7281 307.71 45.2541 307.878 45.7649C308.244 46.7712 308.932 47.6403 309.878 48.1206C310.795 48.6772 311.91 48.7381 312.979 48.8068C313.521 48.7763 314.071 48.7839 314.613 48.7229C315.155 48.6543 315.698 48.5704 316.247 48.5094C315.713 48.6543 315.178 48.7763 314.636 48.9059C314.094 49.005 313.536 49.0355 312.979 49.1041C311.872 49.0888 310.703 49.0279 309.688 48.4561C308.68 47.9072 307.908 46.939 307.587 45.8564C307.267 44.7738 307.259 43.6227 307.496 42.5554L307.511 42.5477Z" fill="#263238"/>
<path d="M303.303 46.535C304.227 46.169 305.083 45.7192 305.801 45.1017C306.167 44.8044 306.473 44.4384 306.755 44.0573C307.045 43.6761 307.221 43.2263 307.427 42.7689C307.381 43.2568 307.267 43.7676 307.015 44.2097C306.778 44.6595 306.45 45.0712 306.06 45.3914C305.671 45.7192 305.235 45.9861 304.762 46.1766C304.296 46.3672 303.807 46.5045 303.311 46.5273L303.303 46.535Z" fill="#263238"/>
<path d="M308.786 56.7964C306.915 56.278 305.823 54.334 306.343 52.4738C306.862 50.606 308.802 49.5158 310.673 50.0342C312.544 50.5526 313.636 52.4891 313.116 54.3569C312.673 55.935 311.222 56.9565 309.649 56.926C309.359 56.926 309.077 56.8803 308.786 56.7964ZM306.793 52.5958C306.343 54.212 307.29 55.8892 308.909 56.339C310.528 56.7888 312.208 55.8435 312.658 54.2272C313.109 52.611 312.162 50.9338 310.543 50.484C310.291 50.4154 310.039 50.3773 309.794 50.3697C308.435 50.3392 307.175 51.2311 306.793 52.5958Z" fill="#74C4E8"/>
<path d="M301.44 55.752C300.012 55.5537 299.065 53.8308 299.332 51.9096C299.462 50.9948 299.844 50.1714 300.409 49.5844C300.997 48.9745 301.707 48.7001 302.41 48.7992C303.12 48.8983 303.723 49.3633 304.12 50.1028C304.502 50.8194 304.647 51.719 304.518 52.6339C304.266 54.4483 303.013 55.7977 301.669 55.7672C301.593 55.7672 301.516 55.7596 301.44 55.752ZM300.753 49.9122C300.256 50.4306 299.92 51.1625 299.806 51.9782C299.577 53.6402 300.34 55.1268 301.509 55.2869C302.685 55.4546 303.823 54.2348 304.059 52.5729C304.174 51.7572 304.052 50.9567 303.716 50.3239C303.395 49.714 302.906 49.3404 302.356 49.2642C302.295 49.2566 302.234 49.249 302.181 49.249C301.684 49.2413 301.188 49.4701 300.76 49.9122H300.753Z" fill="#74C4E8"/>
<path d="M306.404 52.8931L306.755 52.5805C306.289 52.0621 305.151 51.2997 304.174 52.085L304.472 52.4509C305.35 51.7419 306.366 52.8473 306.411 52.8931H306.404Z" fill="#74C4E8"/>
<path d="M321.089 55.9883L321.532 55.8358C321.456 55.6299 320.791 53.8079 319.776 53.4953C318.829 53.2056 313.208 52.8854 312.941 52.8702L312.918 53.3428C314.728 53.4267 318.905 53.7164 319.638 53.9451C320.31 54.151 320.913 55.4927 321.089 55.9959V55.9883Z" fill="#74C4E8"/>
<path d="M316.866 54.4331C316.866 54.4331 319.447 50.5145 321.219 51.4217C322.99 52.3289 321.127 57.9552 319.096 58.7785C317.064 59.6019 316.27 57.7417 316.27 57.7417L316.858 54.4331H316.866Z" fill="#AD6359"/>
<path d="M320.646 53.0227C320.646 53.0227 320.684 53.0684 320.661 53.0761C319.241 53.7012 318.523 55.0506 318.027 56.4457C318.439 55.9044 319.012 55.5919 319.737 56.0798C319.775 56.1027 319.737 56.1637 319.699 56.156C319.103 56.0493 318.683 56.156 318.302 56.6439C318.027 56.987 317.851 57.4139 317.66 57.8027C317.599 57.9323 317.362 57.8714 317.408 57.7189C317.408 57.7113 317.408 57.696 317.416 57.6884C317.324 55.8587 318.683 53.259 320.646 53.0151V53.0227Z" fill="#263238"/>
<path d="M316.713 69.0553L313.964 75.787L305.61 67.2103L303.219 69.9396C303.219 69.9396 311.368 83.5402 311.421 82.9303L314.239 77.1287L318.241 81.1921L317.966 71.0298L316.721 69.0476L316.713 69.0553Z" fill="#EBEBEB"/>
<path d="M318.378 76.1605C318.279 74.4833 318.218 72.7909 318.042 71.1213C318.042 71.0603 317.943 71.0374 317.927 71.106C317.584 72.7223 318.004 79.1261 317.988 80.6661L317.973 80.6509C317.805 80.4755 314.262 77.0754 314.231 77.1287C313.62 78.0512 311.558 82.2747 311.413 82.6559C310.123 80.4984 305.182 72.6384 303.655 70.5952C303.609 70.5343 303.517 70.5876 303.555 70.6562C304.693 72.9357 311.23 83.5174 311.329 83.4869C311.398 83.5402 313.964 78.3333 314.269 77.3498C314.865 78.0893 318.439 81.9317 318.454 81.6801C318.546 80.0029 318.477 77.8454 318.37 76.1682L318.378 76.1605Z" fill="#263238"/>
</g>
<defs>
<clipPath id="clip0_13031_7937">
<rect width="501" height="317" fill="white"/>
</clipPath>
</defs>
</svg>
