<svg width="26" height="30" viewBox="0 0 26 30" fill="none" xmlns="http://www.w3.org/2000/svg">
<path d="M8.93457 14.9028C8.93457 13.7199 8.73991 12.5819 8.35059 11.4888C7.96126 10.3957 7.40348 9.40365 6.67725 8.5127C6.44515 8.2207 6.18685 8.04102 5.90234 7.97363C5.62533 7.89876 5.36328 7.90625 5.11621 7.99609C4.86914 8.07845 4.66325 8.22445 4.49854 8.43408C4.33382 8.63623 4.24023 8.87207 4.21777 9.1416C4.2028 9.40365 4.29639 9.66943 4.49854 9.93896C5.16488 10.8075 5.63281 11.6235 5.90234 12.3872C6.17936 13.1434 6.31787 13.9819 6.31787 14.9028C6.31787 15.8237 6.17936 16.666 5.90234 17.4297C5.63281 18.1859 5.16488 18.9982 4.49854 19.8667C4.30387 20.1362 4.21403 20.4058 4.229 20.6753C4.24398 20.9373 4.33382 21.1694 4.49854 21.3716C4.66325 21.5737 4.86914 21.7197 5.11621 21.8096C5.37077 21.8994 5.63656 21.9069 5.91357 21.832C6.19059 21.7572 6.44515 21.5737 6.67725 21.2817C7.40348 20.3908 7.96126 19.3988 8.35059 18.3057C8.73991 17.2126 8.93457 16.0783 8.93457 14.9028ZM15.3472 14.9028C15.3472 13.0685 15.0664 11.3091 14.5049 9.62451C13.9434 7.93994 13.1385 6.40137 12.0903 5.00879C11.8358 4.67936 11.5625 4.47347 11.2705 4.39111C10.9785 4.30127 10.7015 4.30127 10.4395 4.39111C10.1774 4.48096 9.96029 4.6307 9.78809 4.84033C9.62337 5.04997 9.53727 5.29704 9.52979 5.58154C9.52979 5.86605 9.64209 6.1543 9.8667 6.44629C10.8026 7.62923 11.5138 8.93945 12.0005 10.377C12.4871 11.8145 12.7305 13.3231 12.7305 14.9028C12.7305 16.4826 12.4871 17.9912 12.0005 19.4287C11.5138 20.8587 10.8026 22.1689 9.8667 23.3594C9.64209 23.6514 9.52979 23.9359 9.52979 24.2129C9.53727 24.4974 9.62337 24.7445 9.78809 24.9541C9.96029 25.1712 10.1774 25.3247 10.4395 25.4146C10.7015 25.5044 10.9785 25.5044 11.2705 25.4146C11.5625 25.3322 11.8358 25.1263 12.0903 24.7969C13.1385 23.4043 13.9434 21.8657 14.5049 20.1812C15.0664 18.4891 15.3472 16.7297 15.3472 14.9028ZM21.771 14.9028C21.771 12.4396 21.3929 10.0775 20.6367 7.81641C19.888 5.54785 18.8099 3.45898 17.4023 1.5498C17.1777 1.24284 16.9194 1.04818 16.6274 0.96582C16.3429 0.883464 16.0659 0.883464 15.7964 0.96582C15.5343 1.04818 15.3172 1.19043 15.145 1.39258C14.9803 1.59473 14.8905 1.83805 14.8755 2.12256C14.868 2.39958 14.9878 2.68783 15.2349 2.9873C16.5226 4.69434 17.4959 6.55485 18.1548 8.56885C18.8211 10.5754 19.1543 12.6867 19.1543 14.9028C19.1543 17.1115 18.8211 19.2228 18.1548 21.2368C17.4959 23.2433 16.5301 25.0926 15.2573 26.7847C15.0177 27.0841 14.9017 27.3724 14.9092 27.6494C14.9167 27.9339 15.0028 28.181 15.1675 28.3906C15.3397 28.6003 15.5568 28.7463 15.8188 28.8286C16.0809 28.911 16.3542 28.9072 16.6387 28.8174C16.9307 28.735 17.1927 28.5329 17.4248 28.2109C18.8249 26.3242 19.8993 24.2503 20.6479 21.9893C21.3966 19.7282 21.771 17.366 21.771 14.9028Z" fill="white"/>
</svg>
