<svg width="66" height="84" viewBox="0 0 66 84" fill="none" xmlns="http://www.w3.org/2000/svg">
<path d="M51.6014 17.0156H13.54V19.2108H51.6014V17.0156Z" fill="white"/>
<path d="M51.6014 25.0664H13.54V27.2626H51.6014V25.0664Z" fill="white"/>
<path d="M51.6014 33.8516H13.54V36.0477H51.6014V33.8516Z" fill="white"/>
<path d="M51.6014 41.9023H13.54V44.0985H51.6014V41.9023Z" fill="white"/>
<path d="M51.6014 50.6797H13.54V52.8758H51.6014V50.6797Z" fill="white"/>
<path d="M59.2842 0H6.58746C2.95509 0 0 2.95509 0 6.58747V76.4825C0 80.1149 2.95509 83.07 6.58746 83.07H49.0381C58.3206 83.07 65.8716 75.519 65.8716 66.2365V6.58747C65.8716 2.95408 62.9165 0 59.2842 0ZM4.3903 76.4825V6.58747C4.3903 5.376 5.37701 4.39131 6.58746 4.39131H59.2842C60.4936 4.39131 61.4793 5.376 61.4793 6.58747V63.1252H45.0127V78.6787H6.58746C5.37701 78.6787 4.3903 77.693 4.3903 76.4825ZM49.404 78.6595V67.5165H61.4138C60.7839 73.6585 55.6629 78.4751 49.404 78.6595Z" fill="white"/>
</svg>
