<svg width="611" height="90" viewBox="0 20 611 90" fill="none" xmlns="http://www.w3.org/2000/svg">
<mask id="mask0_2798_3248" style="mask-type:alpha" maskUnits="userSpaceOnUse" x="2" y="29" width="605" height="74">
<path d="M29.55 83.525C24.6 83.525 20.05 82.375 15.9 80.075C11.8 77.775 8.525 74.575 6.075 70.475C3.675 66.325 2.475 61.675 2.475 56.525C2.475 51.375 3.675 46.75 6.075 42.65C8.525 38.55 11.8 35.35 15.9 33.05C20.05 30.75 24.6 29.6 29.55 29.6C34.5 29.6 39.025 30.75 43.125 33.05C47.275 35.35 50.525 38.55 52.875 42.65C55.275 46.75 56.475 51.375 56.475 56.525C56.475 61.675 55.275 66.325 52.875 70.475C50.475 74.575 47.225 77.775 43.125 80.075C39.025 82.375 34.5 83.525 29.55 83.525ZM29.55 71.825C33.75 71.825 37.1 70.425 39.6 67.625C42.15 64.825 43.425 61.125 43.425 56.525C43.425 51.875 42.15 48.175 39.6 45.425C37.1 42.625 33.75 41.225 29.55 41.225C25.3 41.225 21.9 42.6 19.35 45.35C16.85 48.1 15.6 51.825 15.6 56.525C15.6 61.175 16.85 64.9 19.35 67.7C21.9 70.45 25.3 71.825 29.55 71.825ZM76.435 47.075C77.685 45.125 79.41 43.55 81.61 42.35C83.81 41.15 86.385 40.55 89.335 40.55C92.785 40.55 95.91 41.425 98.71 43.175C101.51 44.925 103.71 47.425 105.31 50.675C106.96 53.925 107.785 57.7 107.785 62C107.785 66.3 106.96 70.1 105.31 73.4C103.71 76.65 101.51 79.175 98.71 80.975C95.91 82.725 92.785 83.6 89.335 83.6C86.435 83.6 83.86 83 81.61 81.8C79.41 80.6 77.685 79.05 76.435 77.15V102.95H63.61V41.15H76.435V47.075ZM94.735 62C94.735 58.8 93.835 56.3 92.035 54.5C90.285 52.65 88.11 51.725 85.51 51.725C82.96 51.725 80.785 52.65 78.985 54.5C77.235 56.35 76.36 58.875 76.36 62.075C76.36 65.275 77.235 67.8 78.985 69.65C80.785 71.5 82.96 72.425 85.51 72.425C88.06 72.425 90.235 71.5 92.035 69.65C93.835 67.75 94.735 65.2 94.735 62ZM153.963 61.4C153.963 62.6 153.888 63.85 153.738 65.15H124.713C124.913 67.75 125.738 69.75 127.188 71.15C128.688 72.5 130.513 73.175 132.663 73.175C135.863 73.175 138.088 71.825 139.338 69.125H152.988C152.288 71.875 151.013 74.35 149.163 76.55C147.363 78.75 145.088 80.475 142.338 81.725C139.588 82.975 136.513 83.6 133.113 83.6C129.013 83.6 125.363 82.725 122.163 80.975C118.963 79.225 116.463 76.725 114.663 73.475C112.863 70.225 111.963 66.425 111.963 62.075C111.963 57.725 112.838 53.925 114.588 50.675C116.388 47.425 118.888 44.925 122.088 43.175C125.288 41.425 128.963 40.55 133.113 40.55C137.163 40.55 140.763 41.4 143.913 43.1C147.063 44.8 149.513 47.225 151.263 50.375C153.063 53.525 153.963 57.2 153.963 61.4ZM140.838 58.025C140.838 55.825 140.088 54.075 138.588 52.775C137.088 51.475 135.213 50.825 132.963 50.825C130.813 50.825 128.988 51.45 127.488 52.7C126.038 53.95 125.138 55.725 124.788 58.025H140.838ZM186.229 40.7C191.129 40.7 195.029 42.3 197.929 45.5C200.879 48.65 202.354 53 202.354 58.55V83H189.604V60.275C189.604 57.475 188.879 55.3 187.429 53.75C185.979 52.2 184.029 51.425 181.579 51.425C179.129 51.425 177.179 52.2 175.729 53.75C174.279 55.3 173.554 57.475 173.554 60.275V83H160.729V41.15H173.554V46.7C174.854 44.85 176.604 43.4 178.804 42.35C181.004 41.25 183.479 40.7 186.229 40.7ZM230.316 83.525C226.466 83.525 223.016 82.9 219.966 81.65C216.916 80.4 214.466 78.55 212.616 76.1C210.816 73.65 209.866 70.7 209.766 67.25H223.416C223.616 69.2 224.291 70.7 225.441 71.75C226.591 72.75 228.091 73.25 229.941 73.25C231.841 73.25 233.341 72.825 234.441 71.975C235.541 71.075 236.091 69.85 236.091 68.3C236.091 67 235.641 65.925 234.741 65.075C233.891 64.225 232.816 63.525 231.516 62.975C230.266 62.425 228.466 61.8 226.116 61.1C222.716 60.05 219.941 59 217.791 57.95C215.641 56.9 213.791 55.35 212.241 53.3C210.691 51.25 209.916 48.575 209.916 45.275C209.916 40.375 211.691 36.55 215.241 33.8C218.791 31 223.416 29.6 229.116 29.6C234.916 29.6 239.591 31 243.141 33.8C246.691 36.55 248.591 40.4 248.841 45.35H234.966C234.866 43.65 234.241 42.325 233.091 41.375C231.941 40.375 230.466 39.875 228.666 39.875C227.116 39.875 225.866 40.3 224.916 41.15C223.966 41.95 223.491 43.125 223.491 44.675C223.491 46.375 224.291 47.7 225.891 48.65C227.491 49.6 229.991 50.625 233.391 51.725C236.791 52.875 239.541 53.975 241.641 55.025C243.791 56.075 245.641 57.6 247.191 59.6C248.741 61.6 249.516 64.175 249.516 67.325C249.516 70.325 248.741 73.05 247.191 75.5C245.691 77.95 243.491 79.9 240.591 81.35C237.691 82.8 234.266 83.525 230.316 83.525ZM280.734 72.125V83H274.209C269.559 83 265.934 81.875 263.334 79.625C260.734 77.325 259.434 73.6 259.434 68.45V51.8H254.334V41.15H259.434V30.95H272.259V41.15H280.659V51.8H272.259V68.6C272.259 69.85 272.559 70.75 273.159 71.3C273.759 71.85 274.759 72.125 276.159 72.125H280.734ZM300.703 48.125C302.203 45.825 304.078 44.025 306.328 42.725C308.578 41.375 311.078 40.7 313.828 40.7V54.275H310.303C307.103 54.275 304.703 54.975 303.103 56.375C301.503 57.725 300.703 60.125 300.703 63.575V83H287.878V41.15H300.703V48.125ZM359.408 61.4C359.408 62.6 359.333 63.85 359.183 65.15H330.158C330.358 67.75 331.183 69.75 332.633 71.15C334.133 72.5 335.958 73.175 338.108 73.175C341.308 73.175 343.533 71.825 344.783 69.125H358.433C357.733 71.875 356.458 74.35 354.608 76.55C352.808 78.75 350.533 80.475 347.783 81.725C345.033 82.975 341.958 83.6 338.558 83.6C334.458 83.6 330.808 82.725 327.608 80.975C324.408 79.225 321.908 76.725 320.108 73.475C318.308 70.225 317.408 66.425 317.408 62.075C317.408 57.725 318.283 53.925 320.033 50.675C321.833 47.425 324.333 44.925 327.533 43.175C330.733 41.425 334.408 40.55 338.558 40.55C342.608 40.55 346.208 41.4 349.358 43.1C352.508 44.8 354.958 47.225 356.708 50.375C358.508 53.525 359.408 57.2 359.408 61.4ZM346.283 58.025C346.283 55.825 345.533 54.075 344.033 52.775C342.533 51.475 340.658 50.825 338.408 50.825C336.258 50.825 334.433 51.45 332.933 52.7C331.483 53.95 330.583 55.725 330.233 58.025H346.283ZM405.623 61.4C405.623 62.6 405.548 63.85 405.398 65.15H376.373C376.573 67.75 377.398 69.75 378.848 71.15C380.348 72.5 382.173 73.175 384.323 73.175C387.523 73.175 389.748 71.825 390.998 69.125H404.648C403.948 71.875 402.673 74.35 400.823 76.55C399.023 78.75 396.748 80.475 393.998 81.725C391.248 82.975 388.173 83.6 384.773 83.6C380.673 83.6 377.023 82.725 373.823 80.975C370.623 79.225 368.123 76.725 366.323 73.475C364.523 70.225 363.623 66.425 363.623 62.075C363.623 57.725 364.498 53.925 366.248 50.675C368.048 47.425 370.548 44.925 373.748 43.175C376.948 41.425 380.623 40.55 384.773 40.55C388.823 40.55 392.423 41.4 395.573 43.1C398.723 44.8 401.173 47.225 402.923 50.375C404.723 53.525 405.623 57.2 405.623 61.4ZM392.498 58.025C392.498 55.825 391.748 54.075 390.248 52.775C388.748 51.475 386.873 50.825 384.623 50.825C382.473 50.825 380.648 51.45 379.148 52.7C377.698 53.95 376.798 55.725 376.448 58.025H392.498ZM435.714 72.125V83H429.189C424.539 83 420.914 81.875 418.314 79.625C415.714 77.325 414.414 73.6 414.414 68.45V51.8H409.314V41.15H414.414V30.95H427.239V41.15H435.639V51.8H427.239V68.6C427.239 69.85 427.539 70.75 428.139 71.3C428.739 71.85 429.739 72.125 431.139 72.125H435.714ZM502.483 30.35V83H489.658V51.425L477.883 83H467.533L455.683 51.35V83H442.858V30.35H458.008L472.783 66.8L487.408 30.35H502.483ZM509.156 62C509.156 57.7 509.956 53.925 511.556 50.675C513.206 47.425 515.431 44.925 518.231 43.175C521.031 41.425 524.156 40.55 527.606 40.55C530.556 40.55 533.131 41.15 535.331 42.35C537.581 43.55 539.306 45.125 540.506 47.075V41.15H553.331V83H540.506V77.075C539.256 79.025 537.506 80.6 535.256 81.8C533.056 83 530.481 83.6 527.531 83.6C524.131 83.6 521.031 82.725 518.231 80.975C515.431 79.175 513.206 76.65 511.556 73.4C509.956 70.1 509.156 66.3 509.156 62ZM540.506 62.075C540.506 58.875 539.606 56.35 537.806 54.5C536.056 52.65 533.906 51.725 531.356 51.725C528.806 51.725 526.631 52.65 524.831 54.5C523.081 56.3 522.206 58.8 522.206 62C522.206 65.2 523.081 67.75 524.831 69.65C526.631 71.5 528.806 72.425 531.356 72.425C533.906 72.425 536.056 71.5 537.806 69.65C539.606 67.8 540.506 65.275 540.506 62.075ZM575.434 47.075C576.684 45.125 578.409 43.55 580.609 42.35C582.809 41.15 585.384 40.55 588.334 40.55C591.784 40.55 594.909 41.425 597.709 43.175C600.509 44.925 602.709 47.425 604.309 50.675C605.959 53.925 606.784 57.7 606.784 62C606.784 66.3 605.959 70.1 604.309 73.4C602.709 76.65 600.509 79.175 597.709 80.975C594.909 82.725 591.784 83.6 588.334 83.6C585.434 83.6 582.859 83 580.609 81.8C578.409 80.6 576.684 79.05 575.434 77.15V102.95H562.609V41.15H575.434V47.075ZM593.734 62C593.734 58.8 592.834 56.3 591.034 54.5C589.284 52.65 587.109 51.725 584.509 51.725C581.959 51.725 579.784 52.65 577.984 54.5C576.234 56.35 575.359 58.875 575.359 62.075C575.359 65.275 576.234 67.8 577.984 69.65C579.784 71.5 581.959 72.425 584.509 72.425C587.059 72.425 589.234 71.5 591.034 69.65C592.834 67.75 593.734 65.2 593.734 62Z" fill="black"/>
</mask>
<g mask="url(#mask0_2798_3248)">
<rect x="-270" y="-132" width="1017" height="255" fill="#111111"/>
</g>
</svg>
