<svg width="611" height="227" viewBox="0 0 611 227" fill="none" xmlns="http://www.w3.org/2000/svg">
<path d="M23.772 29.38C23.772 30.004 23.736 30.664 23.664 31.36H7.896C8.016 33.304 8.676 34.828 9.876 35.932C11.1 37.012 12.576 37.552 14.304 37.552C15.72 37.552 16.896 37.228 17.832 36.58C18.792 35.908 19.464 35.02 19.848 33.916H23.376C22.848 35.812 21.792 37.36 20.208 38.56C18.624 39.736 16.656 40.324 14.304 40.324C12.432 40.324 10.752 39.904 9.264 39.064C7.8 38.224 6.648 37.036 5.808 35.5C4.968 33.94 4.548 32.14 4.548 30.1C4.548 28.06 4.956 26.272 5.772 24.736C6.588 23.2 7.728 22.024 9.192 21.208C10.68 20.368 12.384 19.948 14.304 19.948C16.176 19.948 17.832 20.356 19.272 21.172C20.712 21.988 21.816 23.116 22.584 24.556C23.376 25.972 23.772 27.58 23.772 29.38ZM20.388 28.696C20.388 27.448 20.112 26.38 19.56 25.492C19.008 24.58 18.252 23.896 17.292 23.44C16.356 22.96 15.312 22.72 14.16 22.72C12.504 22.72 11.088 23.248 9.912 24.304C8.76 25.36 8.1 26.824 7.932 28.696H20.388ZM37.7082 19.912C40.1082 19.912 42.0522 20.644 43.5402 22.108C45.0282 23.548 45.7722 25.636 45.7722 28.372V40H42.5322V28.84C42.5322 26.872 42.0402 25.372 41.0562 24.34C40.0722 23.284 38.7282 22.756 37.0242 22.756C35.2962 22.756 33.9162 23.296 32.8842 24.376C31.8762 25.456 31.3722 27.028 31.3722 29.092V40H28.0962V20.272H31.3722V23.08C32.0202 22.072 32.8962 21.292 34.0002 20.74C35.1282 20.188 36.3642 19.912 37.7082 19.912ZM49.8996 30.064C49.8996 28.048 50.3076 26.284 51.1236 24.772C51.9396 23.236 53.0556 22.048 54.4716 21.208C55.9116 20.368 57.5076 19.948 59.2596 19.948C60.9876 19.948 62.4876 20.32 63.7596 21.064C65.0316 21.808 65.9796 22.744 66.6036 23.872V20.272H69.9156V40H66.6036V36.328C65.9556 37.48 64.9836 38.44 63.6876 39.208C62.4156 39.952 60.9276 40.324 59.2236 40.324C57.4716 40.324 55.8876 39.892 54.4716 39.028C53.0556 38.164 51.9396 36.952 51.1236 35.392C50.3076 33.832 49.8996 32.056 49.8996 30.064ZM66.6036 30.1C66.6036 28.612 66.3036 27.316 65.7036 26.212C65.1036 25.108 64.2876 24.268 63.2556 23.692C62.2476 23.092 61.1316 22.792 59.9076 22.792C58.6836 22.792 57.5676 23.08 56.5596 23.656C55.5516 24.232 54.7476 25.072 54.1476 26.176C53.5476 27.28 53.2476 28.576 53.2476 30.064C53.2476 31.576 53.5476 32.896 54.1476 34.024C54.7476 35.128 55.5516 35.98 56.5596 36.58C57.5676 37.156 58.6836 37.444 59.9076 37.444C61.1316 37.444 62.2476 37.156 63.2556 36.58C64.2876 35.98 65.1036 35.128 65.7036 34.024C66.3036 32.896 66.6036 31.588 66.6036 30.1ZM78.7277 23.944C79.3997 22.768 80.3837 21.808 81.6797 21.064C82.9757 20.32 84.4517 19.948 86.1077 19.948C87.8837 19.948 89.4797 20.368 90.8957 21.208C92.3117 22.048 93.4277 23.236 94.2437 24.772C95.0597 26.284 95.4677 28.048 95.4677 30.064C95.4677 32.056 95.0597 33.832 94.2437 35.392C93.4277 36.952 92.2997 38.164 90.8597 39.028C89.4437 39.892 87.8597 40.324 86.1077 40.324C84.4037 40.324 82.9037 39.952 81.6077 39.208C80.3357 38.464 79.3757 37.516 78.7277 36.364V40H75.4517V13.36H78.7277V23.944ZM92.1197 30.064C92.1197 28.576 91.8197 27.28 91.2197 26.176C90.6197 25.072 89.8037 24.232 88.7717 23.656C87.7637 23.08 86.6477 22.792 85.4237 22.792C84.2237 22.792 83.1077 23.092 82.0757 23.692C81.0677 24.268 80.2517 25.12 79.6277 26.248C79.0277 27.352 78.7277 28.636 78.7277 30.1C78.7277 31.588 79.0277 32.896 79.6277 34.024C80.2517 35.128 81.0677 35.98 82.0757 36.58C83.1077 37.156 84.2237 37.444 85.4237 37.444C86.6477 37.444 87.7637 37.156 88.7717 36.58C89.8037 35.98 90.6197 35.128 91.2197 34.024C91.8197 32.896 92.1197 31.576 92.1197 30.064ZM103.056 13.36V40H99.7798V13.36H103.056ZM110.331 17.068C109.707 17.068 109.179 16.852 108.747 16.42C108.315 15.988 108.099 15.46 108.099 14.836C108.099 14.212 108.315 13.684 108.747 13.252C109.179 12.82 109.707 12.604 110.331 12.604C110.931 12.604 111.435 12.82 111.843 13.252C112.275 13.684 112.491 14.212 112.491 14.836C112.491 15.46 112.275 15.988 111.843 16.42C111.435 16.852 110.931 17.068 110.331 17.068ZM111.915 20.272V40H108.639V20.272H111.915ZM127.111 19.912C129.511 19.912 131.455 20.644 132.943 22.108C134.431 23.548 135.175 25.636 135.175 28.372V40H131.935V28.84C131.935 26.872 131.443 25.372 130.459 24.34C129.475 23.284 128.131 22.756 126.427 22.756C124.699 22.756 123.319 23.296 122.287 24.376C121.279 25.456 120.775 27.028 120.775 29.092V40H117.499V20.272H120.775V23.08C121.423 22.072 122.299 21.292 123.403 20.74C124.531 20.188 125.767 19.912 127.111 19.912ZM148.662 19.948C150.366 19.948 151.854 20.32 153.126 21.064C154.422 21.808 155.382 22.744 156.006 23.872V20.272H159.318V40.432C159.318 42.232 158.934 43.828 158.166 45.22C157.398 46.636 156.294 47.74 154.854 48.532C153.438 49.324 151.782 49.72 149.886 49.72C147.294 49.72 145.134 49.108 143.406 47.884C141.678 46.66 140.658 44.992 140.346 42.88H143.586C143.946 44.08 144.69 45.04 145.818 45.76C146.946 46.504 148.302 46.876 149.886 46.876C151.686 46.876 153.15 46.312 154.278 45.184C155.43 44.056 156.006 42.472 156.006 40.432V36.292C155.358 37.444 154.398 38.404 153.126 39.172C151.854 39.94 150.366 40.324 148.662 40.324C146.91 40.324 145.314 39.892 143.874 39.028C142.458 38.164 141.342 36.952 140.526 35.392C139.71 33.832 139.302 32.056 139.302 30.064C139.302 28.048 139.71 26.284 140.526 24.772C141.342 23.236 142.458 22.048 143.874 21.208C145.314 20.368 146.91 19.948 148.662 19.948ZM156.006 30.1C156.006 28.612 155.706 27.316 155.106 26.212C154.506 25.108 153.69 24.268 152.658 23.692C151.65 23.092 150.534 22.792 149.31 22.792C148.086 22.792 146.97 23.08 145.962 23.656C144.954 24.232 144.15 25.072 143.55 26.176C142.95 27.28 142.65 28.576 142.65 30.064C142.65 31.576 142.95 32.896 143.55 34.024C144.15 35.128 144.954 35.98 145.962 36.58C146.97 37.156 148.086 37.444 149.31 37.444C150.534 37.444 151.65 37.156 152.658 36.58C153.69 35.98 154.506 35.128 155.106 34.024C155.706 32.896 156.006 31.588 156.006 30.1ZM173.228 30.1C173.228 28.06 173.636 26.284 174.452 24.772C175.268 23.236 176.396 22.048 177.836 21.208C179.3 20.368 180.968 19.948 182.84 19.948C185.264 19.948 187.256 20.536 188.816 21.712C190.4 22.888 191.444 24.52 191.948 26.608H188.42C188.084 25.408 187.424 24.46 186.44 23.764C185.48 23.068 184.28 22.72 182.84 22.72C180.968 22.72 179.456 23.368 178.304 24.664C177.152 25.936 176.576 27.748 176.576 30.1C176.576 32.476 177.152 34.312 178.304 35.608C179.456 36.904 180.968 37.552 182.84 37.552C184.28 37.552 185.48 37.216 186.44 36.544C187.4 35.872 188.06 34.912 188.42 33.664H191.948C191.42 35.68 190.364 37.3 188.78 38.524C187.196 39.724 185.216 40.324 182.84 40.324C180.968 40.324 179.3 39.904 177.836 39.064C176.396 38.224 175.268 37.036 174.452 35.5C173.636 33.964 173.228 32.164 173.228 30.1ZM204.923 40.324C203.075 40.324 201.395 39.904 199.883 39.064C198.395 38.224 197.219 37.036 196.355 35.5C195.515 33.94 195.095 32.14 195.095 30.1C195.095 28.084 195.527 26.308 196.391 24.772C197.279 23.212 198.479 22.024 199.991 21.208C201.503 20.368 203.195 19.948 205.067 19.948C206.939 19.948 208.631 20.368 210.143 21.208C211.655 22.024 212.843 23.2 213.707 24.736C214.595 26.272 215.039 28.06 215.039 30.1C215.039 32.14 214.583 33.94 213.671 35.5C212.783 37.036 211.571 38.224 210.035 39.064C208.499 39.904 206.795 40.324 204.923 40.324ZM204.923 37.444C206.099 37.444 207.203 37.168 208.235 36.616C209.267 36.064 210.095 35.236 210.719 34.132C211.367 33.028 211.691 31.684 211.691 30.1C211.691 28.516 211.379 27.172 210.755 26.068C210.131 24.964 209.315 24.148 208.307 23.62C207.299 23.068 206.207 22.792 205.031 22.792C203.831 22.792 202.727 23.068 201.719 23.62C200.735 24.148 199.943 24.964 199.343 26.068C198.743 27.172 198.443 28.516 198.443 30.1C198.443 31.708 198.731 33.064 199.307 34.168C199.907 35.272 200.699 36.1 201.683 36.652C202.667 37.18 203.747 37.444 204.923 37.444ZM243.07 19.912C244.606 19.912 245.974 20.236 247.174 20.884C248.374 21.508 249.322 22.456 250.018 23.728C250.714 25 251.062 26.548 251.062 28.372V40H247.822V28.84C247.822 26.872 247.33 25.372 246.346 24.34C245.386 23.284 244.078 22.756 242.422 22.756C240.718 22.756 239.362 23.308 238.354 24.412C237.346 25.492 236.842 27.064 236.842 29.128V40H233.602V28.84C233.602 26.872 233.11 25.372 232.126 24.34C231.166 23.284 229.858 22.756 228.202 22.756C226.498 22.756 225.142 23.308 224.134 24.412C223.126 25.492 222.622 27.064 222.622 29.128V40H219.346V20.272H222.622V23.116C223.27 22.084 224.134 21.292 225.214 20.74C226.318 20.188 227.53 19.912 228.85 19.912C230.506 19.912 231.97 20.284 233.242 21.028C234.514 21.772 235.462 22.864 236.086 24.304C236.638 22.912 237.55 21.832 238.822 21.064C240.094 20.296 241.51 19.912 243.07 19.912ZM280.16 19.912C281.696 19.912 283.064 20.236 284.264 20.884C285.464 21.508 286.412 22.456 287.108 23.728C287.804 25 288.152 26.548 288.152 28.372V40H284.912V28.84C284.912 26.872 284.42 25.372 283.436 24.34C282.476 23.284 281.168 22.756 279.512 22.756C277.808 22.756 276.452 23.308 275.444 24.412C274.436 25.492 273.932 27.064 273.932 29.128V40H270.692V28.84C270.692 26.872 270.2 25.372 269.216 24.34C268.256 23.284 266.948 22.756 265.292 22.756C263.588 22.756 262.232 23.308 261.224 24.412C260.216 25.492 259.712 27.064 259.712 29.128V40H256.436V20.272H259.712V23.116C260.36 22.084 261.224 21.292 262.304 20.74C263.408 20.188 264.62 19.912 265.94 19.912C267.596 19.912 269.06 20.284 270.332 21.028C271.604 21.772 272.552 22.864 273.176 24.304C273.728 22.912 274.64 21.832 275.912 21.064C277.184 20.296 278.6 19.912 280.16 19.912ZM311.526 29.38C311.526 30.004 311.49 30.664 311.418 31.36H295.65C295.77 33.304 296.43 34.828 297.63 35.932C298.854 37.012 300.33 37.552 302.058 37.552C303.474 37.552 304.65 37.228 305.586 36.58C306.546 35.908 307.218 35.02 307.602 33.916H311.13C310.602 35.812 309.546 37.36 307.962 38.56C306.378 39.736 304.41 40.324 302.058 40.324C300.186 40.324 298.506 39.904 297.018 39.064C295.554 38.224 294.402 37.036 293.562 35.5C292.722 33.94 292.302 32.14 292.302 30.1C292.302 28.06 292.71 26.272 293.526 24.736C294.342 23.2 295.482 22.024 296.946 21.208C298.434 20.368 300.138 19.948 302.058 19.948C303.93 19.948 305.586 20.356 307.026 21.172C308.466 21.988 309.57 23.116 310.338 24.556C311.13 25.972 311.526 27.58 311.526 29.38ZM308.142 28.696C308.142 27.448 307.866 26.38 307.314 25.492C306.762 24.58 306.006 23.896 305.046 23.44C304.11 22.96 303.066 22.72 301.914 22.72C300.258 22.72 298.842 23.248 297.666 24.304C296.514 25.36 295.854 26.824 295.686 28.696H308.142ZM319.126 23.476C319.702 22.348 320.518 21.472 321.574 20.848C322.654 20.224 323.962 19.912 325.498 19.912V23.296H324.634C320.962 23.296 319.126 25.288 319.126 29.272V40H315.85V20.272H319.126V23.476ZM328.056 30.1C328.056 28.06 328.464 26.284 329.28 24.772C330.096 23.236 331.224 22.048 332.664 21.208C334.128 20.368 335.796 19.948 337.668 19.948C340.092 19.948 342.084 20.536 343.644 21.712C345.228 22.888 346.272 24.52 346.776 26.608H343.248C342.912 25.408 342.252 24.46 341.268 23.764C340.308 23.068 339.108 22.72 337.668 22.72C335.796 22.72 334.284 23.368 333.132 24.664C331.98 25.936 331.404 27.748 331.404 30.1C331.404 32.476 331.98 34.312 333.132 35.608C334.284 36.904 335.796 37.552 337.668 37.552C339.108 37.552 340.308 37.216 341.268 36.544C342.228 35.872 342.888 34.912 343.248 33.664H346.776C346.248 35.68 345.192 37.3 343.608 38.524C342.024 39.724 340.044 40.324 337.668 40.324C335.796 40.324 334.128 39.904 332.664 39.064C331.224 38.224 330.096 37.036 329.28 35.5C328.464 33.964 328.056 32.164 328.056 30.1ZM369.147 29.38C369.147 30.004 369.111 30.664 369.039 31.36H353.271C353.391 33.304 354.051 34.828 355.251 35.932C356.475 37.012 357.951 37.552 359.679 37.552C361.095 37.552 362.271 37.228 363.207 36.58C364.167 35.908 364.839 35.02 365.223 33.916H368.751C368.223 35.812 367.167 37.36 365.583 38.56C363.999 39.736 362.031 40.324 359.679 40.324C357.807 40.324 356.127 39.904 354.639 39.064C353.175 38.224 352.023 37.036 351.183 35.5C350.343 33.94 349.923 32.14 349.923 30.1C349.923 28.06 350.331 26.272 351.147 24.736C351.963 23.2 353.103 22.024 354.567 21.208C356.055 20.368 357.759 19.948 359.679 19.948C361.551 19.948 363.207 20.356 364.647 21.172C366.087 21.988 367.191 23.116 367.959 24.556C368.751 25.972 369.147 27.58 369.147 29.38ZM365.763 28.696C365.763 27.448 365.487 26.38 364.935 25.492C364.383 24.58 363.627 23.896 362.667 23.44C361.731 22.96 360.687 22.72 359.535 22.72C357.879 22.72 356.463 23.248 355.287 24.304C354.135 25.36 353.475 26.824 353.307 28.696H365.763ZM391.673 40.324C389.825 40.324 388.145 39.904 386.633 39.064C385.145 38.224 383.969 37.036 383.105 35.5C382.265 33.94 381.845 32.14 381.845 30.1C381.845 28.084 382.277 26.308 383.141 24.772C384.029 23.212 385.229 22.024 386.741 21.208C388.253 20.368 389.945 19.948 391.817 19.948C393.689 19.948 395.381 20.368 396.893 21.208C398.405 22.024 399.593 23.2 400.457 24.736C401.345 26.272 401.789 28.06 401.789 30.1C401.789 32.14 401.333 33.94 400.421 35.5C399.533 37.036 398.321 38.224 396.785 39.064C395.249 39.904 393.545 40.324 391.673 40.324ZM391.673 37.444C392.849 37.444 393.953 37.168 394.985 36.616C396.017 36.064 396.845 35.236 397.469 34.132C398.117 33.028 398.441 31.684 398.441 30.1C398.441 28.516 398.129 27.172 397.505 26.068C396.881 24.964 396.065 24.148 395.057 23.62C394.049 23.068 392.957 22.792 391.781 22.792C390.581 22.792 389.477 23.068 388.469 23.62C387.485 24.148 386.693 24.964 386.093 26.068C385.493 27.172 385.193 28.516 385.193 30.1C385.193 31.708 385.481 33.064 386.057 34.168C386.657 35.272 387.449 36.1 388.433 36.652C389.417 37.18 390.497 37.444 391.673 37.444ZM415.708 19.912C418.108 19.912 420.052 20.644 421.54 22.108C423.028 23.548 423.772 25.636 423.772 28.372V40H420.532V28.84C420.532 26.872 420.04 25.372 419.056 24.34C418.072 23.284 416.728 22.756 415.024 22.756C413.296 22.756 411.916 23.296 410.884 24.376C409.876 25.456 409.372 27.028 409.372 29.092V40H406.096V20.272H409.372V23.08C410.02 22.072 410.896 21.292 412 20.74C413.128 20.188 414.364 19.912 415.708 19.912Z" fill="#4E4646"/>
<path d="M16.776 173.776C16.776 174.352 16.76 174.792 16.728 175.096H5.856C5.904 176.088 6.144 176.936 6.576 177.64C7.008 178.344 7.576 178.88 8.28 179.248C8.984 179.6 9.752 179.776 10.584 179.776C11.672 179.776 12.584 179.512 13.32 178.984C14.072 178.456 14.568 177.744 14.808 176.848H16.584C16.264 178.128 15.576 179.176 14.52 179.992C13.48 180.792 12.168 181.192 10.584 181.192C9.352 181.192 8.248 180.92 7.272 180.376C6.296 179.816 5.528 179.032 4.968 178.024C4.424 177 4.152 175.808 4.152 174.448C4.152 173.088 4.424 171.896 4.968 170.872C5.512 169.848 6.272 169.064 7.248 168.52C8.224 167.976 9.336 167.704 10.584 167.704C11.832 167.704 12.92 167.976 13.848 168.52C14.792 169.064 15.512 169.8 16.008 170.728C16.52 171.64 16.776 172.656 16.776 173.776ZM15.072 173.728C15.088 172.752 14.888 171.92 14.472 171.232C14.072 170.544 13.52 170.024 12.816 169.672C12.112 169.32 11.344 169.144 10.512 169.144C9.264 169.144 8.2 169.544 7.32 170.344C6.44 171.144 5.952 172.272 5.856 173.728H15.072ZM26.7137 181L23.3297 175.72L20.0657 181H18.2897L22.5137 174.448L18.3377 167.896H20.2337L23.5697 173.104L26.8097 167.896H28.5617L24.3857 174.376L28.6097 181H26.7137ZM32.5448 170.776C32.9608 169.896 33.6168 169.168 34.5128 168.592C35.4248 168 36.5048 167.704 37.7528 167.704C38.9368 167.704 40.0008 167.984 40.9448 168.544C41.9048 169.088 42.6488 169.872 43.1768 170.896C43.7208 171.904 43.9928 173.08 43.9928 174.424C43.9928 175.768 43.7208 176.952 43.1768 177.976C42.6488 179 41.9048 179.792 40.9448 180.352C40.0008 180.912 38.9368 181.192 37.7528 181.192C36.5208 181.192 35.4488 180.904 34.5368 180.328C33.6248 179.736 32.9608 179 32.5448 178.12V187.192H30.8888V167.896H32.5448V170.776ZM42.2888 174.424C42.2888 173.336 42.0728 172.4 41.6407 171.616C41.2248 170.816 40.6488 170.208 39.9128 169.792C39.1768 169.376 38.3448 169.168 37.4168 169.168C36.5208 169.168 35.6968 169.384 34.9448 169.816C34.2088 170.248 33.6248 170.864 33.1928 171.664C32.7608 172.464 32.5448 173.392 32.5448 174.448C32.5448 175.504 32.7608 176.432 33.1928 177.232C33.6248 178.032 34.2088 178.648 34.9448 179.08C35.6968 179.512 36.5208 179.728 37.4168 179.728C38.3448 179.728 39.1768 179.52 39.9128 179.104C40.6488 178.672 41.2248 178.056 41.6407 177.256C42.0728 176.44 42.2888 175.496 42.2888 174.424ZM48.7641 163.24V181H47.0841V163.24H48.7641ZM58.3044 181.192C57.0724 181.192 55.9604 180.92 54.9684 180.376C53.9924 179.816 53.2164 179.032 52.6404 178.024C52.0804 177 51.8004 175.808 51.8004 174.448C51.8004 173.088 52.0884 171.904 52.6644 170.896C53.2404 169.872 54.0244 169.088 55.0164 168.544C56.0084 167.984 57.1204 167.704 58.3524 167.704C59.5844 167.704 60.6964 167.984 61.6884 168.544C62.6964 169.088 63.4804 169.872 64.0404 170.896C64.6164 171.904 64.9044 173.088 64.9044 174.448C64.9044 175.792 64.6164 176.976 64.0404 178C63.4644 179.024 62.6724 179.816 61.6644 180.376C60.6564 180.92 59.5364 181.192 58.3044 181.192ZM58.3044 179.728C59.1684 179.728 59.9684 179.536 60.7044 179.152C61.4404 178.752 62.0324 178.16 62.4804 177.376C62.9444 176.576 63.1764 175.6 63.1764 174.448C63.1764 173.296 62.9524 172.328 62.5044 171.544C62.0564 170.744 61.4644 170.152 60.7284 169.768C59.9924 169.368 59.1924 169.168 58.3284 169.168C57.4644 169.168 56.6644 169.368 55.9284 169.768C55.1924 170.152 54.6004 170.744 54.1524 171.544C53.7204 172.328 53.5044 173.296 53.5044 174.448C53.5044 175.6 53.7204 176.576 54.1524 177.376C54.6004 178.16 55.1844 178.752 55.9044 179.152C56.6404 179.536 57.4404 179.728 58.3044 179.728ZM69.6469 170.224C70.0149 169.408 70.5749 168.776 71.3269 168.328C72.0949 167.88 73.0309 167.656 74.1349 167.656V169.408H73.6789C72.4629 169.408 71.4869 169.736 70.7509 170.392C70.0149 171.048 69.6469 172.144 69.6469 173.68V181H67.9669V167.896H69.6469V170.224ZM88.5182 173.776C88.5182 174.352 88.5022 174.792 88.4702 175.096H77.5982C77.6462 176.088 77.8862 176.936 78.3182 177.64C78.7502 178.344 79.3182 178.88 80.0222 179.248C80.7262 179.6 81.4942 179.776 82.3262 179.776C83.4142 179.776 84.3262 179.512 85.0622 178.984C85.8142 178.456 86.3102 177.744 86.5502 176.848H88.3262C88.0062 178.128 87.3182 179.176 86.2622 179.992C85.2222 180.792 83.9102 181.192 82.3262 181.192C81.0942 181.192 79.9902 180.92 79.0142 180.376C78.0382 179.816 77.2702 179.032 76.7102 178.024C76.1662 177 75.8942 175.808 75.8942 174.448C75.8942 173.088 76.1662 171.896 76.7102 170.872C77.2542 169.848 78.0142 169.064 78.9902 168.52C79.9662 167.976 81.0782 167.704 82.3262 167.704C83.5742 167.704 84.6622 167.976 85.5902 168.52C86.5342 169.064 87.2542 169.8 87.7502 170.728C88.2622 171.64 88.5182 172.656 88.5182 173.776ZM86.8142 173.728C86.8302 172.752 86.6302 171.92 86.2142 171.232C85.8142 170.544 85.2622 170.024 84.5582 169.672C83.8542 169.32 83.0862 169.144 82.2542 169.144C81.0062 169.144 79.9422 169.544 79.0622 170.344C78.1822 171.144 77.6942 172.272 77.5982 173.728H86.8142ZM100.362 169.312V177.448C100.362 178.248 100.514 178.8 100.818 179.104C101.122 179.408 101.658 179.56 102.426 179.56H103.962V181H102.162C100.978 181 100.098 180.728 99.5218 180.184C98.9458 179.624 98.6578 178.712 98.6578 177.448V169.312H96.8338V167.896H98.6578V164.608H100.362V167.896H103.962V169.312H100.362ZM112.973 167.656C113.965 167.656 114.853 167.864 115.637 168.28C116.437 168.696 117.061 169.336 117.509 170.2C117.973 171.048 118.205 172.088 118.205 173.32V181H116.549V173.512C116.549 172.088 116.189 171 115.469 170.248C114.765 169.496 113.797 169.12 112.565 169.12C111.301 169.12 110.293 169.52 109.541 170.32C108.789 171.12 108.413 172.296 108.413 173.848V181H106.733V163.24H108.413V170.128C108.829 169.344 109.437 168.736 110.237 168.304C111.053 167.872 111.965 167.656 112.973 167.656ZM133.776 173.776C133.776 174.352 133.76 174.792 133.728 175.096H122.856C122.904 176.088 123.144 176.936 123.576 177.64C124.008 178.344 124.576 178.88 125.28 179.248C125.984 179.6 126.752 179.776 127.584 179.776C128.672 179.776 129.584 179.512 130.32 178.984C131.072 178.456 131.568 177.744 131.808 176.848H133.584C133.264 178.128 132.576 179.176 131.52 179.992C130.48 180.792 129.168 181.192 127.584 181.192C126.352 181.192 125.248 180.92 124.272 180.376C123.296 179.816 122.528 179.032 121.968 178.024C121.424 177 121.152 175.808 121.152 174.448C121.152 173.088 121.424 171.896 121.968 170.872C122.512 169.848 123.272 169.064 124.248 168.52C125.224 167.976 126.336 167.704 127.584 167.704C128.832 167.704 129.92 167.976 130.848 168.52C131.792 169.064 132.512 169.8 133.008 170.728C133.52 171.64 133.776 172.656 133.776 173.776ZM132.072 173.728C132.088 172.752 131.888 171.92 131.472 171.232C131.072 170.544 130.52 170.024 129.816 169.672C129.112 169.32 128.344 169.144 127.512 169.144C126.264 169.144 125.2 169.544 124.32 170.344C123.44 171.144 122.952 172.272 122.856 173.728H132.072ZM142.668 174.424C142.668 173.08 142.94 171.904 143.484 170.896C144.028 169.872 144.772 169.088 145.716 168.544C146.676 167.984 147.756 167.704 148.956 167.704C150.108 167.704 151.148 167.984 152.076 168.544C153.004 169.104 153.684 169.832 154.116 170.728V163.24H155.796V181H154.116V178.072C153.716 178.984 153.06 179.736 152.148 180.328C151.236 180.904 150.164 181.192 148.932 181.192C147.732 181.192 146.652 180.912 145.692 180.352C144.748 179.792 144.004 179 143.46 177.976C142.932 176.952 142.668 175.768 142.668 174.424ZM154.116 174.448C154.116 173.392 153.9 172.464 153.468 171.664C153.036 170.864 152.444 170.248 151.692 169.816C150.956 169.384 150.14 169.168 149.244 169.168C148.316 169.168 147.484 169.376 146.748 169.792C146.012 170.208 145.428 170.816 144.996 171.616C144.58 172.4 144.372 173.336 144.372 174.424C144.372 175.496 144.58 176.44 144.996 177.256C145.428 178.056 146.012 178.672 146.748 179.104C147.484 179.52 148.316 179.728 149.244 179.728C150.14 179.728 150.956 179.512 151.692 179.08C152.444 178.648 153.036 178.032 153.468 177.232C153.9 176.432 154.116 175.504 154.116 174.448ZM171.487 173.776C171.487 174.352 171.471 174.792 171.439 175.096H160.567C160.615 176.088 160.855 176.936 161.287 177.64C161.719 178.344 162.287 178.88 162.991 179.248C163.695 179.6 164.463 179.776 165.295 179.776C166.383 179.776 167.295 179.512 168.031 178.984C168.783 178.456 169.279 177.744 169.519 176.848H171.295C170.975 178.128 170.287 179.176 169.231 179.992C168.191 180.792 166.879 181.192 165.295 181.192C164.063 181.192 162.959 180.92 161.983 180.376C161.007 179.816 160.239 179.032 159.679 178.024C159.135 177 158.863 175.808 158.863 174.448C158.863 173.088 159.135 171.896 159.679 170.872C160.223 169.848 160.983 169.064 161.959 168.52C162.935 167.976 164.047 167.704 165.295 167.704C166.543 167.704 167.631 167.976 168.559 168.52C169.503 169.064 170.223 169.8 170.719 170.728C171.231 171.64 171.487 172.656 171.487 173.776ZM169.783 173.728C169.799 172.752 169.599 171.92 169.183 171.232C168.783 170.544 168.231 170.024 167.527 169.672C166.823 169.32 166.055 169.144 165.223 169.144C163.975 169.144 162.911 169.544 162.031 170.344C161.151 171.144 160.663 172.272 160.567 173.728H169.783ZM176.241 163.24V181H174.561V163.24H176.241ZM180.885 165.424C180.549 165.424 180.261 165.304 180.021 165.064C179.781 164.824 179.661 164.528 179.661 164.176C179.661 163.824 179.781 163.536 180.021 163.312C180.261 163.072 180.549 162.952 180.885 162.952C181.221 162.952 181.509 163.072 181.749 163.312C181.989 163.536 182.109 163.824 182.109 164.176C182.109 164.528 181.989 164.824 181.749 165.064C181.509 165.304 181.221 165.424 180.885 165.424ZM181.725 167.896V181H180.045V167.896H181.725ZM184.761 174.448C184.761 173.088 185.033 171.904 185.577 170.896C186.121 169.872 186.873 169.088 187.833 168.544C188.793 167.984 189.889 167.704 191.121 167.704C192.737 167.704 194.065 168.104 195.105 168.904C196.161 169.704 196.841 170.792 197.145 172.168H195.345C195.121 171.224 194.633 170.488 193.881 169.96C193.145 169.416 192.225 169.144 191.121 169.144C190.241 169.144 189.449 169.344 188.745 169.744C188.041 170.144 187.481 170.744 187.065 171.544C186.665 172.328 186.465 173.296 186.465 174.448C186.465 175.6 186.665 176.576 187.065 177.376C187.481 178.176 188.041 178.776 188.745 179.176C189.449 179.576 190.241 179.776 191.121 179.776C192.225 179.776 193.145 179.512 193.881 178.984C194.633 178.44 195.121 177.688 195.345 176.728H197.145C196.841 178.072 196.161 179.152 195.105 179.968C194.049 180.784 192.721 181.192 191.121 181.192C189.889 181.192 188.793 180.92 187.833 180.376C186.873 179.816 186.121 179.032 185.577 178.024C185.033 177 184.761 175.808 184.761 174.448ZM199.48 174.424C199.48 173.08 199.744 171.904 200.272 170.896C200.816 169.872 201.56 169.088 202.504 168.544C203.464 167.984 204.544 167.704 205.744 167.704C206.992 167.704 208.064 167.992 208.96 168.568C209.872 169.144 210.528 169.88 210.928 170.776V167.896H212.608V181H210.928V178.096C210.512 178.992 209.848 179.736 208.936 180.328C208.04 180.904 206.968 181.192 205.72 181.192C204.536 181.192 203.464 180.912 202.504 180.352C201.56 179.792 200.816 179 200.272 177.976C199.744 176.952 199.48 175.768 199.48 174.424ZM210.928 174.448C210.928 173.392 210.712 172.464 210.28 171.664C209.848 170.864 209.256 170.248 208.504 169.816C207.768 169.384 206.952 169.168 206.056 169.168C205.128 169.168 204.296 169.376 203.56 169.792C202.824 170.208 202.24 170.816 201.808 171.616C201.392 172.4 201.184 173.336 201.184 174.424C201.184 175.496 201.392 176.44 201.808 177.256C202.24 178.056 202.824 178.672 203.56 179.104C204.296 179.52 205.128 179.728 206.056 179.728C206.952 179.728 207.768 179.512 208.504 179.08C209.256 178.648 209.848 178.032 210.28 177.232C210.712 176.432 210.928 175.504 210.928 174.448ZM215.675 174.448C215.675 173.088 215.947 171.904 216.491 170.896C217.035 169.872 217.787 169.088 218.747 168.544C219.707 167.984 220.803 167.704 222.035 167.704C223.651 167.704 224.979 168.104 226.019 168.904C227.075 169.704 227.755 170.792 228.059 172.168H226.259C226.035 171.224 225.547 170.488 224.795 169.96C224.059 169.416 223.139 169.144 222.035 169.144C221.155 169.144 220.363 169.344 219.659 169.744C218.955 170.144 218.395 170.744 217.979 171.544C217.579 172.328 217.379 173.296 217.379 174.448C217.379 175.6 217.579 176.576 217.979 177.376C218.395 178.176 218.955 178.776 219.659 179.176C220.363 179.576 221.155 179.776 222.035 179.776C223.139 179.776 224.059 179.512 224.795 178.984C225.547 178.44 226.035 177.688 226.259 176.728H228.059C227.755 178.072 227.075 179.152 226.019 179.968C224.963 180.784 223.635 181.192 222.035 181.192C220.803 181.192 219.707 180.92 218.747 180.376C217.787 179.816 217.035 179.032 216.491 178.024C215.947 177 215.675 175.808 215.675 174.448ZM232.002 165.424C231.666 165.424 231.378 165.304 231.138 165.064C230.898 164.824 230.778 164.528 230.778 164.176C230.778 163.824 230.898 163.536 231.138 163.312C231.378 163.072 231.666 162.952 232.002 162.952C232.338 162.952 232.626 163.072 232.866 163.312C233.106 163.536 233.226 163.824 233.226 164.176C233.226 164.528 233.106 164.824 232.866 165.064C232.626 165.304 232.338 165.424 232.002 165.424ZM232.842 167.896V181H231.162V167.896H232.842ZM248.503 173.776C248.503 174.352 248.487 174.792 248.455 175.096H237.583C237.631 176.088 237.871 176.936 238.303 177.64C238.735 178.344 239.303 178.88 240.007 179.248C240.711 179.6 241.479 179.776 242.311 179.776C243.399 179.776 244.311 179.512 245.047 178.984C245.799 178.456 246.295 177.744 246.535 176.848H248.311C247.991 178.128 247.303 179.176 246.247 179.992C245.207 180.792 243.895 181.192 242.311 181.192C241.079 181.192 239.975 180.92 238.999 180.376C238.023 179.816 237.255 179.032 236.695 178.024C236.151 177 235.879 175.808 235.879 174.448C235.879 173.088 236.151 171.896 236.695 170.872C237.239 169.848 237.999 169.064 238.975 168.52C239.951 167.976 241.063 167.704 242.311 167.704C243.559 167.704 244.647 167.976 245.575 168.52C246.519 169.064 247.239 169.8 247.735 170.728C248.247 171.64 248.503 172.656 248.503 173.776ZM246.799 173.728C246.815 172.752 246.615 171.92 246.199 171.232C245.799 170.544 245.247 170.024 244.543 169.672C243.839 169.32 243.071 169.144 242.239 169.144C240.991 169.144 239.927 169.544 239.047 170.344C238.167 171.144 237.679 172.272 237.583 173.728H246.799ZM256.088 181.192C254.584 181.192 253.352 180.848 252.392 180.16C251.448 179.456 250.92 178.504 250.808 177.304H252.536C252.616 178.04 252.96 178.64 253.568 179.104C254.192 179.552 255.024 179.776 256.064 179.776C256.976 179.776 257.688 179.56 258.2 179.128C258.728 178.696 258.992 178.16 258.992 177.52C258.992 177.072 258.848 176.704 258.56 176.416C258.272 176.128 257.904 175.904 257.456 175.744C257.024 175.568 256.432 175.384 255.68 175.192C254.704 174.936 253.912 174.68 253.304 174.424C252.696 174.168 252.176 173.792 251.744 173.296C251.328 172.784 251.12 172.104 251.12 171.256C251.12 170.616 251.312 170.024 251.696 169.48C252.08 168.936 252.624 168.504 253.328 168.184C254.032 167.864 254.832 167.704 255.728 167.704C257.136 167.704 258.272 168.064 259.136 168.784C260 169.488 260.464 170.464 260.528 171.712H258.848C258.8 170.944 258.496 170.328 257.936 169.864C257.392 169.384 256.64 169.144 255.68 169.144C254.832 169.144 254.144 169.344 253.616 169.744C253.088 170.144 252.824 170.64 252.824 171.232C252.824 171.744 252.976 172.168 253.28 172.504C253.6 172.824 253.992 173.08 254.456 173.272C254.92 173.448 255.544 173.648 256.328 173.872C257.272 174.128 258.024 174.376 258.584 174.616C259.144 174.856 259.624 175.208 260.024 175.672C260.424 176.136 260.632 176.752 260.648 177.52C260.648 178.224 260.456 178.856 260.072 179.416C259.688 179.96 259.152 180.392 258.464 180.712C257.776 181.032 256.984 181.192 256.088 181.192ZM269.629 174.424C269.629 173.08 269.893 171.904 270.421 170.896C270.965 169.872 271.709 169.088 272.653 168.544C273.613 167.984 274.693 167.704 275.893 167.704C277.141 167.704 278.213 167.992 279.109 168.568C280.021 169.144 280.677 169.88 281.077 170.776V167.896H282.757V181H281.077V178.096C280.661 178.992 279.997 179.736 279.085 180.328C278.189 180.904 277.117 181.192 275.869 181.192C274.685 181.192 273.613 180.912 272.653 180.352C271.709 179.792 270.965 179 270.421 177.976C269.893 176.952 269.629 175.768 269.629 174.424ZM281.077 174.448C281.077 173.392 280.861 172.464 280.429 171.664C279.997 170.864 279.405 170.248 278.653 169.816C277.917 169.384 277.101 169.168 276.205 169.168C275.277 169.168 274.445 169.376 273.709 169.792C272.973 170.208 272.389 170.816 271.957 171.616C271.541 172.4 271.333 173.336 271.333 174.424C271.333 175.496 271.541 176.44 271.957 177.256C272.389 178.056 272.973 178.672 273.709 179.104C274.445 179.52 275.277 179.728 276.205 179.728C277.101 179.728 277.917 179.512 278.653 179.08C279.405 178.648 279.997 178.032 280.429 177.232C280.861 176.432 281.077 175.504 281.077 174.448ZM288.272 170.224C288.64 169.408 289.2 168.776 289.952 168.328C290.72 167.88 291.656 167.656 292.76 167.656V169.408H292.304C291.088 169.408 290.112 169.736 289.376 170.392C288.64 171.048 288.272 172.144 288.272 173.68V181H286.592V167.896H288.272V170.224ZM301.023 181.192C299.791 181.192 298.679 180.92 297.687 180.376C296.711 179.816 295.935 179.032 295.359 178.024C294.799 177 294.519 175.808 294.519 174.448C294.519 173.088 294.807 171.904 295.383 170.896C295.959 169.872 296.743 169.088 297.735 168.544C298.727 167.984 299.839 167.704 301.071 167.704C302.303 167.704 303.415 167.984 304.407 168.544C305.415 169.088 306.199 169.872 306.759 170.896C307.335 171.904 307.623 173.088 307.623 174.448C307.623 175.792 307.335 176.976 306.759 178C306.183 179.024 305.391 179.816 304.383 180.376C303.375 180.92 302.255 181.192 301.023 181.192ZM301.023 179.728C301.887 179.728 302.687 179.536 303.423 179.152C304.159 178.752 304.751 178.16 305.199 177.376C305.663 176.576 305.895 175.6 305.895 174.448C305.895 173.296 305.671 172.328 305.223 171.544C304.775 170.744 304.183 170.152 303.447 169.768C302.711 169.368 301.911 169.168 301.047 169.168C300.183 169.168 299.383 169.368 298.647 169.768C297.911 170.152 297.319 170.744 296.871 171.544C296.439 172.328 296.223 173.296 296.223 174.448C296.223 175.6 296.439 176.576 296.871 177.376C297.319 178.16 297.903 178.752 298.623 179.152C299.359 179.536 300.159 179.728 301.023 179.728ZM322.038 167.896V181H320.358V178.696C319.974 179.512 319.382 180.136 318.582 180.568C317.782 181 316.886 181.216 315.894 181.216C314.326 181.216 313.046 180.736 312.054 179.776C311.062 178.8 310.566 177.392 310.566 175.552V167.896H312.222V175.36C312.222 176.784 312.574 177.872 313.278 178.624C313.998 179.376 314.974 179.752 316.206 179.752C317.47 179.752 318.478 179.352 319.23 178.552C319.982 177.752 320.358 176.576 320.358 175.024V167.896H322.038ZM332.017 167.656C333.585 167.656 334.865 168.144 335.857 169.12C336.849 170.08 337.345 171.48 337.345 173.32V181H335.689V173.512C335.689 172.088 335.329 171 334.609 170.248C333.905 169.496 332.937 169.12 331.705 169.12C330.441 169.12 329.433 169.52 328.681 170.32C327.929 171.12 327.553 172.296 327.553 173.848V181H325.873V167.896H327.553V170.128C327.969 169.328 328.569 168.72 329.353 168.304C330.137 167.872 331.025 167.656 332.017 167.656ZM340.293 174.424C340.293 173.08 340.565 171.904 341.109 170.896C341.653 169.872 342.397 169.088 343.341 168.544C344.301 167.984 345.381 167.704 346.581 167.704C347.733 167.704 348.773 167.984 349.701 168.544C350.629 169.104 351.309 169.832 351.741 170.728V163.24H353.421V181H351.741V178.072C351.341 178.984 350.685 179.736 349.773 180.328C348.861 180.904 347.789 181.192 346.557 181.192C345.357 181.192 344.277 180.912 343.317 180.352C342.373 179.792 341.629 179 341.085 177.976C340.557 176.952 340.293 175.768 340.293 174.424ZM351.741 174.448C351.741 173.392 351.525 172.464 351.093 171.664C350.661 170.864 350.069 170.248 349.317 169.816C348.581 169.384 347.765 169.168 346.869 169.168C345.941 169.168 345.109 169.376 344.373 169.792C343.637 170.208 343.053 170.816 342.621 171.616C342.205 172.4 341.997 173.336 341.997 174.424C341.997 175.496 342.205 176.44 342.621 177.256C343.053 178.056 343.637 178.672 344.373 179.104C345.109 179.52 345.941 179.728 346.869 179.728C347.765 179.728 348.581 179.512 349.317 179.08C350.069 178.648 350.661 178.032 351.093 177.232C351.525 176.432 351.741 175.504 351.741 174.448ZM374.642 167.896L366.866 187.168H365.114L367.658 180.928L362.282 167.896H364.13L368.594 179.08L372.914 167.896H374.642ZM382.656 181.192C381.424 181.192 380.312 180.92 379.32 180.376C378.344 179.816 377.568 179.032 376.992 178.024C376.432 177 376.152 175.808 376.152 174.448C376.152 173.088 376.44 171.904 377.016 170.896C377.592 169.872 378.376 169.088 379.368 168.544C380.36 167.984 381.472 167.704 382.704 167.704C383.936 167.704 385.048 167.984 386.04 168.544C387.048 169.088 387.832 169.872 388.392 170.896C388.968 171.904 389.256 173.088 389.256 174.448C389.256 175.792 388.968 176.976 388.392 178C387.816 179.024 387.024 179.816 386.016 180.376C385.008 180.92 383.888 181.192 382.656 181.192ZM382.656 179.728C383.52 179.728 384.32 179.536 385.056 179.152C385.792 178.752 386.384 178.16 386.832 177.376C387.296 176.576 387.528 175.6 387.528 174.448C387.528 173.296 387.304 172.328 386.856 171.544C386.408 170.744 385.816 170.152 385.08 169.768C384.344 169.368 383.544 169.168 382.68 169.168C381.816 169.168 381.016 169.368 380.28 169.768C379.544 170.152 378.952 170.744 378.504 171.544C378.072 172.328 377.856 173.296 377.856 174.448C377.856 175.6 378.072 176.576 378.504 177.376C378.952 178.16 379.536 178.752 380.256 179.152C380.992 179.536 381.792 179.728 382.656 179.728ZM403.67 167.896V181H401.99V178.696C401.606 179.512 401.014 180.136 400.214 180.568C399.414 181 398.518 181.216 397.526 181.216C395.958 181.216 394.678 180.736 393.686 179.776C392.694 178.8 392.198 177.392 392.198 175.552V167.896H393.854V175.36C393.854 176.784 394.206 177.872 394.91 178.624C395.63 179.376 396.606 179.752 397.838 179.752C399.102 179.752 400.11 179.352 400.862 178.552C401.614 177.752 401.99 176.576 401.99 175.024V167.896H403.67ZM407.794 181.12C407.442 181.12 407.146 181 406.906 180.76C406.682 180.52 406.57 180.224 406.57 179.872C406.57 179.52 406.682 179.232 406.906 179.008C407.146 178.768 407.442 178.648 407.794 178.648C408.13 178.648 408.41 178.768 408.634 179.008C408.874 179.232 408.994 179.52 408.994 179.872C408.994 180.224 408.874 180.52 408.634 180.76C408.41 181 408.13 181.12 407.794 181.12ZM423.611 169.312H420.563V181H418.883V169.312H417.059V167.896H418.883V166.984C418.883 165.56 419.243 164.512 419.963 163.84C420.699 163.168 421.883 162.832 423.515 162.832V164.272C422.427 164.272 421.659 164.48 421.211 164.896C420.779 165.312 420.563 166.008 420.563 166.984V167.896H423.611V169.312ZM427.096 165.424C426.76 165.424 426.472 165.304 426.232 165.064C425.992 164.824 425.872 164.528 425.872 164.176C425.872 163.824 425.992 163.536 426.232 163.312C426.472 163.072 426.76 162.952 427.096 162.952C427.432 162.952 427.72 163.072 427.96 163.312C428.2 163.536 428.32 163.824 428.32 164.176C428.32 164.528 428.2 164.824 427.96 165.064C427.72 165.304 427.432 165.424 427.096 165.424ZM427.936 167.896V181H426.256V167.896H427.936ZM437.884 167.656C439.452 167.656 440.732 168.144 441.724 169.12C442.716 170.08 443.212 171.48 443.212 173.32V181H441.556V173.512C441.556 172.088 441.196 171 440.476 170.248C439.772 169.496 438.804 169.12 437.572 169.12C436.308 169.12 435.3 169.52 434.548 170.32C433.796 171.12 433.42 172.296 433.42 173.848V181H431.74V167.896H433.42V170.128C433.836 169.328 434.436 168.72 435.22 168.304C436.004 167.872 436.892 167.656 437.884 167.656ZM446.16 174.424C446.16 173.08 446.432 171.904 446.976 170.896C447.52 169.872 448.264 169.088 449.208 168.544C450.168 167.984 451.248 167.704 452.448 167.704C453.6 167.704 454.64 167.984 455.568 168.544C456.496 169.104 457.176 169.832 457.608 170.728V163.24H459.288V181H457.608V178.072C457.208 178.984 456.552 179.736 455.64 180.328C454.728 180.904 453.656 181.192 452.424 181.192C451.224 181.192 450.144 180.912 449.184 180.352C448.24 179.792 447.496 179 446.952 177.976C446.424 176.952 446.16 175.768 446.16 174.424ZM457.608 174.448C457.608 173.392 457.392 172.464 456.96 171.664C456.528 170.864 455.936 170.248 455.184 169.816C454.448 169.384 453.632 169.168 452.736 169.168C451.808 169.168 450.976 169.376 450.24 169.792C449.504 170.208 448.92 170.816 448.488 171.616C448.072 172.4 447.864 173.336 447.864 174.424C447.864 175.496 448.072 176.44 448.488 177.256C448.92 178.056 449.504 178.672 450.24 179.104C450.976 179.52 451.808 179.728 452.736 179.728C453.632 179.728 454.448 179.512 455.184 179.08C455.936 178.648 456.528 178.032 456.96 177.232C457.392 176.432 457.608 175.504 457.608 174.448ZM486.989 167.896L482.885 181H481.205L477.581 170.008L473.957 181H472.253L468.149 167.896H469.853L473.117 179.296L476.789 167.896H478.469L482.093 179.32L485.333 167.896H486.989ZM495.519 167.656C496.511 167.656 497.399 167.864 498.183 168.28C498.983 168.696 499.607 169.336 500.055 170.2C500.519 171.048 500.751 172.088 500.751 173.32V181H499.095V173.512C499.095 172.088 498.735 171 498.015 170.248C497.311 169.496 496.343 169.12 495.111 169.12C493.847 169.12 492.839 169.52 492.087 170.32C491.335 171.12 490.959 172.296 490.959 173.848V181H489.279V163.24H490.959V170.128C491.375 169.344 491.983 168.736 492.783 168.304C493.599 167.872 494.511 167.656 495.519 167.656ZM503.699 174.424C503.699 173.08 503.963 171.904 504.491 170.896C505.035 169.872 505.779 169.088 506.723 168.544C507.683 167.984 508.763 167.704 509.963 167.704C511.211 167.704 512.283 167.992 513.179 168.568C514.091 169.144 514.747 169.88 515.147 170.776V167.896H516.827V181H515.147V178.096C514.731 178.992 514.067 179.736 513.155 180.328C512.259 180.904 511.187 181.192 509.939 181.192C508.755 181.192 507.683 180.912 506.723 180.352C505.779 179.792 505.035 179 504.491 177.976C503.963 176.952 503.699 175.768 503.699 174.424ZM515.147 174.448C515.147 173.392 514.931 172.464 514.499 171.664C514.067 170.864 513.475 170.248 512.723 169.816C511.987 169.384 511.171 169.168 510.275 169.168C509.347 169.168 508.515 169.376 507.779 169.792C507.043 170.208 506.459 170.816 506.027 171.616C505.611 172.4 505.403 173.336 505.403 174.424C505.403 175.496 505.611 176.44 506.027 177.256C506.459 178.056 507.043 178.672 507.779 179.104C508.515 179.52 509.347 179.728 510.275 179.728C511.171 179.728 511.987 179.512 512.723 179.08C513.475 178.648 514.067 178.032 514.499 177.232C514.931 176.432 515.147 175.504 515.147 174.448ZM522.846 169.312V177.448C522.846 178.248 522.998 178.8 523.302 179.104C523.606 179.408 524.142 179.56 524.91 179.56H526.446V181H524.646C523.462 181 522.582 180.728 522.006 180.184C521.43 179.624 521.142 178.712 521.142 177.448V169.312H519.318V167.896H521.142V164.608H522.846V167.896H526.446V169.312H522.846ZM546.603 167.896L538.827 187.168H537.075L539.619 180.928L534.243 167.896H536.091L540.555 179.08L544.875 167.896H546.603ZM554.617 181.192C553.385 181.192 552.273 180.92 551.281 180.376C550.305 179.816 549.529 179.032 548.953 178.024C548.393 177 548.113 175.808 548.113 174.448C548.113 173.088 548.401 171.904 548.977 170.896C549.553 169.872 550.337 169.088 551.329 168.544C552.321 167.984 553.433 167.704 554.665 167.704C555.897 167.704 557.009 167.984 558.001 168.544C559.009 169.088 559.793 169.872 560.353 170.896C560.929 171.904 561.217 173.088 561.217 174.448C561.217 175.792 560.929 176.976 560.353 178C559.777 179.024 558.985 179.816 557.977 180.376C556.969 180.92 555.849 181.192 554.617 181.192ZM554.617 179.728C555.481 179.728 556.281 179.536 557.017 179.152C557.753 178.752 558.345 178.16 558.793 177.376C559.257 176.576 559.489 175.6 559.489 174.448C559.489 173.296 559.265 172.328 558.817 171.544C558.369 170.744 557.777 170.152 557.041 169.768C556.305 169.368 555.505 169.168 554.641 169.168C553.777 169.168 552.977 169.368 552.241 169.768C551.505 170.152 550.913 170.744 550.465 171.544C550.033 172.328 549.817 173.296 549.817 174.448C549.817 175.6 550.033 176.576 550.465 177.376C550.913 178.16 551.497 178.752 552.217 179.152C552.953 179.536 553.753 179.728 554.617 179.728ZM575.631 167.896V181H573.951V178.696C573.567 179.512 572.975 180.136 572.175 180.568C571.375 181 570.479 181.216 569.487 181.216C567.919 181.216 566.639 180.736 565.647 179.776C564.655 178.8 564.159 177.392 564.159 175.552V167.896H565.815V175.36C565.815 176.784 566.167 177.872 566.871 178.624C567.591 179.376 568.567 179.752 569.799 179.752C571.063 179.752 572.071 179.352 572.823 178.552C573.575 177.752 573.951 176.576 573.951 175.024V167.896H575.631ZM6.6 199.24V217H4.92V199.24H6.6ZM11.2444 201.424C10.9084 201.424 10.6204 201.304 10.3804 201.064C10.1404 200.824 10.0204 200.528 10.0204 200.176C10.0204 199.824 10.1404 199.536 10.3804 199.312C10.6204 199.072 10.9084 198.952 11.2444 198.952C11.5804 198.952 11.8684 199.072 12.1084 199.312C12.3484 199.536 12.4684 199.824 12.4684 200.176C12.4684 200.528 12.3484 200.824 12.1084 201.064C11.8684 201.304 11.5804 201.424 11.2444 201.424ZM12.0844 203.896V217H10.4044V203.896H12.0844ZM22.9688 217L17.5688 211.12V217H15.8888V199.24H17.5688V209.752L22.8488 203.896H25.2008L18.9848 210.424L25.2488 217H22.9688ZM39.276 209.776C39.276 210.352 39.26 210.792 39.228 211.096H28.356C28.404 212.088 28.644 212.936 29.076 213.64C29.508 214.344 30.076 214.88 30.78 215.248C31.484 215.6 32.252 215.776 33.084 215.776C34.172 215.776 35.084 215.512 35.82 214.984C36.572 214.456 37.068 213.744 37.308 212.848H39.084C38.764 214.128 38.076 215.176 37.02 215.992C35.98 216.792 34.668 217.192 33.084 217.192C31.852 217.192 30.748 216.92 29.772 216.376C28.796 215.816 28.028 215.032 27.468 214.024C26.924 213 26.652 211.808 26.652 210.448C26.652 209.088 26.924 207.896 27.468 206.872C28.012 205.848 28.772 205.064 29.748 204.52C30.724 203.976 31.836 203.704 33.084 203.704C34.332 203.704 35.42 203.976 36.348 204.52C37.292 205.064 38.012 205.8 38.508 206.728C39.02 207.64 39.276 208.656 39.276 209.776ZM37.572 209.728C37.588 208.752 37.388 207.92 36.972 207.232C36.572 206.544 36.02 206.024 35.316 205.672C34.612 205.32 33.844 205.144 33.012 205.144C31.764 205.144 30.7 205.544 29.82 206.344C28.94 207.144 28.452 208.272 28.356 209.728H37.572ZM48.1676 210.424C48.1676 209.08 48.4316 207.904 48.9596 206.896C49.5036 205.872 50.2476 205.088 51.1916 204.544C52.1516 203.984 53.2316 203.704 54.4316 203.704C55.6796 203.704 56.7516 203.992 57.6476 204.568C58.5596 205.144 59.2156 205.88 59.6156 206.776V203.896H61.2956V217H59.6156V214.096C59.1996 214.992 58.5356 215.736 57.6236 216.328C56.7276 216.904 55.6556 217.192 54.4076 217.192C53.2236 217.192 52.1516 216.912 51.1916 216.352C50.2476 215.792 49.5036 215 48.9596 213.976C48.4316 212.952 48.1676 211.768 48.1676 210.424ZM59.6156 210.448C59.6156 209.392 59.3996 208.464 58.9676 207.664C58.5356 206.864 57.9436 206.248 57.1916 205.816C56.4556 205.384 55.6396 205.168 54.7436 205.168C53.8156 205.168 52.9836 205.376 52.2476 205.792C51.5116 206.208 50.9276 206.816 50.4956 207.616C50.0796 208.4 49.8716 209.336 49.8716 210.424C49.8716 211.496 50.0796 212.44 50.4956 213.256C50.9276 214.056 51.5116 214.672 52.2476 215.104C52.9836 215.52 53.8156 215.728 54.7436 215.728C55.6396 215.728 56.4556 215.512 57.1916 215.08C57.9436 214.648 58.5356 214.032 58.9676 213.232C59.3996 212.432 59.6156 211.504 59.6156 210.448ZM71.2749 203.656C72.8429 203.656 74.1229 204.144 75.1149 205.12C76.1069 206.08 76.6029 207.48 76.6029 209.32V217H74.9469V209.512C74.9469 208.088 74.5869 207 73.8669 206.248C73.1629 205.496 72.1949 205.12 70.9629 205.12C69.6989 205.12 68.6909 205.52 67.9389 206.32C67.1869 207.12 66.8109 208.296 66.8109 209.848V217H65.1309V203.896H66.8109V206.128C67.2269 205.328 67.8269 204.72 68.6109 204.304C69.3949 203.872 70.2829 203.656 71.2749 203.656ZM79.5504 210.424C79.5504 209.08 79.8224 207.904 80.3664 206.896C80.9104 205.872 81.6544 205.088 82.5984 204.544C83.5584 203.984 84.6384 203.704 85.8384 203.704C86.9904 203.704 88.0304 203.984 88.9584 204.544C89.8864 205.104 90.5664 205.832 90.9984 206.728V199.24H92.6784V217H90.9984V214.072C90.5984 214.984 89.9424 215.736 89.0304 216.328C88.1184 216.904 87.0464 217.192 85.8144 217.192C84.6144 217.192 83.5344 216.912 82.5744 216.352C81.6304 215.792 80.8864 215 80.3424 213.976C79.8144 212.952 79.5504 211.768 79.5504 210.424ZM90.9984 210.448C90.9984 209.392 90.7824 208.464 90.3504 207.664C89.9184 206.864 89.3264 206.248 88.5744 205.816C87.8384 205.384 87.0224 205.168 86.1264 205.168C85.1984 205.168 84.3664 205.376 83.6304 205.792C82.8944 206.208 82.3104 206.816 81.8784 207.616C81.4624 208.4 81.2544 209.336 81.2544 210.424C81.2544 211.496 81.4624 212.44 81.8784 213.256C82.3104 214.056 82.8944 214.672 83.6304 215.104C84.3664 215.52 85.1984 215.728 86.1264 215.728C87.0224 215.728 87.8384 215.512 88.5744 215.08C89.3264 214.648 89.9184 214.032 90.3504 213.232C90.7824 212.432 90.9984 211.504 90.9984 210.448ZM108.596 203.704C109.828 203.704 110.9 203.992 111.812 204.568C112.724 205.144 113.38 205.872 113.78 206.752V203.896H115.46V217.336C115.46 218.536 115.196 219.6 114.668 220.528C114.156 221.456 113.436 222.168 112.508 222.664C111.58 223.176 110.524 223.432 109.34 223.432C107.66 223.432 106.26 223.032 105.14 222.232C104.036 221.432 103.348 220.344 103.076 218.968H104.732C105.02 219.88 105.564 220.608 106.364 221.152C107.18 221.696 108.172 221.968 109.34 221.968C110.188 221.968 110.948 221.784 111.62 221.416C112.292 221.064 112.82 220.536 113.204 219.832C113.588 219.128 113.78 218.296 113.78 217.336V214.096C113.364 214.992 112.7 215.736 111.788 216.328C110.892 216.904 109.828 217.192 108.596 217.192C107.396 217.192 106.316 216.912 105.356 216.352C104.412 215.792 103.668 215 103.124 213.976C102.596 212.952 102.332 211.768 102.332 210.424C102.332 209.08 102.596 207.904 103.124 206.896C103.668 205.872 104.412 205.088 105.356 204.544C106.316 203.984 107.396 203.704 108.596 203.704ZM113.78 210.448C113.78 209.392 113.564 208.464 113.132 207.664C112.7 206.864 112.108 206.248 111.356 205.816C110.62 205.384 109.804 205.168 108.908 205.168C107.98 205.168 107.148 205.376 106.412 205.792C105.676 206.208 105.092 206.816 104.66 207.616C104.244 208.4 104.036 209.336 104.036 210.424C104.036 211.496 104.244 212.44 104.66 213.256C105.092 214.056 105.676 214.672 106.412 215.104C107.148 215.52 107.98 215.728 108.908 215.728C109.804 215.728 110.62 215.512 111.356 215.08C112.108 214.648 112.7 214.032 113.132 213.232C113.564 212.432 113.78 211.504 113.78 210.448ZM131.151 209.776C131.151 210.352 131.135 210.792 131.103 211.096H120.231C120.279 212.088 120.519 212.936 120.951 213.64C121.383 214.344 121.951 214.88 122.655 215.248C123.359 215.6 124.127 215.776 124.959 215.776C126.047 215.776 126.959 215.512 127.695 214.984C128.447 214.456 128.943 213.744 129.183 212.848H130.959C130.639 214.128 129.951 215.176 128.895 215.992C127.855 216.792 126.543 217.192 124.959 217.192C123.727 217.192 122.623 216.92 121.647 216.376C120.671 215.816 119.903 215.032 119.343 214.024C118.799 213 118.527 211.808 118.527 210.448C118.527 209.088 118.799 207.896 119.343 206.872C119.887 205.848 120.647 205.064 121.623 204.52C122.599 203.976 123.711 203.704 124.959 203.704C126.207 203.704 127.295 203.976 128.223 204.52C129.167 205.064 129.887 205.8 130.383 206.728C130.895 207.64 131.151 208.656 131.151 209.776ZM129.447 209.728C129.463 208.752 129.263 207.92 128.847 207.232C128.447 206.544 127.895 206.024 127.191 205.672C126.487 205.32 125.719 205.144 124.887 205.144C123.639 205.144 122.575 205.544 121.695 206.344C120.815 207.144 120.327 208.272 120.231 209.728H129.447ZM136.409 205.312V213.448C136.409 214.248 136.561 214.8 136.865 215.104C137.169 215.408 137.705 215.56 138.473 215.56H140.009V217H138.209C137.025 217 136.145 216.728 135.569 216.184C134.993 215.624 134.705 214.712 134.705 213.448V205.312H132.881V203.896H134.705V200.608H136.409V203.896H140.009V205.312H136.409ZM150.205 201.424C149.869 201.424 149.581 201.304 149.341 201.064C149.101 200.824 148.981 200.528 148.981 200.176C148.981 199.824 149.101 199.536 149.341 199.312C149.581 199.072 149.869 198.952 150.205 198.952C150.541 198.952 150.829 199.072 151.069 199.312C151.309 199.536 151.429 199.824 151.429 200.176C151.429 200.528 151.309 200.824 151.069 201.064C150.829 201.304 150.541 201.424 150.205 201.424ZM151.045 203.896V217H149.365V203.896H151.045ZM157.034 205.312V213.448C157.034 214.248 157.186 214.8 157.49 215.104C157.794 215.408 158.33 215.56 159.098 215.56H160.634V217H158.834C157.65 217 156.77 216.728 156.194 216.184C155.618 215.624 155.33 214.712 155.33 213.448V205.312H153.506V203.896H155.33V200.608H157.034V203.896H160.634V205.312H157.034ZM169.222 210.424C169.222 209.08 169.494 207.904 170.038 206.896C170.582 205.872 171.326 205.088 172.27 204.544C173.23 203.984 174.31 203.704 175.51 203.704C176.662 203.704 177.702 203.984 178.63 204.544C179.558 205.104 180.238 205.832 180.67 206.728V199.24H182.35V217H180.67V214.072C180.27 214.984 179.614 215.736 178.702 216.328C177.79 216.904 176.718 217.192 175.486 217.192C174.286 217.192 173.206 216.912 172.246 216.352C171.302 215.792 170.558 215 170.014 213.976C169.486 212.952 169.222 211.768 169.222 210.424ZM180.67 210.448C180.67 209.392 180.454 208.464 180.022 207.664C179.59 206.864 178.998 206.248 178.246 205.816C177.51 205.384 176.694 205.168 175.798 205.168C174.87 205.168 174.038 205.376 173.302 205.792C172.566 206.208 171.982 206.816 171.55 207.616C171.134 208.4 170.926 209.336 170.926 210.424C170.926 211.496 171.134 212.44 171.55 213.256C171.982 214.056 172.566 214.672 173.302 215.104C174.038 215.52 174.87 215.728 175.798 215.728C176.694 215.728 177.51 215.512 178.246 215.08C178.998 214.648 179.59 214.032 180.022 213.232C180.454 212.432 180.67 211.504 180.67 210.448ZM198.042 209.776C198.042 210.352 198.026 210.792 197.994 211.096H187.122C187.17 212.088 187.41 212.936 187.842 213.64C188.274 214.344 188.842 214.88 189.546 215.248C190.25 215.6 191.018 215.776 191.85 215.776C192.938 215.776 193.85 215.512 194.586 214.984C195.338 214.456 195.834 213.744 196.074 212.848H197.85C197.53 214.128 196.842 215.176 195.786 215.992C194.746 216.792 193.434 217.192 191.85 217.192C190.618 217.192 189.514 216.92 188.538 216.376C187.562 215.816 186.794 215.032 186.234 214.024C185.69 213 185.418 211.808 185.418 210.448C185.418 209.088 185.69 207.896 186.234 206.872C186.778 205.848 187.538 205.064 188.514 204.52C189.49 203.976 190.602 203.704 191.85 203.704C193.098 203.704 194.186 203.976 195.114 204.52C196.058 205.064 196.778 205.8 197.274 206.728C197.786 207.64 198.042 208.656 198.042 209.776ZM196.338 209.728C196.354 208.752 196.154 207.92 195.738 207.232C195.338 206.544 194.786 206.024 194.082 205.672C193.378 205.32 192.61 205.144 191.778 205.144C190.53 205.144 189.466 205.544 188.586 206.344C187.706 207.144 187.218 208.272 187.122 209.728H196.338ZM202.795 199.24V217H201.115V199.24H202.795ZM207.44 201.424C207.104 201.424 206.816 201.304 206.576 201.064C206.336 200.824 206.216 200.528 206.216 200.176C206.216 199.824 206.336 199.536 206.576 199.312C206.816 199.072 207.104 198.952 207.44 198.952C207.776 198.952 208.064 199.072 208.304 199.312C208.544 199.536 208.664 199.824 208.664 200.176C208.664 200.528 208.544 200.824 208.304 201.064C208.064 201.304 207.776 201.424 207.44 201.424ZM208.28 203.896V217H206.6V203.896H208.28ZM216.74 215.368L221.156 203.896H222.932L217.676 217H215.78L210.524 203.896H212.324L216.74 215.368ZM237.065 209.776C237.065 210.352 237.049 210.792 237.017 211.096H226.145C226.193 212.088 226.433 212.936 226.865 213.64C227.297 214.344 227.865 214.88 228.569 215.248C229.273 215.6 230.041 215.776 230.873 215.776C231.961 215.776 232.873 215.512 233.609 214.984C234.361 214.456 234.857 213.744 235.097 212.848H236.873C236.553 214.128 235.865 215.176 234.809 215.992C233.769 216.792 232.457 217.192 230.873 217.192C229.641 217.192 228.537 216.92 227.561 216.376C226.585 215.816 225.817 215.032 225.257 214.024C224.713 213 224.441 211.808 224.441 210.448C224.441 209.088 224.713 207.896 225.257 206.872C225.801 205.848 226.561 205.064 227.537 204.52C228.513 203.976 229.625 203.704 230.873 203.704C232.121 203.704 233.209 203.976 234.137 204.52C235.081 205.064 235.801 205.8 236.297 206.728C236.809 207.64 237.065 208.656 237.065 209.776ZM235.361 209.728C235.377 208.752 235.177 207.92 234.761 207.232C234.361 206.544 233.809 206.024 233.105 205.672C232.401 205.32 231.633 205.144 230.801 205.144C229.553 205.144 228.489 205.544 227.609 206.344C226.729 207.144 226.241 208.272 226.145 209.728H235.361ZM241.819 206.224C242.187 205.408 242.747 204.776 243.499 204.328C244.267 203.88 245.203 203.656 246.307 203.656V205.408H245.851C244.635 205.408 243.659 205.736 242.923 206.392C242.187 207.048 241.819 208.144 241.819 209.68V217H240.139V203.896H241.819V206.224ZM260.69 209.776C260.69 210.352 260.674 210.792 260.642 211.096H249.77C249.818 212.088 250.058 212.936 250.49 213.64C250.922 214.344 251.49 214.88 252.194 215.248C252.898 215.6 253.666 215.776 254.498 215.776C255.586 215.776 256.498 215.512 257.234 214.984C257.986 214.456 258.482 213.744 258.722 212.848H260.498C260.178 214.128 259.49 215.176 258.434 215.992C257.394 216.792 256.082 217.192 254.498 217.192C253.266 217.192 252.162 216.92 251.186 216.376C250.21 215.816 249.442 215.032 248.882 214.024C248.338 213 248.066 211.808 248.066 210.448C248.066 209.088 248.338 207.896 248.882 206.872C249.426 205.848 250.186 205.064 251.162 204.52C252.138 203.976 253.25 203.704 254.498 203.704C255.746 203.704 256.834 203.976 257.762 204.52C258.706 205.064 259.426 205.8 259.922 206.728C260.434 207.64 260.69 208.656 260.69 209.776ZM258.986 209.728C259.002 208.752 258.802 207.92 258.386 207.232C257.986 206.544 257.434 206.024 256.73 205.672C256.026 205.32 255.258 205.144 254.426 205.144C253.178 205.144 252.114 205.544 251.234 206.344C250.354 207.144 249.866 208.272 249.77 209.728H258.986ZM262.996 210.424C262.996 209.08 263.268 207.904 263.812 206.896C264.356 205.872 265.1 205.088 266.044 204.544C267.004 203.984 268.084 203.704 269.284 203.704C270.436 203.704 271.476 203.984 272.404 204.544C273.332 205.104 274.012 205.832 274.444 206.728V199.24H276.124V217H274.444V214.072C274.044 214.984 273.388 215.736 272.476 216.328C271.564 216.904 270.492 217.192 269.26 217.192C268.06 217.192 266.98 216.912 266.02 216.352C265.076 215.792 264.332 215 263.788 213.976C263.26 212.952 262.996 211.768 262.996 210.424ZM274.444 210.448C274.444 209.392 274.228 208.464 273.796 207.664C273.364 206.864 272.772 206.248 272.02 205.816C271.284 205.384 270.468 205.168 269.572 205.168C268.644 205.168 267.812 205.376 267.076 205.792C266.34 206.208 265.756 206.816 265.324 207.616C264.908 208.4 264.7 209.336 264.7 210.424C264.7 211.496 264.908 212.44 265.324 213.256C265.756 214.056 266.34 214.672 267.076 215.104C267.812 215.52 268.644 215.728 269.572 215.728C270.468 215.728 271.284 215.512 272.02 215.08C272.772 214.648 273.364 214.032 273.796 213.232C274.228 212.432 274.444 211.504 274.444 210.448ZM285.777 210.424C285.777 209.08 286.041 207.904 286.569 206.896C287.113 205.872 287.857 205.088 288.801 204.544C289.761 203.984 290.841 203.704 292.041 203.704C293.289 203.704 294.361 203.992 295.257 204.568C296.169 205.144 296.825 205.88 297.225 206.776V203.896H298.905V217H297.225V214.096C296.809 214.992 296.145 215.736 295.233 216.328C294.337 216.904 293.265 217.192 292.017 217.192C290.833 217.192 289.761 216.912 288.801 216.352C287.857 215.792 287.113 215 286.569 213.976C286.041 212.952 285.777 211.768 285.777 210.424ZM297.225 210.448C297.225 209.392 297.009 208.464 296.577 207.664C296.145 206.864 295.553 206.248 294.801 205.816C294.065 205.384 293.249 205.168 292.353 205.168C291.425 205.168 290.593 205.376 289.857 205.792C289.121 206.208 288.537 206.816 288.105 207.616C287.689 208.4 287.481 209.336 287.481 210.424C287.481 211.496 287.689 212.44 288.105 213.256C288.537 214.056 289.121 214.672 289.857 215.104C290.593 215.52 291.425 215.728 292.353 215.728C293.249 215.728 294.065 215.512 294.801 215.08C295.553 214.648 296.145 214.032 296.577 213.232C297.009 212.432 297.225 211.504 297.225 210.448ZM304.924 205.312V213.448C304.924 214.248 305.076 214.8 305.38 215.104C305.684 215.408 306.22 215.56 306.988 215.56H308.524V217H306.724C305.54 217 304.66 216.728 304.084 216.184C303.508 215.624 303.22 214.712 303.22 213.448V205.312H301.396V203.896H303.22V200.608H304.924V203.896H308.524V205.312H304.924ZM328.681 203.896L320.905 223.168H319.153L321.697 216.928L316.321 203.896H318.169L322.633 215.08L326.953 203.896H328.681ZM336.695 217.192C335.463 217.192 334.351 216.92 333.359 216.376C332.383 215.816 331.607 215.032 331.031 214.024C330.471 213 330.191 211.808 330.191 210.448C330.191 209.088 330.479 207.904 331.055 206.896C331.631 205.872 332.415 205.088 333.407 204.544C334.399 203.984 335.511 203.704 336.743 203.704C337.975 203.704 339.087 203.984 340.079 204.544C341.087 205.088 341.871 205.872 342.431 206.896C343.007 207.904 343.295 209.088 343.295 210.448C343.295 211.792 343.007 212.976 342.431 214C341.855 215.024 341.063 215.816 340.055 216.376C339.047 216.92 337.927 217.192 336.695 217.192ZM336.695 215.728C337.559 215.728 338.359 215.536 339.095 215.152C339.831 214.752 340.423 214.16 340.871 213.376C341.335 212.576 341.567 211.6 341.567 210.448C341.567 209.296 341.343 208.328 340.895 207.544C340.447 206.744 339.855 206.152 339.119 205.768C338.383 205.368 337.583 205.168 336.719 205.168C335.855 205.168 335.055 205.368 334.319 205.768C333.583 206.152 332.991 206.744 332.543 207.544C332.111 208.328 331.895 209.296 331.895 210.448C331.895 211.6 332.111 212.576 332.543 213.376C332.991 214.16 333.575 214.752 334.295 215.152C335.031 215.536 335.831 215.728 336.695 215.728ZM357.71 203.896V217H356.03V214.696C355.646 215.512 355.054 216.136 354.254 216.568C353.454 217 352.558 217.216 351.566 217.216C349.998 217.216 348.718 216.736 347.726 215.776C346.734 214.8 346.238 213.392 346.238 211.552V203.896H347.894V211.36C347.894 212.784 348.246 213.872 348.95 214.624C349.67 215.376 350.646 215.752 351.878 215.752C353.142 215.752 354.15 215.352 354.902 214.552C355.654 213.752 356.03 212.576 356.03 211.024V203.896H357.71ZM363.225 206.224C363.593 205.408 364.153 204.776 364.905 204.328C365.673 203.88 366.609 203.656 367.713 203.656V205.408H367.257C366.041 205.408 365.065 205.736 364.329 206.392C363.593 207.048 363.225 208.144 363.225 209.68V217H361.545V203.896H363.225V206.224ZM376.058 210.448C376.058 209.088 376.33 207.904 376.874 206.896C377.418 205.872 378.17 205.088 379.13 204.544C380.09 203.984 381.186 203.704 382.418 203.704C384.034 203.704 385.362 204.104 386.402 204.904C387.458 205.704 388.138 206.792 388.442 208.168H386.642C386.418 207.224 385.93 206.488 385.178 205.96C384.442 205.416 383.522 205.144 382.418 205.144C381.538 205.144 380.746 205.344 380.042 205.744C379.338 206.144 378.778 206.744 378.362 207.544C377.962 208.328 377.762 209.296 377.762 210.448C377.762 211.6 377.962 212.576 378.362 213.376C378.778 214.176 379.338 214.776 380.042 215.176C380.746 215.576 381.538 215.776 382.418 215.776C383.522 215.776 384.442 215.512 385.178 214.984C385.93 214.44 386.418 213.688 386.642 212.728H388.442C388.138 214.072 387.458 215.152 386.402 215.968C385.346 216.784 384.018 217.192 382.418 217.192C381.186 217.192 380.09 216.92 379.13 216.376C378.17 215.816 377.418 215.032 376.874 214.024C376.33 213 376.058 211.808 376.058 210.448ZM397.281 217.192C396.049 217.192 394.937 216.92 393.945 216.376C392.969 215.816 392.193 215.032 391.617 214.024C391.057 213 390.777 211.808 390.777 210.448C390.777 209.088 391.065 207.904 391.641 206.896C392.217 205.872 393.001 205.088 393.993 204.544C394.985 203.984 396.097 203.704 397.329 203.704C398.561 203.704 399.673 203.984 400.665 204.544C401.673 205.088 402.457 205.872 403.017 206.896C403.593 207.904 403.881 209.088 403.881 210.448C403.881 211.792 403.593 212.976 403.017 214C402.441 215.024 401.649 215.816 400.641 216.376C399.633 216.92 398.513 217.192 397.281 217.192ZM397.281 215.728C398.145 215.728 398.945 215.536 399.681 215.152C400.417 214.752 401.009 214.16 401.457 213.376C401.921 212.576 402.153 211.6 402.153 210.448C402.153 209.296 401.929 208.328 401.481 207.544C401.033 206.744 400.441 206.152 399.705 205.768C398.969 205.368 398.169 205.168 397.305 205.168C396.441 205.168 395.641 205.368 394.905 205.768C394.169 206.152 393.577 206.744 393.129 207.544C392.697 208.328 392.481 209.296 392.481 210.448C392.481 211.6 392.697 212.576 393.129 213.376C393.577 214.16 394.161 214.752 394.881 215.152C395.617 215.536 396.417 215.728 397.281 215.728ZM413.087 203.656C414.655 203.656 415.935 204.144 416.927 205.12C417.919 206.08 418.415 207.48 418.415 209.32V217H416.759V209.512C416.759 208.088 416.399 207 415.679 206.248C414.975 205.496 414.007 205.12 412.775 205.12C411.511 205.12 410.503 205.52 409.751 206.32C408.999 207.12 408.623 208.296 408.623 209.848V217H406.943V203.896H408.623V206.128C409.039 205.328 409.639 204.72 410.423 204.304C411.207 203.872 412.095 203.656 413.087 203.656ZM426.787 215.368L431.203 203.896H432.979L427.723 217H425.827L420.571 203.896H422.371L426.787 215.368ZM447.112 209.776C447.112 210.352 447.096 210.792 447.064 211.096H436.192C436.24 212.088 436.48 212.936 436.912 213.64C437.344 214.344 437.912 214.88 438.616 215.248C439.32 215.6 440.088 215.776 440.92 215.776C442.008 215.776 442.92 215.512 443.656 214.984C444.408 214.456 444.904 213.744 445.144 212.848H446.92C446.6 214.128 445.912 215.176 444.856 215.992C443.816 216.792 442.504 217.192 440.92 217.192C439.688 217.192 438.584 216.92 437.608 216.376C436.632 215.816 435.864 215.032 435.304 214.024C434.76 213 434.488 211.808 434.488 210.448C434.488 209.088 434.76 207.896 435.304 206.872C435.848 205.848 436.608 205.064 437.584 204.52C438.56 203.976 439.672 203.704 440.92 203.704C442.168 203.704 443.256 203.976 444.184 204.52C445.128 205.064 445.848 205.8 446.344 206.728C446.856 207.64 447.112 208.656 447.112 209.776ZM445.408 209.728C445.424 208.752 445.224 207.92 444.808 207.232C444.408 206.544 443.856 206.024 443.152 205.672C442.448 205.32 441.68 205.144 440.848 205.144C439.6 205.144 438.536 205.544 437.656 206.344C436.776 207.144 436.288 208.272 436.192 209.728H445.408ZM456.33 203.656C457.898 203.656 459.178 204.144 460.17 205.12C461.162 206.08 461.658 207.48 461.658 209.32V217H460.002V209.512C460.002 208.088 459.642 207 458.922 206.248C458.218 205.496 457.25 205.12 456.018 205.12C454.754 205.12 453.746 205.52 452.994 206.32C452.242 207.12 451.866 208.296 451.866 209.848V217H450.186V203.896H451.866V206.128C452.282 205.328 452.882 204.72 453.666 204.304C454.45 203.872 455.338 203.656 456.33 203.656ZM466.213 201.424C465.877 201.424 465.589 201.304 465.349 201.064C465.109 200.824 464.989 200.528 464.989 200.176C464.989 199.824 465.109 199.536 465.349 199.312C465.589 199.072 465.877 198.952 466.213 198.952C466.549 198.952 466.837 199.072 467.077 199.312C467.317 199.536 467.437 199.824 467.437 200.176C467.437 200.528 467.317 200.824 467.077 201.064C466.837 201.304 466.549 201.424 466.213 201.424ZM467.053 203.896V217H465.373V203.896H467.053ZM482.714 209.776C482.714 210.352 482.698 210.792 482.666 211.096H471.794C471.842 212.088 472.082 212.936 472.514 213.64C472.946 214.344 473.514 214.88 474.218 215.248C474.922 215.6 475.69 215.776 476.522 215.776C477.61 215.776 478.522 215.512 479.258 214.984C480.01 214.456 480.506 213.744 480.746 212.848H482.522C482.202 214.128 481.514 215.176 480.458 215.992C479.418 216.792 478.106 217.192 476.522 217.192C475.29 217.192 474.186 216.92 473.21 216.376C472.234 215.816 471.466 215.032 470.906 214.024C470.362 213 470.09 211.808 470.09 210.448C470.09 209.088 470.362 207.896 470.906 206.872C471.45 205.848 472.21 205.064 473.186 204.52C474.162 203.976 475.274 203.704 476.522 203.704C477.77 203.704 478.858 203.976 479.786 204.52C480.73 205.064 481.45 205.8 481.946 206.728C482.458 207.64 482.714 208.656 482.714 209.776ZM481.01 209.728C481.026 208.752 480.826 207.92 480.41 207.232C480.01 206.544 479.458 206.024 478.754 205.672C478.05 205.32 477.282 205.144 476.45 205.144C475.202 205.144 474.138 205.544 473.258 206.344C472.378 207.144 471.89 208.272 471.794 209.728H481.01ZM491.931 203.656C493.499 203.656 494.779 204.144 495.771 205.12C496.763 206.08 497.259 207.48 497.259 209.32V217H495.603V209.512C495.603 208.088 495.243 207 494.523 206.248C493.819 205.496 492.851 205.12 491.619 205.12C490.355 205.12 489.347 205.52 488.595 206.32C487.843 207.12 487.467 208.296 487.467 209.848V217H485.787V203.896H487.467V206.128C487.883 205.328 488.483 204.72 489.267 204.304C490.051 203.872 490.939 203.656 491.931 203.656ZM500.207 210.448C500.207 209.088 500.479 207.904 501.023 206.896C501.567 205.872 502.319 205.088 503.279 204.544C504.239 203.984 505.335 203.704 506.567 203.704C508.183 203.704 509.511 204.104 510.551 204.904C511.607 205.704 512.287 206.792 512.591 208.168H510.791C510.567 207.224 510.079 206.488 509.327 205.96C508.591 205.416 507.671 205.144 506.567 205.144C505.687 205.144 504.895 205.344 504.191 205.744C503.487 206.144 502.927 206.744 502.511 207.544C502.111 208.328 501.911 209.296 501.911 210.448C501.911 211.6 502.111 212.576 502.511 213.376C502.927 214.176 503.487 214.776 504.191 215.176C504.895 215.576 505.687 215.776 506.567 215.776C507.671 215.776 508.591 215.512 509.327 214.984C510.079 214.44 510.567 213.688 510.791 212.728H512.591C512.287 214.072 511.607 215.152 510.551 215.968C509.495 216.784 508.167 217.192 506.567 217.192C505.335 217.192 504.239 216.92 503.279 216.376C502.319 215.816 501.567 215.032 501.023 214.024C500.479 213 500.207 211.808 500.207 210.448ZM527.549 209.776C527.549 210.352 527.533 210.792 527.501 211.096H516.629C516.677 212.088 516.917 212.936 517.349 213.64C517.781 214.344 518.349 214.88 519.053 215.248C519.757 215.6 520.525 215.776 521.357 215.776C522.445 215.776 523.357 215.512 524.093 214.984C524.845 214.456 525.341 213.744 525.581 212.848H527.357C527.037 214.128 526.349 215.176 525.293 215.992C524.253 216.792 522.941 217.192 521.357 217.192C520.125 217.192 519.021 216.92 518.045 216.376C517.069 215.816 516.301 215.032 515.741 214.024C515.197 213 514.925 211.808 514.925 210.448C514.925 209.088 515.197 207.896 515.741 206.872C516.285 205.848 517.045 205.064 518.021 204.52C518.997 203.976 520.109 203.704 521.357 203.704C522.605 203.704 523.693 203.976 524.621 204.52C525.565 205.064 526.285 205.8 526.781 206.728C527.293 207.64 527.549 208.656 527.549 209.776ZM525.845 209.728C525.861 208.752 525.661 207.92 525.245 207.232C524.845 206.544 524.293 206.024 523.589 205.672C522.885 205.32 522.117 205.144 521.285 205.144C520.037 205.144 518.973 205.544 518.093 206.344C517.213 207.144 516.725 208.272 516.629 209.728H525.845ZM530.911 217.12C530.559 217.12 530.263 217 530.023 216.76C529.799 216.52 529.687 216.224 529.687 215.872C529.687 215.52 529.799 215.232 530.023 215.008C530.263 214.768 530.559 214.648 530.911 214.648C531.247 214.648 531.527 214.768 531.751 215.008C531.991 215.232 532.111 215.52 532.111 215.872C532.111 216.224 531.991 216.52 531.751 216.76C531.527 217 531.247 217.12 530.911 217.12Z" fill="#4E4646"/>
<mask id="mask0_1854_7667" style="mask-type:alpha" maskUnits="userSpaceOnUse" x="2" y="70" width="605" height="74">
<path d="M29.55 124.525C24.6 124.525 20.05 123.375 15.9 121.075C11.8 118.775 8.525 115.575 6.075 111.475C3.675 107.325 2.475 102.675 2.475 97.525C2.475 92.375 3.675 87.75 6.075 83.65C8.525 79.55 11.8 76.35 15.9 74.05C20.05 71.75 24.6 70.6 29.55 70.6C34.5 70.6 39.025 71.75 43.125 74.05C47.275 76.35 50.525 79.55 52.875 83.65C55.275 87.75 56.475 92.375 56.475 97.525C56.475 102.675 55.275 107.325 52.875 111.475C50.475 115.575 47.225 118.775 43.125 121.075C39.025 123.375 34.5 124.525 29.55 124.525ZM29.55 112.825C33.75 112.825 37.1 111.425 39.6 108.625C42.15 105.825 43.425 102.125 43.425 97.525C43.425 92.875 42.15 89.175 39.6 86.425C37.1 83.625 33.75 82.225 29.55 82.225C25.3 82.225 21.9 83.6 19.35 86.35C16.85 89.1 15.6 92.825 15.6 97.525C15.6 102.175 16.85 105.9 19.35 108.7C21.9 111.45 25.3 112.825 29.55 112.825ZM76.435 88.075C77.685 86.125 79.41 84.55 81.61 83.35C83.81 82.15 86.385 81.55 89.335 81.55C92.785 81.55 95.91 82.425 98.71 84.175C101.51 85.925 103.71 88.425 105.31 91.675C106.96 94.925 107.785 98.7 107.785 103C107.785 107.3 106.96 111.1 105.31 114.4C103.71 117.65 101.51 120.175 98.71 121.975C95.91 123.725 92.785 124.6 89.335 124.6C86.435 124.6 83.86 124 81.61 122.8C79.41 121.6 77.685 120.05 76.435 118.15V143.95H63.61V82.15H76.435V88.075ZM94.735 103C94.735 99.8 93.835 97.3 92.035 95.5C90.285 93.65 88.11 92.725 85.51 92.725C82.96 92.725 80.785 93.65 78.985 95.5C77.235 97.35 76.36 99.875 76.36 103.075C76.36 106.275 77.235 108.8 78.985 110.65C80.785 112.5 82.96 113.425 85.51 113.425C88.06 113.425 90.235 112.5 92.035 110.65C93.835 108.75 94.735 106.2 94.735 103ZM153.963 102.4C153.963 103.6 153.888 104.85 153.738 106.15H124.713C124.913 108.75 125.738 110.75 127.188 112.15C128.688 113.5 130.513 114.175 132.663 114.175C135.863 114.175 138.088 112.825 139.338 110.125H152.988C152.288 112.875 151.013 115.35 149.163 117.55C147.363 119.75 145.088 121.475 142.338 122.725C139.588 123.975 136.513 124.6 133.113 124.6C129.013 124.6 125.363 123.725 122.163 121.975C118.963 120.225 116.463 117.725 114.663 114.475C112.863 111.225 111.963 107.425 111.963 103.075C111.963 98.725 112.838 94.925 114.588 91.675C116.388 88.425 118.888 85.925 122.088 84.175C125.288 82.425 128.963 81.55 133.113 81.55C137.163 81.55 140.763 82.4 143.913 84.1C147.063 85.8 149.513 88.225 151.263 91.375C153.063 94.525 153.963 98.2 153.963 102.4ZM140.838 99.025C140.838 96.825 140.088 95.075 138.588 93.775C137.088 92.475 135.213 91.825 132.963 91.825C130.813 91.825 128.988 92.45 127.488 93.7C126.038 94.95 125.138 96.725 124.788 99.025H140.838ZM186.229 81.7C191.129 81.7 195.029 83.3 197.929 86.5C200.879 89.65 202.354 94 202.354 99.55V124H189.604V101.275C189.604 98.475 188.879 96.3 187.429 94.75C185.979 93.2 184.029 92.425 181.579 92.425C179.129 92.425 177.179 93.2 175.729 94.75C174.279 96.3 173.554 98.475 173.554 101.275V124H160.729V82.15H173.554V87.7C174.854 85.85 176.604 84.4 178.804 83.35C181.004 82.25 183.479 81.7 186.229 81.7ZM230.316 124.525C226.466 124.525 223.016 123.9 219.966 122.65C216.916 121.4 214.466 119.55 212.616 117.1C210.816 114.65 209.866 111.7 209.766 108.25H223.416C223.616 110.2 224.291 111.7 225.441 112.75C226.591 113.75 228.091 114.25 229.941 114.25C231.841 114.25 233.341 113.825 234.441 112.975C235.541 112.075 236.091 110.85 236.091 109.3C236.091 108 235.641 106.925 234.741 106.075C233.891 105.225 232.816 104.525 231.516 103.975C230.266 103.425 228.466 102.8 226.116 102.1C222.716 101.05 219.941 100 217.791 98.95C215.641 97.9 213.791 96.35 212.241 94.3C210.691 92.25 209.916 89.575 209.916 86.275C209.916 81.375 211.691 77.55 215.241 74.8C218.791 72 223.416 70.6 229.116 70.6C234.916 70.6 239.591 72 243.141 74.8C246.691 77.55 248.591 81.4 248.841 86.35H234.966C234.866 84.65 234.241 83.325 233.091 82.375C231.941 81.375 230.466 80.875 228.666 80.875C227.116 80.875 225.866 81.3 224.916 82.15C223.966 82.95 223.491 84.125 223.491 85.675C223.491 87.375 224.291 88.7 225.891 89.65C227.491 90.6 229.991 91.625 233.391 92.725C236.791 93.875 239.541 94.975 241.641 96.025C243.791 97.075 245.641 98.6 247.191 100.6C248.741 102.6 249.516 105.175 249.516 108.325C249.516 111.325 248.741 114.05 247.191 116.5C245.691 118.95 243.491 120.9 240.591 122.35C237.691 123.8 234.266 124.525 230.316 124.525ZM280.734 113.125V124H274.209C269.559 124 265.934 122.875 263.334 120.625C260.734 118.325 259.434 114.6 259.434 109.45V92.8H254.334V82.15H259.434V71.95H272.259V82.15H280.659V92.8H272.259V109.6C272.259 110.85 272.559 111.75 273.159 112.3C273.759 112.85 274.759 113.125 276.159 113.125H280.734ZM300.703 89.125C302.203 86.825 304.078 85.025 306.328 83.725C308.578 82.375 311.078 81.7 313.828 81.7V95.275H310.303C307.103 95.275 304.703 95.975 303.103 97.375C301.503 98.725 300.703 101.125 300.703 104.575V124H287.878V82.15H300.703V89.125ZM359.408 102.4C359.408 103.6 359.333 104.85 359.183 106.15H330.158C330.358 108.75 331.183 110.75 332.633 112.15C334.133 113.5 335.958 114.175 338.108 114.175C341.308 114.175 343.533 112.825 344.783 110.125H358.433C357.733 112.875 356.458 115.35 354.608 117.55C352.808 119.75 350.533 121.475 347.783 122.725C345.033 123.975 341.958 124.6 338.558 124.6C334.458 124.6 330.808 123.725 327.608 121.975C324.408 120.225 321.908 117.725 320.108 114.475C318.308 111.225 317.408 107.425 317.408 103.075C317.408 98.725 318.283 94.925 320.033 91.675C321.833 88.425 324.333 85.925 327.533 84.175C330.733 82.425 334.408 81.55 338.558 81.55C342.608 81.55 346.208 82.4 349.358 84.1C352.508 85.8 354.958 88.225 356.708 91.375C358.508 94.525 359.408 98.2 359.408 102.4ZM346.283 99.025C346.283 96.825 345.533 95.075 344.033 93.775C342.533 92.475 340.658 91.825 338.408 91.825C336.258 91.825 334.433 92.45 332.933 93.7C331.483 94.95 330.583 96.725 330.233 99.025H346.283ZM405.623 102.4C405.623 103.6 405.548 104.85 405.398 106.15H376.373C376.573 108.75 377.398 110.75 378.848 112.15C380.348 113.5 382.173 114.175 384.323 114.175C387.523 114.175 389.748 112.825 390.998 110.125H404.648C403.948 112.875 402.673 115.35 400.823 117.55C399.023 119.75 396.748 121.475 393.998 122.725C391.248 123.975 388.173 124.6 384.773 124.6C380.673 124.6 377.023 123.725 373.823 121.975C370.623 120.225 368.123 117.725 366.323 114.475C364.523 111.225 363.623 107.425 363.623 103.075C363.623 98.725 364.498 94.925 366.248 91.675C368.048 88.425 370.548 85.925 373.748 84.175C376.948 82.425 380.623 81.55 384.773 81.55C388.823 81.55 392.423 82.4 395.573 84.1C398.723 85.8 401.173 88.225 402.923 91.375C404.723 94.525 405.623 98.2 405.623 102.4ZM392.498 99.025C392.498 96.825 391.748 95.075 390.248 93.775C388.748 92.475 386.873 91.825 384.623 91.825C382.473 91.825 380.648 92.45 379.148 93.7C377.698 94.95 376.798 96.725 376.448 99.025H392.498ZM435.714 113.125V124H429.189C424.539 124 420.914 122.875 418.314 120.625C415.714 118.325 414.414 114.6 414.414 109.45V92.8H409.314V82.15H414.414V71.95H427.239V82.15H435.639V92.8H427.239V109.6C427.239 110.85 427.539 111.75 428.139 112.3C428.739 112.85 429.739 113.125 431.139 113.125H435.714ZM502.483 71.35V124H489.658V92.425L477.883 124H467.533L455.683 92.35V124H442.858V71.35H458.008L472.783 107.8L487.408 71.35H502.483ZM509.156 103C509.156 98.7 509.956 94.925 511.556 91.675C513.206 88.425 515.431 85.925 518.231 84.175C521.031 82.425 524.156 81.55 527.606 81.55C530.556 81.55 533.131 82.15 535.331 83.35C537.581 84.55 539.306 86.125 540.506 88.075V82.15H553.331V124H540.506V118.075C539.256 120.025 537.506 121.6 535.256 122.8C533.056 124 530.481 124.6 527.531 124.6C524.131 124.6 521.031 123.725 518.231 121.975C515.431 120.175 513.206 117.65 511.556 114.4C509.956 111.1 509.156 107.3 509.156 103ZM540.506 103.075C540.506 99.875 539.606 97.35 537.806 95.5C536.056 93.65 533.906 92.725 531.356 92.725C528.806 92.725 526.631 93.65 524.831 95.5C523.081 97.3 522.206 99.8 522.206 103C522.206 106.2 523.081 108.75 524.831 110.65C526.631 112.5 528.806 113.425 531.356 113.425C533.906 113.425 536.056 112.5 537.806 110.65C539.606 108.8 540.506 106.275 540.506 103.075ZM575.434 88.075C576.684 86.125 578.409 84.55 580.609 83.35C582.809 82.15 585.384 81.55 588.334 81.55C591.784 81.55 594.909 82.425 597.709 84.175C600.509 85.925 602.709 88.425 604.309 91.675C605.959 94.925 606.784 98.7 606.784 103C606.784 107.3 605.959 111.1 604.309 114.4C602.709 117.65 600.509 120.175 597.709 121.975C594.909 123.725 591.784 124.6 588.334 124.6C585.434 124.6 582.859 124 580.609 122.8C578.409 121.6 576.684 120.05 575.434 118.15V143.95H562.609V82.15H575.434V88.075ZM593.734 103C593.734 99.8 592.834 97.3 591.034 95.5C589.284 93.65 587.109 92.725 584.509 92.725C581.959 92.725 579.784 93.65 577.984 95.5C576.234 97.35 575.359 99.875 575.359 103.075C575.359 106.275 576.234 108.8 577.984 110.65C579.784 112.5 581.959 113.425 584.509 113.425C587.059 113.425 589.234 112.5 591.034 110.65C592.834 108.75 593.734 106.2 593.734 103Z" fill="black"/>
</mask>
<g mask="url(#mask0_1854_7667)">
<rect x="-270" y="-91" width="1017" height="255" fill="#111111"/>
</g>
</svg>
