<svg width="612" height="263" viewBox="0 0 612 263" fill="none" xmlns="http://www.w3.org/2000/svg">
<path d="M6.048 23.908C6.696 22.78 7.656 21.844 8.928 21.1C10.224 20.332 11.724 19.948 13.428 19.948C15.18 19.948 16.764 20.368 18.18 21.208C19.62 22.048 20.748 23.236 21.564 24.772C22.38 26.284 22.788 28.048 22.788 30.064C22.788 32.056 22.38 33.832 21.564 35.392C20.748 36.952 19.62 38.164 18.18 39.028C16.764 39.892 15.18 40.324 13.428 40.324C11.748 40.324 10.26 39.952 8.964 39.208C7.692 38.44 6.72 37.492 6.048 36.364V49.36H2.772V20.272H6.048V23.908ZM19.44 30.064C19.44 28.576 19.14 27.28 18.54 26.176C17.94 25.072 17.124 24.232 16.092 23.656C15.084 23.08 13.968 22.792 12.744 22.792C11.544 22.792 10.428 23.092 9.396 23.692C8.388 24.268 7.572 25.12 6.948 26.248C6.348 27.352 6.048 28.636 6.048 30.1C6.048 31.588 6.348 32.896 6.948 34.024C7.572 35.128 8.388 35.98 9.396 36.58C10.428 37.156 11.544 37.444 12.744 37.444C13.968 37.444 15.084 37.156 16.092 36.58C17.124 35.98 17.94 35.128 18.54 34.024C19.14 32.896 19.44 31.576 19.44 30.064ZM45.1001 29.38C45.1001 30.004 45.0641 30.664 44.9921 31.36H29.2241C29.3441 33.304 30.0041 34.828 31.2041 35.932C32.4281 37.012 33.9041 37.552 35.6321 37.552C37.0481 37.552 38.2241 37.228 39.1601 36.58C40.1201 35.908 40.7921 35.02 41.1761 33.916H44.7041C44.1761 35.812 43.1201 37.36 41.5361 38.56C39.9521 39.736 37.9841 40.324 35.6321 40.324C33.7601 40.324 32.0801 39.904 30.5921 39.064C29.1281 38.224 27.9761 37.036 27.1361 35.5C26.2961 33.94 25.8761 32.14 25.8761 30.1C25.8761 28.06 26.2841 26.272 27.1001 24.736C27.9161 23.2 29.0561 22.024 30.5201 21.208C32.0081 20.368 33.7121 19.948 35.6321 19.948C37.5041 19.948 39.1601 20.356 40.6001 21.172C42.0401 21.988 43.1441 23.116 43.9121 24.556C44.7041 25.972 45.1001 27.58 45.1001 29.38ZM41.7161 28.696C41.7161 27.448 41.4401 26.38 40.8881 25.492C40.3361 24.58 39.5801 23.896 38.6201 23.44C37.6841 22.96 36.6401 22.72 35.4881 22.72C33.8321 22.72 32.4161 23.248 31.2401 24.304C30.0881 25.36 29.4281 26.824 29.2601 28.696H41.7161ZM52.7003 23.476C53.2763 22.348 54.0923 21.472 55.1483 20.848C56.2283 20.224 57.5363 19.912 59.0723 19.912V23.296H58.2083C54.5363 23.296 52.7003 25.288 52.7003 29.272V40H49.4243V20.272H52.7003V23.476ZM86.578 19.912C88.114 19.912 89.482 20.236 90.682 20.884C91.882 21.508 92.83 22.456 93.526 23.728C94.222 25 94.57 26.548 94.57 28.372V40H91.33V28.84C91.33 26.872 90.838 25.372 89.854 24.34C88.894 23.284 87.586 22.756 85.93 22.756C84.226 22.756 82.87 23.308 81.862 24.412C80.854 25.492 80.35 27.064 80.35 29.128V40H77.11V28.84C77.11 26.872 76.618 25.372 75.634 24.34C74.674 23.284 73.366 22.756 71.71 22.756C70.006 22.756 68.65 23.308 67.642 24.412C66.634 25.492 66.13 27.064 66.13 29.128V40H62.854V20.272H66.13V23.116C66.778 22.084 67.642 21.292 68.722 20.74C69.826 20.188 71.038 19.912 72.358 19.912C74.014 19.912 75.478 20.284 76.75 21.028C78.022 21.772 78.97 22.864 79.594 24.304C80.146 22.912 81.058 21.832 82.33 21.064C83.602 20.296 85.018 19.912 86.578 19.912ZM117.944 29.38C117.944 30.004 117.908 30.664 117.836 31.36H102.068C102.188 33.304 102.848 34.828 104.048 35.932C105.272 37.012 106.748 37.552 108.476 37.552C109.892 37.552 111.068 37.228 112.004 36.58C112.964 35.908 113.636 35.02 114.02 33.916H117.548C117.02 35.812 115.964 37.36 114.38 38.56C112.796 39.736 110.828 40.324 108.476 40.324C106.604 40.324 104.924 39.904 103.436 39.064C101.972 38.224 100.82 37.036 99.9799 35.5C99.1399 33.94 98.7199 32.14 98.7199 30.1C98.7199 28.06 99.1279 26.272 99.9439 24.736C100.76 23.2 101.9 22.024 103.364 21.208C104.852 20.368 106.556 19.948 108.476 19.948C110.348 19.948 112.004 20.356 113.444 21.172C114.884 21.988 115.988 23.116 116.756 24.556C117.548 25.972 117.944 27.58 117.944 29.38ZM114.56 28.696C114.56 27.448 114.284 26.38 113.732 25.492C113.18 24.58 112.424 23.896 111.464 23.44C110.528 22.96 109.484 22.72 108.332 22.72C106.676 22.72 105.26 23.248 104.084 24.304C102.932 25.36 102.272 26.824 102.104 28.696H114.56ZM126.264 22.972V34.6C126.264 35.56 126.468 36.244 126.876 36.652C127.284 37.036 127.992 37.228 129 37.228H131.412V40H128.46C126.636 40 125.268 39.58 124.356 38.74C123.444 37.9 122.988 36.52 122.988 34.6V22.972H120.432V20.272H122.988V15.304H126.264V20.272H131.412V22.972H126.264ZM139.377 22.972V34.6C139.377 35.56 139.581 36.244 139.989 36.652C140.397 37.036 141.105 37.228 142.113 37.228H144.525V40H141.573C139.749 40 138.381 39.58 137.469 38.74C136.557 37.9 136.101 36.52 136.101 34.6V22.972H133.545V20.272H136.101V15.304H139.377V20.272H144.525V22.972H139.377ZM151.771 23.476C152.347 22.348 153.163 21.472 154.219 20.848C155.299 20.224 156.607 19.912 158.143 19.912V23.296H157.279C153.607 23.296 151.771 25.288 151.771 29.272V40H148.495V20.272H151.771V23.476ZM179.924 29.38C179.924 30.004 179.888 30.664 179.816 31.36H164.048C164.168 33.304 164.828 34.828 166.028 35.932C167.252 37.012 168.728 37.552 170.456 37.552C171.872 37.552 173.048 37.228 173.984 36.58C174.944 35.908 175.616 35.02 176 33.916H179.528C179 35.812 177.944 37.36 176.36 38.56C174.776 39.736 172.808 40.324 170.456 40.324C168.584 40.324 166.904 39.904 165.416 39.064C163.952 38.224 162.8 37.036 161.96 35.5C161.12 33.94 160.7 32.14 160.7 30.1C160.7 28.06 161.108 26.272 161.924 24.736C162.74 23.2 163.88 22.024 165.344 21.208C166.832 20.368 168.536 19.948 170.456 19.948C172.328 19.948 173.984 20.356 175.424 21.172C176.864 21.988 177.968 23.116 178.736 24.556C179.528 25.972 179.924 27.58 179.924 29.38ZM176.54 28.696C176.54 27.448 176.264 26.38 175.712 25.492C175.16 24.58 174.404 23.896 173.444 23.44C172.508 22.96 171.464 22.72 170.312 22.72C168.656 22.72 167.24 23.248 166.064 24.304C164.912 25.36 164.252 26.824 164.084 28.696H176.54ZM197.122 13.36V40H193.846V13.36H197.122ZM220.706 29.38C220.706 30.004 220.67 30.664 220.598 31.36H204.83C204.95 33.304 205.61 34.828 206.81 35.932C208.034 37.012 209.51 37.552 211.238 37.552C212.654 37.552 213.83 37.228 214.766 36.58C215.726 35.908 216.398 35.02 216.782 33.916H220.31C219.782 35.812 218.726 37.36 217.142 38.56C215.558 39.736 213.59 40.324 211.238 40.324C209.366 40.324 207.686 39.904 206.198 39.064C204.734 38.224 203.582 37.036 202.742 35.5C201.902 33.94 201.482 32.14 201.482 30.1C201.482 28.06 201.89 26.272 202.706 24.736C203.522 23.2 204.662 22.024 206.126 21.208C207.614 20.368 209.318 19.948 211.238 19.948C213.11 19.948 214.766 20.356 216.206 21.172C217.646 21.988 218.75 23.116 219.518 24.556C220.31 25.972 220.706 27.58 220.706 29.38ZM217.322 28.696C217.322 27.448 217.046 26.38 216.494 25.492C215.942 24.58 215.186 23.896 214.226 23.44C213.29 22.96 212.246 22.72 211.094 22.72C209.438 22.72 208.022 23.248 206.846 24.304C205.694 25.36 205.034 26.824 204.866 28.696H217.322ZM233.403 30.1C233.403 28.06 233.811 26.284 234.627 24.772C235.443 23.236 236.571 22.048 238.011 21.208C239.475 20.368 241.143 19.948 243.015 19.948C245.439 19.948 247.431 20.536 248.991 21.712C250.575 22.888 251.619 24.52 252.123 26.608H248.595C248.259 25.408 247.599 24.46 246.615 23.764C245.655 23.068 244.455 22.72 243.015 22.72C241.143 22.72 239.631 23.368 238.479 24.664C237.327 25.936 236.751 27.748 236.751 30.1C236.751 32.476 237.327 34.312 238.479 35.608C239.631 36.904 241.143 37.552 243.015 37.552C244.455 37.552 245.655 37.216 246.615 36.544C247.575 35.872 248.235 34.912 248.595 33.664H252.123C251.595 35.68 250.539 37.3 248.955 38.524C247.371 39.724 245.391 40.324 243.015 40.324C241.143 40.324 239.475 39.904 238.011 39.064C236.571 38.224 235.443 37.036 234.627 35.5C233.811 33.964 233.403 32.164 233.403 30.1ZM265.099 40.324C263.251 40.324 261.571 39.904 260.059 39.064C258.571 38.224 257.395 37.036 256.531 35.5C255.691 33.94 255.271 32.14 255.271 30.1C255.271 28.084 255.703 26.308 256.567 24.772C257.455 23.212 258.655 22.024 260.167 21.208C261.679 20.368 263.371 19.948 265.243 19.948C267.115 19.948 268.807 20.368 270.319 21.208C271.831 22.024 273.019 23.2 273.883 24.736C274.771 26.272 275.215 28.06 275.215 30.1C275.215 32.14 274.759 33.94 273.847 35.5C272.959 37.036 271.747 38.224 270.211 39.064C268.675 39.904 266.971 40.324 265.099 40.324ZM265.099 37.444C266.275 37.444 267.379 37.168 268.411 36.616C269.443 36.064 270.271 35.236 270.895 34.132C271.543 33.028 271.867 31.684 271.867 30.1C271.867 28.516 271.555 27.172 270.931 26.068C270.307 24.964 269.491 24.148 268.483 23.62C267.475 23.068 266.383 22.792 265.207 22.792C264.007 22.792 262.903 23.068 261.895 23.62C260.911 24.148 260.119 24.964 259.519 26.068C258.919 27.172 258.619 28.516 258.619 30.1C258.619 31.708 258.907 33.064 259.483 34.168C260.083 35.272 260.875 36.1 261.859 36.652C262.843 37.18 263.923 37.444 265.099 37.444ZM303.246 19.912C304.782 19.912 306.15 20.236 307.35 20.884C308.55 21.508 309.498 22.456 310.194 23.728C310.89 25 311.238 26.548 311.238 28.372V40H307.998V28.84C307.998 26.872 307.506 25.372 306.522 24.34C305.562 23.284 304.254 22.756 302.598 22.756C300.894 22.756 299.538 23.308 298.53 24.412C297.522 25.492 297.018 27.064 297.018 29.128V40H293.778V28.84C293.778 26.872 293.286 25.372 292.302 24.34C291.342 23.284 290.034 22.756 288.378 22.756C286.674 22.756 285.318 23.308 284.31 24.412C283.302 25.492 282.798 27.064 282.798 29.128V40H279.522V20.272H282.798V23.116C283.446 22.084 284.31 21.292 285.39 20.74C286.494 20.188 287.706 19.912 289.026 19.912C290.682 19.912 292.146 20.284 293.418 21.028C294.69 21.772 295.638 22.864 296.262 24.304C296.814 22.912 297.726 21.832 298.998 21.064C300.27 20.296 301.686 19.912 303.246 19.912ZM340.336 19.912C341.872 19.912 343.24 20.236 344.44 20.884C345.64 21.508 346.588 22.456 347.284 23.728C347.98 25 348.328 26.548 348.328 28.372V40H345.088V28.84C345.088 26.872 344.596 25.372 343.612 24.34C342.652 23.284 341.344 22.756 339.688 22.756C337.984 22.756 336.628 23.308 335.62 24.412C334.612 25.492 334.108 27.064 334.108 29.128V40H330.868V28.84C330.868 26.872 330.376 25.372 329.392 24.34C328.432 23.284 327.124 22.756 325.468 22.756C323.764 22.756 322.408 23.308 321.4 24.412C320.392 25.492 319.888 27.064 319.888 29.128V40H316.612V20.272H319.888V23.116C320.536 22.084 321.4 21.292 322.48 20.74C323.584 20.188 324.796 19.912 326.116 19.912C327.772 19.912 329.236 20.284 330.508 21.028C331.78 21.772 332.728 22.864 333.352 24.304C333.904 22.912 334.816 21.832 336.088 21.064C337.36 20.296 338.776 19.912 340.336 19.912ZM371.702 29.38C371.702 30.004 371.666 30.664 371.594 31.36H355.826C355.946 33.304 356.606 34.828 357.806 35.932C359.03 37.012 360.506 37.552 362.234 37.552C363.65 37.552 364.826 37.228 365.762 36.58C366.722 35.908 367.394 35.02 367.778 33.916H371.306C370.778 35.812 369.722 37.36 368.138 38.56C366.554 39.736 364.586 40.324 362.234 40.324C360.362 40.324 358.682 39.904 357.194 39.064C355.73 38.224 354.578 37.036 353.738 35.5C352.898 33.94 352.478 32.14 352.478 30.1C352.478 28.06 352.886 26.272 353.702 24.736C354.518 23.2 355.658 22.024 357.122 21.208C358.61 20.368 360.314 19.948 362.234 19.948C364.106 19.948 365.762 20.356 367.202 21.172C368.642 21.988 369.746 23.116 370.514 24.556C371.306 25.972 371.702 27.58 371.702 29.38ZM368.318 28.696C368.318 27.448 368.042 26.38 367.49 25.492C366.938 24.58 366.182 23.896 365.222 23.44C364.286 22.96 363.242 22.72 362.09 22.72C360.434 22.72 359.018 23.248 357.842 24.304C356.69 25.36 356.03 26.824 355.862 28.696H368.318ZM379.302 23.476C379.878 22.348 380.694 21.472 381.75 20.848C382.83 20.224 384.138 19.912 385.674 19.912V23.296H384.81C381.138 23.296 379.302 25.288 379.302 29.272V40H376.026V20.272H379.302V23.476ZM388.232 30.1C388.232 28.06 388.64 26.284 389.456 24.772C390.272 23.236 391.4 22.048 392.84 21.208C394.304 20.368 395.972 19.948 397.844 19.948C400.268 19.948 402.26 20.536 403.82 21.712C405.404 22.888 406.448 24.52 406.952 26.608H403.424C403.088 25.408 402.428 24.46 401.444 23.764C400.484 23.068 399.284 22.72 397.844 22.72C395.972 22.72 394.46 23.368 393.308 24.664C392.156 25.936 391.58 27.748 391.58 30.1C391.58 32.476 392.156 34.312 393.308 35.608C394.46 36.904 395.972 37.552 397.844 37.552C399.284 37.552 400.484 37.216 401.444 36.544C402.404 35.872 403.064 34.912 403.424 33.664H406.952C406.424 35.68 405.368 37.3 403.784 38.524C402.2 39.724 400.22 40.324 397.844 40.324C395.972 40.324 394.304 39.904 392.84 39.064C391.4 38.224 390.272 37.036 389.456 35.5C388.64 33.964 388.232 32.164 388.232 30.1ZM429.323 29.38C429.323 30.004 429.287 30.664 429.215 31.36H413.447C413.567 33.304 414.227 34.828 415.427 35.932C416.651 37.012 418.127 37.552 419.855 37.552C421.271 37.552 422.447 37.228 423.383 36.58C424.343 35.908 425.015 35.02 425.399 33.916H428.927C428.399 35.812 427.343 37.36 425.759 38.56C424.175 39.736 422.207 40.324 419.855 40.324C417.983 40.324 416.303 39.904 414.815 39.064C413.351 38.224 412.199 37.036 411.359 35.5C410.519 33.94 410.099 32.14 410.099 30.1C410.099 28.06 410.507 26.272 411.323 24.736C412.139 23.2 413.279 22.024 414.743 21.208C416.231 20.368 417.935 19.948 419.855 19.948C421.727 19.948 423.383 20.356 424.823 21.172C426.263 21.988 427.367 23.116 428.135 24.556C428.927 25.972 429.323 27.58 429.323 29.38ZM425.939 28.696C425.939 27.448 425.663 26.38 425.111 25.492C424.559 24.58 423.803 23.896 422.843 23.44C421.907 22.96 420.863 22.72 419.711 22.72C418.055 22.72 416.639 23.248 415.463 24.304C414.311 25.36 413.651 26.824 413.483 28.696H425.939ZM450.229 40.324C448.717 40.324 447.361 40.072 446.161 39.568C444.961 39.04 444.013 38.32 443.317 37.408C442.621 36.472 442.237 35.404 442.165 34.204H445.549C445.645 35.188 446.101 35.992 446.917 36.616C447.757 37.24 448.849 37.552 450.193 37.552C451.441 37.552 452.425 37.276 453.145 36.724C453.865 36.172 454.225 35.476 454.225 34.636C454.225 33.772 453.841 33.136 453.073 32.728C452.305 32.296 451.117 31.876 449.509 31.468C448.045 31.084 446.845 30.7 445.909 30.316C444.997 29.908 444.205 29.32 443.533 28.552C442.885 27.76 442.561 26.728 442.561 25.456C442.561 24.448 442.861 23.524 443.461 22.684C444.061 21.844 444.913 21.184 446.017 20.704C447.121 20.2 448.381 19.948 449.797 19.948C451.981 19.948 453.745 20.5 455.089 21.604C456.433 22.708 457.153 24.22 457.249 26.14H453.973C453.901 25.108 453.481 24.28 452.713 23.656C451.969 23.032 450.961 22.72 449.689 22.72C448.513 22.72 447.577 22.972 446.881 23.476C446.185 23.98 445.837 24.64 445.837 25.456C445.837 26.104 446.041 26.644 446.449 27.076C446.881 27.484 447.409 27.82 448.033 28.084C448.681 28.324 449.569 28.6 450.697 28.912C452.113 29.296 453.265 29.68 454.153 30.064C455.041 30.424 455.797 30.976 456.421 31.72C457.069 32.464 457.405 33.436 457.429 34.636C457.429 35.716 457.129 36.688 456.529 37.552C455.929 38.416 455.077 39.1 453.973 39.604C452.893 40.084 451.645 40.324 450.229 40.324ZM479.549 20.272V40H476.273V37.084C475.649 38.092 474.773 38.884 473.645 39.46C472.541 40.012 471.317 40.288 469.973 40.288C468.437 40.288 467.057 39.976 465.833 39.352C464.609 38.704 463.637 37.744 462.917 36.472C462.221 35.2 461.873 33.652 461.873 31.828V20.272H465.113V31.396C465.113 33.34 465.605 34.84 466.589 35.896C467.573 36.928 468.917 37.444 470.621 37.444C472.373 37.444 473.753 36.904 474.761 35.824C475.769 34.744 476.273 33.172 476.273 31.108V20.272H479.549ZM488.357 23.476C488.933 22.348 489.749 21.472 490.805 20.848C491.885 20.224 493.193 19.912 494.729 19.912V23.296H493.865C490.193 23.296 488.357 25.288 488.357 29.272V40H485.081V20.272H488.357V23.476Z" fill="#4E4646"/>
<path d="M13.776 173.776C13.776 174.352 13.76 174.792 13.728 175.096H2.856C2.904 176.088 3.144 176.936 3.576 177.64C4.008 178.344 4.576 178.88 5.28 179.248C5.984 179.6 6.752 179.776 7.584 179.776C8.672 179.776 9.584 179.512 10.32 178.984C11.072 178.456 11.568 177.744 11.808 176.848H13.584C13.264 178.128 12.576 179.176 11.52 179.992C10.48 180.792 9.168 181.192 7.584 181.192C6.352 181.192 5.248 180.92 4.272 180.376C3.296 179.816 2.528 179.032 1.968 178.024C1.424 177 1.152 175.808 1.152 174.448C1.152 173.088 1.424 171.896 1.968 170.872C2.512 169.848 3.272 169.064 4.248 168.52C5.224 167.976 6.336 167.704 7.584 167.704C8.832 167.704 9.92 167.976 10.848 168.52C11.792 169.064 12.512 169.8 13.008 170.728C13.52 171.64 13.776 172.656 13.776 173.776ZM12.072 173.728C12.088 172.752 11.888 171.92 11.472 171.232C11.072 170.544 10.52 170.024 9.816 169.672C9.112 169.32 8.344 169.144 7.512 169.144C6.264 169.144 5.2 169.544 4.32 170.344C3.44 171.144 2.952 172.272 2.856 173.728H12.072ZM23.7137 181L20.3297 175.72L17.0657 181H15.2897L19.5137 174.448L15.3377 167.896H17.2337L20.5697 173.104L23.8097 167.896H25.5617L21.3857 174.376L25.6097 181H23.7137ZM29.5448 170.776C29.9608 169.896 30.6168 169.168 31.5128 168.592C32.4248 168 33.5048 167.704 34.7528 167.704C35.9368 167.704 37.0008 167.984 37.9448 168.544C38.9048 169.088 39.6488 169.872 40.1768 170.896C40.7208 171.904 40.9928 173.08 40.9928 174.424C40.9928 175.768 40.7208 176.952 40.1768 177.976C39.6488 179 38.9048 179.792 37.9448 180.352C37.0008 180.912 35.9368 181.192 34.7528 181.192C33.5208 181.192 32.4488 180.904 31.5368 180.328C30.6248 179.736 29.9608 179 29.5448 178.12V187.192H27.8888V167.896H29.5448V170.776ZM39.2888 174.424C39.2888 173.336 39.0728 172.4 38.6407 171.616C38.2248 170.816 37.6488 170.208 36.9128 169.792C36.1768 169.376 35.3448 169.168 34.4168 169.168C33.5208 169.168 32.6968 169.384 31.9448 169.816C31.2088 170.248 30.6248 170.864 30.1928 171.664C29.7608 172.464 29.5448 173.392 29.5448 174.448C29.5448 175.504 29.7608 176.432 30.1928 177.232C30.6248 178.032 31.2088 178.648 31.9448 179.08C32.6968 179.512 33.5208 179.728 34.4168 179.728C35.3448 179.728 36.1768 179.52 36.9128 179.104C37.6488 178.672 38.2248 178.056 38.6407 177.256C39.0728 176.44 39.2888 175.496 39.2888 174.424ZM45.7641 163.24V181H44.0841V163.24H45.7641ZM55.3044 181.192C54.0724 181.192 52.9604 180.92 51.9684 180.376C50.9924 179.816 50.2164 179.032 49.6404 178.024C49.0804 177 48.8004 175.808 48.8004 174.448C48.8004 173.088 49.0884 171.904 49.6644 170.896C50.2404 169.872 51.0244 169.088 52.0164 168.544C53.0084 167.984 54.1204 167.704 55.3524 167.704C56.5844 167.704 57.6964 167.984 58.6884 168.544C59.6964 169.088 60.4804 169.872 61.0404 170.896C61.6164 171.904 61.9044 173.088 61.9044 174.448C61.9044 175.792 61.6164 176.976 61.0404 178C60.4644 179.024 59.6724 179.816 58.6644 180.376C57.6564 180.92 56.5364 181.192 55.3044 181.192ZM55.3044 179.728C56.1684 179.728 56.9684 179.536 57.7044 179.152C58.4404 178.752 59.0324 178.16 59.4804 177.376C59.9444 176.576 60.1764 175.6 60.1764 174.448C60.1764 173.296 59.9524 172.328 59.5044 171.544C59.0564 170.744 58.4644 170.152 57.7284 169.768C56.9924 169.368 56.1924 169.168 55.3284 169.168C54.4644 169.168 53.6644 169.368 52.9284 169.768C52.1924 170.152 51.6004 170.744 51.1524 171.544C50.7204 172.328 50.5044 173.296 50.5044 174.448C50.5044 175.6 50.7204 176.576 51.1524 177.376C51.6004 178.16 52.1844 178.752 52.9044 179.152C53.6404 179.536 54.4404 179.728 55.3044 179.728ZM66.6469 170.224C67.0149 169.408 67.5749 168.776 68.3269 168.328C69.0949 167.88 70.0309 167.656 71.1349 167.656V169.408H70.6789C69.4629 169.408 68.4869 169.736 67.7509 170.392C67.0149 171.048 66.6469 172.144 66.6469 173.68V181H64.9669V167.896H66.6469V170.224ZM85.5182 173.776C85.5182 174.352 85.5022 174.792 85.4702 175.096H74.5982C74.6462 176.088 74.8862 176.936 75.3182 177.64C75.7502 178.344 76.3182 178.88 77.0222 179.248C77.7262 179.6 78.4942 179.776 79.3262 179.776C80.4142 179.776 81.3262 179.512 82.0622 178.984C82.8142 178.456 83.3102 177.744 83.5502 176.848H85.3262C85.0062 178.128 84.3182 179.176 83.2622 179.992C82.2222 180.792 80.9102 181.192 79.3262 181.192C78.0942 181.192 76.9902 180.92 76.0142 180.376C75.0382 179.816 74.2702 179.032 73.7102 178.024C73.1662 177 72.8942 175.808 72.8942 174.448C72.8942 173.088 73.1662 171.896 73.7102 170.872C74.2542 169.848 75.0142 169.064 75.9902 168.52C76.9662 167.976 78.0782 167.704 79.3262 167.704C80.5742 167.704 81.6622 167.976 82.5902 168.52C83.5342 169.064 84.2542 169.8 84.7502 170.728C85.2622 171.64 85.5182 172.656 85.5182 173.776ZM83.8142 173.728C83.8302 172.752 83.6302 171.92 83.2142 171.232C82.8142 170.544 82.2622 170.024 81.5582 169.672C80.8542 169.32 80.0862 169.144 79.2542 169.144C78.0062 169.144 76.9422 169.544 76.0622 170.344C75.1822 171.144 74.6942 172.272 74.5982 173.728H83.8142ZM89.4799 179.608H96.3439V181H87.5599V179.608L94.3039 169.288H87.6799V167.896H96.2239V169.288L89.4799 179.608ZM107.452 163.24V181H105.772V163.24H107.452ZM123.112 173.776C123.112 174.352 123.096 174.792 123.064 175.096H112.192C112.24 176.088 112.48 176.936 112.912 177.64C113.344 178.344 113.912 178.88 114.616 179.248C115.32 179.6 116.088 179.776 116.92 179.776C118.008 179.776 118.92 179.512 119.656 178.984C120.408 178.456 120.904 177.744 121.144 176.848H122.92C122.6 178.128 121.912 179.176 120.856 179.992C119.816 180.792 118.504 181.192 116.92 181.192C115.688 181.192 114.584 180.92 113.608 180.376C112.632 179.816 111.864 179.032 111.304 178.024C110.76 177 110.488 175.808 110.488 174.448C110.488 173.088 110.76 171.896 111.304 170.872C111.848 169.848 112.608 169.064 113.584 168.52C114.56 167.976 115.672 167.704 116.92 167.704C118.168 167.704 119.256 167.976 120.184 168.52C121.128 169.064 121.848 169.8 122.344 170.728C122.856 171.64 123.112 172.656 123.112 173.776ZM121.408 173.728C121.424 172.752 121.224 171.92 120.808 171.232C120.408 170.544 119.856 170.024 119.152 169.672C118.448 169.32 117.68 169.144 116.848 169.144C115.6 169.144 114.536 169.544 113.656 170.344C112.776 171.144 112.288 172.272 112.192 173.728H121.408ZM130.698 181.192C129.194 181.192 127.962 180.848 127.002 180.16C126.058 179.456 125.53 178.504 125.418 177.304H127.146C127.226 178.04 127.57 178.64 128.178 179.104C128.802 179.552 129.634 179.776 130.674 179.776C131.586 179.776 132.298 179.56 132.81 179.128C133.338 178.696 133.602 178.16 133.602 177.52C133.602 177.072 133.458 176.704 133.17 176.416C132.882 176.128 132.514 175.904 132.066 175.744C131.634 175.568 131.042 175.384 130.29 175.192C129.314 174.936 128.522 174.68 127.914 174.424C127.306 174.168 126.786 173.792 126.354 173.296C125.938 172.784 125.73 172.104 125.73 171.256C125.73 170.616 125.922 170.024 126.306 169.48C126.69 168.936 127.234 168.504 127.938 168.184C128.642 167.864 129.442 167.704 130.338 167.704C131.746 167.704 132.882 168.064 133.746 168.784C134.61 169.488 135.074 170.464 135.138 171.712H133.458C133.41 170.944 133.106 170.328 132.546 169.864C132.002 169.384 131.25 169.144 130.29 169.144C129.442 169.144 128.754 169.344 128.226 169.744C127.698 170.144 127.434 170.64 127.434 171.232C127.434 171.744 127.586 172.168 127.89 172.504C128.21 172.824 128.602 173.08 129.066 173.272C129.53 173.448 130.154 173.648 130.938 173.872C131.882 174.128 132.634 174.376 133.194 174.616C133.754 174.856 134.234 175.208 134.634 175.672C135.034 176.136 135.242 176.752 135.258 177.52C135.258 178.224 135.066 178.856 134.682 179.416C134.298 179.96 133.762 180.392 133.074 180.712C132.386 181.032 131.594 181.192 130.698 181.192ZM144.238 174.424C144.238 173.08 144.51 171.904 145.054 170.896C145.598 169.872 146.342 169.088 147.286 168.544C148.246 167.984 149.326 167.704 150.526 167.704C151.678 167.704 152.718 167.984 153.646 168.544C154.574 169.104 155.254 169.832 155.686 170.728V163.24H157.366V181H155.686V178.072C155.286 178.984 154.63 179.736 153.718 180.328C152.806 180.904 151.734 181.192 150.502 181.192C149.302 181.192 148.222 180.912 147.262 180.352C146.318 179.792 145.574 179 145.03 177.976C144.502 176.952 144.238 175.768 144.238 174.424ZM155.686 174.448C155.686 173.392 155.47 172.464 155.038 171.664C154.606 170.864 154.014 170.248 153.262 169.816C152.526 169.384 151.71 169.168 150.814 169.168C149.886 169.168 149.054 169.376 148.318 169.792C147.582 170.208 146.998 170.816 146.566 171.616C146.15 172.4 145.942 173.336 145.942 174.424C145.942 175.496 146.15 176.44 146.566 177.256C146.998 178.056 147.582 178.672 148.318 179.104C149.054 179.52 149.886 179.728 150.814 179.728C151.71 179.728 152.526 179.512 153.262 179.08C154.014 178.648 154.606 178.032 155.038 177.232C155.47 176.432 155.686 175.504 155.686 174.448ZM173.057 173.776C173.057 174.352 173.041 174.792 173.009 175.096H162.137C162.185 176.088 162.425 176.936 162.857 177.64C163.289 178.344 163.857 178.88 164.561 179.248C165.265 179.6 166.033 179.776 166.865 179.776C167.953 179.776 168.865 179.512 169.601 178.984C170.353 178.456 170.849 177.744 171.089 176.848H172.865C172.545 178.128 171.857 179.176 170.801 179.992C169.761 180.792 168.449 181.192 166.865 181.192C165.633 181.192 164.529 180.92 163.553 180.376C162.577 179.816 161.809 179.032 161.249 178.024C160.705 177 160.433 175.808 160.433 174.448C160.433 173.088 160.705 171.896 161.249 170.872C161.793 169.848 162.553 169.064 163.529 168.52C164.505 167.976 165.617 167.704 166.865 167.704C168.113 167.704 169.201 167.976 170.129 168.52C171.073 169.064 171.793 169.8 172.289 170.728C172.801 171.64 173.057 172.656 173.057 173.776ZM171.353 173.728C171.369 172.752 171.169 171.92 170.753 171.232C170.353 170.544 169.801 170.024 169.097 169.672C168.393 169.32 167.625 169.144 166.793 169.144C165.545 169.144 164.481 169.544 163.601 170.344C162.721 171.144 162.233 172.272 162.137 173.728H171.353ZM168.953 164.032L164.033 166.888V165.592L168.953 162.52V164.032ZM177.811 163.24V181H176.131V163.24H177.811ZM182.455 165.424C182.119 165.424 181.831 165.304 181.591 165.064C181.351 164.824 181.231 164.528 181.231 164.176C181.231 163.824 181.351 163.536 181.591 163.312C181.831 163.072 182.119 162.952 182.455 162.952C182.791 162.952 183.079 163.072 183.319 163.312C183.559 163.536 183.679 163.824 183.679 164.176C183.679 164.528 183.559 164.824 183.319 165.064C183.079 165.304 182.791 165.424 182.455 165.424ZM183.295 167.896V181H181.615V167.896H183.295ZM186.332 174.448C186.332 173.088 186.604 171.904 187.148 170.896C187.692 169.872 188.444 169.088 189.404 168.544C190.364 167.984 191.46 167.704 192.692 167.704C194.308 167.704 195.636 168.104 196.676 168.904C197.732 169.704 198.412 170.792 198.716 172.168H196.916C196.692 171.224 196.204 170.488 195.452 169.96C194.716 169.416 193.796 169.144 192.692 169.144C191.812 169.144 191.02 169.344 190.316 169.744C189.612 170.144 189.052 170.744 188.636 171.544C188.236 172.328 188.036 173.296 188.036 174.448C188.036 175.6 188.236 176.576 188.636 177.376C189.052 178.176 189.612 178.776 190.316 179.176C191.02 179.576 191.812 179.776 192.692 179.776C193.796 179.776 194.716 179.512 195.452 178.984C196.204 178.44 196.692 177.688 196.916 176.728H198.716C198.412 178.072 197.732 179.152 196.676 179.968C195.62 180.784 194.292 181.192 192.692 181.192C191.46 181.192 190.364 180.92 189.404 180.376C188.444 179.816 187.692 179.032 187.148 178.024C186.604 177 186.332 175.808 186.332 174.448ZM213.674 173.776C213.674 174.352 213.658 174.792 213.626 175.096H202.754C202.802 176.088 203.042 176.936 203.474 177.64C203.906 178.344 204.474 178.88 205.178 179.248C205.882 179.6 206.65 179.776 207.482 179.776C208.57 179.776 209.482 179.512 210.218 178.984C210.97 178.456 211.466 177.744 211.706 176.848H213.482C213.162 178.128 212.474 179.176 211.418 179.992C210.378 180.792 209.066 181.192 207.482 181.192C206.25 181.192 205.146 180.92 204.17 180.376C203.194 179.816 202.426 179.032 201.866 178.024C201.322 177 201.05 175.808 201.05 174.448C201.05 173.088 201.322 171.896 201.866 170.872C202.41 169.848 203.17 169.064 204.146 168.52C205.122 167.976 206.234 167.704 207.482 167.704C208.73 167.704 209.818 167.976 210.746 168.52C211.69 169.064 212.41 169.8 212.906 170.728C213.418 171.64 213.674 172.656 213.674 173.776ZM211.97 173.728C211.986 172.752 211.786 171.92 211.37 171.232C210.97 170.544 210.418 170.024 209.714 169.672C209.01 169.32 208.242 169.144 207.41 169.144C206.162 169.144 205.098 169.544 204.218 170.344C203.338 171.144 202.85 172.272 202.754 173.728H211.97ZM221.26 181.192C219.756 181.192 218.524 180.848 217.564 180.16C216.62 179.456 216.092 178.504 215.98 177.304H217.708C217.788 178.04 218.132 178.64 218.74 179.104C219.364 179.552 220.196 179.776 221.236 179.776C222.148 179.776 222.86 179.56 223.372 179.128C223.9 178.696 224.164 178.16 224.164 177.52C224.164 177.072 224.02 176.704 223.732 176.416C223.444 176.128 223.076 175.904 222.628 175.744C222.196 175.568 221.604 175.384 220.852 175.192C219.876 174.936 219.084 174.68 218.476 174.424C217.868 174.168 217.348 173.792 216.916 173.296C216.5 172.784 216.292 172.104 216.292 171.256C216.292 170.616 216.484 170.024 216.868 169.48C217.252 168.936 217.796 168.504 218.5 168.184C219.204 167.864 220.004 167.704 220.9 167.704C222.308 167.704 223.444 168.064 224.308 168.784C225.172 169.488 225.636 170.464 225.7 171.712H224.02C223.972 170.944 223.668 170.328 223.108 169.864C222.564 169.384 221.812 169.144 220.852 169.144C220.004 169.144 219.316 169.344 218.788 169.744C218.26 170.144 217.996 170.64 217.996 171.232C217.996 171.744 218.148 172.168 218.452 172.504C218.772 172.824 219.164 173.08 219.628 173.272C220.092 173.448 220.716 173.648 221.5 173.872C222.444 174.128 223.196 174.376 223.756 174.616C224.316 174.856 224.796 175.208 225.196 175.672C225.596 176.136 225.804 176.752 225.82 177.52C225.82 178.224 225.628 178.856 225.244 179.416C224.86 179.96 224.324 180.392 223.636 180.712C222.948 181.032 222.156 181.192 221.26 181.192ZM234.8 174.424C234.8 173.08 235.072 171.904 235.616 170.896C236.16 169.872 236.904 169.088 237.848 168.544C238.808 167.984 239.888 167.704 241.088 167.704C242.32 167.704 243.392 168 244.304 168.592C245.216 169.168 245.864 169.896 246.248 170.776V167.896H247.928V187.192H246.248V178.12C245.864 179 245.208 179.736 244.28 180.328C243.368 180.904 242.288 181.192 241.04 181.192C239.856 181.192 238.784 180.912 237.824 180.352C236.88 179.792 236.136 179 235.592 177.976C235.064 176.952 234.8 175.768 234.8 174.424ZM246.248 174.448C246.248 173.392 246.032 172.464 245.6 171.664C245.168 170.864 244.576 170.248 243.824 169.816C243.088 169.384 242.272 169.168 241.376 169.168C240.448 169.168 239.616 169.376 238.88 169.792C238.144 170.208 237.56 170.816 237.128 171.616C236.712 172.4 236.504 173.336 236.504 174.424C236.504 175.496 236.712 176.44 237.128 177.256C237.56 178.056 238.144 178.672 238.88 179.104C239.616 179.52 240.448 179.728 241.376 179.728C242.272 179.728 243.088 179.512 243.824 179.08C244.576 178.648 245.168 178.032 245.6 177.232C246.032 176.432 246.248 175.504 246.248 174.448ZM263.116 167.896V181H261.436V178.696C261.052 179.512 260.46 180.136 259.66 180.568C258.86 181 257.964 181.216 256.972 181.216C255.404 181.216 254.124 180.736 253.132 179.776C252.14 178.8 251.644 177.392 251.644 175.552V167.896H253.3V175.36C253.3 176.784 253.652 177.872 254.356 178.624C255.076 179.376 256.052 179.752 257.284 179.752C258.548 179.752 259.556 179.352 260.308 178.552C261.06 177.752 261.436 176.576 261.436 175.024V167.896H263.116ZM267.791 165.424C267.455 165.424 267.167 165.304 266.927 165.064C266.687 164.824 266.567 164.528 266.567 164.176C266.567 163.824 266.687 163.536 266.927 163.312C267.167 163.072 267.455 162.952 267.791 162.952C268.127 162.952 268.415 163.072 268.655 163.312C268.895 163.536 269.015 163.824 269.015 164.176C269.015 164.528 268.895 164.824 268.655 165.064C268.415 165.304 268.127 165.424 267.791 165.424ZM268.631 167.896V181H266.951V167.896H268.631ZM283.678 179.368L288.094 167.896H289.87L284.614 181H282.718L277.462 167.896H279.262L283.678 179.368ZM297.883 181.192C296.651 181.192 295.539 180.92 294.547 180.376C293.571 179.816 292.795 179.032 292.219 178.024C291.659 177 291.379 175.808 291.379 174.448C291.379 173.088 291.667 171.904 292.243 170.896C292.819 169.872 293.603 169.088 294.595 168.544C295.587 167.984 296.699 167.704 297.931 167.704C299.163 167.704 300.275 167.984 301.267 168.544C302.275 169.088 303.059 169.872 303.619 170.896C304.195 171.904 304.483 173.088 304.483 174.448C304.483 175.792 304.195 176.976 303.619 178C303.043 179.024 302.251 179.816 301.243 180.376C300.235 180.92 299.115 181.192 297.883 181.192ZM297.883 179.728C298.747 179.728 299.547 179.536 300.283 179.152C301.019 178.752 301.611 178.16 302.059 177.376C302.523 176.576 302.755 175.6 302.755 174.448C302.755 173.296 302.531 172.328 302.083 171.544C301.635 170.744 301.043 170.152 300.307 169.768C299.571 169.368 298.771 169.168 297.907 169.168C297.043 169.168 296.243 169.368 295.507 169.768C294.771 170.152 294.179 170.744 293.731 171.544C293.299 172.328 293.083 173.296 293.083 174.448C293.083 175.6 293.299 176.576 293.731 177.376C294.179 178.16 294.763 178.752 295.483 179.152C296.219 179.536 297.019 179.728 297.883 179.728ZM318.897 167.896V181H317.217V178.696C316.833 179.512 316.241 180.136 315.441 180.568C314.641 181 313.745 181.216 312.753 181.216C311.185 181.216 309.905 180.736 308.913 179.776C307.921 178.8 307.425 177.392 307.425 175.552V167.896H309.081V175.36C309.081 176.784 309.433 177.872 310.137 178.624C310.857 179.376 311.833 179.752 313.065 179.752C314.329 179.752 315.337 179.352 316.089 178.552C316.841 177.752 317.217 176.576 317.217 175.024V167.896H318.897ZM327.245 181.192C325.741 181.192 324.509 180.848 323.549 180.16C322.605 179.456 322.077 178.504 321.965 177.304H323.693C323.773 178.04 324.117 178.64 324.725 179.104C325.349 179.552 326.181 179.776 327.221 179.776C328.133 179.776 328.845 179.56 329.357 179.128C329.885 178.696 330.149 178.16 330.149 177.52C330.149 177.072 330.005 176.704 329.717 176.416C329.429 176.128 329.061 175.904 328.613 175.744C328.181 175.568 327.589 175.384 326.837 175.192C325.861 174.936 325.069 174.68 324.461 174.424C323.853 174.168 323.333 173.792 322.901 173.296C322.485 172.784 322.277 172.104 322.277 171.256C322.277 170.616 322.469 170.024 322.853 169.48C323.237 168.936 323.781 168.504 324.485 168.184C325.189 167.864 325.989 167.704 326.885 167.704C328.293 167.704 329.429 168.064 330.293 168.784C331.157 169.488 331.621 170.464 331.685 171.712H330.005C329.957 170.944 329.653 170.328 329.093 169.864C328.549 169.384 327.797 169.144 326.837 169.144C325.989 169.144 325.301 169.344 324.773 169.744C324.245 170.144 323.98 170.64 323.98 171.232C323.98 171.744 324.133 172.168 324.437 172.504C324.757 172.824 325.149 173.08 325.613 173.272C326.077 173.448 326.701 173.648 327.485 173.872C328.429 174.128 329.181 174.376 329.741 174.616C330.301 174.856 330.781 175.208 331.181 175.672C331.581 176.136 331.789 176.752 331.805 177.52C331.805 178.224 331.613 178.856 331.229 179.416C330.845 179.96 330.309 180.392 329.621 180.712C328.933 181.032 328.141 181.192 327.245 181.192ZM353.409 173.776C353.409 174.352 353.393 174.792 353.361 175.096H342.489C342.537 176.088 342.777 176.936 343.209 177.64C343.641 178.344 344.209 178.88 344.913 179.248C345.617 179.6 346.385 179.776 347.217 179.776C348.305 179.776 349.217 179.512 349.953 178.984C350.705 178.456 351.201 177.744 351.441 176.848H353.217C352.897 178.128 352.209 179.176 351.153 179.992C350.113 180.792 348.801 181.192 347.217 181.192C345.985 181.192 344.881 180.92 343.905 180.376C342.929 179.816 342.161 179.032 341.601 178.024C341.057 177 340.785 175.808 340.785 174.448C340.785 173.088 341.057 171.896 341.601 170.872C342.145 169.848 342.905 169.064 343.881 168.52C344.857 167.976 345.969 167.704 347.217 167.704C348.465 167.704 349.553 167.976 350.481 168.52C351.425 169.064 352.145 169.8 352.641 170.728C353.153 171.64 353.409 172.656 353.409 173.776ZM351.705 173.728C351.721 172.752 351.521 171.92 351.105 171.232C350.705 170.544 350.153 170.024 349.449 169.672C348.745 169.32 347.977 169.144 347.145 169.144C345.897 169.144 344.833 169.544 343.953 170.344C343.073 171.144 342.585 172.272 342.489 173.728H351.705ZM362.627 167.656C364.195 167.656 365.475 168.144 366.467 169.12C367.459 170.08 367.955 171.48 367.955 173.32V181H366.299V173.512C366.299 172.088 365.939 171 365.219 170.248C364.515 169.496 363.547 169.12 362.315 169.12C361.051 169.12 360.043 169.52 359.291 170.32C358.539 171.12 358.163 172.296 358.163 173.848V181H356.483V167.896H358.163V170.128C358.579 169.328 359.179 168.72 359.963 168.304C360.747 167.872 361.635 167.656 362.627 167.656ZM373.854 169.312V177.448C373.854 178.248 374.006 178.8 374.31 179.104C374.614 179.408 375.15 179.56 375.918 179.56H377.454V181H375.654C374.47 181 373.59 180.728 373.014 180.184C372.438 179.624 372.15 178.712 372.15 177.448V169.312H370.326V167.896H372.15V164.608H373.854V167.896H377.454V169.312H373.854ZM385.961 181.192C384.729 181.192 383.617 180.92 382.625 180.376C381.649 179.816 380.873 179.032 380.297 178.024C379.737 177 379.457 175.808 379.457 174.448C379.457 173.088 379.745 171.904 380.321 170.896C380.897 169.872 381.681 169.088 382.673 168.544C383.665 167.984 384.777 167.704 386.009 167.704C387.241 167.704 388.353 167.984 389.345 168.544C390.353 169.088 391.137 169.872 391.697 170.896C392.273 171.904 392.561 173.088 392.561 174.448C392.561 175.792 392.273 176.976 391.697 178C391.121 179.024 390.329 179.816 389.321 180.376C388.313 180.92 387.193 181.192 385.961 181.192ZM385.961 179.728C386.825 179.728 387.625 179.536 388.361 179.152C389.097 178.752 389.689 178.16 390.137 177.376C390.601 176.576 390.833 175.6 390.833 174.448C390.833 173.296 390.609 172.328 390.161 171.544C389.713 170.744 389.121 170.152 388.385 169.768C387.649 169.368 386.849 169.168 385.985 169.168C385.121 169.168 384.321 169.368 383.585 169.768C382.849 170.152 382.257 170.744 381.809 171.544C381.377 172.328 381.161 173.296 381.161 174.448C381.161 175.6 381.377 176.576 381.809 177.376C382.257 178.16 382.841 178.752 383.561 179.152C384.297 179.536 385.097 179.728 385.961 179.728ZM406.975 167.896V181H405.295V178.696C404.911 179.512 404.319 180.136 403.519 180.568C402.719 181 401.823 181.216 400.831 181.216C399.263 181.216 397.983 180.736 396.991 179.776C395.999 178.8 395.503 177.392 395.503 175.552V167.896H397.159V175.36C397.159 176.784 397.511 177.872 398.215 178.624C398.935 179.376 399.911 179.752 401.143 179.752C402.407 179.752 403.415 179.352 404.167 178.552C404.919 177.752 405.295 176.576 405.295 175.024V167.896H406.975ZM412.491 170.224C412.859 169.408 413.419 168.776 414.171 168.328C414.939 167.88 415.875 167.656 416.979 167.656V169.408H416.523C415.307 169.408 414.331 169.736 413.595 170.392C412.859 171.048 412.491 172.144 412.491 173.68V181H410.811V167.896H412.491V170.224ZM431.362 173.776C431.362 174.352 431.346 174.792 431.314 175.096H420.442C420.49 176.088 420.73 176.936 421.162 177.64C421.594 178.344 422.162 178.88 422.866 179.248C423.57 179.6 424.338 179.776 425.17 179.776C426.258 179.776 427.17 179.512 427.906 178.984C428.658 178.456 429.154 177.744 429.394 176.848H431.17C430.85 178.128 430.162 179.176 429.106 179.992C428.066 180.792 426.754 181.192 425.17 181.192C423.938 181.192 422.834 180.92 421.858 180.376C420.882 179.816 420.114 179.032 419.554 178.024C419.01 177 418.738 175.808 418.738 174.448C418.738 173.088 419.01 171.896 419.554 170.872C420.098 169.848 420.858 169.064 421.834 168.52C422.81 167.976 423.922 167.704 425.17 167.704C426.418 167.704 427.506 167.976 428.434 168.52C429.378 169.064 430.098 169.8 430.594 170.728C431.106 171.64 431.362 172.656 431.362 173.776ZM429.658 173.728C429.674 172.752 429.474 171.92 429.058 171.232C428.658 170.544 428.106 170.024 427.402 169.672C426.698 169.32 425.93 169.144 425.098 169.144C423.85 169.144 422.786 169.544 421.906 170.344C421.026 171.144 420.538 172.272 420.442 173.728H429.658ZM440.58 167.656C442.148 167.656 443.428 168.144 444.42 169.12C445.412 170.08 445.908 171.48 445.908 173.32V181H444.252V173.512C444.252 172.088 443.892 171 443.172 170.248C442.468 169.496 441.5 169.12 440.268 169.12C439.004 169.12 437.996 169.52 437.244 170.32C436.492 171.12 436.116 172.296 436.116 173.848V181H434.436V167.896H436.116V170.128C436.532 169.328 437.132 168.72 437.916 168.304C438.7 167.872 439.588 167.656 440.58 167.656ZM451.807 169.312V177.448C451.807 178.248 451.959 178.8 452.263 179.104C452.567 179.408 453.103 179.56 453.871 179.56H455.407V181H453.607C452.423 181 451.543 180.728 450.967 180.184C450.391 179.624 450.103 178.712 450.103 177.448V169.312H448.279V167.896H450.103V164.608H451.807V167.896H455.407V169.312H451.807ZM458.466 181.12C458.114 181.12 457.818 181 457.578 180.76C457.354 180.52 457.242 180.224 457.242 179.872C457.242 179.52 457.354 179.232 457.578 179.008C457.818 178.768 458.114 178.648 458.466 178.648C458.802 178.648 459.082 178.768 459.306 179.008C459.546 179.232 459.666 179.52 459.666 179.872C459.666 180.224 459.546 180.52 459.306 180.76C459.082 181 458.802 181.12 458.466 181.12ZM478.939 164.224V165.616H474.283V181H472.603V165.616H467.923V164.224H478.939ZM483.272 170.224C483.64 169.408 484.2 168.776 484.952 168.328C485.72 167.88 486.656 167.656 487.76 167.656V169.408H487.304C486.088 169.408 485.112 169.736 484.376 170.392C483.64 171.048 483.272 172.144 483.272 173.68V181H481.592V167.896H483.272V170.224ZM496.023 181.192C494.791 181.192 493.679 180.92 492.687 180.376C491.711 179.816 490.935 179.032 490.359 178.024C489.799 177 489.519 175.808 489.519 174.448C489.519 173.088 489.807 171.904 490.383 170.896C490.959 169.872 491.743 169.088 492.735 168.544C493.727 167.984 494.839 167.704 496.071 167.704C497.303 167.704 498.415 167.984 499.407 168.544C500.415 169.088 501.199 169.872 501.759 170.896C502.335 171.904 502.623 173.088 502.623 174.448C502.623 175.792 502.335 176.976 501.759 178C501.183 179.024 500.391 179.816 499.383 180.376C498.375 180.92 497.255 181.192 496.023 181.192ZM496.023 179.728C496.887 179.728 497.687 179.536 498.423 179.152C499.159 178.752 499.751 178.16 500.199 177.376C500.663 176.576 500.895 175.6 500.895 174.448C500.895 173.296 500.671 172.328 500.223 171.544C499.775 170.744 499.183 170.152 498.447 169.768C497.711 169.368 496.911 169.168 496.047 169.168C495.183 169.168 494.383 169.368 493.647 169.768C492.911 170.152 492.319 170.744 491.871 171.544C491.439 172.328 491.223 173.296 491.223 174.448C491.223 175.6 491.439 176.576 491.871 177.376C492.319 178.16 492.903 178.752 493.623 179.152C494.359 179.536 495.159 179.728 496.023 179.728ZM517.038 167.896V181H515.358V178.696C514.974 179.512 514.382 180.136 513.582 180.568C512.782 181 511.886 181.216 510.894 181.216C509.326 181.216 508.046 180.736 507.054 179.776C506.062 178.8 505.566 177.392 505.566 175.552V167.896H507.222V175.36C507.222 176.784 507.574 177.872 508.278 178.624C508.998 179.376 509.974 179.752 511.206 179.752C512.47 179.752 513.478 179.352 514.23 178.552C514.982 177.752 515.358 176.576 515.358 175.024V167.896H517.038ZM525.529 179.368L529.945 167.896H531.721L526.465 181H524.569L519.313 167.896H521.113L525.529 179.368ZM545.854 173.776C545.854 174.352 545.838 174.792 545.806 175.096H534.934C534.982 176.088 535.222 176.936 535.654 177.64C536.086 178.344 536.654 178.88 537.358 179.248C538.062 179.6 538.83 179.776 539.662 179.776C540.75 179.776 541.662 179.512 542.398 178.984C543.15 178.456 543.646 177.744 543.886 176.848H545.662C545.342 178.128 544.654 179.176 543.598 179.992C542.558 180.792 541.246 181.192 539.662 181.192C538.43 181.192 537.326 180.92 536.35 180.376C535.374 179.816 534.606 179.032 534.046 178.024C533.502 177 533.23 175.808 533.23 174.448C533.23 173.088 533.502 171.896 534.046 170.872C534.59 169.848 535.35 169.064 536.326 168.52C537.302 167.976 538.414 167.704 539.662 167.704C540.91 167.704 541.998 167.976 542.926 168.52C543.87 169.064 544.59 169.8 545.086 170.728C545.598 171.64 545.854 172.656 545.854 173.776ZM544.15 173.728C544.166 172.752 543.966 171.92 543.55 171.232C543.15 170.544 542.598 170.024 541.894 169.672C541.19 169.32 540.422 169.144 539.59 169.144C538.342 169.144 537.278 169.544 536.398 170.344C535.518 171.144 535.03 172.272 534.934 173.728H544.15ZM549.816 179.608H556.68V181H547.896V179.608L554.64 169.288H548.016V167.896H556.56V169.288L549.816 179.608ZM1.152 210.448C1.152 209.088 1.424 207.904 1.968 206.896C2.512 205.872 3.264 205.088 4.224 204.544C5.184 203.984 6.28 203.704 7.512 203.704C9.128 203.704 10.456 204.104 11.496 204.904C12.552 205.704 13.232 206.792 13.536 208.168H11.736C11.512 207.224 11.024 206.488 10.272 205.96C9.536 205.416 8.616 205.144 7.512 205.144C6.632 205.144 5.84 205.344 5.136 205.744C4.432 206.144 3.872 206.744 3.456 207.544C3.056 208.328 2.856 209.296 2.856 210.448C2.856 211.6 3.056 212.576 3.456 213.376C3.872 214.176 4.432 214.776 5.136 215.176C5.84 215.576 6.632 215.776 7.512 215.776C8.616 215.776 9.536 215.512 10.272 214.984C11.024 214.44 11.512 213.688 11.736 212.728H13.536C13.232 214.072 12.552 215.152 11.496 215.968C10.44 216.784 9.112 217.192 7.512 217.192C6.28 217.192 5.184 216.92 4.224 216.376C3.264 215.816 2.512 215.032 1.968 214.024C1.424 213 1.152 211.808 1.152 210.448ZM28.4948 209.776C28.4948 210.352 28.4788 210.792 28.4468 211.096H17.5748C17.6228 212.088 17.8628 212.936 18.2948 213.64C18.7268 214.344 19.2948 214.88 19.9988 215.248C20.7028 215.6 21.4708 215.776 22.3028 215.776C23.3908 215.776 24.3028 215.512 25.0388 214.984C25.7908 214.456 26.2868 213.744 26.5268 212.848H28.3028C27.9828 214.128 27.2948 215.176 26.2388 215.992C25.1988 216.792 23.8868 217.192 22.3028 217.192C21.0708 217.192 19.9668 216.92 18.9908 216.376C18.0148 215.816 17.2468 215.032 16.6868 214.024C16.1428 213 15.8708 211.808 15.8708 210.448C15.8708 209.088 16.1428 207.896 16.6868 206.872C17.2308 205.848 17.9908 205.064 18.9668 204.52C19.9428 203.976 21.0548 203.704 22.3028 203.704C23.5508 203.704 24.6388 203.976 25.5668 204.52C26.5108 205.064 27.2308 205.8 27.7268 206.728C28.2388 207.64 28.4948 208.656 28.4948 209.776ZM26.7908 209.728C26.8068 208.752 26.6068 207.92 26.1908 207.232C25.7908 206.544 25.2388 206.024 24.5348 205.672C23.8308 205.32 23.0628 205.144 22.2308 205.144C20.9828 205.144 19.9188 205.544 19.0388 206.344C18.1588 207.144 17.6708 208.272 17.5748 209.728H26.7908ZM37.3864 210.424C37.3864 209.08 37.6584 207.904 38.2024 206.896C38.7464 205.872 39.4904 205.088 40.4344 204.544C41.3944 203.984 42.4744 203.704 43.6744 203.704C44.9064 203.704 45.9784 204 46.8904 204.592C47.8024 205.168 48.4504 205.896 48.8344 206.776V203.896H50.5144V223.192H48.8344V214.12C48.4504 215 47.7944 215.736 46.8664 216.328C45.9544 216.904 44.8744 217.192 43.6264 217.192C42.4424 217.192 41.3704 216.912 40.4104 216.352C39.4664 215.792 38.7224 215 38.1784 213.976C37.6504 212.952 37.3864 211.768 37.3864 210.424ZM48.8344 210.448C48.8344 209.392 48.6184 208.464 48.1864 207.664C47.7544 206.864 47.1624 206.248 46.4104 205.816C45.6744 205.384 44.8584 205.168 43.9624 205.168C43.0344 205.168 42.2024 205.376 41.4664 205.792C40.7304 206.208 40.1464 206.816 39.7144 207.616C39.2984 208.4 39.0904 209.336 39.0904 210.424C39.0904 211.496 39.2984 212.44 39.7144 213.256C40.1464 214.056 40.7304 214.672 41.4664 215.104C42.2024 215.52 43.0344 215.728 43.9624 215.728C44.8584 215.728 45.6744 215.512 46.4104 215.08C47.1624 214.648 47.7544 214.032 48.1864 213.232C48.6184 212.432 48.8344 211.504 48.8344 210.448ZM65.7017 203.896V217H64.0217V214.696C63.6377 215.512 63.0457 216.136 62.2457 216.568C61.4457 217 60.5497 217.216 59.5577 217.216C57.9897 217.216 56.7097 216.736 55.7177 215.776C54.7257 214.8 54.2297 213.392 54.2297 211.552V203.896H55.8857V211.36C55.8857 212.784 56.2377 213.872 56.9417 214.624C57.6617 215.376 58.6377 215.752 59.8697 215.752C61.1337 215.752 62.1417 215.352 62.8937 214.552C63.6457 213.752 64.0217 212.576 64.0217 211.024V203.896H65.7017ZM81.3932 209.776C81.3932 210.352 81.3772 210.792 81.3452 211.096H70.4732C70.5212 212.088 70.7612 212.936 71.1932 213.64C71.6252 214.344 72.1932 214.88 72.8972 215.248C73.6012 215.6 74.3692 215.776 75.2012 215.776C76.2892 215.776 77.2012 215.512 77.9372 214.984C78.6892 214.456 79.1852 213.744 79.4252 212.848H81.2012C80.8812 214.128 80.1932 215.176 79.1372 215.992C78.0972 216.792 76.7852 217.192 75.2012 217.192C73.9692 217.192 72.8652 216.92 71.8892 216.376C70.9132 215.816 70.1452 215.032 69.5852 214.024C69.0412 213 68.7692 211.808 68.7692 210.448C68.7692 209.088 69.0412 207.896 69.5852 206.872C70.1292 205.848 70.8892 205.064 71.8652 204.52C72.8412 203.976 73.9532 203.704 75.2012 203.704C76.4492 203.704 77.5372 203.976 78.4652 204.52C79.4092 205.064 80.1292 205.8 80.6252 206.728C81.1372 207.64 81.3932 208.656 81.3932 209.776ZM79.6892 209.728C79.7052 208.752 79.5052 207.92 79.0892 207.232C78.6892 206.544 78.1372 206.024 77.4332 205.672C76.7292 205.32 75.9612 205.144 75.1292 205.144C73.8812 205.144 72.8172 205.544 71.9372 206.344C71.0572 207.144 70.5692 208.272 70.4732 209.728H79.6892ZM95.7088 215.368L100.125 203.896H101.901L96.6448 217H94.7488L89.4928 203.896H91.2928L95.7088 215.368ZM109.914 217.192C108.682 217.192 107.57 216.92 106.578 216.376C105.602 215.816 104.826 215.032 104.25 214.024C103.69 213 103.41 211.808 103.41 210.448C103.41 209.088 103.698 207.904 104.274 206.896C104.85 205.872 105.634 205.088 106.626 204.544C107.618 203.984 108.73 203.704 109.962 203.704C111.194 203.704 112.306 203.984 113.298 204.544C114.306 205.088 115.09 205.872 115.65 206.896C116.226 207.904 116.514 209.088 116.514 210.448C116.514 211.792 116.226 212.976 115.65 214C115.074 215.024 114.282 215.816 113.274 216.376C112.266 216.92 111.146 217.192 109.914 217.192ZM109.914 215.728C110.778 215.728 111.578 215.536 112.314 215.152C113.05 214.752 113.642 214.16 114.09 213.376C114.554 212.576 114.786 211.6 114.786 210.448C114.786 209.296 114.562 208.328 114.114 207.544C113.666 206.744 113.074 206.152 112.338 205.768C111.602 205.368 110.802 205.168 109.938 205.168C109.074 205.168 108.274 205.368 107.538 205.768C106.802 206.152 106.21 206.744 105.762 207.544C105.33 208.328 105.114 209.296 105.114 210.448C105.114 211.6 105.33 212.576 105.762 213.376C106.21 214.16 106.794 214.752 107.514 215.152C108.25 215.536 109.05 215.728 109.914 215.728ZM130.928 203.896V217H129.248V214.696C128.864 215.512 128.272 216.136 127.472 216.568C126.672 217 125.776 217.216 124.784 217.216C123.216 217.216 121.936 216.736 120.944 215.776C119.952 214.8 119.456 213.392 119.456 211.552V203.896H121.112V211.36C121.112 212.784 121.464 213.872 122.168 214.624C122.888 215.376 123.864 215.752 125.096 215.752C126.36 215.752 127.368 215.352 128.12 214.552C128.872 213.752 129.248 212.576 129.248 211.024V203.896H130.928ZM139.276 217.192C137.772 217.192 136.54 216.848 135.58 216.16C134.636 215.456 134.108 214.504 133.996 213.304H135.724C135.804 214.04 136.148 214.64 136.756 215.104C137.38 215.552 138.212 215.776 139.252 215.776C140.164 215.776 140.876 215.56 141.388 215.128C141.916 214.696 142.18 214.16 142.18 213.52C142.18 213.072 142.036 212.704 141.748 212.416C141.46 212.128 141.092 211.904 140.644 211.744C140.212 211.568 139.62 211.384 138.868 211.192C137.892 210.936 137.1 210.68 136.492 210.424C135.884 210.168 135.364 209.792 134.932 209.296C134.516 208.784 134.308 208.104 134.308 207.256C134.308 206.616 134.5 206.024 134.884 205.48C135.268 204.936 135.812 204.504 136.516 204.184C137.22 203.864 138.02 203.704 138.916 203.704C140.324 203.704 141.46 204.064 142.324 204.784C143.188 205.488 143.652 206.464 143.716 207.712H142.036C141.988 206.944 141.684 206.328 141.124 205.864C140.58 205.384 139.828 205.144 138.868 205.144C138.02 205.144 137.332 205.344 136.804 205.744C136.276 206.144 136.012 206.64 136.012 207.232C136.012 207.744 136.164 208.168 136.468 208.504C136.788 208.824 137.18 209.08 137.644 209.272C138.108 209.448 138.732 209.648 139.516 209.872C140.46 210.128 141.212 210.376 141.772 210.616C142.332 210.856 142.812 211.208 143.212 211.672C143.612 212.136 143.82 212.752 143.836 213.52C143.836 214.224 143.644 214.856 143.26 215.416C142.876 215.96 142.34 216.392 141.652 216.712C140.964 217.032 140.172 217.192 139.276 217.192ZM152.816 210.424C152.816 209.08 153.08 207.904 153.608 206.896C154.152 205.872 154.896 205.088 155.84 204.544C156.8 203.984 157.88 203.704 159.08 203.704C160.328 203.704 161.4 203.992 162.296 204.568C163.208 205.144 163.864 205.88 164.264 206.776V203.896H165.944V217H164.264V214.096C163.848 214.992 163.184 215.736 162.272 216.328C161.376 216.904 160.304 217.192 159.056 217.192C157.872 217.192 156.8 216.912 155.84 216.352C154.896 215.792 154.152 215 153.608 213.976C153.08 212.952 152.816 211.768 152.816 210.424ZM164.264 210.448C164.264 209.392 164.048 208.464 163.616 207.664C163.184 206.864 162.592 206.248 161.84 205.816C161.104 205.384 160.288 205.168 159.392 205.168C158.464 205.168 157.632 205.376 156.896 205.792C156.16 206.208 155.576 206.816 155.144 207.616C154.728 208.4 154.52 209.336 154.52 210.424C154.52 211.496 154.728 212.44 155.144 213.256C155.576 214.056 156.16 214.672 156.896 215.104C157.632 215.52 158.464 215.728 159.392 215.728C160.288 215.728 161.104 215.512 161.84 215.08C162.592 214.648 163.184 214.032 163.616 213.232C164.048 212.432 164.264 211.504 164.264 210.448ZM170.619 201.424C170.283 201.424 169.995 201.304 169.755 201.064C169.515 200.824 169.395 200.528 169.395 200.176C169.395 199.824 169.515 199.536 169.755 199.312C169.995 199.072 170.283 198.952 170.619 198.952C170.955 198.952 171.243 199.072 171.483 199.312C171.723 199.536 171.843 199.824 171.843 200.176C171.843 200.528 171.723 200.824 171.483 201.064C171.243 201.304 170.955 201.424 170.619 201.424ZM171.459 203.896V217H169.779V203.896H171.459ZM190.864 203.656C192.4 203.656 193.648 204.144 194.608 205.12C195.584 206.08 196.072 207.48 196.072 209.32V217H194.416V209.512C194.416 208.088 194.072 207 193.384 206.248C192.696 205.496 191.76 205.12 190.576 205.12C189.344 205.12 188.36 205.528 187.624 206.344C186.888 207.16 186.52 208.344 186.52 209.896V217H184.864V209.512C184.864 208.088 184.52 207 183.832 206.248C183.144 205.496 182.2 205.12 181 205.12C179.768 205.12 178.784 205.528 178.048 206.344C177.312 207.16 176.944 208.344 176.944 209.896V217H175.264V203.896H176.944V206.152C177.36 205.336 177.952 204.72 178.72 204.304C179.488 203.872 180.344 203.656 181.288 203.656C182.424 203.656 183.416 203.928 184.264 204.472C185.128 205.016 185.752 205.816 186.136 206.872C186.488 205.832 187.088 205.04 187.936 204.496C188.8 203.936 189.776 203.656 190.864 203.656ZM211.659 209.776C211.659 210.352 211.643 210.792 211.611 211.096H200.739C200.787 212.088 201.027 212.936 201.459 213.64C201.891 214.344 202.459 214.88 203.163 215.248C203.867 215.6 204.635 215.776 205.467 215.776C206.555 215.776 207.467 215.512 208.203 214.984C208.955 214.456 209.451 213.744 209.691 212.848H211.467C211.147 214.128 210.459 215.176 209.403 215.992C208.363 216.792 207.051 217.192 205.467 217.192C204.235 217.192 203.131 216.92 202.155 216.376C201.179 215.816 200.411 215.032 199.851 214.024C199.307 213 199.035 211.808 199.035 210.448C199.035 209.088 199.307 207.896 199.851 206.872C200.395 205.848 201.155 205.064 202.131 204.52C203.107 203.976 204.219 203.704 205.467 203.704C206.715 203.704 207.803 203.976 208.731 204.52C209.675 205.064 210.395 205.8 210.891 206.728C211.403 207.64 211.659 208.656 211.659 209.776ZM209.955 209.728C209.971 208.752 209.771 207.92 209.355 207.232C208.955 206.544 208.403 206.024 207.699 205.672C206.995 205.32 206.227 205.144 205.395 205.144C204.147 205.144 203.083 205.544 202.203 206.344C201.323 207.144 200.835 208.272 200.739 209.728H209.955ZM215.621 215.608H222.485V217H213.701V215.608L220.445 205.288H213.821V203.896H222.365V205.288L215.621 215.608ZM243.768 209.776C243.768 210.352 243.752 210.792 243.72 211.096H232.848C232.896 212.088 233.136 212.936 233.568 213.64C234 214.344 234.568 214.88 235.272 215.248C235.976 215.6 236.744 215.776 237.576 215.776C238.664 215.776 239.576 215.512 240.312 214.984C241.064 214.456 241.56 213.744 241.8 212.848H243.576C243.256 214.128 242.568 215.176 241.512 215.992C240.472 216.792 239.16 217.192 237.576 217.192C236.344 217.192 235.24 216.92 234.264 216.376C233.288 215.816 232.52 215.032 231.96 214.024C231.416 213 231.144 211.808 231.144 210.448C231.144 209.088 231.416 207.896 231.96 206.872C232.504 205.848 233.264 205.064 234.24 204.52C235.216 203.976 236.328 203.704 237.576 203.704C238.824 203.704 239.912 203.976 240.84 204.52C241.784 205.064 242.504 205.8 243 206.728C243.512 207.64 243.768 208.656 243.768 209.776ZM242.064 209.728C242.08 208.752 241.88 207.92 241.464 207.232C241.064 206.544 240.512 206.024 239.808 205.672C239.104 205.32 238.336 205.144 237.504 205.144C236.256 205.144 235.192 205.544 234.312 206.344C233.432 207.144 232.944 208.272 232.848 209.728H242.064ZM249.026 205.312V213.448C249.026 214.248 249.178 214.8 249.482 215.104C249.786 215.408 250.322 215.56 251.09 215.56H252.626V217H250.826C249.642 217 248.762 216.728 248.186 216.184C247.61 215.624 247.322 214.712 247.322 213.448V205.312H245.498V203.896H247.322V200.608H249.026V203.896H252.626V205.312H249.026ZM267.143 205.312H264.095V217H262.415V205.312H260.591V203.896H262.415V202.984C262.415 201.56 262.775 200.512 263.495 199.84C264.231 199.168 265.415 198.832 267.047 198.832V200.272C265.959 200.272 265.191 200.48 264.743 200.896C264.311 201.312 264.095 202.008 264.095 202.984V203.896H267.143V205.312ZM269.019 210.424C269.019 209.08 269.283 207.904 269.811 206.896C270.355 205.872 271.099 205.088 272.043 204.544C273.003 203.984 274.083 203.704 275.283 203.704C276.531 203.704 277.603 203.992 278.499 204.568C279.411 205.144 280.067 205.88 280.467 206.776V203.896H282.147V217H280.467V214.096C280.051 214.992 279.387 215.736 278.475 216.328C277.579 216.904 276.507 217.192 275.259 217.192C274.075 217.192 273.003 216.912 272.043 216.352C271.099 215.792 270.355 215 269.811 213.976C269.283 212.952 269.019 211.768 269.019 210.424ZM280.467 210.448C280.467 209.392 280.251 208.464 279.819 207.664C279.387 206.864 278.795 206.248 278.043 205.816C277.307 205.384 276.491 205.168 275.595 205.168C274.667 205.168 273.835 205.376 273.099 205.792C272.363 206.208 271.779 206.816 271.347 207.616C270.931 208.4 270.723 209.336 270.723 210.424C270.723 211.496 270.931 212.44 271.347 213.256C271.779 214.056 272.363 214.672 273.099 215.104C273.835 215.52 274.667 215.728 275.595 215.728C276.491 215.728 277.307 215.512 278.043 215.08C278.795 214.648 279.387 214.032 279.819 213.232C280.251 212.432 280.467 211.504 280.467 210.448ZM286.823 201.424C286.487 201.424 286.199 201.304 285.959 201.064C285.719 200.824 285.599 200.528 285.599 200.176C285.599 199.824 285.719 199.536 285.959 199.312C286.199 199.072 286.487 198.952 286.823 198.952C287.159 198.952 287.447 199.072 287.687 199.312C287.927 199.536 288.047 199.824 288.047 200.176C288.047 200.528 287.927 200.824 287.687 201.064C287.447 201.304 287.159 201.424 286.823 201.424ZM287.663 203.896V217H285.983V203.896H287.663ZM293.651 205.312V213.448C293.651 214.248 293.803 214.8 294.107 215.104C294.411 215.408 294.947 215.56 295.715 215.56H297.251V217H295.451C294.267 217 293.387 216.728 292.811 216.184C292.235 215.624 291.947 214.712 291.947 213.448V205.312H290.123V203.896H291.947V200.608H293.651V203.896H297.251V205.312H293.651ZM311.878 209.776C311.878 210.352 311.862 210.792 311.83 211.096H300.958C301.006 212.088 301.246 212.936 301.678 213.64C302.11 214.344 302.678 214.88 303.382 215.248C304.086 215.6 304.854 215.776 305.686 215.776C306.774 215.776 307.686 215.512 308.422 214.984C309.174 214.456 309.67 213.744 309.91 212.848H311.686C311.366 214.128 310.678 215.176 309.622 215.992C308.582 216.792 307.27 217.192 305.686 217.192C304.454 217.192 303.35 216.92 302.374 216.376C301.398 215.816 300.63 215.032 300.07 214.024C299.526 213 299.254 211.808 299.254 210.448C299.254 209.088 299.526 207.896 300.07 206.872C300.614 205.848 301.374 205.064 302.35 204.52C303.326 203.976 304.438 203.704 305.686 203.704C306.934 203.704 308.022 203.976 308.95 204.52C309.894 205.064 310.614 205.8 311.11 206.728C311.622 207.64 311.878 208.656 311.878 209.776ZM310.174 209.728C310.19 208.752 309.99 207.92 309.574 207.232C309.174 206.544 308.622 206.024 307.918 205.672C307.214 205.32 306.446 205.144 305.614 205.144C304.366 205.144 303.302 205.544 302.422 206.344C301.542 207.144 301.054 208.272 300.958 209.728H310.174ZM319.463 217.192C317.959 217.192 316.727 216.848 315.767 216.16C314.823 215.456 314.295 214.504 314.183 213.304H315.911C315.991 214.04 316.335 214.64 316.943 215.104C317.567 215.552 318.399 215.776 319.439 215.776C320.351 215.776 321.063 215.56 321.575 215.128C322.103 214.696 322.367 214.16 322.367 213.52C322.367 213.072 322.223 212.704 321.935 212.416C321.647 212.128 321.279 211.904 320.831 211.744C320.399 211.568 319.807 211.384 319.055 211.192C318.079 210.936 317.287 210.68 316.679 210.424C316.071 210.168 315.551 209.792 315.119 209.296C314.703 208.784 314.495 208.104 314.495 207.256C314.495 206.616 314.687 206.024 315.071 205.48C315.455 204.936 315.999 204.504 316.703 204.184C317.407 203.864 318.207 203.704 319.103 203.704C320.511 203.704 321.647 204.064 322.511 204.784C323.375 205.488 323.839 206.464 323.903 207.712H322.223C322.175 206.944 321.871 206.328 321.311 205.864C320.767 205.384 320.015 205.144 319.055 205.144C318.207 205.144 317.519 205.344 316.991 205.744C316.463 206.144 316.199 206.64 316.199 207.232C316.199 207.744 316.351 208.168 316.655 208.504C316.975 208.824 317.367 209.08 317.831 209.272C318.295 209.448 318.919 209.648 319.703 209.872C320.647 210.128 321.399 210.376 321.959 210.616C322.519 210.856 322.999 211.208 323.399 211.672C323.799 212.136 324.007 212.752 324.023 213.52C324.023 214.224 323.831 214.856 323.447 215.416C323.063 215.96 322.527 216.392 321.839 216.712C321.151 217.032 320.359 217.192 319.463 217.192ZM335.322 207.4V208.816H325.986V207.4H335.322ZM344.287 215.368L348.703 203.896H350.479L345.223 217H343.327L338.071 203.896H339.871L344.287 215.368ZM358.492 217.192C357.26 217.192 356.148 216.92 355.156 216.376C354.18 215.816 353.404 215.032 352.828 214.024C352.268 213 351.988 211.808 351.988 210.448C351.988 209.088 352.276 207.904 352.852 206.896C353.428 205.872 354.212 205.088 355.204 204.544C356.196 203.984 357.308 203.704 358.54 203.704C359.772 203.704 360.884 203.984 361.876 204.544C362.884 205.088 363.668 205.872 364.228 206.896C364.804 207.904 365.092 209.088 365.092 210.448C365.092 211.792 364.804 212.976 364.228 214C363.652 215.024 362.86 215.816 361.852 216.376C360.844 216.92 359.724 217.192 358.492 217.192ZM358.492 215.728C359.356 215.728 360.156 215.536 360.892 215.152C361.628 214.752 362.22 214.16 362.668 213.376C363.132 212.576 363.364 211.6 363.364 210.448C363.364 209.296 363.14 208.328 362.692 207.544C362.244 206.744 361.652 206.152 360.916 205.768C360.18 205.368 359.38 205.168 358.516 205.168C357.652 205.168 356.852 205.368 356.116 205.768C355.38 206.152 354.788 206.744 354.34 207.544C353.908 208.328 353.692 209.296 353.692 210.448C353.692 211.6 353.908 212.576 354.34 213.376C354.788 214.16 355.372 214.752 356.092 215.152C356.828 215.536 357.628 215.728 358.492 215.728ZM379.506 203.896V217H377.826V214.696C377.442 215.512 376.85 216.136 376.05 216.568C375.25 217 374.354 217.216 373.362 217.216C371.794 217.216 370.514 216.736 369.522 215.776C368.53 214.8 368.034 213.392 368.034 211.552V203.896H369.69V211.36C369.69 212.784 370.042 213.872 370.746 214.624C371.466 215.376 372.442 215.752 373.674 215.752C374.938 215.752 375.946 215.352 376.698 214.552C377.45 213.752 377.826 212.576 377.826 211.024V203.896H379.506ZM387.854 217.192C386.35 217.192 385.118 216.848 384.158 216.16C383.214 215.456 382.686 214.504 382.574 213.304H384.302C384.382 214.04 384.726 214.64 385.334 215.104C385.958 215.552 386.79 215.776 387.83 215.776C388.742 215.776 389.454 215.56 389.966 215.128C390.494 214.696 390.758 214.16 390.758 213.52C390.758 213.072 390.614 212.704 390.326 212.416C390.038 212.128 389.67 211.904 389.222 211.744C388.79 211.568 388.198 211.384 387.446 211.192C386.47 210.936 385.678 210.68 385.07 210.424C384.462 210.168 383.942 209.792 383.51 209.296C383.094 208.784 382.886 208.104 382.886 207.256C382.886 206.616 383.078 206.024 383.462 205.48C383.846 204.936 384.39 204.504 385.094 204.184C385.798 203.864 386.598 203.704 387.494 203.704C388.902 203.704 390.038 204.064 390.902 204.784C391.766 205.488 392.23 206.464 392.294 207.712H390.614C390.566 206.944 390.262 206.328 389.702 205.864C389.158 205.384 388.406 205.144 387.446 205.144C386.598 205.144 385.91 205.344 385.382 205.744C384.854 206.144 384.59 206.64 384.59 207.232C384.59 207.744 384.742 208.168 385.046 208.504C385.366 208.824 385.758 209.08 386.222 209.272C386.686 209.448 387.31 209.648 388.094 209.872C389.038 210.128 389.79 210.376 390.35 210.616C390.91 210.856 391.39 211.208 391.79 211.672C392.19 212.136 392.398 212.752 392.414 213.52C392.414 214.224 392.222 214.856 391.838 215.416C391.454 215.96 390.918 216.392 390.23 216.712C389.542 217.032 388.75 217.192 387.854 217.192ZM403.842 199.24V217H402.162V199.24H403.842ZM408.487 201.424C408.151 201.424 407.863 201.304 407.623 201.064C407.383 200.824 407.263 200.528 407.263 200.176C407.263 199.824 407.383 199.536 407.623 199.312C407.863 199.072 408.151 198.952 408.487 198.952C408.823 198.952 409.111 199.072 409.351 199.312C409.591 199.536 409.711 199.824 409.711 200.176C409.711 200.528 409.591 200.824 409.351 201.064C409.111 201.304 408.823 201.424 408.487 201.424ZM409.327 203.896V217H407.647V203.896H409.327ZM417.787 215.368L422.203 203.896H423.979L418.723 217H416.827L411.571 203.896H413.371L417.787 215.368ZM427.936 206.224C428.304 205.408 428.864 204.776 429.616 204.328C430.384 203.88 431.32 203.656 432.424 203.656V205.408H431.968C430.752 205.408 429.776 205.736 429.04 206.392C428.304 207.048 427.936 208.144 427.936 209.68V217H426.256V203.896H427.936V206.224ZM446.807 209.776C446.807 210.352 446.791 210.792 446.759 211.096H435.887C435.935 212.088 436.175 212.936 436.607 213.64C437.039 214.344 437.607 214.88 438.311 215.248C439.015 215.6 439.783 215.776 440.615 215.776C441.703 215.776 442.615 215.512 443.351 214.984C444.103 214.456 444.599 213.744 444.839 212.848H446.615C446.295 214.128 445.607 215.176 444.551 215.992C443.511 216.792 442.199 217.192 440.615 217.192C439.383 217.192 438.279 216.92 437.303 216.376C436.327 215.816 435.559 215.032 434.999 214.024C434.455 213 434.183 211.808 434.183 210.448C434.183 209.088 434.455 207.896 434.999 206.872C435.543 205.848 436.303 205.064 437.279 204.52C438.255 203.976 439.367 203.704 440.615 203.704C441.863 203.704 442.951 203.976 443.879 204.52C444.823 205.064 445.543 205.8 446.039 206.728C446.551 207.64 446.807 208.656 446.807 209.776ZM445.103 209.728C445.119 208.752 444.919 207.92 444.503 207.232C444.103 206.544 443.551 206.024 442.847 205.672C442.143 205.32 441.375 205.144 440.543 205.144C439.295 205.144 438.231 205.544 437.351 206.344C436.471 207.144 435.983 208.272 435.887 209.728H445.103ZM451.561 206.224C451.929 205.408 452.489 204.776 453.241 204.328C454.009 203.88 454.945 203.656 456.049 203.656V205.408H455.593C454.377 205.408 453.401 205.736 452.665 206.392C451.929 207.048 451.561 208.144 451.561 209.68V217H449.881V203.896H451.561V206.224ZM464.394 210.424C464.394 209.08 464.658 207.904 465.186 206.896C465.73 205.872 466.474 205.088 467.418 204.544C468.378 203.984 469.458 203.704 470.658 203.704C471.906 203.704 472.978 203.992 473.874 204.568C474.786 205.144 475.442 205.88 475.842 206.776V203.896H477.522V217H475.842V214.096C475.426 214.992 474.762 215.736 473.85 216.328C472.954 216.904 471.882 217.192 470.634 217.192C469.45 217.192 468.378 216.912 467.418 216.352C466.474 215.792 465.73 215 465.186 213.976C464.658 212.952 464.394 211.768 464.394 210.424ZM475.842 210.448C475.842 209.392 475.626 208.464 475.194 207.664C474.762 206.864 474.17 206.248 473.418 205.816C472.682 205.384 471.866 205.168 470.97 205.168C470.042 205.168 469.21 205.376 468.474 205.792C467.738 206.208 467.154 206.816 466.722 207.616C466.306 208.4 466.098 209.336 466.098 210.424C466.098 211.496 466.306 212.44 466.722 213.256C467.154 214.056 467.738 214.672 468.474 215.104C469.21 215.52 470.042 215.728 470.97 215.728C471.866 215.728 472.682 215.512 473.418 215.08C474.17 214.648 474.762 214.032 475.194 213.232C475.626 212.432 475.842 211.504 475.842 210.448ZM473.586 201.592V202.888L468.666 200.032V198.52L473.586 201.592ZM492.599 215.368L497.015 203.896H498.791L493.535 217H491.639L486.383 203.896H488.183L492.599 215.368ZM506.804 217.192C505.572 217.192 504.46 216.92 503.468 216.376C502.492 215.816 501.716 215.032 501.14 214.024C500.58 213 500.3 211.808 500.3 210.448C500.3 209.088 500.588 207.904 501.164 206.896C501.74 205.872 502.524 205.088 503.516 204.544C504.508 203.984 505.62 203.704 506.852 203.704C508.084 203.704 509.196 203.984 510.188 204.544C511.196 205.088 511.98 205.872 512.54 206.896C513.116 207.904 513.404 209.088 513.404 210.448C513.404 211.792 513.116 212.976 512.54 214C511.964 215.024 511.172 215.816 510.164 216.376C509.156 216.92 508.036 217.192 506.804 217.192ZM506.804 215.728C507.668 215.728 508.468 215.536 509.204 215.152C509.94 214.752 510.532 214.16 510.98 213.376C511.444 212.576 511.676 211.6 511.676 210.448C511.676 209.296 511.452 208.328 511.004 207.544C510.556 206.744 509.964 206.152 509.228 205.768C508.492 205.368 507.692 205.168 506.828 205.168C505.964 205.168 505.164 205.368 504.428 205.768C503.692 206.152 503.1 206.744 502.652 207.544C502.22 208.328 502.004 209.296 502.004 210.448C502.004 211.6 502.22 212.576 502.652 213.376C503.1 214.16 503.684 214.752 504.404 215.152C505.14 215.536 505.94 215.728 506.804 215.728ZM518.651 205.312V213.448C518.651 214.248 518.803 214.8 519.107 215.104C519.411 215.408 519.947 215.56 520.715 215.56H522.251V217H520.451C519.267 217 518.387 216.728 517.811 216.184C517.235 215.624 516.947 214.712 516.947 213.448V205.312H515.123V203.896H516.947V200.608H518.651V203.896H522.251V205.312H518.651ZM526.702 206.224C527.07 205.408 527.63 204.776 528.382 204.328C529.15 203.88 530.086 203.656 531.19 203.656V205.408H530.734C529.518 205.408 528.542 205.736 527.806 206.392C527.07 207.048 526.702 208.144 526.702 209.68V217H525.022V203.896H526.702V206.224ZM545.573 209.776C545.573 210.352 545.557 210.792 545.525 211.096H534.653C534.701 212.088 534.941 212.936 535.373 213.64C535.805 214.344 536.373 214.88 537.077 215.248C537.781 215.6 538.549 215.776 539.381 215.776C540.469 215.776 541.381 215.512 542.117 214.984C542.869 214.456 543.365 213.744 543.605 212.848H545.381C545.061 214.128 544.373 215.176 543.317 215.992C542.277 216.792 540.965 217.192 539.381 217.192C538.149 217.192 537.045 216.92 536.069 216.376C535.093 215.816 534.325 215.032 533.765 214.024C533.221 213 532.949 211.808 532.949 210.448C532.949 209.088 533.221 207.896 533.765 206.872C534.309 205.848 535.069 205.064 536.045 204.52C537.021 203.976 538.133 203.704 539.381 203.704C540.629 203.704 541.717 203.976 542.645 204.52C543.589 205.064 544.309 205.8 544.805 206.728C545.317 207.64 545.573 208.656 545.573 209.776ZM543.869 209.728C543.885 208.752 543.685 207.92 543.269 207.232C542.869 206.544 542.317 206.024 541.613 205.672C540.909 205.32 540.141 205.144 539.309 205.144C538.061 205.144 536.997 205.544 536.117 206.344C535.237 207.144 534.749 208.272 534.653 209.728H543.869ZM1.152 246.448C1.152 245.088 1.424 243.904 1.968 242.896C2.512 241.872 3.264 241.088 4.224 240.544C5.184 239.984 6.28 239.704 7.512 239.704C9.128 239.704 10.456 240.104 11.496 240.904C12.552 241.704 13.232 242.792 13.536 244.168H11.736C11.512 243.224 11.024 242.488 10.272 241.96C9.536 241.416 8.616 241.144 7.512 241.144C6.632 241.144 5.84 241.344 5.136 241.744C4.432 242.144 3.872 242.744 3.456 243.544C3.056 244.328 2.856 245.296 2.856 246.448C2.856 247.6 3.056 248.576 3.456 249.376C3.872 250.176 4.432 250.776 5.136 251.176C5.84 251.576 6.632 251.776 7.512 251.776C8.616 251.776 9.536 251.512 10.272 250.984C11.024 250.44 11.512 249.688 11.736 248.728H13.536C13.232 250.072 12.552 251.152 11.496 251.968C10.44 252.784 9.112 253.192 7.512 253.192C6.28 253.192 5.184 252.92 4.224 252.376C3.264 251.816 2.512 251.032 1.968 250.024C1.424 249 1.152 247.808 1.152 246.448ZM22.3748 253.192C21.1428 253.192 20.0308 252.92 19.0388 252.376C18.0628 251.816 17.2868 251.032 16.7108 250.024C16.1508 249 15.8708 247.808 15.8708 246.448C15.8708 245.088 16.1588 243.904 16.7348 242.896C17.3108 241.872 18.0948 241.088 19.0868 240.544C20.0788 239.984 21.1908 239.704 22.4228 239.704C23.6548 239.704 24.7668 239.984 25.7588 240.544C26.7668 241.088 27.5508 241.872 28.1108 242.896C28.6868 243.904 28.9748 245.088 28.9748 246.448C28.9748 247.792 28.6868 248.976 28.1108 250C27.5348 251.024 26.7428 251.816 25.7348 252.376C24.7268 252.92 23.6068 253.192 22.3748 253.192ZM22.3748 251.728C23.2388 251.728 24.0388 251.536 24.7748 251.152C25.5108 250.752 26.1028 250.16 26.5508 249.376C27.0148 248.576 27.2468 247.6 27.2468 246.448C27.2468 245.296 27.0228 244.328 26.5748 243.544C26.1268 242.744 25.5348 242.152 24.7988 241.768C24.0628 241.368 23.2628 241.168 22.3988 241.168C21.5348 241.168 20.7348 241.368 19.9988 241.768C19.2628 242.152 18.6708 242.744 18.2228 243.544C17.7908 244.328 17.5748 245.296 17.5748 246.448C17.5748 247.6 17.7908 248.576 18.2228 249.376C18.6708 250.16 19.2548 250.752 19.9748 251.152C20.7108 251.536 21.5108 251.728 22.3748 251.728ZM38.1812 239.656C39.7492 239.656 41.0292 240.144 42.0212 241.12C43.0132 242.08 43.5092 243.48 43.5092 245.32V253H41.8532V245.512C41.8532 244.088 41.4932 243 40.7732 242.248C40.0692 241.496 39.1012 241.12 37.8692 241.12C36.6052 241.12 35.5972 241.52 34.8452 242.32C34.0932 243.12 33.7172 244.296 33.7172 245.848V253H32.0372V239.896H33.7172V242.128C34.1332 241.328 34.7332 240.72 35.5172 240.304C36.3012 239.872 37.1892 239.656 38.1812 239.656ZM51.8807 251.368L56.2967 239.896H58.0727L52.8167 253H50.9207L45.6647 239.896H47.4647L51.8807 251.368ZM72.2057 245.776C72.2057 246.352 72.1897 246.792 72.1577 247.096H61.2857C61.3337 248.088 61.5737 248.936 62.0057 249.64C62.4377 250.344 63.0057 250.88 63.7097 251.248C64.4137 251.6 65.1817 251.776 66.0137 251.776C67.1017 251.776 68.0137 251.512 68.7497 250.984C69.5017 250.456 69.9977 249.744 70.2377 248.848H72.0137C71.6937 250.128 71.0057 251.176 69.9497 251.992C68.9097 252.792 67.5977 253.192 66.0137 253.192C64.7817 253.192 63.6777 252.92 62.7017 252.376C61.7257 251.816 60.9577 251.032 60.3977 250.024C59.8537 249 59.5817 247.808 59.5817 246.448C59.5817 245.088 59.8537 243.896 60.3977 242.872C60.9417 241.848 61.7017 241.064 62.6777 240.52C63.6537 239.976 64.7657 239.704 66.0137 239.704C67.2617 239.704 68.3497 239.976 69.2777 240.52C70.2217 241.064 70.9417 241.8 71.4377 242.728C71.9497 243.64 72.2057 244.656 72.2057 245.776ZM70.5017 245.728C70.5177 244.752 70.3177 243.92 69.9017 243.232C69.5017 242.544 68.9497 242.024 68.2457 241.672C67.5417 241.32 66.7737 241.144 65.9417 241.144C64.6937 241.144 63.6297 241.544 62.7497 242.344C61.8697 243.144 61.3817 244.272 61.2857 245.728H70.5017ZM81.4234 239.656C82.9914 239.656 84.2714 240.144 85.2634 241.12C86.2554 242.08 86.7514 243.48 86.7514 245.32V253H85.0954V245.512C85.0954 244.088 84.7354 243 84.0154 242.248C83.3114 241.496 82.3434 241.12 81.1114 241.12C79.8474 241.12 78.8394 241.52 78.0874 242.32C77.3354 243.12 76.9594 244.296 76.9594 245.848V253H75.2794V239.896H76.9594V242.128C77.3754 241.328 77.9754 240.72 78.7594 240.304C79.5434 239.872 80.4314 239.656 81.4234 239.656ZM89.6989 246.424C89.6989 245.08 89.9629 243.904 90.4909 242.896C91.0349 241.872 91.7789 241.088 92.7229 240.544C93.6829 239.984 94.7629 239.704 95.9629 239.704C97.2109 239.704 98.2829 239.992 99.1789 240.568C100.091 241.144 100.747 241.88 101.147 242.776V239.896H102.827V253H101.147V250.096C100.731 250.992 100.067 251.736 99.1549 252.328C98.2589 252.904 97.1869 253.192 95.9389 253.192C94.7549 253.192 93.6829 252.912 92.7229 252.352C91.7789 251.792 91.0349 251 90.4909 249.976C89.9629 248.952 89.6989 247.768 89.6989 246.424ZM101.147 246.448C101.147 245.392 100.931 244.464 100.499 243.664C100.067 242.864 99.4749 242.248 98.7229 241.816C97.9869 241.384 97.1709 241.168 96.2749 241.168C95.3469 241.168 94.5149 241.376 93.7789 241.792C93.0429 242.208 92.4589 242.816 92.0269 243.616C91.6109 244.4 91.4029 245.336 91.4029 246.424C91.4029 247.496 91.6109 248.44 92.0269 249.256C92.4589 250.056 93.0429 250.672 93.7789 251.104C94.5149 251.52 95.3469 251.728 96.2749 251.728C97.1709 251.728 97.9869 251.512 98.7229 251.08C99.4749 250.648 100.067 250.032 100.499 249.232C100.931 248.432 101.147 247.504 101.147 246.448ZM112.806 239.656C114.374 239.656 115.654 240.144 116.646 241.12C117.638 242.08 118.134 243.48 118.134 245.32V253H116.478V245.512C116.478 244.088 116.118 243 115.398 242.248C114.694 241.496 113.726 241.12 112.494 241.12C111.23 241.12 110.222 241.52 109.47 242.32C108.718 243.12 108.342 244.296 108.342 245.848V253H106.662V239.896H108.342V242.128C108.758 241.328 109.358 240.72 110.142 240.304C110.926 239.872 111.814 239.656 112.806 239.656ZM121.082 246.448C121.082 245.088 121.354 243.904 121.898 242.896C122.442 241.872 123.194 241.088 124.154 240.544C125.114 239.984 126.21 239.704 127.442 239.704C129.058 239.704 130.386 240.104 131.426 240.904C132.482 241.704 133.162 242.792 133.466 244.168H131.666C131.442 243.224 130.954 242.488 130.202 241.96C129.466 241.416 128.546 241.144 127.442 241.144C126.562 241.144 125.77 241.344 125.066 241.744C124.362 242.144 123.802 242.744 123.386 243.544C122.986 244.328 122.786 245.296 122.786 246.448C122.786 247.6 122.986 248.576 123.386 249.376C123.802 250.176 124.362 250.776 125.066 251.176C125.77 251.576 126.562 251.776 127.442 251.776C128.546 251.776 129.466 251.512 130.202 250.984C130.954 250.44 131.442 249.688 131.666 248.728H133.466C133.162 250.072 132.482 251.152 131.426 251.968C130.37 252.784 129.042 253.192 127.442 253.192C126.21 253.192 125.114 252.92 124.154 252.376C123.194 251.816 122.442 251.032 121.898 250.024C121.354 249 121.082 247.808 121.082 246.448ZM148.424 245.776C148.424 246.352 148.408 246.792 148.376 247.096H137.504C137.552 248.088 137.792 248.936 138.224 249.64C138.656 250.344 139.224 250.88 139.928 251.248C140.632 251.6 141.4 251.776 142.232 251.776C143.32 251.776 144.232 251.512 144.968 250.984C145.72 250.456 146.216 249.744 146.456 248.848H148.232C147.912 250.128 147.224 251.176 146.168 251.992C145.128 252.792 143.816 253.192 142.232 253.192C141 253.192 139.896 252.92 138.92 252.376C137.944 251.816 137.176 251.032 136.616 250.024C136.072 249 135.8 247.808 135.8 246.448C135.8 245.088 136.072 243.896 136.616 242.872C137.16 241.848 137.92 241.064 138.896 240.52C139.872 239.976 140.984 239.704 142.232 239.704C143.48 239.704 144.568 239.976 145.496 240.52C146.44 241.064 147.16 241.8 147.656 242.728C148.168 243.64 148.424 244.656 148.424 245.776ZM146.72 245.728C146.736 244.752 146.536 243.92 146.12 243.232C145.72 242.544 145.168 242.024 144.464 241.672C143.76 241.32 142.992 241.144 142.16 241.144C140.912 241.144 139.848 241.544 138.968 242.344C138.088 243.144 137.6 244.272 137.504 245.728H146.72ZM151.786 253.12C151.434 253.12 151.138 253 150.898 252.76C150.674 252.52 150.562 252.224 150.562 251.872C150.562 251.52 150.674 251.232 150.898 251.008C151.138 250.768 151.434 250.648 151.786 250.648C152.122 250.648 152.402 250.768 152.626 251.008C152.866 251.232 152.986 251.52 152.986 251.872C152.986 252.224 152.866 252.52 152.626 252.76C152.402 253 152.122 253.12 151.786 253.12Z" fill="#4E4646"/>
<mask id="mask0_2161_1603" style="mask-type:alpha" maskUnits="userSpaceOnUse" x="3" y="70" width="605" height="74">
<path d="M30.55 124.525C25.6 124.525 21.05 123.375 16.9 121.075C12.8 118.775 9.525 115.575 7.075 111.475C4.675 107.325 3.475 102.675 3.475 97.525C3.475 92.375 4.675 87.75 7.075 83.65C9.525 79.55 12.8 76.35 16.9 74.05C21.05 71.75 25.6 70.6 30.55 70.6C35.5 70.6 40.025 71.75 44.125 74.05C48.275 76.35 51.525 79.55 53.875 83.65C56.275 87.75 57.475 92.375 57.475 97.525C57.475 102.675 56.275 107.325 53.875 111.475C51.475 115.575 48.225 118.775 44.125 121.075C40.025 123.375 35.5 124.525 30.55 124.525ZM30.55 112.825C34.75 112.825 38.1 111.425 40.6 108.625C43.15 105.825 44.425 102.125 44.425 97.525C44.425 92.875 43.15 89.175 40.6 86.425C38.1 83.625 34.75 82.225 30.55 82.225C26.3 82.225 22.9 83.6 20.35 86.35C17.85 89.1 16.6 92.825 16.6 97.525C16.6 102.175 17.85 105.9 20.35 108.7C22.9 111.45 26.3 112.825 30.55 112.825ZM77.435 88.075C78.685 86.125 80.41 84.55 82.61 83.35C84.81 82.15 87.385 81.55 90.335 81.55C93.785 81.55 96.91 82.425 99.71 84.175C102.51 85.925 104.71 88.425 106.31 91.675C107.96 94.925 108.785 98.7 108.785 103C108.785 107.3 107.96 111.1 106.31 114.4C104.71 117.65 102.51 120.175 99.71 121.975C96.91 123.725 93.785 124.6 90.335 124.6C87.435 124.6 84.86 124 82.61 122.8C80.41 121.6 78.685 120.05 77.435 118.15V143.95H64.61V82.15H77.435V88.075ZM95.735 103C95.735 99.8 94.835 97.3 93.035 95.5C91.285 93.65 89.11 92.725 86.51 92.725C83.96 92.725 81.785 93.65 79.985 95.5C78.235 97.35 77.36 99.875 77.36 103.075C77.36 106.275 78.235 108.8 79.985 110.65C81.785 112.5 83.96 113.425 86.51 113.425C89.06 113.425 91.235 112.5 93.035 110.65C94.835 108.75 95.735 106.2 95.735 103ZM154.963 102.4C154.963 103.6 154.888 104.85 154.738 106.15H125.713C125.913 108.75 126.738 110.75 128.188 112.15C129.688 113.5 131.513 114.175 133.663 114.175C136.863 114.175 139.088 112.825 140.338 110.125H153.988C153.288 112.875 152.013 115.35 150.163 117.55C148.363 119.75 146.088 121.475 143.338 122.725C140.588 123.975 137.513 124.6 134.113 124.6C130.013 124.6 126.363 123.725 123.163 121.975C119.963 120.225 117.463 117.725 115.663 114.475C113.863 111.225 112.963 107.425 112.963 103.075C112.963 98.725 113.838 94.925 115.588 91.675C117.388 88.425 119.888 85.925 123.088 84.175C126.288 82.425 129.963 81.55 134.113 81.55C138.163 81.55 141.763 82.4 144.913 84.1C148.063 85.8 150.513 88.225 152.263 91.375C154.063 94.525 154.963 98.2 154.963 102.4ZM141.838 99.025C141.838 96.825 141.088 95.075 139.588 93.775C138.088 92.475 136.213 91.825 133.963 91.825C131.813 91.825 129.988 92.45 128.488 93.7C127.038 94.95 126.138 96.725 125.788 99.025H141.838ZM187.229 81.7C192.129 81.7 196.029 83.3 198.929 86.5C201.879 89.65 203.354 94 203.354 99.55V124H190.604V101.275C190.604 98.475 189.879 96.3 188.429 94.75C186.979 93.2 185.029 92.425 182.579 92.425C180.129 92.425 178.179 93.2 176.729 94.75C175.279 96.3 174.554 98.475 174.554 101.275V124H161.729V82.15H174.554V87.7C175.854 85.85 177.604 84.4 179.804 83.35C182.004 82.25 184.479 81.7 187.229 81.7ZM231.316 124.525C227.466 124.525 224.016 123.9 220.966 122.65C217.916 121.4 215.466 119.55 213.616 117.1C211.816 114.65 210.866 111.7 210.766 108.25H224.416C224.616 110.2 225.291 111.7 226.441 112.75C227.591 113.75 229.091 114.25 230.941 114.25C232.841 114.25 234.341 113.825 235.441 112.975C236.541 112.075 237.091 110.85 237.091 109.3C237.091 108 236.641 106.925 235.741 106.075C234.891 105.225 233.816 104.525 232.516 103.975C231.266 103.425 229.466 102.8 227.116 102.1C223.716 101.05 220.941 100 218.791 98.95C216.641 97.9 214.791 96.35 213.241 94.3C211.691 92.25 210.916 89.575 210.916 86.275C210.916 81.375 212.691 77.55 216.241 74.8C219.791 72 224.416 70.6 230.116 70.6C235.916 70.6 240.591 72 244.141 74.8C247.691 77.55 249.591 81.4 249.841 86.35H235.966C235.866 84.65 235.241 83.325 234.091 82.375C232.941 81.375 231.466 80.875 229.666 80.875C228.116 80.875 226.866 81.3 225.916 82.15C224.966 82.95 224.491 84.125 224.491 85.675C224.491 87.375 225.291 88.7 226.891 89.65C228.491 90.6 230.991 91.625 234.391 92.725C237.791 93.875 240.541 94.975 242.641 96.025C244.791 97.075 246.641 98.6 248.191 100.6C249.741 102.6 250.516 105.175 250.516 108.325C250.516 111.325 249.741 114.05 248.191 116.5C246.691 118.95 244.491 120.9 241.591 122.35C238.691 123.8 235.266 124.525 231.316 124.525ZM281.734 113.125V124H275.209C270.559 124 266.934 122.875 264.334 120.625C261.734 118.325 260.434 114.6 260.434 109.45V92.8H255.334V82.15H260.434V71.95H273.259V82.15H281.659V92.8H273.259V109.6C273.259 110.85 273.559 111.75 274.159 112.3C274.759 112.85 275.759 113.125 277.159 113.125H281.734ZM301.703 89.125C303.203 86.825 305.078 85.025 307.328 83.725C309.578 82.375 312.078 81.7 314.828 81.7V95.275H311.303C308.103 95.275 305.703 95.975 304.103 97.375C302.503 98.725 301.703 101.125 301.703 104.575V124H288.878V82.15H301.703V89.125ZM360.408 102.4C360.408 103.6 360.333 104.85 360.183 106.15H331.158C331.358 108.75 332.183 110.75 333.633 112.15C335.133 113.5 336.958 114.175 339.108 114.175C342.308 114.175 344.533 112.825 345.783 110.125H359.433C358.733 112.875 357.458 115.35 355.608 117.55C353.808 119.75 351.533 121.475 348.783 122.725C346.033 123.975 342.958 124.6 339.558 124.6C335.458 124.6 331.808 123.725 328.608 121.975C325.408 120.225 322.908 117.725 321.108 114.475C319.308 111.225 318.408 107.425 318.408 103.075C318.408 98.725 319.283 94.925 321.033 91.675C322.833 88.425 325.333 85.925 328.533 84.175C331.733 82.425 335.408 81.55 339.558 81.55C343.608 81.55 347.208 82.4 350.358 84.1C353.508 85.8 355.958 88.225 357.708 91.375C359.508 94.525 360.408 98.2 360.408 102.4ZM347.283 99.025C347.283 96.825 346.533 95.075 345.033 93.775C343.533 92.475 341.658 91.825 339.408 91.825C337.258 91.825 335.433 92.45 333.933 93.7C332.483 94.95 331.583 96.725 331.233 99.025H347.283ZM406.623 102.4C406.623 103.6 406.548 104.85 406.398 106.15H377.373C377.573 108.75 378.398 110.75 379.848 112.15C381.348 113.5 383.173 114.175 385.323 114.175C388.523 114.175 390.748 112.825 391.998 110.125H405.648C404.948 112.875 403.673 115.35 401.823 117.55C400.023 119.75 397.748 121.475 394.998 122.725C392.248 123.975 389.173 124.6 385.773 124.6C381.673 124.6 378.023 123.725 374.823 121.975C371.623 120.225 369.123 117.725 367.323 114.475C365.523 111.225 364.623 107.425 364.623 103.075C364.623 98.725 365.498 94.925 367.248 91.675C369.048 88.425 371.548 85.925 374.748 84.175C377.948 82.425 381.623 81.55 385.773 81.55C389.823 81.55 393.423 82.4 396.573 84.1C399.723 85.8 402.173 88.225 403.923 91.375C405.723 94.525 406.623 98.2 406.623 102.4ZM393.498 99.025C393.498 96.825 392.748 95.075 391.248 93.775C389.748 92.475 387.873 91.825 385.623 91.825C383.473 91.825 381.648 92.45 380.148 93.7C378.698 94.95 377.798 96.725 377.448 99.025H393.498ZM436.714 113.125V124H430.189C425.539 124 421.914 122.875 419.314 120.625C416.714 118.325 415.414 114.6 415.414 109.45V92.8H410.314V82.15H415.414V71.95H428.239V82.15H436.639V92.8H428.239V109.6C428.239 110.85 428.539 111.75 429.139 112.3C429.739 112.85 430.739 113.125 432.139 113.125H436.714ZM503.483 71.35V124H490.658V92.425L478.883 124H468.533L456.683 92.35V124H443.858V71.35H459.008L473.783 107.8L488.408 71.35H503.483ZM510.156 103C510.156 98.7 510.956 94.925 512.556 91.675C514.206 88.425 516.431 85.925 519.231 84.175C522.031 82.425 525.156 81.55 528.606 81.55C531.556 81.55 534.131 82.15 536.331 83.35C538.581 84.55 540.306 86.125 541.506 88.075V82.15H554.331V124H541.506V118.075C540.256 120.025 538.506 121.6 536.256 122.8C534.056 124 531.481 124.6 528.531 124.6C525.131 124.6 522.031 123.725 519.231 121.975C516.431 120.175 514.206 117.65 512.556 114.4C510.956 111.1 510.156 107.3 510.156 103ZM541.506 103.075C541.506 99.875 540.606 97.35 538.806 95.5C537.056 93.65 534.906 92.725 532.356 92.725C529.806 92.725 527.631 93.65 525.831 95.5C524.081 97.3 523.206 99.8 523.206 103C523.206 106.2 524.081 108.75 525.831 110.65C527.631 112.5 529.806 113.425 532.356 113.425C534.906 113.425 537.056 112.5 538.806 110.65C540.606 108.8 541.506 106.275 541.506 103.075ZM576.434 88.075C577.684 86.125 579.409 84.55 581.609 83.35C583.809 82.15 586.384 81.55 589.334 81.55C592.784 81.55 595.909 82.425 598.709 84.175C601.509 85.925 603.709 88.425 605.309 91.675C606.959 94.925 607.784 98.7 607.784 103C607.784 107.3 606.959 111.1 605.309 114.4C603.709 117.65 601.509 120.175 598.709 121.975C595.909 123.725 592.784 124.6 589.334 124.6C586.434 124.6 583.859 124 581.609 122.8C579.409 121.6 577.684 120.05 576.434 118.15V143.95H563.609V82.15H576.434V88.075ZM594.734 103C594.734 99.8 593.834 97.3 592.034 95.5C590.284 93.65 588.109 92.725 585.509 92.725C582.959 92.725 580.784 93.65 578.984 95.5C577.234 97.35 576.359 99.875 576.359 103.075C576.359 106.275 577.234 108.8 578.984 110.65C580.784 112.5 582.959 113.425 585.509 113.425C588.059 113.425 590.234 112.5 592.034 110.65C593.834 108.75 594.734 106.2 594.734 103Z" fill="black"/>
</mask>
<g mask="url(#mask0_2161_1603)">
<rect x="-269" y="-91" width="1017" height="255" fill="#111111"/>
</g>
</svg>
