<svg width="565" height="249" viewBox="0 0 565 249" fill="none" xmlns="http://www.w3.org/2000/svg">
<path d="M4.464 17.068C3.84 17.068 3.312 16.852 2.88 16.42C2.448 15.988 2.232 15.46 2.232 14.836C2.232 14.212 2.448 13.684 2.88 13.252C3.312 12.82 3.84 12.604 4.464 12.604C5.064 12.604 5.568 12.82 5.976 13.252C6.408 13.684 6.624 14.212 6.624 14.836C6.624 15.46 6.408 15.988 5.976 16.42C5.568 16.852 5.064 17.068 4.464 17.068ZM6.048 20.272V40H2.772V20.272H6.048ZM21.2434 19.912C23.6434 19.912 25.5874 20.644 27.0754 22.108C28.5634 23.548 29.3074 25.636 29.3074 28.372V40H26.0674V28.84C26.0674 26.872 25.5754 25.372 24.5914 24.34C23.6074 23.284 22.2634 22.756 20.5594 22.756C18.8314 22.756 17.4514 23.296 16.4194 24.376C15.4114 25.456 14.9074 27.028 14.9074 29.092V40H11.6314V20.272H14.9074V23.08C15.5554 22.072 16.4314 21.292 17.5354 20.74C18.6634 20.188 19.8994 19.912 21.2434 19.912ZM38.6547 22.972V34.6C38.6547 35.56 38.8587 36.244 39.2667 36.652C39.6747 37.036 40.3827 37.228 41.3907 37.228H43.8027V40H40.8507C39.0267 40 37.6587 39.58 36.7467 38.74C35.8347 37.9 35.3787 36.52 35.3787 34.6V22.972H32.8227V20.272H35.3787V15.304H38.6547V20.272H43.8027V22.972H38.6547ZM51.048 23.476C51.624 22.348 52.44 21.472 53.496 20.848C54.576 20.224 55.884 19.912 57.42 19.912V23.296H56.556C52.884 23.296 51.048 25.288 51.048 29.272V40H47.772V20.272H51.048V23.476ZM69.8057 40.324C67.9577 40.324 66.2777 39.904 64.7657 39.064C63.2777 38.224 62.1017 37.036 61.2377 35.5C60.3977 33.94 59.9777 32.14 59.9777 30.1C59.9777 28.084 60.4097 26.308 61.2737 24.772C62.1617 23.212 63.3617 22.024 64.8737 21.208C66.3857 20.368 68.0777 19.948 69.9497 19.948C71.8217 19.948 73.5137 20.368 75.0257 21.208C76.5377 22.024 77.7257 23.2 78.5897 24.736C79.4777 26.272 79.9217 28.06 79.9217 30.1C79.9217 32.14 79.4657 33.94 78.5537 35.5C77.6657 37.036 76.4537 38.224 74.9177 39.064C73.3817 39.904 71.6777 40.324 69.8057 40.324ZM69.8057 37.444C70.9817 37.444 72.0857 37.168 73.1177 36.616C74.1497 36.064 74.9777 35.236 75.6017 34.132C76.2497 33.028 76.5737 31.684 76.5737 30.1C76.5737 28.516 76.2617 27.172 75.6377 26.068C75.0137 24.964 74.1977 24.148 73.1897 23.62C72.1817 23.068 71.0897 22.792 69.9137 22.792C68.7137 22.792 67.6097 23.068 66.6017 23.62C65.6177 24.148 64.8257 24.964 64.2257 26.068C63.6257 27.172 63.3257 28.516 63.3257 30.1C63.3257 31.708 63.6137 33.064 64.1897 34.168C64.7897 35.272 65.5817 36.1 66.5657 36.652C67.5497 37.18 68.6297 37.444 69.8057 37.444ZM83.005 30.064C83.005 28.048 83.413 26.284 84.229 24.772C85.045 23.236 86.161 22.048 87.577 21.208C89.017 20.368 90.625 19.948 92.401 19.948C93.937 19.948 95.365 20.308 96.685 21.028C98.005 21.724 99.013 22.648 99.709 23.8V13.36H103.021V40H99.709V36.292C99.061 37.468 98.101 38.44 96.829 39.208C95.557 39.952 94.069 40.324 92.365 40.324C90.613 40.324 89.017 39.892 87.577 39.028C86.161 38.164 85.045 36.952 84.229 35.392C83.413 33.832 83.005 32.056 83.005 30.064ZM99.709 30.1C99.709 28.612 99.409 27.316 98.809 26.212C98.209 25.108 97.393 24.268 96.361 23.692C95.353 23.092 94.237 22.792 93.013 22.792C91.789 22.792 90.673 23.08 89.665 23.656C88.657 24.232 87.853 25.072 87.253 26.176C86.653 27.28 86.353 28.576 86.353 30.064C86.353 31.576 86.653 32.896 87.253 34.024C87.853 35.128 88.657 35.98 89.665 36.58C90.673 37.156 91.789 37.444 93.013 37.444C94.237 37.444 95.353 37.156 96.361 36.58C97.393 35.98 98.209 35.128 98.809 34.024C99.409 32.896 99.709 31.588 99.709 30.1ZM126.053 20.272V40H122.777V37.084C122.153 38.092 121.277 38.884 120.149 39.46C119.045 40.012 117.821 40.288 116.477 40.288C114.941 40.288 113.561 39.976 112.337 39.352C111.113 38.704 110.141 37.744 109.421 36.472C108.725 35.2 108.377 33.652 108.377 31.828V20.272H111.617V31.396C111.617 33.34 112.109 34.84 113.093 35.896C114.077 36.928 115.421 37.444 117.125 37.444C118.877 37.444 120.257 36.904 121.265 35.824C122.273 34.744 122.777 33.172 122.777 31.108V20.272H126.053ZM130.361 30.1C130.361 28.06 130.769 26.284 131.585 24.772C132.401 23.236 133.529 22.048 134.969 21.208C136.433 20.368 138.101 19.948 139.973 19.948C142.397 19.948 144.389 20.536 145.949 21.712C147.533 22.888 148.577 24.52 149.081 26.608H145.553C145.217 25.408 144.557 24.46 143.573 23.764C142.613 23.068 141.413 22.72 139.973 22.72C138.101 22.72 136.589 23.368 135.437 24.664C134.285 25.936 133.709 27.748 133.709 30.1C133.709 32.476 134.285 34.312 135.437 35.608C136.589 36.904 138.101 37.552 139.973 37.552C141.413 37.552 142.613 37.216 143.573 36.544C144.533 35.872 145.193 34.912 145.553 33.664H149.081C148.553 35.68 147.497 37.3 145.913 38.524C144.329 39.724 142.349 40.324 139.973 40.324C138.101 40.324 136.433 39.904 134.969 39.064C133.529 38.224 132.401 37.036 131.585 35.5C130.769 33.964 130.361 32.164 130.361 30.1ZM155.144 17.068C154.52 17.068 153.992 16.852 153.56 16.42C153.128 15.988 152.912 15.46 152.912 14.836C152.912 14.212 153.128 13.684 153.56 13.252C153.992 12.82 154.52 12.604 155.144 12.604C155.744 12.604 156.248 12.82 156.656 13.252C157.088 13.684 157.304 14.212 157.304 14.836C157.304 15.46 157.088 15.988 156.656 16.42C156.248 16.852 155.744 17.068 155.144 17.068ZM156.728 20.272V40H153.452V20.272H156.728ZM171.923 19.912C174.323 19.912 176.267 20.644 177.755 22.108C179.243 23.548 179.987 25.636 179.987 28.372V40H176.747V28.84C176.747 26.872 176.255 25.372 175.271 24.34C174.287 23.284 172.943 22.756 171.239 22.756C169.511 22.756 168.131 23.296 167.099 24.376C166.091 25.456 165.587 27.028 165.587 29.092V40H162.311V20.272H165.587V23.08C166.235 22.072 167.111 21.292 168.215 20.74C169.343 20.188 170.579 19.912 171.923 19.912ZM193.474 19.948C195.178 19.948 196.666 20.32 197.938 21.064C199.234 21.808 200.194 22.744 200.818 23.872V20.272H204.13V40.432C204.13 42.232 203.746 43.828 202.978 45.22C202.21 46.636 201.106 47.74 199.666 48.532C198.25 49.324 196.594 49.72 194.698 49.72C192.106 49.72 189.946 49.108 188.218 47.884C186.49 46.66 185.47 44.992 185.158 42.88H188.398C188.758 44.08 189.502 45.04 190.63 45.76C191.758 46.504 193.114 46.876 194.698 46.876C196.498 46.876 197.962 46.312 199.09 45.184C200.242 44.056 200.818 42.472 200.818 40.432V36.292C200.17 37.444 199.21 38.404 197.938 39.172C196.666 39.94 195.178 40.324 193.474 40.324C191.722 40.324 190.126 39.892 188.686 39.028C187.27 38.164 186.154 36.952 185.338 35.392C184.522 33.832 184.114 32.056 184.114 30.064C184.114 28.048 184.522 26.284 185.338 24.772C186.154 23.236 187.27 22.048 188.686 21.208C190.126 20.368 191.722 19.948 193.474 19.948ZM200.818 30.1C200.818 28.612 200.518 27.316 199.918 26.212C199.318 25.108 198.502 24.268 197.47 23.692C196.462 23.092 195.346 22.792 194.122 22.792C192.898 22.792 191.782 23.08 190.774 23.656C189.766 24.232 188.962 25.072 188.362 26.176C187.762 27.28 187.462 28.576 187.462 30.064C187.462 31.576 187.762 32.896 188.362 34.024C188.962 35.128 189.766 35.98 190.774 36.58C191.782 37.156 192.898 37.444 194.122 37.444C195.346 37.444 196.462 37.156 197.47 36.58C198.502 35.98 199.318 35.128 199.918 34.024C200.518 32.896 200.818 31.588 200.818 30.1ZM242.988 19.912C244.524 19.912 245.892 20.236 247.092 20.884C248.292 21.508 249.24 22.456 249.936 23.728C250.632 25 250.98 26.548 250.98 28.372V40H247.74V28.84C247.74 26.872 247.248 25.372 246.264 24.34C245.304 23.284 243.996 22.756 242.34 22.756C240.636 22.756 239.28 23.308 238.272 24.412C237.264 25.492 236.76 27.064 236.76 29.128V40H233.52V28.84C233.52 26.872 233.028 25.372 232.044 24.34C231.084 23.284 229.776 22.756 228.12 22.756C226.416 22.756 225.06 23.308 224.052 24.412C223.044 25.492 222.54 27.064 222.54 29.128V40H219.264V20.272H222.54V23.116C223.188 22.084 224.052 21.292 225.132 20.74C226.236 20.188 227.448 19.912 228.768 19.912C230.424 19.912 231.888 20.284 233.16 21.028C234.432 21.772 235.38 22.864 236.004 24.304C236.556 22.912 237.468 21.832 238.74 21.064C240.012 20.296 241.428 19.912 242.988 19.912ZM264.958 40.324C263.11 40.324 261.43 39.904 259.918 39.064C258.43 38.224 257.254 37.036 256.39 35.5C255.55 33.94 255.13 32.14 255.13 30.1C255.13 28.084 255.562 26.308 256.426 24.772C257.314 23.212 258.514 22.024 260.026 21.208C261.538 20.368 263.23 19.948 265.102 19.948C266.974 19.948 268.666 20.368 270.178 21.208C271.69 22.024 272.878 23.2 273.742 24.736C274.63 26.272 275.074 28.06 275.074 30.1C275.074 32.14 274.618 33.94 273.706 35.5C272.818 37.036 271.606 38.224 270.07 39.064C268.534 39.904 266.83 40.324 264.958 40.324ZM264.958 37.444C266.134 37.444 267.238 37.168 268.27 36.616C269.302 36.064 270.13 35.236 270.754 34.132C271.402 33.028 271.726 31.684 271.726 30.1C271.726 28.516 271.414 27.172 270.79 26.068C270.166 24.964 269.35 24.148 268.342 23.62C267.334 23.068 266.242 22.792 265.066 22.792C263.866 22.792 262.762 23.068 261.754 23.62C260.77 24.148 259.978 24.964 259.378 26.068C258.778 27.172 258.478 28.516 258.478 30.1C258.478 31.708 258.766 33.064 259.342 34.168C259.942 35.272 260.734 36.1 261.718 36.652C262.702 37.18 263.782 37.444 264.958 37.444ZM282.657 23.944C283.329 22.768 284.313 21.808 285.609 21.064C286.905 20.32 288.381 19.948 290.037 19.948C291.813 19.948 293.409 20.368 294.825 21.208C296.241 22.048 297.357 23.236 298.173 24.772C298.989 26.284 299.397 28.048 299.397 30.064C299.397 32.056 298.989 33.832 298.173 35.392C297.357 36.952 296.229 38.164 294.789 39.028C293.373 39.892 291.789 40.324 290.037 40.324C288.333 40.324 286.833 39.952 285.537 39.208C284.265 38.464 283.305 37.516 282.657 36.364V40H279.381V13.36H282.657V23.944ZM296.049 30.064C296.049 28.576 295.749 27.28 295.149 26.176C294.549 25.072 293.733 24.232 292.701 23.656C291.693 23.08 290.577 22.792 289.353 22.792C288.153 22.792 287.037 23.092 286.005 23.692C284.997 24.268 284.181 25.12 283.557 26.248C282.957 27.352 282.657 28.636 282.657 30.1C282.657 31.588 282.957 32.896 283.557 34.024C284.181 35.128 284.997 35.98 286.005 36.58C287.037 37.156 288.153 37.444 289.353 37.444C290.577 37.444 291.693 37.156 292.701 36.58C293.733 35.98 294.549 35.128 295.149 34.024C295.749 32.896 296.049 31.576 296.049 30.064ZM305.402 17.068C304.778 17.068 304.25 16.852 303.818 16.42C303.386 15.988 303.17 15.46 303.17 14.836C303.17 14.212 303.386 13.684 303.818 13.252C304.25 12.82 304.778 12.604 305.402 12.604C306.002 12.604 306.506 12.82 306.914 13.252C307.346 13.684 307.562 14.212 307.562 14.836C307.562 15.46 307.346 15.988 306.914 16.42C306.506 16.852 306.002 17.068 305.402 17.068ZM306.986 20.272V40H303.71V20.272H306.986ZM315.845 13.36V40H312.569V13.36H315.845ZM323.12 17.068C322.496 17.068 321.968 16.852 321.536 16.42C321.104 15.988 320.888 15.46 320.888 14.836C320.888 14.212 321.104 13.684 321.536 13.252C321.968 12.82 322.496 12.604 323.12 12.604C323.72 12.604 324.224 12.82 324.632 13.252C325.064 13.684 325.28 14.212 325.28 14.836C325.28 15.46 325.064 15.988 324.632 16.42C324.224 16.852 323.72 17.068 323.12 17.068ZM324.704 20.272V40H321.428V20.272H324.704ZM334.284 22.972V34.6C334.284 35.56 334.488 36.244 334.896 36.652C335.304 37.036 336.012 37.228 337.02 37.228H339.432V40H336.48C334.656 40 333.288 39.58 332.376 38.74C331.464 37.9 331.008 36.52 331.008 34.6V22.972H328.452V20.272H331.008V15.304H334.284V20.272H339.432V22.972H334.284ZM360.393 20.272L348.513 49.288H345.129L349.017 39.784L341.061 20.272H344.697L350.889 36.256L357.009 20.272H360.393ZM377.28 22.972V34.6C377.28 35.56 377.484 36.244 377.892 36.652C378.3 37.036 379.008 37.228 380.016 37.228H382.428V40H379.476C377.652 40 376.284 39.58 375.372 38.74C374.46 37.9 374.004 36.52 374.004 34.6V22.972H371.448V20.272H374.004V15.304H377.28V20.272H382.428V22.972H377.28ZM395.001 40.324C393.153 40.324 391.473 39.904 389.961 39.064C388.473 38.224 387.297 37.036 386.433 35.5C385.593 33.94 385.173 32.14 385.173 30.1C385.173 28.084 385.605 26.308 386.469 24.772C387.357 23.212 388.557 22.024 390.069 21.208C391.581 20.368 393.273 19.948 395.145 19.948C397.017 19.948 398.709 20.368 400.221 21.208C401.733 22.024 402.921 23.2 403.785 24.736C404.673 26.272 405.117 28.06 405.117 30.1C405.117 32.14 404.661 33.94 403.749 35.5C402.861 37.036 401.649 38.224 400.113 39.064C398.577 39.904 396.873 40.324 395.001 40.324ZM395.001 37.444C396.177 37.444 397.281 37.168 398.313 36.616C399.345 36.064 400.173 35.236 400.797 34.132C401.445 33.028 401.769 31.684 401.769 30.1C401.769 28.516 401.457 27.172 400.833 26.068C400.209 24.964 399.393 24.148 398.385 23.62C397.377 23.068 396.285 22.792 395.109 22.792C393.909 22.792 392.805 23.068 391.797 23.62C390.813 24.148 390.021 24.964 389.421 26.068C388.821 27.172 388.521 28.516 388.521 30.1C388.521 31.708 388.809 33.064 389.385 34.168C389.985 35.272 390.777 36.1 391.761 36.652C392.745 37.18 393.825 37.444 395.001 37.444Z" fill="#4E4646"/>
<path d="M7.008 167.168C5.904 167.168 4.928 166.976 4.08 166.592C3.248 166.208 2.592 165.672 2.112 164.984C1.632 164.296 1.376 163.528 1.344 162.68H3.12C3.2 163.496 3.56 164.216 4.2 164.84C4.84 165.448 5.776 165.752 7.008 165.752C8.144 165.752 9.04 165.464 9.696 164.888C10.368 164.296 10.704 163.552 10.704 162.656C10.704 161.936 10.52 161.36 10.152 160.928C9.784 160.48 9.328 160.152 8.784 159.944C8.24 159.72 7.488 159.48 6.528 159.224C5.408 158.92 4.52 158.624 3.864 158.336C3.208 158.048 2.648 157.6 2.184 156.992C1.72 156.384 1.488 155.56 1.488 154.52C1.488 153.656 1.712 152.888 2.16 152.216C2.608 151.528 3.24 150.992 4.056 150.608C4.872 150.224 5.808 150.032 6.864 150.032C8.416 150.032 9.664 150.416 10.608 151.184C11.568 151.936 12.12 152.912 12.264 154.112H10.44C10.328 153.424 9.952 152.816 9.312 152.288C8.672 151.744 7.808 151.472 6.72 151.472C5.712 151.472 4.872 151.744 4.2 152.288C3.528 152.816 3.192 153.544 3.192 154.472C3.192 155.176 3.376 155.744 3.744 156.176C4.112 156.608 4.568 156.936 5.112 157.16C5.672 157.384 6.424 157.624 7.368 157.88C8.456 158.184 9.336 158.488 10.008 158.792C10.68 159.08 11.248 159.528 11.712 160.136C12.176 160.744 12.408 161.56 12.408 162.584C12.408 163.368 12.2 164.112 11.784 164.816C11.368 165.52 10.752 166.088 9.936 166.52C9.12 166.952 8.144 167.168 7.008 167.168ZM27.5104 159.776C27.5104 160.352 27.4944 160.792 27.4624 161.096H16.5904C16.6384 162.088 16.8784 162.936 17.3104 163.64C17.7424 164.344 18.3104 164.88 19.0144 165.248C19.7184 165.6 20.4864 165.776 21.3184 165.776C22.4064 165.776 23.3184 165.512 24.0544 164.984C24.8064 164.456 25.3024 163.744 25.5424 162.848H27.3184C26.9984 164.128 26.3104 165.176 25.2544 165.992C24.2144 166.792 22.9024 167.192 21.3184 167.192C20.0864 167.192 18.9824 166.92 18.0064 166.376C17.0304 165.816 16.2624 165.032 15.7024 164.024C15.1584 163 14.8864 161.808 14.8864 160.448C14.8864 159.088 15.1584 157.896 15.7024 156.872C16.2464 155.848 17.0064 155.064 17.9824 154.52C18.9584 153.976 20.0704 153.704 21.3184 153.704C22.5664 153.704 23.6544 153.976 24.5824 154.52C25.5264 155.064 26.2464 155.8 26.7424 156.728C27.2544 157.64 27.5104 158.656 27.5104 159.776ZM25.8064 159.728C25.8224 158.752 25.6224 157.92 25.2064 157.232C24.8064 156.544 24.2544 156.024 23.5504 155.672C22.8464 155.32 22.0784 155.144 21.2464 155.144C19.9984 155.144 18.9344 155.544 18.0544 156.344C17.1744 157.144 16.6864 158.272 16.5904 159.728H25.8064ZM42.4401 159.776C42.4401 160.352 42.4241 160.792 42.3921 161.096H31.5201C31.5681 162.088 31.8081 162.936 32.2401 163.64C32.6721 164.344 33.2401 164.88 33.9441 165.248C34.6481 165.6 35.4161 165.776 36.2481 165.776C37.3361 165.776 38.2481 165.512 38.9841 164.984C39.7361 164.456 40.2321 163.744 40.4721 162.848H42.2481C41.9281 164.128 41.2401 165.176 40.1841 165.992C39.1441 166.792 37.8321 167.192 36.2481 167.192C35.0161 167.192 33.9121 166.92 32.9361 166.376C31.9601 165.816 31.1921 165.032 30.6321 164.024C30.0881 163 29.8161 161.808 29.8161 160.448C29.8161 159.088 30.0881 157.896 30.6321 156.872C31.1761 155.848 31.9361 155.064 32.9121 154.52C33.8881 153.976 35.0001 153.704 36.2481 153.704C37.4961 153.704 38.5841 153.976 39.5121 154.52C40.4561 155.064 41.1761 155.8 41.6721 156.728C42.1841 157.64 42.4401 158.656 42.4401 159.776ZM40.7361 159.728C40.7521 158.752 40.5521 157.92 40.1361 157.232C39.7361 156.544 39.1841 156.024 38.4801 155.672C37.7761 155.32 37.0081 155.144 36.1761 155.144C34.9281 155.144 33.8641 155.544 32.9841 156.344C32.1041 157.144 31.6161 158.272 31.5201 159.728H40.7361ZM58.3397 153.656C59.3317 153.656 60.2197 153.864 61.0037 154.28C61.8037 154.696 62.4277 155.336 62.8757 156.2C63.3397 157.048 63.5717 158.088 63.5717 159.32V167H61.9157V159.512C61.9157 158.088 61.5557 157 60.8357 156.248C60.1317 155.496 59.1637 155.12 57.9317 155.12C56.6677 155.12 55.6597 155.52 54.9077 156.32C54.1557 157.12 53.7797 158.296 53.7797 159.848V167H52.0997V149.24H53.7797V156.128C54.1957 155.344 54.8037 154.736 55.6037 154.304C56.4197 153.872 57.3317 153.656 58.3397 153.656ZM73.0232 167.192C71.7912 167.192 70.6792 166.92 69.6872 166.376C68.7112 165.816 67.9352 165.032 67.3592 164.024C66.7992 163 66.5192 161.808 66.5192 160.448C66.5192 159.088 66.8072 157.904 67.3832 156.896C67.9592 155.872 68.7432 155.088 69.7352 154.544C70.7272 153.984 71.8392 153.704 73.0712 153.704C74.3032 153.704 75.4152 153.984 76.4072 154.544C77.4152 155.088 78.1992 155.872 78.7592 156.896C79.3352 157.904 79.6232 159.088 79.6232 160.448C79.6232 161.792 79.3352 162.976 78.7592 164C78.1832 165.024 77.3912 165.816 76.3832 166.376C75.3752 166.92 74.2552 167.192 73.0232 167.192ZM73.0232 165.728C73.8872 165.728 74.6872 165.536 75.4232 165.152C76.1592 164.752 76.7512 164.16 77.1992 163.376C77.6632 162.576 77.8952 161.6 77.8952 160.448C77.8952 159.296 77.6712 158.328 77.2232 157.544C76.7752 156.744 76.1832 156.152 75.4472 155.768C74.7112 155.368 73.9112 155.168 73.0472 155.168C72.1832 155.168 71.3832 155.368 70.6472 155.768C69.9112 156.152 69.3192 156.744 68.8712 157.544C68.4392 158.328 68.2232 159.296 68.2232 160.448C68.2232 161.6 68.4392 162.576 68.8712 163.376C69.3192 164.16 69.9032 164.752 70.6232 165.152C71.3592 165.536 72.1592 165.728 73.0232 165.728ZM99.9656 153.896L95.8616 167H94.1816L90.5576 156.008L86.9336 167H85.2296L81.1256 153.896H82.8296L86.0936 165.296L89.7656 153.896H91.4456L95.0696 165.32L98.3096 153.896H99.9656ZM119.642 153.896L111.866 173.168H110.114L112.658 166.928L107.282 153.896H109.13L113.594 165.08L117.914 153.896H119.642ZM127.656 167.192C126.424 167.192 125.312 166.92 124.32 166.376C123.344 165.816 122.568 165.032 121.992 164.024C121.432 163 121.152 161.808 121.152 160.448C121.152 159.088 121.44 157.904 122.016 156.896C122.592 155.872 123.376 155.088 124.368 154.544C125.36 153.984 126.472 153.704 127.704 153.704C128.936 153.704 130.048 153.984 131.04 154.544C132.048 155.088 132.832 155.872 133.392 156.896C133.968 157.904 134.256 159.088 134.256 160.448C134.256 161.792 133.968 162.976 133.392 164C132.816 165.024 132.024 165.816 131.016 166.376C130.008 166.92 128.888 167.192 127.656 167.192ZM127.656 165.728C128.52 165.728 129.32 165.536 130.056 165.152C130.792 164.752 131.384 164.16 131.832 163.376C132.296 162.576 132.528 161.6 132.528 160.448C132.528 159.296 132.304 158.328 131.856 157.544C131.408 156.744 130.816 156.152 130.08 155.768C129.344 155.368 128.544 155.168 127.68 155.168C126.816 155.168 126.016 155.368 125.28 155.768C124.544 156.152 123.952 156.744 123.504 157.544C123.072 158.328 122.856 159.296 122.856 160.448C122.856 161.6 123.072 162.576 123.504 163.376C123.952 164.16 124.536 164.752 125.256 165.152C125.992 165.536 126.792 165.728 127.656 165.728ZM148.67 153.896V167H146.99V164.696C146.606 165.512 146.014 166.136 145.214 166.568C144.414 167 143.518 167.216 142.526 167.216C140.958 167.216 139.678 166.736 138.686 165.776C137.694 164.8 137.198 163.392 137.198 161.552V153.896H138.854V161.36C138.854 162.784 139.206 163.872 139.91 164.624C140.63 165.376 141.606 165.752 142.838 165.752C144.102 165.752 145.11 165.352 145.862 164.552C146.614 163.752 146.99 162.576 146.99 161.024V153.896H148.67ZM158.324 160.448C158.324 159.088 158.596 157.904 159.14 156.896C159.684 155.872 160.436 155.088 161.396 154.544C162.356 153.984 163.452 153.704 164.684 153.704C166.3 153.704 167.628 154.104 168.668 154.904C169.724 155.704 170.404 156.792 170.708 158.168H168.908C168.684 157.224 168.196 156.488 167.444 155.96C166.708 155.416 165.788 155.144 164.684 155.144C163.804 155.144 163.012 155.344 162.308 155.744C161.604 156.144 161.044 156.744 160.628 157.544C160.228 158.328 160.028 159.296 160.028 160.448C160.028 161.6 160.228 162.576 160.628 163.376C161.044 164.176 161.604 164.776 162.308 165.176C163.012 165.576 163.804 165.776 164.684 165.776C165.788 165.776 166.708 165.512 167.444 164.984C168.196 164.44 168.684 163.688 168.908 162.728H170.708C170.404 164.072 169.724 165.152 168.668 165.968C167.612 166.784 166.284 167.192 164.684 167.192C163.452 167.192 162.356 166.92 161.396 166.376C160.436 165.816 159.684 165.032 159.14 164.024C158.596 163 158.324 161.808 158.324 160.448ZM173.043 160.424C173.043 159.08 173.307 157.904 173.835 156.896C174.379 155.872 175.123 155.088 176.067 154.544C177.027 153.984 178.107 153.704 179.307 153.704C180.555 153.704 181.627 153.992 182.523 154.568C183.435 155.144 184.091 155.88 184.491 156.776V153.896H186.171V167H184.491V164.096C184.075 164.992 183.411 165.736 182.499 166.328C181.603 166.904 180.531 167.192 179.283 167.192C178.099 167.192 177.027 166.912 176.067 166.352C175.123 165.792 174.379 165 173.835 163.976C173.307 162.952 173.043 161.768 173.043 160.424ZM184.491 160.448C184.491 159.392 184.275 158.464 183.843 157.664C183.411 156.864 182.819 156.248 182.067 155.816C181.331 155.384 180.515 155.168 179.619 155.168C178.691 155.168 177.859 155.376 177.123 155.792C176.387 156.208 175.803 156.816 175.371 157.616C174.955 158.4 174.747 159.336 174.747 160.424C174.747 161.496 174.955 162.44 175.371 163.256C175.803 164.056 176.387 164.672 177.123 165.104C177.859 165.52 178.691 165.728 179.619 165.728C180.515 165.728 181.331 165.512 182.067 165.08C182.819 164.648 183.411 164.032 183.843 163.232C184.275 162.432 184.491 161.504 184.491 160.448ZM196.15 153.656C197.718 153.656 198.998 154.144 199.99 155.12C200.982 156.08 201.478 157.48 201.478 159.32V167H199.822V159.512C199.822 158.088 199.462 157 198.742 156.248C198.038 155.496 197.07 155.12 195.838 155.12C194.574 155.12 193.566 155.52 192.814 156.32C192.062 157.12 191.686 158.296 191.686 159.848V167H190.006V153.896H191.686V156.128C192.102 155.328 192.702 154.72 193.486 154.304C194.27 153.872 195.158 153.656 196.15 153.656ZM211.011 160.424C211.011 159.08 211.283 157.904 211.827 156.896C212.371 155.872 213.115 155.088 214.059 154.544C215.019 153.984 216.099 153.704 217.299 153.704C218.531 153.704 219.603 154 220.515 154.592C221.427 155.168 222.075 155.896 222.459 156.776V153.896H224.139V173.192H222.459V164.12C222.075 165 221.419 165.736 220.491 166.328C219.579 166.904 218.499 167.192 217.251 167.192C216.067 167.192 214.995 166.912 214.035 166.352C213.091 165.792 212.347 165 211.803 163.976C211.275 162.952 211.011 161.768 211.011 160.424ZM222.459 160.448C222.459 159.392 222.243 158.464 221.811 157.664C221.379 156.864 220.787 156.248 220.035 155.816C219.299 155.384 218.483 155.168 217.587 155.168C216.659 155.168 215.827 155.376 215.091 155.792C214.355 156.208 213.771 156.816 213.339 157.616C212.923 158.4 212.715 159.336 212.715 160.424C212.715 161.496 212.923 162.44 213.339 163.256C213.771 164.056 214.355 164.672 215.091 165.104C215.827 165.52 216.659 165.728 217.587 165.728C218.483 165.728 219.299 165.512 220.035 165.08C220.787 164.648 221.379 164.032 221.811 163.232C222.243 162.432 222.459 161.504 222.459 160.448ZM239.327 153.896V167H237.647V164.696C237.263 165.512 236.671 166.136 235.871 166.568C235.071 167 234.175 167.216 233.183 167.216C231.615 167.216 230.335 166.736 229.343 165.776C228.351 164.8 227.855 163.392 227.855 161.552V153.896H229.511V161.36C229.511 162.784 229.863 163.872 230.567 164.624C231.287 165.376 232.263 165.752 233.495 165.752C234.759 165.752 235.767 165.352 236.519 164.552C237.271 163.752 237.647 162.576 237.647 161.024V153.896H239.327ZM244.002 151.424C243.666 151.424 243.378 151.304 243.138 151.064C242.898 150.824 242.778 150.528 242.778 150.176C242.778 149.824 242.898 149.536 243.138 149.312C243.378 149.072 243.666 148.952 244.002 148.952C244.338 148.952 244.626 149.072 244.866 149.312C245.106 149.536 245.226 149.824 245.226 150.176C245.226 150.528 245.106 150.824 244.866 151.064C244.626 151.304 244.338 151.424 244.002 151.424ZM244.842 153.896V167H243.162V153.896H244.842ZM247.879 160.448C247.879 159.088 248.151 157.904 248.695 156.896C249.239 155.872 249.991 155.088 250.951 154.544C251.911 153.984 253.007 153.704 254.239 153.704C255.855 153.704 257.183 154.104 258.223 154.904C259.279 155.704 259.959 156.792 260.263 158.168H258.463C258.239 157.224 257.751 156.488 256.999 155.96C256.263 155.416 255.343 155.144 254.239 155.144C253.359 155.144 252.567 155.344 251.863 155.744C251.159 156.144 250.599 156.744 250.183 157.544C249.783 158.328 249.583 159.296 249.583 160.448C249.583 161.6 249.783 162.576 250.183 163.376C250.599 164.176 251.159 164.776 251.863 165.176C252.567 165.576 253.359 165.776 254.239 165.776C255.343 165.776 256.263 165.512 256.999 164.984C257.751 164.44 258.239 163.688 258.463 162.728H260.263C259.959 164.072 259.279 165.152 258.223 165.968C257.167 166.784 255.839 167.192 254.239 167.192C253.007 167.192 251.911 166.92 250.951 166.376C249.991 165.816 249.239 165.032 248.695 164.024C248.151 163 247.879 161.808 247.879 160.448ZM270.445 167L265.045 161.12V167H263.365V149.24H265.045V159.752L270.325 153.896H272.677L266.461 160.424L272.725 167H270.445ZM276.577 149.24V167H274.897V149.24H276.577ZM291.181 153.896L283.405 173.168H281.653L284.197 166.928L278.821 153.896H280.669L285.133 165.08L289.453 153.896H291.181ZM301.725 156.224C302.093 155.408 302.653 154.776 303.405 154.328C304.173 153.88 305.109 153.656 306.213 153.656V155.408H305.757C304.541 155.408 303.565 155.736 302.829 156.392C302.093 157.048 301.725 158.144 301.725 159.68V167H300.045V153.896H301.725V156.224ZM320.596 159.776C320.596 160.352 320.58 160.792 320.548 161.096H309.676C309.724 162.088 309.964 162.936 310.396 163.64C310.828 164.344 311.396 164.88 312.1 165.248C312.804 165.6 313.572 165.776 314.404 165.776C315.492 165.776 316.404 165.512 317.14 164.984C317.892 164.456 318.388 163.744 318.628 162.848H320.404C320.084 164.128 319.396 165.176 318.34 165.992C317.3 166.792 315.988 167.192 314.404 167.192C313.172 167.192 312.068 166.92 311.092 166.376C310.116 165.816 309.348 165.032 308.788 164.024C308.244 163 307.972 161.808 307.972 160.448C307.972 159.088 308.244 157.896 308.788 156.872C309.332 155.848 310.092 155.064 311.068 154.52C312.044 153.976 313.156 153.704 314.404 153.704C315.652 153.704 316.74 153.976 317.668 154.52C318.612 155.064 319.332 155.8 319.828 156.728C320.34 157.64 320.596 158.656 320.596 159.776ZM318.892 159.728C318.908 158.752 318.708 157.92 318.292 157.232C317.892 156.544 317.34 156.024 316.636 155.672C315.932 155.32 315.164 155.144 314.332 155.144C313.084 155.144 312.02 155.544 311.14 156.344C310.26 157.144 309.772 158.272 309.676 159.728H318.892ZM322.902 160.424C322.902 159.08 323.166 157.904 323.694 156.896C324.238 155.872 324.982 155.088 325.926 154.544C326.886 153.984 327.966 153.704 329.166 153.704C330.414 153.704 331.486 153.992 332.382 154.568C333.294 155.144 333.95 155.88 334.35 156.776V153.896H336.03V167H334.35V164.096C333.934 164.992 333.27 165.736 332.358 166.328C331.462 166.904 330.39 167.192 329.142 167.192C327.958 167.192 326.886 166.912 325.926 166.352C324.982 165.792 324.238 165 323.694 163.976C323.166 162.952 322.902 161.768 322.902 160.424ZM334.35 160.448C334.35 159.392 334.134 158.464 333.702 157.664C333.27 156.864 332.678 156.248 331.926 155.816C331.19 155.384 330.374 155.168 329.478 155.168C328.55 155.168 327.718 155.376 326.982 155.792C326.246 156.208 325.662 156.816 325.23 157.616C324.814 158.4 324.606 159.336 324.606 160.424C324.606 161.496 324.814 162.44 325.23 163.256C325.662 164.056 326.246 164.672 326.982 165.104C327.718 165.52 328.55 165.728 329.478 165.728C330.374 165.728 331.19 165.512 331.926 165.08C332.678 164.648 333.27 164.032 333.702 163.232C334.134 162.432 334.35 161.504 334.35 160.448ZM339.097 160.448C339.097 159.088 339.369 157.904 339.913 156.896C340.457 155.872 341.209 155.088 342.169 154.544C343.129 153.984 344.225 153.704 345.457 153.704C347.073 153.704 348.401 154.104 349.441 154.904C350.497 155.704 351.177 156.792 351.481 158.168H349.681C349.457 157.224 348.969 156.488 348.217 155.96C347.481 155.416 346.561 155.144 345.457 155.144C344.577 155.144 343.785 155.344 343.081 155.744C342.377 156.144 341.817 156.744 341.401 157.544C341.001 158.328 340.801 159.296 340.801 160.448C340.801 161.6 341.001 162.576 341.401 163.376C341.817 164.176 342.377 164.776 343.081 165.176C343.785 165.576 344.577 165.776 345.457 165.776C346.561 165.776 347.481 165.512 348.217 164.984C348.969 164.44 349.457 163.688 349.681 162.728H351.481C351.177 164.072 350.497 165.152 349.441 165.968C348.385 166.784 347.057 167.192 345.457 167.192C344.225 167.192 343.129 166.92 342.169 166.376C341.209 165.816 340.457 165.032 339.913 164.024C339.369 163 339.097 161.808 339.097 160.448ZM360.824 153.656C361.816 153.656 362.704 153.864 363.488 154.28C364.288 154.696 364.912 155.336 365.36 156.2C365.824 157.048 366.056 158.088 366.056 159.32V167H364.4V159.512C364.4 158.088 364.04 157 363.32 156.248C362.616 155.496 361.648 155.12 360.416 155.12C359.152 155.12 358.144 155.52 357.392 156.32C356.64 157.12 356.264 158.296 356.264 159.848V167H354.584V149.24H356.264V156.128C356.68 155.344 357.288 154.736 358.088 154.304C358.904 153.872 359.816 153.656 360.824 153.656ZM387.158 153.896L379.382 173.168H377.63L380.174 166.928L374.798 153.896H376.646L381.11 165.08L385.43 153.896H387.158ZM395.172 167.192C393.94 167.192 392.828 166.92 391.836 166.376C390.86 165.816 390.084 165.032 389.508 164.024C388.948 163 388.668 161.808 388.668 160.448C388.668 159.088 388.956 157.904 389.532 156.896C390.108 155.872 390.892 155.088 391.884 154.544C392.876 153.984 393.988 153.704 395.22 153.704C396.452 153.704 397.564 153.984 398.556 154.544C399.564 155.088 400.348 155.872 400.908 156.896C401.484 157.904 401.772 159.088 401.772 160.448C401.772 161.792 401.484 162.976 400.908 164C400.332 165.024 399.54 165.816 398.532 166.376C397.524 166.92 396.404 167.192 395.172 167.192ZM395.172 165.728C396.036 165.728 396.836 165.536 397.572 165.152C398.308 164.752 398.9 164.16 399.348 163.376C399.812 162.576 400.044 161.6 400.044 160.448C400.044 159.296 399.82 158.328 399.372 157.544C398.924 156.744 398.332 156.152 397.596 155.768C396.86 155.368 396.06 155.168 395.196 155.168C394.332 155.168 393.532 155.368 392.796 155.768C392.06 156.152 391.468 156.744 391.02 157.544C390.588 158.328 390.372 159.296 390.372 160.448C390.372 161.6 390.588 162.576 391.02 163.376C391.468 164.16 392.052 164.752 392.772 165.152C393.508 165.536 394.308 165.728 395.172 165.728ZM416.186 153.896V167H414.506V164.696C414.122 165.512 413.53 166.136 412.73 166.568C411.93 167 411.034 167.216 410.042 167.216C408.474 167.216 407.194 166.736 406.202 165.776C405.21 164.8 404.714 163.392 404.714 161.552V153.896H406.37V161.36C406.37 162.784 406.722 163.872 407.426 164.624C408.146 165.376 409.122 165.752 410.354 165.752C411.618 165.752 412.626 165.352 413.378 164.552C414.13 163.752 414.506 162.576 414.506 161.024V153.896H416.186ZM421.702 156.224C422.07 155.408 422.63 154.776 423.382 154.328C424.15 153.88 425.086 153.656 426.19 153.656V155.408H425.734C424.518 155.408 423.542 155.736 422.806 156.392C422.07 157.048 421.702 158.144 421.702 159.68V167H420.022V153.896H421.702V156.224ZM447.159 159.776C447.159 160.352 447.143 160.792 447.111 161.096H436.239C436.287 162.088 436.527 162.936 436.959 163.64C437.391 164.344 437.959 164.88 438.663 165.248C439.367 165.6 440.135 165.776 440.967 165.776C442.055 165.776 442.967 165.512 443.703 164.984C444.455 164.456 444.951 163.744 445.191 162.848H446.967C446.647 164.128 445.959 165.176 444.903 165.992C443.863 166.792 442.551 167.192 440.967 167.192C439.735 167.192 438.631 166.92 437.655 166.376C436.679 165.816 435.911 165.032 435.351 164.024C434.807 163 434.535 161.808 434.535 160.448C434.535 159.088 434.807 157.896 435.351 156.872C435.895 155.848 436.655 155.064 437.631 154.52C438.607 153.976 439.719 153.704 440.967 153.704C442.215 153.704 443.303 153.976 444.231 154.52C445.175 155.064 445.895 155.8 446.391 156.728C446.903 157.64 447.159 158.656 447.159 159.776ZM445.455 159.728C445.471 158.752 445.271 157.92 444.855 157.232C444.455 156.544 443.903 156.024 443.199 155.672C442.495 155.32 441.727 155.144 440.895 155.144C439.647 155.144 438.583 155.544 437.703 156.344C436.823 157.144 436.335 158.272 436.239 159.728H445.455ZM454.889 165.368L459.305 153.896H461.081L455.825 167H453.929L448.673 153.896H450.473L454.889 165.368ZM475.214 159.776C475.214 160.352 475.198 160.792 475.166 161.096H464.294C464.342 162.088 464.582 162.936 465.014 163.64C465.446 164.344 466.014 164.88 466.718 165.248C467.422 165.6 468.19 165.776 469.022 165.776C470.11 165.776 471.022 165.512 471.758 164.984C472.51 164.456 473.006 163.744 473.246 162.848H475.022C474.702 164.128 474.014 165.176 472.958 165.992C471.918 166.792 470.606 167.192 469.022 167.192C467.79 167.192 466.686 166.92 465.71 166.376C464.734 165.816 463.966 165.032 463.406 164.024C462.862 163 462.59 161.808 462.59 160.448C462.59 159.088 462.862 157.896 463.406 156.872C463.95 155.848 464.71 155.064 465.686 154.52C466.662 153.976 467.774 153.704 469.022 153.704C470.27 153.704 471.358 153.976 472.286 154.52C473.23 155.064 473.95 155.8 474.446 156.728C474.958 157.64 475.214 158.656 475.214 159.776ZM473.51 159.728C473.526 158.752 473.326 157.92 472.91 157.232C472.51 156.544 471.958 156.024 471.254 155.672C470.55 155.32 469.782 155.144 468.95 155.144C467.702 155.144 466.638 155.544 465.758 156.344C464.878 157.144 464.39 158.272 464.294 159.728H473.51ZM484.431 153.656C485.999 153.656 487.279 154.144 488.271 155.12C489.263 156.08 489.759 157.48 489.759 159.32V167H488.103V159.512C488.103 158.088 487.743 157 487.023 156.248C486.319 155.496 485.351 155.12 484.119 155.12C482.855 155.12 481.847 155.52 481.095 156.32C480.343 157.12 479.967 158.296 479.967 159.848V167H478.287V153.896H479.967V156.128C480.383 155.328 480.983 154.72 481.767 154.304C482.551 153.872 483.439 153.656 484.431 153.656ZM495.659 155.312V163.448C495.659 164.248 495.811 164.8 496.115 165.104C496.419 165.408 496.955 165.56 497.723 165.56H499.259V167H497.459C496.275 167 495.395 166.728 494.819 166.184C494.243 165.624 493.955 164.712 493.955 163.448V155.312H492.131V153.896H493.955V150.608H495.659V153.896H499.259V155.312H495.659ZM6.576 201.368L10.992 189.896H12.768L7.512 203H5.616L0.36 189.896H2.16L6.576 201.368ZM26.901 195.776C26.901 196.352 26.885 196.792 26.853 197.096H15.981C16.029 198.088 16.269 198.936 16.701 199.64C17.133 200.344 17.701 200.88 18.405 201.248C19.109 201.6 19.877 201.776 20.709 201.776C21.797 201.776 22.709 201.512 23.445 200.984C24.197 200.456 24.693 199.744 24.933 198.848H26.709C26.389 200.128 25.701 201.176 24.645 201.992C23.605 202.792 22.293 203.192 20.709 203.192C19.477 203.192 18.373 202.92 17.397 202.376C16.421 201.816 15.653 201.032 15.093 200.024C14.549 199 14.277 197.808 14.277 196.448C14.277 195.088 14.549 193.896 15.093 192.872C15.637 191.848 16.397 191.064 17.373 190.52C18.349 189.976 19.461 189.704 20.709 189.704C21.957 189.704 23.045 189.976 23.973 190.52C24.917 191.064 25.637 191.8 26.133 192.728C26.645 193.64 26.901 194.656 26.901 195.776ZM25.197 195.728C25.213 194.752 25.013 193.92 24.597 193.232C24.197 192.544 23.645 192.024 22.941 191.672C22.237 191.32 21.469 191.144 20.637 191.144C19.389 191.144 18.325 191.544 17.445 192.344C16.565 193.144 16.077 194.272 15.981 195.728H25.197ZM36.1187 189.656C37.6867 189.656 38.9667 190.144 39.9587 191.12C40.9507 192.08 41.4467 193.48 41.4467 195.32V203H39.7907V195.512C39.7907 194.088 39.4307 193 38.7107 192.248C38.0067 191.496 37.0387 191.12 35.8067 191.12C34.5427 191.12 33.5347 191.52 32.7827 192.32C32.0307 193.12 31.6547 194.296 31.6547 195.848V203H29.9747V189.896H31.6547V192.128C32.0707 191.328 32.6707 190.72 33.4547 190.304C34.2387 189.872 35.1267 189.656 36.1187 189.656ZM56.5142 189.896V203H54.8342V200.696C54.4502 201.512 53.8582 202.136 53.0582 202.568C52.2582 203 51.3622 203.216 50.3702 203.216C48.8022 203.216 47.5222 202.736 46.5302 201.776C45.5382 200.8 45.0422 199.392 45.0422 197.552V189.896H46.6982V197.36C46.6982 198.784 47.0502 199.872 47.7542 200.624C48.4742 201.376 49.4502 201.752 50.6822 201.752C51.9462 201.752 52.9542 201.352 53.7062 200.552C54.4582 199.752 54.8342 198.576 54.8342 197.024V189.896H56.5142ZM72.2057 195.776C72.2057 196.352 72.1897 196.792 72.1577 197.096H61.2857C61.3337 198.088 61.5737 198.936 62.0057 199.64C62.4377 200.344 63.0057 200.88 63.7097 201.248C64.4137 201.6 65.1817 201.776 66.0137 201.776C67.1017 201.776 68.0137 201.512 68.7497 200.984C69.5017 200.456 69.9977 199.744 70.2377 198.848H72.0137C71.6937 200.128 71.0057 201.176 69.9497 201.992C68.9097 202.792 67.5977 203.192 66.0137 203.192C64.7817 203.192 63.6777 202.92 62.7017 202.376C61.7257 201.816 60.9577 201.032 60.3977 200.024C59.8537 199 59.5817 197.808 59.5817 196.448C59.5817 195.088 59.8537 193.896 60.3977 192.872C60.9417 191.848 61.7017 191.064 62.6777 190.52C63.6537 189.976 64.7657 189.704 66.0137 189.704C67.2617 189.704 68.3497 189.976 69.2777 190.52C70.2217 191.064 70.9417 191.8 71.4377 192.728C71.9497 193.64 72.2057 194.656 72.2057 195.776ZM70.5017 195.728C70.5177 194.752 70.3177 193.92 69.9017 193.232C69.5017 192.544 68.9497 192.024 68.2457 191.672C67.5417 191.32 66.7737 191.144 65.9417 191.144C64.6937 191.144 63.6297 191.544 62.7497 192.344C61.8697 193.144 61.3817 194.272 61.2857 195.728H70.5017ZM93.2173 189.896V203H91.5373V200.696C91.1533 201.512 90.5613 202.136 89.7613 202.568C88.9613 203 88.0653 203.216 87.0733 203.216C85.5053 203.216 84.2253 202.736 83.2333 201.776C82.2413 200.8 81.7453 199.392 81.7453 197.552V189.896H83.4013V197.36C83.4013 198.784 83.7533 199.872 84.4573 200.624C85.1773 201.376 86.1533 201.752 87.3853 201.752C88.6493 201.752 89.6573 201.352 90.4093 200.552C91.1613 199.752 91.5373 198.576 91.5373 197.024V189.896H93.2173ZM101.565 203.192C100.061 203.192 98.8288 202.848 97.8688 202.16C96.9248 201.456 96.3968 200.504 96.2848 199.304H98.0128C98.0928 200.04 98.4368 200.64 99.0448 201.104C99.6688 201.552 100.501 201.776 101.541 201.776C102.453 201.776 103.165 201.56 103.677 201.128C104.205 200.696 104.469 200.16 104.469 199.52C104.469 199.072 104.325 198.704 104.037 198.416C103.749 198.128 103.381 197.904 102.933 197.744C102.501 197.568 101.909 197.384 101.157 197.192C100.181 196.936 99.3888 196.68 98.7808 196.424C98.1728 196.168 97.6528 195.792 97.2208 195.296C96.8048 194.784 96.5968 194.104 96.5968 193.256C96.5968 192.616 96.7888 192.024 97.1728 191.48C97.5568 190.936 98.1008 190.504 98.8048 190.184C99.5088 189.864 100.309 189.704 101.205 189.704C102.613 189.704 103.749 190.064 104.613 190.784C105.477 191.488 105.941 192.464 106.005 193.712H104.325C104.277 192.944 103.973 192.328 103.413 191.864C102.869 191.384 102.117 191.144 101.157 191.144C100.309 191.144 99.6208 191.344 99.0928 191.744C98.5648 192.144 98.3008 192.64 98.3008 193.232C98.3008 193.744 98.4528 194.168 98.7568 194.504C99.0768 194.824 99.4688 195.08 99.9328 195.272C100.397 195.448 101.021 195.648 101.805 195.872C102.749 196.128 103.501 196.376 104.061 196.616C104.621 196.856 105.101 197.208 105.501 197.672C105.901 198.136 106.109 198.752 106.125 199.52C106.125 200.224 105.933 200.856 105.549 201.416C105.165 201.96 104.629 202.392 103.941 202.712C103.253 203.032 102.461 203.192 101.565 203.192ZM110.127 187.424C109.791 187.424 109.503 187.304 109.263 187.064C109.023 186.824 108.903 186.528 108.903 186.176C108.903 185.824 109.023 185.536 109.263 185.312C109.503 185.072 109.791 184.952 110.127 184.952C110.463 184.952 110.751 185.072 110.991 185.312C111.231 185.536 111.351 185.824 111.351 186.176C111.351 186.528 111.231 186.824 110.991 187.064C110.751 187.304 110.463 187.424 110.127 187.424ZM110.967 189.896V203H109.287V189.896H110.967ZM120.916 189.656C122.484 189.656 123.764 190.144 124.756 191.12C125.748 192.08 126.244 193.48 126.244 195.32V203H124.588V195.512C124.588 194.088 124.228 193 123.508 192.248C122.804 191.496 121.836 191.12 120.604 191.12C119.34 191.12 118.332 191.52 117.58 192.32C116.828 193.12 116.452 194.296 116.452 195.848V203H114.772V189.896H116.452V192.128C116.868 191.328 117.468 190.72 118.252 190.304C119.036 189.872 119.924 189.656 120.916 189.656ZM135.455 189.704C136.687 189.704 137.759 189.992 138.671 190.568C139.583 191.144 140.239 191.872 140.639 192.752V189.896H142.319V203.336C142.319 204.536 142.055 205.6 141.527 206.528C141.015 207.456 140.295 208.168 139.367 208.664C138.439 209.176 137.383 209.432 136.199 209.432C134.519 209.432 133.119 209.032 131.999 208.232C130.895 207.432 130.207 206.344 129.935 204.968H131.591C131.879 205.88 132.423 206.608 133.223 207.152C134.039 207.696 135.031 207.968 136.199 207.968C137.047 207.968 137.807 207.784 138.479 207.416C139.151 207.064 139.679 206.536 140.063 205.832C140.447 205.128 140.639 204.296 140.639 203.336V200.096C140.223 200.992 139.559 201.736 138.647 202.328C137.751 202.904 136.687 203.192 135.455 203.192C134.255 203.192 133.175 202.912 132.215 202.352C131.271 201.792 130.527 201 129.983 199.976C129.455 198.952 129.191 197.768 129.191 196.424C129.191 195.08 129.455 193.904 129.983 192.896C130.527 191.872 131.271 191.088 132.215 190.544C133.175 189.984 134.255 189.704 135.455 189.704ZM140.639 196.448C140.639 195.392 140.423 194.464 139.991 193.664C139.559 192.864 138.967 192.248 138.215 191.816C137.479 191.384 136.663 191.168 135.767 191.168C134.839 191.168 134.007 191.376 133.271 191.792C132.535 192.208 131.951 192.816 131.519 193.616C131.103 194.4 130.895 195.336 130.895 196.424C130.895 197.496 131.103 198.44 131.519 199.256C131.951 200.056 132.535 200.672 133.271 201.104C134.007 201.52 134.839 201.728 135.767 201.728C136.663 201.728 137.479 201.512 138.215 201.08C138.967 200.648 139.559 200.032 139.991 199.232C140.423 198.432 140.639 197.504 140.639 196.448ZM157.252 203.192C155.748 203.192 154.516 202.848 153.556 202.16C152.612 201.456 152.084 200.504 151.972 199.304H153.7C153.78 200.04 154.124 200.64 154.732 201.104C155.356 201.552 156.188 201.776 157.228 201.776C158.14 201.776 158.852 201.56 159.364 201.128C159.892 200.696 160.156 200.16 160.156 199.52C160.156 199.072 160.012 198.704 159.724 198.416C159.436 198.128 159.068 197.904 158.62 197.744C158.188 197.568 157.596 197.384 156.844 197.192C155.868 196.936 155.076 196.68 154.468 196.424C153.86 196.168 153.34 195.792 152.908 195.296C152.492 194.784 152.284 194.104 152.284 193.256C152.284 192.616 152.476 192.024 152.86 191.48C153.244 190.936 153.788 190.504 154.492 190.184C155.196 189.864 155.996 189.704 156.892 189.704C158.3 189.704 159.436 190.064 160.3 190.784C161.164 191.488 161.628 192.464 161.692 193.712H160.012C159.964 192.944 159.66 192.328 159.1 191.864C158.556 191.384 157.804 191.144 156.844 191.144C155.996 191.144 155.308 191.344 154.78 191.744C154.252 192.144 153.988 192.64 153.988 193.232C153.988 193.744 154.14 194.168 154.444 194.504C154.764 194.824 155.156 195.08 155.62 195.272C156.084 195.448 156.708 195.648 157.492 195.872C158.436 196.128 159.188 196.376 159.748 196.616C160.308 196.856 160.788 197.208 161.188 197.672C161.588 198.136 161.796 198.752 161.812 199.52C161.812 200.224 161.62 200.856 161.236 201.416C160.852 201.96 160.316 202.392 159.628 202.712C158.94 203.032 158.148 203.192 157.252 203.192ZM165.815 187.424C165.479 187.424 165.191 187.304 164.951 187.064C164.711 186.824 164.591 186.528 164.591 186.176C164.591 185.824 164.711 185.536 164.951 185.312C165.191 185.072 165.479 184.952 165.815 184.952C166.151 184.952 166.439 185.072 166.679 185.312C166.919 185.536 167.039 185.824 167.039 186.176C167.039 186.528 166.919 186.824 166.679 187.064C166.439 187.304 166.151 187.424 165.815 187.424ZM166.655 189.896V203H164.975V189.896H166.655ZM186.059 189.656C187.595 189.656 188.843 190.144 189.803 191.12C190.779 192.08 191.267 193.48 191.267 195.32V203H189.611V195.512C189.611 194.088 189.267 193 188.579 192.248C187.891 191.496 186.955 191.12 185.771 191.12C184.539 191.12 183.555 191.528 182.819 192.344C182.083 193.16 181.715 194.344 181.715 195.896V203H180.059V195.512C180.059 194.088 179.715 193 179.027 192.248C178.339 191.496 177.395 191.12 176.195 191.12C174.963 191.12 173.979 191.528 173.243 192.344C172.507 193.16 172.139 194.344 172.139 195.896V203H170.459V189.896H172.139V192.152C172.555 191.336 173.147 190.72 173.915 190.304C174.683 189.872 175.539 189.656 176.483 189.656C177.619 189.656 178.611 189.928 179.459 190.472C180.323 191.016 180.947 191.816 181.331 192.872C181.683 191.832 182.283 191.04 183.131 190.496C183.995 189.936 184.971 189.656 186.059 189.656ZM196.654 192.776C197.07 191.896 197.726 191.168 198.622 190.592C199.534 190 200.614 189.704 201.862 189.704C203.046 189.704 204.11 189.984 205.054 190.544C206.014 191.088 206.758 191.872 207.286 192.896C207.83 193.904 208.102 195.08 208.102 196.424C208.102 197.768 207.83 198.952 207.286 199.976C206.758 201 206.014 201.792 205.054 202.352C204.11 202.912 203.046 203.192 201.862 203.192C200.63 203.192 199.558 202.904 198.646 202.328C197.734 201.736 197.07 201 196.654 200.12V209.192H194.998V189.896H196.654V192.776ZM206.398 196.424C206.398 195.336 206.182 194.4 205.75 193.616C205.334 192.816 204.758 192.208 204.022 191.792C203.286 191.376 202.454 191.168 201.526 191.168C200.63 191.168 199.806 191.384 199.054 191.816C198.318 192.248 197.734 192.864 197.302 193.664C196.87 194.464 196.654 195.392 196.654 196.448C196.654 197.504 196.87 198.432 197.302 199.232C197.734 200.032 198.318 200.648 199.054 201.08C199.806 201.512 200.63 201.728 201.526 201.728C202.454 201.728 203.286 201.52 204.022 201.104C204.758 200.672 205.334 200.056 205.75 199.256C206.182 198.44 206.398 197.496 206.398 196.424ZM212.873 185.24V203H211.193V185.24H212.873ZM227.478 189.896L219.702 209.168H217.95L220.494 202.928L215.118 189.896H216.966L221.43 201.08L225.75 189.896H227.478ZM238.526 191.312V199.448C238.526 200.248 238.678 200.8 238.982 201.104C239.286 201.408 239.822 201.56 240.59 201.56H242.126V203H240.326C239.142 203 238.262 202.728 237.686 202.184C237.11 201.624 236.822 200.712 236.822 199.448V191.312H234.998V189.896H236.822V186.608H238.526V189.896H242.126V191.312H238.526ZM251.137 189.656C252.129 189.656 253.017 189.864 253.801 190.28C254.601 190.696 255.225 191.336 255.673 192.2C256.137 193.048 256.369 194.088 256.369 195.32V203H254.713V195.512C254.713 194.088 254.353 193 253.633 192.248C252.929 191.496 251.961 191.12 250.729 191.12C249.465 191.12 248.457 191.52 247.705 192.32C246.953 193.12 246.577 194.296 246.577 195.848V203H244.897V185.24H246.577V192.128C246.993 191.344 247.601 190.736 248.401 190.304C249.217 189.872 250.129 189.656 251.137 189.656ZM271.94 195.776C271.94 196.352 271.924 196.792 271.892 197.096H261.02C261.068 198.088 261.308 198.936 261.74 199.64C262.172 200.344 262.74 200.88 263.444 201.248C264.148 201.6 264.916 201.776 265.748 201.776C266.836 201.776 267.748 201.512 268.484 200.984C269.236 200.456 269.732 199.744 269.972 198.848H271.748C271.428 200.128 270.74 201.176 269.684 201.992C268.644 202.792 267.332 203.192 265.748 203.192C264.516 203.192 263.412 202.92 262.436 202.376C261.46 201.816 260.692 201.032 260.132 200.024C259.588 199 259.316 197.808 259.316 196.448C259.316 195.088 259.588 193.896 260.132 192.872C260.676 191.848 261.436 191.064 262.412 190.52C263.388 189.976 264.5 189.704 265.748 189.704C266.996 189.704 268.084 189.976 269.012 190.52C269.956 191.064 270.676 191.8 271.172 192.728C271.684 193.64 271.94 194.656 271.94 195.776ZM270.236 195.728C270.252 194.752 270.052 193.92 269.636 193.232C269.236 192.544 268.684 192.024 267.98 191.672C267.276 191.32 266.508 191.144 265.676 191.144C264.428 191.144 263.364 191.544 262.484 192.344C261.604 193.144 261.116 194.272 261.02 195.728H270.236ZM283.256 192.776C283.672 191.896 284.328 191.168 285.224 190.592C286.136 190 287.216 189.704 288.464 189.704C289.648 189.704 290.712 189.984 291.656 190.544C292.616 191.088 293.36 191.872 293.888 192.896C294.432 193.904 294.704 195.08 294.704 196.424C294.704 197.768 294.432 198.952 293.888 199.976C293.36 201 292.616 201.792 291.656 202.352C290.712 202.912 289.648 203.192 288.464 203.192C287.232 203.192 286.16 202.904 285.248 202.328C284.336 201.736 283.672 201 283.256 200.12V209.192H281.6V189.896H283.256V192.776ZM293 196.424C293 195.336 292.784 194.4 292.352 193.616C291.936 192.816 291.36 192.208 290.624 191.792C289.888 191.376 289.056 191.168 288.128 191.168C287.232 191.168 286.408 191.384 285.656 191.816C284.92 192.248 284.336 192.864 283.904 193.664C283.472 194.464 283.256 195.392 283.256 196.448C283.256 197.504 283.472 198.432 283.904 199.232C284.336 200.032 284.92 200.648 285.656 201.08C286.408 201.512 287.232 201.728 288.128 201.728C289.056 201.728 289.888 201.52 290.624 201.104C291.36 200.672 291.936 200.056 292.352 199.256C292.784 198.44 293 197.496 293 196.424ZM297.027 196.424C297.027 195.08 297.291 193.904 297.819 192.896C298.363 191.872 299.107 191.088 300.051 190.544C301.011 189.984 302.091 189.704 303.291 189.704C304.539 189.704 305.611 189.992 306.507 190.568C307.419 191.144 308.075 191.88 308.475 192.776V189.896H310.155V203H308.475V200.096C308.059 200.992 307.395 201.736 306.483 202.328C305.587 202.904 304.515 203.192 303.267 203.192C302.083 203.192 301.011 202.912 300.051 202.352C299.107 201.792 298.363 201 297.819 199.976C297.291 198.952 297.027 197.768 297.027 196.424ZM308.475 196.448C308.475 195.392 308.259 194.464 307.827 193.664C307.395 192.864 306.803 192.248 306.051 191.816C305.315 191.384 304.499 191.168 303.603 191.168C302.675 191.168 301.843 191.376 301.107 191.792C300.371 192.208 299.787 192.816 299.355 193.616C298.939 194.4 298.731 195.336 298.731 196.424C298.731 197.496 298.939 198.44 299.355 199.256C299.787 200.056 300.371 200.672 301.107 201.104C301.843 201.52 302.675 201.728 303.603 201.728C304.499 201.728 305.315 201.512 306.051 201.08C306.803 200.648 307.395 200.032 307.827 199.232C308.259 198.432 308.475 197.504 308.475 196.448ZM318.502 203.192C316.998 203.192 315.766 202.848 314.806 202.16C313.862 201.456 313.334 200.504 313.222 199.304H314.95C315.03 200.04 315.374 200.64 315.982 201.104C316.606 201.552 317.438 201.776 318.478 201.776C319.39 201.776 320.102 201.56 320.614 201.128C321.142 200.696 321.406 200.16 321.406 199.52C321.406 199.072 321.262 198.704 320.974 198.416C320.686 198.128 320.318 197.904 319.87 197.744C319.438 197.568 318.846 197.384 318.094 197.192C317.118 196.936 316.326 196.68 315.718 196.424C315.11 196.168 314.59 195.792 314.158 195.296C313.742 194.784 313.534 194.104 313.534 193.256C313.534 192.616 313.726 192.024 314.11 191.48C314.494 190.936 315.038 190.504 315.742 190.184C316.446 189.864 317.246 189.704 318.142 189.704C319.55 189.704 320.686 190.064 321.55 190.784C322.414 191.488 322.878 192.464 322.942 193.712H321.262C321.214 192.944 320.91 192.328 320.35 191.864C319.806 191.384 319.054 191.144 318.094 191.144C317.246 191.144 316.558 191.344 316.03 191.744C315.502 192.144 315.238 192.64 315.238 193.232C315.238 193.744 315.39 194.168 315.694 194.504C316.014 194.824 316.406 195.08 316.87 195.272C317.334 195.448 317.958 195.648 318.742 195.872C319.686 196.128 320.438 196.376 320.998 196.616C321.558 196.856 322.038 197.208 322.438 197.672C322.838 198.136 323.046 198.752 323.062 199.52C323.062 200.224 322.87 200.856 322.486 201.416C322.102 201.96 321.566 202.392 320.878 202.712C320.19 203.032 319.398 203.192 318.502 203.192ZM330.737 203.192C329.233 203.192 328.001 202.848 327.041 202.16C326.097 201.456 325.569 200.504 325.457 199.304H327.185C327.265 200.04 327.609 200.64 328.217 201.104C328.841 201.552 329.673 201.776 330.713 201.776C331.625 201.776 332.337 201.56 332.849 201.128C333.377 200.696 333.641 200.16 333.641 199.52C333.641 199.072 333.497 198.704 333.209 198.416C332.921 198.128 332.553 197.904 332.105 197.744C331.673 197.568 331.081 197.384 330.329 197.192C329.353 196.936 328.561 196.68 327.953 196.424C327.345 196.168 326.825 195.792 326.393 195.296C325.977 194.784 325.769 194.104 325.769 193.256C325.769 192.616 325.961 192.024 326.345 191.48C326.729 190.936 327.273 190.504 327.977 190.184C328.681 189.864 329.481 189.704 330.377 189.704C331.785 189.704 332.921 190.064 333.785 190.784C334.649 191.488 335.113 192.464 335.177 193.712H333.497C333.449 192.944 333.145 192.328 332.585 191.864C332.041 191.384 331.289 191.144 330.329 191.144C329.481 191.144 328.793 191.344 328.265 191.744C327.737 192.144 327.473 192.64 327.473 193.232C327.473 193.744 327.625 194.168 327.929 194.504C328.249 194.824 328.641 195.08 329.105 195.272C329.569 195.448 330.193 195.648 330.977 195.872C331.921 196.128 332.673 196.376 333.233 196.616C333.793 196.856 334.273 197.208 334.673 197.672C335.073 198.136 335.281 198.752 335.297 199.52C335.297 200.224 335.105 200.856 334.721 201.416C334.337 201.96 333.801 202.392 333.113 202.712C332.425 203.032 331.633 203.192 330.737 203.192ZM344.277 194.6C344.277 192.952 344.637 191.48 345.357 190.184C346.077 188.872 347.061 187.856 348.309 187.136C349.557 186.4 350.949 186.032 352.485 186.032C354.357 186.032 355.957 186.48 357.285 187.376C358.629 188.256 359.605 189.504 360.213 191.12H358.245C357.765 189.984 357.029 189.096 356.037 188.456C355.061 187.816 353.877 187.496 352.485 187.496C351.253 187.496 350.141 187.784 349.149 188.36C348.173 188.936 347.405 189.768 346.845 190.856C346.285 191.928 346.005 193.176 346.005 194.6C346.005 196.024 346.285 197.272 346.845 198.344C347.405 199.416 348.173 200.24 349.149 200.816C350.141 201.392 351.253 201.68 352.485 201.68C353.877 201.68 355.061 201.368 356.037 200.744C357.029 200.104 357.765 199.224 358.245 198.104H360.213C359.605 199.704 358.629 200.944 357.285 201.824C355.941 202.704 354.341 203.144 352.485 203.144C350.949 203.144 349.557 202.784 348.309 202.064C347.061 201.328 346.077 200.312 345.357 199.016C344.637 197.72 344.277 196.248 344.277 194.6ZM374.913 189.896V203H373.233V200.696C372.849 201.512 372.257 202.136 371.457 202.568C370.657 203 369.761 203.216 368.769 203.216C367.201 203.216 365.921 202.736 364.929 201.776C363.937 200.8 363.441 199.392 363.441 197.552V189.896H365.097V197.36C365.097 198.784 365.449 199.872 366.153 200.624C366.873 201.376 367.849 201.752 369.081 201.752C370.345 201.752 371.353 201.352 372.105 200.552C372.857 199.752 373.233 198.576 373.233 197.024V189.896H374.913ZM380.428 185.24V203H378.748V185.24H380.428ZM386.417 191.312V199.448C386.417 200.248 386.569 200.8 386.873 201.104C387.177 201.408 387.713 201.56 388.48 201.56H390.017V203H388.217C387.033 203 386.153 202.728 385.577 202.184C385.001 201.624 384.713 200.712 384.713 199.448V191.312H382.889V189.896H384.713V186.608H386.417V189.896H390.017V191.312H386.417ZM404.139 189.896V203H402.459V200.696C402.075 201.512 401.483 202.136 400.683 202.568C399.883 203 398.987 203.216 397.995 203.216C396.427 203.216 395.147 202.736 394.155 201.776C393.163 200.8 392.667 199.392 392.667 197.552V189.896H394.323V197.36C394.323 198.784 394.675 199.872 395.379 200.624C396.099 201.376 397.075 201.752 398.307 201.752C399.571 201.752 400.579 201.352 401.331 200.552C402.083 199.752 402.459 198.576 402.459 197.024V189.896H404.139ZM409.655 192.224C410.023 191.408 410.583 190.776 411.335 190.328C412.103 189.88 413.039 189.656 414.143 189.656V191.408H413.687C412.471 191.408 411.495 191.736 410.759 192.392C410.023 193.048 409.655 194.144 409.655 195.68V203H407.975V189.896H409.655V192.224ZM428.526 195.776C428.526 196.352 428.51 196.792 428.478 197.096H417.606C417.654 198.088 417.894 198.936 418.326 199.64C418.758 200.344 419.326 200.88 420.03 201.248C420.734 201.6 421.502 201.776 422.334 201.776C423.422 201.776 424.334 201.512 425.07 200.984C425.822 200.456 426.318 199.744 426.558 198.848H428.334C428.014 200.128 427.326 201.176 426.27 201.992C425.23 202.792 423.918 203.192 422.334 203.192C421.102 203.192 419.998 202.92 419.022 202.376C418.046 201.816 417.278 201.032 416.718 200.024C416.174 199 415.902 197.808 415.902 196.448C415.902 195.088 416.174 193.896 416.718 192.872C417.262 191.848 418.022 191.064 418.998 190.52C419.974 189.976 421.086 189.704 422.334 189.704C423.582 189.704 424.67 189.976 425.598 190.52C426.542 191.064 427.262 191.8 427.758 192.728C428.27 193.64 428.526 194.656 428.526 195.776ZM426.822 195.728C426.838 194.752 426.638 193.92 426.222 193.232C425.822 192.544 425.27 192.024 424.566 191.672C423.862 191.32 423.094 191.144 422.262 191.144C421.014 191.144 419.95 191.544 419.07 192.344C418.19 193.144 417.702 194.272 417.606 195.728H426.822ZM437.418 196.424C437.418 195.08 437.682 193.904 438.21 192.896C438.754 191.872 439.498 191.088 440.442 190.544C441.402 189.984 442.482 189.704 443.682 189.704C444.93 189.704 446.002 189.992 446.898 190.568C447.81 191.144 448.466 191.88 448.866 192.776V189.896H450.546V203H448.866V200.096C448.45 200.992 447.786 201.736 446.874 202.328C445.978 202.904 444.906 203.192 443.658 203.192C442.474 203.192 441.402 202.912 440.442 202.352C439.498 201.792 438.754 201 438.21 199.976C437.682 198.952 437.418 197.768 437.418 196.424ZM448.866 196.448C448.866 195.392 448.65 194.464 448.218 193.664C447.786 192.864 447.194 192.248 446.442 191.816C445.706 191.384 444.89 191.168 443.994 191.168C443.066 191.168 442.234 191.376 441.498 191.792C440.762 192.208 440.178 192.816 439.746 193.616C439.33 194.4 439.122 195.336 439.122 196.424C439.122 197.496 439.33 198.44 439.746 199.256C440.178 200.056 440.762 200.672 441.498 201.104C442.234 201.52 443.066 201.728 443.994 201.728C444.89 201.728 445.706 201.512 446.442 201.08C447.194 200.648 447.786 200.032 448.218 199.232C448.65 198.432 448.866 197.504 448.866 196.448ZM456.037 192.776C456.453 191.896 457.109 191.168 458.005 190.592C458.917 190 459.997 189.704 461.245 189.704C462.429 189.704 463.493 189.984 464.437 190.544C465.397 191.088 466.141 191.872 466.669 192.896C467.213 193.904 467.485 195.08 467.485 196.424C467.485 197.768 467.213 198.952 466.669 199.976C466.141 201 465.397 201.792 464.437 202.352C463.493 202.912 462.429 203.192 461.245 203.192C460.013 203.192 458.941 202.904 458.029 202.328C457.117 201.736 456.453 201 456.037 200.12V209.192H454.381V189.896H456.037V192.776ZM465.781 196.424C465.781 195.336 465.565 194.4 465.133 193.616C464.717 192.816 464.141 192.208 463.405 191.792C462.669 191.376 461.837 191.168 460.909 191.168C460.013 191.168 459.189 191.384 458.437 191.816C457.701 192.248 457.117 192.864 456.685 193.664C456.253 194.464 456.037 195.392 456.037 196.448C456.037 197.504 456.253 198.432 456.685 199.232C457.117 200.032 457.701 200.648 458.437 201.08C459.189 201.512 460.013 201.728 460.909 201.728C461.837 201.728 462.669 201.52 463.405 201.104C464.141 200.672 464.717 200.056 465.133 199.256C465.565 198.44 465.781 197.496 465.781 196.424ZM472.232 192.776C472.648 191.896 473.304 191.168 474.2 190.592C475.112 190 476.192 189.704 477.44 189.704C478.624 189.704 479.688 189.984 480.632 190.544C481.592 191.088 482.336 191.872 482.864 192.896C483.408 193.904 483.68 195.08 483.68 196.424C483.68 197.768 483.408 198.952 482.864 199.976C482.336 201 481.592 201.792 480.632 202.352C479.688 202.912 478.624 203.192 477.44 203.192C476.208 203.192 475.136 202.904 474.224 202.328C473.312 201.736 472.648 201 472.232 200.12V209.192H470.576V189.896H472.232V192.776ZM481.976 196.424C481.976 195.336 481.76 194.4 481.328 193.616C480.912 192.816 480.336 192.208 479.6 191.792C478.864 191.376 478.032 191.168 477.104 191.168C476.208 191.168 475.384 191.384 474.632 191.816C473.896 192.248 473.312 192.864 472.88 193.664C472.448 194.464 472.232 195.392 472.232 196.448C472.232 197.504 472.448 198.432 472.88 199.232C473.312 200.032 473.896 200.648 474.632 201.08C475.384 201.512 476.208 201.728 477.104 201.728C478.032 201.728 478.864 201.52 479.6 201.104C480.336 200.672 480.912 200.056 481.328 199.256C481.76 198.44 481.976 197.496 481.976 196.424ZM492.59 196.424C492.59 195.08 492.854 193.904 493.382 192.896C493.926 191.872 494.67 191.088 495.614 190.544C496.574 189.984 497.654 189.704 498.854 189.704C500.102 189.704 501.174 189.992 502.07 190.568C502.982 191.144 503.638 191.88 504.038 192.776V189.896H505.718V203H504.038V200.096C503.622 200.992 502.958 201.736 502.046 202.328C501.15 202.904 500.078 203.192 498.83 203.192C497.646 203.192 496.574 202.912 495.614 202.352C494.67 201.792 493.926 201 493.382 199.976C492.854 198.952 492.59 197.768 492.59 196.424ZM504.038 196.448C504.038 195.392 503.822 194.464 503.39 193.664C502.958 192.864 502.366 192.248 501.614 191.816C500.878 191.384 500.062 191.168 499.166 191.168C498.238 191.168 497.406 191.376 496.67 191.792C495.934 192.208 495.35 192.816 494.918 193.616C494.502 194.4 494.294 195.336 494.294 196.424C494.294 197.496 494.502 198.44 494.918 199.256C495.35 200.056 495.934 200.672 496.67 201.104C497.406 201.52 498.238 201.728 499.166 201.728C500.062 201.728 500.878 201.512 501.614 201.08C502.366 200.648 502.958 200.032 503.39 199.232C503.822 198.432 504.038 197.504 504.038 196.448ZM515.697 189.656C517.265 189.656 518.545 190.144 519.537 191.12C520.529 192.08 521.025 193.48 521.025 195.32V203H519.369V195.512C519.369 194.088 519.009 193 518.289 192.248C517.585 191.496 516.617 191.12 515.385 191.12C514.121 191.12 513.113 191.52 512.361 192.32C511.609 193.12 511.233 194.296 511.233 195.848V203H509.553V189.896H511.233V192.128C511.649 191.328 512.249 190.72 513.033 190.304C513.817 189.872 514.705 189.656 515.697 189.656ZM523.972 196.424C523.972 195.08 524.244 193.904 524.788 192.896C525.332 191.872 526.076 191.088 527.02 190.544C527.98 189.984 529.06 189.704 530.26 189.704C531.412 189.704 532.452 189.984 533.38 190.544C534.308 191.104 534.988 191.832 535.42 192.728V185.24H537.1V203H535.42V200.072C535.02 200.984 534.364 201.736 533.452 202.328C532.54 202.904 531.468 203.192 530.236 203.192C529.036 203.192 527.956 202.912 526.996 202.352C526.052 201.792 525.308 201 524.764 199.976C524.236 198.952 523.972 197.768 523.972 196.424ZM535.42 196.448C535.42 195.392 535.204 194.464 534.772 193.664C534.34 192.864 533.748 192.248 532.996 191.816C532.26 191.384 531.444 191.168 530.548 191.168C529.62 191.168 528.788 191.376 528.052 191.792C527.316 192.208 526.732 192.816 526.3 193.616C525.884 194.4 525.676 195.336 525.676 196.424C525.676 197.496 525.884 198.44 526.3 199.256C526.732 200.056 527.316 200.672 528.052 201.104C528.788 201.52 529.62 201.728 530.548 201.728C531.444 201.728 532.26 201.512 532.996 201.08C533.748 200.648 534.34 200.032 534.772 199.232C535.204 198.432 535.42 197.504 535.42 196.448ZM12.648 227.048C12.648 228.488 12.176 229.648 11.232 230.528C10.288 231.408 8.872 231.848 6.984 231.848H3.6V239H1.92V222.224H6.984C8.856 222.224 10.264 222.664 11.208 223.544C12.168 224.424 12.648 225.592 12.648 227.048ZM6.984 230.408C9.608 230.408 10.92 229.288 10.92 227.048C10.92 225.928 10.608 225.08 9.984 224.504C9.36 223.928 8.36 223.64 6.984 223.64H3.6V230.408H6.984ZM14.6989 232.424C14.6989 231.08 14.9629 229.904 15.4909 228.896C16.0349 227.872 16.7789 227.088 17.7229 226.544C18.6829 225.984 19.7629 225.704 20.9629 225.704C22.2109 225.704 23.2829 225.992 24.1789 226.568C25.0909 227.144 25.7469 227.88 26.1469 228.776V225.896H27.8269V239H26.1469V236.096C25.7309 236.992 25.0669 237.736 24.1549 238.328C23.2589 238.904 22.1869 239.192 20.9389 239.192C19.7549 239.192 18.6829 238.912 17.7229 238.352C16.7789 237.792 16.0349 237 15.4909 235.976C14.9629 234.952 14.6989 233.768 14.6989 232.424ZM26.1469 232.448C26.1469 231.392 25.9309 230.464 25.4989 229.664C25.0669 228.864 24.4749 228.248 23.7229 227.816C22.9869 227.384 22.1709 227.168 21.2749 227.168C20.3469 227.168 19.5149 227.376 18.7789 227.792C18.0429 228.208 17.4589 228.816 17.0269 229.616C16.6109 230.4 16.4029 231.336 16.4029 232.424C16.4029 233.496 16.6109 234.44 17.0269 235.256C17.4589 236.056 18.0429 236.672 18.7789 237.104C19.5149 237.52 20.3469 237.728 21.2749 237.728C22.1709 237.728 22.9869 237.512 23.7229 237.08C24.4749 236.648 25.0669 236.032 25.4989 235.232C25.9309 234.432 26.1469 233.504 26.1469 232.448ZM33.3422 228.224C33.7102 227.408 34.2702 226.776 35.0222 226.328C35.7902 225.88 36.7262 225.656 37.8302 225.656V227.408H37.3742C36.1582 227.408 35.1822 227.736 34.4462 228.392C33.7102 229.048 33.3422 230.144 33.3422 231.68V239H31.6622V225.896H33.3422V228.224ZM41.1975 223.424C40.8615 223.424 40.5735 223.304 40.3335 223.064C40.0935 222.824 39.9735 222.528 39.9735 222.176C39.9735 221.824 40.0935 221.536 40.3335 221.312C40.5735 221.072 40.8615 220.952 41.1975 220.952C41.5335 220.952 41.8215 221.072 42.0615 221.312C42.3015 221.536 42.4215 221.824 42.4215 222.176C42.4215 222.528 42.3015 222.824 42.0615 223.064C41.8215 223.304 41.5335 223.424 41.1975 223.424ZM42.0375 225.896V239H40.3575V225.896H42.0375ZM50.3539 239.192C48.8499 239.192 47.6179 238.848 46.6579 238.16C45.7139 237.456 45.1859 236.504 45.0739 235.304H46.8019C46.8819 236.04 47.2259 236.64 47.8339 237.104C48.4579 237.552 49.2899 237.776 50.3299 237.776C51.2419 237.776 51.9539 237.56 52.4659 237.128C52.9939 236.696 53.2579 236.16 53.2579 235.52C53.2579 235.072 53.1139 234.704 52.8259 234.416C52.5379 234.128 52.1699 233.904 51.7219 233.744C51.2899 233.568 50.6979 233.384 49.9459 233.192C48.9699 232.936 48.1779 232.68 47.5699 232.424C46.9619 232.168 46.4419 231.792 46.0099 231.296C45.5939 230.784 45.3859 230.104 45.3859 229.256C45.3859 228.616 45.5779 228.024 45.9619 227.48C46.3459 226.936 46.8899 226.504 47.5939 226.184C48.2979 225.864 49.0979 225.704 49.9939 225.704C51.4019 225.704 52.5379 226.064 53.4019 226.784C54.2659 227.488 54.7299 228.464 54.7939 229.712H53.1139C53.0659 228.944 52.7619 228.328 52.2019 227.864C51.6579 227.384 50.9059 227.144 49.9459 227.144C49.0979 227.144 48.4099 227.344 47.8819 227.744C47.3539 228.144 47.0899 228.64 47.0899 229.232C47.0899 229.744 47.2419 230.168 47.5459 230.504C47.8659 230.824 48.2579 231.08 48.7219 231.272C49.1859 231.448 49.8099 231.648 50.5939 231.872C51.5379 232.128 52.2899 232.376 52.8499 232.616C53.4099 232.856 53.8899 233.208 54.2899 233.672C54.6899 234.136 54.8979 234.752 54.9139 235.52C54.9139 236.224 54.7219 236.856 54.3379 237.416C53.9539 237.96 53.4179 238.392 52.7299 238.712C52.0419 239.032 51.2499 239.192 50.3539 239.192ZM58.7963 219.92L58.5083 224.552H57.3323L57.0443 219.92H58.7963ZM83.8013 225.656C85.3373 225.656 86.5853 226.144 87.5453 227.12C88.5213 228.08 89.0093 229.48 89.0093 231.32V239H87.3533V231.512C87.3533 230.088 87.0093 229 86.3213 228.248C85.6333 227.496 84.6973 227.12 83.5133 227.12C82.2813 227.12 81.2973 227.528 80.5613 228.344C79.8253 229.16 79.4573 230.344 79.4573 231.896V239H77.8013V231.512C77.8013 230.088 77.4573 229 76.7693 228.248C76.0813 227.496 75.1373 227.12 73.9373 227.12C72.7053 227.12 71.7213 227.528 70.9853 228.344C70.2493 229.16 69.8813 230.344 69.8813 231.896V239H68.2013V225.896H69.8813V228.152C70.2973 227.336 70.8893 226.72 71.6573 226.304C72.4253 225.872 73.2813 225.656 74.2253 225.656C75.3613 225.656 76.3533 225.928 77.2013 226.472C78.0653 227.016 78.6893 227.816 79.0733 228.872C79.4253 227.832 80.0253 227.04 80.8733 226.496C81.7373 225.936 82.7133 225.656 83.8013 225.656ZM98.4763 239.192C97.2443 239.192 96.1323 238.92 95.1403 238.376C94.1643 237.816 93.3883 237.032 92.8123 236.024C92.2523 235 91.9723 233.808 91.9723 232.448C91.9723 231.088 92.2603 229.904 92.8363 228.896C93.4123 227.872 94.1963 227.088 95.1883 226.544C96.1803 225.984 97.2923 225.704 98.5243 225.704C99.7563 225.704 100.868 225.984 101.86 226.544C102.868 227.088 103.652 227.872 104.212 228.896C104.788 229.904 105.076 231.088 105.076 232.448C105.076 233.792 104.788 234.976 104.212 236C103.636 237.024 102.844 237.816 101.836 238.376C100.828 238.92 99.7083 239.192 98.4763 239.192ZM98.4763 237.728C99.3403 237.728 100.14 237.536 100.876 237.152C101.612 236.752 102.204 236.16 102.652 235.376C103.116 234.576 103.348 233.6 103.348 232.448C103.348 231.296 103.124 230.328 102.676 229.544C102.228 228.744 101.636 228.152 100.9 227.768C100.164 227.368 99.3643 227.168 98.5003 227.168C97.6363 227.168 96.8363 227.368 96.1003 227.768C95.3643 228.152 94.7723 228.744 94.3243 229.544C93.8923 230.328 93.6763 231.296 93.6763 232.448C93.6763 233.6 93.8923 234.576 94.3243 235.376C94.7723 236.16 95.3563 236.752 96.0763 237.152C96.8123 237.536 97.6123 237.728 98.4763 237.728ZM109.795 228.8C110.227 227.888 110.891 227.144 111.787 226.568C112.699 225.992 113.771 225.704 115.003 225.704C116.203 225.704 117.275 225.984 118.219 226.544C119.163 227.088 119.899 227.872 120.427 228.896C120.971 229.904 121.243 231.08 121.243 232.424C121.243 233.768 120.971 234.952 120.427 235.976C119.899 237 119.155 237.792 118.195 238.352C117.251 238.912 116.187 239.192 115.003 239.192C113.755 239.192 112.675 238.912 111.763 238.352C110.867 237.776 110.211 237.032 109.795 236.12V239H108.139V221.24H109.795V228.8ZM119.539 232.424C119.539 231.336 119.323 230.4 118.891 229.616C118.475 228.816 117.899 228.208 117.163 227.792C116.427 227.376 115.595 227.168 114.667 227.168C113.771 227.168 112.947 227.384 112.195 227.816C111.459 228.248 110.875 228.864 110.443 229.664C110.011 230.464 109.795 231.392 109.795 232.448C109.795 233.504 110.011 234.432 110.443 235.232C110.875 236.032 111.459 236.648 112.195 237.08C112.947 237.512 113.771 237.728 114.667 237.728C115.595 237.728 116.427 237.52 117.163 237.104C117.899 236.672 118.475 236.056 118.891 235.256C119.323 234.44 119.539 233.496 119.539 232.424ZM125.174 223.424C124.838 223.424 124.55 223.304 124.31 223.064C124.07 222.824 123.95 222.528 123.95 222.176C123.95 221.824 124.07 221.536 124.31 221.312C124.55 221.072 124.838 220.952 125.174 220.952C125.51 220.952 125.798 221.072 126.038 221.312C126.278 221.536 126.398 221.824 126.398 222.176C126.398 222.528 126.278 222.824 126.038 223.064C125.798 223.304 125.51 223.424 125.174 223.424ZM126.014 225.896V239H124.334V225.896H126.014ZM131.498 221.24V239H129.818V221.24H131.498ZM136.143 223.424C135.807 223.424 135.519 223.304 135.279 223.064C135.039 222.824 134.919 222.528 134.919 222.176C134.919 221.824 135.039 221.536 135.279 221.312C135.519 221.072 135.807 220.952 136.143 220.952C136.479 220.952 136.767 221.072 137.007 221.312C137.247 221.536 137.367 221.824 137.367 222.176C137.367 222.528 137.247 222.824 137.007 223.064C136.767 223.304 136.479 223.424 136.143 223.424ZM136.983 225.896V239H135.303V225.896H136.983ZM142.971 227.312V235.448C142.971 236.248 143.123 236.8 143.427 237.104C143.731 237.408 144.267 237.56 145.035 237.56H146.571V239H144.771C143.587 239 142.707 238.728 142.131 238.184C141.555 237.624 141.267 236.712 141.267 235.448V227.312H139.443V225.896H141.267V222.608H142.971V225.896H146.571V227.312H142.971ZM160.142 225.896L152.366 245.168H150.614L153.158 238.928L147.782 225.896H149.63L154.094 237.08L158.414 225.896H160.142ZM175.15 225.656C176.718 225.656 177.998 226.144 178.99 227.12C179.982 228.08 180.478 229.48 180.478 231.32V239H178.822V231.512C178.822 230.088 178.462 229 177.742 228.248C177.038 227.496 176.07 227.12 174.838 227.12C173.574 227.12 172.566 227.52 171.814 228.32C171.062 229.12 170.686 230.296 170.686 231.848V239H169.006V225.896H170.686V228.128C171.102 227.328 171.702 226.72 172.486 226.304C173.27 225.872 174.158 225.656 175.15 225.656ZM196.049 231.776C196.049 232.352 196.033 232.792 196.001 233.096H185.129C185.177 234.088 185.417 234.936 185.849 235.64C186.281 236.344 186.849 236.88 187.553 237.248C188.257 237.6 189.025 237.776 189.857 237.776C190.945 237.776 191.857 237.512 192.593 236.984C193.345 236.456 193.841 235.744 194.081 234.848H195.857C195.537 236.128 194.849 237.176 193.793 237.992C192.753 238.792 191.441 239.192 189.857 239.192C188.625 239.192 187.521 238.92 186.545 238.376C185.569 237.816 184.801 237.032 184.241 236.024C183.697 235 183.425 233.808 183.425 232.448C183.425 231.088 183.697 229.896 184.241 228.872C184.785 227.848 185.545 227.064 186.521 226.52C187.497 225.976 188.609 225.704 189.857 225.704C191.105 225.704 192.193 225.976 193.121 226.52C194.065 227.064 194.785 227.8 195.281 228.728C195.793 229.64 196.049 230.656 196.049 231.776ZM194.345 231.728C194.361 230.752 194.161 229.92 193.745 229.232C193.345 228.544 192.793 228.024 192.089 227.672C191.385 227.32 190.617 227.144 189.785 227.144C188.537 227.144 187.473 227.544 186.593 228.344C185.713 229.144 185.225 230.272 185.129 231.728H194.345ZM201.307 227.312V235.448C201.307 236.248 201.459 236.8 201.763 237.104C202.067 237.408 202.603 237.56 203.371 237.56H204.907V239H203.107C201.923 239 201.043 238.728 200.467 238.184C199.891 237.624 199.603 236.712 199.603 235.448V227.312H197.779V225.896H199.603V222.608H201.307V225.896H204.907V227.312H201.307ZM224.958 225.896L220.854 239H219.174L215.55 228.008L211.926 239H210.222L206.118 225.896H207.822L211.086 237.296L214.758 225.896H216.438L220.062 237.32L223.302 225.896H224.958ZM232.984 239.192C231.752 239.192 230.64 238.92 229.648 238.376C228.672 237.816 227.896 237.032 227.32 236.024C226.76 235 226.48 233.808 226.48 232.448C226.48 231.088 226.768 229.904 227.344 228.896C227.92 227.872 228.704 227.088 229.696 226.544C230.688 225.984 231.8 225.704 233.032 225.704C234.264 225.704 235.376 225.984 236.368 226.544C237.376 227.088 238.16 227.872 238.72 228.896C239.296 229.904 239.584 231.088 239.584 232.448C239.584 233.792 239.296 234.976 238.72 236C238.144 237.024 237.352 237.816 236.344 238.376C235.336 238.92 234.216 239.192 232.984 239.192ZM232.984 237.728C233.848 237.728 234.648 237.536 235.384 237.152C236.12 236.752 236.712 236.16 237.16 235.376C237.624 234.576 237.856 233.6 237.856 232.448C237.856 231.296 237.632 230.328 237.184 229.544C236.736 228.744 236.144 228.152 235.408 227.768C234.672 227.368 233.872 227.168 233.008 227.168C232.144 227.168 231.344 227.368 230.608 227.768C229.872 228.152 229.28 228.744 228.832 229.544C228.4 230.328 228.184 231.296 228.184 232.448C228.184 233.6 228.4 234.576 228.832 235.376C229.28 236.16 229.864 236.752 230.584 237.152C231.32 237.536 232.12 237.728 232.984 237.728ZM244.327 228.224C244.695 227.408 245.255 226.776 246.007 226.328C246.775 225.88 247.711 225.656 248.815 225.656V227.408H248.359C247.143 227.408 246.167 227.736 245.431 228.392C244.695 229.048 244.327 230.144 244.327 231.68V239H242.647V225.896H244.327V228.224ZM258.422 239L253.022 233.12V239H251.342V221.24H253.022V231.752L258.302 225.896H260.654L254.438 232.424L260.702 239H258.422ZM263.161 239.12C262.809 239.12 262.513 239 262.273 238.76C262.049 238.52 261.937 238.224 261.937 237.872C261.937 237.52 262.049 237.232 262.273 237.008C262.513 236.768 262.809 236.648 263.161 236.648C263.497 236.648 263.777 236.768 264.001 237.008C264.241 237.232 264.361 237.52 264.361 237.872C264.361 238.224 264.241 238.52 264.001 238.76C263.777 239 263.497 239.12 263.161 239.12Z" fill="#4E4646"/>
<path d="M12.825 79.575C14.075 77.625 15.8 76.05 18 74.85C20.2 73.65 22.775 73.05 25.725 73.05C29.175 73.05 32.3 73.925 35.1 75.675C37.9 77.425 40.1 79.925 41.7 83.175C43.35 86.425 44.175 90.2 44.175 94.5C44.175 98.8 43.35 102.6 41.7 105.9C40.1 109.15 37.9 111.675 35.1 113.475C32.3 115.225 29.175 116.1 25.725 116.1C22.825 116.1 20.25 115.5 18 114.3C15.8 113.1 14.075 111.55 12.825 109.65V135.45H0V73.65H12.825V79.575ZM31.125 94.5C31.125 91.3 30.225 88.8 28.425 87C26.675 85.15 24.5 84.225 21.9 84.225C19.35 84.225 17.175 85.15 15.375 87C13.625 88.85 12.75 91.375 12.75 94.575C12.75 97.775 13.625 100.3 15.375 102.15C17.175 104 19.35 104.925 21.9 104.925C24.45 104.925 26.625 104 28.425 102.15C30.225 100.25 31.125 97.7 31.125 94.5Z" fill="url(#paint0_linear_1781_1557)"/>
<path d="M48.3533 94.5C48.3533 90.2 49.1533 86.425 50.7533 83.175C52.4033 79.925 54.6283 77.425 57.4283 75.675C60.2283 73.925 63.3533 73.05 66.8033 73.05C69.7533 73.05 72.3283 73.65 74.5283 74.85C76.7783 76.05 78.5033 77.625 79.7033 79.575V73.65H92.5283V115.5H79.7033V109.575C78.4533 111.525 76.7033 113.1 74.4533 114.3C72.2533 115.5 69.6783 116.1 66.7283 116.1C63.3283 116.1 60.2283 115.225 57.4283 113.475C54.6283 111.675 52.4033 109.15 50.7533 105.9C49.1533 102.6 48.3533 98.8 48.3533 94.5ZM79.7033 94.575C79.7033 91.375 78.8033 88.85 77.0033 87C75.2533 85.15 73.1033 84.225 70.5533 84.225C68.0033 84.225 65.8283 85.15 64.0283 87C62.2783 88.8 61.4033 91.3 61.4033 94.5C61.4033 97.7 62.2783 100.25 64.0283 102.15C65.8283 104 68.0033 104.925 70.5533 104.925C73.1033 104.925 75.2533 104 77.0033 102.15C78.8033 100.3 79.7033 97.775 79.7033 94.575Z" fill="url(#paint1_linear_1781_1557)"/>
<path d="M118.832 116.1C115.182 116.1 111.932 115.475 109.082 114.225C106.232 112.975 103.982 111.275 102.332 109.125C100.682 106.925 99.7566 104.475 99.5566 101.775H112.232C112.382 103.225 113.057 104.4 114.257 105.3C115.457 106.2 116.932 106.65 118.682 106.65C120.282 106.65 121.507 106.35 122.357 105.75C123.257 105.1 123.707 104.275 123.707 103.275C123.707 102.075 123.082 101.2 121.832 100.65C120.582 100.05 118.557 99.4 115.757 98.7C112.757 98 110.257 97.275 108.257 96.525C106.257 95.725 104.532 94.5 103.082 92.85C101.632 91.15 100.907 88.875 100.907 86.025C100.907 83.625 101.557 81.45 102.857 79.5C104.207 77.5 106.157 75.925 108.707 74.775C111.307 73.625 114.382 73.05 117.932 73.05C123.182 73.05 127.307 74.35 130.307 76.95C133.357 79.55 135.107 83 135.557 87.3H123.707C123.507 85.85 122.857 84.7 121.757 83.85C120.707 83 119.307 82.575 117.557 82.575C116.057 82.575 114.907 82.875 114.107 83.475C113.307 84.025 112.907 84.8 112.907 85.8C112.907 87 113.532 87.9 114.782 88.5C116.082 89.1 118.082 89.7 120.782 90.3C123.882 91.1 126.407 91.9 128.357 92.7C130.307 93.45 132.007 94.7 133.457 96.45C134.957 98.15 135.732 100.45 135.782 103.35C135.782 105.8 135.082 108 133.682 109.95C132.332 111.85 130.357 113.35 127.757 114.45C125.207 115.55 122.232 116.1 118.832 116.1Z" fill="url(#paint2_linear_1781_1557)"/>
<path d="M160.653 116.1C157.003 116.1 153.753 115.475 150.903 114.225C148.053 112.975 145.803 111.275 144.153 109.125C142.503 106.925 141.578 104.475 141.378 101.775H154.053C154.203 103.225 154.878 104.4 156.078 105.3C157.278 106.2 158.753 106.65 160.503 106.65C162.103 106.65 163.328 106.35 164.178 105.75C165.078 105.1 165.528 104.275 165.528 103.275C165.528 102.075 164.903 101.2 163.653 100.65C162.403 100.05 160.378 99.4 157.578 98.7C154.578 98 152.078 97.275 150.078 96.525C148.078 95.725 146.353 94.5 144.903 92.85C143.453 91.15 142.728 88.875 142.728 86.025C142.728 83.625 143.378 81.45 144.678 79.5C146.028 77.5 147.978 75.925 150.528 74.775C153.128 73.625 156.203 73.05 159.753 73.05C165.003 73.05 169.128 74.35 172.128 76.95C175.178 79.55 176.928 83 177.378 87.3H165.528C165.328 85.85 164.678 84.7 163.578 83.85C162.528 83 161.128 82.575 159.378 82.575C157.878 82.575 156.728 82.875 155.928 83.475C155.128 84.025 154.728 84.8 154.728 85.8C154.728 87 155.353 87.9 156.603 88.5C157.903 89.1 159.903 89.7 162.603 90.3C165.703 91.1 168.228 91.9 170.178 92.7C172.128 93.45 173.828 94.7 175.278 96.45C176.778 98.15 177.553 100.45 177.603 103.35C177.603 105.8 176.903 108 175.503 109.95C174.153 111.85 172.178 113.35 169.578 114.45C167.028 115.55 164.053 116.1 160.653 116.1Z" fill="url(#paint3_linear_1781_1557)"/>
<path d="M183.274 89.1C183.274 83.9 184.399 79.275 186.649 75.225C188.899 71.125 192.024 67.95 196.024 65.7C200.074 63.4 204.649 62.25 209.749 62.25C215.999 62.25 221.349 63.9 225.799 67.2C230.249 70.5 233.224 75 234.724 80.7H220.624C219.574 78.5 218.074 76.825 216.124 75.675C214.224 74.525 212.049 73.95 209.599 73.95C205.649 73.95 202.449 75.325 199.999 78.075C197.549 80.825 196.324 84.5 196.324 89.1C196.324 93.7 197.549 97.375 199.999 100.125C202.449 102.875 205.649 104.25 209.599 104.25C212.049 104.25 214.224 103.675 216.124 102.525C218.074 101.375 219.574 99.7 220.624 97.5H234.724C233.224 103.2 230.249 107.7 225.799 111C221.349 114.25 215.999 115.875 209.749 115.875C204.649 115.875 200.074 114.75 196.024 112.5C192.024 110.2 188.899 107.025 186.649 102.975C184.399 98.925 183.274 94.3 183.274 89.1Z" fill="url(#paint4_linear_1781_1557)"/>
<path d="M283.903 73.65V115.5H271.078V109.8C269.778 111.65 268.003 113.15 265.753 114.3C263.553 115.4 261.103 115.95 258.403 115.95C255.203 115.95 252.378 115.25 249.928 113.85C247.478 112.4 245.578 110.325 244.228 107.625C242.878 104.925 242.203 101.75 242.203 98.1V73.65H254.953V96.375C254.953 99.175 255.678 101.35 257.128 102.9C258.578 104.45 260.528 105.225 262.978 105.225C265.478 105.225 267.453 104.45 268.903 102.9C270.353 101.35 271.078 99.175 271.078 96.375V73.65H283.903Z" fill="url(#paint5_linear_1781_1557)"/>
<path d="M305.94 60V115.5H293.115V60H305.94Z" fill="url(#paint6_linear_1781_1557)"/>
<path d="M338.559 104.625V115.5H332.034C327.384 115.5 323.759 114.375 321.159 112.125C318.559 109.825 317.259 106.1 317.259 100.95V84.3H312.159V73.65H317.259V63.45H330.084V73.65H338.484V84.3H330.084V101.1C330.084 102.35 330.384 103.25 330.984 103.8C331.584 104.35 332.584 104.625 333.984 104.625H338.559Z" fill="url(#paint7_linear_1781_1557)"/>
<path d="M387.028 73.65V115.5H374.203V109.8C372.903 111.65 371.128 113.15 368.878 114.3C366.678 115.4 364.228 115.95 361.528 115.95C358.328 115.95 355.503 115.25 353.053 113.85C350.603 112.4 348.703 110.325 347.353 107.625C346.003 104.925 345.328 101.75 345.328 98.1V73.65H358.078V96.375C358.078 99.175 358.803 101.35 360.253 102.9C361.703 104.45 363.653 105.225 366.103 105.225C368.603 105.225 370.578 104.45 372.028 102.9C373.478 101.35 374.203 99.175 374.203 96.375V73.65H387.028Z" fill="url(#paint8_linear_1781_1557)"/>
<path d="M409.065 80.625C410.565 78.325 412.44 76.525 414.69 75.225C416.94 73.875 419.44 73.2 422.19 73.2V86.775H418.665C415.465 86.775 413.065 87.475 411.465 88.875C409.865 90.225 409.065 92.625 409.065 96.075V115.5H396.24V73.65H409.065V80.625Z" fill="url(#paint9_linear_1781_1557)"/>
<path d="M467.77 93.9C467.77 95.1 467.695 96.35 467.545 97.65H438.52C438.72 100.25 439.545 102.25 440.995 103.65C442.495 105 444.32 105.675 446.47 105.675C449.67 105.675 451.895 104.325 453.145 101.625H466.795C466.095 104.375 464.82 106.85 462.97 109.05C461.17 111.25 458.895 112.975 456.145 114.225C453.395 115.475 450.32 116.1 446.92 116.1C442.82 116.1 439.17 115.225 435.97 113.475C432.77 111.725 430.27 109.225 428.47 105.975C426.67 102.725 425.77 98.925 425.77 94.575C425.77 90.225 426.645 86.425 428.395 83.175C430.195 79.925 432.695 77.425 435.895 75.675C439.095 73.925 442.77 73.05 446.92 73.05C450.97 73.05 454.57 73.9 457.72 75.6C460.87 77.3 463.32 79.725 465.07 82.875C466.87 86.025 467.77 89.7 467.77 93.9ZM454.645 90.525C454.645 88.325 453.895 86.575 452.395 85.275C450.895 83.975 449.02 83.325 446.77 83.325C444.62 83.325 442.795 83.95 441.295 85.2C439.845 86.45 438.945 88.225 438.595 90.525H454.645Z" fill="url(#paint10_linear_1781_1557)"/>
<defs>
<linearGradient id="paint0_linear_1781_1557" x1="3.74344e-06" y1="98" x2="468" y2="98" gradientUnits="userSpaceOnUse">
<stop stop-color="#EB0055"/>
<stop offset="1" stop-color="#320096"/>
</linearGradient>
<linearGradient id="paint1_linear_1781_1557" x1="3.74344e-06" y1="98" x2="468" y2="98" gradientUnits="userSpaceOnUse">
<stop stop-color="#EB0055"/>
<stop offset="1" stop-color="#320096"/>
</linearGradient>
<linearGradient id="paint2_linear_1781_1557" x1="3.74344e-06" y1="98" x2="468" y2="98" gradientUnits="userSpaceOnUse">
<stop stop-color="#EB0055"/>
<stop offset="1" stop-color="#320096"/>
</linearGradient>
<linearGradient id="paint3_linear_1781_1557" x1="3.74344e-06" y1="98" x2="468" y2="98" gradientUnits="userSpaceOnUse">
<stop stop-color="#EB0055"/>
<stop offset="1" stop-color="#320096"/>
</linearGradient>
<linearGradient id="paint4_linear_1781_1557" x1="3.74344e-06" y1="98" x2="468" y2="98" gradientUnits="userSpaceOnUse">
<stop stop-color="#EB0055"/>
<stop offset="1" stop-color="#320096"/>
</linearGradient>
<linearGradient id="paint5_linear_1781_1557" x1="3.74344e-06" y1="98" x2="468" y2="98" gradientUnits="userSpaceOnUse">
<stop stop-color="#EB0055"/>
<stop offset="1" stop-color="#320096"/>
</linearGradient>
<linearGradient id="paint6_linear_1781_1557" x1="3.74344e-06" y1="98" x2="468" y2="98" gradientUnits="userSpaceOnUse">
<stop stop-color="#EB0055"/>
<stop offset="1" stop-color="#320096"/>
</linearGradient>
<linearGradient id="paint7_linear_1781_1557" x1="3.74344e-06" y1="98" x2="468" y2="98" gradientUnits="userSpaceOnUse">
<stop stop-color="#EB0055"/>
<stop offset="1" stop-color="#320096"/>
</linearGradient>
<linearGradient id="paint8_linear_1781_1557" x1="3.74344e-06" y1="98" x2="468" y2="98" gradientUnits="userSpaceOnUse">
<stop stop-color="#EB0055"/>
<stop offset="1" stop-color="#320096"/>
</linearGradient>
<linearGradient id="paint9_linear_1781_1557" x1="3.74344e-06" y1="98" x2="468" y2="98" gradientUnits="userSpaceOnUse">
<stop stop-color="#EB0055"/>
<stop offset="1" stop-color="#320096"/>
</linearGradient>
<linearGradient id="paint10_linear_1781_1557" x1="3.74344e-06" y1="98" x2="468" y2="98" gradientUnits="userSpaceOnUse">
<stop stop-color="#EB0055"/>
<stop offset="1" stop-color="#320096"/>
</linearGradient>
</defs>
</svg>
