<svg width="78" height="75" viewBox="0 0 78 75" fill="none" xmlns="http://www.w3.org/2000/svg">
<path d="M0 37.5C0 16.7893 16.7893 0 37.5 0H40.1163C60.827 0 77.6163 16.7893 77.6163 37.5C77.6163 58.2107 60.827 75 40.1163 75H37.5C16.7893 75 0 58.2107 0 37.5Z" fill="white"/>
<mask id="mask0_4607_4970" style="mask-type:alpha" maskUnits="userSpaceOnUse" x="19" y="17" width="40" height="40">
<rect x="19" y="17" width="40" height="40" fill="#D9D9D9"/>
</mask>
<g mask="url(#mask0_4607_4970)">
<path d="M32.3333 45.6254V28.3754C32.3333 27.9032 32.4999 27.5074 32.8333 27.1879C33.1666 26.8685 33.5555 26.7087 33.9999 26.7087C34.1388 26.7087 34.2846 26.7296 34.4374 26.7712C34.5902 26.8129 34.736 26.8754 34.8749 26.9587L48.4583 35.5837C48.7083 35.7504 48.8958 35.9587 49.0208 36.2087C49.1458 36.4587 49.2083 36.7226 49.2083 37.0004C49.2083 37.2782 49.1458 37.5421 49.0208 37.7921C48.8958 38.0421 48.7083 38.2504 48.4583 38.4171L34.8749 47.0421C34.736 47.1254 34.5902 47.1879 34.4374 47.2296C34.2846 47.2712 34.1388 47.2921 33.9999 47.2921C33.5555 47.2921 33.1666 47.1324 32.8333 46.8129C32.4999 46.4935 32.3333 46.0976 32.3333 45.6254Z" fill="#696868"/>
</g>
</svg>
