<svg width="336" height="428" viewBox="0 0 336 428" fill="none" xmlns="http://www.w3.org/2000/svg">
<path d="M0 35C0 15.67 15.67 0 35 0H301C320.33 0 336 15.67 336 35V393C336 412.33 320.33 428 301 428H168H35C15.67 428 0 412.33 0 393V35Z" fill="#EBE9E9"/>
<path d="M114.86 350.14C114.86 351.3 114.46 352.267 113.66 353.04C112.873 353.8 111.667 354.18 110.04 354.18H107.36V360H105.54V346.06H110.04C111.613 346.06 112.807 346.44 113.62 347.2C114.447 347.96 114.86 348.94 114.86 350.14ZM110.04 352.68C111.053 352.68 111.8 352.46 112.28 352.02C112.76 351.58 113 350.953 113 350.14C113 348.42 112.013 347.56 110.04 347.56H107.36V352.68H110.04ZM121.902 360.18C120.875 360.18 119.942 359.947 119.102 359.48C118.275 359.013 117.622 358.353 117.142 357.5C116.675 356.633 116.442 355.633 116.442 354.5C116.442 353.38 116.682 352.393 117.162 351.54C117.655 350.673 118.322 350.013 119.162 349.56C120.002 349.093 120.942 348.86 121.982 348.86C123.022 348.86 123.962 349.093 124.802 349.56C125.642 350.013 126.302 350.667 126.782 351.52C127.275 352.373 127.522 353.367 127.522 354.5C127.522 355.633 127.269 356.633 126.762 357.5C126.269 358.353 125.595 359.013 124.742 359.48C123.889 359.947 122.942 360.18 121.902 360.18ZM121.902 358.58C122.555 358.58 123.169 358.427 123.742 358.12C124.315 357.813 124.775 357.353 125.122 356.74C125.482 356.127 125.662 355.38 125.662 354.5C125.662 353.62 125.489 352.873 125.142 352.26C124.795 351.647 124.342 351.193 123.782 350.9C123.222 350.593 122.615 350.44 121.962 350.44C121.295 350.44 120.682 350.593 120.122 350.9C119.575 351.193 119.135 351.647 118.802 352.26C118.469 352.873 118.302 353.62 118.302 354.5C118.302 355.393 118.462 356.147 118.782 356.76C119.115 357.373 119.555 357.833 120.102 358.14C120.649 358.433 121.249 358.58 121.902 358.58ZM131.735 345.2V360H129.915V345.2H131.735ZM135.777 347.26C135.43 347.26 135.137 347.14 134.897 346.9C134.657 346.66 134.537 346.367 134.537 346.02C134.537 345.673 134.657 345.38 134.897 345.14C135.137 344.9 135.43 344.78 135.777 344.78C136.11 344.78 136.39 344.9 136.617 345.14C136.857 345.38 136.977 345.673 136.977 346.02C136.977 346.367 136.857 346.66 136.617 346.9C136.39 347.14 136.11 347.26 135.777 347.26ZM136.657 349.04V360H134.837V349.04H136.657ZM139.079 354.5C139.079 353.367 139.305 352.38 139.759 351.54C140.212 350.687 140.839 350.027 141.639 349.56C142.452 349.093 143.379 348.86 144.419 348.86C145.765 348.86 146.872 349.187 147.739 349.84C148.619 350.493 149.199 351.4 149.479 352.56H147.519C147.332 351.893 146.965 351.367 146.419 350.98C145.885 350.593 145.219 350.4 144.419 350.4C143.379 350.4 142.539 350.76 141.899 351.48C141.259 352.187 140.939 353.193 140.939 354.5C140.939 355.82 141.259 356.84 141.899 357.56C142.539 358.28 143.379 358.64 144.419 358.64C145.219 358.64 145.885 358.453 146.419 358.08C146.952 357.707 147.319 357.173 147.519 356.48H149.479C149.185 357.6 148.599 358.5 147.719 359.18C146.839 359.847 145.739 360.18 144.419 360.18C143.379 360.18 142.452 359.947 141.639 359.48C140.839 359.013 140.212 358.353 139.759 357.5C139.305 356.647 139.079 355.647 139.079 354.5ZM161.347 349.04L154.747 365.16H152.867L155.027 359.88L150.607 349.04H152.627L156.067 357.92L159.467 349.04H161.347ZM176.749 356.9H170.669L169.549 360H167.629L172.669 346.14H174.769L179.789 360H177.869L176.749 356.9ZM176.229 355.42L173.709 348.38L171.189 355.42H176.229ZM181.305 354.48C181.305 353.36 181.532 352.38 181.985 351.54C182.439 350.687 183.059 350.027 183.845 349.56C184.645 349.093 185.539 348.86 186.525 348.86C187.379 348.86 188.172 349.06 188.905 349.46C189.639 349.847 190.199 350.36 190.585 351V345.2H192.425V360H190.585V357.94C190.225 358.593 189.692 359.133 188.985 359.56C188.279 359.973 187.452 360.18 186.505 360.18C185.532 360.18 184.645 359.94 183.845 359.46C183.059 358.98 182.439 358.307 181.985 357.44C181.532 356.573 181.305 355.587 181.305 354.48ZM190.585 354.5C190.585 353.673 190.419 352.953 190.085 352.34C189.752 351.727 189.299 351.26 188.725 350.94C188.165 350.607 187.545 350.44 186.865 350.44C186.185 350.44 185.565 350.6 185.005 350.92C184.445 351.24 183.999 351.707 183.665 352.32C183.332 352.933 183.165 353.653 183.165 354.48C183.165 355.32 183.332 356.053 183.665 356.68C183.999 357.293 184.445 357.767 185.005 358.1C185.565 358.42 186.185 358.58 186.865 358.58C187.545 358.58 188.165 358.42 188.725 358.1C189.299 357.767 189.752 357.293 190.085 356.68C190.419 356.053 190.585 355.327 190.585 354.5ZM208.681 348.84C209.534 348.84 210.294 349.02 210.961 349.38C211.628 349.727 212.154 350.253 212.541 350.96C212.928 351.667 213.121 352.527 213.121 353.54V360H211.321V353.8C211.321 352.707 211.048 351.873 210.501 351.3C209.968 350.713 209.241 350.42 208.321 350.42C207.374 350.42 206.621 350.727 206.061 351.34C205.501 351.94 205.221 352.813 205.221 353.96V360H203.421V353.8C203.421 352.707 203.148 351.873 202.601 351.3C202.068 350.713 201.341 350.42 200.421 350.42C199.474 350.42 198.721 350.727 198.161 351.34C197.601 351.94 197.321 352.813 197.321 353.96V360H195.501V349.04H197.321V350.62C197.681 350.047 198.161 349.607 198.761 349.3C199.374 348.993 200.048 348.84 200.781 348.84C201.701 348.84 202.514 349.047 203.221 349.46C203.928 349.873 204.454 350.48 204.801 351.28C205.108 350.507 205.614 349.907 206.321 349.48C207.028 349.053 207.814 348.84 208.681 348.84ZM217.046 347.26C216.7 347.26 216.406 347.14 216.166 346.9C215.926 346.66 215.806 346.367 215.806 346.02C215.806 345.673 215.926 345.38 216.166 345.14C216.406 344.9 216.7 344.78 217.046 344.78C217.38 344.78 217.66 344.9 217.886 345.14C218.126 345.38 218.246 345.673 218.246 346.02C218.246 346.367 218.126 346.66 217.886 346.9C217.66 347.14 217.38 347.26 217.046 347.26ZM217.926 349.04V360H216.106V349.04H217.926ZM226.368 348.84C227.702 348.84 228.782 349.247 229.608 350.06C230.435 350.86 230.848 352.02 230.848 353.54V360H229.048V353.8C229.048 352.707 228.775 351.873 228.228 351.3C227.682 350.713 226.935 350.42 225.988 350.42C225.028 350.42 224.262 350.72 223.688 351.32C223.128 351.92 222.848 352.793 222.848 353.94V360H221.028V349.04H222.848V350.6C223.208 350.04 223.695 349.607 224.308 349.3C224.935 348.993 225.622 348.84 226.368 348.84Z" fill="black"/>
<path d="M278 170.49C278 230.957 228.978 279.979 168.51 279.979C108.043 279.979 59 230.978 59 170.49C59 110.001 108.022 61 168.49 61C228.957 61 277.979 110.022 277.979 170.49H278Z" fill="#112334"/>
<path d="M193.239 137.151H139.218V140.267H193.239V137.151Z" fill="white"/>
<path d="M193.239 148.577H139.218V151.694H193.239V148.577Z" fill="white"/>
<path d="M193.239 161.046H139.218V164.163H193.239V161.046Z" fill="white"/>
<path d="M193.239 172.473H139.218V175.59H193.239V172.473Z" fill="white"/>
<path d="M193.239 184.931H139.218V188.048H193.239V184.931Z" fill="white"/>
<path d="M204.144 113H129.35C124.194 113 120 117.194 120 122.35V221.554C120 226.709 124.194 230.903 129.35 230.903H189.601C202.776 230.903 213.493 220.186 213.493 207.011V122.35C213.493 117.193 209.299 113 204.144 113ZM126.231 221.554V122.35C126.231 120.63 127.632 119.233 129.35 119.233H204.144C205.86 119.233 207.259 120.63 207.259 122.35V202.595H183.888V224.671H129.35C127.632 224.671 126.231 223.272 126.231 221.554ZM190.12 224.643V208.828H207.166C206.272 217.545 199.004 224.382 190.12 224.643Z" fill="white"/>
<path d="M166 147C166 167.986 148.988 185 128.004 185C107.02 185 90 167.993 90 147C90 126.007 107.012 109 127.996 109C148.98 109 165.993 126.014 165.993 147H166Z" fill="#112334"/>
<path d="M135.238 139.105L124.759 151.21L120.106 146.652" stroke="white" stroke-width="1.2" stroke-linecap="round" stroke-linejoin="round"/>
<path d="M147.257 133.088C138.801 131.571 135.304 130.447 127.672 127C120.039 130.447 116.543 131.571 108.086 133.088C106.554 157.369 126.213 165.754 127.672 166.341C129.13 165.754 148.789 157.369 147.257 133.088Z" stroke="white" stroke-width="1.2" stroke-linecap="round" stroke-linejoin="round"/>
</svg>
