<svg width="336" height="428" viewBox="0 0 336 428" fill="none" xmlns="http://www.w3.org/2000/svg">
<path d="M0 35C0 15.67 15.67 0 35 0H301C320.33 0 336 15.67 336 35V393C336 412.33 320.33 428 301 428H168H35C15.67 428 0 412.33 0 393V35Z" fill="#ABD4FA"/>
<path d="M89.88 342L86.56 336.3H84.36V342H82.54V328.06H87.04C88.0933 328.06 88.98 328.24 89.7 328.6C90.4333 328.96 90.98 329.447 91.34 330.06C91.7 330.673 91.88 331.373 91.88 332.16C91.88 333.12 91.6 333.967 91.04 334.7C90.4933 335.433 89.6667 335.92 88.56 336.16L92.06 342H89.88ZM84.36 334.84H87.04C88.0267 334.84 88.7667 334.6 89.26 334.12C89.7533 333.627 90 332.973 90 332.16C90 331.333 89.7533 330.693 89.26 330.24C88.78 329.787 88.04 329.56 87.04 329.56H84.36V334.84ZM104.708 336.1C104.708 336.447 104.688 336.813 104.648 337.2H95.888C95.9546 338.28 96.3213 339.127 96.988 339.74C97.668 340.34 98.488 340.64 99.448 340.64C100.235 340.64 100.888 340.46 101.408 340.1C101.941 339.727 102.315 339.233 102.528 338.62H104.488C104.195 339.673 103.608 340.533 102.728 341.2C101.848 341.853 100.755 342.18 99.448 342.18C98.408 342.18 97.4746 341.947 96.648 341.48C95.8346 341.013 95.1946 340.353 94.728 339.5C94.2613 338.633 94.028 337.633 94.028 336.5C94.028 335.367 94.2546 334.373 94.708 333.52C95.1613 332.667 95.7946 332.013 96.608 331.56C97.4346 331.093 98.3813 330.86 99.448 330.86C100.488 330.86 101.408 331.087 102.208 331.54C103.008 331.993 103.621 332.62 104.048 333.42C104.488 334.207 104.708 335.1 104.708 336.1ZM102.828 335.72C102.828 335.027 102.675 334.433 102.368 333.94C102.061 333.433 101.641 333.053 101.108 332.8C100.588 332.533 100.008 332.4 99.368 332.4C98.448 332.4 97.6613 332.693 97.008 333.28C96.368 333.867 96.0013 334.68 95.908 335.72H102.828ZM109.33 332.54V339C109.33 339.533 109.444 339.913 109.67 340.14C109.897 340.353 110.29 340.46 110.85 340.46H112.19V342H110.55C109.537 342 108.777 341.767 108.27 341.3C107.764 340.833 107.51 340.067 107.51 339V332.54H106.09V331.04H107.51V328.28H109.33V331.04H112.19V332.54H109.33ZM113.715 336.48C113.715 335.36 113.942 334.38 114.395 333.54C114.849 332.687 115.469 332.027 116.255 331.56C117.055 331.093 117.942 330.86 118.915 330.86C119.875 330.86 120.709 331.067 121.415 331.48C122.122 331.893 122.649 332.413 122.995 333.04V331.04H124.835V342H122.995V339.96C122.635 340.6 122.095 341.133 121.375 341.56C120.669 341.973 119.842 342.18 118.895 342.18C117.922 342.18 117.042 341.94 116.255 341.46C115.469 340.98 114.849 340.307 114.395 339.44C113.942 338.573 113.715 337.587 113.715 336.48ZM122.995 336.5C122.995 335.673 122.829 334.953 122.495 334.34C122.162 333.727 121.709 333.26 121.135 332.94C120.575 332.607 119.955 332.44 119.275 332.44C118.595 332.44 117.975 332.6 117.415 332.92C116.855 333.24 116.409 333.707 116.075 334.32C115.742 334.933 115.575 335.653 115.575 336.48C115.575 337.32 115.742 338.053 116.075 338.68C116.409 339.293 116.855 339.767 117.415 340.1C117.975 340.42 118.595 340.58 119.275 340.58C119.955 340.58 120.575 340.42 121.135 340.1C121.709 339.767 122.162 339.293 122.495 338.68C122.829 338.053 122.995 337.327 122.995 336.5ZM128.851 329.26C128.504 329.26 128.211 329.14 127.971 328.9C127.731 328.66 127.611 328.367 127.611 328.02C127.611 327.673 127.731 327.38 127.971 327.14C128.211 326.9 128.504 326.78 128.851 326.78C129.184 326.78 129.464 326.9 129.691 327.14C129.931 327.38 130.051 327.673 130.051 328.02C130.051 328.367 129.931 328.66 129.691 328.9C129.464 329.14 129.184 329.26 128.851 329.26ZM129.731 331.04V342H127.911V331.04H129.731ZM134.653 327.2V342H132.833V327.2H134.653ZM151.327 338.9H145.247L144.127 342H142.207L147.247 328.14H149.347L154.367 342H152.447L151.327 338.9ZM150.807 337.42L148.287 330.38L145.767 337.42H150.807ZM158.383 333.06C158.743 332.433 159.277 331.913 159.983 331.5C160.703 331.073 161.537 330.86 162.483 330.86C163.457 330.86 164.337 331.093 165.123 331.56C165.923 332.027 166.55 332.687 167.003 333.54C167.457 334.38 167.683 335.36 167.683 336.48C167.683 337.587 167.457 338.573 167.003 339.44C166.55 340.307 165.923 340.98 165.123 341.46C164.337 341.94 163.457 342.18 162.483 342.18C161.55 342.18 160.723 341.973 160.003 341.56C159.297 341.133 158.757 340.607 158.383 339.98V347.2H156.563V331.04H158.383V333.06ZM165.823 336.48C165.823 335.653 165.657 334.933 165.323 334.32C164.99 333.707 164.537 333.24 163.963 332.92C163.403 332.6 162.783 332.44 162.103 332.44C161.437 332.44 160.817 332.607 160.243 332.94C159.683 333.26 159.23 333.733 158.883 334.36C158.55 334.973 158.383 335.687 158.383 336.5C158.383 337.327 158.55 338.053 158.883 338.68C159.23 339.293 159.683 339.767 160.243 340.1C160.817 340.42 161.437 340.58 162.103 340.58C162.783 340.58 163.403 340.42 163.963 340.1C164.537 339.767 164.99 339.293 165.323 338.68C165.657 338.053 165.823 337.32 165.823 336.48ZM171.899 333.06C172.259 332.433 172.792 331.913 173.499 331.5C174.219 331.073 175.052 330.86 175.999 330.86C176.972 330.86 177.852 331.093 178.639 331.56C179.439 332.027 180.066 332.687 180.519 333.54C180.972 334.38 181.199 335.36 181.199 336.48C181.199 337.587 180.972 338.573 180.519 339.44C180.066 340.307 179.439 340.98 178.639 341.46C177.852 341.94 176.972 342.18 175.999 342.18C175.066 342.18 174.239 341.973 173.519 341.56C172.812 341.133 172.272 340.607 171.899 339.98V347.2H170.079V331.04H171.899V333.06ZM179.339 336.48C179.339 335.653 179.172 334.933 178.839 334.32C178.506 333.707 178.052 333.24 177.479 332.92C176.919 332.6 176.299 332.44 175.619 332.44C174.952 332.44 174.332 332.607 173.759 332.94C173.199 333.26 172.746 333.733 172.399 334.36C172.066 334.973 171.899 335.687 171.899 336.5C171.899 337.327 172.066 338.053 172.399 338.68C172.746 339.293 173.199 339.767 173.759 340.1C174.332 340.42 174.952 340.58 175.619 340.58C176.299 340.58 176.919 340.42 177.479 340.1C178.052 339.767 178.506 339.293 178.839 338.68C179.172 338.053 179.339 337.32 179.339 336.48ZM185.415 327.2V342H183.595V327.2H185.415ZM189.457 329.26C189.11 329.26 188.817 329.14 188.577 328.9C188.337 328.66 188.217 328.367 188.217 328.02C188.217 327.673 188.337 327.38 188.577 327.14C188.817 326.9 189.11 326.78 189.457 326.78C189.79 326.78 190.07 326.9 190.297 327.14C190.537 327.38 190.657 327.673 190.657 328.02C190.657 328.367 190.537 328.66 190.297 328.9C190.07 329.14 189.79 329.26 189.457 329.26ZM190.337 331.04V342H188.517V331.04H190.337ZM192.758 336.5C192.758 335.367 192.985 334.38 193.438 333.54C193.892 332.687 194.518 332.027 195.318 331.56C196.132 331.093 197.058 330.86 198.098 330.86C199.445 330.86 200.552 331.187 201.418 331.84C202.298 332.493 202.878 333.4 203.158 334.56H201.198C201.012 333.893 200.645 333.367 200.098 332.98C199.565 332.593 198.898 332.4 198.098 332.4C197.058 332.4 196.218 332.76 195.578 333.48C194.938 334.187 194.618 335.193 194.618 336.5C194.618 337.82 194.938 338.84 195.578 339.56C196.218 340.28 197.058 340.64 198.098 340.64C198.898 340.64 199.565 340.453 200.098 340.08C200.632 339.707 200.998 339.173 201.198 338.48H203.158C202.865 339.6 202.278 340.5 201.398 341.18C200.518 341.847 199.418 342.18 198.098 342.18C197.058 342.18 196.132 341.947 195.318 341.48C194.518 341.013 193.892 340.353 193.438 339.5C192.985 338.647 192.758 337.647 192.758 336.5ZM204.907 336.48C204.907 335.36 205.134 334.38 205.587 333.54C206.04 332.687 206.66 332.027 207.447 331.56C208.247 331.093 209.134 330.86 210.107 330.86C211.067 330.86 211.9 331.067 212.607 331.48C213.314 331.893 213.84 332.413 214.187 333.04V331.04H216.027V342H214.187V339.96C213.827 340.6 213.287 341.133 212.567 341.56C211.86 341.973 211.034 342.18 210.087 342.18C209.114 342.18 208.234 341.94 207.447 341.46C206.66 340.98 206.04 340.307 205.587 339.44C205.134 338.573 204.907 337.587 204.907 336.48ZM214.187 336.5C214.187 335.673 214.02 334.953 213.687 334.34C213.354 333.727 212.9 333.26 212.327 332.94C211.767 332.607 211.147 332.44 210.467 332.44C209.787 332.44 209.167 332.6 208.607 332.92C208.047 333.24 207.6 333.707 207.267 334.32C206.934 334.933 206.767 335.653 206.767 336.48C206.767 337.32 206.934 338.053 207.267 338.68C207.6 339.293 208.047 339.767 208.607 340.1C209.167 340.42 209.787 340.58 210.467 340.58C211.147 340.58 211.767 340.42 212.327 340.1C212.9 339.767 213.354 339.293 213.687 338.68C214.02 338.053 214.187 337.327 214.187 336.5ZM221.323 332.54V339C221.323 339.533 221.436 339.913 221.663 340.14C221.889 340.353 222.283 340.46 222.842 340.46H224.183V342H222.543C221.529 342 220.769 341.767 220.263 341.3C219.756 340.833 219.503 340.067 219.503 339V332.54H218.083V331.04H219.503V328.28H221.323V331.04H224.183V332.54H221.323ZM227.328 329.26C226.981 329.26 226.688 329.14 226.448 328.9C226.208 328.66 226.088 328.367 226.088 328.02C226.088 327.673 226.208 327.38 226.448 327.14C226.688 326.9 226.981 326.78 227.328 326.78C227.661 326.78 227.941 326.9 228.168 327.14C228.408 327.38 228.528 327.673 228.528 328.02C228.528 328.367 228.408 328.66 228.168 328.9C227.941 329.14 227.661 329.26 227.328 329.26ZM228.208 331.04V342H226.388V331.04H228.208ZM236.09 342.18C235.063 342.18 234.13 341.947 233.29 341.48C232.463 341.013 231.81 340.353 231.33 339.5C230.863 338.633 230.63 337.633 230.63 336.5C230.63 335.38 230.87 334.393 231.35 333.54C231.843 332.673 232.51 332.013 233.35 331.56C234.19 331.093 235.13 330.86 236.17 330.86C237.21 330.86 238.15 331.093 238.99 331.56C239.83 332.013 240.49 332.667 240.97 333.52C241.463 334.373 241.71 335.367 241.71 336.5C241.71 337.633 241.456 338.633 240.95 339.5C240.456 340.353 239.783 341.013 238.93 341.48C238.076 341.947 237.13 342.18 236.09 342.18ZM236.09 340.58C236.743 340.58 237.356 340.427 237.93 340.12C238.503 339.813 238.963 339.353 239.31 338.74C239.67 338.127 239.85 337.38 239.85 336.5C239.85 335.62 239.676 334.873 239.33 334.26C238.983 333.647 238.53 333.193 237.97 332.9C237.41 332.593 236.803 332.44 236.15 332.44C235.483 332.44 234.87 332.593 234.31 332.9C233.763 333.193 233.323 333.647 232.99 334.26C232.656 334.873 232.49 335.62 232.49 336.5C232.49 337.393 232.65 338.147 232.97 338.76C233.303 339.373 233.743 339.833 234.29 340.14C234.836 340.433 235.436 340.58 236.09 340.58ZM249.443 330.84C250.776 330.84 251.856 331.247 252.683 332.06C253.509 332.86 253.923 334.02 253.923 335.54V342H252.123V335.8C252.123 334.707 251.849 333.873 251.303 333.3C250.756 332.713 250.009 332.42 249.063 332.42C248.103 332.42 247.336 332.72 246.763 333.32C246.203 333.92 245.923 334.793 245.923 335.94V342H244.103V331.04H245.923V332.6C246.283 332.04 246.769 331.607 247.383 331.3C248.009 330.993 248.696 330.84 249.443 330.84Z" fill="black"/>
<g clip-path="url(#clip0_12805_5980)">
<path d="M277 152.49C277 212.957 227.978 261.979 167.51 261.979C107.043 261.979 58 212.978 58 152.49C58 92.0014 107.022 43 167.49 43C227.957 43 276.979 92.0224 276.979 152.49H277Z" fill="#F37A20"/>
<path d="M115.7 103C113.657 103 112 104.646 112 106.675C112 108.705 113.656 110.35 115.7 110.35H127.995C134.119 125.415 140.15 140.507 146.225 155.599L140.636 168.959C140.168 170.073 140.3 171.415 140.975 172.418C141.651 173.421 142.85 174.055 144.066 174.049H205.733C207.687 174.077 209.485 172.317 209.485 170.374C209.485 168.433 207.687 166.672 205.733 166.699H149.616L152.815 159.12L212.208 154.412C213.763 154.29 215.17 153.087 215.523 151.579L222.924 119.729C223.408 117.584 221.515 115.243 219.301 115.25H137.938L133.93 105.297C133.381 103.949 131.964 103 130.5 103H115.7ZM140.906 122.6H163.8V133.625H145.339L140.906 122.6ZM171.2 122.6H186V133.625H171.2V122.6ZM193.4 122.6H214.637L212.093 133.625H193.4V122.6ZM148.306 140.975H163.801V150.89L152.662 151.77L148.306 140.975ZM171.2 140.975H186V149.129L171.2 150.316V140.975ZM193.4 140.975H210.359L208.894 147.33L193.4 148.555L193.4 140.975ZM156.4 176.5C149.632 176.5 144.067 182.028 144.067 188.75C144.067 195.472 149.632 201 156.4 201C163.168 201 168.734 195.472 168.734 188.75C168.734 182.028 163.168 176.5 156.4 176.5ZM193.4 176.5C186.632 176.5 181.067 182.028 181.067 188.75C181.067 195.472 186.632 201 193.4 201C200.168 201 205.734 195.472 205.734 188.75C205.734 182.028 200.168 176.5 193.4 176.5ZM156.4 183.851C159.169 183.851 161.333 186 161.333 188.75C161.333 191.5 159.169 193.65 156.4 193.65C153.632 193.65 151.467 191.499 151.467 188.75C151.467 186 153.633 183.851 156.4 183.851ZM193.4 183.851C196.169 183.851 198.333 186.001 198.333 188.75C198.333 191.5 196.168 193.65 193.4 193.65C190.632 193.65 188.467 191.5 188.467 188.75C188.467 186 190.632 183.851 193.4 183.851Z" fill="white"/>
</g>
<defs>
<clipPath id="clip0_12805_5980">
<rect width="219" height="219" fill="white" transform="translate(58 43)"/>
</clipPath>
</defs>
</svg>
