<svg width="26" height="25" viewBox="0 0 26 25" fill="none" xmlns="http://www.w3.org/2000/svg">
<path id="Vector" d="M23.6364 13.5843V21.75H24.8182V24.1667H1.18182V21.75H2.36364V13.5843C0.938375 12.609 0 10.9477 0 9.0625C0 8.06304 0.265235 7.10042 0.748351 6.28026L3.95354 0.604167C4.16464 0.230308 4.5548 0 4.97701 0H21.023C21.4452 0 21.8354 0.230308 22.0465 0.604167L25.2407 6.26124C25.7348 7.10042 26 8.06304 26 9.0625C26 10.9477 25.0616 12.609 23.6364 13.5843ZM21.2727 14.4668C21.0787 14.4888 20.8815 14.5 20.6818 14.5C19.1938 14.5 17.8205 13.8692 16.8409 12.8243C15.8613 13.8692 14.488 14.5 13 14.5C11.512 14.5 10.1387 13.8692 9.15909 12.8243C8.17948 13.8692 6.80622 14.5 5.31818 14.5C5.11845 14.5 4.92129 14.4888 4.72727 14.4668V21.75H21.2727V14.4668ZM5.65931 2.41667L2.78434 7.50763C2.51029 7.9731 2.36364 8.50534 2.36364 9.0625C2.36364 10.7308 3.68643 12.0833 5.31818 12.0833C6.53659 12.0833 7.61643 11.3224 8.06212 10.1856C8.45875 9.17394 9.85944 9.17394 10.2561 10.1856C10.7017 11.3224 11.7815 12.0833 13 12.0833C14.2185 12.0833 15.2983 11.3224 15.7439 10.1856C16.1406 9.17394 17.5413 9.17394 17.9379 10.1856C18.3835 11.3224 19.4634 12.0833 20.6818 12.0833C22.3136 12.0833 23.6364 10.7308 23.6364 9.0625C23.6364 8.50534 23.4897 7.9731 23.2046 7.4886L20.3406 2.41667H5.65931Z" fill="#fff"/>
</svg>
