<svg width="21" height="22" viewBox="0 0 21 22" fill="none" xmlns="http://www.w3.org/2000/svg">
<path d="M10.7495 19.7436C9.26459 20.8752 7.39373 21.3765 5.54193 21.1389C4.41029 19.654 3.909 17.7832 4.14656 15.9314L6.27715 17.1615C6.31833 17.7999 6.48499 18.4278 6.77148 19.0093C7.41775 18.9676 8.04543 18.797 8.61986 18.514L10.7495 19.7436ZM15.9321 16.2057L16.5831 19.4324L15.5343 21.2491L0.450401 12.5404L1.49925 10.7237L4.61919 9.67418L7.7788 4.20156C9.67457 0.917997 13.6485 -0.513381 17.5419 0.354333C20.2401 3.29231 20.9875 7.4495 19.0917 10.7331L15.9321 16.2057ZM14.0492 17.8777L13.6357 15.8289L17.2062 9.64448C18.4679 7.45921 18.1373 4.6136 16.3853 2.35766C13.5556 1.96834 10.9265 3.10393 9.66428 5.29015L6.09373 11.4745L4.11267 12.1408L14.0492 17.8777ZM12.3467 9.3528C11.8466 9.06409 11.4817 8.58855 11.3323 8.03081C11.1828 7.47306 11.2611 6.87879 11.5498 6.37873C11.8385 5.87867 12.314 5.51378 12.8718 5.36433C13.4295 5.21488 14.0238 5.29312 14.5238 5.58183C15.0239 5.87054 15.3888 6.34608 15.5382 6.90382C15.6877 7.46157 15.6094 8.05584 15.3207 8.5559C15.032 9.05596 14.5565 9.42085 13.9987 9.57029C13.441 9.71974 12.8467 9.64151 12.3467 9.3528Z" fill="#696868"/>
</svg>
