<svg width="78" height="75" viewBox="0 0 78 75" fill="none" xmlns="http://www.w3.org/2000/svg">
<path d="M0 37.5C0 16.7893 16.7893 0 37.5 0H40.1163C60.827 0 77.6163 16.7893 77.6163 37.5C77.6163 58.2107 60.827 75 40.1163 75H37.5C16.7893 75 0 58.2107 0 37.5Z" fill="white"/>
<g clip-path="url(#clip0_4627_4380)">
<path d="M59 21V25C59 44.2548 48.255 53 35 53L27.4855 52.9998C27.1611 54.824 27 56.814 27 59H23C23 56.2746 23.2314 53.7994 23.6915 51.5364C23.2305 48.9482 23 45.4352 23 41C23 29.9543 31.9543 21 43 21C47 21 51 23 59 21ZM43 25C34.1635 25 27 32.1634 27 41C27 41.7248 27.0064 42.4222 27.0191 43.0918C29.5279 39.1368 33.202 36.0096 38.0077 33.2635L39.9923 36.7364C34.2825 39.9992 30.495 43.707 28.5505 48.9996L35 49C47.0304 49 54.7424 41.0538 54.9938 25.7753C52.2498 26.0423 49.7002 25.872 46.5548 25.4002C44.2526 25.0548 43.8016 25 43 25Z" fill="black"/>
</g>
<defs>
<clipPath id="clip0_4627_4380">
<rect width="40" height="40" fill="white" transform="translate(19 17)"/>
</clipPath>
</defs>
</svg>
