<svg width="32" height="32" viewBox="0 0 32 32" fill="none" xmlns="http://www.w3.org/2000/svg">
<g clip-path="url(#clip0_4867_4581)">
<path d="M27.9999 17.6562V26.6666H29.3333V29.3333H2.66659V26.6666H3.99992V17.6562C2.39193 16.58 1.33325 14.7469 1.33325 12.6666C1.33325 11.5638 1.63249 10.5016 2.17755 9.59657L5.79365 3.33329C6.03183 2.92076 6.472 2.66663 6.94835 2.66663H25.0515C25.5278 2.66663 25.9681 2.92076 26.2062 3.33329L29.8099 9.57559C30.3674 10.5016 30.6666 11.5638 30.6666 12.6666C30.6666 14.7469 29.6079 16.58 27.9999 17.6562ZM25.3333 18.63C25.1143 18.6542 24.8919 18.6666 24.6666 18.6666C22.9878 18.6666 21.4385 17.9706 20.3333 16.8176C19.2281 17.9706 17.6787 18.6666 15.9999 18.6666C14.3211 18.6666 12.7718 17.9706 11.6666 16.8176C10.5614 17.9706 9.01207 18.6666 7.33325 18.6666C7.10792 18.6666 6.88548 18.6542 6.66659 18.63V26.6666H25.3333V18.63ZM7.71812 5.33329L4.47456 10.9509C4.16537 11.4645 3.99992 12.0518 3.99992 12.6666C3.99992 14.5076 5.49231 16 7.33325 16C8.70787 16 9.92615 15.1604 10.429 13.906C10.8765 12.7896 12.4567 12.7896 12.9042 13.906C13.407 15.1604 14.6253 16 15.9999 16C17.3746 16 18.5929 15.1604 19.0957 13.906C19.5431 12.7896 21.1234 12.7896 21.5709 13.906C22.0737 15.1604 23.2919 16 24.6666 16C26.5075 16 27.9999 14.5076 27.9999 12.6666C27.9999 12.0518 27.8345 11.4645 27.5129 10.9299L24.2817 5.33329H7.71812Z" fill="white"/>
</g>
<defs>
<clipPath id="clip0_4867_4581">
<rect width="32" height="32" fill="white"/>
</clipPath>
</defs>
</svg>
