<svg width="30" height="31" viewBox="0 0 30 31" fill="none" xmlns="http://www.w3.org/2000/svg">
<path d="M0 7.68799C0 7.4988 0 7.30959 0 7.12038C0.180927 6.49518 0.534557 6.01807 1.15957 5.79595C0.756603 4.88283 0.995089 3.87099 2.12177 3.36095C2.11356 3.32805 2.11356 3.28693 2.09711 3.25402C1.56255 2.11057 2.49185 0.819031 3.79947 0.835483C6.12684 0.868389 8.46243 0.843711 10.7898 0.843711C11.1517 0.843711 11.4806 0.925974 11.7931 1.11518C12.377 1.46891 12.9609 1.82265 13.5613 2.15993C13.7011 2.24219 13.882 2.29976 14.0383 2.29976C15.5186 2.30799 17.0071 2.30799 18.4874 2.29976C18.5943 2.29976 18.7341 2.2175 18.7917 2.12702C19.2111 1.51827 19.7868 1.25502 20.5105 1.36197C20.7572 1.4031 20.9876 1.52649 21.2343 1.60876C21.6289 1.05759 22.1718 0.761446 22.8625 0.851937C23.5534 0.942426 24.0057 1.36197 24.2772 2.00362C24.754 1.77329 25.231 1.74039 25.6998 1.92957C26.1849 2.12702 26.4975 2.48897 26.6785 2.95786C26.7278 2.94965 26.7443 2.95786 26.7607 2.94965C27.9449 2.3738 29.2444 3.3445 29.2196 4.67716C29.1785 6.98876 29.2033 9.30036 29.2115 11.6119C29.2115 11.9821 29.1209 12.3194 28.9318 12.6402C28.5865 13.1996 28.2409 13.759 27.9284 14.3266C27.8297 14.5076 27.7558 14.738 27.7558 14.9436C27.7393 16.3832 27.7476 17.8146 27.7476 19.2542C27.7476 19.4434 27.7886 19.5586 27.9614 19.6655C28.3478 19.8958 28.5865 20.2496 28.6852 20.6856C28.7921 21.171 28.6852 21.6235 28.422 22.0347C29.5651 22.841 29.4993 24.4944 28.0601 25.1277C28.274 25.5802 28.315 26.0573 28.1259 26.5345C27.9284 27.0198 27.5667 27.3324 27.0814 27.5217C27.106 27.5875 27.1143 27.6368 27.1308 27.6779C27.5009 28.665 27.0321 29.6522 26.0287 29.9812C25.9713 29.9977 25.9137 30.0306 25.8561 30.0553C23.2492 30.0553 20.642 30.0553 18.0351 30.0553C17.7061 29.8908 17.3772 29.7345 17.0565 29.5535C16.5959 29.2903 16.1518 29.0023 15.6831 28.7474C15.535 28.665 15.3459 28.5992 15.1732 28.5992C13.7011 28.5909 12.229 28.5909 10.7569 28.5909C10.6007 28.5909 10.502 28.6322 10.4115 28.772C10.0085 29.3972 9.42464 29.6522 8.70093 29.5289C8.45422 29.4877 8.22395 29.3644 7.96899 29.2738C7.72227 29.6935 7.30286 29.9156 6.84231 30.0471C6.65316 30.0471 6.46402 30.0471 6.27487 30.0471C5.64986 29.866 5.17285 29.5124 4.94258 28.8706C4.45738 29.1093 3.98038 29.1341 3.50339 28.9448C3.01819 28.7474 2.7139 28.3853 2.52476 27.9083C2.46718 27.9166 2.44252 27.9248 2.41783 27.9329C1.33228 28.4264 0.254942 27.6779 0.0493437 26.7649C0.0411197 26.7319 0.0164479 26.6991 0 26.6743C0 24.0665 0 21.4589 0 18.8593C0.164479 18.5303 0.320734 18.193 0.501661 17.8804C0.764827 17.4197 1.05266 16.9755 1.31583 16.5066C1.39807 16.3585 1.46386 16.1693 1.46386 16.0048C1.4721 14.5323 1.46386 13.0598 1.4721 11.5955C1.4721 11.4228 1.40629 11.3323 1.2665 11.2335C0.66614 10.8305 0.411197 10.2546 0.526333 9.53891C0.567452 9.29213 0.690812 9.0618 0.781275 8.80678C0.35363 8.56821 0.139807 8.15691 0 7.68799ZM18.4956 3.28693C18.3641 3.28693 18.2654 3.28693 18.1585 3.28693C16.8015 3.28693 15.4363 3.28693 14.0794 3.28693C13.7011 3.28693 13.3474 3.19643 13.0267 2.99901C12.4757 2.66173 11.9247 2.31621 11.3655 2.00362C11.1763 1.89667 10.9378 1.83086 10.724 1.82265C9.36707 1.80619 8.0019 1.81441 6.64495 1.81441C5.70741 1.81441 4.76165 1.81441 3.82414 1.81441C3.68432 1.81441 3.5363 1.83086 3.4047 1.88022C3.08398 1.99538 2.8866 2.3409 2.93595 2.64527C3.00174 3.01546 3.28134 3.27048 3.70078 3.27048C4.40803 3.27869 5.10706 3.27048 5.81431 3.27869C6.13506 3.27869 6.34066 3.48435 6.34066 3.76404C6.34066 4.0273 6.13506 4.22472 5.839 4.24941C5.75676 4.25763 5.66629 4.24941 5.58405 4.24941C4.62186 4.24941 3.65966 4.24941 2.70567 4.25763C2.33559 4.25763 2.04775 4.51264 1.97375 4.85814C1.90796 5.14606 2.07244 5.49158 2.36028 5.61496C2.49185 5.67255 2.65633 5.69724 2.80436 5.69724C3.47051 5.70545 4.13664 5.69724 4.80277 5.70545C5.15642 5.70545 5.37845 5.91112 5.37845 6.20726C5.37023 6.49518 5.15642 6.66794 4.81923 6.68439C4.74522 6.68439 4.66298 6.68439 4.58896 6.68439C3.69254 6.68439 2.80436 6.68439 1.90796 6.68439C1.7517 6.68439 1.579 6.70084 1.43098 6.75843C1.12669 6.8736 0.945754 7.21909 1.00333 7.52347C1.06911 7.88544 1.38162 8.14043 1.7846 8.14867C2.72212 8.15691 3.66787 8.14867 4.60541 8.14867C4.68765 8.14867 4.77811 8.14867 4.86034 8.14867C5.16464 8.16512 5.37845 8.379 5.37023 8.65047C5.36202 8.91373 5.15642 9.11937 4.86034 9.11937C3.99683 9.1276 3.13332 9.11937 2.26159 9.1276C1.80927 9.1276 1.49676 9.42374 1.48031 9.82683C1.4721 10.2299 1.76815 10.5425 2.21223 10.5836C2.30271 10.5919 2.4014 10.5919 2.50007 10.5919C4.00507 10.5919 5.50181 10.5919 7.00679 10.5919C7.26996 10.5919 7.54134 10.5836 7.80451 10.6001C8.23216 10.6248 8.42131 11.0279 8.18283 11.3816C8.12526 11.4639 8.05123 11.5461 7.98545 11.6284C7.61537 12.0808 7.23707 12.5415 6.867 12.994C6.68607 13.2161 6.6614 13.4629 6.80943 13.7097C6.95745 13.9482 7.18772 14.0387 7.45089 13.9647C7.60715 13.9153 7.74694 13.8084 7.8703 13.685C9.38352 12.196 10.8885 10.7071 12.3853 9.20163C12.7718 8.81499 13.2077 8.60935 13.7586 8.63402C14.2192 8.65047 14.688 8.63402 15.1649 8.63402C15.1485 8.48595 15.132 8.36255 15.1238 8.23917C15.0909 7.81963 15.2061 7.44944 15.4857 7.12862C16.0531 6.47051 17.0153 6.38825 17.7226 6.93941C17.9775 7.13683 18.2242 7.35071 18.5121 7.58106C18.4956 6.12499 18.4956 4.72652 18.4956 3.28693ZM10.7322 27.6203C10.8803 27.6203 10.9954 27.6203 11.1023 27.6203C12.4428 27.6203 13.7833 27.6203 15.1238 27.6203C15.5186 27.6203 15.8722 27.7107 16.2012 27.9166C16.7522 28.2539 17.3032 28.5909 17.8624 28.9119C18.0433 29.0106 18.2654 29.0847 18.471 29.0847C20.7572 29.0928 23.0353 29.0928 25.3215 29.0928C25.4201 29.0928 25.5108 29.101 25.6094 29.0847C25.9383 29.0434 26.1932 28.8131 26.2673 28.5005C26.3331 28.2456 26.2262 27.9248 25.9793 27.7848C25.815 27.6944 25.6094 27.6451 25.4119 27.6368C24.7377 27.6203 24.0633 27.6368 23.3889 27.6286C23.0846 27.6286 22.8873 27.431 22.8791 27.1596C22.8708 26.8964 23.0681 26.6908 23.3641 26.6578C23.4465 26.6497 23.5369 26.6578 23.6191 26.6578C24.5567 26.6578 25.5025 26.6578 26.4399 26.6578C26.9169 26.6578 27.2623 26.337 27.2623 25.9258C27.2623 25.5061 26.9334 25.2101 26.4399 25.2101C25.8231 25.2018 25.2063 25.2101 24.5895 25.2101C24.1044 25.2101 23.866 25.0536 23.8577 24.7246C23.8495 24.3955 24.0879 24.231 24.5732 24.231C25.4942 24.231 26.4153 24.2393 27.3364 24.223C27.5172 24.223 27.7228 24.1817 27.8791 24.1078C28.1505 23.9761 28.2822 23.6305 28.2081 23.3508C28.1177 23.0055 27.8297 22.7668 27.4516 22.7668C26.4892 22.7586 25.5271 22.7668 24.5732 22.7668C24.0879 22.7668 23.8495 22.6106 23.8412 22.2815C23.8412 21.9525 24.0796 21.796 24.5649 21.796C25.3625 21.796 26.1604 21.8043 26.958 21.796C27.394 21.796 27.7065 21.5083 27.7228 21.1134C27.7393 20.7102 27.4516 20.3894 27.0073 20.3401C26.9004 20.3318 26.8017 20.3318 26.695 20.3318C25.0089 20.3318 23.3313 20.3318 21.6455 20.3318C21.5468 20.3318 21.4562 20.3401 21.3575 20.3236C20.9876 20.2825 20.7983 19.9041 20.9956 19.5832C21.0532 19.4845 21.1356 19.4023 21.2095 19.3118C21.5879 18.8511 21.9743 18.3904 22.3444 17.9215C22.5254 17.6994 22.5417 17.4444 22.3855 17.2058C22.2375 16.9755 21.9991 16.885 21.7441 16.9591C21.5961 17.0002 21.4644 17.1153 21.3494 17.2223C19.8855 18.6619 18.4134 20.0933 16.9742 21.5659C16.4725 22.084 15.9216 22.3391 15.2061 22.2815C14.8195 22.2485 14.433 22.2733 14.0876 22.2733C14.0712 22.6106 14.0958 22.9148 14.0218 23.1863C13.734 24.2641 12.4264 24.6752 11.5217 23.9843C11.2504 23.7787 10.9954 23.5647 10.7076 23.3263C10.7322 24.7822 10.7322 26.1807 10.7322 27.6203ZM21.4233 16.013C22.5748 15.8403 23.3641 16.3832 23.4793 17.3786C23.5287 17.831 23.3807 18.2177 23.101 18.5632C22.9036 18.81 22.698 19.0568 22.4842 19.32C23.9481 19.32 25.3545 19.32 26.7854 19.32C26.7854 17.8722 26.7937 16.4408 26.7854 15.0176C26.7854 14.5652 26.8841 14.1621 27.1308 13.7755C27.4598 13.2572 27.7804 12.7225 28.0766 12.1878C28.1753 12.0068 28.2492 11.7847 28.2492 11.579C28.2574 9.30036 28.2574 7.01343 28.2574 4.73476C28.2574 4.63605 28.2657 4.54555 28.2492 4.44684C28.1998 4.06841 27.871 3.77228 27.5172 3.77228C27.1473 3.77228 26.843 4.05196 26.8017 4.44684C26.7854 4.55378 26.7937 4.6525 26.7937 4.75943C26.7937 5.40932 26.8017 6.05097 26.7854 6.70084C26.7772 6.98053 26.5798 7.16974 26.3166 7.17797C26.0782 7.18619 25.8726 7.00522 25.8231 6.7502C25.8068 6.66794 25.815 6.57744 25.815 6.49518C25.815 5.59029 25.815 4.6854 25.815 3.78873C25.815 3.16353 25.5436 2.80158 25.0748 2.80158C24.6143 2.80158 24.3593 3.14707 24.3593 3.77228C24.3593 4.33989 24.3593 4.91573 24.3593 5.48334C24.3593 5.96869 24.2031 6.20726 23.874 6.21549C23.5452 6.22371 23.3889 5.98514 23.3889 5.49158C23.3889 4.57845 23.3889 3.66533 23.3889 2.75222C23.3889 2.59592 23.3724 2.42316 23.3231 2.27509C23.2161 1.97893 22.8708 1.78151 22.5665 1.83086C22.2047 1.88846 21.9332 2.20105 21.9332 2.59592C21.925 3.5584 21.9332 4.51264 21.9332 5.47512C21.9332 5.96047 21.7687 6.19904 21.4481 6.20726C21.1191 6.20726 20.9628 5.96869 20.9628 5.48334C20.9628 4.6854 20.9711 3.88744 20.9628 3.08948C20.9628 2.65349 20.6751 2.3409 20.2802 2.32445C19.8773 2.30799 19.5483 2.59592 19.5072 3.04013C19.499 3.14707 19.499 3.24579 19.499 3.35274C19.499 5.01444 19.499 6.68439 19.499 8.3461C19.499 8.6258 19.5483 8.93018 19.2111 9.08646C18.8739 9.23455 18.6766 8.99599 18.4627 8.82323C18.0104 8.46126 17.5663 8.08286 17.114 7.72089C16.8755 7.5317 16.5877 7.51525 16.3739 7.66332C16.1436 7.81963 16.0531 8.04996 16.1272 8.30498C16.1683 8.45304 16.2834 8.58466 16.3985 8.69983C17.9035 10.2217 19.4003 11.7436 20.9135 13.2572C21.2836 13.6192 21.4644 14.0387 21.4562 14.557C21.4151 15.0259 21.4233 15.5112 21.4233 16.013ZM2.44252 11.579C2.44252 11.7024 2.44252 11.8011 2.44252 11.9081C2.44252 13.2654 2.44252 14.631 2.44252 15.9883C2.44252 16.3668 2.35204 16.7205 2.15468 17.0413C1.80927 17.6007 1.46386 18.1601 1.14314 18.7277C1.04445 18.9004 0.978658 19.1143 0.978658 19.3118C0.970422 21.6069 0.970422 23.8937 0.970422 26.189C0.970422 26.7566 1.25004 27.1268 1.69413 27.135C2.15468 27.1433 2.43428 26.7895 2.43428 26.189C2.43428 25.5309 2.42606 24.8728 2.44252 24.223C2.44252 23.935 2.63988 23.7457 2.89483 23.7375C3.14977 23.7212 3.36358 23.9102 3.39649 24.1817C3.4047 24.2641 3.4047 24.3545 3.4047 24.4368C3.4047 25.3909 3.4047 26.337 3.4047 27.2913C3.4047 27.7683 3.71723 28.1139 4.12843 28.1139C4.54784 28.1139 4.85213 27.7848 4.85213 27.2995C4.86035 26.666 4.85213 26.0245 4.85213 25.3909C4.85213 25.284 4.85213 25.1771 4.8768 25.0784C4.93437 24.8317 5.10706 24.7165 5.35378 24.7083C5.59229 24.7083 5.78143 24.8891 5.81431 25.136C5.82255 25.2264 5.82255 25.3253 5.82255 25.424C5.82255 26.3452 5.82255 27.2665 5.83077 28.188C5.83077 28.3525 5.85543 28.5336 5.92124 28.6898C6.0446 28.9776 6.38178 29.1423 6.66961 29.0847C7.03148 29.0106 7.28641 28.6981 7.28641 28.3032C7.29463 27.3406 7.28641 26.3783 7.28641 25.424C7.28641 24.9632 7.44267 24.7246 7.7634 24.7165C8.09235 24.7083 8.25683 24.955 8.25683 25.4322C8.25683 26.2383 8.24862 27.0527 8.25683 27.859C8.26507 28.2784 8.55291 28.5829 8.9312 28.5992C9.31773 28.6157 9.63845 28.3525 9.70424 27.9411C9.72069 27.8177 9.72069 27.6944 9.72069 27.571C9.72069 25.8599 9.72069 24.1489 9.72069 22.4378C9.72069 22.1909 9.73714 21.9605 10.0003 21.8373C10.2635 21.7139 10.4526 21.8456 10.6418 22.0018C11.1352 22.4048 11.6287 22.8162 12.1221 23.2111C12.3441 23.3921 12.5909 23.4167 12.8376 23.2604C13.0761 23.1124 13.1665 22.882 13.0925 22.6188C13.0514 22.4706 12.9445 22.3309 12.8293 22.2239C11.3161 20.6938 9.81117 19.1637 8.28974 17.6418C7.92787 17.2799 7.74694 16.8768 7.7634 16.3668C7.77163 15.9554 7.7634 15.5523 7.7634 15.141C7.7634 15.067 7.74694 14.9847 7.73873 14.9025C6.85876 15.0423 6.2502 14.7873 5.88834 14.1621C5.53471 13.5369 5.63341 12.8952 6.16796 12.2454C6.34066 12.0315 6.51335 11.8258 6.71073 11.579C5.28799 11.579 3.88992 11.579 2.44252 11.579ZM8.76672 15.4043C8.76672 15.7333 8.74205 16.0706 8.77494 16.3997C8.79139 16.5806 8.86541 16.7945 8.98877 16.9261C10.3704 18.3411 11.7685 19.7395 13.1665 21.1379C13.2488 21.2203 13.3968 21.2779 13.5119 21.2862C14.1945 21.3025 14.8853 21.3025 15.5679 21.2862C15.7406 21.2779 15.9462 21.2038 16.0696 21.0886C17.4923 19.6984 18.8986 18.2999 20.3049 16.8932C20.3788 16.8192 20.4447 16.6793 20.4447 16.5724C20.4529 15.865 20.4612 15.1657 20.4447 14.4582C20.4364 14.2937 20.3543 14.1045 20.2391 13.9893C18.8575 12.5744 17.4594 11.1759 16.0613 9.77747C15.9709 9.687 15.8146 9.6294 15.6913 9.6294C15.0334 9.61295 14.3754 9.6294 13.7258 9.62119C13.4544 9.61295 13.257 9.71166 13.0761 9.89264C11.7109 11.2582 10.3375 12.6156 8.9641 13.9729C8.82429 14.1127 8.76672 14.2526 8.77494 14.45C8.77494 14.7626 8.76672 15.0834 8.76672 15.4043Z" fill="white"/>
</svg>
