<svg width="336" height="428" viewBox="0 0 336 428" fill="none" xmlns="http://www.w3.org/2000/svg">
<path d="M0 35C0 15.67 15.67 0 35 0H301C320.33 0 336 15.67 336 35V393C336 412.33 320.33 428 301 428H168H35C15.67 428 0 412.33 0 393V35Z" fill="#ABD4FA"/>
<path d="M54.12 328.06V329.54H50.32V342H48.5V329.54H44.68V328.06H54.12ZM58.1803 332.82C58.5003 332.193 58.9536 331.707 59.5403 331.36C60.1403 331.013 60.867 330.84 61.7203 330.84V332.72H61.2403C59.2003 332.72 58.1803 333.827 58.1803 336.04V342H56.3603V331.04H58.1803V332.82ZM63.1413 336.48C63.1413 335.36 63.3679 334.38 63.8213 333.54C64.2746 332.687 64.8946 332.027 65.6813 331.56C66.4813 331.093 67.3679 330.86 68.3413 330.86C69.3013 330.86 70.1346 331.067 70.8413 331.48C71.5479 331.893 72.0746 332.413 72.4213 333.04V331.04H74.2613V342H72.4213V339.96C72.0613 340.6 71.5213 341.133 70.8013 341.56C70.0946 341.973 69.2679 342.18 68.3213 342.18C67.3479 342.18 66.4679 341.94 65.6813 341.46C64.8946 340.98 64.2746 340.307 63.8213 339.44C63.3679 338.573 63.1413 337.587 63.1413 336.48ZM72.4213 336.5C72.4213 335.673 72.2546 334.953 71.9213 334.34C71.5879 333.727 71.1346 333.26 70.5613 332.94C70.0013 332.607 69.3813 332.44 68.7013 332.44C68.0213 332.44 67.4013 332.6 66.8413 332.92C66.2813 333.24 65.8346 333.707 65.5013 334.32C65.1679 334.933 65.0013 335.653 65.0013 336.48C65.0013 337.32 65.1679 338.053 65.5013 338.68C65.8346 339.293 66.2813 339.767 66.8413 340.1C67.4013 340.42 68.0213 340.58 68.7013 340.58C69.3813 340.58 70.0013 340.42 70.5613 340.1C71.1346 339.767 71.5879 339.293 71.9213 338.68C72.2546 338.053 72.4213 337.327 72.4213 336.5ZM81.4169 340.32L84.8169 331.04H86.7569L82.4569 342H80.3369L76.0369 331.04H77.9969L81.4169 340.32ZM98.5478 336.1C98.5478 336.447 98.5278 336.813 98.4878 337.2H89.7278C89.7945 338.28 90.1611 339.127 90.8278 339.74C91.5078 340.34 92.3278 340.64 93.2878 340.64C94.0745 340.64 94.7278 340.46 95.2478 340.1C95.7811 339.727 96.1545 339.233 96.3678 338.62H98.3278C98.0345 339.673 97.4478 340.533 96.5678 341.2C95.6878 341.853 94.5945 342.18 93.2878 342.18C92.2478 342.18 91.3145 341.947 90.4878 341.48C89.6745 341.013 89.0345 340.353 88.5678 339.5C88.1011 338.633 87.8678 337.633 87.8678 336.5C87.8678 335.367 88.0945 334.373 88.5478 333.52C89.0011 332.667 89.6345 332.013 90.4478 331.56C91.2745 331.093 92.2211 330.86 93.2878 330.86C94.3278 330.86 95.2478 331.087 96.0478 331.54C96.8478 331.993 97.4611 332.62 97.8878 333.42C98.3278 334.207 98.5478 335.1 98.5478 336.1ZM96.6678 335.72C96.6678 335.027 96.5145 334.433 96.2078 333.94C95.9011 333.433 95.4811 333.053 94.9478 332.8C94.4278 332.533 93.8478 332.4 93.2078 332.4C92.2878 332.4 91.5011 332.693 90.8478 333.28C90.2078 333.867 89.8411 334.68 89.7478 335.72H96.6678ZM102.77 327.2V342H100.95V327.2H102.77ZM118.184 334.82C118.691 334.9 119.151 335.107 119.564 335.44C119.991 335.773 120.324 336.187 120.564 336.68C120.817 337.173 120.944 337.7 120.944 338.26C120.944 338.967 120.764 339.607 120.404 340.18C120.044 340.74 119.517 341.187 118.824 341.52C118.144 341.84 117.337 342 116.404 342H111.204V328.06H116.204C117.151 328.06 117.957 328.22 118.624 328.54C119.291 328.847 119.791 329.267 120.124 329.8C120.457 330.333 120.624 330.933 120.624 331.6C120.624 332.427 120.397 333.113 119.944 333.66C119.504 334.193 118.917 334.58 118.184 334.82ZM113.024 334.08H116.084C116.937 334.08 117.597 333.88 118.064 333.48C118.531 333.08 118.764 332.527 118.764 331.82C118.764 331.113 118.531 330.56 118.064 330.16C117.597 329.76 116.924 329.56 116.044 329.56H113.024V334.08ZM116.244 340.5C117.151 340.5 117.857 340.287 118.364 339.86C118.871 339.433 119.124 338.84 119.124 338.08C119.124 337.307 118.857 336.7 118.324 336.26C117.791 335.807 117.077 335.58 116.184 335.58H113.024V340.5H116.244ZM133.19 331.04V342H131.37V340.38C131.023 340.94 130.536 341.38 129.91 341.7C129.296 342.007 128.616 342.16 127.87 342.16C127.016 342.16 126.25 341.987 125.57 341.64C124.89 341.28 124.35 340.747 123.95 340.04C123.563 339.333 123.37 338.473 123.37 337.46V331.04H125.17V337.22C125.17 338.3 125.443 339.133 125.99 339.72C126.536 340.293 127.283 340.58 128.23 340.58C129.203 340.58 129.97 340.28 130.53 339.68C131.09 339.08 131.37 338.207 131.37 337.06V331.04H133.19ZM135.583 336.48C135.583 335.36 135.809 334.38 136.263 333.54C136.716 332.687 137.336 332.027 138.123 331.56C138.923 331.093 139.816 330.86 140.803 330.86C141.656 330.86 142.449 331.06 143.183 331.46C143.916 331.847 144.476 332.36 144.863 333V327.2H146.703V342H144.863V339.94C144.503 340.593 143.969 341.133 143.263 341.56C142.556 341.973 141.729 342.18 140.783 342.18C139.809 342.18 138.923 341.94 138.123 341.46C137.336 340.98 136.716 340.307 136.263 339.44C135.809 338.573 135.583 337.587 135.583 336.48ZM144.863 336.5C144.863 335.673 144.696 334.953 144.363 334.34C144.029 333.727 143.576 333.26 143.003 332.94C142.443 332.607 141.823 332.44 141.143 332.44C140.463 332.44 139.843 332.6 139.283 332.92C138.723 333.24 138.276 333.707 137.943 334.32C137.609 334.933 137.443 335.653 137.443 336.48C137.443 337.32 137.609 338.053 137.943 338.68C138.276 339.293 138.723 339.767 139.283 340.1C139.843 340.42 140.463 340.58 141.143 340.58C141.823 340.58 142.443 340.42 143.003 340.1C143.576 339.767 144.029 339.293 144.363 338.68C144.696 338.053 144.863 337.327 144.863 336.5ZM149.098 336.48C149.098 335.36 149.325 334.38 149.778 333.54C150.232 332.687 150.852 332.027 151.638 331.56C152.438 331.093 153.332 330.86 154.318 330.86C155.172 330.86 155.965 331.06 156.698 331.46C157.432 331.847 157.992 332.36 158.378 333V327.2H160.218V342H158.378V339.94C158.018 340.593 157.485 341.133 156.778 341.56C156.072 341.973 155.245 342.18 154.298 342.18C153.325 342.18 152.438 341.94 151.638 341.46C150.852 340.98 150.232 340.307 149.778 339.44C149.325 338.573 149.098 337.587 149.098 336.48ZM158.378 336.5C158.378 335.673 158.212 334.953 157.878 334.34C157.545 333.727 157.092 333.26 156.518 332.94C155.958 332.607 155.338 332.44 154.658 332.44C153.978 332.44 153.358 332.6 152.798 332.92C152.238 333.24 151.792 333.707 151.458 334.32C151.125 334.933 150.958 335.653 150.958 336.48C150.958 337.32 151.125 338.053 151.458 338.68C151.792 339.293 152.238 339.767 152.798 340.1C153.358 340.42 153.978 340.58 154.658 340.58C155.338 340.58 155.958 340.42 156.518 340.1C157.092 339.767 157.545 339.293 157.878 338.68C158.212 338.053 158.378 337.327 158.378 336.5ZM172.734 331.04L166.134 347.16H164.254L166.414 341.88L161.994 331.04H164.014L167.454 339.92L170.854 331.04H172.734ZM188.135 338.9H182.055L180.935 342H179.015L184.055 328.14H186.155L191.175 342H189.255L188.135 338.9ZM187.615 337.42L185.095 330.38L182.575 337.42H187.615ZM195.192 333.06C195.552 332.433 196.085 331.913 196.792 331.5C197.512 331.073 198.345 330.86 199.292 330.86C200.265 330.86 201.145 331.093 201.932 331.56C202.732 332.027 203.359 332.687 203.812 333.54C204.265 334.38 204.492 335.36 204.492 336.48C204.492 337.587 204.265 338.573 203.812 339.44C203.359 340.307 202.732 340.98 201.932 341.46C201.145 341.94 200.265 342.18 199.292 342.18C198.359 342.18 197.532 341.973 196.812 341.56C196.105 341.133 195.565 340.607 195.192 339.98V347.2H193.372V331.04H195.192V333.06ZM202.632 336.48C202.632 335.653 202.465 334.933 202.132 334.32C201.799 333.707 201.345 333.24 200.772 332.92C200.212 332.6 199.592 332.44 198.912 332.44C198.245 332.44 197.625 332.607 197.052 332.94C196.492 333.26 196.039 333.733 195.692 334.36C195.359 334.973 195.192 335.687 195.192 336.5C195.192 337.327 195.359 338.053 195.692 338.68C196.039 339.293 196.492 339.767 197.052 340.1C197.625 340.42 198.245 340.58 198.912 340.58C199.592 340.58 200.212 340.42 200.772 340.1C201.345 339.767 201.799 339.293 202.132 338.68C202.465 338.053 202.632 337.32 202.632 336.48ZM208.708 333.06C209.068 332.433 209.601 331.913 210.308 331.5C211.028 331.073 211.861 330.86 212.808 330.86C213.781 330.86 214.661 331.093 215.448 331.56C216.248 332.027 216.874 332.687 217.328 333.54C217.781 334.38 218.008 335.36 218.008 336.48C218.008 337.587 217.781 338.573 217.328 339.44C216.874 340.307 216.248 340.98 215.448 341.46C214.661 341.94 213.781 342.18 212.808 342.18C211.874 342.18 211.048 341.973 210.328 341.56C209.621 341.133 209.081 340.607 208.708 339.98V347.2H206.888V331.04H208.708V333.06ZM216.148 336.48C216.148 335.653 215.981 334.933 215.648 334.32C215.314 333.707 214.861 333.24 214.288 332.92C213.728 332.6 213.108 332.44 212.428 332.44C211.761 332.44 211.141 332.607 210.568 332.94C210.008 333.26 209.554 333.733 209.208 334.36C208.874 334.973 208.708 335.687 208.708 336.5C208.708 337.327 208.874 338.053 209.208 338.68C209.554 339.293 210.008 339.767 210.568 340.1C211.141 340.42 211.761 340.58 212.428 340.58C213.108 340.58 213.728 340.42 214.288 340.1C214.861 339.767 215.314 339.293 215.648 338.68C215.981 338.053 216.148 337.32 216.148 336.48ZM222.223 327.2V342H220.403V327.2H222.223ZM226.265 329.26C225.918 329.26 225.625 329.14 225.385 328.9C225.145 328.66 225.025 328.367 225.025 328.02C225.025 327.673 225.145 327.38 225.385 327.14C225.625 326.9 225.918 326.78 226.265 326.78C226.598 326.78 226.878 326.9 227.105 327.14C227.345 327.38 227.465 327.673 227.465 328.02C227.465 328.367 227.345 328.66 227.105 328.9C226.878 329.14 226.598 329.26 226.265 329.26ZM227.145 331.04V342H225.325V331.04H227.145ZM229.567 336.5C229.567 335.367 229.794 334.38 230.247 333.54C230.7 332.687 231.327 332.027 232.127 331.56C232.94 331.093 233.867 330.86 234.907 330.86C236.254 330.86 237.36 331.187 238.227 331.84C239.107 332.493 239.687 333.4 239.967 334.56H238.007C237.82 333.893 237.454 333.367 236.907 332.98C236.374 332.593 235.707 332.4 234.907 332.4C233.867 332.4 233.027 332.76 232.387 333.48C231.747 334.187 231.427 335.193 231.427 336.5C231.427 337.82 231.747 338.84 232.387 339.56C233.027 340.28 233.867 340.64 234.907 340.64C235.707 340.64 236.374 340.453 236.907 340.08C237.44 339.707 237.807 339.173 238.007 338.48H239.967C239.674 339.6 239.087 340.5 238.207 341.18C237.327 341.847 236.227 342.18 234.907 342.18C233.867 342.18 232.94 341.947 232.127 341.48C231.327 341.013 230.7 340.353 230.247 339.5C229.794 338.647 229.567 337.647 229.567 336.5ZM241.715 336.48C241.715 335.36 241.942 334.38 242.395 333.54C242.849 332.687 243.469 332.027 244.255 331.56C245.055 331.093 245.942 330.86 246.915 330.86C247.875 330.86 248.709 331.067 249.415 331.48C250.122 331.893 250.649 332.413 250.995 333.04V331.04H252.835V342H250.995V339.96C250.635 340.6 250.095 341.133 249.375 341.56C248.669 341.973 247.842 342.18 246.895 342.18C245.922 342.18 245.042 341.94 244.255 341.46C243.469 340.98 242.849 340.307 242.395 339.44C241.942 338.573 241.715 337.587 241.715 336.48ZM250.995 336.5C250.995 335.673 250.829 334.953 250.495 334.34C250.162 333.727 249.709 333.26 249.135 332.94C248.575 332.607 247.955 332.44 247.275 332.44C246.595 332.44 245.975 332.6 245.415 332.92C244.855 333.24 244.409 333.707 244.075 334.32C243.742 334.933 243.575 335.653 243.575 336.48C243.575 337.32 243.742 338.053 244.075 338.68C244.409 339.293 244.855 339.767 245.415 340.1C245.975 340.42 246.595 340.58 247.275 340.58C247.955 340.58 248.575 340.42 249.135 340.1C249.709 339.767 250.162 339.293 250.495 338.68C250.829 338.053 250.995 337.327 250.995 336.5ZM258.131 332.54V339C258.131 339.533 258.244 339.913 258.471 340.14C258.698 340.353 259.091 340.46 259.651 340.46H260.991V342H259.351C258.338 342 257.578 341.767 257.071 341.3C256.564 340.833 256.311 340.067 256.311 339V332.54H254.891V331.04H256.311V328.28H258.131V331.04H260.991V332.54H258.131ZM264.136 329.26C263.79 329.26 263.496 329.14 263.256 328.9C263.016 328.66 262.896 328.367 262.896 328.02C262.896 327.673 263.016 327.38 263.256 327.14C263.496 326.9 263.79 326.78 264.136 326.78C264.47 326.78 264.75 326.9 264.976 327.14C265.216 327.38 265.336 327.673 265.336 328.02C265.336 328.367 265.216 328.66 264.976 328.9C264.75 329.14 264.47 329.26 264.136 329.26ZM265.016 331.04V342H263.196V331.04H265.016ZM272.898 342.18C271.871 342.18 270.938 341.947 270.098 341.48C269.271 341.013 268.618 340.353 268.138 339.5C267.671 338.633 267.438 337.633 267.438 336.5C267.438 335.38 267.678 334.393 268.158 333.54C268.651 332.673 269.318 332.013 270.158 331.56C270.998 331.093 271.938 330.86 272.978 330.86C274.018 330.86 274.958 331.093 275.798 331.56C276.638 332.013 277.298 332.667 277.778 333.52C278.271 334.373 278.518 335.367 278.518 336.5C278.518 337.633 278.265 338.633 277.758 339.5C277.265 340.353 276.591 341.013 275.738 341.48C274.885 341.947 273.938 342.18 272.898 342.18ZM272.898 340.58C273.551 340.58 274.165 340.427 274.738 340.12C275.311 339.813 275.771 339.353 276.118 338.74C276.478 338.127 276.658 337.38 276.658 336.5C276.658 335.62 276.485 334.873 276.138 334.26C275.791 333.647 275.338 333.193 274.778 332.9C274.218 332.593 273.611 332.44 272.958 332.44C272.291 332.44 271.678 332.593 271.118 332.9C270.571 333.193 270.131 333.647 269.798 334.26C269.465 334.873 269.298 335.62 269.298 336.5C269.298 337.393 269.458 338.147 269.778 338.76C270.111 339.373 270.551 339.833 271.098 340.14C271.645 340.433 272.245 340.58 272.898 340.58ZM286.251 330.84C287.584 330.84 288.664 331.247 289.491 332.06C290.318 332.86 290.731 334.02 290.731 335.54V342H288.931V335.8C288.931 334.707 288.658 333.873 288.111 333.3C287.564 332.713 286.818 332.42 285.871 332.42C284.911 332.42 284.144 332.72 283.571 333.32C283.011 333.92 282.731 334.793 282.731 335.94V342H280.911V331.04H282.731V332.6C283.091 332.04 283.578 331.607 284.191 331.3C284.818 330.993 285.504 330.84 286.251 330.84Z" fill="black"/>
<path d="M278 152.49C278 212.957 228.978 261.979 168.51 261.979C108.043 261.979 59 212.978 59 152.49C59 92.0014 108.022 43 168.49 43C228.957 43 277.979 92.0224 277.979 152.49H278Z" fill="#F37A20"/>
<path d="M139.162 100.715C139.162 101.358 138.911 101.43 136.803 101.43C134.766 101.43 134.408 101.537 134.265 102.109C134.158 102.573 133.658 102.895 132.693 103.038C131.907 103.181 131.299 103.467 131.299 103.753C131.299 104.038 130.691 104.324 129.869 104.467C128.833 104.646 128.44 104.896 128.44 105.361C128.44 105.825 128.047 106.04 127.046 106.219C126.081 106.361 125.616 106.647 125.474 107.148C125.366 107.577 124.973 107.863 124.544 107.863C124.044 107.863 123.794 108.077 123.794 108.577C123.794 109.042 123.544 109.292 123.079 109.292C122.543 109.292 122.364 109.542 122.364 110.186C122.364 110.829 122.186 111.079 121.649 111.079C121.185 111.079 120.935 111.329 120.935 111.794C120.935 112.258 120.685 112.509 120.22 112.509C119.72 112.509 119.505 112.759 119.505 113.259C119.505 113.688 119.219 114.081 118.826 114.188C118.362 114.296 118.04 114.796 117.897 115.761C117.718 116.797 117.504 117.155 116.968 117.155C116.396 117.155 116.289 117.405 116.289 118.763C116.289 120.121 116.181 120.371 115.574 120.371C114.966 120.371 114.859 120.621 114.859 121.979C114.859 123.337 114.752 123.588 114.144 123.588C113.501 123.588 113.43 123.838 113.43 125.911C113.43 127.983 113.358 128.234 112.715 128.234C112.036 128.234 112 128.484 112 135.167C112 141.779 112.036 142.1 112.715 142.279C113.322 142.422 113.43 142.779 113.43 144.816C113.43 146.925 113.501 147.175 114.144 147.175C114.788 147.175 114.859 147.425 114.859 149.498C114.859 151.571 114.931 151.821 115.574 151.821C116.181 151.821 116.289 152.071 116.289 153.43C116.289 154.752 116.396 155.038 116.968 155.038C117.504 155.038 117.682 155.395 117.861 156.646C118.04 157.647 118.29 158.254 118.612 158.254C118.933 158.254 119.184 158.862 119.362 159.863C119.541 161.113 119.72 161.471 120.256 161.471C120.827 161.471 120.935 161.757 120.935 163.079C120.935 164.437 121.042 164.687 121.649 164.687C122.257 164.687 122.364 164.937 122.364 166.117C122.364 167.296 122.507 167.546 123.043 167.546C123.579 167.546 123.758 167.904 123.937 169.155C124.115 170.191 124.366 170.763 124.723 170.763C125.009 170.763 125.223 171.085 125.223 171.513C125.223 171.942 125.509 172.335 125.902 172.443C126.367 172.55 126.689 173.05 126.832 173.979C126.975 174.909 127.296 175.409 127.761 175.516C128.297 175.659 128.44 176.016 128.44 177.16C128.44 178.375 128.547 178.625 129.155 178.625C129.691 178.625 129.869 178.876 129.869 179.519C129.869 180.162 130.048 180.412 130.584 180.412C131.192 180.412 131.299 180.663 131.299 181.842C131.299 183.021 131.406 183.271 132.014 183.271C132.55 183.271 132.729 183.522 132.729 184.165C132.729 184.808 132.907 185.058 133.408 185.058C133.979 185.058 134.158 185.38 134.373 186.667C134.551 187.918 134.73 188.275 135.266 188.275C135.695 188.275 135.945 188.525 135.945 188.99C135.945 189.454 136.195 189.704 136.66 189.704C137.267 189.704 137.375 189.955 137.375 191.313C137.375 192.671 137.482 192.921 138.089 192.921C138.59 192.921 138.804 193.171 138.804 193.671C138.804 194.1 139.09 194.493 139.483 194.601C139.948 194.708 140.269 195.208 140.412 196.173C140.591 197.21 140.806 197.567 141.342 197.567C141.842 197.567 142.021 197.817 142.021 198.46C142.021 199.104 142.199 199.354 142.735 199.354C143.343 199.354 143.45 199.604 143.45 200.784C143.45 201.963 143.557 202.213 144.165 202.213C144.701 202.213 144.88 202.463 144.88 203.107C144.88 203.893 145.023 204 146.309 204C147.596 204 147.739 203.893 147.739 203.107C147.739 202.463 147.918 202.213 148.418 202.213C148.954 202.213 149.168 201.856 149.347 200.784C149.526 199.711 149.74 199.354 150.276 199.354C150.777 199.354 150.955 199.104 150.955 198.46C150.955 197.817 151.134 197.567 151.67 197.567C152.278 197.567 152.385 197.317 152.385 196.137C152.385 194.958 152.492 194.708 153.1 194.708C153.636 194.708 153.814 194.458 153.814 193.814C153.814 193.171 153.993 192.921 154.493 192.921C155.03 192.921 155.208 192.564 155.387 191.313L155.637 189.704H180.297H204.921V192.707C204.921 195.566 204.957 195.744 205.743 195.852C206.243 195.923 206.565 196.245 206.636 196.745C206.744 197.567 206.779 197.567 213.355 197.567H219.931V196.674C219.931 196.03 220.11 195.78 220.646 195.78C221.361 195.78 221.361 195.53 221.361 174.694C221.361 153.858 221.361 153.608 220.646 153.608C220.039 153.608 219.931 153.358 219.931 152C219.931 150.642 219.824 150.392 219.217 150.392C218.609 150.392 218.502 150.142 218.502 148.783V147.175H221.575H224.685L224.47 144.745C224.327 143.423 224.22 141.993 224.22 141.529C224.22 141.1 224.006 140.742 223.72 140.742C223.362 140.742 223.112 140.17 222.933 139.134C222.755 137.883 222.576 137.526 222.04 137.526C221.611 137.526 221.361 137.276 221.361 136.811C221.361 136.346 221.111 136.096 220.646 136.096C220.181 136.096 219.931 135.846 219.931 135.381C219.931 134.702 219.681 134.667 215.464 134.667H210.997V133.058C210.997 131.7 210.889 131.45 210.282 131.45C209.674 131.45 209.567 131.2 209.567 129.842C209.567 128.52 209.46 128.234 208.888 128.234C208.209 128.234 207.78 126.84 207.78 124.624C207.78 123.981 207.566 123.623 207.065 123.48C206.493 123.337 206.351 122.98 206.351 121.836C206.351 120.621 206.243 120.371 205.636 120.371C205.028 120.371 204.921 120.121 204.921 118.763C204.921 117.405 204.814 117.155 204.206 117.155C203.742 117.155 203.491 116.904 203.491 116.44C203.491 115.975 203.241 115.725 202.812 115.725C202.348 115.725 202.062 115.439 201.99 114.903C201.919 114.26 201.633 114.081 200.561 114.01C199.489 113.902 199.203 113.759 199.203 113.188C199.203 112.544 198.881 112.509 191.733 112.509H184.3L184.049 111.401C183.942 110.793 183.835 109.721 183.835 109.078C183.835 108.113 183.692 107.863 183.12 107.863C182.584 107.863 182.406 107.612 182.406 106.969C182.406 106.326 182.227 106.076 181.691 106.076C181.226 106.076 180.976 105.825 180.976 105.361C180.976 104.646 180.726 104.646 171.326 104.646C162.106 104.646 161.677 104.61 161.677 103.967C161.677 103.431 161.32 103.252 160.069 103.074C158.782 102.859 158.46 102.68 158.46 102.109C158.46 101.501 158.21 101.43 156.137 101.43C154.065 101.43 153.814 101.358 153.814 100.715C153.814 100.036 153.564 100 146.488 100C139.412 100 139.162 100.036 139.162 100.715ZM153.814 103.931C153.814 104.575 154.065 104.646 156.137 104.646C158.175 104.646 158.46 104.718 158.46 105.325C158.46 105.861 158.818 106.076 159.89 106.254C160.962 106.433 161.32 106.647 161.32 107.183C161.32 107.755 161.57 107.863 162.749 107.863C163.929 107.863 164.179 107.97 164.179 108.577C164.179 109.113 164.429 109.292 165.072 109.292C165.715 109.292 165.966 109.471 165.966 110.007C165.966 110.471 166.216 110.722 166.68 110.722C167.217 110.722 167.395 110.972 167.395 111.615C167.395 112.258 167.574 112.509 168.11 112.509C168.575 112.509 168.825 112.759 168.825 113.223C168.825 113.688 169.075 113.938 169.504 113.938C169.968 113.938 170.254 114.224 170.326 114.724C170.397 115.26 170.719 115.582 171.255 115.654C171.827 115.761 172.041 116.011 172.041 116.654C172.041 117.19 172.256 117.512 172.577 117.512C172.935 117.512 173.185 118.012 173.328 118.942C173.507 120.014 173.721 120.371 174.221 120.371C174.793 120.371 174.9 120.657 174.9 121.979C174.9 123.337 175.008 123.588 175.615 123.588C176.258 123.588 176.33 123.838 176.33 125.518C176.33 128.126 176.687 129.663 177.259 129.663C177.652 129.663 177.759 130.771 177.759 135.381C177.759 139.992 177.652 141.1 177.259 141.1C176.687 141.1 176.33 142.636 176.33 145.245C176.33 146.925 176.258 147.175 175.615 147.175C175.008 147.175 174.9 147.425 174.9 148.783C174.9 150.142 174.793 150.392 174.186 150.392C173.614 150.392 173.471 150.642 173.471 151.607C173.471 153.501 173.078 155.038 172.577 155.038C172.291 155.038 172.006 155.645 171.863 156.432C171.72 157.397 171.398 157.897 170.933 158.004C170.397 158.147 170.254 158.504 170.254 159.612C170.254 160.72 170.111 161.078 169.54 161.221C169.039 161.328 168.825 161.721 168.825 162.329C168.825 163.008 168.646 163.258 168.11 163.258C167.502 163.258 167.395 163.508 167.395 164.687C167.395 165.867 167.288 166.117 166.68 166.117C166.073 166.117 165.966 166.367 165.966 167.582C165.966 168.726 165.823 169.083 165.287 169.226C164.822 169.333 164.5 169.834 164.357 170.763C164.214 171.692 163.893 172.192 163.428 172.3C163.035 172.407 162.749 172.8 162.749 173.229C162.749 173.658 162.535 173.979 162.249 173.979C161.891 173.979 161.641 174.551 161.463 175.588C161.284 176.838 161.105 177.196 160.569 177.196C160.033 177.196 159.89 177.446 159.89 178.625C159.89 179.805 159.783 180.055 159.175 180.055C158.639 180.055 158.46 180.305 158.46 180.948C158.46 181.592 158.282 181.842 157.781 181.842C157.245 181.842 157.067 182.199 156.888 183.45C156.674 184.737 156.495 185.058 155.923 185.058C155.423 185.058 155.244 185.309 155.244 185.952C155.244 186.488 155.03 186.845 154.708 186.845C154.351 186.845 154.1 187.346 153.957 188.275C153.779 189.347 153.564 189.704 153.064 189.704C152.564 189.704 152.385 189.955 152.385 190.598C152.385 191.241 152.206 191.491 151.706 191.491C151.17 191.491 150.955 191.849 150.777 192.921C150.634 193.814 150.348 194.351 150.026 194.351C149.74 194.351 149.526 194.672 149.526 195.101C149.526 195.53 149.24 195.923 148.847 196.03C148.382 196.137 148.06 196.638 147.918 197.603C147.667 198.961 147.632 198.997 146.274 198.997C144.88 198.997 144.88 198.997 144.88 197.567C144.88 196.388 144.773 196.137 144.165 196.137C143.629 196.137 143.45 195.887 143.45 195.244C143.45 194.601 143.271 194.351 142.771 194.351C142.235 194.351 142.021 193.993 141.842 192.957C141.699 191.992 141.377 191.491 140.913 191.384C140.52 191.277 140.234 190.884 140.234 190.455C140.234 189.955 140.019 189.704 139.519 189.704C138.911 189.704 138.804 189.454 138.804 188.275C138.804 187.096 138.697 186.845 138.089 186.845C137.553 186.845 137.375 186.595 137.375 185.952C137.375 185.309 137.196 185.058 136.66 185.058C136.052 185.058 135.945 184.808 135.945 183.593C135.945 182.449 135.802 182.092 135.23 181.949C134.837 181.842 134.515 181.449 134.515 181.056C134.515 180.663 134.23 180.269 133.836 180.162C133.372 180.055 133.05 179.555 132.907 178.59C132.729 177.553 132.514 177.196 131.978 177.196C131.406 177.196 131.299 176.946 131.299 175.588C131.299 174.23 131.192 173.979 130.584 173.979C130.048 173.979 129.869 173.729 129.869 173.086C129.869 172.443 129.691 172.192 129.155 172.192C128.547 172.192 128.44 171.942 128.44 170.763C128.44 169.583 128.297 169.333 127.761 169.333C127.225 169.333 127.046 168.976 126.867 167.725C126.653 166.438 126.474 166.117 125.902 166.117C125.402 166.117 125.223 165.867 125.223 165.223C125.223 164.687 125.009 164.33 124.723 164.33C124.366 164.33 124.115 163.758 123.937 162.722C123.758 161.471 123.579 161.113 123.043 161.113C122.507 161.113 122.364 160.863 122.364 159.684C122.364 158.504 122.257 158.254 121.649 158.254C121.042 158.254 120.935 158.004 120.935 156.646C120.935 155.288 120.827 155.038 120.22 155.038C119.648 155.038 119.505 154.788 119.505 153.823C119.505 151.75 119.112 150.463 118.397 150.285C117.861 150.142 117.718 149.784 117.718 148.641C117.718 147.64 117.575 147.175 117.218 147.175C116.646 147.175 116.289 145.638 116.289 143.03C116.289 141.35 116.217 141.1 115.574 141.1C114.895 141.1 114.859 140.849 114.859 134.845C114.859 128.841 114.895 128.591 115.574 128.591C116.181 128.591 116.289 128.341 116.289 127.197C116.289 125.16 116.682 123.588 117.182 123.588C117.432 123.588 117.754 122.909 117.861 121.979C118.076 120.693 118.254 120.371 118.826 120.371C119.362 120.371 119.505 120.121 119.505 118.977C119.505 117.905 119.648 117.548 120.22 117.405C120.649 117.298 120.935 116.904 120.935 116.476C120.935 115.975 121.149 115.725 121.649 115.725C122.186 115.725 122.364 115.475 122.364 114.832C122.364 114.188 122.543 113.938 123.079 113.938C123.544 113.938 123.794 113.688 123.794 113.223C123.794 112.759 124.044 112.509 124.473 112.509C124.937 112.509 125.223 112.223 125.295 111.687C125.366 111.186 125.688 110.865 126.224 110.793C126.724 110.722 127.01 110.436 127.01 109.971C127.01 109.542 127.26 109.292 127.725 109.292C128.19 109.292 128.44 109.042 128.44 108.577C128.44 107.97 128.69 107.863 129.869 107.863C131.049 107.863 131.299 107.755 131.299 107.183C131.299 106.612 131.621 106.433 132.907 106.219C134.158 106.04 134.515 105.861 134.515 105.325C134.515 104.718 134.801 104.646 136.696 104.646C138.554 104.646 138.911 104.539 139.054 103.931C139.233 103.252 139.555 103.216 146.524 103.216C153.564 103.216 153.814 103.252 153.814 103.931ZM179.546 108.577C179.546 109.042 179.797 109.292 180.261 109.292C180.869 109.292 180.976 109.542 180.976 110.9V112.509H176.509C172.327 112.509 172.041 112.473 172.041 111.83C172.041 111.365 171.755 111.079 171.255 111.008C170.719 110.936 170.397 110.614 170.326 110.078C170.254 109.578 169.968 109.292 169.504 109.292C169.075 109.292 168.825 109.042 168.825 108.577C168.825 107.898 169.075 107.863 174.186 107.863C179.296 107.863 179.546 107.898 179.546 108.577ZM198.845 116.44C198.845 116.976 199.096 117.155 199.739 117.155C200.382 117.155 200.632 117.333 200.632 117.834C200.632 118.191 200.954 118.584 201.347 118.691C201.776 118.799 202.062 119.192 202.062 119.621C202.062 120.121 202.276 120.371 202.777 120.371C203.384 120.371 203.491 120.621 203.491 121.979C203.491 123.337 203.599 123.588 204.206 123.588C204.85 123.588 204.921 123.838 204.921 125.911C204.921 127.983 204.992 128.234 205.636 128.234C206.243 128.234 206.351 128.484 206.351 129.842C206.351 131.2 206.458 131.45 207.065 131.45C207.637 131.45 207.78 131.7 207.78 132.665C207.78 134.559 208.173 136.096 208.709 136.096C208.995 136.096 209.245 136.74 209.424 137.704C209.639 139.277 209.674 139.313 211.032 139.313C212.176 139.313 212.426 139.205 212.426 138.598C212.426 137.955 212.676 137.883 215.464 137.883C218.252 137.883 218.502 137.955 218.502 138.598C218.502 139.063 218.752 139.313 219.217 139.313C219.753 139.313 219.931 139.563 219.931 140.206C219.931 140.849 220.11 141.1 220.646 141.1C221.254 141.1 221.361 141.35 221.361 142.529V143.959H216.893H212.426V144.852C212.426 145.496 212.605 145.746 213.105 145.746C213.641 145.746 213.856 146.103 214.034 147.175C214.177 148.069 214.463 148.605 214.785 148.605C215.071 148.605 215.285 148.926 215.285 149.355C215.285 149.784 215.571 150.177 216 150.285C216.5 150.427 216.751 150.892 216.929 152.036C217.036 152.929 217.358 153.608 217.608 153.608C217.858 153.608 218.144 154.109 218.287 154.716C218.395 155.324 218.502 164.509 218.502 175.087V194.351H213.355H208.245L207.995 193.243C207.887 192.635 207.78 190.848 207.78 189.311V186.488H183.12C158.711 186.488 158.46 186.488 158.46 185.773C158.46 185.309 158.711 185.058 159.175 185.058C159.711 185.058 159.89 184.808 159.89 184.165C159.89 183.522 160.069 183.271 160.605 183.271C161.212 183.271 161.32 183.021 161.32 181.842C161.32 180.663 161.427 180.412 162.034 180.412C162.57 180.412 162.749 180.162 162.749 179.519C162.749 178.804 162.928 178.625 163.643 178.625C164.286 178.625 164.536 178.804 164.536 179.34C164.536 179.948 164.786 180.055 165.966 180.055H167.395V178.625V177.196H165.966C164.679 177.196 164.536 177.089 164.536 176.302C164.536 175.659 164.715 175.409 165.251 175.409C165.858 175.409 165.966 175.159 165.966 173.979C165.966 172.8 166.073 172.55 166.68 172.55C167.217 172.55 167.395 172.3 167.395 171.656C167.395 171.013 167.574 170.763 168.11 170.763C168.718 170.763 168.825 170.513 168.825 169.155C168.825 167.797 168.932 167.546 169.54 167.546C170.004 167.546 170.254 167.296 170.254 166.832C170.254 166.153 170.504 166.117 179.368 166.117H188.481V164.509V162.9H180.261C172.434 162.9 172.041 162.865 172.041 162.221C172.041 161.864 172.363 161.471 172.756 161.364C173.328 161.221 173.471 160.863 173.471 159.72V158.254H182.406H191.34V156.646V155.038H183.835H176.33V153.43C176.33 152.071 176.437 151.821 177.045 151.821C177.617 151.821 177.759 151.571 177.759 150.606C177.759 148.712 178.153 147.175 178.653 147.175C179.153 147.175 179.546 145.603 179.546 143.566C179.546 142.636 179.689 142.172 180.047 142.172C180.762 142.172 180.976 140.528 180.976 135.381C180.976 130.235 180.762 128.591 180.047 128.591C179.689 128.591 179.546 128.126 179.546 127.197C179.546 125.124 179.153 123.588 178.617 123.588C178.331 123.588 178.081 122.944 177.902 121.979C177.759 121.014 177.509 120.371 177.188 120.371C176.902 120.371 176.652 119.728 176.473 118.763C176.294 117.512 176.115 117.155 175.579 117.155C175.151 117.155 174.9 116.904 174.9 116.44C174.9 115.725 175.151 115.725 186.873 115.725C198.595 115.725 198.845 115.725 198.845 116.44Z" fill="white"/>
<path d="M123.793 136.096V140.742H128.26H132.728V145.567V150.392H137.374H142.02V145.567V140.706L146.416 140.814L150.776 140.921L150.883 145.638L150.99 150.392H155.422H159.889V145.567V140.742H164.357H168.824V136.096V131.45H164.357H159.889V136.096V140.742H155.422H150.954V136.096V131.45H146.487H142.02V136.096V140.742H137.374H132.728V136.096V131.45H128.26H123.793V136.096Z" fill="white"/>
<path d="M182.404 145.567V147.175H183.834H185.263V145.567V143.959H183.834H182.404V145.567Z" fill="white"/>
<path d="M188.481 145.567V147.175H189.911H191.341V145.567V143.959H189.911H188.481V145.567Z" fill="white"/>
<path d="M194.557 145.567V147.175H195.986H197.416V145.567V143.959H195.986H194.557V145.567Z" fill="white"/>
<path d="M200.633 145.531V147.175H202.098H203.528L203.42 145.639C203.313 144.173 203.277 144.137 201.991 144.03L200.633 143.923V145.531Z" fill="white"/>
<path d="M206.6 144.209C206.457 144.316 206.35 145.067 206.35 145.817C206.35 147.175 206.35 147.175 207.779 147.175H209.209V145.567C209.209 143.995 209.209 143.959 208.029 143.959C207.35 143.959 206.707 144.066 206.6 144.209Z" fill="white"/>
<path d="M201.811 152.536C201.704 153.001 201.203 153.323 200.453 153.466C199.381 153.644 199.238 153.859 199.023 155.074C198.845 156.11 198.63 156.468 198.094 156.468C197.487 156.468 197.415 156.753 197.415 159.684C197.415 162.615 197.487 162.901 198.094 162.901C198.63 162.901 198.809 163.258 198.988 164.509C199.238 166.046 199.309 166.117 200.489 166.117C201.454 166.117 201.704 166.26 201.704 166.832C201.704 167.511 201.954 167.547 204.92 167.547C207.887 167.547 208.137 167.511 208.137 166.832C208.137 166.26 208.387 166.117 209.352 166.117C210.531 166.117 210.603 166.046 210.853 164.509C211.032 163.258 211.21 162.901 211.746 162.901C212.354 162.901 212.425 162.615 212.425 159.684C212.425 156.753 212.354 156.468 211.746 156.468C211.21 156.468 210.996 156.11 210.817 155.074C210.603 153.859 210.46 153.644 209.388 153.466C208.637 153.323 208.137 153.001 208.029 152.536C207.851 151.893 207.529 151.822 204.92 151.822C202.311 151.822 201.99 151.893 201.811 152.536ZM207.779 155.932C207.779 156.575 207.958 156.825 208.458 156.825C209.316 156.825 209.745 158.969 209.388 161.328C209.209 162.579 209.03 162.901 208.458 162.901C208.029 162.901 207.779 163.151 207.779 163.615C207.779 164.259 207.529 164.33 204.92 164.33C202.311 164.33 202.061 164.259 202.061 163.615C202.061 163.151 201.811 162.901 201.382 162.901C200.524 162.901 200.095 160.756 200.453 158.397C200.632 157.147 200.81 156.825 201.382 156.825C201.882 156.825 202.061 156.575 202.061 155.932C202.061 155.038 202.097 155.038 204.92 155.038C207.744 155.038 207.779 155.038 207.779 155.932Z" fill="white"/>
<path d="M170.611 178.625V180.055H172.041H173.47V178.625V177.196H172.041H170.611V178.625Z" fill="white"/>
<path d="M176.33 178.625V180.055H177.76H179.189V178.625V177.196H177.76H176.33V178.625Z" fill="white"/>
<path d="M182.404 178.625V180.055H183.834H185.263V178.625V177.196H183.834H182.404V178.625Z" fill="white"/>
<path d="M188.481 178.625V180.055H189.911H191.341V178.625V177.196H189.911H188.481V178.625Z" fill="white"/>
<path d="M194.557 178.625V180.055H195.986H197.416V178.625V177.196H195.986H194.557V178.625Z" fill="white"/>
<path d="M200.633 178.625V180.055H202.062H203.492V178.625V177.196H202.062H200.633V178.625Z" fill="white"/>
<path d="M206.35 178.625V180.055H207.779H209.209V178.625V177.196H207.779H206.35V178.625Z" fill="white"/>
<path d="M212.428 178.625V180.055H213.857H215.287V178.625V177.196H213.857H212.428V178.625Z" fill="white"/>
</svg>
