<svg width="336" height="428" viewBox="0 0 336 428" fill="none" xmlns="http://www.w3.org/2000/svg">
<path d="M0 35C0 15.67 15.67 0 35 0H301C320.33 0 336 15.67 336 35V393C336 412.33 320.33 428 301 428H168H35C15.67 428 0 412.33 0 393V35Z" fill="#EBE9E9"/>
<path d="M78.12 328.06V329.54H74.32V342H72.5V329.54H68.68V328.06H78.12ZM82.1803 332.82C82.5003 332.193 82.9536 331.707 83.5403 331.36C84.1403 331.013 84.867 330.84 85.7203 330.84V332.72H85.2403C83.2003 332.72 82.1803 333.827 82.1803 336.04V342H80.3603V331.04H82.1803V332.82ZM87.1413 336.48C87.1413 335.36 87.3679 334.38 87.8213 333.54C88.2746 332.687 88.8946 332.027 89.6813 331.56C90.4813 331.093 91.3679 330.86 92.3413 330.86C93.3013 330.86 94.1346 331.067 94.8413 331.48C95.5479 331.893 96.0746 332.413 96.4213 333.04V331.04H98.2613V342H96.4213V339.96C96.0613 340.6 95.5213 341.133 94.8013 341.56C94.0946 341.973 93.2679 342.18 92.3213 342.18C91.3479 342.18 90.4679 341.94 89.6813 341.46C88.8946 340.98 88.2746 340.307 87.8213 339.44C87.3679 338.573 87.1413 337.587 87.1413 336.48ZM96.4213 336.5C96.4213 335.673 96.2546 334.953 95.9213 334.34C95.5879 333.727 95.1346 333.26 94.5613 332.94C94.0013 332.607 93.3813 332.44 92.7013 332.44C92.0213 332.44 91.4013 332.6 90.8413 332.92C90.2813 333.24 89.8346 333.707 89.5013 334.32C89.1679 334.933 89.0013 335.653 89.0013 336.48C89.0013 337.32 89.1679 338.053 89.5013 338.68C89.8346 339.293 90.2813 339.767 90.8413 340.1C91.4013 340.42 92.0213 340.58 92.7013 340.58C93.3813 340.58 94.0013 340.42 94.5613 340.1C95.1346 339.767 95.5879 339.293 95.9213 338.68C96.2546 338.053 96.4213 337.327 96.4213 336.5ZM105.417 340.32L108.817 331.04H110.757L106.457 342H104.337L100.037 331.04H101.997L105.417 340.32ZM122.548 336.1C122.548 336.447 122.528 336.813 122.488 337.2H113.728C113.794 338.28 114.161 339.127 114.828 339.74C115.508 340.34 116.328 340.64 117.288 340.64C118.074 340.64 118.728 340.46 119.248 340.1C119.781 339.727 120.154 339.233 120.368 338.62H122.328C122.034 339.673 121.448 340.533 120.568 341.2C119.688 341.853 118.594 342.18 117.288 342.18C116.248 342.18 115.314 341.947 114.488 341.48C113.674 341.013 113.034 340.353 112.568 339.5C112.101 338.633 111.868 337.633 111.868 336.5C111.868 335.367 112.094 334.373 112.548 333.52C113.001 332.667 113.634 332.013 114.448 331.56C115.274 331.093 116.221 330.86 117.288 330.86C118.328 330.86 119.248 331.087 120.048 331.54C120.848 331.993 121.461 332.62 121.888 333.42C122.328 334.207 122.548 335.1 122.548 336.1ZM120.668 335.72C120.668 335.027 120.514 334.433 120.208 333.94C119.901 333.433 119.481 333.053 118.948 332.8C118.428 332.533 117.848 332.4 117.208 332.4C116.288 332.4 115.501 332.693 114.848 333.28C114.208 333.867 113.841 334.68 113.748 335.72H120.668ZM126.77 327.2V342H124.95V327.2H126.77ZM142.184 334.82C142.691 334.9 143.151 335.107 143.564 335.44C143.991 335.773 144.324 336.187 144.564 336.68C144.817 337.173 144.944 337.7 144.944 338.26C144.944 338.967 144.764 339.607 144.404 340.18C144.044 340.74 143.517 341.187 142.824 341.52C142.144 341.84 141.337 342 140.404 342H135.204V328.06H140.204C141.151 328.06 141.957 328.22 142.624 328.54C143.291 328.847 143.791 329.267 144.124 329.8C144.457 330.333 144.624 330.933 144.624 331.6C144.624 332.427 144.397 333.113 143.944 333.66C143.504 334.193 142.917 334.58 142.184 334.82ZM137.024 334.08H140.084C140.937 334.08 141.597 333.88 142.064 333.48C142.531 333.08 142.764 332.527 142.764 331.82C142.764 331.113 142.531 330.56 142.064 330.16C141.597 329.76 140.924 329.56 140.044 329.56H137.024V334.08ZM140.244 340.5C141.151 340.5 141.857 340.287 142.364 339.86C142.871 339.433 143.124 338.84 143.124 338.08C143.124 337.307 142.857 336.7 142.324 336.26C141.791 335.807 141.077 335.58 140.184 335.58H137.024V340.5H140.244ZM157.19 331.04V342H155.37V340.38C155.023 340.94 154.536 341.38 153.91 341.7C153.296 342.007 152.616 342.16 151.87 342.16C151.016 342.16 150.25 341.987 149.57 341.64C148.89 341.28 148.35 340.747 147.95 340.04C147.563 339.333 147.37 338.473 147.37 337.46V331.04H149.17V337.22C149.17 338.3 149.443 339.133 149.99 339.72C150.536 340.293 151.283 340.58 152.23 340.58C153.203 340.58 153.97 340.28 154.53 339.68C155.09 339.08 155.37 338.207 155.37 337.06V331.04H157.19ZM159.583 336.48C159.583 335.36 159.809 334.38 160.263 333.54C160.716 332.687 161.336 332.027 162.123 331.56C162.923 331.093 163.816 330.86 164.803 330.86C165.656 330.86 166.449 331.06 167.183 331.46C167.916 331.847 168.476 332.36 168.863 333V327.2H170.703V342H168.863V339.94C168.503 340.593 167.969 341.133 167.263 341.56C166.556 341.973 165.729 342.18 164.783 342.18C163.809 342.18 162.923 341.94 162.123 341.46C161.336 340.98 160.716 340.307 160.263 339.44C159.809 338.573 159.583 337.587 159.583 336.48ZM168.863 336.5C168.863 335.673 168.696 334.953 168.363 334.34C168.029 333.727 167.576 333.26 167.003 332.94C166.443 332.607 165.823 332.44 165.143 332.44C164.463 332.44 163.843 332.6 163.283 332.92C162.723 333.24 162.276 333.707 161.943 334.32C161.609 334.933 161.443 335.653 161.443 336.48C161.443 337.32 161.609 338.053 161.943 338.68C162.276 339.293 162.723 339.767 163.283 340.1C163.843 340.42 164.463 340.58 165.143 340.58C165.823 340.58 166.443 340.42 167.003 340.1C167.576 339.767 168.029 339.293 168.363 338.68C168.696 338.053 168.863 337.327 168.863 336.5ZM173.098 336.48C173.098 335.36 173.325 334.38 173.778 333.54C174.232 332.687 174.852 332.027 175.638 331.56C176.438 331.093 177.332 330.86 178.318 330.86C179.172 330.86 179.965 331.06 180.698 331.46C181.432 331.847 181.992 332.36 182.378 333V327.2H184.218V342H182.378V339.94C182.018 340.593 181.485 341.133 180.778 341.56C180.072 341.973 179.245 342.18 178.298 342.18C177.325 342.18 176.438 341.94 175.638 341.46C174.852 340.98 174.232 340.307 173.778 339.44C173.325 338.573 173.098 337.587 173.098 336.48ZM182.378 336.5C182.378 335.673 182.212 334.953 181.878 334.34C181.545 333.727 181.092 333.26 180.518 332.94C179.958 332.607 179.338 332.44 178.658 332.44C177.978 332.44 177.358 332.6 176.798 332.92C176.238 333.24 175.792 333.707 175.458 334.32C175.125 334.933 174.958 335.653 174.958 336.48C174.958 337.32 175.125 338.053 175.458 338.68C175.792 339.293 176.238 339.767 176.798 340.1C177.358 340.42 177.978 340.58 178.658 340.58C179.338 340.58 179.958 340.42 180.518 340.1C181.092 339.767 181.545 339.293 181.878 338.68C182.212 338.053 182.378 337.327 182.378 336.5ZM196.734 331.04L190.134 347.16H188.254L190.414 341.88L185.994 331.04H188.014L191.454 339.92L194.854 331.04H196.734ZM212.135 338.9H206.055L204.935 342H203.015L208.055 328.14H210.155L215.175 342H213.255L212.135 338.9ZM211.615 337.42L209.095 330.38L206.575 337.42H211.615ZM216.692 336.48C216.692 335.36 216.919 334.38 217.372 333.54C217.825 332.687 218.445 332.027 219.232 331.56C220.032 331.093 220.925 330.86 221.912 330.86C222.765 330.86 223.559 331.06 224.292 331.46C225.025 331.847 225.585 332.36 225.972 333V327.2H227.812V342H225.972V339.94C225.612 340.593 225.079 341.133 224.372 341.56C223.665 341.973 222.839 342.18 221.892 342.18C220.919 342.18 220.032 341.94 219.232 341.46C218.445 340.98 217.825 340.307 217.372 339.44C216.919 338.573 216.692 337.587 216.692 336.48ZM225.972 336.5C225.972 335.673 225.805 334.953 225.472 334.34C225.139 333.727 224.685 333.26 224.112 332.94C223.552 332.607 222.932 332.44 222.252 332.44C221.572 332.44 220.952 332.6 220.392 332.92C219.832 333.24 219.385 333.707 219.052 334.32C218.719 334.933 218.552 335.653 218.552 336.48C218.552 337.32 218.719 338.053 219.052 338.68C219.385 339.293 219.832 339.767 220.392 340.1C220.952 340.42 221.572 340.58 222.252 340.58C222.932 340.58 223.552 340.42 224.112 340.1C224.685 339.767 225.139 339.293 225.472 338.68C225.805 338.053 225.972 337.327 225.972 336.5ZM244.068 330.84C244.921 330.84 245.681 331.02 246.348 331.38C247.014 331.727 247.541 332.253 247.928 332.96C248.314 333.667 248.508 334.527 248.508 335.54V342H246.708V335.8C246.708 334.707 246.434 333.873 245.888 333.3C245.354 332.713 244.628 332.42 243.708 332.42C242.761 332.42 242.008 332.727 241.448 333.34C240.888 333.94 240.608 334.813 240.608 335.96V342H238.808V335.8C238.808 334.707 238.534 333.873 237.988 333.3C237.454 332.713 236.728 332.42 235.808 332.42C234.861 332.42 234.108 332.727 233.548 333.34C232.988 333.94 232.708 334.813 232.708 335.96V342H230.888V331.04H232.708V332.62C233.068 332.047 233.548 331.607 234.148 331.3C234.761 330.993 235.434 330.84 236.168 330.84C237.088 330.84 237.901 331.047 238.608 331.46C239.314 331.873 239.841 332.48 240.188 333.28C240.494 332.507 241.001 331.907 241.708 331.48C242.414 331.053 243.201 330.84 244.068 330.84ZM252.433 329.26C252.086 329.26 251.793 329.14 251.553 328.9C251.313 328.66 251.193 328.367 251.193 328.02C251.193 327.673 251.313 327.38 251.553 327.14C251.793 326.9 252.086 326.78 252.433 326.78C252.766 326.78 253.046 326.9 253.273 327.14C253.513 327.38 253.633 327.673 253.633 328.02C253.633 328.367 253.513 328.66 253.273 328.9C253.046 329.14 252.766 329.26 252.433 329.26ZM253.313 331.04V342H251.493V331.04H253.313ZM261.755 330.84C263.088 330.84 264.168 331.247 264.995 332.06C265.822 332.86 266.235 334.02 266.235 335.54V342H264.435V335.8C264.435 334.707 264.162 333.873 263.615 333.3C263.068 332.713 262.322 332.42 261.375 332.42C260.415 332.42 259.648 332.72 259.075 333.32C258.515 333.92 258.235 334.793 258.235 335.94V342H256.415V331.04H258.235V332.6C258.595 332.04 259.082 331.607 259.695 331.3C260.322 330.993 261.008 330.84 261.755 330.84Z" fill="black"/>
<path d="M278 152.49C278 212.957 228.978 261.979 168.51 261.979C108.043 261.979 59 212.978 59 152.49C59 92.0014 108.022 43 168.49 43C228.957 43 277.979 92.0224 277.979 152.49H278Z" fill="#F37A20"/>
<path d="M199.134 129.808H150.354V132.621H199.134V129.808Z" fill="white"/>
<path d="M199.134 140.126H150.354V142.94H199.134V140.126Z" fill="white"/>
<path d="M199.134 151.385H150.354V154.2H199.134V151.385Z" fill="white"/>
<path d="M199.134 161.703H150.354V164.518H199.134V161.703Z" fill="white"/>
<path d="M199.134 172.952H150.354V175.767H199.134V172.952Z" fill="white"/>
<path d="M208.98 108H141.443C136.787 108 133 111.787 133 116.442V206.022C133 210.678 136.787 214.465 141.443 214.465H195.849C207.746 214.465 217.423 204.787 217.423 192.891V116.442C217.423 111.786 213.636 108 208.98 108ZM138.627 206.022V116.442C138.627 114.89 139.891 113.628 141.443 113.628H208.98C210.531 113.628 211.794 114.89 211.794 116.442V188.903H190.69V208.837H141.443C139.891 208.837 138.627 207.574 138.627 206.022ZM196.318 208.812V194.531H211.71C210.903 202.403 204.339 208.576 196.318 208.812Z" fill="white"/>
<path d="M174.996 131.494C174.996 154.962 155.97 173.988 132.502 173.988C109.034 173.988 90 154.97 90 131.494C90 108.018 109.026 89 132.494 89C155.962 89 174.988 108.026 174.988 131.494H174.996Z" fill="#F37A20"/>
<path d="M121.11 111.4C121.11 111.649 121.013 111.677 120.195 111.677C119.404 111.677 119.265 111.719 119.21 111.941C119.168 112.121 118.974 112.246 118.599 112.301C118.294 112.357 118.058 112.468 118.058 112.579C118.058 112.69 117.823 112.801 117.504 112.856C117.101 112.925 116.949 113.023 116.949 113.203C116.949 113.383 116.796 113.466 116.408 113.536C116.033 113.591 115.853 113.702 115.798 113.896C115.756 114.063 115.603 114.174 115.437 114.174C115.243 114.174 115.146 114.257 115.146 114.451C115.146 114.631 115.049 114.729 114.868 114.729C114.66 114.729 114.591 114.826 114.591 115.075C114.591 115.325 114.521 115.422 114.313 115.422C114.133 115.422 114.036 115.519 114.036 115.7C114.036 115.88 113.939 115.977 113.759 115.977C113.564 115.977 113.481 116.074 113.481 116.268C113.481 116.435 113.37 116.587 113.218 116.629C113.037 116.67 112.912 116.865 112.857 117.239C112.788 117.641 112.704 117.78 112.496 117.78C112.274 117.78 112.233 117.877 112.233 118.404C112.233 118.931 112.191 119.028 111.955 119.028C111.72 119.028 111.678 119.126 111.678 119.653C111.678 120.18 111.636 120.277 111.401 120.277C111.151 120.277 111.123 120.374 111.123 121.178C111.123 121.983 111.095 122.08 110.846 122.08C110.582 122.08 110.568 122.177 110.568 124.771C110.568 127.337 110.582 127.462 110.846 127.531C111.082 127.587 111.123 127.725 111.123 128.516C111.123 129.334 111.151 129.431 111.401 129.431C111.65 129.431 111.678 129.528 111.678 130.333C111.678 131.137 111.706 131.235 111.955 131.235C112.191 131.235 112.233 131.332 112.233 131.859C112.233 132.372 112.274 132.483 112.496 132.483C112.704 132.483 112.774 132.622 112.843 133.107C112.912 133.495 113.01 133.731 113.134 133.731C113.259 133.731 113.356 133.967 113.426 134.355C113.495 134.841 113.564 134.98 113.772 134.98C113.994 134.98 114.036 135.091 114.036 135.604C114.036 136.131 114.078 136.228 114.313 136.228C114.549 136.228 114.591 136.325 114.591 136.783C114.591 137.241 114.646 137.338 114.854 137.338C115.062 137.338 115.132 137.476 115.201 137.962C115.27 138.364 115.368 138.586 115.506 138.586C115.617 138.586 115.7 138.711 115.7 138.877C115.7 139.044 115.811 139.196 115.964 139.238C116.144 139.279 116.269 139.474 116.325 139.834C116.38 140.195 116.505 140.389 116.685 140.431C116.893 140.486 116.949 140.625 116.949 141.069C116.949 141.54 116.99 141.637 117.226 141.637C117.434 141.637 117.504 141.735 117.504 141.984C117.504 142.234 117.573 142.331 117.781 142.331C118.017 142.331 118.058 142.428 118.058 142.886C118.058 143.344 118.1 143.441 118.336 143.441C118.544 143.441 118.613 143.538 118.613 143.787C118.613 144.037 118.683 144.134 118.877 144.134C119.099 144.134 119.168 144.259 119.251 144.758C119.321 145.244 119.39 145.383 119.598 145.383C119.765 145.383 119.862 145.48 119.862 145.66C119.862 145.84 119.959 145.937 120.139 145.937C120.375 145.937 120.416 146.034 120.416 146.562C120.416 147.089 120.458 147.186 120.694 147.186C120.888 147.186 120.971 147.283 120.971 147.477C120.971 147.643 121.082 147.796 121.235 147.838C121.415 147.879 121.54 148.073 121.595 148.448C121.665 148.85 121.748 148.989 121.956 148.989C122.15 148.989 122.22 149.086 122.22 149.336C122.22 149.585 122.289 149.682 122.497 149.682C122.733 149.682 122.774 149.78 122.774 150.237C122.774 150.695 122.816 150.792 123.052 150.792C123.26 150.792 123.329 150.889 123.329 151.139C123.329 151.444 123.385 151.486 123.884 151.486C124.383 151.486 124.439 151.444 124.439 151.139C124.439 150.889 124.508 150.792 124.702 150.792C124.911 150.792 124.994 150.653 125.063 150.237C125.132 149.821 125.216 149.682 125.424 149.682C125.618 149.682 125.687 149.585 125.687 149.336C125.687 149.086 125.757 148.989 125.965 148.989C126.2 148.989 126.242 148.892 126.242 148.434C126.242 147.976 126.284 147.879 126.52 147.879C126.728 147.879 126.797 147.782 126.797 147.532C126.797 147.283 126.866 147.186 127.06 147.186C127.269 147.186 127.338 147.047 127.407 146.562L127.504 145.937H137.075H146.632V147.102C146.632 148.212 146.646 148.281 146.951 148.323C147.145 148.351 147.27 148.476 147.298 148.67C147.339 148.989 147.353 148.989 149.905 148.989H152.457V148.642C152.457 148.392 152.527 148.295 152.735 148.295C153.012 148.295 153.012 148.198 153.012 140.112C153.012 132.025 153.012 131.928 152.735 131.928C152.499 131.928 152.457 131.831 152.457 131.304C152.457 130.777 152.416 130.68 152.18 130.68C151.944 130.68 151.903 130.583 151.903 130.056V129.431H153.096H154.302L154.219 128.488C154.164 127.975 154.122 127.42 154.122 127.24C154.122 127.073 154.039 126.935 153.928 126.935C153.789 126.935 153.692 126.713 153.623 126.311C153.553 125.825 153.484 125.686 153.276 125.686C153.109 125.686 153.012 125.589 153.012 125.409C153.012 125.229 152.915 125.132 152.735 125.132C152.555 125.132 152.457 125.034 152.457 124.854C152.457 124.591 152.36 124.577 150.724 124.577H148.99V123.953C148.99 123.425 148.948 123.328 148.712 123.328C148.477 123.328 148.435 123.231 148.435 122.704C148.435 122.191 148.393 122.08 148.171 122.08C147.908 122.08 147.741 121.539 147.741 120.679C147.741 120.429 147.658 120.291 147.464 120.235C147.242 120.18 147.187 120.041 147.187 119.597C147.187 119.126 147.145 119.028 146.909 119.028C146.673 119.028 146.632 118.931 146.632 118.404C146.632 117.877 146.59 117.78 146.354 117.78C146.174 117.78 146.077 117.683 146.077 117.503C146.077 117.322 145.98 117.225 145.813 117.225C145.633 117.225 145.522 117.114 145.494 116.906C145.467 116.657 145.356 116.587 144.94 116.56C144.524 116.518 144.413 116.462 144.413 116.24C144.413 115.991 144.288 115.977 141.514 115.977H138.629L138.531 115.547C138.49 115.311 138.448 114.895 138.448 114.645C138.448 114.271 138.393 114.174 138.171 114.174C137.963 114.174 137.893 114.077 137.893 113.827C137.893 113.577 137.824 113.48 137.616 113.48C137.436 113.48 137.339 113.383 137.339 113.203C137.339 112.925 137.241 112.925 133.594 112.925C130.015 112.925 129.848 112.912 129.848 112.662C129.848 112.454 129.71 112.384 129.224 112.315C128.725 112.232 128.6 112.163 128.6 111.941C128.6 111.705 128.503 111.677 127.699 111.677C126.894 111.677 126.797 111.649 126.797 111.4C126.797 111.136 126.7 111.122 123.953 111.122C121.207 111.122 121.11 111.136 121.11 111.4ZM126.797 112.648C126.797 112.898 126.894 112.925 127.699 112.925C128.489 112.925 128.6 112.953 128.6 113.189C128.6 113.397 128.739 113.48 129.155 113.55C129.571 113.619 129.71 113.702 129.71 113.91C129.71 114.132 129.807 114.174 130.265 114.174C130.722 114.174 130.819 114.215 130.819 114.451C130.819 114.659 130.916 114.729 131.166 114.729C131.416 114.729 131.513 114.798 131.513 115.006C131.513 115.186 131.61 115.283 131.79 115.283C131.998 115.283 132.068 115.381 132.068 115.63C132.068 115.88 132.137 115.977 132.345 115.977C132.525 115.977 132.623 116.074 132.623 116.254C132.623 116.435 132.72 116.532 132.886 116.532C133.066 116.532 133.177 116.643 133.205 116.837C133.233 117.045 133.358 117.17 133.566 117.198C133.788 117.239 133.871 117.336 133.871 117.586C133.871 117.794 133.954 117.919 134.079 117.919C134.218 117.919 134.315 118.113 134.37 118.474C134.44 118.89 134.523 119.028 134.717 119.028C134.939 119.028 134.981 119.139 134.981 119.653C134.981 120.18 135.022 120.277 135.258 120.277C135.508 120.277 135.535 120.374 135.535 121.026C135.535 122.038 135.674 122.635 135.896 122.635C136.049 122.635 136.09 123.065 136.09 124.854C136.09 126.643 136.049 127.073 135.896 127.073C135.674 127.073 135.535 127.67 135.535 128.682C135.535 129.334 135.508 129.431 135.258 129.431C135.022 129.431 134.981 129.528 134.981 130.056C134.981 130.583 134.939 130.68 134.703 130.68C134.481 130.68 134.426 130.777 134.426 131.151C134.426 131.886 134.273 132.483 134.079 132.483C133.968 132.483 133.857 132.719 133.802 133.024C133.746 133.398 133.621 133.593 133.441 133.634C133.233 133.69 133.177 133.828 133.177 134.258C133.177 134.688 133.122 134.827 132.9 134.883C132.706 134.924 132.623 135.077 132.623 135.313C132.623 135.576 132.553 135.673 132.345 135.673C132.109 135.673 132.068 135.77 132.068 136.228C132.068 136.686 132.026 136.783 131.79 136.783C131.555 136.783 131.513 136.88 131.513 137.351C131.513 137.795 131.457 137.934 131.249 137.99C131.069 138.031 130.944 138.225 130.889 138.586C130.833 138.947 130.708 139.141 130.528 139.182C130.376 139.224 130.265 139.377 130.265 139.543C130.265 139.709 130.181 139.834 130.07 139.834C129.932 139.834 129.835 140.056 129.765 140.458C129.696 140.944 129.627 141.083 129.418 141.083C129.21 141.083 129.155 141.18 129.155 141.637C129.155 142.095 129.113 142.192 128.878 142.192C128.669 142.192 128.6 142.289 128.6 142.539C128.6 142.789 128.531 142.886 128.337 142.886C128.129 142.886 128.059 143.025 127.99 143.51C127.907 144.009 127.837 144.134 127.615 144.134C127.421 144.134 127.352 144.231 127.352 144.481C127.352 144.689 127.269 144.828 127.144 144.828C127.005 144.828 126.908 145.022 126.852 145.383C126.783 145.799 126.7 145.937 126.506 145.937C126.311 145.937 126.242 146.034 126.242 146.284C126.242 146.534 126.173 146.631 125.979 146.631C125.771 146.631 125.687 146.77 125.618 147.186C125.562 147.532 125.451 147.741 125.327 147.741C125.216 147.741 125.132 147.865 125.132 148.032C125.132 148.198 125.021 148.351 124.869 148.392C124.689 148.434 124.564 148.628 124.508 149.003C124.411 149.53 124.397 149.544 123.87 149.544C123.329 149.544 123.329 149.544 123.329 148.989C123.329 148.531 123.288 148.434 123.052 148.434C122.844 148.434 122.774 148.337 122.774 148.087C122.774 147.838 122.705 147.741 122.511 147.741C122.303 147.741 122.22 147.602 122.15 147.2C122.095 146.825 121.97 146.631 121.79 146.589C121.637 146.548 121.526 146.395 121.526 146.229C121.526 146.034 121.443 145.937 121.249 145.937C121.013 145.937 120.971 145.84 120.971 145.383C120.971 144.925 120.93 144.828 120.694 144.828C120.486 144.828 120.416 144.731 120.416 144.481C120.416 144.231 120.347 144.134 120.139 144.134C119.903 144.134 119.862 144.037 119.862 143.566C119.862 143.122 119.806 142.983 119.584 142.927C119.432 142.886 119.307 142.733 119.307 142.581C119.307 142.428 119.196 142.276 119.043 142.234C118.863 142.192 118.738 141.998 118.683 141.624C118.613 141.221 118.53 141.083 118.322 141.083C118.1 141.083 118.058 140.986 118.058 140.458C118.058 139.931 118.017 139.834 117.781 139.834C117.573 139.834 117.504 139.737 117.504 139.488C117.504 139.238 117.434 139.141 117.226 139.141C116.99 139.141 116.949 139.044 116.949 138.586C116.949 138.128 116.893 138.031 116.685 138.031C116.477 138.031 116.408 137.892 116.339 137.407C116.255 136.908 116.186 136.783 115.964 136.783C115.77 136.783 115.7 136.686 115.7 136.436C115.7 136.228 115.617 136.089 115.506 136.089C115.368 136.089 115.27 135.867 115.201 135.465C115.132 134.98 115.062 134.841 114.854 134.841C114.646 134.841 114.591 134.744 114.591 134.286C114.591 133.828 114.549 133.731 114.313 133.731C114.078 133.731 114.036 133.634 114.036 133.107C114.036 132.58 113.994 132.483 113.759 132.483C113.537 132.483 113.481 132.386 113.481 132.011C113.481 131.207 113.329 130.707 113.051 130.638C112.843 130.583 112.788 130.444 112.788 130C112.788 129.612 112.732 129.431 112.593 129.431C112.372 129.431 112.233 128.835 112.233 127.822C112.233 127.17 112.205 127.073 111.955 127.073C111.692 127.073 111.678 126.976 111.678 124.646C111.678 122.316 111.692 122.219 111.955 122.219C112.191 122.219 112.233 122.122 112.233 121.678C112.233 120.887 112.385 120.277 112.58 120.277C112.677 120.277 112.802 120.013 112.843 119.653C112.926 119.153 112.996 119.028 113.218 119.028C113.426 119.028 113.481 118.931 113.481 118.488C113.481 118.071 113.537 117.933 113.759 117.877C113.925 117.836 114.036 117.683 114.036 117.517C114.036 117.322 114.119 117.225 114.313 117.225C114.521 117.225 114.591 117.128 114.591 116.879C114.591 116.629 114.66 116.532 114.868 116.532C115.049 116.532 115.146 116.435 115.146 116.254C115.146 116.074 115.243 115.977 115.409 115.977C115.59 115.977 115.7 115.866 115.728 115.658C115.756 115.464 115.881 115.339 116.089 115.311C116.283 115.283 116.394 115.172 116.394 114.992C116.394 114.826 116.491 114.729 116.671 114.729C116.852 114.729 116.949 114.631 116.949 114.451C116.949 114.215 117.046 114.174 117.504 114.174C117.961 114.174 118.058 114.132 118.058 113.91C118.058 113.688 118.183 113.619 118.683 113.536C119.168 113.466 119.307 113.397 119.307 113.189C119.307 112.953 119.418 112.925 120.153 112.925C120.874 112.925 121.013 112.884 121.068 112.648C121.138 112.384 121.263 112.371 123.967 112.371C126.7 112.371 126.797 112.384 126.797 112.648ZM136.784 114.451C136.784 114.631 136.881 114.729 137.061 114.729C137.297 114.729 137.339 114.826 137.339 115.353V115.977H135.605C133.982 115.977 133.871 115.963 133.871 115.713C133.871 115.533 133.76 115.422 133.566 115.394C133.358 115.367 133.233 115.242 133.205 115.034C133.177 114.84 133.066 114.729 132.886 114.729C132.72 114.729 132.623 114.631 132.623 114.451C132.623 114.188 132.72 114.174 134.703 114.174C136.687 114.174 136.784 114.188 136.784 114.451ZM144.274 117.503C144.274 117.711 144.371 117.78 144.621 117.78C144.87 117.78 144.967 117.849 144.967 118.044C144.967 118.182 145.092 118.335 145.245 118.377C145.411 118.418 145.522 118.571 145.522 118.737C145.522 118.931 145.605 119.028 145.8 119.028C146.035 119.028 146.077 119.126 146.077 119.653C146.077 120.18 146.119 120.277 146.354 120.277C146.604 120.277 146.632 120.374 146.632 121.178C146.632 121.983 146.66 122.08 146.909 122.08C147.145 122.08 147.187 122.177 147.187 122.704C147.187 123.231 147.228 123.328 147.464 123.328C147.686 123.328 147.741 123.425 147.741 123.8C147.741 124.535 147.894 125.132 148.102 125.132C148.213 125.132 148.31 125.381 148.38 125.756C148.463 126.366 148.477 126.38 149.004 126.38C149.448 126.38 149.545 126.338 149.545 126.102C149.545 125.853 149.642 125.825 150.724 125.825C151.806 125.825 151.903 125.853 151.903 126.102C151.903 126.283 152 126.38 152.18 126.38C152.388 126.38 152.457 126.477 152.457 126.727C152.457 126.976 152.527 127.073 152.735 127.073C152.971 127.073 153.012 127.17 153.012 127.628V128.183H151.278H149.545V128.53C149.545 128.779 149.614 128.877 149.808 128.877C150.016 128.877 150.099 129.015 150.169 129.431C150.224 129.778 150.335 129.986 150.46 129.986C150.571 129.986 150.654 130.111 150.654 130.277C150.654 130.444 150.765 130.597 150.932 130.638C151.126 130.694 151.223 130.874 151.292 131.318C151.334 131.665 151.459 131.928 151.556 131.928C151.653 131.928 151.764 132.122 151.819 132.358C151.861 132.594 151.903 136.159 151.903 140.264V147.741H149.905H147.922L147.825 147.311C147.783 147.075 147.741 146.381 147.741 145.785V144.689H138.171C128.697 144.689 128.6 144.689 128.6 144.412C128.6 144.231 128.697 144.134 128.878 144.134C129.086 144.134 129.155 144.037 129.155 143.787C129.155 143.538 129.224 143.441 129.432 143.441C129.668 143.441 129.71 143.344 129.71 142.886C129.71 142.428 129.751 142.331 129.987 142.331C130.195 142.331 130.265 142.234 130.265 141.984C130.265 141.707 130.334 141.637 130.611 141.637C130.861 141.637 130.958 141.707 130.958 141.915C130.958 142.151 131.055 142.192 131.513 142.192H132.068V141.637V141.083H131.513C131.014 141.083 130.958 141.041 130.958 140.736C130.958 140.486 131.027 140.389 131.236 140.389C131.471 140.389 131.513 140.292 131.513 139.834C131.513 139.377 131.555 139.279 131.79 139.279C131.998 139.279 132.068 139.182 132.068 138.933C132.068 138.683 132.137 138.586 132.345 138.586C132.581 138.586 132.623 138.489 132.623 137.962C132.623 137.435 132.664 137.338 132.9 137.338C133.08 137.338 133.177 137.241 133.177 137.06C133.177 136.797 133.274 136.783 136.714 136.783H140.251V136.159V135.534H137.061C134.023 135.534 133.871 135.521 133.871 135.271C133.871 135.132 133.996 134.98 134.148 134.938C134.37 134.883 134.426 134.744 134.426 134.3V133.731H137.893H141.361V133.107V132.483H138.448H135.535V131.859C135.535 131.332 135.577 131.235 135.813 131.235C136.035 131.235 136.09 131.137 136.09 130.763C136.09 130.028 136.243 129.431 136.437 129.431C136.631 129.431 136.784 128.821 136.784 128.03C136.784 127.67 136.839 127.49 136.978 127.49C137.255 127.49 137.339 126.851 137.339 124.854C137.339 122.857 137.255 122.219 136.978 122.219C136.839 122.219 136.784 122.038 136.784 121.678C136.784 120.873 136.631 120.277 136.423 120.277C136.312 120.277 136.215 120.027 136.146 119.653C136.09 119.278 135.993 119.028 135.868 119.028C135.757 119.028 135.66 118.779 135.591 118.404C135.522 117.919 135.452 117.78 135.244 117.78C135.078 117.78 134.981 117.683 134.981 117.503C134.981 117.225 135.078 117.225 139.627 117.225C144.177 117.225 144.274 117.225 144.274 117.503Z" fill="white"/>
<path d="M115.146 125.132V126.935H116.879H118.613V128.807V130.68H120.416H122.22V128.807V126.921L123.926 126.962L125.618 127.004L125.659 128.835L125.701 130.68H127.421H129.155V128.807V126.935H130.889H132.622V125.132V123.328H130.889H129.155V125.132V126.935H127.421H125.687V125.132V123.328H123.953H122.22V125.132V126.935H120.416H118.613V125.132V123.328H116.879H115.146V125.132Z" fill="white"/>
<path d="M137.894 128.807V129.431H138.448H139.003V128.807V128.183H138.448H137.894V128.807Z" fill="white"/>
<path d="M140.25 128.807V129.431H140.805H141.36V128.807V128.183H140.805H140.25V128.807Z" fill="white"/>
<path d="M142.607 128.807V129.431H143.162H143.717V128.807V128.183H143.162H142.607V128.807Z" fill="white"/>
<path d="M144.967 128.793V129.431H145.535H146.09L146.049 128.835C146.007 128.266 145.993 128.252 145.494 128.211L144.967 128.169V128.793Z" fill="white"/>
<path d="M147.283 128.28C147.227 128.322 147.186 128.613 147.186 128.904C147.186 129.431 147.186 129.431 147.74 129.431H148.295V128.807C148.295 128.197 148.295 128.183 147.837 128.183C147.574 128.183 147.324 128.225 147.283 128.28Z" fill="white"/>
<path d="M145.426 131.512C145.384 131.693 145.19 131.817 144.899 131.873C144.483 131.942 144.427 132.025 144.344 132.497C144.275 132.899 144.191 133.038 143.983 133.038C143.747 133.038 143.72 133.149 143.72 134.286C143.72 135.424 143.747 135.535 143.983 135.535C144.191 135.535 144.261 135.673 144.33 136.159C144.427 136.755 144.455 136.783 144.913 136.783C145.287 136.783 145.384 136.838 145.384 137.06C145.384 137.324 145.481 137.338 146.633 137.338C147.784 137.338 147.881 137.324 147.881 137.06C147.881 136.838 147.978 136.783 148.352 136.783C148.81 136.783 148.838 136.755 148.935 136.159C149.004 135.673 149.074 135.535 149.282 135.535C149.518 135.535 149.545 135.424 149.545 134.286C149.545 133.149 149.518 133.038 149.282 133.038C149.074 133.038 148.99 132.899 148.921 132.497C148.838 132.025 148.782 131.942 148.366 131.873C148.075 131.817 147.881 131.693 147.839 131.512C147.77 131.263 147.645 131.235 146.633 131.235C145.62 131.235 145.495 131.263 145.426 131.512ZM147.742 132.83C147.742 133.08 147.811 133.177 148.006 133.177C148.339 133.177 148.505 134.009 148.366 134.924C148.297 135.41 148.228 135.535 148.006 135.535C147.839 135.535 147.742 135.632 147.742 135.812C147.742 136.062 147.645 136.089 146.633 136.089C145.62 136.089 145.523 136.062 145.523 135.812C145.523 135.632 145.426 135.535 145.259 135.535C144.926 135.535 144.76 134.702 144.899 133.787C144.968 133.301 145.037 133.177 145.259 133.177C145.454 133.177 145.523 133.08 145.523 132.83C145.523 132.483 145.537 132.483 146.633 132.483C147.728 132.483 147.742 132.483 147.742 132.83Z" fill="white"/>
<path d="M133.315 141.637V142.192H133.87H134.425V141.637V141.083H133.87H133.315V141.637Z" fill="white"/>
<path d="M135.535 141.637V142.192H136.09H136.645V141.637V141.083H136.09H135.535V141.637Z" fill="white"/>
<path d="M137.894 141.637V142.192H138.448H139.003V141.637V141.083H138.448H137.894V141.637Z" fill="white"/>
<path d="M140.25 141.637V142.192H140.805H141.36V141.637V141.083H140.805H140.25V141.637Z" fill="white"/>
<path d="M142.607 141.637V142.192H143.162H143.717V141.637V141.083H143.162H142.607V141.637Z" fill="white"/>
<path d="M144.967 141.637V142.192H145.522H146.076V141.637V141.083H145.522H144.967V141.637Z" fill="white"/>
<path d="M147.186 141.637V142.192H147.74H148.295V141.637V141.083H147.74H147.186V141.637Z" fill="white"/>
<path d="M149.543 141.637V142.192H150.098H150.653V141.637V141.083H150.098H149.543V141.637Z" fill="white"/>
</svg>
