<svg width="90" height="84" viewBox="0 0 90 84" fill="none" xmlns="http://www.w3.org/2000/svg">
<path d="M21.677 0.636856C21.677 1.15025 21.4773 1.2073 19.7945 1.2073C18.1687 1.2073 17.8835 1.29287 17.7694 1.74922C17.6839 2.12002 17.2845 2.37672 16.5144 2.49081C15.8869 2.6049 15.4021 2.83308 15.4021 3.06125C15.4021 3.28943 14.9172 3.51761 14.2612 3.6317C13.434 3.77431 13.1203 3.97397 13.1203 4.34476C13.1203 4.71555 12.8065 4.88668 12.0079 5.02929C11.2378 5.14338 10.867 5.37156 10.7529 5.77087C10.6674 6.11314 10.3536 6.34132 10.0113 6.34132C9.61203 6.34132 9.41237 6.51245 9.41237 6.91177C9.41237 7.28255 9.21272 7.48222 8.84193 7.48222C8.41409 7.48222 8.27148 7.68187 8.27148 8.19527C8.27148 8.70867 8.12887 8.90833 7.70103 8.90833C7.33024 8.90833 7.13059 9.10799 7.13059 9.47878C7.13059 9.84957 6.93093 10.0492 6.56014 10.0492C6.16083 10.0492 5.98969 10.2489 5.98969 10.6482C5.98969 10.9905 5.76151 11.3042 5.44777 11.3898C5.07698 11.4753 4.82028 11.8747 4.70619 12.6448C4.56357 13.4719 4.39244 13.7571 3.96461 13.7571C3.50825 13.7571 3.42268 13.9568 3.42268 15.0406C3.42268 16.1245 3.33711 16.3241 2.85223 16.3241C2.36735 16.3241 2.28179 16.5238 2.28179 17.6076C2.28179 18.6915 2.19622 18.8912 1.71134 18.8912C1.19794 18.8912 1.14089 19.0908 1.14089 20.7451C1.14089 22.3994 1.08385 22.5991 0.570447 22.5991C0.0285223 22.5991 0 22.7987 0 28.1324C0 33.409 0.0285223 33.6657 0.570447 33.8083C1.05533 33.9224 1.14089 34.2076 1.14089 35.8334C1.14089 37.5162 1.19794 37.7159 1.71134 37.7159C2.22474 37.7159 2.28179 37.9155 2.28179 39.5698C2.28179 41.2241 2.33883 41.4238 2.85223 41.4238C3.33711 41.4238 3.42268 41.6235 3.42268 42.7073C3.42268 43.7626 3.50825 43.9908 3.96461 43.9908C4.39244 43.9908 4.53505 44.276 4.67766 45.2743C4.82028 46.0729 5.01993 46.5578 5.27663 46.5578C5.53333 46.5578 5.73299 47.0427 5.8756 47.8413C6.01821 48.8396 6.16083 49.1248 6.58866 49.1248C7.04502 49.1248 7.13059 49.353 7.13059 50.4083C7.13059 51.4922 7.21615 51.6918 7.70103 51.6918C8.18591 51.6918 8.27148 51.8915 8.27148 52.8327C8.27148 53.774 8.38557 53.9736 8.8134 53.9736C9.24124 53.9736 9.38385 54.2588 9.52646 55.2571C9.66907 56.0843 9.86873 56.5406 10.154 56.5406C10.3821 56.5406 10.5533 56.7973 10.5533 57.1396C10.5533 57.4819 10.7814 57.7956 11.0952 57.8812C11.466 57.9667 11.7227 58.3661 11.8368 59.1076C11.9509 59.8492 12.2076 60.2485 12.5784 60.3341C13.0062 60.4482 13.1203 60.7334 13.1203 61.6461C13.1203 62.6159 13.2058 62.8155 13.6907 62.8155C14.1186 62.8155 14.2612 63.0152 14.2612 63.5286C14.2612 64.042 14.4038 64.2417 14.8316 64.2417C15.3165 64.2417 15.4021 64.4413 15.4021 65.3826C15.4021 66.3238 15.4876 66.5235 15.9725 66.5235C16.4003 66.5235 16.543 66.7231 16.543 67.2365C16.543 67.7499 16.6856 67.9496 17.0849 67.9496C17.5412 67.9496 17.6839 68.2063 17.855 69.2331C17.9976 70.2314 18.1402 70.5166 18.568 70.5166C18.9103 70.5166 19.11 70.7162 19.11 71.087C19.11 71.4578 19.3096 71.6575 19.6804 71.6575C20.1653 71.6575 20.2509 71.8571 20.2509 72.941C20.2509 74.0248 20.3364 74.2245 20.8213 74.2245C21.2206 74.2245 21.3918 74.4241 21.3918 74.8235C21.3918 75.1657 21.6199 75.4795 21.9337 75.565C22.3045 75.6506 22.5612 76.0499 22.6753 76.82C22.8179 77.6472 22.989 77.9324 23.4168 77.9324C23.8162 77.9324 23.9588 78.132 23.9588 78.6454C23.9588 79.1588 24.1014 79.3585 24.5292 79.3585C25.0141 79.3585 25.0997 79.5582 25.0997 80.4994C25.0997 81.4406 25.1852 81.6403 25.6701 81.6403C26.0979 81.6403 26.2406 81.8399 26.2406 82.3533C26.2406 82.9808 26.3546 83.0664 27.3814 83.0664C28.4083 83.0664 28.5223 82.9808 28.5223 82.3533C28.5223 81.8399 28.665 81.6403 29.0643 81.6403C29.4921 81.6403 29.6632 81.3551 29.8058 80.4994C29.9485 79.6437 30.1196 79.3585 30.5474 79.3585C30.9467 79.3585 31.0894 79.1588 31.0894 78.6454C31.0894 78.132 31.232 77.9324 31.6598 77.9324C32.1447 77.9324 32.2302 77.7327 32.2302 76.7915C32.2302 75.8503 32.3158 75.6506 32.8007 75.6506C33.2285 75.6506 33.3711 75.4509 33.3711 74.9375C33.3711 74.4241 33.5138 74.2245 33.9131 74.2245C34.3409 74.2245 34.4835 73.9393 34.6261 72.941L34.8258 71.6575H54.5062H74.1581V74.0533C74.1581 76.3351 74.1866 76.4777 74.8141 76.5633C75.2134 76.6204 75.4701 76.8771 75.5272 77.2764C75.6127 77.9324 75.6413 77.9324 80.8894 77.9324H86.1375V77.2193C86.1375 76.7059 86.2801 76.5063 86.7079 76.5063C87.2784 76.5063 87.2784 76.3066 87.2784 59.6781C87.2784 43.0496 87.2784 42.8499 86.7079 42.8499C86.223 42.8499 86.1375 42.6503 86.1375 41.5664C86.1375 40.4826 86.0519 40.2829 85.567 40.2829C85.0821 40.2829 84.9966 40.0832 84.9966 38.9994V37.7159H87.4495H89.9309L89.7598 35.7764C89.6457 34.721 89.5602 33.5802 89.5602 33.2094C89.5602 32.8671 89.389 32.5819 89.1608 32.5819C88.8756 32.5819 88.676 32.1255 88.5333 31.2984C88.3907 30.3001 88.2481 30.0149 87.8203 30.0149C87.478 30.0149 87.2784 29.8152 87.2784 29.4444C87.2784 29.0736 87.0787 28.874 86.7079 28.874C86.3371 28.874 86.1375 28.6743 86.1375 28.3035C86.1375 27.7616 85.9378 27.7331 82.5722 27.7331H79.0069V26.4496C79.0069 25.3657 78.9213 25.1661 78.4364 25.1661C77.9516 25.1661 77.866 24.9664 77.866 23.8826C77.866 22.8272 77.7804 22.5991 77.3241 22.5991C76.7821 22.5991 76.4399 21.4867 76.4399 19.7183C76.4399 19.2049 76.2687 18.9197 75.8694 18.8056C75.4131 18.6915 75.299 18.4063 75.299 17.4936C75.299 16.5238 75.2134 16.3241 74.7285 16.3241C74.2437 16.3241 74.1581 16.1245 74.1581 15.0406C74.1581 13.9568 74.0725 13.7571 73.5876 13.7571C73.2169 13.7571 73.0172 13.5575 73.0172 13.1867C73.0172 12.8159 72.8175 12.6162 72.4753 12.6162C72.1045 12.6162 71.8763 12.3881 71.8193 11.9602C71.7622 11.4468 71.534 11.3042 70.6784 11.2472C69.8227 11.1616 69.5945 11.0475 69.5945 10.5911C69.5945 10.0777 69.3378 10.0492 63.6333 10.0492H57.7007L57.501 9.16503C57.4155 8.68015 57.3299 7.82448 57.3299 7.31108C57.3299 6.54098 57.2158 6.34132 56.7595 6.34132C56.3316 6.34132 56.189 6.14166 56.189 5.62827C56.189 5.11486 56.0464 4.91521 55.6186 4.91521C55.2478 4.91521 55.0481 4.71555 55.0481 4.34476C55.0481 3.77431 54.8485 3.77431 47.3471 3.77431C39.9883 3.77431 39.6461 3.74579 39.6461 3.23238C39.6461 2.80455 39.3608 2.66194 38.3625 2.51933C37.3357 2.34819 37.079 2.20558 37.079 1.74922C37.079 1.26434 36.8794 1.2073 35.2251 1.2073C33.5708 1.2073 33.3711 1.15025 33.3711 0.636856C33.3711 0.0949249 33.1715 0.0664062 27.5241 0.0664062C21.8766 0.0664062 21.677 0.0949249 21.677 0.636856ZM33.3711 3.20387C33.3711 3.71726 33.5708 3.77431 35.2251 3.77431C36.8509 3.77431 37.079 3.83135 37.079 4.31623C37.079 4.74407 37.3643 4.91521 38.2199 5.05782C39.0756 5.20042 39.3608 5.37156 39.3608 5.79939C39.3608 6.25575 39.5605 6.34132 40.5017 6.34132C41.443 6.34132 41.6426 6.42689 41.6426 6.91177C41.6426 7.3396 41.8423 7.48222 42.3557 7.48222C42.8691 7.48222 43.0687 7.62482 43.0687 8.05266C43.0687 8.42345 43.2684 8.62311 43.6392 8.62311C44.067 8.62311 44.2096 8.82276 44.2096 9.33617C44.2096 9.84957 44.3522 10.0492 44.7801 10.0492C45.1509 10.0492 45.3505 10.2489 45.3505 10.6197C45.3505 10.9905 45.5502 11.1901 45.8924 11.1901C46.2632 11.1901 46.4914 11.4183 46.5485 11.8176C46.6055 12.2454 46.8622 12.5021 47.29 12.5592C47.7464 12.6448 47.9175 12.8444 47.9175 13.3578C47.9175 13.7857 48.0887 14.0424 48.3454 14.0424C48.6306 14.0424 48.8302 14.4417 48.9443 15.1832C49.0869 16.0389 49.2581 16.3241 49.6574 16.3241C50.1138 16.3241 50.1993 16.5523 50.1993 17.6076C50.1993 18.6915 50.2849 18.8912 50.7698 18.8912C51.2832 18.8912 51.3402 19.0908 51.3402 20.4314C51.3402 22.5135 51.6254 23.7399 52.0818 23.7399C52.3955 23.7399 52.4811 24.6241 52.4811 28.3035C52.4811 31.9829 52.3955 32.8671 52.0818 32.8671C51.6254 32.8671 51.3402 34.0936 51.3402 36.1757C51.3402 37.5162 51.2832 37.7159 50.7698 37.7159C50.2849 37.7159 50.1993 37.9155 50.1993 38.9994C50.1993 40.0832 50.1138 40.2829 49.6289 40.2829C49.1725 40.2829 49.0584 40.4826 49.0584 41.2527C49.0584 42.7643 48.7447 43.9908 48.3454 43.9908C48.1172 43.9908 47.889 44.4757 47.7749 45.1032C47.6608 45.8733 47.4041 46.2726 47.0333 46.3582C46.6055 46.4722 46.4914 46.7575 46.4914 47.6417C46.4914 48.5259 46.3773 48.8111 45.921 48.9252C45.5217 49.0107 45.3505 49.3245 45.3505 49.8094C45.3505 50.3513 45.2079 50.5509 44.7801 50.5509C44.2952 50.5509 44.2096 50.7506 44.2096 51.6918C44.2096 52.6331 44.1241 52.8327 43.6392 52.8327C43.1543 52.8327 43.0687 53.0324 43.0687 54.0021C43.0687 54.9149 42.9546 55.2001 42.5268 55.3142C42.156 55.3997 41.8993 55.7991 41.7852 56.5406C41.6711 57.2822 41.4144 57.6815 41.0436 57.7671C40.7299 57.8527 40.5017 58.1664 40.5017 58.5087C40.5017 58.8509 40.3306 59.1076 40.1024 59.1076C39.8172 59.1076 39.6175 59.564 39.4749 60.3911C39.3323 61.3894 39.1897 61.6747 38.7619 61.6747C38.334 61.6747 38.2199 61.8743 38.2199 62.8155C38.2199 63.7568 38.1344 63.9564 37.6495 63.9564C37.2217 63.9564 37.079 64.1561 37.079 64.6695C37.079 65.1829 36.9364 65.3826 36.5371 65.3826C36.1093 65.3826 35.9667 65.6678 35.8241 66.6661C35.6529 67.6929 35.5103 67.9496 35.054 67.9496C34.6546 67.9496 34.512 68.1492 34.512 68.6626C34.512 69.0905 34.3409 69.3757 34.0842 69.3757C33.799 69.3757 33.5993 69.775 33.4852 70.5166C33.3426 71.3722 33.1715 71.6575 32.7722 71.6575C32.3729 71.6575 32.2302 71.8571 32.2302 72.3705C32.2302 72.8839 32.0876 73.0836 31.6883 73.0836C31.2605 73.0836 31.0894 73.3688 30.9467 74.2245C30.8326 74.9375 30.6045 75.3654 30.3478 75.3654C30.1196 75.3654 29.9485 75.6221 29.9485 75.9643C29.9485 76.3066 29.7203 76.6204 29.4065 76.7059C29.0357 76.7915 28.779 77.1908 28.665 77.9609C28.4653 79.0448 28.4368 79.0733 27.3529 79.0733C26.2406 79.0733 26.2406 79.0733 26.2406 77.9324C26.2406 76.9911 26.155 76.7915 25.6701 76.7915C25.2423 76.7915 25.0997 76.5918 25.0997 76.0784C25.0997 75.565 24.957 75.3654 24.5577 75.3654C24.1299 75.3654 23.9588 75.0802 23.8162 74.253C23.7021 73.4829 23.4454 73.0836 23.0746 72.998C22.7608 72.9125 22.5326 72.5987 22.5326 72.2564C22.5326 71.8571 22.3615 71.6575 21.9622 71.6575C21.4773 71.6575 21.3918 71.4578 21.3918 70.5166C21.3918 69.5753 21.3062 69.3757 20.8213 69.3757C20.3935 69.3757 20.2509 69.176 20.2509 68.6626C20.2509 68.1492 20.1082 67.9496 19.6804 67.9496C19.1955 67.9496 19.11 67.7499 19.11 66.7802C19.11 65.8674 18.9959 65.5822 18.5395 65.4681C18.2258 65.3826 17.9691 65.0688 17.9691 64.7551C17.9691 64.4413 17.7409 64.1276 17.4272 64.042C17.0564 63.9564 16.7997 63.5571 16.6856 62.787C16.543 61.9599 16.3718 61.6747 15.944 61.6747C15.4876 61.6747 15.4021 61.475 15.4021 60.3911C15.4021 59.3073 15.3165 59.1076 14.8316 59.1076C14.4038 59.1076 14.2612 58.908 14.2612 58.3946C14.2612 57.8812 14.1186 57.6815 13.6907 57.6815C13.2058 57.6815 13.1203 57.4819 13.1203 56.5406C13.1203 55.5994 13.0062 55.3997 12.5784 55.3997C12.1505 55.3997 12.0079 55.1145 11.8653 54.1162C11.6942 53.0894 11.5515 52.8327 11.0952 52.8327C10.6959 52.8327 10.5533 52.6331 10.5533 52.1197C10.5533 51.6918 10.3821 51.4066 10.154 51.4066C9.86873 51.4066 9.66907 50.9503 9.52646 50.1231C9.38385 49.1248 9.24124 48.8396 8.8134 48.8396C8.38557 48.8396 8.27148 48.6399 8.27148 47.6987C8.27148 46.7575 8.18591 46.5578 7.70103 46.5578C7.21615 46.5578 7.13059 46.3582 7.13059 45.2743C7.13059 44.1905 7.04502 43.9908 6.56014 43.9908C6.10378 43.9908 5.98969 43.7911 5.98969 43.021C5.98969 41.3667 5.67595 40.3399 5.1055 40.1973C4.67766 40.0832 4.56357 39.798 4.56357 38.8853C4.56357 38.0867 4.44949 37.7159 4.16426 37.7159C3.7079 37.7159 3.42268 36.4894 3.42268 34.4073C3.42268 33.0667 3.36564 32.8671 2.85223 32.8671C2.31031 32.8671 2.28179 32.6674 2.28179 27.8757C2.28179 23.0839 2.31031 22.8843 2.85223 22.8843C3.33711 22.8843 3.42268 22.6846 3.42268 21.7719C3.42268 20.1461 3.73643 18.8912 4.13574 18.8912C4.3354 18.8912 4.5921 18.3492 4.67766 17.6076C4.8488 16.5808 4.99141 16.3241 5.44777 16.3241C5.8756 16.3241 5.98969 16.1245 5.98969 15.2118C5.98969 14.3561 6.10378 14.0709 6.56014 13.9568C6.90241 13.8712 7.13059 13.5575 7.13059 13.2152C7.13059 12.8159 7.30172 12.6162 7.70103 12.6162C8.12887 12.6162 8.27148 12.4166 8.27148 11.9032C8.27148 11.3898 8.41409 11.1901 8.84193 11.1901C9.21272 11.1901 9.41237 10.9905 9.41237 10.6197C9.41237 10.2489 9.61203 10.0492 9.9543 10.0492C10.3251 10.0492 10.5533 9.82104 10.6103 9.39321C10.6674 8.9939 10.9241 8.7372 11.3519 8.68015C11.7512 8.62311 11.9794 8.39493 11.9794 8.02414C11.9794 7.68187 12.179 7.48222 12.5498 7.48222C12.9206 7.48222 13.1203 7.28255 13.1203 6.91177C13.1203 6.42689 13.3199 6.34132 14.2612 6.34132C15.2024 6.34132 15.4021 6.25575 15.4021 5.79939C15.4021 5.34304 15.6588 5.20042 16.6856 5.02929C17.6839 4.88668 17.9691 4.74407 17.9691 4.31623C17.9691 3.83135 18.1973 3.77431 19.7089 3.77431C21.1921 3.77431 21.4773 3.68874 21.5914 3.20387C21.734 2.66194 21.9907 2.63342 27.5526 2.63342C33.1715 2.63342 33.3711 2.66194 33.3711 3.20387ZM53.9072 6.91177C53.9072 7.28255 54.1069 7.48222 54.4777 7.48222C54.9626 7.48222 55.0481 7.68187 55.0481 8.76572V10.0492H51.4828C48.1457 10.0492 47.9175 10.0207 47.9175 9.5073C47.9175 9.13651 47.6894 8.90833 47.29 8.85129C46.8622 8.79424 46.6055 8.53754 46.5485 8.1097C46.4914 7.7104 46.2632 7.48222 45.8924 7.48222C45.5502 7.48222 45.3505 7.28255 45.3505 6.91177C45.3505 6.36984 45.5502 6.34132 49.6289 6.34132C53.7076 6.34132 53.9072 6.36984 53.9072 6.91177ZM69.3093 13.1867C69.3093 13.6145 69.5089 13.7571 70.0223 13.7571C70.5358 13.7571 70.7354 13.8997 70.7354 14.299C70.7354 14.5843 70.9921 14.898 71.3059 14.9836C71.6481 15.0692 71.8763 15.3829 71.8763 15.7252C71.8763 16.1245 72.0474 16.3241 72.4467 16.3241C72.9316 16.3241 73.0172 16.5238 73.0172 17.6076C73.0172 18.6915 73.1028 18.8912 73.5876 18.8912C74.101 18.8912 74.1581 19.0908 74.1581 20.7451C74.1581 22.3994 74.2151 22.5991 74.7285 22.5991C75.2134 22.5991 75.299 22.7987 75.299 23.8826C75.299 24.9664 75.3845 25.1661 75.8694 25.1661C76.3258 25.1661 76.4399 25.3657 76.4399 26.1358C76.4399 27.6475 76.7536 28.874 77.1814 28.874C77.4096 28.874 77.6093 29.3874 77.7519 30.1575C77.923 31.4125 77.9516 31.441 79.0354 31.441C79.9481 31.441 80.1478 31.3554 80.1478 30.8705C80.1478 30.3571 80.3474 30.3001 82.5722 30.3001C84.7969 30.3001 84.9966 30.3571 84.9966 30.8705C84.9966 31.2413 85.1962 31.441 85.567 31.441C85.9949 31.441 86.1375 31.6406 86.1375 32.154C86.1375 32.6674 86.2801 32.8671 86.7079 32.8671C87.1928 32.8671 87.2784 33.0667 87.2784 34.008V35.1489H83.7131H80.1478V35.8619C80.1478 36.3753 80.2904 36.575 80.6897 36.575C81.1175 36.575 81.2887 36.8602 81.4313 37.7159C81.5454 38.4289 81.7736 38.8568 82.0303 38.8568C82.2584 38.8568 82.4296 39.1135 82.4296 39.4558C82.4296 39.798 82.6577 40.1118 83 40.1973C83.3993 40.3114 83.599 40.6822 83.7416 41.5949C83.8272 42.308 84.0839 42.8499 84.2835 42.8499C84.4832 42.8499 84.7113 43.2492 84.8254 43.7341C84.911 44.219 84.9966 51.5492 84.9966 59.9918V75.3654H80.8894H76.8107L76.611 74.4812C76.5254 73.9963 76.4399 72.5702 76.4399 71.3437V69.0905H56.7595C37.2787 69.0905 37.079 69.0905 37.079 68.52C37.079 68.1492 37.2787 67.9496 37.6495 67.9496C38.0773 67.9496 38.2199 67.7499 38.2199 67.2365C38.2199 66.7231 38.3625 66.5235 38.7904 66.5235C39.2753 66.5235 39.3608 66.3238 39.3608 65.3826C39.3608 64.4413 39.4464 64.2417 39.9313 64.2417C40.3591 64.2417 40.5017 64.042 40.5017 63.5286C40.5017 62.9582 40.6443 62.8155 41.2148 62.8155C41.7282 62.8155 41.9278 62.9582 41.9278 63.386C41.9278 63.8709 42.1275 63.9564 43.0687 63.9564H44.2096V62.8155V61.6747H43.0687C42.0419 61.6747 41.9278 61.5891 41.9278 60.9616C41.9278 60.4482 42.0705 60.2485 42.4983 60.2485C42.9832 60.2485 43.0687 60.0489 43.0687 59.1076C43.0687 58.1664 43.1543 57.9667 43.6392 57.9667C44.067 57.9667 44.2096 57.7671 44.2096 57.2537C44.2096 56.7403 44.3522 56.5406 44.7801 56.5406C45.265 56.5406 45.3505 56.341 45.3505 55.2571C45.3505 54.1733 45.4361 53.9736 45.921 53.9736C46.2918 53.9736 46.4914 53.774 46.4914 53.4032C46.4914 52.8613 46.6911 52.8327 53.7646 52.8327H61.0378V51.5492V50.2657H54.4777C48.2313 50.2657 47.9175 50.2372 47.9175 49.7238C47.9175 49.4386 48.1742 49.1248 48.488 49.0393C48.9443 48.9252 49.0584 48.6399 49.0584 47.7272V46.5578H56.189H63.3196V45.2743V43.9908H57.3299H51.3402V42.7073C51.3402 41.6235 51.4258 41.4238 51.9107 41.4238C52.367 41.4238 52.4811 41.2241 52.4811 40.454C52.4811 38.9424 52.7949 37.7159 53.1942 37.7159C53.5935 37.7159 53.9072 36.4609 53.9072 34.8351C53.9072 34.0936 54.0213 33.7228 54.3065 33.7228C54.877 33.7228 55.0481 32.4107 55.0481 28.3035C55.0481 24.1963 54.877 22.8843 54.3065 22.8843C54.0213 22.8843 53.9072 22.5135 53.9072 21.7719C53.9072 20.1176 53.5935 18.8912 53.1656 18.8912C52.9375 18.8912 52.7378 18.3777 52.5952 17.6076C52.4811 16.8375 52.2815 16.3241 52.0247 16.3241C51.7966 16.3241 51.5969 15.8107 51.4543 15.0406C51.3117 14.0424 51.1691 13.7571 50.7412 13.7571C50.399 13.7571 50.1993 13.5575 50.1993 13.1867C50.1993 12.6162 50.399 12.6162 59.7543 12.6162C69.1096 12.6162 69.3093 12.6162 69.3093 13.1867Z" fill="white"/>
<path d="M9.4126 28.8723V32.5802H12.9779H16.5432V36.4307V40.2812H20.2511H23.959V36.4307V32.5517L27.4672 32.6373L30.947 32.7228L31.0325 36.4878L31.1181 40.2812H34.6549H38.2202V36.4307V32.5802H41.7855H45.3507V28.8723V25.1644H41.7855H38.2202V28.8723V32.5802H34.6549H31.0896V28.8723V25.1644H27.5243H23.959V28.8723V32.5802H20.2511H16.5432V28.8723V25.1644H12.9779H9.4126V28.8723Z" fill="white"/>
<path d="M56.189 36.4352V37.7188H57.3299H58.4708V36.4352V35.1517H57.3299H56.189V36.4352Z" fill="white"/>
<path d="M61.0376 36.4352V37.7188H62.1785H63.3194V36.4352V35.1517H62.1785H61.0376V36.4352Z" fill="white"/>
<path d="M65.8867 36.4352V37.7188H67.0276H68.1685V36.4352V35.1517H67.0276H65.8867V36.4352Z" fill="white"/>
<path d="M70.7354 36.4067V37.7188H71.9048H73.0457L72.9601 36.4923C72.8745 35.3229 72.846 35.2944 71.8192 35.2088L70.7354 35.1232V36.4067Z" fill="white"/>
<path d="M75.4985 35.3514C75.3844 35.437 75.2988 36.0359 75.2988 36.6349C75.2988 37.7188 75.2988 37.7188 76.4397 37.7188H77.5806V36.4352C77.5806 35.1803 77.5806 35.1517 76.6394 35.1517C76.0975 35.1517 75.5841 35.2373 75.4985 35.3514Z" fill="white"/>
<path d="M71.6767 41.9933C71.5911 42.3641 71.1918 42.6208 70.5929 42.7349C69.7372 42.8775 69.6231 43.0486 69.452 44.0184C69.3094 44.8455 69.1382 45.1307 68.7104 45.1307C68.2255 45.1307 68.1685 45.3589 68.1685 47.6977C68.1685 50.0366 68.2255 50.2648 68.7104 50.2648C69.1382 50.2648 69.2808 50.55 69.4234 51.5483C69.6231 52.7747 69.6801 52.8318 70.6214 52.8318C71.3915 52.8318 71.5911 52.9459 71.5911 53.4022C71.5911 53.9441 71.7908 53.9727 74.1581 53.9727C76.5255 53.9727 76.7252 53.9441 76.7252 53.4022C76.7252 52.9459 76.9248 52.8318 77.6949 52.8318C78.6362 52.8318 78.6932 52.7747 78.8929 51.5483C79.0355 50.55 79.1781 50.2648 79.6059 50.2648C80.0908 50.2648 80.1478 50.0366 80.1478 47.6977C80.1478 45.3589 80.0908 45.1307 79.6059 45.1307C79.1781 45.1307 79.0069 44.8455 78.8643 44.0184C78.6932 43.0486 78.5791 42.8775 77.7234 42.7349C77.1245 42.6208 76.7252 42.3641 76.6396 41.9933C76.497 41.4799 76.2403 41.4228 74.1581 41.4228C72.076 41.4228 71.8193 41.4799 71.6767 41.9933ZM76.4399 44.7029C76.4399 45.2163 76.5825 45.416 76.9819 45.416C77.6664 45.416 78.0087 47.1273 77.7234 49.0098C77.5808 50.0081 77.4382 50.2648 76.9819 50.2648C76.6396 50.2648 76.4399 50.4644 76.4399 50.8352C76.4399 51.3486 76.2403 51.4056 74.1581 51.4056C72.076 51.4056 71.8764 51.3486 71.8764 50.8352C71.8764 50.4644 71.6767 50.2648 71.3344 50.2648C70.6499 50.2648 70.3076 48.5534 70.5929 46.6709C70.7355 45.6727 70.8781 45.416 71.3344 45.416C71.7337 45.416 71.8764 45.2163 71.8764 44.7029C71.8764 43.9898 71.9049 43.9898 74.1581 43.9898C76.4114 43.9898 76.4399 43.9898 76.4399 44.7029Z" fill="white"/>
<path d="M46.7769 62.8161V63.957H47.9177H49.0586V62.8161V61.6752H47.9177H46.7769V62.8161Z" fill="white"/>
<path d="M51.3398 62.8161V63.957H52.4807H53.6216V62.8161V61.6752H52.4807H51.3398V62.8161Z" fill="white"/>
<path d="M56.189 62.8161V63.957H57.3299H58.4708V62.8161V61.6752H57.3299H56.189V62.8161Z" fill="white"/>
<path d="M61.0376 62.8161V63.957H62.1785H63.3194V62.8161V61.6752H62.1785H61.0376V62.8161Z" fill="white"/>
<path d="M65.8867 62.8161V63.957H67.0276H68.1685V62.8161V61.6752H67.0276H65.8867V62.8161Z" fill="white"/>
<path d="M70.7354 62.8161V63.957H71.8762H73.0171V62.8161V61.6752H71.8762H70.7354V62.8161Z" fill="white"/>
<path d="M75.2988 62.8161V63.957H76.4397H77.5806V62.8161V61.6752H76.4397H75.2988V62.8161Z" fill="white"/>
<path d="M80.1479 62.8161V63.957H81.2888H82.4297V62.8161V61.6752H81.2888H80.1479V62.8161Z" fill="white"/>
</svg>
