<svg width="336" height="428" viewBox="0 0 336 428" fill="none" xmlns="http://www.w3.org/2000/svg">
<path d="M0 35C0 15.67 15.67 0 35 0H301C320.33 0 336 15.67 336 35V393C336 412.33 320.33 428 301 428H168H35C15.67 428 0 412.33 0 393V35Z" fill="#ABD4FA"/>
<path d="M79.12 328.06V329.54H75.32V342H73.5V329.54H69.68V328.06H79.12ZM86.1403 342.18C85.1136 342.18 84.1803 341.947 83.3403 341.48C82.5136 341.013 81.8603 340.353 81.3803 339.5C80.9136 338.633 80.6803 337.633 80.6803 336.5C80.6803 335.38 80.9203 334.393 81.4003 333.54C81.8936 332.673 82.5603 332.013 83.4003 331.56C84.2403 331.093 85.1803 330.86 86.2203 330.86C87.2603 330.86 88.2003 331.093 89.0403 331.56C89.8803 332.013 90.5403 332.667 91.0203 333.52C91.5136 334.373 91.7603 335.367 91.7603 336.5C91.7603 337.633 91.507 338.633 91.0003 339.5C90.507 340.353 89.8336 341.013 88.9803 341.48C88.127 341.947 87.1803 342.18 86.1403 342.18ZM86.1403 340.58C86.7936 340.58 87.407 340.427 87.9803 340.12C88.5536 339.813 89.0136 339.353 89.3603 338.74C89.7203 338.127 89.9003 337.38 89.9003 336.5C89.9003 335.62 89.727 334.873 89.3803 334.26C89.0336 333.647 88.5803 333.193 88.0203 332.9C87.4603 332.593 86.8536 332.44 86.2003 332.44C85.5336 332.44 84.9203 332.593 84.3603 332.9C83.8136 333.193 83.3736 333.647 83.0403 334.26C82.707 334.873 82.5403 335.62 82.5403 336.5C82.5403 337.393 82.7003 338.147 83.0203 338.76C83.3536 339.373 83.7936 339.833 84.3403 340.14C84.887 340.433 85.487 340.58 86.1403 340.58ZM103.873 331.04V342H102.053V340.38C101.707 340.94 101.22 341.38 100.593 341.7C99.9799 342.007 99.2999 342.16 98.5533 342.16C97.6999 342.16 96.9333 341.987 96.2533 341.64C95.5733 341.28 95.0333 340.747 94.6333 340.04C94.2466 339.333 94.0533 338.473 94.0533 337.46V331.04H95.8533V337.22C95.8533 338.3 96.1266 339.133 96.6733 339.72C97.2199 340.293 97.9666 340.58 98.9133 340.58C99.8866 340.58 100.653 340.28 101.213 339.68C101.773 339.08 102.053 338.207 102.053 337.06V331.04H103.873ZM108.766 332.82C109.086 332.193 109.54 331.707 110.126 331.36C110.726 331.013 111.453 330.84 112.306 330.84V332.72H111.826C109.786 332.72 108.766 333.827 108.766 336.04V342H106.946V331.04H108.766V332.82ZM115.347 329.26C115.001 329.26 114.707 329.14 114.467 328.9C114.227 328.66 114.107 328.367 114.107 328.02C114.107 327.673 114.227 327.38 114.467 327.14C114.707 326.9 115.001 326.78 115.347 326.78C115.681 326.78 115.961 326.9 116.187 327.14C116.427 327.38 116.547 327.673 116.547 328.02C116.547 328.367 116.427 328.66 116.187 328.9C115.961 329.14 115.681 329.26 115.347 329.26ZM116.227 331.04V342H114.407V331.04H116.227ZM123.209 342.18C122.369 342.18 121.616 342.04 120.949 341.76C120.282 341.467 119.756 341.067 119.369 340.56C118.982 340.04 118.769 339.447 118.729 338.78H120.609C120.662 339.327 120.916 339.773 121.369 340.12C121.836 340.467 122.442 340.64 123.189 340.64C123.882 340.64 124.429 340.487 124.829 340.18C125.229 339.873 125.429 339.487 125.429 339.02C125.429 338.54 125.216 338.187 124.789 337.96C124.362 337.72 123.702 337.487 122.809 337.26C121.996 337.047 121.329 336.833 120.809 336.62C120.302 336.393 119.862 336.067 119.489 335.64C119.129 335.2 118.949 334.627 118.949 333.92C118.949 333.36 119.116 332.847 119.449 332.38C119.782 331.913 120.256 331.547 120.869 331.28C121.482 331 122.182 330.86 122.969 330.86C124.182 330.86 125.162 331.167 125.909 331.78C126.656 332.393 127.056 333.233 127.109 334.3H125.289C125.249 333.727 125.016 333.267 124.589 332.92C124.176 332.573 123.616 332.4 122.909 332.4C122.256 332.4 121.736 332.54 121.349 332.82C120.962 333.1 120.769 333.467 120.769 333.92C120.769 334.28 120.882 334.58 121.109 334.82C121.349 335.047 121.642 335.233 121.989 335.38C122.349 335.513 122.842 335.667 123.469 335.84C124.256 336.053 124.896 336.267 125.389 336.48C125.882 336.68 126.302 336.987 126.649 337.4C127.009 337.813 127.196 338.353 127.209 339.02C127.209 339.62 127.042 340.16 126.709 340.64C126.376 341.12 125.902 341.5 125.289 341.78C124.689 342.047 123.996 342.18 123.209 342.18ZM142.958 330.84C143.812 330.84 144.572 331.02 145.238 331.38C145.905 331.727 146.432 332.253 146.818 332.96C147.205 333.667 147.398 334.527 147.398 335.54V342H145.598V335.8C145.598 334.707 145.325 333.873 144.778 333.3C144.245 332.713 143.518 332.42 142.598 332.42C141.652 332.42 140.898 332.727 140.338 333.34C139.778 333.94 139.498 334.813 139.498 335.96V342H137.698V335.8C137.698 334.707 137.425 333.873 136.878 333.3C136.345 332.713 135.618 332.42 134.698 332.42C133.752 332.42 132.998 332.727 132.438 333.34C131.878 333.94 131.598 334.813 131.598 335.96V342H129.778V331.04H131.598V332.62C131.958 332.047 132.438 331.607 133.038 331.3C133.652 330.993 134.325 330.84 135.058 330.84C135.978 330.84 136.792 331.047 137.498 331.46C138.205 331.873 138.732 332.48 139.078 333.28C139.385 332.507 139.892 331.907 140.598 331.48C141.305 331.053 142.092 330.84 142.958 330.84ZM163.956 338.9H157.876L156.756 342H154.836L159.876 328.14H161.976L166.996 342H165.076L163.956 338.9ZM163.436 337.42L160.916 330.38L158.396 337.42H163.436ZM171.012 333.06C171.372 332.433 171.906 331.913 172.612 331.5C173.332 331.073 174.166 330.86 175.112 330.86C176.086 330.86 176.966 331.093 177.752 331.56C178.552 332.027 179.179 332.687 179.632 333.54C180.086 334.38 180.312 335.36 180.312 336.48C180.312 337.587 180.086 338.573 179.632 339.44C179.179 340.307 178.552 340.98 177.752 341.46C176.966 341.94 176.086 342.18 175.112 342.18C174.179 342.18 173.352 341.973 172.632 341.56C171.926 341.133 171.386 340.607 171.012 339.98V347.2H169.192V331.04H171.012V333.06ZM178.452 336.48C178.452 335.653 178.286 334.933 177.952 334.32C177.619 333.707 177.166 333.24 176.592 332.92C176.032 332.6 175.412 332.44 174.732 332.44C174.066 332.44 173.446 332.607 172.872 332.94C172.312 333.26 171.859 333.733 171.512 334.36C171.179 334.973 171.012 335.687 171.012 336.5C171.012 337.327 171.179 338.053 171.512 338.68C171.859 339.293 172.312 339.767 172.872 340.1C173.446 340.42 174.066 340.58 174.732 340.58C175.412 340.58 176.032 340.42 176.592 340.1C177.166 339.767 177.619 339.293 177.952 338.68C178.286 338.053 178.452 337.32 178.452 336.48ZM184.528 333.06C184.888 332.433 185.421 331.913 186.128 331.5C186.848 331.073 187.681 330.86 188.628 330.86C189.601 330.86 190.481 331.093 191.268 331.56C192.068 332.027 192.695 332.687 193.148 333.54C193.601 334.38 193.828 335.36 193.828 336.48C193.828 337.587 193.601 338.573 193.148 339.44C192.695 340.307 192.068 340.98 191.268 341.46C190.481 341.94 189.601 342.18 188.628 342.18C187.695 342.18 186.868 341.973 186.148 341.56C185.441 341.133 184.901 340.607 184.528 339.98V347.2H182.708V331.04H184.528V333.06ZM191.968 336.48C191.968 335.653 191.801 334.933 191.468 334.32C191.135 333.707 190.681 333.24 190.108 332.92C189.548 332.6 188.928 332.44 188.248 332.44C187.581 332.44 186.961 332.607 186.388 332.94C185.828 333.26 185.375 333.733 185.028 334.36C184.695 334.973 184.528 335.687 184.528 336.5C184.528 337.327 184.695 338.053 185.028 338.68C185.375 339.293 185.828 339.767 186.388 340.1C186.961 340.42 187.581 340.58 188.248 340.58C188.928 340.58 189.548 340.42 190.108 340.1C190.681 339.767 191.135 339.293 191.468 338.68C191.801 338.053 191.968 337.32 191.968 336.48ZM198.044 327.2V342H196.224V327.2H198.044ZM202.085 329.26C201.739 329.26 201.445 329.14 201.205 328.9C200.965 328.66 200.845 328.367 200.845 328.02C200.845 327.673 200.965 327.38 201.205 327.14C201.445 326.9 201.739 326.78 202.085 326.78C202.419 326.78 202.699 326.9 202.925 327.14C203.165 327.38 203.285 327.673 203.285 328.02C203.285 328.367 203.165 328.66 202.925 328.9C202.699 329.14 202.419 329.26 202.085 329.26ZM202.965 331.04V342H201.145V331.04H202.965ZM205.387 336.5C205.387 335.367 205.614 334.38 206.067 333.54C206.521 332.687 207.147 332.027 207.947 331.56C208.761 331.093 209.687 330.86 210.727 330.86C212.074 330.86 213.181 331.187 214.047 331.84C214.927 332.493 215.507 333.4 215.787 334.56H213.827C213.641 333.893 213.274 333.367 212.727 332.98C212.194 332.593 211.527 332.4 210.727 332.4C209.687 332.4 208.847 332.76 208.207 333.48C207.567 334.187 207.247 335.193 207.247 336.5C207.247 337.82 207.567 338.84 208.207 339.56C208.847 340.28 209.687 340.64 210.727 340.64C211.527 340.64 212.194 340.453 212.727 340.08C213.261 339.707 213.627 339.173 213.827 338.48H215.787C215.494 339.6 214.907 340.5 214.027 341.18C213.147 341.847 212.047 342.18 210.727 342.18C209.687 342.18 208.761 341.947 207.947 341.48C207.147 341.013 206.521 340.353 206.067 339.5C205.614 338.647 205.387 337.647 205.387 336.5ZM217.536 336.48C217.536 335.36 217.762 334.38 218.216 333.54C218.669 332.687 219.289 332.027 220.076 331.56C220.876 331.093 221.762 330.86 222.736 330.86C223.696 330.86 224.529 331.067 225.236 331.48C225.942 331.893 226.469 332.413 226.816 333.04V331.04H228.656V342H226.816V339.96C226.456 340.6 225.916 341.133 225.196 341.56C224.489 341.973 223.662 342.18 222.716 342.18C221.742 342.18 220.862 341.94 220.076 341.46C219.289 340.98 218.669 340.307 218.216 339.44C217.762 338.573 217.536 337.587 217.536 336.48ZM226.816 336.5C226.816 335.673 226.649 334.953 226.316 334.34C225.982 333.727 225.529 333.26 224.956 332.94C224.396 332.607 223.776 332.44 223.096 332.44C222.416 332.44 221.796 332.6 221.236 332.92C220.676 333.24 220.229 333.707 219.896 334.32C219.562 334.933 219.396 335.653 219.396 336.48C219.396 337.32 219.562 338.053 219.896 338.68C220.229 339.293 220.676 339.767 221.236 340.1C221.796 340.42 222.416 340.58 223.096 340.58C223.776 340.58 224.396 340.42 224.956 340.1C225.529 339.767 225.982 339.293 226.316 338.68C226.649 338.053 226.816 337.327 226.816 336.5ZM233.951 332.54V339C233.951 339.533 234.065 339.913 234.291 340.14C234.518 340.353 234.911 340.46 235.471 340.46H236.811V342H235.171C234.158 342 233.398 341.767 232.891 341.3C232.385 340.833 232.131 340.067 232.131 339V332.54H230.711V331.04H232.131V328.28H233.951V331.04H236.811V332.54H233.951ZM239.957 329.26C239.61 329.26 239.317 329.14 239.077 328.9C238.837 328.66 238.717 328.367 238.717 328.02C238.717 327.673 238.837 327.38 239.077 327.14C239.317 326.9 239.61 326.78 239.957 326.78C240.29 326.78 240.57 326.9 240.797 327.14C241.037 327.38 241.157 327.673 241.157 328.02C241.157 328.367 241.037 328.66 240.797 328.9C240.57 329.14 240.29 329.26 239.957 329.26ZM240.837 331.04V342H239.017V331.04H240.837ZM248.718 342.18C247.692 342.18 246.758 341.947 245.918 341.48C245.092 341.013 244.438 340.353 243.958 339.5C243.492 338.633 243.258 337.633 243.258 336.5C243.258 335.38 243.498 334.393 243.978 333.54C244.472 332.673 245.138 332.013 245.978 331.56C246.818 331.093 247.758 330.86 248.798 330.86C249.838 330.86 250.778 331.093 251.618 331.56C252.458 332.013 253.118 332.667 253.598 333.52C254.092 334.373 254.338 335.367 254.338 336.5C254.338 337.633 254.085 338.633 253.578 339.5C253.085 340.353 252.412 341.013 251.558 341.48C250.705 341.947 249.758 342.18 248.718 342.18ZM248.718 340.58C249.372 340.58 249.985 340.427 250.558 340.12C251.132 339.813 251.592 339.353 251.938 338.74C252.298 338.127 252.478 337.38 252.478 336.5C252.478 335.62 252.305 334.873 251.958 334.26C251.612 333.647 251.158 333.193 250.598 332.9C250.038 332.593 249.432 332.44 248.778 332.44C248.112 332.44 247.498 332.593 246.938 332.9C246.392 333.193 245.952 333.647 245.618 334.26C245.285 334.873 245.118 335.62 245.118 336.5C245.118 337.393 245.278 338.147 245.598 338.76C245.932 339.373 246.372 339.833 246.918 340.14C247.465 340.433 248.065 340.58 248.718 340.58ZM262.071 330.84C263.405 330.84 264.485 331.247 265.311 332.06C266.138 332.86 266.551 334.02 266.551 335.54V342H264.751V335.8C264.751 334.707 264.478 333.873 263.931 333.3C263.385 332.713 262.638 332.42 261.691 332.42C260.731 332.42 259.965 332.72 259.391 333.32C258.831 333.92 258.551 334.793 258.551 335.94V342H256.731V331.04H258.551V332.6C258.911 332.04 259.398 331.607 260.011 331.3C260.638 330.993 261.325 330.84 262.071 330.84Z" fill="black"/>
<g clip-path="url(#clip0_12805_5960)">
<path d="M278 152.49C278 212.957 228.978 261.979 168.51 261.979C108.043 261.979 59 212.978 59 152.49C59 92.0014 108.022 43 168.49 43C228.957 43 277.979 92.0224 277.979 152.49H278Z" fill="#112334"/>
<path d="M157.808 134.099H155.61C155.296 134.11 154.983 134.057 154.69 133.945C154.396 133.832 154.128 133.661 153.902 133.442C153.676 133.224 153.497 132.962 153.374 132.673C153.251 132.383 153.188 132.072 153.188 131.758C153.188 131.443 153.251 131.132 153.374 130.843C153.497 130.553 153.676 130.291 153.902 130.073C154.128 129.854 154.396 129.684 154.69 129.571C154.983 129.458 155.296 129.405 155.61 129.416H157.808C158.145 129.43 158.481 129.377 158.797 129.261C159.114 129.145 159.404 128.968 159.652 128.74C159.9 128.512 160.101 128.237 160.243 127.931C160.385 127.625 160.465 127.295 160.479 126.958C160.493 126.621 160.441 126.285 160.325 125.968C160.209 125.652 160.031 125.361 159.803 125.113C159.575 124.865 159.3 124.665 158.994 124.523C158.689 124.381 158.358 124.301 158.021 124.287C157.433 124.241 156.885 123.975 156.484 123.542C156.084 123.109 155.862 122.541 155.861 121.952V121.927C155.856 121.255 155.672 120.595 155.329 120.017C154.985 119.439 154.493 118.962 153.904 118.637C153.315 118.311 152.65 118.148 151.978 118.164C151.305 118.18 150.649 118.375 150.076 118.728C149.597 119.025 149.027 119.14 148.471 119.053C147.914 118.965 147.407 118.68 147.042 118.251C146.409 117.499 145.544 116.979 144.583 116.774C143.622 116.569 142.62 116.69 141.735 117.118C140.85 117.546 140.133 118.256 139.697 119.137C139.261 120.017 139.131 121.018 139.327 121.981C139.391 122.296 139.389 122.621 139.322 122.935C139.255 123.249 139.125 123.546 138.938 123.808C138.751 124.069 138.513 124.29 138.238 124.455C137.962 124.621 137.656 124.728 137.337 124.77C136.752 124.85 136.218 125.15 135.845 125.609C135.472 126.067 135.287 126.65 135.327 127.24C135.368 127.83 135.631 128.383 136.063 128.786C136.495 129.189 137.065 129.414 137.656 129.413H145.363C145.677 129.402 145.99 129.455 146.284 129.568C146.577 129.681 146.845 129.852 147.071 130.07C147.297 130.289 147.477 130.55 147.6 130.84C147.722 131.129 147.786 131.441 147.786 131.755C147.786 132.069 147.722 132.381 147.6 132.67C147.477 132.959 147.297 133.221 147.071 133.44C146.845 133.658 146.577 133.829 146.284 133.942C145.99 134.055 145.677 134.107 145.363 134.097H137.651C136.067 134.096 134.531 133.561 133.29 132.577C132.05 131.593 131.179 130.218 130.818 128.676C130.458 127.135 130.629 125.516 131.304 124.084C131.98 122.652 133.119 121.491 134.538 120.788C134.601 119.107 135.127 117.475 136.059 116.074C136.991 114.673 138.292 113.557 139.818 112.848C141.345 112.14 143.037 111.867 144.709 112.06C146.38 112.253 147.966 112.905 149.291 113.942C150.417 113.554 151.611 113.407 152.797 113.511C153.984 113.614 155.135 113.965 156.177 114.541C157.218 115.118 158.128 115.907 158.845 116.857C159.563 117.807 160.073 118.897 160.343 120.057C161.94 120.646 163.278 121.779 164.123 123.258C164.968 124.736 165.265 126.464 164.962 128.14C164.659 129.815 163.776 131.33 162.467 132.419C161.158 133.508 159.508 134.101 157.805 134.094L157.808 134.099Z" fill="white"/>
<path d="M206.269 192.644H184.556C184.242 192.654 183.929 192.602 183.636 192.489C183.342 192.376 183.074 192.205 182.848 191.987C182.622 191.768 182.443 191.506 182.32 191.217C182.197 190.927 182.134 190.616 182.134 190.302C182.134 189.987 182.197 189.676 182.32 189.387C182.443 189.097 182.622 188.836 182.848 188.617C183.074 188.399 183.342 188.228 183.636 188.115C183.929 188.002 184.242 187.949 184.556 187.96H206.269C206.605 187.963 206.936 187.882 207.234 187.726C207.531 187.569 207.785 187.34 207.972 187.061C208.159 186.782 208.274 186.461 208.307 186.126C208.339 185.792 208.288 185.454 208.158 185.144L182.316 123.879L182.294 123.828C182.2 123.591 182.037 123.389 181.827 123.246C181.616 123.103 181.368 123.027 181.113 123.027C180.859 123.027 180.61 123.103 180.4 123.246C180.189 123.389 180.026 123.591 179.932 123.828L169.731 149.708C169.495 150.276 169.046 150.728 168.481 150.969C167.915 151.21 167.278 151.219 166.706 150.995C166.133 150.771 165.671 150.331 165.419 149.771C165.167 149.21 165.145 148.573 165.358 147.996L175.556 122.116C175.997 121.005 176.76 120.052 177.748 119.38C178.736 118.707 179.902 118.346 181.097 118.343C182.292 118.34 183.461 118.696 184.452 119.363C185.443 120.031 186.211 120.981 186.657 122.089L212.478 183.33C212.907 184.353 213.076 185.465 212.971 186.569C212.865 187.672 212.488 188.732 211.874 189.655C211.259 190.577 210.425 191.333 209.447 191.855C208.469 192.377 207.377 192.649 206.269 192.646V192.644Z" fill="white"/>
<path d="M130.732 190.301C129.987 190.303 129.254 190.114 128.602 189.753C127.951 189.392 127.402 188.871 127.008 188.239C126.614 187.606 126.389 186.883 126.353 186.139C126.317 185.395 126.471 184.654 126.802 183.986L147.418 142.562C147.707 141.93 148.171 141.393 148.756 141.017C149.341 140.641 150.022 140.441 150.717 140.441C151.412 140.441 152.093 140.641 152.678 141.017C153.263 141.393 153.727 141.93 154.016 142.562L174.632 183.986C174.963 184.654 175.117 185.395 175.081 186.139C175.045 186.883 174.819 187.606 174.426 188.239C174.032 188.871 173.483 189.392 172.831 189.753C172.18 190.114 171.446 190.303 170.701 190.301H130.732Z" fill="white"/>
<path d="M170.702 192.644H130.733C129.588 192.647 128.462 192.358 127.461 191.803C126.461 191.249 125.618 190.448 125.013 189.477C124.409 188.505 124.063 187.396 124.008 186.253C123.953 185.11 124.191 183.972 124.699 182.947L145.296 141.558C145.776 140.525 146.541 139.65 147.502 139.037C148.462 138.425 149.578 138.099 150.717 138.099C151.856 138.099 152.972 138.425 153.932 139.037C154.893 139.65 155.658 140.525 156.138 141.558L176.738 182.947C177.245 183.972 177.483 185.11 177.427 186.253C177.372 187.396 177.025 188.506 176.421 189.477C175.816 190.448 174.973 191.249 173.972 191.803C172.971 192.357 171.846 192.647 170.702 192.644ZM150.725 142.784C150.48 142.779 150.239 142.847 150.032 142.98C149.826 143.112 149.664 143.304 149.567 143.529L149.529 143.604L128.908 185.028C128.754 185.338 128.682 185.682 128.699 186.028C128.715 186.374 128.82 186.709 129.003 187.003C129.186 187.297 129.441 187.539 129.743 187.706C130.046 187.874 130.387 187.961 130.733 187.96H170.702C171.047 187.961 171.388 187.874 171.691 187.706C171.993 187.539 172.248 187.297 172.431 187.003C172.614 186.709 172.719 186.374 172.735 186.028C172.752 185.682 172.68 185.338 172.526 185.028L151.91 143.604L151.875 143.529C151.778 143.304 151.616 143.112 151.41 142.98C151.203 142.847 150.962 142.779 150.717 142.784H150.725Z" fill="white"/>
<path d="M192.157 142.46L184.477 122.972C184.21 122.294 183.746 121.712 183.144 121.302C182.542 120.892 181.831 120.672 181.102 120.672C180.374 120.672 179.662 120.892 179.06 121.302C178.459 121.712 177.994 122.294 177.728 122.972L172.485 136.27L175.768 147.068L181.407 140.454L188.221 150.191L192.157 142.46Z" fill="white"/>
<path d="M188.238 152.518C187.86 152.519 187.487 152.428 187.152 152.253C186.816 152.079 186.528 151.826 186.31 151.517L181.241 144.279L177.58 148.571C177.307 148.895 176.952 149.139 176.552 149.278C176.151 149.417 175.721 149.445 175.306 149.359C174.892 149.273 174.508 149.077 174.195 148.791C173.883 148.505 173.653 148.14 173.531 147.735L170.248 136.95C170.095 136.446 170.117 135.904 170.31 135.414L175.556 122.116C175.997 121.003 176.763 120.048 177.753 119.376C178.744 118.703 179.914 118.343 181.111 118.343C182.309 118.343 183.478 118.703 184.469 119.376C185.46 120.048 186.225 121.003 186.667 122.116L194.347 141.601C194.468 141.909 194.522 142.238 194.506 142.568C194.491 142.898 194.405 143.221 194.255 143.515L190.33 151.236C190.146 151.598 189.871 151.905 189.532 152.129C189.193 152.353 188.802 152.485 188.397 152.513H188.233L188.238 152.518ZM181.424 138.097H181.538C181.896 138.114 182.246 138.213 182.561 138.386C182.875 138.559 183.146 138.802 183.352 139.096L187.917 145.629L189.588 142.338L182.299 123.83C182.205 123.594 182.042 123.392 181.831 123.249C181.621 123.106 181.372 123.03 181.118 123.03C180.864 123.03 180.615 123.106 180.405 123.249C180.194 123.392 180.031 123.594 179.937 123.83L174.986 136.37L176.781 142.268L179.632 138.923C179.853 138.664 180.127 138.456 180.436 138.314C180.745 138.171 181.081 138.097 181.422 138.097H181.424Z" fill="white"/>
</g>
<defs>
<clipPath id="clip0_12805_5960">
<rect width="219" height="219" fill="white" transform="translate(59 43)"/>
</clipPath>
</defs>
</svg>
