<svg width="27" height="24" viewBox="0 0 27 24" fill="none" xmlns="http://www.w3.org/2000/svg">
<path d="M0 1.324C0.00244006 0.973838 0.142534 0.63869 0.390017 0.390957C0.637501 0.143224 0.972507 0.00279287 1.32267 0H25.344C26.0747 0 26.6667 0.593333 26.6667 1.324V22.676C26.6642 23.0262 26.5241 23.3613 26.2766 23.609C26.0292 23.8568 25.6942 23.9972 25.344 24H1.32267C0.971751 23.9996 0.635329 23.86 0.387319 23.6117C0.139309 23.3635 -1.7794e-07 23.0269 0 22.676V1.324ZM8 2.66667V21.3333H18.6667V2.66667H8ZM2.66667 2.66667V5.33333H5.33333V2.66667H2.66667ZM21.3333 2.66667V5.33333H24V2.66667H21.3333ZM2.66667 8V10.6667H5.33333V8H2.66667ZM21.3333 8V10.6667H24V8H21.3333ZM2.66667 13.3333V16H5.33333V13.3333H2.66667ZM21.3333 13.3333V16H24V13.3333H21.3333ZM2.66667 18.6667V21.3333H5.33333V18.6667H2.66667ZM21.3333 18.6667V21.3333H24V18.6667H21.3333Z" fill="#696868"/>
</svg>
