<svg width="32" height="24" viewBox="0 0 32 24" fill="none" xmlns="http://www.w3.org/2000/svg">
<path d="M30.2222 24H6.22225C5.86863 24 5.52949 23.8595 5.27944 23.6095C5.02939 23.3594 4.88892 23.0203 4.88892 22.6667V12.6493C4.8889 12.4588 4.9297 12.2705 5.00859 12.0971C5.08748 11.9237 5.20262 11.7692 5.34625 11.644L10.2222 7.392V1.33333C10.2222 0.979711 10.3627 0.640573 10.6128 0.390524C10.8628 0.140476 11.202 0 11.5556 0H30.2222C30.5759 0 30.915 0.140476 31.1651 0.390524C31.4151 0.640573 31.5556 0.979711 31.5556 1.33333V22.6667C31.5556 23.0203 31.4151 23.3594 31.1651 23.6095C30.915 23.8595 30.5759 24 30.2222 24ZM14.2222 21.3333H18.2222V13.256L12.8889 8.60533L7.55558 13.256V21.3333H11.5556V16H14.2222V21.3333ZM20.8889 21.3333H28.8889V2.66667H12.8889V5.50267C13.2009 5.50267 13.5142 5.612 13.7649 5.832L20.4316 11.644C20.5752 11.7692 20.6903 11.9237 20.7692 12.0971C20.8481 12.2705 20.8889 12.4588 20.8889 12.6493V21.3333ZM23.5556 10.6667H26.2222V13.3333H23.5556V10.6667ZM23.5556 16H26.2222V18.6667H23.5556V16ZM23.5556 5.33333H26.2222V8H23.5556V5.33333ZM18.2222 5.33333H20.8889V8H18.2222V5.33333Z" fill="#696868"/>
<path d="M4.44444 9.33335C1.98978 9.33335 0 7.34357 0 4.8889C0 2.43424 1.98978 0.444458 4.44444 0.444458C6.89911 0.444458 8.88889 2.43424 8.88889 4.8889C8.88889 7.34357 6.89911 9.33335 4.44444 9.33335ZM4 6.22224V7.11112H4.88889V6.22224H4ZM4.88889 5.49112C5.24608 5.38347 5.55271 5.1511 5.75296 4.83634C5.9532 4.52158 6.03373 4.14537 5.97988 3.77622C5.92603 3.40707 5.74138 3.06954 5.45956 2.82511C5.17774 2.58067 4.8175 2.44559 4.44444 2.44446C4.08482 2.44443 3.7363 2.56897 3.45813 2.7969C3.17997 3.02483 2.98934 3.34207 2.91867 3.69468L3.79067 3.86935C3.81541 3.74554 3.87481 3.6313 3.96194 3.53993C4.04907 3.44856 4.16036 3.38381 4.28286 3.35322C4.40535 3.32262 4.53401 3.32744 4.65388 3.36711C4.77374 3.40678 4.87987 3.47968 4.95993 3.57731C5.03998 3.67494 5.09066 3.7933 5.10608 3.91861C5.1215 4.04392 5.10101 4.17104 5.04701 4.28516C4.99301 4.39929 4.90771 4.49573 4.80103 4.56327C4.69436 4.63081 4.5707 4.66667 4.44444 4.66668C4.32657 4.66668 4.21352 4.71351 4.13018 4.79686C4.04683 4.8802 4 4.99325 4 5.11112V5.77779H4.88889V5.49112Z" fill="#696868"/>
</svg>
