<svg width="100%" height="100%" viewBox="0 0 1440 900" fill="none" xmlns="http://www.w3.org/2000/svg">
<g clip-path="url(#clip0_13521_6450)">
<rect width="1440" height="900" fill="#F3F3F3"/>
<g filter="url(#filter0_f_13521_6450)">
<path fill-rule="evenodd" clip-rule="evenodd" d="M880.8 529.153C945.812 547.306 965.444 630.248 1018.49 671.99C1064.21 707.969 1152.38 699.045 1167.93 755.108C1184.32 814.217 1093.11 854.816 1086.08 915.751C1078.7 979.795 1155.68 1042.25 1128.1 1100.52C1102.13 1155.36 1025.38 1170.05 964.73 1172.08C909.682 1173.92 869.066 1120.44 814.802 1111C749.543 1099.65 665.823 1160.06 620.111 1112.12C575.274 1065.1 621.723 985.429 634.273 921.681C643.141 876.641 675.985 841.09 682.42 795.639C692.786 722.42 638.735 637.603 682.893 578.286C724.32 522.636 813.979 510.496 880.8 529.153Z" fill="#F6FBFD"/>
</g>
<g filter="url(#filter1_f_13521_6450)">
<path fill-rule="evenodd" clip-rule="evenodd" d="M1397.83 563.648C1457.9 546.201 1523.31 571.908 1577.34 603.443C1632.76 635.791 1679.79 683.489 1704.56 742.686C1728.94 800.946 1737.38 869.774 1713.19 928.111C1690.49 982.858 1627.67 1005.07 1580.74 1041.27C1543.75 1069.8 1506.78 1093.71 1466.92 1118.08C1411.56 1151.93 1358.86 1241.78 1301.08 1212.25C1237.65 1179.83 1287.7 1070.57 1252.66 1008.56C1228.2 965.279 1157.29 965.378 1136.13 920.394C1113.47 872.217 1109.99 809.457 1137.56 763.909C1164.91 718.723 1232.93 723.524 1274.79 691.315C1322.6 654.528 1339.9 580.473 1397.83 563.648Z" fill="#E8F2FA"/>
</g>
<g filter="url(#filter2_f_13521_6450)">
<path fill-rule="evenodd" clip-rule="evenodd" d="M1111.73 424.744C1199.55 426.368 1278.71 477.636 1334.69 545.322C1385.76 607.06 1391.57 688.286 1395.87 768.289C1400.53 855.089 1413.59 948.119 1360 1016.56C1301.58 1091.17 1206.12 1139.54 1111.73 1131.2C1022.21 1123.29 965.845 1041.23 903.75 976.267C843.868 913.618 769.456 854.831 764.848 768.289C760.084 678.805 816.689 599.978 880.358 536.92C943.665 474.221 1022.64 423.096 1111.73 424.744Z" fill="#77AEDE"/>
</g>
<g filter="url(#filter3_f_13521_6450)">
<path fill-rule="evenodd" clip-rule="evenodd" d="M1145.44 -139.434C1233.06 -146.855 1333.42 -162.783 1396.34 -101.343C1459.54 -39.6282 1448.36 61.5045 1441.39 149.564C1435.12 228.743 1415.67 307.475 1359.53 363.658C1303.37 419.859 1224.85 443.33 1145.44 445.73C1063.14 448.217 979.627 431.595 918 377C852.82 319.257 808.015 236.588 811.127 149.564C814.158 64.841 869.573 -6.72084 933.708 -62.1635C992.793 -113.24 1067.61 -132.844 1145.44 -139.434Z" fill="#AED2EF"/>
</g>
<g filter="url(#filter4_f_13521_6450)">
<path fill-rule="evenodd" clip-rule="evenodd" d="M953.169 70.7593C1008.7 77.5039 1063.47 89.933 1109.5 121.72C1154.59 152.854 1184.74 199.047 1209.64 247.853C1235.5 298.511 1260.59 351.826 1255.85 408.501C1250.99 466.788 1227.77 526.426 1183.22 564.318C1140.54 600.607 1079.83 608.397 1023.87 605.782C977.392 603.61 944.106 560.478 898.545 551.014C846.611 540.226 783.045 581.785 742.681 547.371C703.694 514.132 718.604 449.768 719.717 398.547C720.679 354.255 741.704 315.342 748.672 271.591C758.962 206.985 723.689 126.371 770.365 80.5325C814.802 36.8916 891.34 63.2503 953.169 70.7593Z" fill="#E8F2FA"/>
</g>
<g filter="url(#filter5_f_13521_6450)">
<path fill-rule="evenodd" clip-rule="evenodd" d="M1364.55 119.078C1394.53 136.687 1406.46 174.647 1434.42 195.312C1454.68 210.287 1481.75 211.146 1504.3 222.375C1531.07 235.704 1561.69 244.933 1580.61 268.096C1599.74 291.531 1613.4 322.708 1610.85 352.857C1608.26 383.57 1565.97 402.369 1566.66 433.185C1567.71 480.524 1624.97 518.844 1615.59 565.256C1607.97 602.938 1553.91 609.819 1525.67 635.903C1491.94 667.064 1477.5 731.242 1431.73 735.077C1383.4 739.127 1358.89 668.142 1312.57 653.76C1272.76 641.401 1227.37 675.263 1188.73 659.628C1150.96 644.34 1108.11 611.155 1106.66 570.429C1104.74 516.54 1174.54 481.639 1180.5 428.046C1183.82 398.239 1146.43 379.567 1130.73 354.013C1103.55 309.775 1051.98 272.466 1053.02 220.555C1053.86 177.966 1099.67 147.563 1135.29 124.199C1169.96 101.458 1212.05 89.9721 1253.51 89.0461C1292.17 88.1825 1331.2 99.4916 1364.55 119.078Z" fill="#E8F2FA"/>
</g>
</g>
<defs>
<filter id="filter0_f_13521_6450" x="101" y="21" width="1568.9" height="1651.12" filterUnits="userSpaceOnUse" color-interpolation-filters="sRGB">
<feFlood flood-opacity="0" result="BackgroundImageFix"/>
<feBlend mode="normal" in="SourceGraphic" in2="BackgroundImageFix" result="shape"/>
<feGaussianBlur stdDeviation="250" result="effect1_foregroundBlur_13521_6450"/>
</filter>
<filter id="filter1_f_13521_6450" x="618" y="58" width="1609.64" height="1660.12" filterUnits="userSpaceOnUse" color-interpolation-filters="sRGB">
<feFlood flood-opacity="0" result="BackgroundImageFix"/>
<feBlend mode="normal" in="SourceGraphic" in2="BackgroundImageFix" result="shape"/>
<feGaussianBlur stdDeviation="250" result="effect1_foregroundBlur_13521_6450"/>
</filter>
<filter id="filter2_f_13521_6450" x="264.567" y="-75.2949" width="1636.14" height="1707.43" filterUnits="userSpaceOnUse" color-interpolation-filters="sRGB">
<feFlood flood-opacity="0" result="BackgroundImageFix"/>
<feBlend mode="normal" in="SourceGraphic" in2="BackgroundImageFix" result="shape"/>
<feGaussianBlur stdDeviation="250" result="effect1_foregroundBlur_13521_6450"/>
</filter>
<filter id="filter3_f_13521_6450" x="310.975" y="-646.934" width="1635.92" height="1592.9" filterUnits="userSpaceOnUse" color-interpolation-filters="sRGB">
<feFlood flood-opacity="0" result="BackgroundImageFix"/>
<feBlend mode="normal" in="SourceGraphic" in2="BackgroundImageFix" result="shape"/>
<feGaussianBlur stdDeviation="250" result="effect1_foregroundBlur_13521_6450"/>
</filter>
<filter id="filter4_f_13521_6450" x="216" y="-444" width="1540.43" height="1550.24" filterUnits="userSpaceOnUse" color-interpolation-filters="sRGB">
<feFlood flood-opacity="0" result="BackgroundImageFix"/>
<feBlend mode="normal" in="SourceGraphic" in2="BackgroundImageFix" result="shape"/>
<feGaussianBlur stdDeviation="250" result="effect1_foregroundBlur_13521_6450"/>
</filter>
<filter id="filter5_f_13521_6450" x="553" y="-411" width="1563.62" height="1646.24" filterUnits="userSpaceOnUse" color-interpolation-filters="sRGB">
<feFlood flood-opacity="0" result="BackgroundImageFix"/>
<feBlend mode="normal" in="SourceGraphic" in2="BackgroundImageFix" result="shape"/>
<feGaussianBlur stdDeviation="250" result="effect1_foregroundBlur_13521_6450"/>
</filter>
<clipPath id="clip0_13521_6450">
<rect width="1440" height="900" fill="white"/>
</clipPath>
</defs>
</svg>
